<?xml version="1.0" encoding="UTF-8" standalone="no"?>
<svg width="21px" height="16px" viewBox="0 0 21 16" version="1.1" xmlns="http://www.w3.org/2000/svg" xmlns:xlink="http://www.w3.org/1999/xlink">
    <!-- Generator: Sketch 48.2 (47327) - http://www.bohemiancoding.com/sketch -->
    <title>arrow_incative</title>
    <desc>Created with Sketch.</desc>
    <defs></defs>
    <g id="home_ui_v4" stroke="none" stroke-width="1" fill="none" fill-rule="evenodd" transform="translate(-1363.000000, -1748.000000)">
        <g id="card-arw" transform="translate(962.000000, 1710.000000)" fill="#87C434" fill-rule="nonzero" stroke="#87C232" stroke-width="0.7">
            <g id="more_btn" transform="translate(392.000000, 26.000000)">
                <g id="arrow_incative" transform="translate(10.130977, 12.123596)">
                    <path d="M3.16678539,5.85519881 C3.28546083,5.8546863 3.39909324,5.805983 3.48275911,5.71977122 L9.21734612,-0.15181836 L9.21734612,17.1025752 C9.21734612,17.3561162 9.41800748,17.5616518 9.66553581,17.5616518 C9.91306414,17.5616518 10.1137255,17.3561162 10.1137255,17.1025752 L10.1137255,-0.15181836 L15.8483125,5.71977122 C16.0234388,5.89915146 16.3073746,5.89915145 16.4825009,5.7197712 C16.6576272,5.54039095 16.6576272,5.2495581 16.4825009,5.07017784 L9.98375048,-1.5864327 C9.96251559,-1.60788063 9.93924378,-1.6271041 9.91428108,-1.64381727 L9.88963065,-1.66218034 L9.84705263,-1.68513417 L9.79999271,-1.69890646 L9.76189659,-1.69890646 C9.7041966,-1.71065684 9.64480261,-1.71065684 9.58710261,-1.69890646 L9.54900649,-1.69890646 L9.50418752,-1.68513417 L9.4616095,-1.66218034 L9.42575433,-1.64152189 C9.40079163,-1.62480872 9.37751982,-1.60558525 9.35628493,-1.58413732 L2.8575345,5.07247322 C2.73095223,5.20283747 2.69251681,5.39798618 2.75985514,5.56842201 C2.82719346,5.73885784 2.98731466,5.85170038 3.16678539,5.85519881 Z" id="Shape" transform="translate(9.670478, 7.926966) rotate(90.000000) translate(-9.670478, -7.926966) "></path>
                </g>
            </g>
        </g>
    </g>
</svg>