<?xml version="1.0" encoding="UTF-8" standalone="no"?>
<svg width="22px" height="14px" viewBox="0 0 22 14" version="1.1" xmlns="http://www.w3.org/2000/svg" xmlns:xlink="http://www.w3.org/1999/xlink">
    <!-- Generator: Sketch 48.2 (47327) - http://www.bohemiancoding.com/sketch -->
    <title>arrow</title>
    <desc>Created with Sketch.</desc>
    <defs></defs>
    <g id="home_ui_v4-copy" stroke="none" stroke-width="1" fill="none" fill-rule="evenodd" transform="translate(-300.000000, -568.000000)">
        <g id="Group-17" transform="translate(149.000000, 549.000000)" fill="#FFFFFF" fill-rule="nonzero">
            <g id="Group-13" transform="translate(56.000000, 14.000000)">
                <g id="noun_895879_cc" transform="translate(95.000000, 5.000000)">
                    <g id="Group">
                        <g id="arrow">
                            <path d="M14.5905262,13.8410877 C14.4008419,13.8224767 14.2393309,13.6942449 14.1771051,13.5128518 C14.1148793,13.3314586 14.1633553,13.1301847 14.3011897,12.9976491 L19.8067067,7.45369825 L0.51066019,7.45369825 C0.495438615,7.45441746 0.480191917,7.45441746 0.464970342,7.45369825 C0.195850544,7.4409444 -0.0120620399,7.21094672 0.000553194382,6.93994932 C0.0131684286,6.66895192 0.241535672,6.45954757 0.51066019,6.4722 L19.8067067,6.4722 L14.3011897,0.935993333 C14.172973,0.813671272 14.1205071,0.631072606 14.1640518,0.458708341 C14.2075965,0.286344077 14.3403371,0.151188795 14.5110156,0.105433101 C14.681694,0.0596774081 14.8635995,0.110481956 14.9864886,0.238228421 L21.3220582,6.61792281 C21.4145848,6.71011012 21.4666487,6.83573503 21.4666487,6.96680526 C21.4666487,7.0978755 21.4145848,7.22350041 21.3220582,7.31568772 L14.9864886,13.695414 C14.8832597,13.8019103 14.7376203,13.8554907 14.5905262,13.8410877 Z" id="Shape"></path>
                        </g>
                    </g>
                </g>
            </g>
        </g>
    </g>
</svg>