<?xml version="1.0" encoding="UTF-8" standalone="no"?>
<svg width="33px" height="22px" viewBox="0 0 33 22" version="1.1" xmlns="http://www.w3.org/2000/svg" xmlns:xlink="http://www.w3.org/1999/xlink">
    <!-- Generator: Sketch 48.2 (47327) - http://www.bohemiancoding.com/sketch -->
    <title>back_arrow</title>
    <desc>Created with Sketch.</desc>
    <defs></defs>
    <g id="ERP-Problem_1" stroke="none" stroke-width="1" fill="none" fill-rule="evenodd" transform="translate(-165.000000, -1411.000000)">
        <g id="back_arrow" transform="translate(166.000000, 1412.000000)" fill="#439FE0" fill-rule="nonzero" stroke="#439FE0">
            <path d="M21.2156385,19.9966458 C20.9398242,19.969584 20.7049759,19.783126 20.6144951,19.5193676 C20.5240144,19.2556092 20.594502,18.9629428 20.7949229,18.7702268 L28.8003314,10.7089326 L0.742523922,10.7089326 C0.720390681,10.7099784 0.698220912,10.7099784 0.676087672,10.7089326 C0.284768575,10.6903877 -0.0175509319,10.3559549 0.000792505105,9.96190559 C0.0191359422,9.56785633 0.351197961,9.26336769 0.742523922,9.28176522 L28.8003314,9.28176522 L20.7949229,1.2317317 C20.6084868,1.05386682 20.5321977,0.788355533 20.5955147,0.53772578 C20.6588318,0.287096028 20.851846,0.0905707506 21.1000244,0.0240387573 C21.3482029,-0.042493236 21.6127062,0.0313801468 21.7913957,0.217132483 L31.003759,9.49365642 C31.1382992,9.62770324 31.2140038,9.8103707 31.2140038,10.000956 C31.2140038,10.1915414 31.1382992,10.3742088 31.003759,10.5082556 L21.7913957,19.784826 C21.6412935,19.939679 21.4295236,20.0175887 21.2156385,19.9966458 Z" id="Shape" transform="translate(15.607002, 10.000000) scale(-1, 1) translate(-15.607002, -10.000000) "></path>
        </g>
    </g>
</svg>