<?xml version="1.0" encoding="UTF-8" standalone="no"?>
<svg width="55px" height="45px" viewBox="0 0 55 45" version="1.1" xmlns="http://www.w3.org/2000/svg" xmlns:xlink="http://www.w3.org/1999/xlink">
    <!-- Generator: Sketch 48.2 (47327) - http://www.bohemiancoding.com/sketch -->
    <title>Banking_NBFC_Icon</title>
    <desc>Created with Sketch.</desc>
    <defs></defs>
    <g id="Page-1" stroke="none" stroke-width="1" fill="none" fill-rule="evenodd">
        <g id="Banking_NBFC_Icon">
            <g transform="translate(5.000000, -1.000000)">
                <path d="M1.77368203,11.4786782 L1.77368203,8.90265194 C1.76775231,8.42625028 2.04213044,7.99064429 2.47474212,7.78964058 L20.18352,0.10356212 C20.4960676,-0.0345207066 20.8524565,-0.0345207066 21.1650041,0.10356212 L38.2989127,7.80364072 C38.729196,8.00359428 39.0031396,8.43577502 38.9999728,8.90965201 L38.9999728,11.4926784 C39.0003661,12.1454374 38.4825502,12.6810518 37.8292025,12.7036907 L2.98651599,12.7036907 C2.66240829,12.7037124 2.35177518,12.5742039 2.12391731,12.344058 C1.89605944,12.1139121 1.76993512,11.8022775 1.77368203,11.4786782 Z M9.15584478,32.1078888 C9.57400436,32.1078888 9.91298968,31.7694126 9.91298968,31.3518811 L9.91298968,15.4617189 C9.91298968,15.0441874 9.57400436,14.7057112 9.15584478,14.7057112 L6.62501786,14.7057112 C6.20685827,14.7057112 5.86787296,15.0441874 5.86787296,15.4617189 L5.86787296,31.3518811 C5.86787296,31.7694126 6.20685827,32.1078888 6.62501786,32.1078888 L9.15584478,32.1078888 Z M21.6697674,32.1078888 C22.087927,32.1078888 22.4269123,31.7694126 22.4269123,31.3518811 L22.4269123,15.4617189 C22.4269123,15.0441874 22.087927,14.7057112 21.6697674,14.7057112 L19.1389405,14.7057112 C18.7207809,14.7057112 18.3817956,15.0441874 18.3817956,15.4617189 L18.3817956,31.3518811 C18.3817956,31.7694126 18.7207809,32.1078888 19.1389405,32.1078888 L21.6697674,32.1078888 Z M31.6528631,14.7127112 C31.451482,14.7108231 31.2577986,14.7898672 31.1153944,14.9320575 C30.9729902,15.0742478 30.8938272,15.2676404 30.8957182,15.468719 L30.8956851,26.7598342 C32.1699097,26.1683498 33.5352755,25.7967517 34.9338243,25.660823 L34.9338243,15.468719 C34.9357153,15.2676404 34.8565523,15.0742478 34.7141481,14.9320575 C34.5717439,14.7898672 34.3780605,14.7108231 34.1766794,14.7127112 L31.6528631,14.7127112 Z M1.77368203,34.571914 L1.77368203,37.1059398 C1.77368203,37.3494999 1.97142346,37.5469443 2.21534989,37.5469443 L23.5275766,37.5469443 C23.6009277,36.3789616 23.8368822,35.2268768 24.2286367,34.1239094 L2.21534989,34.1239094 C2.09698744,34.1238945 1.98357186,34.171317 1.90053856,34.2555416 C1.81750526,34.3397662 1.77180326,34.4537442 1.77368203,34.571914 Z M0.441667857,39.5769651 C0.196611696,39.5807888 -2.99195322e-05,39.7802517 0,40.0249696 L0,42.5589955 C2.49066577e-15,42.8025556 0.197741435,43 0.441667857,43 L24.4319442,43 C23.9844156,41.9056853 23.6963854,40.7529378 23.5766508,39.5769651 L0.441667857,39.5769651 Z" id="Shape" stroke="#000000" stroke-width="0.01" fill="#FFFFFF" fill-rule="nonzero"></path>
                <circle id="Oval" fill="#FFFFFF" cx="35" cy="38" r="10"></circle>
                <g id="noun_Security_1704507" transform="translate(30.000000, 31.000000)" fill="#439FE0" fill-rule="nonzero">
                    <g id="Group">
                        <path d="M10.0532258,1.54398148 C10.0532258,1.54398148 10.0346774,1.54398148 10.0532258,1.54398148 C8.99596774,1.65046296 7.9016129,1.54398148 6.97419355,1.08256173 C6.43629032,0.798611111 6.13951613,0.425925926 5.73145161,-1.77635684e-15 C5.87983871,0.159722222 4.80403226,0.905092593 4.67419355,0.99382716 C4.04354839,1.4375 3.22741935,1.65046296 2.4483871,1.66820988 C2.04032258,1.66820988 1.63225806,1.65046296 1.24274194,1.59722222 C1.13145161,1.57947531 -3.55271368e-15,1.40200617 -3.55271368e-15,1.33101852 C-3.55271368e-15,3.49614198 -3.55271368e-15,5.66126543 -3.55271368e-15,7.8441358 C-3.55271368e-15,8.02160494 -3.55271368e-15,8.19907407 -3.55271368e-15,8.37654321 C0.12983871,8.99768519 0.426612903,9.65432099 0.908870968,10.3109568 C1.37258065,10.9320988 2.02177419,11.5887346 2.81935484,12.2631173 C3.96935484,13.2037037 5.04516129,13.8425926 5.08225806,13.8780864 L5.71290323,14.2507716 L6.34354839,13.8780864 C6.38064516,13.8425926 7.475,13.2214506 8.60645161,12.2631173 C9.40403226,11.6064815 10.0717742,10.9498457 10.5354839,10.3109568 C11.0177419,9.65432099 11.3516129,9.0154321 11.4629032,8.39429012 C11.4629032,8.39429012 11.4629032,1.4375 11.4629032,1.34876543 C11.5,1.40200617 10.2201613,1.52623457 10.0532258,1.54398148 Z M10.7580645,8.12808642 L10.7395161,8.16358025 C10.5354839,9.22839506 9.66370968,10.3996914 8.14274194,11.6597222 C7.0483871,12.5648148 6.00967742,13.1682099 5.97258065,13.2037037 L5.73145161,13.345679 L5.49032258,13.2037037 C5.45322581,13.1859568 4.41451613,12.5648148 3.32016129,11.6597222 C1.79919355,10.4174383 0.945967742,9.22839506 0.741935484,8.18132716 L0.741935484,8.14583333 C0.741935484,8.14583333 0.741935484,2.23611111 0.741935484,2.20061728 C0.741935484,2.39583333 2.31854839,2.34259259 2.46693548,2.32484568 C3.69112903,2.25385802 4.78548387,1.89891975 5.71290323,1.11805556 C5.67580645,1.1712963 6.54758065,1.72145062 6.64032258,1.75694444 C7.88306452,2.37808642 9.38548387,2.43132716 10.7580645,2.18287037 L10.7580645,8.12808642 Z" id="Shape"></path>
                        <path d="M5.73145161,1.75694444 C5.41612903,2.0941358 4.48870968,2.44907407 3.35725806,2.64429012 C2.50403226,2.78626543 1.74354839,2.80401235 1.22419355,2.71527778 L1.22419355,8.09259259 C1.63225806,10.4174383 5.75,12.8310185 5.75,12.8310185 C5.75,12.8310185 9.86774194,10.4174383 10.2943548,8.09259259 L10.2943548,2.71527778 C9.79354839,2.80401235 8.99596774,2.80401235 8.12419355,2.64429012 C6.97419355,2.44907407 6.04677419,2.0941358 5.73145161,1.75694444 Z M5.75,10.4884259 C4.37741935,10.4884259 3.28306452,9.42361111 3.28306452,8.12808642 C3.28306452,7.52469136 3.48709677,6.97453704 3.91370968,6.56635802 L3.91370968,5.41280864 C3.91370968,4.4367284 4.72983871,3.63811728 5.75,3.63811728 C6.77016129,3.63811728 7.60483871,4.4367284 7.60483871,5.41280864 L7.60483871,6.56635802 C7.99435484,6.97453704 8.21693548,7.52469136 8.21693548,8.12808642 C8.21693548,9.42361111 7.10403226,10.4884259 5.75,10.4884259 Z" id="Shape"></path>
                        <path d="M6.28790323,7.59567901 C6.28790323,7.29398148 6.02822581,7.0632716 5.71290323,7.08101852 C5.45322581,7.09876543 5.23064516,7.29398148 5.21209677,7.56018519 C5.19354839,7.77314815 5.3233871,7.98611111 5.50887097,8.07484568 L5.24919355,8.99768519 C5.23064516,9.08641975 5.28629032,9.17515432 5.37903226,9.17515432 L6.08387097,9.17515432 C6.1766129,9.17515432 6.25080645,9.08641975 6.21370968,8.99768519 L5.95403226,8.07484568 C6.1766129,7.9683642 6.28790323,7.79089506 6.28790323,7.59567901 Z" id="Shape"></path>
                        <path d="M5.75,4.33024691 C5.45322581,4.33024691 5.175,4.4367284 4.97096774,4.64969136 C4.76693548,4.84490741 4.65564516,5.11111111 4.65564516,5.39506173 L4.65564516,5.99845679 C4.97096774,5.83873457 5.36048387,5.75 5.75,5.75 C6.15806452,5.75 6.52903226,5.83873457 6.84435484,5.99845679 L6.84435484,5.39506173 C6.84435484,5.11111111 6.73306452,4.84490741 6.51048387,4.64969136 C6.325,4.45447531 6.04677419,4.33024691 5.75,4.33024691 Z" id="Shape"></path>
                    </g>
                </g>
            </g>
        </g>
    </g>
</svg>