<?xml version="1.0" encoding="UTF-8" standalone="no"?>
<svg width="49px" height="49px" viewBox="0 0 49 49" version="1.1" xmlns="http://www.w3.org/2000/svg" xmlns:xlink="http://www.w3.org/1999/xlink">
    <!-- Generator: Sketch 48.2 (47327) - http://www.bohemiancoding.com/sketch -->
    <title>Being time bound </title>
    <desc>Created with Sketch.</desc>
    <defs></defs>
    <g id="Page-1" stroke="none" stroke-width="1" fill="none" fill-rule="evenodd">
        <g id="Being-time-bound-" fill="#FFFFFF" fill-rule="nonzero">
            <g transform="translate(0.000000, 1.000000)" id="Group">
                <g>
                    <path d="M5.76530769,18.5166154 C5.76369231,18.5198462 5.761,18.522 5.75938462,18.5252308 L2.15223077,24.843 C2.03376923,25.0492308 2.00523077,25.2953077 2.07092308,25.5246923 C2.13769231,25.7540769 2.29384615,25.9452308 2.50438462,26.0577692 L18.9775385,34.8013077 C19.1089231,34.8718462 19.25,34.9041538 19.39,34.9041538 C19.6942308,34.9041538 19.9898462,34.7463846 20.1524615,34.4658462 L23.7515385,28.2681538 C23.8716154,28.0619231 23.9017692,27.8158462 23.8376923,27.5864615 C23.7725385,27.356 23.6169231,27.1637692 23.4074615,27.0501538 L7.035,18.2355385 L11.0341538,16.3180769 C11.5828462,16.0553077 11.8143846,15.3973077 11.5516154,14.8486154 C11.2888462,14.2988462 10.6286923,14.0683846 10.0821538,14.3311538 L6.47769231,16.0596154 L3.01269231,10.7875385 L11.5322308,6.92084615 C12.0863077,6.66884615 12.3313077,6.01676923 12.0803846,5.46269231 C11.8289231,4.90807692 11.1763077,4.66523077 10.6222308,4.91453846 L0.929923077,9.31323077 C0.637,9.44623077 0.416230769,9.70092308 0.326846154,10.01 C0.236923077,10.3190769 0.287538462,10.6518462 0.464153846,10.9210769 L5.16438462,18.0734615 C5.31084615,18.2963846 5.52676923,18.4439231 5.76530769,18.5166154 Z" id="Shape"></path>
                    <path d="M43.8350769,18.0707692 L48.5353077,10.9183846 C48.7113846,10.6496923 48.762,10.3185385 48.6736923,10.0105385 C48.5853846,9.70253846 48.3673077,9.44730769 48.0765385,9.31323077 L38.5522308,4.91830769 C37.9997692,4.66415385 37.3455385,4.90484615 37.0903077,5.45730769 C36.8361538,6.00923077 37.0773846,6.664 37.6293077,6.91869231 L45.9916154,10.7778462 L42.5223077,16.0569231 L38.6012308,14.1766154 C38.0541538,13.9138462 37.3950769,14.1448462 37.1317692,14.6940769 C36.869,15.2427692 37.1005385,15.9002308 37.6492308,16.1635385 L41.9526154,18.2269231 L25.5930769,27.0313077 C25.3830769,27.1449231 25.228,27.3382308 25.1628462,27.5676154 C25.0982308,27.7980769 25.1289231,28.0441538 25.249,28.2503846 L28.847,34.4491538 C29.0101538,34.7296923 29.3052308,34.8874615 29.6094615,34.8874615 C29.7494615,34.8874615 29.8905385,34.8535385 30.0224615,34.7846154 L46.4961538,26.04 C46.7072308,25.9285385 46.8633846,25.7363077 46.9296154,25.508 C46.9958462,25.2786154 46.9667692,25.0325385 46.8488462,24.8252308 L43.2449231,18.5106923 C43.4786154,18.4358462 43.6913077,18.2899231 43.8350769,18.0707692 Z" id="Shape"></path>
                    <path d="M41.5945385,30.5210769 L29.4985385,36.9406154 C29.19,37.1026923 28.7888462,36.9847692 28.6165385,36.6880769 L25.9721538,32.1321538 C25.8714615,31.9598462 25.6679231,31.8763846 25.4762308,31.927 C25.284,31.9786923 25.151,32.1542308 25.151,32.3529231 L25.151,45.8376154 C25.151,45.9921538 25.2312308,46.1353846 25.3642308,46.2150769 C25.4331538,46.2570769 25.5123077,46.2780769 25.5909231,46.2780769 C25.662,46.2780769 25.7330769,46.2603077 25.7976923,46.2263846 L42.0075385,37.6217692 C42.1518462,37.5447692 42.2417692,37.3956154 42.2417692,37.2324615 L42.2417692,30.9098462 C42.2417692,30.7553077 42.1615385,30.6120769 42.0285385,30.5323846 C41.8966154,30.4526923 41.7307692,30.4494615 41.5945385,30.5210769 Z M29.0704615,40.1056923 L33.7782308,37.9927692 C33.8649231,37.954 33.9559231,37.9351538 34.0496154,37.9351538 C34.3096923,37.9351538 34.5471538,38.0886154 34.6532308,38.3255385 C34.8023846,38.6577692 34.6526923,39.0492308 34.321,39.1994615 L29.6126923,41.3123846 C29.2820769,41.4577692 28.882,41.3016154 28.7382308,40.9801538 C28.5896154,40.6473846 28.7387692,40.2553846 29.0704615,40.1056923 Z" id="Shape"></path>
                    <path d="M23.5027692,31.9819231 C23.3110769,31.9302308 23.1075385,32.0147692 23.0073846,32.186 L20.3823846,36.7063846 C20.2095385,37.0030769 19.8051538,37.1188462 19.5003846,36.9589231 L7.38176923,30.5248462 C7.24661538,30.4532308 7.08076923,30.4564615 6.94830769,30.5361538 C6.81530769,30.6158462 6.73507692,30.7590769 6.73507692,30.9136154 L6.73507692,37.2319231 C6.73507692,37.3950769 6.825,37.5442308 6.96876923,37.6212308 L23.1818462,46.2258462 C23.2464615,46.2597692 23.317,46.2775385 23.3880769,46.2775385 C23.4666923,46.2775385 23.5453077,46.2565385 23.6147692,46.2145385 C23.7477692,46.1348462 23.828,45.9916154 23.828,45.8370769 L23.828,32.4067692 C23.8285385,32.2075385 23.6955385,32.0330769 23.5027692,31.9819231 Z" id="Shape"></path>
                    <path d="M35.2880769,11.2533077 C35.2880769,5.30438462 30.4489231,0.464153846 24.5,0.464153846 C18.5516154,0.464153846 13.7124615,5.30384615 13.7124615,11.2533077 C13.7124615,17.2006154 18.5516154,22.0397692 24.5,22.0397692 C30.4489231,22.0397692 35.2880769,17.2006154 35.2880769,11.2533077 Z M29.7333077,4.46223077 L29.2713077,4.92530769 C28.8416154,5.35553846 28.8416154,6.05230769 29.2723846,6.48253846 C29.4866923,6.69738462 29.7688462,6.80507692 30.0504615,6.80507692 C30.3320769,6.80507692 30.6147692,6.69738462 30.8296154,6.48146154 L31.2905385,6.01946154 C32.1989231,7.19546154 32.8068462,8.60838462 33.0066154,10.1521538 L32.3486154,10.1521538 C31.7401538,10.1521538 31.2469231,10.6453846 31.2469231,11.2533077 C31.2469231,11.8612308 31.7401538,12.3544615 32.3486154,12.3544615 L33.0066154,12.3544615 C32.8073846,13.8976923 32.1989231,15.3106154 31.29,16.4855385 L30.8290769,16.0240769 C30.3983077,15.5938462 29.7004615,15.5938462 29.2713077,16.0240769 C28.8410769,16.4543077 28.8410769,17.1521538 29.2713077,17.5818462 L29.7322308,18.0427692 C28.5573077,18.9506154 27.1438462,19.5585385 25.6011538,19.7577692 L25.6011538,19.1008462 C25.6011538,18.4923846 25.1079231,17.9991538 24.4994615,17.9991538 C23.8915385,17.9991538 23.3983077,18.4923846 23.3983077,19.1008462 L23.3983077,19.7577692 C21.8550769,19.5585385 20.4421538,18.9500769 19.2661538,18.0422308 L19.7286923,17.5791538 C20.1583846,17.1489231 20.1583846,16.4521538 19.7276154,16.0213846 C19.2984615,15.5922308 18.6006154,15.5911538 18.1703846,16.0224615 L17.7089231,16.4844615 C16.8010769,15.3095385 16.1920769,13.8966154 15.9933846,12.3544615 L16.6503077,12.3544615 C17.2587692,12.3544615 17.7514615,11.8612308 17.7514615,11.2533077 C17.7514615,10.6448462 17.2582308,10.1521538 16.6503077,10.1521538 L15.9933846,10.1521538 C16.1920769,8.60892308 16.8010769,7.196 17.7089231,6.02053846 L18.1709231,6.482 C18.3857692,6.69738462 18.6679231,6.80507692 18.9495385,6.80507692 C19.2311538,6.80507692 19.5133077,6.69738462 19.7281538,6.482 C20.1583846,6.05176923 20.1583846,5.35446154 19.7281538,4.92476923 L19.2661538,4.46276923 C20.7167692,3.34169231 22.5286923,2.66753846 24.4994615,2.66753846 C26.4702308,2.66753846 28.2821538,3.34169231 29.7333077,4.46223077 Z" id="Shape"></path>
                    <path d="M20.9068462,12.3544615 L24.5,12.3544615 C25.1084615,12.3544615 25.6016923,11.8612308 25.6016923,11.2533077 L25.6016923,4.361 C25.6016923,3.75307692 25.1084615,3.25984615 24.5,3.25984615 C23.8920769,3.25984615 23.3988462,3.75307692 23.3988462,4.361 L23.3988462,10.1521538 L20.9073846,10.1521538 C20.2994615,10.1521538 19.8062308,10.6453846 19.8062308,11.2533077 C19.8056923,11.8612308 20.2989231,12.3544615 20.9068462,12.3544615 Z" id="Shape"></path>
                </g>
            </g>
        </g>
    </g>
</svg>