<?xml version="1.0" encoding="UTF-8" standalone="no"?>
<svg width="49px" height="49px" viewBox="0 0 49 49" version="1.1" xmlns="http://www.w3.org/2000/svg" xmlns:xlink="http://www.w3.org/1999/xlink">
    <!-- Generator: Sketch 48.2 (47327) - http://www.bohemiancoding.com/sketch -->
    <title>Being cost effective</title>
    <desc>Created with Sketch.</desc>
    <defs></defs>
    <g id="Page-1" stroke="none" stroke-width="1" fill="none" fill-rule="evenodd">
        <g id="Being-cost-effective" fill="#FFFFFF" fill-rule="nonzero">
            <g transform="translate(3.000000, 3.000000)" id="Group">
                <g transform="translate(0.089446, 0.028960)">
                    <g id="noun_840478_cc">
                        <path d="M26.7287067,16.7369767 C24.1210502,16.7369755 22.0068973,14.6234877 22.0060757,12.0158313 C22.0052542,9.40817495 24.1180749,7.29335532 26.7257309,7.29171102 C29.3333868,7.29006672 31.448873,9.40222012 31.45134,12.0098754 C31.4525257,13.2631696 30.9554875,14.465538 30.0696934,15.3521701 C29.1838993,16.2388023 27.9820014,16.7369773 26.7287067,16.7369767 Z M15.5588077,8.90017554 C17.4687425,8.11873629 18.9478172,6.55007002 19.615715,4.59753044 L33.8461664,4.59753044 C34.5607439,6.69993603 36.2117204,8.35091246 38.314126,9.06549005 L38.314126,14.9587288 C36.2117204,15.6733064 34.5607439,17.3242828 33.8461664,19.4266884 L23.9809115,19.4266884 L27.6401705,24.001879 L40.5972533,24.001879 C41.2047346,24.0042532 41.7882136,23.7649011 42.2190265,23.3366028 C42.6498393,22.9083044 42.8926027,22.3262365 42.8937846,21.7187517 L42.8937846,2.30546716 C42.8985488,1.69566854 42.6596398,1.10920788 42.230115,0.676327416 C41.8005902,0.243446951 41.2160065,-1.86104311e-05 40.6061892,0 L12.8556921,0 C11.5922881,3.96834531e-16 10.5680968,1.02419131 10.5680968,2.28759532 L10.5680968,2.68077577 L10.6842637,2.81034659 L15.5588077,8.90017554 Z M0.0549878192,34.0905318 C0.456510992,30.9339696 2.93614386,28.4451597 6.09120125,28.0319786 C6.38757654,27.9941472 6.68601433,27.9747488 6.98479318,27.9738951 C7.58784235,27.9726636 8.18852986,28.0492512 8.77197702,28.2017611 L12.5250631,23.5104035 L7.08308829,18.1488519 C5.40968145,16.4948132 4.29841992,14.3566898 3.906369,12.0366832 C3.4661419,9.44443982 4.34761086,6.80338451 6.25651576,4.99517884 C6.45731608,4.80234945 6.72427912,4.69364594 7.00266501,4.69135759 L7.10989604,4.69135759 C7.39059825,4.72005989 7.64808613,4.86006892 7.82476958,5.08007008 L26.3087185,28.2017611 C26.8921751,28.0493002 27.4928563,27.9727134 28.0959023,27.9738951 C28.4337435,27.9741587 28.7711527,27.9980461 29.1056612,28.0453825 C32.795819,28.5186875 35.4724503,31.7938166 35.201558,35.5043286 C34.9306656,39.2148406 31.8067383,42.06649 28.0869664,41.9988203 L27.6714462,41.9988203 C25.4285185,41.8677101 23.3845528,40.6688168 22.1754641,38.7751381 C20.9663755,36.8814594 20.7388762,34.5227765 21.5637454,32.4329188 L17.5425817,28.4609027 L13.5214181,32.4329188 C14.006012,33.6766477 14.126881,35.0325501 13.8699189,36.3423835 C13.2740814,39.4906546 10.596354,41.8191131 7.39584546,41.9720126 L7.00713297,41.9720126 C4.99624322,41.9723951 3.08214262,41.1086676 1.75192064,39.6006268 C0.421698661,38.0925859 -0.196373441,36.0856497 0.0549878192,34.0905318 Z M25.3212994,34.9841238 C25.3212994,36.5115595 26.5595307,37.7497907 28.0869664,37.7497907 C29.6144021,37.7497907 30.8526334,36.5115595 30.8526334,34.9841238 C30.8526334,33.456688 29.6144021,32.2184568 28.0869664,32.2184568 C26.5640258,32.2208953 25.3286665,33.4522631 25.3212994,34.9751878 L25.3212994,34.9841238 Z M4.24146597,34.9841238 C4.24146597,36.5115595 5.47969727,37.7497907 7.00713297,37.7497907 C8.53456868,37.7497907 9.77279997,36.5115595 9.77279997,34.9841238 C9.77279997,33.456688 8.53456868,32.2184568 7.00713297,32.2184568 C5.48419236,32.2208953 4.2488331,33.4522631 4.24146597,34.9751878 L4.24146597,34.9841238 Z" id="Shape"></path>
                    </g>
                </g>
            </g>
        </g>
    </g>
</svg>