<?xml version="1.0" encoding="UTF-8" standalone="no"?>
<svg width="20px" height="18px" viewBox="0 0 20 18" version="1.1" xmlns="http://www.w3.org/2000/svg" xmlns:xlink="http://www.w3.org/1999/xlink">
    <!-- Generator: Sketch 48.2 (47327) - http://www.bohemiancoding.com/sketch -->
    <title>  Book a FREE Consultation</title>
    <desc>Created with Sketch.</desc>
    <defs></defs>
    <g id="home_ui_v4" stroke="none" stroke-width="1" fill="none" fill-rule="evenodd" transform="translate(-219.000000, -20.000000)">
        <g id="--Book-a-FREE-Consultation" transform="translate(219.000000, 20.000000)" fill="#439FE0" fill-rule="nonzero">
            <g id="Group">
                <path d="M18.6318621,8.12203448 C18.3953793,7.88555172 18.0971379,7.71082759 17.7644483,7.623 C17.4863793,3.37251724 13.940069,0 9.62068966,0 C5.30131034,0 1.755,3.37251724 1.47693103,7.62268966 C1.14424138,7.71051724 0.846,7.88524138 0.609517241,8.12172414 C0.257896552,8.47334483 0.0422068966,8.96182759 0.0487241379,9.50058621 C0.0614482759,10.5582414 0.957103448,11.3936897 2.01475862,11.3936897 L2.12368966,11.3936897 L2.12431034,11.3936897 C2.74872414,11.3936897 3.20213793,10.791 3.01872414,10.1942069 C2.81793103,9.54093103 2.71489655,8.85724138 2.71489655,8.16144828 C2.71489655,7.95848276 2.72327586,7.75768966 2.74096552,7.55968966 C3.04634483,4.03168966 6.01603448,1.25565517 9.62068966,1.25565517 C13.2253448,1.25565517 16.1950345,4.03168966 16.5004138,7.56 C16.5181034,7.75768966 16.5264828,7.9587931 16.5264828,8.16175862 C16.5264828,8.84451724 16.4262414,9.51672414 16.2319655,10.160069 C15.7822759,10.9927241 14.5924138,12.9575172 12.8911034,13.9968621 C12.6391034,13.7898621 12.2856207,13.7215862 11.9606897,13.8494483 L11.385,14.0763103 C10.9083103,14.2643793 10.674,14.8034483 10.862069,15.2801379 C11.0501379,15.7571379 11.5892069,15.9911379 12.0658966,15.803069 L12.6415862,15.5762069 C13.0233103,15.4256897 13.248931,15.0498621 13.2275172,14.6613103 C14.7513103,13.7513793 15.8747586,12.212069 16.5103448,11.1705517 C16.6720345,11.3083448 16.8821379,11.3933793 17.1167586,11.3933793 L17.2266207,11.3933793 C18.2842759,11.3933793 19.179931,10.557931 19.1926552,9.50027586 C19.1991724,8.96182759 18.9834828,8.47334483 18.6318621,8.12203448 Z" id="Shape"></path>
                <path d="M12.3538966,16.5336207 C12.1484483,16.6146207 11.9364828,16.6531034 11.7276207,16.6531034 C11.5047931,16.6531034 11.286,16.6087241 11.0830345,16.5261724 C10.574069,16.8582414 10.0399655,17.028931 9.50927586,17.019 C8.52889655,16.9985172 7.60003448,16.3911724 6.82262069,15.2624483 C5.85124138,13.8516207 5.32644828,12.4243448 5.10734483,11.2965517 C5.13713793,10.9731724 5.14955172,10.6482414 5.15637931,10.323 C5.15731034,10.2835862 5.15389655,10.2423103 5.16475862,10.2053793 C5.19827586,10.0893103 5.24327586,9.97665517 5.274,9.85996552 C5.37206897,9.48537931 5.46175862,9.10893103 5.56355172,8.73527586 C5.59148276,8.63317241 5.64144828,8.53448276 5.69513793,8.44231034 C5.79941379,8.26386207 5.92013793,8.26417241 6.039,8.43517241 C6.05824138,8.46310345 6.07717241,8.49134483 6.102,8.52796552 C6.13862069,8.1782069 6.1892069,8.05717241 6.35989655,7.8777931 C6.52810345,7.70058621 6.74037931,7.60189655 6.97158621,7.57427586 C8.31413793,8.17137931 10.3524828,8.63906897 12.5115517,7.53268966 C12.654931,7.53548276 12.797069,7.54696552 12.9388966,7.59010345 C13.176,7.66210345 13.3528966,7.80175862 13.455,8.02055172 C13.5207931,8.16082759 13.5512069,8.31786207 13.5958966,8.4627931 C13.6256897,8.42772414 13.6623103,8.37744828 13.7057586,8.334 C13.8066207,8.23344828 13.8882414,8.24865517 13.9472069,8.37962069 C13.9714138,8.43331034 13.9931379,8.49072414 14.0018276,8.54844828 C14.0440345,8.82775862 14.0781724,9.10862069 14.1213103,9.38793103 C14.1542069,9.60144828 14.1936207,9.81372414 14.2314828,10.0266207 C14.2271379,10.0778276 14.2237241,10.1284138 14.2184483,10.179931 C14.1461379,10.8884483 14.022,11.5544483 13.8466552,12.1835172 C14.4065172,11.5836207 14.8583793,10.9325172 15.1783448,10.4145517 C15.1833103,10.3692414 15.1895172,10.3248621 15.1941724,10.2792414 C15.2168276,10.0567241 15.2298621,9.83731034 15.2354483,9.621 C15.3481034,9.04655172 15.3229655,8.46806897 15.263069,7.89082759 C15.2273793,7.54572414 15.1693448,7.2027931 15.1187586,6.84062069 C15.174,6.98275862 15.2258276,7.10937931 15.272069,7.23786207 C15.3173793,7.36448276 15.3564828,7.49358621 15.3983793,7.62144828 C15.4014828,7.59724138 15.3977586,7.5752069 15.3931034,7.55317241 C15.3083793,7.14568966 15.2081379,6.74286207 15.0268966,6.36486207 C14.9893448,6.28634483 14.9558276,6.20534483 14.9254138,6.12372414 C14.8214483,5.84286207 14.7199655,5.56137931 14.6175517,5.27989655 C14.6094828,5.25786207 14.6014138,5.23613793 14.5933448,5.21441379 C14.6023448,5.20944828 14.6113448,5.20448276 14.6200345,5.19982759 C14.769931,5.43662069 14.9198276,5.67341379 15.0697241,5.90989655 C15.0467586,5.83013793 15.0185172,5.75131034 14.9868621,5.67403448 C14.850931,5.34382759 14.6755862,5.04 14.4108621,4.79358621 C14.355931,4.74237931 14.3047241,4.68434483 14.2628276,4.62196552 C13.9881724,4.21324138 13.6567241,3.86844828 13.1983448,3.66517241 C12.996931,3.5757931 12.7930345,3.49106897 12.5903793,3.40448276 C12.5394828,3.38275862 12.4888966,3.36072414 12.438,3.33868966 C13.1263448,3.393 13.7665862,3.60775862 14.3847931,3.90010345 C14.3643103,3.879 14.3413448,3.86317241 14.3183793,3.84765517 C13.6874483,3.42124138 12.9817241,3.20741379 12.2328621,3.11958621 C11.9532414,3.08668966 11.6686552,3.08886207 11.4005172,2.98117241 C11.3067931,2.94331034 11.2056207,2.92313793 11.1072414,2.89768966 C10.9663448,2.86106897 10.8248276,2.82724138 10.6836207,2.79186207 C10.6842414,2.7837931 10.6848621,2.77572414 10.6854828,2.76765517 C11.1174828,2.76765517 11.5497931,2.76765517 11.9817931,2.76765517 C11.9718621,2.74251724 11.960069,2.73475862 11.9476552,2.73289655 C11.3837586,2.65189655 10.8186207,2.59075862 10.2482069,2.64227586 C10.053,2.65996552 9.86027586,2.66865517 9.666,2.64196552 C9.58003448,2.63017241 9.49313793,2.62675862 9.40686207,2.61962069 C9.40655172,2.61124138 9.40593103,2.60286207 9.40562069,2.5947931 C9.82862069,2.51596552 10.2516207,2.43713793 10.6991379,2.35365517 C10.250069,2.36482759 9.82706897,2.394 9.40872414,2.46817241 C9.17534483,2.50975862 8.94693103,2.58424138 8.71231034,2.61496552 C8.37682759,2.65872414 8.03793103,2.6757931 7.69841379,2.70434483 C8.36875862,2.38531034 9.08627586,2.24658621 9.81713793,2.16527586 C9.67965517,2.16931034 9.54217241,2.16341379 9.40562069,2.17024138 C8.89913793,2.19662069 8.39668966,2.25651724 7.90603448,2.39058621 C7.49917241,2.50168966 7.11341379,2.65686207 6.78103448,2.92686207 C6.71803448,2.97806897 6.642,3.01313793 6.57186207,3.05565517 C6.56503448,3.04510345 6.55789655,3.03424138 6.55106897,3.02337931 C6.70344828,2.91258621 6.85086207,2.79341379 7.01006897,2.6937931 C7.17268966,2.59231034 7.344,2.50293103 7.51748276,2.421 C7.68506897,2.34186207 7.86010345,2.27917241 8.03203448,2.20934483 C7.69127586,2.29593103 7.36324138,2.41541379 7.04793103,2.57027586 C6.42196552,2.87751724 5.95148276,3.38958621 5.41086207,3.80917241 C5.40868966,3.81103448 5.40651724,3.81289655 5.40496552,3.81537931 C5.3702069,3.87186207 5.33265517,3.92648276 5.30193103,3.98513793 C5.256,4.07234483 5.22155172,4.16606897 5.16941379,4.24924138 C5.14582759,4.2867931 5.09493103,4.31317241 5.05117241,4.33117241 C4.96272414,4.3677931 4.86744828,4.38858621 4.78024138,4.42768966 C4.31410345,4.63686207 4.03913793,5.00213793 3.92244828,5.49372414 C4.03417241,5.27058621 4.17537931,5.07010345 4.38206897,4.88855172 C4.3262069,5.08096552 4.27965517,5.25196552 4.22565517,5.42048276 C4.20362069,5.48906897 4.17289655,5.55672414 4.1337931,5.61693103 C4.02393103,5.78513793 3.93951724,5.96358621 3.87496552,6.17648276 C3.96310345,6.02627586 4.03944828,5.89624138 4.1157931,5.76589655 C4.122,5.769 4.12851724,5.77241379 4.13472414,5.77551724 C4.12696552,5.81089655 4.11951724,5.84658621 4.11113793,5.88196552 C3.92182759,6.70717241 3.81227586,7.54075862 3.85013793,8.38924138 C3.86658621,8.75606897 3.91375862,9.11327586 4.02734483,9.45775862 C4.01151724,9.70572414 4.00313793,9.95989655 4.00282759,10.2202759 L4.00282759,10.2305172 C4.03634483,11.9234483 4.80755172,14.0648276 6.01541379,15.8185862 C6.96537931,17.198069 8.199,17.9723793 9.48941379,17.999069 C9.51206897,17.9996897 9.53534483,18 9.55862069,18 C10.6823793,18 11.7847241,17.4345517 12.7138966,16.3917931 L12.3538966,16.5336207 Z" id="Shape"></path>
            </g>
        </g>
    </g>
</svg>