<?xml version="1.0" encoding="UTF-8" standalone="no"?>
<svg width="16px" height="16px" viewBox="0 0 16 16" version="1.1" xmlns="http://www.w3.org/2000/svg" xmlns:xlink="http://www.w3.org/1999/xlink">
    <!-- Generator: Sketch 48.2 (47327) - http://www.bohemiancoding.com/sketch -->
    <title>phone</title>
    <desc>Created with Sketch.</desc>
    <defs></defs>
    <g id="home_ui_v4-copy-8" stroke="none" stroke-width="1" fill="none" fill-rule="evenodd" transform="translate(-199.000000, -341.000000)" opacity="0.5">
        <g id="Group-9" transform="translate(0.000000, -1.000000)" fill="#4C4C4C" fill-rule="nonzero">
            <g id="phone" transform="translate(207.000000, 350.000000) scale(-1, 1) translate(-207.000000, -350.000000) translate(199.000000, 342.000000)">
                <path d="M14.5008,0.8526 L13.6484,0 L10.1868,4.2158 L11.0888,5.1176 C12.2666,6.2958 12.2666,8.2052 11.0888,9.3834 L9.3832,11.0886 C8.205,12.2662 6.2956,12.2662 5.1182,11.0886 L4.2158,10.187 L0,13.648 L0.8534,14.5004 C1.8524,15.5 3.162,16 4.4724,16 C10.8394,16.0004 16,10.8392 16,4.4722 C16,3.1618 15.5,1.8522 14.5008,0.8526 Z" id="Shape"></path>
            </g>
        </g>
    </g>
</svg>