<?xml version="1.0" encoding="UTF-8" standalone="no"?>
<svg width="55px" height="45px" viewBox="0 0 55 45" version="1.1" xmlns="http://www.w3.org/2000/svg" xmlns:xlink="http://www.w3.org/1999/xlink">
    <!-- Generator: Sketch 48.2 (47327) - http://www.bohemiancoding.com/sketch -->
    <title>Capital Markets_icon</title>
    <desc>Created with Sketch.</desc>
    <defs></defs>
    <g id="Page-1" stroke="none" stroke-width="1" fill="none" fill-rule="evenodd">
        <g id="Capital-Markets_icon" fill="#FFFFFF" fill-rule="nonzero">
            <g transform="translate(1.000000, 0.000000)" id="Group">
                <g>
                    <path d="M31.0130976,45.3768182 L31.0130976,37.555 C28.0910196,37.0991558 25.6294612,34.4201948 25.6294612,31.2982468 L25.4874482,29.0131818 L23.8388119,29.0131818 C23.197708,29.0131818 22.6132924,28.7373377 22.276669,28.1914935 C21.9388768,27.6462338 21.9084872,27.0027922 22.1960196,26.4288961 L25.0538119,20.0622727 C25.1040716,17.8981818 25.4780976,16.0058442 26.1647859,14.4244156 C26.1951755,14.3513636 26.4809547,13.6845455 26.7380976,13.3 C27.2593963,12.3964935 27.9472534,11.5812338 28.7724482,10.8887013 C31.3847859,8.3838961 34.8433573,7 38.497708,7 C46.2932274,7 52.6580976,13.3426623 52.6580976,21.1387662 C52.6580976,25.570974 50.882643,30.2679221 47.9605651,32.8709091 L47.9605651,45.3768182 L31.0130976,45.3768182 Z" id="Shape"></path>
                    <path d="M28.0519481,39.3656494 C27.4675325,38.8198052 25.9988961,37.987013 25.1281169,37.4025974 L5.09785714,37.4025974 C4.27792208,37.4025974 3.50649351,36.3822078 3.50649351,35.5616883 L3.50649351,5.11538961 C3.50649351,4.29545455 4.27792208,3.50649351 5.09785714,3.50649351 L27.3757792,3.50649351 C28.1957143,3.50649351 29.2207792,4.29545455 29.2207792,5.11538961 L29.2207792,7.39753247 C30.3896104,6.61733766 32.1428571,5.99025974 32.7272727,5.52038961 L32.7272727,4.3725974 C32.7272727,1.91220779 30.578961,0 28.117987,0 L4.35564935,0 C1.89467532,0 0,1.91220779 0,4.37318182 L0,40.0172727 C0,42.4782468 1.89467532,44.4155844 4.35564935,44.4155844 L28.0519481,44.4155844 L28.0519481,39.3656494 Z M16.0293506,42.5343506 C15.0381818,42.5343506 14.2346104,41.7307792 14.2346104,40.7396104 C14.2346104,39.7484416 15.0381818,38.9448701 16.0293506,38.9448701 C17.0205195,38.9448701 17.8240909,39.7484416 17.8240909,40.7396104 C17.8240909,41.7307792 17.0205195,42.5343506 16.0293506,42.5343506 Z" id="Shape"></path>
                    <path d="M9.50649351,34.4285714 C9.50649351,34.7511688 9.24467532,35.012987 8.92207792,35.012987 L6.58441558,35.012987 C6.26181818,35.012987 6,34.7511688 6,34.4285714 L6,28.5844156 C6,28.2618182 6.26181818,28 6.58441558,28 L8.92207792,28 C9.24467532,28 9.50649351,28.2618182 9.50649351,28.5844156 L9.50649351,34.4285714 Z" id="Shape"></path>
                    <path d="M14.5064935,34.7662338 C14.5064935,35.0888312 14.2446753,35.3506494 13.9220779,35.3506494 L11.5844156,35.3506494 C11.2618182,35.3506494 11,35.0888312 11,34.7662338 L11,26.5844156 C11,26.2618182 11.2618182,26 11.5844156,26 L13.9220779,26 C14.2446753,26 14.5064935,26.2618182 14.5064935,26.5844156 L14.5064935,34.7662338 Z" id="Shape"></path>
                    <path d="M19.5064935,34.2727273 C19.5064935,34.5953247 19.2446753,34.8571429 18.9220779,34.8571429 L16.5844156,34.8571429 C16.2618182,34.8571429 16,34.5953247 16,34.2727273 L16,22.5844156 C16,22.2618182 16.2618182,22 16.5844156,22 L18.9220779,22 C19.2446753,22 19.5064935,22.2618182 19.5064935,22.5844156 L19.5064935,34.2727273 Z" id="Shape"></path>
                    <path d="M17.5458442,17.3038312 C17.5458442,18.3131169 17.1817532,19.1248701 16.4518182,19.7379221 C15.7212987,20.3503896 14.5548052,20.7174026 13.385974,20.8377922 L13.385974,22.7792208 L12.2171429,22.7792208 L12.2171429,20.8751948 C10.4638961,20.8436364 9.29506494,20.5701299 8.12623377,20.0564286 L8.12623377,17.5416883 C8.71064935,17.8151948 9.35116883,18.055974 10.129026,18.2657792 C10.9062987,18.4755844 11.6327273,18.5994805 12.2171429,18.6374675 L12.2171429,15.6844156 L11.51,15.4366234 C10.2529221,14.9416234 9.32720779,14.4033766 8.80357143,13.8224675 C8.27993506,13.2415584 8,12.5221429 8,11.6653896 C8,10.7443506 8.42136364,9.98694805 9.14136364,9.39376623 C9.86253247,8.8 11.0483117,8.43941558 12.2171429,8.3125974 L12.2171429,7 L13.385974,7 L13.385974,8.27402597 C14.5548052,8.33772727 16.1537662,8.62935065 17.3284416,9.15064935 L16.4331169,11.3796104 C15.4431169,10.9728571 14.5548052,10.7250649 13.385974,10.6368182 L13.385974,13.4466883 C14.5548052,13.9224026 15.5038961,14.3361688 16.0281169,14.6844805 C16.5517532,15.0345455 16.9351299,15.4185065 17.1794156,15.8369481 C17.4242857,16.255974 17.5458442,16.7445455 17.5458442,17.3038312 Z M10.9185714,11.6653896 C10.9185714,11.9441558 11.0506494,12.175 11.2435065,12.3555844 C11.4375325,12.5367532 11.6327273,12.722013 12.2171429,12.9125325 L12.2171429,10.6742208 C11.0483117,10.7951948 10.9185714,11.1253896 10.9185714,11.6653896 Z M14.6804545,17.447013 C14.6804545,17.1799351 14.5729221,16.9549351 14.3572727,16.7708442 C14.1416234,16.5867532 13.9703896,16.3956494 13.385974,16.1987013 L13.385974,18.5708442 C13.9703896,18.4247403 14.6804545,18.0501299 14.6804545,17.447013 Z" id="Shape"></path>
                </g>
            </g>
        </g>
    </g>
</svg>