<?xml version="1.0" encoding="UTF-8" standalone="no"?>
<svg width="26px" height="26px" viewBox="0 0 26 26" version="1.1" xmlns="http://www.w3.org/2000/svg" xmlns:xlink="http://www.w3.org/1999/xlink">
    <!-- Generator: Sketch 48.2 (47327) - http://www.bohemiancoding.com/sketch -->
    <title>close_btn</title>
    <desc>Created with Sketch.</desc>
    <defs></defs>
    <g id="request_for_brouchure" stroke="none" stroke-width="1" fill="none" fill-rule="evenodd" transform="translate(-1012.000000, -236.000000)">
        <g id="Rectangle-30-Copy" transform="translate(392.000000, 225.000000)" fill-rule="nonzero" stroke="#979797" stroke-width="1.5">
            <g id="Group-12">
                <g id="close_btn" transform="translate(621.000000, 12.000000)">
                    <path d="M12,0 C5.36,0 0,5.36 0,12 C0,18.64 5.36,24 12,24 C18.64,24 24,18.64 24,12 C24,5.36 18.64,0 12,0 Z M16.08,15.5466667 L15.4133333,16.2133333 L11.9733333,12.8 L8.56,16.24 L7.89333333,15.5733333 L11.3066667,12.16 L7.89333333,8.72 L8.56,8.05333333 L11.9733333,11.4666667 L15.3866667,8.05333333 L16.0533333,8.72 L12.64,12.1333333 L16.08,15.5466667 Z" id="Shape"></path>
                </g>
            </g>
        </g>
    </g>
</svg>