<?xml version="1.0" encoding="UTF-8" standalone="no"?>
<svg width="15px" height="19px" viewBox="0 0 15 19" version="1.1" xmlns="http://www.w3.org/2000/svg" xmlns:xlink="http://www.w3.org/1999/xlink">
    <!-- Generator: Sketch 48.2 (47327) - http://www.bohemiancoding.com/sketch -->
    <title>download_icon</title>
    <desc>Created with Sketch.</desc>
    <defs></defs>
    <g id="Smacs-Security-Solutions" stroke="none" stroke-width="1" fill="none" fill-rule="evenodd" transform="translate(-1241.000000, -561.000000)" opacity="0.800000012">
        <g id="Group-3" transform="translate(990.000000, 546.000000)" fill="#FFFFFF" fill-rule="nonzero">
            <g id="download_icon" transform="translate(251.000000, 15.000000)">
                <path d="M13.3392128,18.7817021 L1.16587234,18.7817021 C0.533212766,18.7817021 0.0198085106,18.2682979 0.0198085106,17.6356383 C0.0198085106,17.0029787 0.533212766,16.4895745 1.16587234,16.4895745 L13.3392128,16.4895745 C13.9718723,16.4895745 14.4852766,17.0029787 14.4852766,17.6356383 C14.4852766,18.2682979 13.9722766,18.7817021 13.3392128,18.7817021 Z" id="Shape"></path>
                <path d="M12.5767872,9.19034043 C12.1292766,8.74242553 11.403234,8.74282979 10.9561277,9.18993617 L8.38223404,11.7634255 L8.38223404,1.3227234 C8.38223404,0.69006383 7.86882979,0.17706383 7.23617021,0.17706383 C6.60351064,0.17706383 6.09010638,0.69006383 6.09010638,1.3227234 L6.09010638,11.7630213 L3.51702128,9.18993617 C3.06951064,8.74282979 2.34387234,8.74282979 1.89595745,9.18993617 C1.44885106,9.63744681 1.44885106,10.3630851 1.89595745,10.811 L6.39895745,15.314 C6.4292766,15.3459362 6.79189362,15.6762128 7.23617021,15.6762128 C7.68044681,15.6762128 8.00829787,15.3831277 8.07782979,15.3091489 L12.576383,10.811 C13.0242979,10.3634894 13.0242979,9.63785106 12.5767872,9.19034043 Z" id="Shape"></path>
            </g>
        </g>
    </g>
</svg>