<?xml version="1.0" encoding="UTF-8" standalone="no"?>
<svg width="33px" height="303px" viewBox="0 0 33 303" version="1.1" xmlns="http://www.w3.org/2000/svg" xmlns:xlink="http://www.w3.org/1999/xlink">
    <!-- Generator: Sketch 48.2 (47327) - http://www.bohemiancoding.com/sketch -->
    <title>Combined Shape</title>
    <desc>Created with Sketch.</desc>
    <defs></defs>
    <g id="How-We-Work" stroke="none" stroke-width="1" fill="none" fill-rule="evenodd" transform="translate(-1228.000000, -1096.000000)">
        <g id="Group-7" transform="translate(214.000000, 1020.000000)" fill="#439FE0">
            <g id="Group-3-Copy-2" transform="translate(724.000000, 74.000000)">
                <path d="M291.75,298.5 L300,293 L300,298.5 L300.5,298.5 L300.5,299.5 L300,299.5 L300,305 L291.75,299.5 L290.5,299.5 L290.5,298.5 L291.75,298.5 Z M297,10 C294.790861,10 293,8.209139 293,6 C293,3.790861 294.790861,2 297,2 C299.209139,2 301,3.790861 301,6 C301,8.209139 299.209139,10 297,10 Z M302.5,299.5 L302.5,298.5 L306.5,298.5 L306.5,299.5 L302.5,299.5 Z M308.5,299.5 L308.5,298.5 L312.5,298.5 L312.5,299.5 L308.5,299.5 Z M314.5,299.5 L314.5,298.5 L318.5,298.5 L318.5,299.5 L314.5,299.5 Z M321.5,298.5 L321.5,296.5 L322.5,296.5 L322.5,299.5 L320.5,299.5 L320.5,298.5 L321.5,298.5 Z M322.5,294.5 L321.5,294.5 L321.5,290.5 L322.5,290.5 L322.5,294.5 Z M322.5,288.5 L321.5,288.5 L321.5,284.5 L322.5,284.5 L322.5,288.5 Z M322.5,282.5 L321.5,282.5 L321.5,278.5 L322.5,278.5 L322.5,282.5 Z M322.5,276.5 L321.5,276.5 L321.5,272.5 L322.5,272.5 L322.5,276.5 Z M322.5,270.5 L321.5,270.5 L321.5,266.5 L322.5,266.5 L322.5,270.5 Z M322.5,264.5 L321.5,264.5 L321.5,260.5 L322.5,260.5 L322.5,264.5 Z M322.5,258.5 L321.5,258.5 L321.5,254.5 L322.5,254.5 L322.5,258.5 Z M322.5,252.5 L321.5,252.5 L321.5,248.5 L322.5,248.5 L322.5,252.5 Z M322.5,246.5 L321.5,246.5 L321.5,242.5 L322.5,242.5 L322.5,246.5 Z M322.5,240.5 L321.5,240.5 L321.5,236.5 L322.5,236.5 L322.5,240.5 Z M322.5,234.5 L321.5,234.5 L321.5,230.5 L322.5,230.5 L322.5,234.5 Z M322.5,228.5 L321.5,228.5 L321.5,224.5 L322.5,224.5 L322.5,228.5 Z M322.5,222.5 L321.5,222.5 L321.5,218.5 L322.5,218.5 L322.5,222.5 Z M322.5,216.5 L321.5,216.5 L321.5,212.5 L322.5,212.5 L322.5,216.5 Z M322.5,210.5 L321.5,210.5 L321.5,206.5 L322.5,206.5 L322.5,210.5 Z M322.5,204.5 L321.5,204.5 L321.5,200.5 L322.5,200.5 L322.5,204.5 Z M322.5,198.5 L321.5,198.5 L321.5,194.5 L322.5,194.5 L322.5,198.5 Z M322.5,192.5 L321.5,192.5 L321.5,188.5 L322.5,188.5 L322.5,192.5 Z M322.5,186.5 L321.5,186.5 L321.5,182.5 L322.5,182.5 L322.5,186.5 Z M322.5,180.5 L321.5,180.5 L321.5,176.5 L322.5,176.5 L322.5,180.5 Z M322.5,174.5 L321.5,174.5 L321.5,170.5 L322.5,170.5 L322.5,174.5 Z M322.5,168.5 L321.5,168.5 L321.5,164.5 L322.5,164.5 L322.5,168.5 Z M322.5,162.5 L321.5,162.5 L321.5,158.5 L322.5,158.5 L322.5,162.5 Z M322.5,156.5 L321.5,156.5 L321.5,152.5 L322.5,152.5 L322.5,156.5 Z M322.5,150.5 L321.5,150.5 L321.5,146.5 L322.5,146.5 L322.5,150.5 Z M322.5,144.5 L321.5,144.5 L321.5,140.5 L322.5,140.5 L322.5,144.5 Z M322.5,138.5 L321.5,138.5 L321.5,134.5 L322.5,134.5 L322.5,138.5 Z M322.5,132.5 L321.5,132.5 L321.5,128.5 L322.5,128.5 L322.5,132.5 Z M322.5,126.5 L321.5,126.5 L321.5,122.5 L322.5,122.5 L322.5,126.5 Z M322.5,120.5 L321.5,120.5 L321.5,116.5 L322.5,116.5 L322.5,120.5 Z M322.5,114.5 L321.5,114.5 L321.5,110.5 L322.5,110.5 L322.5,114.5 Z M322.5,108.5 L321.5,108.5 L321.5,104.5 L322.5,104.5 L322.5,108.5 Z M322.5,102.5 L321.5,102.5 L321.5,98.5 L322.5,98.5 L322.5,102.5 Z M322.5,96.5 L321.5,96.5 L321.5,92.5 L322.5,92.5 L322.5,96.5 Z M322.5,90.5 L321.5,90.5 L321.5,86.5 L322.5,86.5 L322.5,90.5 Z M322.5,84.5 L321.5,84.5 L321.5,80.5 L322.5,80.5 L322.5,84.5 Z M322.5,78.5 L321.5,78.5 L321.5,74.5 L322.5,74.5 L322.5,78.5 Z M322.5,72.5 L321.5,72.5 L321.5,68.5 L322.5,68.5 L322.5,72.5 Z M322.5,66.5 L321.5,66.5 L321.5,62.5 L322.5,62.5 L322.5,66.5 Z M322.5,60.5 L321.5,60.5 L321.5,56.5 L322.5,56.5 L322.5,60.5 Z M322.5,54.5 L321.5,54.5 L321.5,50.5 L322.5,50.5 L322.5,54.5 Z M322.5,48.5 L321.5,48.5 L321.5,44.5 L322.5,44.5 L322.5,48.5 Z M322.5,42.5 L321.5,42.5 L321.5,38.5 L322.5,38.5 L322.5,42.5 Z M322.5,36.5 L321.5,36.5 L321.5,32.5 L322.5,32.5 L322.5,36.5 Z M322.5,30.5 L321.5,30.5 L321.5,26.5 L322.5,26.5 L322.5,30.5 Z M322.5,24.5 L321.5,24.5 L321.5,20.5 L322.5,20.5 L322.5,24.5 Z M322.5,18.5 L321.5,18.5 L321.5,14.5 L322.5,14.5 L322.5,18.5 Z M322.5,12.5 L321.5,12.5 L321.5,8.5 L322.5,8.5 L322.5,12.5 Z M321.5,5.5 L319.5,5.5 L319.5,4.5 L322.5,4.5 L322.5,6.5 L321.5,6.5 L321.5,5.5 Z M317.5,4.5 L317.5,5.5 L313.5,5.5 L313.5,4.5 L317.5,4.5 Z M311.5,4.5 L311.5,5.5 L307.5,5.5 L307.5,4.5 L311.5,4.5 Z M305.5,4.5 L305.5,5.5 L301.5,5.5 L301.5,4.5 L305.5,4.5 Z" id="Combined-Shape"></path>
            </g>
        </g>
    </g>
</svg>