<?xml version="1.0" encoding="UTF-8" standalone="no"?>
<svg width="55px" height="45px" viewBox="0 0 55 45" version="1.1" xmlns="http://www.w3.org/2000/svg" xmlns:xlink="http://www.w3.org/1999/xlink">
    <!-- Generator: Sketch 48.2 (47327) - http://www.bohemiancoding.com/sketch -->
    <title>E-Governance_Icon</title>
    <desc>Created with Sketch.</desc>
    <defs></defs>
    <g id="Page-1" stroke="none" stroke-width="1" fill="none" fill-rule="evenodd">
        <g id="E-Governance_Icon" fill="#FFFFFF" fill-rule="nonzero">
            <g id="Group-12" transform="translate(5.000000, 0.000000)">
                <g id="E-Governance_Icon">
                    <g id="Group-16">
                        <polygon id="Shape" points="39.75 0 39.75 5.25 45 5.25"></polygon>
                        <path d="M38.25,0 L13.5,0 L13.5,6.75 L33,6.75 C35.4855,6.75 37.5,8.7645 37.5,11.25 L39,11.25 L39,12.75 L37.5,12.75 L37.5,30.75 C37.5,33.2355 35.4855,35.25 33,35.25 L18,35.25 L18,36.75 L16.5,36.75 L16.5,35.25 L13.5,35.25 L13.5,45 L45,45 L45,6.75 L38.25,6.75 L38.25,0 Z M18,39.75 L16.5,39.75 L16.5,38.25 L18,38.25 L18,39.75 Z M21,39.75 L19.5,39.75 L19.5,38.25 L21,38.25 L21,39.75 Z M24,39.75 L22.5,39.75 L22.5,38.25 L24,38.25 L24,39.75 Z M27,39.75 L25.5,39.75 L25.5,38.25 L27,38.25 L27,39.75 Z M30,39.75 L28.5,39.75 L28.5,38.25 L30,38.25 L30,39.75 Z M33,39.75 L31.5,39.75 L31.5,38.25 L33,38.25 L33,39.75 Z M36,39.75 L34.5,39.75 L34.5,38.25 L36,38.25 L36,39.75 Z M39,39.75 L37.5,39.75 L37.5,38.25 L39,38.25 L39,39.75 Z M40.5,11.25 L42,11.25 L42,12.75 L40.5,12.75 L40.5,11.25 Z M40.5,14.25 L42,14.25 L42,15.75 L40.5,15.75 L40.5,14.25 Z M40.5,17.25 L42,17.25 L42,18.75 L40.5,18.75 L40.5,17.25 Z M40.5,20.25 L42,20.25 L42,21.75 L40.5,21.75 L40.5,20.25 Z M40.5,23.25 L42,23.25 L42,24.75 L40.5,24.75 L40.5,23.25 Z M40.5,26.25 L42,26.25 L42,27.75 L40.5,27.75 L40.5,26.25 Z M40.5,29.25 L42,29.25 L42,30.75 L40.5,30.75 L40.5,29.25 Z M40.5,32.25 L42,32.25 L42,33.75 L40.5,33.75 L40.5,32.25 Z M40.5,35.25 L42,35.25 L42,36.75 L40.5,36.75 L40.5,35.25 Z M40.5,38.25 L42,38.25 L42,39.75 L40.5,39.75 L40.5,38.25 Z" id="Shape"></path>
                        <path d="M29.25,8.25 L5.25,8.25 L5.25,33.75 L29.25,33.75 L29.25,8.25 Z M24.75,31.5 L6.75,31.5 L6.75,30 L24.75,30 L24.75,31.5 Z M27.75,31.5 L26.25,31.5 L26.25,30 L27.75,30 L27.75,31.5 Z M27.75,28.5 L6.75,28.5 L6.75,27 L27.75,27 L27.75,28.5 Z M27.75,25.5 L6.75,25.5 L6.75,24 L27.75,24 L27.75,25.5 Z M27.75,22.5 L6.75,22.5 L6.75,10.5 L27.75,10.5 L27.75,22.5 Z" id="Shape" transform="translate(17.250000, 21.000000) scale(1, -1) translate(-17.250000, -21.000000) "></path>
                        <path d="M36,30.75 L36,11.25 C36,9.5925 34.6575,8.25 33,8.25 L30.75,8.25 L30.75,33.75 L33,33.75 C34.6575,33.75 36,32.4075 36,30.75 Z M33.75,23.25 L32.25,23.25 L32.25,18.75 L33.75,18.75 L33.75,23.25 Z" id="Shape"></path>
                        <path d="M0,11.25 L0,30.75 C0,32.4075 1.3425,33.75 3,33.75 L3.75,33.75 L3.75,8.25 L3,8.25 C1.3425,8.25 0,9.5925 0,11.25 Z" id="Shape"></path>
                    </g>
                    <g id="noun_signature_27328" transform="translate(8.000000, 24.000000)">
                        <g id="Group">
                            <path d="M17.82198,4.60671308 L17.79588,4.42633333 C17.7192,4.4397827 16.56954,4.55608017 0.06948,4.55608017 L0.06948,4.92633333 C9.2457,4.92633333 13.58712,4.88974314 15.61356,4.85888871 C18,4.82289188 18,4.82289188 18,4.60671308 L17.82198,4.60671308 Z" id="Shape"></path>
                            <path d="M0.10188,4.3305 C0.1764,4.3305 0.29952,4.239 0.8856,3.723 C1.0638,3.88016667 1.27746,4.06933333 1.53378,4.29716667 L1.76706,4.07233333 C1.5165,3.84966667 1.30914,3.66533333 1.13022,3.50683333 C1.31076,3.347 1.52424,3.1575 1.77858,2.9315 L1.5453,2.706 C1.28286,2.93933333 1.06596,3.13133333 0.88542,3.29033333 C0.15822,2.65 0.13446,2.65466667 0.04356,2.68233333 L0.09882,2.83833333 L0,2.9585 C0.0099,2.96516667 0.09756,3.0315 0.63972,3.50666667 C0.10764,3.97316667 0.02124,4.03816667 0.01134,4.04516667 L0.108,4.173 L0.05508,4.32116667 C0.07128,4.32633333 0.0855,4.3305 0.10188,4.3305 Z" id="Shape"></path>
                            <path d="M4.47696,4.0145 C4.71186,3.812 4.89798,3.56283333 5.08464,3.3235 C5.56002,2.6475 5.9715,1.93633333 6.41124,1.24066667 C6.4629,1.16 6.51366,1.07883333 6.56496,0.998 C6.4944,1.34 6.40476,1.67866667 6.31494,2.01666667 C6.18948,2.49516667 6.02406,2.96483333 5.91876,3.4475 C5.88222,3.6505 5.88474,3.85633333 5.88258,4.061 C5.89536,4.13333333 5.94522,4.1895 6.03378,4.1445 C6.5772,3.8655 6.5682,3.87766667 6.8904,3.59566667 C6.89832,3.58866667 6.90606,3.58166667 6.91416,3.57466667 C6.98166,3.64466667 7.06014,3.79483333 7.1019,3.86066667 C7.2027,4.00433333 7.28694,4.054 7.47306,4.047 C7.68474,3.9995 7.89714,3.9615 8.11404,3.94016667 C8.23446,3.93116667 8.20548,3.933 8.27352,3.9295 C8.23176,3.96033333 8.19108,3.99233333 8.14662,4.02033333 L8.99028,3.70683333 C9.21078,3.5585 9.39078,3.36916667 9.5679,3.17866667 C9.69192,3.41116667 9.7308,3.677 9.7623,3.9325 C9.7749,3.97383333 9.77958,4.01816667 9.7992,4.057 C9.89658,4.25383333 10.11294,4.18416667 10.27062,4.09883333 C10.58094,3.9315 10.8864,3.75666667 11.19402,3.5855 C11.21472,3.5715 11.23524,3.55783333 11.25594,3.54416667 C11.27412,3.54533333 11.29266,3.54566667 11.31048,3.55083333 C11.39454,3.576 11.47176,3.6415 11.54808,3.6815 C11.66418,3.74166667 11.64672,3.73016667 11.77866,3.779 C12.08754,3.856 12.40092,3.77216667 12.71232,3.757 C13.1472,3.77066667 13.58028,3.80933333 14.01534,3.81933333 C14.22378,3.81683333 14.43708,3.835 14.6376,3.77283333 L15.34356,3.25016667 C15.16266,3.36433333 14.93172,3.33266667 14.72364,3.34416667 C14.29038,3.3445 13.85928,3.3055 13.42782,3.2725 C13.2741,3.27316667 13.26996,3.26833333 13.12056,3.28816667 C12.92058,3.3145 12.72114,3.3615 12.51846,3.31833333 C12.41118,3.28133333 12.31002,3.241 12.21372,3.1825 C12.1338,3.13416667 12.13974,3.12283333 12.05478,3.0815 C12.02418,3.06616667 11.99106,3.05533333 11.95938,3.04216667 C11.5245,3.06816667 11.87118,3.03366667 10.98234,3.4985 C10.8612,3.56183333 10.74762,3.6365 10.63548,3.71233333 C10.57896,3.6865 10.55916,3.60566667 10.54476,3.55166667 C10.49418,3.227 10.44738,2.88816667 10.25334,2.60583333 C10.22202,2.57733333 10.20132,2.50716667 10.1601,2.5205 C9.33804,2.79 9.3258,2.86516667 8.90046,3.34533333 C8.82144,3.42816667 8.74152,3.51066667 8.66034,3.59183333 C8.64846,3.59283333 8.63424,3.59383333 8.6166,3.595 C8.4024,3.61383333 8.18892,3.639 7.9821,3.69666667 C7.81632,3.72633333 7.74612,3.697 7.64928,3.56733333 C7.58646,3.47083333 7.49934,3.29266667 7.41636,3.22 C7.39782,3.20383333 7.3746,3.19366667 7.35372,3.1805 C7.02162,3.16716667 6.70248,3.464 6.44562,3.69916667 C6.44526,3.531 6.44922,3.36233333 6.47748,3.196 C6.56226,2.7225 6.69654,2.259 6.81768,1.79316667 C6.92082,1.40483333 7.03188,1.01733333 7.12224,0.626166667 C7.12656,0.607833333 7.21314,0.204666667 7.21476,0.143 C7.21584,0.0946666667 7.19802,0.0476666667 7.18956,2.33146835e-15 C6.99552,0.0976666667 6.79248,0.180833333 6.6078,0.292833333 C6.57378,0.3135 6.56586,0.3575 6.54588,0.390333333 C6.50934,0.451 6.4746,0.512333333 6.4386,0.573166667 C6.26436,0.867833333 6.08526,1.16 5.9022,1.45016667 C5.4639,2.1525 5.04558,2.867 4.54968,3.53733333 C4.3812,3.7425 4.21506,3.94633333 4.01526,4.12733333 C3.97602,4.16266667 3.93606,4.197 3.8934,4.22833333 C3.86442,4.25 3.76848,4.30266667 3.80088,4.286 C3.96378,4.20316667 4.12326,4.11483333 4.28436,4.02916667 L3.7827,4.40066667 C3.9582,4.22633333 4.27932,4.18483333 4.47696,4.0145 Z M11.8116,3.2025 C11.76156,3.23016667 11.71908,3.2525 11.67408,3.2765 C11.67678,3.27483333 11.6793,3.273 11.68182,3.27166667 C11.72466,3.24733333 11.85426,3.17916667 11.8116,3.2025 Z M10.9575,3.586 C11.04264,3.5445 10.7991,3.69383333 10.70622,3.71666667 C10.70478,3.717 10.70424,3.716 10.70244,3.71633333 C10.7874,3.6725 10.87164,3.62766667 10.9575,3.586 Z M10.13706,2.61516667 C10.09782,2.6375 10.06596,2.65283333 10.02978,2.672 C10.03374,2.66833333 10.04094,2.66083333 10.04364,2.6585 C10.07064,2.63816667 10.16676,2.59816667 10.13706,2.61516667 Z M6.45984,3.83583333 C6.45462,3.83216667 6.45264,3.826 6.45102,3.81983333 C6.47766,3.80616667 6.50358,3.79083333 6.53094,3.7785 C6.57018,3.7605 6.46416,3.83883333 6.45984,3.83583333 Z" id="Shape"></path>
                        </g>
                    </g>
                </g>
            </g>
        </g>
    </g>
</svg>