<?xml version="1.0" encoding="UTF-8" standalone="no"?>
<svg width="55px" height="45px" viewBox="0 0 55 45" version="1.1" xmlns="http://www.w3.org/2000/svg" xmlns:xlink="http://www.w3.org/1999/xlink">
    <!-- Generator: Sketch 48.2 (47327) - http://www.bohemiancoding.com/sketch -->
    <title>Enterprise_icon</title>
    <desc>Created with Sketch.</desc>
    <defs></defs>
    <g id="Page-1" stroke="none" stroke-width="1" fill="none" fill-rule="evenodd">
        <g id="Enterprise_icon" fill="#FFFFFF" fill-rule="nonzero">
            <g transform="translate(16.000000, 0.000000)">
                <g id="noun_manager_223758" transform="translate(3.913043, 9.293478)">
                    <path d="M7.82608696,9.838755 C6.04259095,9.81194641 6.28216504,7.3991727 6.28216504,7.3991727 C6.36202307,5.79065689 7.69299024,5.79065689 7.82608696,5.81746549 C7.95918367,5.81746549 9.29015084,5.79065689 9.37000887,7.3991727 C9.37000887,7.4259813 9.63620231,9.838755 7.82608696,9.838755 C7.82608696,9.838755 7.82608696,9.838755 7.82608696,9.838755 C7.82608696,9.838755 7.82608696,9.838755 7.82608696,9.838755 Z M11.9787045,13.7528101 L12.0585626,13.8332359 C12.324756,14.1013219 12.7240461,14.1013219 12.9902396,13.8332359 L13.7089618,13.1094038 C13.9751553,12.8413178 13.9751553,12.4391889 13.7089618,12.1711029 L13.0168589,11.4740794 C13.4960071,10.7502473 13.8420586,9.91918079 13.9751553,9.08811429 L14.9866903,9.08811429 C15.3593611,9.08811429 15.6521739,8.79321973 15.6521739,8.41789938 L15.6521739,7.3991727 C15.6521739,7.02385234 15.3593611,6.72895778 14.9866903,6.72895778 L13.9751553,6.72895778 C13.8154392,5.89789128 13.4960071,5.09363338 12.9902396,4.36980127 L13.7089618,3.64596916 C13.9751553,3.37788319 13.9751553,2.97575424 13.7089618,2.70766827 L12.9902396,1.98383616 C12.7240461,1.71575019 12.324756,1.71575019 12.0585626,1.98383616 L11.3398403,2.70766827 C10.621118,2.19830493 9.82253771,1.87660177 8.99733807,1.71575019 L8.99733807,0.670214918 C8.99733807,0.294894564 8.70452529,0 8.33185448,0 L7.32031943,0 C6.94764862,0 6.65483585,0.294894564 6.65483585,0.670214918 L6.65483585,1.68894159 C5.8296362,1.84979317 5.00443656,2.17149634 4.28571429,2.65405108 L3.59361136,1.95702756 C3.32741792,1.68894159 2.92812777,1.68894159 2.66193434,1.95702756 L1.94321207,2.68085967 C1.67701863,2.94894564 1.67701863,3.35107459 1.94321207,3.61916056 L2.635315,4.31618407 C2.12954747,5.04001619 1.81011535,5.87108269 1.65039929,6.70214918 L0.665483585,6.70214918 C0.292812777,6.70214918 0,6.99704375 0,7.3723641 L0,8.39109078 C0,8.76641113 0.292812777,9.0613057 0.665483585,9.0613057 L1.65039929,9.0613057 C1.81011535,9.91918079 2.12954747,10.7234387 2.635315,11.4472708 L1.91659272,12.1711029 C1.65039929,12.4391889 1.65039929,12.8413178 1.91659272,13.1094038 L2.635315,13.8332359 C2.90150843,14.1013219 3.30079858,14.1013219 3.56699201,13.8332359 L3.64685004,13.7528101 C3.6202307,13.5115328 3.6202307,13.2702554 3.59361136,13.028978 C3.54037267,11.5813138 3.8065661,11.098759 4.07275954,10.8306731 C4.15261757,10.7502473 4.2324756,10.6698215 4.31233363,10.5893957 C3.8065661,9.94598939 3.48713398,9.14173149 3.40727595,8.28385639 C3.19432121,5.87108269 4.97781721,3.72639495 7.40017746,3.51192617 C9.79591837,3.2974574 11.9254658,5.09363338 12.1384206,7.53321568 C12.244898,8.68598534 11.8988465,9.75832921 11.2333629,10.6162043 C11.3132209,10.6966301 11.393079,10.7502473 11.472937,10.8574817 C11.7391304,11.1255676 12.0053239,11.5813138 11.9520852,13.0557866 C12.0053239,13.2434468 12.0053239,13.5115328 11.9787045,13.7528101 Z M5.85625555,17.6132481 L6.65483585,25.4949755 C6.68145519,25.7362529 6.89440994,25.923913 7.13398403,25.923913 L7.82608696,25.923913 L8.51818988,25.923913 C8.75776398,25.923913 8.97071872,25.7362529 8.99733807,25.4949755 L9.79591837,17.6132481 C9.82253771,17.2915449 9.90239574,16.9966503 10.0354925,16.7017558 C10.0354925,16.7017558 10.6477374,15.5757947 10.8606921,14.7983454 C11.0736469,14.0208961 11.2333629,11.8493998 10.8606921,11.500888 C10.700976,11.3400364 10.621118,11.2596106 10.461402,11.1255676 C9.79591837,10.6430129 8.97071872,10.2945011 8.97071872,10.2945011 L8.35847382,12.2783373 L7.98580302,11.232802 C8.6512866,10.3213097 7.90594499,10.2945011 7.79946761,10.2945011 C7.69299024,10.2945011 6.97426797,10.3213097 7.61313221,11.232802 L7.29370009,12.2783373 L6.65483585,10.2945011 C6.65483585,10.2945011 5.8296362,10.6162043 5.16415262,11.1255676 C4.97781721,11.2596106 4.92457853,11.3400364 4.76486247,11.500888 C4.39219166,11.8762084 4.55190772,14.0208961 4.76486247,14.7983454 C4.97781721,15.5757947 5.59006211,16.7017558 5.59006211,16.7017558 C5.74977817,16.9966503 5.8296362,17.2915449 5.85625555,17.6132481 Z" id="Shape"></path>
                </g>
                <g id="noun_Mobile_440898">
                    <path d="M23.4782609,42.0652174 L23.4782609,2.93478261 C23.4782609,1.32065217 22.1576087,0 20.5434783,0 L2.93478261,0 C1.32065217,0 0,1.32065217 0,2.93478261 L0,42.0652174 C0,43.6793478 1.32065217,45 2.93478261,45 L20.5434783,45 C22.1576087,45 23.4782609,43.6793478 23.4782609,42.0652174 Z M9.7826087,1.95652174 L13.6956522,1.95652174 L13.6956522,2.93478261 L9.7826087,2.93478261 L9.7826087,1.95652174 Z M11.7391304,43.0434783 C10.6630435,43.0434783 9.7826087,42.1630435 9.7826087,41.0869565 C9.7826087,40.0108696 10.6630435,39.1304348 11.7391304,39.1304348 C12.8152174,39.1304348 13.6956522,40.0108696 13.6956522,41.0869565 C13.6956522,42.1630435 12.8152174,43.0434783 11.7391304,43.0434783 Z M21.5217391,37.173913 L1.95652174,37.173913 L1.95652174,4.89130435 L21.5217391,4.89130435 L21.5217391,37.173913 Z" id="Shape"></path>
                </g>
            </g>
        </g>
    </g>
</svg>