<?xml version="1.0" encoding="UTF-8" standalone="no"?>
<svg width="23px" height="22px" viewBox="0 0 23 22" version="1.1" xmlns="http://www.w3.org/2000/svg" xmlns:xlink="http://www.w3.org/1999/xlink">
    <!-- Generator: Sketch 48.2 (47327) - http://www.bohemiancoding.com/sketch -->
    <title>FAQ</title>
    <desc>Created with Sketch.</desc>
    <defs></defs>
    <g id="More_dropdown_V4" stroke="none" stroke-width="1" fill="none" fill-rule="evenodd" transform="translate(-240.000000, -98.000000)">
        <g id="FAQ" transform="translate(240.380952, 98.210526)" fill="#439FE0" fill-rule="nonzero">
            <path d="M10.8947368,0 C4.86631579,0 0,4.86631579 0,10.8947368 C0,16.9231579 4.86631579,21.7894737 10.8947368,21.7894737 C16.9231579,21.7894737 21.7894737,16.9231579 21.7894737,10.8947368 C21.7894737,4.86631579 16.9231579,0 10.8947368,0 Z M10.8947368,16.9473684 C10.1684211,16.9473684 9.58736842,16.3663158 9.58736842,15.64 C9.58736842,14.9136842 10.1684211,14.3326316 10.8947368,14.3326316 C10.8947368,14.3326316 10.8947368,14.3326316 10.8947368,14.3326316 C11.6210526,14.3326316 12.2021053,14.9136842 12.2021053,15.64 C12.2021053,16.3663158 11.6210526,16.9473684 10.8947368,16.9473684 Z M13.8484211,9.58736842 C13.7031579,9.78105263 13.5336842,9.97473684 13.3642105,10.1442105 C13.2431579,10.2652632 13.0978947,10.3863158 12.9284211,10.58 C12.7347368,10.7494737 12.5894737,10.8947368 12.4684211,11.04 C12.3473684,11.1610526 12.2263158,11.2821053 12.1536842,11.3789474 C11.9357895,11.6694737 11.8389474,12.0568421 11.8631579,12.42 L11.8631579,13.1705263 L9.97473684,13.1705263 L9.97473684,12.1536842 C9.95052632,11.8147368 9.99894737,11.4757895 10.1442105,11.1368421 C10.3378947,10.8221053 10.5557895,10.5315789 10.8463158,10.2652632 L12.0568421,9.05473684 C12.3231579,8.76421053 12.4442105,8.40105263 12.4442105,8.01368421 C12.4442105,7.62631579 12.2989474,7.26315789 12.0326316,6.99684211 C11.7663158,6.73052632 11.3789474,6.58526316 10.9915789,6.58526316 C10.6042105,6.56105263 10.2168421,6.70631579 9.92631579,6.97263158 C9.63578947,7.23894737 9.46631579,7.62631579 9.44210526,8.01368421 L7.40842105,8.01368421 C7.48105263,7.11789474 7.89263158,6.27052632 8.57052632,5.68947368 C9.27263158,5.10842105 10.1442105,4.81789474 11.0642105,4.84210526 C11.9357895,4.79368421 12.8073684,5.08421053 13.4852632,5.64105263 C14.1147368,6.17368421 14.4294737,6.94842105 14.4294737,7.91684211 C14.4052632,8.52210526 14.2115789,9.12736842 13.8484211,9.58736842 Z" id="Shape"></path>
        </g>
    </g>
</svg>