<?xml version="1.0" encoding="UTF-8" standalone="no"?>
<svg width="19px" height="15px" viewBox="0 0 19 15" version="1.1" xmlns="http://www.w3.org/2000/svg" xmlns:xlink="http://www.w3.org/1999/xlink">
    <!-- Generator: Sketch 48.2 (47327) - http://www.bohemiancoding.com/sketch -->
    <title>fax</title>
    <desc>Created with Sketch.</desc>
    <defs></defs>
    <g id="home_ui_v4-copy-8" stroke="none" stroke-width="1" fill="none" fill-rule="evenodd" transform="translate(-199.000000, -373.000000)" opacity="0.5">
        <g id="Group-9" transform="translate(0.000000, -1.000000)" fill="#4C4C4C" fill-rule="nonzero">
            <g id="fax" transform="translate(199.000000, 374.000000)">
                <g id="Group">
                    <g>
                        <rect id="Rectangle-path" x="3.93103448" y="0" width="11.137931" height="6.33333333"></rect>
                        <path d="M17.3388103,5 L16.7068966,5 L16.7068966,8 L2.29310345,8 L2.29310345,5 L1.66118966,5 C0.747551724,5 0,5.76066667 0,6.69033333 L0,13.3096667 C0,14.2393333 0.747551724,15 1.66118966,15 L17.3384828,15 C18.2524483,15 19,14.2393333 19,13.3096667 L19,6.69033333 C19,5.76066667 18.2524483,5 17.3388103,5 Z M2.29310345,13.5 C1.8407069,13.5 1.47413793,13.1266667 1.47413793,12.6666667 C1.47413793,12.2066667 1.8407069,11.8333333 2.29310345,11.8333333 C2.7455,11.8333333 3.11206897,12.2066667 3.11206897,12.6666667 C3.11206897,13.1266667 2.7455,13.5 2.29310345,13.5 Z" id="Shape"></path>
                    </g>
                </g>
            </g>
        </g>
    </g>
</svg>