<?xml version="1.0" encoding="UTF-8" standalone="no"?>
<svg width="24px" height="22px" viewBox="0 0 24 22" version="1.1" xmlns="http://www.w3.org/2000/svg" xmlns:xlink="http://www.w3.org/1999/xlink">
    <!-- Generator: Sketch 48.2 (47327) - http://www.bohemiancoding.com/sketch -->
    <title>Free_consultation</title>
    <desc>Created with Sketch.</desc>
    <defs></defs>
    <g id="More_dropdown_V4" stroke="none" stroke-width="1" fill="none" fill-rule="evenodd" transform="translate(-169.000000, -98.000000)">
        <g id="Free_consultation" transform="translate(169.190476, 98.210526)" fill="#439FE0" fill-rule="nonzero">
            <g id="Group">
                <path d="M22.5543593,9.83193648 C22.2680907,9.54566788 21.9070617,9.33415971 21.5043321,9.22784211 C21.1677223,4.08252087 16.8748203,0 11.646098,0 C6.41737568,0 2.12447368,4.08252087 1.78786388,9.22746642 C1.3851343,9.33378403 1.02410526,9.5452922 0.737836661,9.8315608 C0.312190563,10.2572069 0.051092559,10.8485281 0.0589818512,11.5007096 C0.074384755,12.781029 1.15859891,13.7923612 2.43891833,13.7923612 L2.57078221,13.7923612 L2.57153358,13.7923612 C3.3274029,13.7923612 3.87627223,13.0627895 3.65424501,12.3403557 C3.41117967,11.5495481 3.28645372,10.7219238 3.28645372,9.87964791 C3.28645372,9.63395281 3.2965971,9.39088748 3.31801089,9.15120327 C3.68768058,4.88046642 7.28256806,1.52000363 11.646098,1.52000363 C16.0096279,1.52000363 19.6045154,4.88046642 19.9741851,9.15157895 C19.9955989,9.39088748 20.0057423,9.63432849 20.0057423,9.88002359 C20.0057423,10.7065209 19.8843975,11.520245 19.6492214,12.2990309 C19.1048603,13.3069819 17.6645009,15.6854156 15.60502,16.9435699 C15.2999673,16.6929909 14.8720672,16.6103412 14.4787296,16.7651216 L13.7818421,17.0397441 C13.2047967,17.2674065 12.9211579,17.9199637 13.1488203,18.4970091 C13.3764828,19.0744301 14.0290399,19.3576933 14.6060853,19.1300309 L15.3029728,18.8554083 C15.7650599,18.6732033 16.0381797,18.2182541 16.0122577,17.747902 C17.8568494,16.6464065 19.2168131,14.7830309 19.9862069,13.5222468 C20.1819365,13.689049 20.4362722,13.7919855 20.7202868,13.7919855 L20.8532777,13.7919855 C22.1335971,13.7919855 23.2178113,12.7806534 23.2332142,11.5003339 C23.2411034,10.8485281 22.9800054,10.2572069 22.5543593,9.83193648 Z" id="Shape"></path>
                <path d="M14.9547169,20.0143829 C14.7060163,20.1124356 14.4494265,20.15902 14.1965935,20.15902 C13.9268548,20.15902 13.662,20.1052976 13.4163049,20.0053666 C12.8001887,20.4073448 12.1536425,20.6139691 11.5112287,20.6019474 C10.3244537,20.5771525 9.20004174,19.8419456 8.25896189,18.4755953 C7.08308167,16.7677514 6.44780581,15.0399964 6.18257532,13.6747731 C6.21864065,13.283314 6.23366788,12.8899764 6.24193285,12.4962632 C6.24305989,12.4485517 6.2389274,12.3985862 6.25207623,12.3538802 C6.29264973,12.2133757 6.34712341,12.0770036 6.38431579,11.9357477 C6.50303085,11.4823013 6.61160254,11.0266007 6.73482577,10.5742813 C6.76863702,10.4506824 6.8291216,10.331216 6.89411434,10.2196388 C7.02034301,10.0036225 7.16648276,10.0039982 7.31036842,10.2109982 C7.33366062,10.2448094 7.35657713,10.2789964 7.38663158,10.3233267 C7.43096189,9.89993466 7.49219782,9.75341924 7.69882214,9.53627586 C7.90244102,9.32176225 8.15940653,9.20229583 8.43928857,9.16886025 C10.0644828,9.89166969 12.5319528,10.4578203 15.1455626,9.11851906 C15.319127,9.12190018 15.4911887,9.13580036 15.6628748,9.18801996 C15.9498947,9.27517786 16.1640327,9.44423412 16.2876316,9.70908893 C16.3672759,9.87889655 16.4040926,10.0689909 16.4581906,10.2444338 C16.4942559,10.2019819 16.5385862,10.1411216 16.5911815,10.0885263 C16.7132777,9.96680581 16.8120817,9.98521416 16.883461,10.1437514 C16.9127641,10.2087441 16.9390617,10.278245 16.9495808,10.3481216 C17.0006733,10.6862341 17.0419982,11.026225 17.0942178,11.3643376 C17.1340399,11.6228058 17.1817514,11.8797713 17.2275844,12.1374882 C17.2223249,12.1994755 17.2181924,12.2607114 17.2118058,12.3230744 C17.1242722,13.1807532 16.974,13.9869637 16.7617405,14.7484682 C17.4394682,14.0222777 17.9864592,13.2340998 18.3737858,12.6070889 C18.3797967,12.5522396 18.3873103,12.4985172 18.3929456,12.4432922 C18.4203702,12.1739292 18.4361488,11.908323 18.4429111,11.6464737 C18.5792831,10.9510889 18.548853,10.2508203 18.4763466,9.55205445 C18.4331434,9.13429764 18.3628911,8.7191706 18.3016552,8.28075136 C18.3685263,8.45281307 18.431265,8.60609074 18.4872414,8.7616225 C18.5420907,8.91490018 18.5894265,9.0711833 18.6401434,9.2259637 C18.6439002,9.19666062 18.639392,9.1699873 18.6337568,9.14331397 C18.531196,8.65004537 18.4098512,8.16241198 18.1904537,7.70483303 C18.1449964,7.60978584 18.1044229,7.51173321 18.0676062,7.41292922 C17.9417532,7.07293829 17.8189056,6.73219601 17.694931,6.39145372 C17.6851633,6.3647804 17.6753956,6.33848276 17.6656279,6.31218512 C17.6765227,6.30617423 17.6874174,6.30016334 17.6979365,6.29452813 C17.8793902,6.58117241 18.0608439,6.8678167 18.2422976,7.1540853 C18.2144973,7.05753539 18.1803103,6.96211252 18.1419909,6.86856806 C17.9774428,6.46884392 17.7651833,6.10105263 17.4447278,5.80276225 C17.3782323,5.74077495 17.316245,5.67052269 17.2655281,5.59501089 C16.9330508,5.10023956 16.531824,4.68285844 15.9769437,4.43678766 C15.733127,4.32859165 15.4863049,4.22603085 15.2409855,4.12121597 C15.1793739,4.09491833 15.1181379,4.06824501 15.0565263,4.04157169 C15.8897858,4.10731579 16.6648149,4.36728675 17.4131706,4.72117786 C17.3883757,4.69563158 17.3605753,4.67647187 17.332775,4.65768784 C16.5690163,4.14150272 15.7147187,3.8826588 14.8082015,3.7763412 C14.4697132,3.73651906 14.1252142,3.73914882 13.8006261,3.60878766 C13.6871706,3.56295463 13.5646987,3.53853539 13.445608,3.50772958 C13.275049,3.46339927 13.1037387,3.42245009 12.932804,3.3796225 C12.9335554,3.36985481 12.9343067,3.36008711 12.9350581,3.35031942 C13.4580054,3.35031942 13.9813285,3.35031942 14.5042759,3.35031942 C14.4922541,3.31988929 14.4779782,3.31049728 14.462951,3.30824319 C13.7803394,3.21019056 13.096225,3.13618149 12.4057241,3.19854446 C12.1694211,3.21995826 11.9361234,3.23047731 11.7009474,3.19816878 C11.5968838,3.18389292 11.4916933,3.17976044 11.3872541,3.17111978 C11.3868784,3.16097641 11.386127,3.15083303 11.3857514,3.14106534 C11.897804,3.04564247 12.4098566,2.9502196 12.951588,2.84916152 C12.4079782,2.86268603 11.8959256,2.898 11.3895082,2.98778766 C11.1069964,3.03812886 10.8304955,3.1282922 10.5464809,3.16548457 C10.1403702,3.21845554 9.73012704,3.23911797 9.31913249,3.27368058 C10.1306025,2.88748094 10.999176,2.71955172 11.8839038,2.62112341 C11.7174773,2.62600726 11.5510508,2.61886933 11.3857514,2.6271343 C10.7726407,2.65906715 10.1644138,2.7315735 9.57046279,2.89386751 C9.07794555,3.02836116 8.61097459,3.21620145 8.20862069,3.54304356 C8.13235753,3.60503085 8.04031579,3.64748276 7.95541198,3.698951 C7.94714701,3.68617786 7.93850635,3.67302904 7.93024138,3.65988022 C8.11470054,3.52576225 8.29314882,3.38150091 8.48587296,3.26090744 C8.68272958,3.13805989 8.89010526,3.02986388 9.10011071,2.93068421 C9.30297822,2.83488566 9.51486207,2.75899819 9.72298911,2.67447005 C9.31049183,2.77928494 8.91339746,2.92392196 8.53170599,3.11138657 C7.77395826,3.48331034 7.2044265,4.1031833 6.54999093,4.61110345 C6.54736116,4.61335753 6.5447314,4.61561162 6.54285299,4.61861706 C6.50077677,4.68699093 6.45531942,4.75311071 6.41812704,4.82411434 C6.36252632,4.92968058 6.32082577,5.04313612 6.25771143,5.14381851 C6.22915971,5.18927586 6.16754809,5.22120871 6.11457713,5.24299819 C6.00750817,5.28732849 5.89217423,5.31249909 5.78660799,5.35983485 C5.22233575,5.61304356 4.88948276,6.0552196 4.74822686,6.65029764 C4.88347187,6.3801833 5.05440653,6.13749365 5.3046098,5.91772051 C5.2369873,6.15064247 5.18063521,6.35764247 5.11526679,6.56163702 C5.08859347,6.64466243 5.05140109,6.7265608 5.00406534,6.79944283 C4.87107441,7.00306171 4.76888929,7.21907804 4.69074773,7.47679492 C4.79744102,7.29496552 4.88985844,7.13755535 4.98227586,6.97976951 C4.98978947,6.98352632 4.99767877,6.9876588 5.00519238,6.99141561 C4.99580036,7.03424319 4.98678403,7.07744646 4.97664065,7.12027405 C4.7474755,8.11920871 4.61486025,9.12828675 4.66069328,10.1553975 C4.68060436,10.5994519 4.7377078,11.0318603 4.8752069,11.4488657 C4.85604719,11.7490345 4.84590381,12.0567169 4.84552813,12.3719129 L4.84552813,12.3843103 C4.88610163,14.4336479 5.81966788,17.0258439 7.2818167,19.1488149 C8.43177495,20.8187151 9.92510526,21.7560381 11.4871851,21.7883466 C11.5146098,21.789098 11.5427858,21.7894737 11.5709619,21.7894737 C12.9313013,21.7894737 14.2657187,21.1049837 15.3905064,19.8426969 L14.9547169,20.0143829 Z" id="Shape"></path>
            </g>
        </g>
    </g>
</svg>