<?xml version="1.0" encoding="UTF-8" standalone="no"?>
<svg width="24px" height="16px" viewBox="0 0 24 16" version="1.1" xmlns="http://www.w3.org/2000/svg" xmlns:xlink="http://www.w3.org/1999/xlink">
    <!-- Generator: Sketch 48.2 (47327) - http://www.bohemiancoding.com/sketch -->
    <title>surface1</title>
    <desc>Created with Sketch.</desc>
    <defs></defs>
    <g id="home_ui_v4" stroke="none" stroke-width="1" fill="none" fill-rule="evenodd" transform="translate(-628.000000, -3642.000000)" opacity="0.5">
        <path d="M635.547216,3642.00057 C631.379182,3642.00057 628,3645.5816 628,3650 C628,3654.41784 631.379182,3658 635.54668,3658 C639.71364,3658 643.092823,3654.41784 643.092823,3650 C643.092823,3649.45104 643.036476,3648.91574 642.937199,3648.39978 L642.895878,3648.22229 L635.547216,3648.22229 L635.547216,3650.88914 L640.578157,3650.88914 C640.177292,3653.41094 638.039343,3655.33314 635.547216,3655.33314 C634.212797,3655.3336 632.932909,3654.77186 631.989332,3653.7716 C631.045755,3652.77135 630.515848,3651.41458 630.516275,3650 C630.515848,3648.58543 631.045755,3647.22866 631.989332,3646.2284 C632.932909,3645.22815 634.212797,3644.66641 635.547216,3644.66686 C636.804549,3644.66686 637.951335,3645.16007 638.834098,3645.96957 L640.63665,3644.09799 C639.24841,3642.74643 637.431558,3641.99756 635.54668,3642.00001 L635.547216,3642.00057 Z M647.286078,3645.556 L647.286078,3648.22229 L644.77034,3648.22229 L644.77034,3650 L647.286078,3650 L647.286078,3652.66686 L648.962522,3652.66686 L648.962522,3650 L651.478261,3650 L651.478261,3648.22229 L648.962522,3648.22229 L648.962522,3645.55543 L647.286078,3645.556 Z" id="surface1" fill="#FFFFFF" fill-rule="nonzero"></path>
    </g>
</svg>