<?xml version="1.0" encoding="UTF-8" standalone="no"?>
<svg width="49px" height="49px" viewBox="0 0 49 49" version="1.1" xmlns="http://www.w3.org/2000/svg" xmlns:xlink="http://www.w3.org/1999/xlink">
    <!-- Generator: Sketch 48.2 (47327) - http://www.bohemiancoding.com/sketch -->
    <title>Greater transparency </title>
    <desc>Created with Sketch.</desc>
    <defs></defs>
    <g id="Page-1" stroke="none" stroke-width="1" fill="none" fill-rule="evenodd">
        <g id="Greater-transparency-" fill="#FFFFFF" fill-rule="nonzero">
            <g transform="translate(3.000000, 3.000000)" id="Shape">
                <path d="M43.109,37.99675 L31.7615833,26.6511667 C31.6570833,26.5475833 31.53975,26.4485833 31.4068333,26.3541667 C35.7665,19.6313333 34.8305833,10.6883333 29.1435833,5.00225 C25.9196667,1.7765 21.6333333,0 17.072,0 C12.5106667,0 8.2225,1.7765 4.99583333,5.00041667 C-1.661,11.6581667 -1.661,22.4904167 4.99583333,29.15 C8.22066667,32.373 12.507,34.1485833 17.0674167,34.1485833 C20.3820833,34.1485833 23.5858333,33.2025833 26.34775,31.4105 C26.444,31.5443333 26.543,31.6616667 26.6475,31.768 L37.9921667,43.1145 C38.56325,43.6846667 39.3185833,44 40.1188333,44 C40.8851667,44 41.6001667,43.7066667 42.1309167,43.1759167 L43.1713333,42.1355 C44.29425,41.0116667 44.2676667,39.1554167 43.109,37.99675 Z M10.2400833,27.36525 C10.2281667,27.357 10.21625,27.3478333 10.2034167,27.3405 L10.2400833,27.36525 Z M25.8014167,25.8050833 C25.7711667,25.83625 25.7363333,25.8628333 25.7060833,25.8921667 L25.7060833,16.8428333 L21.7635,16.8428333 L21.7635,28.501 C20.8945,28.8585 19.9796667,29.1023333 19.0419167,29.25175 L19.0419167,7.53866667 L15.0993333,7.53866667 L15.0993333,29.2526667 C14.1524167,29.1014167 13.2293333,28.85575 12.353,28.49275 L12.353,12.5565 L8.41133333,12.5565 L8.41133333,25.8710833 C8.38933333,25.8481667 8.36275,25.828 8.33983333,25.806 C3.5255,20.99075 3.5255,13.156 8.33983333,8.34258333 C10.6718333,6.01058333 13.7729167,4.72725 17.0710833,4.72725 C20.36925,4.72725 23.4694167,6.0115 25.8014167,8.3435 C28.1334167,10.6755 29.4176667,13.7765833 29.4176667,17.0738333 C29.4176667,20.3710833 28.1334167,23.4730833 25.8014167,25.8050833 Z"></path>
            </g>
        </g>
    </g>
</svg>