<?xml version="1.0" encoding="UTF-8" standalone="no"?>
<svg width="25px" height="16px" viewBox="0 0 25 16" version="1.1" xmlns="http://www.w3.org/2000/svg" xmlns:xlink="http://www.w3.org/1999/xlink">
    <!-- Generator: Sketch 48.2 (47327) - http://www.bohemiancoding.com/sketch -->
    <title>hambergur menu</title>
    <desc>Created with Sketch.</desc>
    <defs></defs>
    <g id="Cork-Infotech_responsive_view_V4" stroke="none" stroke-width="1" fill="none" fill-rule="evenodd" transform="translate(-320.000000, -28.000000)">
        <g id="hambergur-menu" transform="translate(320.000000, 28.000000)" fill-rule="nonzero">
            <path d="M1,1 L23.3125,1" id="Shape" fill="#FFFFFF"></path>
            <path d="M23.3124992,2 L1,2 C0.44771525,2 0,1.55228475 0,1 C0,0.44771525 0.44771525,0 1,0 L23.3124992,0 C23.8647839,0 24.3124992,0.44771525 24.3124992,1 C24.3124992,1.55228475 23.8647839,2 23.3124992,2 Z" id="Shape" fill="#439FE0"></path>
            <path d="M1,8 L23.3125,8" id="Shape" fill="#FFFFFF"></path>
            <path d="M23.3124992,9 L1,9 C0.44771525,9 0,8.55228475 0,8 C0,7.44771525 0.44771525,7 1,7 L23.3124992,7 C23.8647839,7 24.3124992,7.44771525 24.3124992,8 C24.3124992,8.55228475 23.8647839,9 23.3124992,9 Z" id="Shape" fill="#439FE0"></path>
            <path d="M1,15 L23.3125,15" id="Shape" fill="#FFFFFF"></path>
            <path d="M23.3124992,16 L1,16 C0.44771525,16 0,15.5522847 0,15 C0,14.4477153 0.44771525,14 1,14 L23.3124992,14 C23.8647839,14 24.3124992,14.4477153 24.3124992,15 C24.3124992,15.5522847 23.8647839,16 23.3124992,16 Z" id="Shape" fill="#439FE0"></path>
        </g>
    </g>
</svg>