<?xml version="1.0" encoding="UTF-8" standalone="no"?>
<svg width="27px" height="24px" viewBox="0 0 27 24" version="1.1" xmlns="http://www.w3.org/2000/svg" xmlns:xlink="http://www.w3.org/1999/xlink">
    <!-- Generator: Sketch 48.2 (47327) - http://www.bohemiancoding.com/sketch -->
    <title>home</title>
    <desc>Created with Sketch.</desc>
    <defs></defs>
    <g id="home_ui_v4" stroke="none" stroke-width="1" fill="none" fill-rule="evenodd" transform="translate(-1229.000000, -94.000000)" opacity="0.600000024">
        <g id="home" transform="translate(1229.000000, 94.000000)" fill="#4C4C4C" fill-rule="nonzero">
            <path d="M16.5998813,24 L16.5998813,17.4871795 L11.1381857,17.4871795 L11.1381857,24 L6.59169304,24 C6.12671084,24 5.72815467,23.6703297 5.59530262,23.2417582 L3.03790052,14.010989 C2.93826148,13.6483516 3.03790052,13.2857143 3.30360464,13.021978 L13.3007219,3.0989011 C13.400361,2.96703297 13.599639,2.96703297 13.6992781,3.0989011 L23.6963954,13.021978 C23.9620995,13.2857143 24.0617385,13.6483516 23.9620995,14.010989 L21.4046974,23.2417582 C21.2718453,23.7032967 20.8732892,24 20.408307,24 L16.5998813,24 Z M26.3129771,14 C26.1412214,14 25.9694656,13.9322034 25.8320611,13.7966102 L13.5,1.62711864 L1.16793893,13.7966102 C0.893129771,14.0677966 0.480916031,14.0677966 0.20610687,13.7966102 C-0.0687022901,13.5254237 -0.0687022901,13.1186441 0.20610687,12.8474576 L13.019084,0.203389831 C13.2938931,-0.0677966102 13.740458,-0.0677966102 13.980916,0.203389831 L26.7938931,12.8474576 C27.0687023,13.1186441 27.0687023,13.5254237 26.7938931,13.7966102 C26.6908397,13.9322034 26.4847328,14 26.3129771,14 Z" id="Combined-Shape"></path>
        </g>
    </g>
</svg>