<?xml version="1.0" encoding="UTF-8" standalone="no"?>
<svg width="66px" height="45px" viewBox="0 0 66 45" version="1.1" xmlns="http://www.w3.org/2000/svg" xmlns:xlink="http://www.w3.org/1999/xlink">
    <!-- Generator: Sketch 48.2 (47327) - http://www.bohemiancoding.com/sketch -->
    <title>We do this</title>
    <desc>Created with Sketch.</desc>
    <defs></defs>
    <g id="Our-offering" stroke="none" stroke-width="1" fill="none" fill-rule="evenodd" transform="translate(-321.000000, -3201.000000)">
        <g id="Group-8" transform="translate(166.000000, 3194.000000)" fill="#FFFFFF" fill-rule="nonzero">
            <g id="We-do-this" transform="translate(155.000000, 7.000000)">
                <path d="M65.6470588,44.7352941 L48.8382353,44.7352941 L48.7720588,44.7352941 L39.375,44.7352941 L32.0294118,44.7352941 L19.9852941,44.7352941 L19.9191176,44.7352941 L0.529411765,44.7352941 C0.661764706,36.5955882 0.330882353,32.2941176 5.55882353,30.4411765 C10.3235294,28.6544118 13.1691176,26.7352941 13.1691176,26.7352941 L16.8088235,38.3161765 L17.3382353,39.9044118 L18.9926471,35.2720588 C15.2205882,30.0441176 19.2573529,29.7794118 19.9852941,29.7794118 C19.9852941,29.7794118 19.9852941,29.7794118 19.9852941,29.7794118 C19.9852941,29.7794118 19.9852941,29.7794118 19.9852941,29.7794118 C19.9852941,29.7794118 19.9852941,29.7794118 19.9852941,29.7794118 C20.7132353,29.7794118 24.75,30.0441176 20.9779412,35.2720588 L22.6323529,39.9044118 L23.1617647,38.3161765 L26.8014706,26.7352941 C26.8014706,26.7352941 29.6470588,28.5882353 34.4117647,30.4411765 C35.5367647,30.8382353 36.4632353,31.4338235 37.125,32.0955882 C40.7647059,30.6397059 42.9485294,29.1838235 42.9485294,29.1838235 L46.125,39.1764706 L46.5882353,40.5661765 L47.9779412,36.5294118 C44.7352941,31.9632353 48.2426471,31.7647059 48.8382353,31.7647059 C48.8382353,31.7647059 48.8382353,31.7647059 48.8382353,31.7647059 C48.8382353,31.7647059 48.8382353,31.7647059 48.8382353,31.7647059 C48.8382353,31.7647059 48.8382353,31.7647059 48.8382353,31.7647059 C49.4338235,31.7647059 52.9411765,31.9632353 49.6985294,36.5294118 L51.0882353,40.5661765 L51.5514706,39.1764706 L54.7279412,29.1838235 C54.7279412,29.1838235 57.1764706,30.7720588 61.2794118,32.3602941 C65.8455882,34.0147059 65.5147059,37.7205882 65.6470588,44.7352941 Z M37.2573529,18.8602941 L37.2573529,16.8088235 C37.2573529,16.4117647 37.5882353,16.0147059 38.0514706,16.0147059 L39.7720588,16.0147059 C40.0367647,14.8235294 40.5,13.6985294 41.1617647,12.7058824 L39.9705882,11.5147059 C39.6397059,11.1838235 39.7058824,10.7205882 39.9705882,10.4558824 L41.4264706,9 C41.7573529,8.73529412 42.2205882,8.73529412 42.4852941,9 L43.6764706,10.1911765 C44.6691176,9.52941176 45.7941176,9.06617647 46.9852941,8.80147059 L46.9852941,7.08088235 C46.9852941,6.68382353 47.3161765,6.28676471 47.7794118,6.28676471 L49.8308824,6.28676471 C50.2279412,6.28676471 50.625,6.61764706 50.625,7.08088235 L50.625,8.80147059 C51.8161765,9.06617647 52.9411765,9.52941176 53.9338235,10.1911765 L55.125,9 C55.4558824,8.73529412 55.9191176,8.66911765 56.1838235,9 L57.6397059,10.4558824 C57.9044118,10.7867647 57.9044118,11.25 57.6397059,11.5147059 L56.4485294,12.7058824 C57.1102941,13.6985294 57.5735294,14.8235294 57.8382353,16.0147059 L59.5588235,16.0147059 C59.9558824,16.0147059 60.3529412,16.3455882 60.3529412,16.8088235 L60.3529412,18.8602941 C60.3529412,19.2573529 60.0220588,19.6544118 59.5588235,19.6544118 L57.8382353,19.6544118 C57.5735294,20.8455882 57.1102941,21.9705882 56.4485294,22.9632353 L57.6397059,24.1544118 C57.9044118,24.4191176 57.9044118,24.9485294 57.6397059,25.2132353 L56.25,26.7352941 C55.9191176,27 55.4558824,27 55.1911765,26.7352941 L54,25.5441176 C53.0073529,26.2058824 51.8823529,26.6691176 50.6911765,26.9338235 L50.6911765,28.6544118 C50.6911765,29.0514706 50.3602941,29.4485294 49.8970588,29.4485294 L47.8455882,29.4485294 C47.4485294,29.4485294 47.0514706,29.1176471 47.0514706,28.6544118 L47.0514706,26.9338235 C45.8602941,26.6691176 44.7352941,26.2058824 43.7426471,25.5441176 L42.5514706,26.7352941 C42.2205882,27 41.7573529,27 41.4926471,26.7352941 L40.0367647,25.2794118 C39.7058824,24.9485294 39.7058824,24.4852941 40.0367647,24.2205882 L41.2279412,23.0294118 C40.5661765,22.0367647 40.1029412,20.9117647 39.8382353,19.7205882 L38.1176471,19.7205882 C37.5882353,19.6544118 37.2573529,19.3235294 37.2573529,18.8602941 Z M44.0073529,17.8676471 C44.0073529,20.5147059 46.125,22.6985294 48.8382353,22.6985294 C51.4852941,22.6985294 53.6691176,20.5808824 53.6691176,17.8676471 C53.6691176,15.2205882 51.5514706,13.0367647 48.8382353,13.0367647 C46.1911765,13.0367647 44.0073529,15.2205882 44.0073529,17.8676471 Z M6.61764706,14.8235294 L6.61764706,12.4411765 C6.61764706,11.9779412 7.01470588,11.5808824 7.47794118,11.5808824 L9.46323529,11.5808824 C9.72794118,10.1911765 10.3235294,8.86764706 11.0514706,7.74264706 L9.66176471,6.35294118 C9.33088235,6.02205882 9.33088235,5.42647059 9.66176471,5.09558824 L11.3823529,3.375 C11.7132353,3.04411765 12.3088235,3.04411765 12.6397059,3.375 L14.0294118,4.76470588 C15.1544118,3.97058824 16.4779412,3.44117647 17.8676471,3.17647059 L17.8676471,1.19117647 C17.8676471,0.727941176 18.2647059,0.330882353 18.7279412,0.330882353 L21.1764706,0.330882353 C21.6397059,0.330882353 22.0367647,0.727941176 22.0367647,1.19117647 L22.0367647,3.17647059 C23.4264706,3.44117647 24.75,4.03676471 25.875,4.76470588 L27.2647059,3.375 C27.5955882,3.04411765 28.1911765,3.04411765 28.5220588,3.375 L30.2426471,5.09558824 C30.5735294,5.42647059 30.5735294,6.02205882 30.2426471,6.35294118 L28.8529412,7.74264706 C29.6470588,8.86764706 30.1764706,10.1911765 30.4411765,11.5808824 L32.4264706,11.5808824 C32.8897059,11.5808824 33.2867647,11.9779412 33.2867647,12.4411765 L33.2867647,14.8235294 C33.2867647,15.2867647 32.8897059,15.6838235 32.4264706,15.6838235 L30.4411765,15.6838235 C30.1764706,17.0735294 29.5808824,18.3970588 28.8529412,19.5220588 L30.2426471,20.9117647 C30.5735294,21.2426471 30.5735294,21.8382353 30.2426471,22.1691176 L28.5220588,23.8897059 C28.1911765,24.2205882 27.5955882,24.2205882 27.2647059,23.8897059 L25.875,22.5 C24.75,23.2941176 23.4264706,23.8235294 22.0367647,24.0882353 L22.0367647,26.0735294 C22.0367647,26.5367647 21.6397059,26.9338235 21.1764706,26.9338235 L18.7941176,26.9338235 C18.3308824,26.9338235 17.9338235,26.5367647 17.9338235,26.0735294 L17.9338235,24.0882353 C16.5441176,23.8235294 15.2205882,23.2279412 14.0955882,22.5 L12.7058824,23.8897059 C12.375,24.2205882 11.7794118,24.2205882 11.4485294,23.8897059 L9.72794118,22.1691176 C9.39705882,21.8382353 9.39705882,21.2426471 9.72794118,20.9117647 L11.1176471,19.5220588 C10.3235294,18.3970588 9.79411765,17.0735294 9.52941176,15.6838235 L7.54411765,15.6838235 C7.01470588,15.75 6.61764706,15.3529412 6.61764706,14.8235294 Z M15.4191176,13.9632353 L17.0735294,15.6176471 L18.7941176,17.3382353 L20.5147059,15.6176471 L24.4852941,11.6470588 L22.7647059,9.92647059 L18.7941176,13.8970588 L17.1397059,12.2426471 L15.4191176,13.9632353 Z" id="Shape"></path>
            </g>
        </g>
    </g>
</svg>