<?xml version="1.0" encoding="UTF-8" standalone="no"?>
<svg width="52px" height="45px" viewBox="0 0 52 45" version="1.1" xmlns="http://www.w3.org/2000/svg" xmlns:xlink="http://www.w3.org/1999/xlink">
    <!-- Generator: Sketch 48.2 (47327) - http://www.bohemiancoding.com/sketch -->
    <title>Which result in this</title>
    <desc>Created with Sketch.</desc>
    <defs></defs>
    <g id="Our-offering" stroke="none" stroke-width="1" fill="none" fill-rule="evenodd" transform="translate(-697.000000, -3198.000000)">
        <g id="Group-8" transform="translate(166.000000, 3194.000000)" fill="#FFFFFF" fill-rule="nonzero">
            <g id="Which-result-in-this" transform="translate(531.000000, 4.000000)">
                <path d="M48.9924419,1.76337209 L16.0273256,1.76337209 C17.0174998,3.80290519 16.9884143,6.18985103 15.9488372,8.20465116 L25.1581395,8.81686047 C27.4282469,8.96485286 29.1905349,10.8549815 29.1794446,13.1298806 C29.1683543,15.4047798 27.3877214,17.2776364 25.1162791,17.4034884 L17.7017442,17.9267442 L20.0563953,31.5313953 L28.7319767,31.5313953 L20.1872093,42.1587209 C19.6810459,42.7894314 19.7792322,43.7105118 20.4069767,44.2203488 L20.5325581,44.3197674 C21.1654754,44.828255 22.0907387,44.7275301 22.5994186,44.0947674 L29.9825581,34.9273256 L29.9825581,43.1476744 C29.9825581,43.5376352 30.1374694,43.9116242 30.4132133,44.1873681 C30.6889572,44.4631119 31.0629462,44.6180233 31.452907,44.6180233 L31.6151163,44.6180233 C32.4271675,44.6180233 33.0854651,43.9597257 33.0854651,43.1476744 L33.0854651,34.9273256 L40.4633721,44.1 C40.972052,44.7327627 41.8973153,44.8334875 42.5302326,44.325 L42.655814,44.2255814 C43.2885766,43.7169015 43.3893015,42.7916382 42.880814,42.1587209 L34.3255814,31.5366279 L48.9767442,31.5366279 C50.6384149,31.5366279 51.9854651,30.1895777 51.9854651,28.527907 L51.9854651,4.77209302 C51.9854876,3.11653341 50.6479789,1.7720098 48.9924419,1.76337209 Z M34.3831395,23.4889535 C34.3831395,24.0669259 33.9146003,24.5354651 33.3366279,24.5354651 L31.0343023,24.5354651 C30.4563299,24.5354651 29.9877907,24.0669259 29.9877907,23.4889535 L29.9877907,17.869186 C29.9877907,17.2912136 30.4563299,16.8226744 31.0343023,16.8226744 L33.3366279,16.8226744 C33.9146003,16.8226744 34.3831395,17.2912136 34.3831395,17.869186 L34.3831395,23.4889535 Z M41.1383721,23.4889535 C41.1383721,24.0669259 40.6698329,24.5354651 40.0918605,24.5354651 L37.7895349,24.5354651 C37.2115625,24.5354651 36.7430233,24.0669259 36.7430233,23.4889535 L36.7430233,9.81104651 C36.7430233,9.2330741 37.2115625,8.76453488 37.7895349,8.76453488 L40.0918605,8.76453488 C40.6698329,8.76453488 41.1383721,9.2330741 41.1383721,9.81104651 L41.1383721,23.4889535 Z M47.8936047,23.4889535 C47.8936047,24.0669259 47.4250654,24.5354651 46.847093,24.5354651 L44.5447674,24.5354651 C43.966795,24.5354651 43.4982558,24.0669259 43.4982558,23.4889535 L43.4982558,15.0593023 C43.4982558,14.4813299 43.966795,14.0127907 44.5447674,14.0127907 L46.847093,14.0127907 C47.4250654,14.0127907 47.8936047,14.4813299 47.8936047,15.0593023 L47.8936047,23.4889535 Z M9.49709302,0.350581395 C12.0083832,0.350581395 14.044186,2.38638429 14.044186,4.89767442 C14.044186,7.40896455 12.0083832,9.44476744 9.49709302,9.44476744 C6.98580289,9.44476744 4.95,7.40896455 4.95,4.89767442 C4.95,2.38638429 6.98580289,0.350581395 9.49709302,0.350581395 Z M17.5813953,33.2372093 C17.644367,33.5344373 17.5701747,33.8442215 17.379388,34.0806753 C17.1886013,34.317129 16.9014972,34.4551217 16.5976744,34.4563953 L12.5581395,34.4563953 L11.7627907,43.3255814 C11.6776344,44.0792106 11.0404017,44.6488922 10.2819767,44.6494186 L8.24651163,44.6494186 C7.48808671,44.6488922 6.85085399,44.0792106 6.76569767,43.3255814 L5.97034884,34.4563953 L1.93081395,34.4563953 C1.62699113,34.4551217 1.33988703,34.317129 1.14910033,34.0806753 C0.958313634,33.8442215 0.88412134,33.5344373 0.947093023,33.2372093 L2.30755814,27.5494186 C2.10948083,27.6099369 1.90082315,27.6277709 1.69534884,27.6017442 C1.2663371,27.5471943 0.87883435,27.3180709 0.624293502,26.9684487 C0.369752653,26.6188264 0.270724908,26.1796802 0.350581395,25.7546512 L3.20755814,13.5052326 C3.55354516,12.0226728 4.77244402,10.9034454 6.27906977,10.6848837 C6.5517691,10.6462447 6.82795969,10.7262448 7.0377907,10.9046512 L8.25697674,11.9511628 C8.83993452,12.4388715 9.68855385,12.4388715 10.2715116,11.9511628 L11.4906977,10.9046512 C11.7005287,10.7262448 11.9767193,10.6462447 12.2494186,10.6848837 L25.0063953,11.5116279 C25.4370181,11.537519 25.8380067,11.7394885 26.1151549,12.0700867 C26.392303,12.4006849 26.5211813,12.8307709 26.4715116,13.2593023 C26.3576704,14.0456262 25.6958789,14.6368266 24.9017442,14.6616279 L14.4994186,15.4412791 L17.5813953,33.2372093 Z" id="Shape"></path>
            </g>
        </g>
    </g>
</svg>