<?xml version="1.0" encoding="UTF-8" standalone="no"?>
<svg width="45px" height="45px" viewBox="0 0 45 45" version="1.1" xmlns="http://www.w3.org/2000/svg" xmlns:xlink="http://www.w3.org/1999/xlink">
    <!-- Generator: Sketch 48.2 (47327) - http://www.bohemiancoding.com/sketch -->
    <title>Giving you this benefits</title>
    <desc>Created with Sketch.</desc>
    <defs></defs>
    <g id="Our-offering" stroke="none" stroke-width="1" fill="none" fill-rule="evenodd" transform="translate(-1082.000000, -3194.000000)">
        <g id="Group-8" transform="translate(166.000000, 3194.000000)" fill="#FFFFFF" fill-rule="nonzero">
            <g id="Giving-you-this-benefits" transform="translate(916.000000, 0.000000)">
                <g id="Group">
                    <path d="M20.75,25.5 L18,25.5 C17.8333333,25.5 17.6666667,25.3333333 17.6666667,25.1666667 L17.6666667,14.9166667 C17.6666667,14.75 17.8333333,14.5833333 18,14.5833333 L20.75,14.5833333 C20.9166667,14.5833333 21.0833333,14.75 21.0833333,14.9166667 L21.0833333,25.1666667 C21.0833333,25.3333333 20.9166667,25.5 20.75,25.5 Z" id="Shape"></path>
                    <path d="M26.25,25.5 L23.5,25.5 C23.3333333,25.5 23.1666667,25.3333333 23.1666667,25.1666667 L23.1666667,12.3333333 C23.1666667,12.1666667 23.3333333,12 23.5,12 L26.25,12 C26.4166667,12 26.5833333,12.1666667 26.5833333,12.3333333 L26.5833333,25.0833333 C26.5833333,25.3333333 26.4166667,25.5 26.25,25.5 Z" id="Shape"></path>
                    <path d="M31.6666667,25.5 L28.9166667,25.5 C28.75,25.5 28.5833333,25.3333333 28.5833333,25.1666667 L28.5833333,9.83333333 C28.5833333,9.66666667 28.75,9.5 28.9166667,9.5 L31.6666667,9.5 C31.8333333,9.5 32,9.66666667 32,9.83333333 L32,25.0833333 C32,25.3333333 31.8333333,25.5 31.6666667,25.5 Z" id="Shape"></path>
                    <path d="M37.1666667,25.5 L34.4166667,25.5 C34.25,25.5 34.0833333,25.3333333 34.0833333,25.1666667 L34.0833333,7.25 C34.0833333,7.08333333 34.25,6.91666667 34.4166667,6.91666667 L37.1666667,6.91666667 C37.3333333,6.91666667 37.5,7.08333333 37.5,7.25 L37.5,25.0833333 C37.5,25.3333333 37.3333333,25.5 37.1666667,25.5 Z" id="Shape"></path>
                    <path d="M34.5833333,1.75 L31.1666667,6.91666667 C31,7.25 30.5,7.16666667 30.3333333,6.83333333 L29.3333333,4.66666667 L15.25,11.0833333 C14.8333333,11.25 14.25,11.0833333 14.0833333,10.6666667 C13.9166667,10.25 14.0833333,9.66666667 14.5,9.5 L28.5833333,3.08333333 L27.5833333,0.833333333 C27.4166667,0.5 27.75,0.0833333333 28.0833333,0.166666667 L34.25,1 C34.5833333,1.08333333 34.75,1.5 34.5833333,1.75 Z" id="Shape"></path>
                    <path d="M44,26.9166667 C43.3333333,26.5833333 42.5833333,26.5833333 41.9166667,27 L30,35.0833333 L19.25,35.0833333 C18.1666667,35.0833333 17.25,34.1666667 17.25,33.0833333 C17.25,31.9166667 18.1666667,31.0833333 19.25,31.0833333 L27.5,31.0833333 C28.5,31.0833333 29.3333333,30.25 29.3333333,29.25 C29.3333333,28.25 28.5,27.4166667 27.5,27.4166667 L10,27.4166667 C8.91666667,27.4166667 7.91666667,27.8333333 7.16666667,28.5833333 L0.25,35.5 L9.5,44.3333333 L13.0833333,40.75 C13.8333333,40 14.8333333,39.5833333 15.9166667,39.5833333 L30.1666667,39.5833333 C31.0833333,39.5833333 32.0833333,39.25 32.8333333,38.6666667 L44.25,30.1666667 C44.75,29.75 45,29.1666667 45,28.5833333 C45,27.9166667 44.6666667,27.25 44,26.9166667 Z" id="Shape"></path>
                </g>
            </g>
        </g>
    </g>
</svg>