<?xml version="1.0" encoding="UTF-8" standalone="no"?>
<svg width="135px" height="12px" viewBox="0 0 145 12" version="1.1" xmlns="http://www.w3.org/2000/svg" xmlns:xlink="http://www.w3.org/1999/xlink">
    <!-- Generator: Sketch 48.2 (47327) - http://www.bohemiancoding.com/sketch -->
    <title>Combined Shape</title>
    <desc>Created with Sketch.</desc>
    <defs></defs>
    <g id="How-We-Work" stroke="none" stroke-width="1" fill="none" fill-rule="evenodd" transform="translate(-356.000000, -1387.000000)">
        <path d="M364.5,1393.5 L364.5,1392.5 L368.5,1392.5 L368.5,1393.5 L364.5,1393.5 Z M370.5,1393.5 L370.5,1392.5 L374.5,1392.5 L374.5,1393.5 L370.5,1393.5 Z M376.5,1393.5 L376.5,1392.5 L380.5,1392.5 L380.5,1393.5 L376.5,1393.5 Z M382.5,1393.5 L382.5,1392.5 L386.5,1392.5 L386.5,1393.5 L382.5,1393.5 Z M388.5,1393.5 L388.5,1392.5 L392.5,1392.5 L392.5,1393.5 L388.5,1393.5 Z M394.5,1393.5 L394.5,1392.5 L398.5,1392.5 L398.5,1393.5 L394.5,1393.5 Z M400.5,1393.5 L400.5,1392.5 L404.5,1392.5 L404.5,1393.5 L400.5,1393.5 Z M406.5,1393.5 L406.5,1392.5 L410.5,1392.5 L410.5,1393.5 L406.5,1393.5 Z M412.5,1393.5 L412.5,1392.5 L416.5,1392.5 L416.5,1393.5 L412.5,1393.5 Z M418.5,1393.5 L418.5,1392.5 L422.5,1392.5 L422.5,1393.5 L418.5,1393.5 Z M424.5,1393.5 L424.5,1392.5 L428.5,1392.5 L428.5,1393.5 L424.5,1393.5 Z M430.5,1393.5 L430.5,1392.5 L434.5,1392.5 L434.5,1393.5 L430.5,1393.5 Z M436.5,1393.5 L436.5,1392.5 L440.5,1392.5 L440.5,1393.5 L436.5,1393.5 Z M442.5,1393.5 L442.5,1392.5 L446.5,1392.5 L446.5,1393.5 L442.5,1393.5 Z M448.5,1393.5 L448.5,1392.5 L452.5,1392.5 L452.5,1393.5 L448.5,1393.5 Z M454.5,1393.5 L454.5,1392.5 L458.5,1392.5 L458.5,1393.5 L454.5,1393.5 Z M460.5,1393.5 L460.5,1392.5 L464.5,1392.5 L464.5,1393.5 L460.5,1393.5 Z M466.5,1393.5 L466.5,1392.5 L470.5,1392.5 L470.5,1393.5 L466.5,1393.5 Z M472.5,1393.5 L472.5,1392.5 L476.5,1392.5 L476.5,1393.5 L472.5,1393.5 Z M478.5,1393.5 L478.5,1392.5 L482.5,1392.5 L482.5,1393.5 L478.5,1393.5 Z M484.5,1393.5 L484.5,1392.5 L488.5,1392.5 L488.5,1393.5 L484.5,1393.5 Z M493.030947,1392.5 C493.276996,1390.52684 494.960191,1389 497,1389 C499.209139,1389 501,1390.79086 501,1393 C501,1395.20914 499.209139,1397 497,1397 C494.960191,1397 493.276996,1395.47316 493.030947,1393.5 L490.5,1393.5 L490.5,1392.5 L493.030947,1392.5 Z M365,1387 L365,1399 L356,1393 L365,1387 Z" id="Combined-Shape" fill="#439FE0" fill-rule="nonzero"></path>
    </g>
</svg>