<?xml version="1.0" encoding="UTF-8" standalone="no"?>
<svg width="18px" height="18px" viewBox="0 0 18 18" version="1.1" xmlns="http://www.w3.org/2000/svg" xmlns:xlink="http://www.w3.org/1999/xlink">
    <!-- Generator: Sketch 48.2 (47327) - http://www.bohemiancoding.com/sketch -->
    <title>Linked</title>
    <desc>Created with Sketch.</desc>
    <defs></defs>
    <g id="home_ui_v4" stroke="none" stroke-width="1" fill="none" fill-rule="evenodd" transform="translate(-668.000000, -3640.000000)" opacity="0.5">
        <g id="Linked" transform="translate(668.461754, 3640.000000)" fill="#FFFFFF" fill-rule="nonzero">
            <path d="M17.4773766,17.0050805 L17.4773766,10.5751907 C17.4773766,7.12983051 15.629144,5.52670551 13.1648339,5.52670551 C11.1762361,5.52670551 10.2848899,6.61520021 9.78842321,7.37926589 L9.78842321,5.79027013 L6.04171061,5.79027013 C6.0914119,6.84289831 6.04171061,17.0050805 6.04171061,17.0050805 L9.78842321,17.0050805 L9.78842321,10.7420244 C9.78842321,10.4078136 9.81245461,10.0725159 9.91185718,9.83340572 C10.1822104,9.16335381 10.798834,8.46993432 11.8332763,8.46993432 C13.1894115,8.46993432 13.7312101,9.49810805 13.7312101,11.005589 L13.7312101,17.0056239 L17.4773766,17.0056239 L17.4773766,17.0050805 Z M2.09455435,4.25942161 C3.40044208,4.25942161 4.21477859,3.39753814 4.21477859,2.32099894 C4.1907472,1.22109216 3.40098825,0.384206568 2.11967808,0.384206568 C0.838367907,0.384206568 1.27897692e-13,1.22054873 1.27897692e-13,2.32099894 C1.27897692e-13,3.39753814 0.813244178,4.25942161 2.07106912,4.25942161 L2.09455435,4.25942161 Z M3.96791065,17.0050805 L3.96791065,5.79027013 L0.221744215,5.79027013 L0.221744215,17.0050805 L3.96791065,17.0050805 Z" id="Flat_copy"></path>
        </g>
    </g>
</svg>