<?xml version="1.0" encoding="UTF-8" standalone="no"?>
<svg width="17px" height="18px" viewBox="0 0 17 18" version="1.1" xmlns="http://www.w3.org/2000/svg" xmlns:xlink="http://www.w3.org/1999/xlink">
    <!-- Generator: Sketch 48.2 (47327) - http://www.bohemiancoding.com/sketch -->
    <title>mail_us</title>
    <desc>Created with Sketch.</desc>
    <defs></defs>
    <g id="home_ui_v4" stroke="none" stroke-width="1" fill="none" fill-rule="evenodd" transform="translate(-1151.000000, -22.000000)">
        <g id="Group-7-Copy" transform="translate(1137.000000, 9.000000)" fill="#439FE0" fill-rule="nonzero">
            <g id="mail_us" transform="translate(14.000000, 13.000000)">
                <g id="Group">
                    <path d="M16.97365,0.296571429 C16.96855,0.282 16.96685,0.269142857 16.9609,0.255428571 C16.9354,0.199714286 16.90225,0.147428571 16.85295,0.104571429 C16.84615,0.0985714286 16.83765,0.0968571429 16.83085,0.0917142857 C16.8266,0.0882857143 16.82575,0.0831428571 16.8215,0.0805714286 C16.813,0.0745714286 16.8028,0.0762857143 16.7943,0.0711428571 C16.7399,0.0377142857 16.6821,0.018 16.6209,0.0111428571 C16.609,0.0102857143 16.59795,0.006 16.58605,0.006 C16.5155,0.00428571429 16.44665,0.0214285714 16.3829,0.0557142857 C16.37695,0.0582857143 16.371,0.0565714286 16.36505,0.06 L0.21505,9.48857143 C0.07055,9.57342857 -0.0119,9.73542857 0.00595,9.90257143 C0.02295,10.0705714 0.13515,10.212 0.2941,10.2651429 L5.19265,11.9117143 L6.8255,16.8514286 C6.8289,16.8608571 6.83825,16.8651429 6.84165,16.8737143 C6.8697,16.944 6.90965,17.01 6.9734,17.058 C6.97425,17.0588571 6.97595,17.058 6.97765,17.0597143 C7.04905,17.1128571 7.13575,17.1445714 7.2284,17.1445714 C7.2369,17.1445714 7.24625,17.1445714 7.25475,17.1437143 C7.2658,17.1428571 7.27345,17.1334286 7.2845,17.1317143 C7.3525,17.1222857 7.41455,17.0957143 7.4715,17.0537143 C7.49105,17.0391429 7.50805,17.0271429 7.52505,17.0091429 C7.53865,16.9954286 7.5565,16.9885714 7.5684,16.9731429 L9.4554,14.436 L9.9807,13.7297143 L13.86095,15.3951429 C13.9145,15.4182857 13.9723,15.4302857 14.0284,15.4302857 C14.0318,15.4302857 14.03435,15.4277143 14.0369,15.4277143 C14.10405,15.4268571 14.17035,15.4114286 14.22985,15.3788571 C14.3446,15.3162857 14.4245,15.2048571 14.4466,15.0762857 L16.9966,0.504857143 C16.9983,0.496285714 16.9932,0.488571429 16.99405,0.48 C17.00085,0.418285714 16.99405,0.356571429 16.97365,0.296571429 Z M13.2481,4.39628571 L7.73245,12.1825714 C7.69675,12.2322857 7.6755,12.2871429 7.6636,12.3437143 C7.6636,12.3445714 7.6619,12.3462857 7.6619,12.3471429 L7.12555,15.0505714 L6.0146,11.6897143 L13.2481,4.39628571 Z M8.0121,14.9485714 L8.38865,13.0482857 L9.17405,13.3851429 L8.0121,14.9485714 Z" id="Shape"></path>
                </g>
            </g>
        </g>
    </g>
</svg>