<?xml version="1.0" encoding="UTF-8" standalone="no"?>
<svg width="22px" height="15px" viewBox="0 0 22 15" version="1.1" xmlns="http://www.w3.org/2000/svg" xmlns:xlink="http://www.w3.org/1999/xlink">
    <!-- Generator: Sketch 48.2 (47327) - http://www.bohemiancoding.com/sketch -->
    <title>mail</title>
    <desc>Created with Sketch.</desc>
    <defs></defs>
    <g id="home_ui_v4-copy-8" stroke="none" stroke-width="1" fill="none" fill-rule="evenodd" transform="translate(-751.000000, -98.000000)" opacity="0.5">
        <g id="Group-9" transform="translate(0.000000, -1.000000)" fill="#4C4C4C" fill-rule="nonzero">
            <g id="mail" transform="translate(751.000000, 99.000000)">
                <g id="Group">
                    <path d="M2.7499725,0.0987627273 C2.1211575,0.0987627273 1.54506,0.311680909 1.082785,0.661262727 L10.5530975,9.48229091 C10.7658925,9.68042727 11.2340525,9.68042727 11.4468475,9.48229091 L20.91716,0.661262727 C20.454885,0.311680909 19.8787875,0.0987627273 19.2499725,0.0987627273 L2.7499725,0.0987627273 Z M0.36091,1.47944455 C0.1344475,1.87615364 -2.75275e-05,2.33586273 -2.75275e-05,2.82603545 L-2.75275e-05,12.0987545 C-2.75275e-05,12.6542182 0.170115,13.1687455 0.4554275,13.5987818 L0.4812775,13.5818727 L7.3992325,8.04207273 L0.360965,1.47958091 L0.36091,1.47944455 Z M21.639035,1.47944455 L14.6007675,8.04193636 L21.5187225,13.5817364 L21.5445725,13.5986455 C21.829885,13.1686091 22.0000275,12.6540818 22.0000275,12.0986182 L22.0000275,2.82589909 C22.0000275,2.33572636 21.8655525,1.87601727 21.63909,1.47930818 L21.639035,1.47944455 Z M8.2070175,8.79193636 L1.2374725,14.3743364 C1.6710925,14.6573182 2.1899075,14.8260545 2.7499725,14.8260545 L19.2499725,14.8260545 C19.8100375,14.8260545 20.3288525,14.6573182 20.7624725,14.3743364 L13.7929275,8.79193636 L12.2030975,10.2748909 C11.5300625,10.9016727 10.4698825,10.9016727 9.7968475,10.2748909 L8.2070175,8.79193636 Z" id="Shape"></path>
                </g>
            </g>
        </g>
    </g>
</svg>