<?xml version="1.0" encoding="UTF-8" standalone="no"?>
<svg width="19px" height="19px" viewBox="0 0 19 19" version="1.1" xmlns="http://www.w3.org/2000/svg" xmlns:xlink="http://www.w3.org/1999/xlink">
    <!-- Generator: Sketch 48.2 (47327) - http://www.bohemiancoding.com/sketch -->
    <title>mail</title>
    <desc>Created with Sketch.</desc>
    <defs></defs>
    <g id="Cork-Infotech_responsive_view_V4" stroke="none" stroke-width="1" fill="none" fill-rule="evenodd" transform="translate(-241.000000, -26.000000)">
        <g id="mail" transform="translate(241.000000, 26.000000)" fill="#439FE0" fill-rule="nonzero">
            <path d="M18.9739493,0.322258089 C18.9682471,0.306104161 18.9663464,0.291850694 18.9596938,0.276646997 C18.9311827,0.214881978 18.8941184,0.156917883 18.838997,0.109406329 C18.8313941,0.102754712 18.8218904,0.100854249 18.8142874,0.095152863 C18.8095356,0.0913519387 18.8085852,0.0856505523 18.8038334,0.0827998591 C18.7943297,0.0761482416 18.7829253,0.0780487037 18.7734216,0.0723473173 C18.712598,0.0352883056 18.647973,0.013432991 18.5795464,0.00583114242 C18.5662413,0.00488091135 18.5538865,0.000129756 18.5405813,0.000129756 C18.4617007,-0.00177070614 18.3847209,0.0172339153 18.3134433,0.0552431581 C18.3067907,0.0580938513 18.3001381,0.0561933891 18.2934855,0.0599943134 L0.23648541,10.5125361 C0.0749227768,10.606609 -0.0172629606,10.7862026 0.00269477635,10.9714977 C0.0217021449,11.157743 0.147150777,11.3145311 0.324869673,11.3734454 L5.80184292,13.1988393 L7.62750067,18.675021 C7.63130214,18.6854735 7.6417562,18.6902247 7.64555767,18.699727 C7.67691983,18.7776459 7.72158714,18.8508137 7.79286478,18.9040267 C7.79381514,18.9049769 7.79571588,18.9040267 7.79761662,18.9059271 C7.87744757,18.9648415 7.97438515,19 8.0779753,19 C8.08747899,19 8.09793304,19 8.10743673,18.9990498 C8.11979152,18.9980995 8.12834483,18.987647 8.14069962,18.9857465 C8.21672909,18.975294 8.28610599,18.9458368 8.34978067,18.8992755 C8.37163915,18.8831216 8.39064652,18.8698183 8.40965389,18.8498635 C8.42485978,18.8346598 8.44481752,18.8270579 8.45812268,18.8099538 L10.5679406,15.9972698 L11.1552683,15.2142794 L15.4937001,17.0605784 C15.5535734,17.0862346 15.6181984,17.0995379 15.6809227,17.0995379 C15.6847242,17.0995379 15.6875753,17.0966872 15.6904264,17.0966872 C15.7655055,17.0957369 15.8396343,17.0786328 15.90616,17.042524 C16.0344598,16.9731571 16.1237944,16.8496271 16.148504,16.7070924 L18.9996093,0.553164239 C19.00151,0.543661928 18.9958078,0.535109848 18.9967582,0.525607538 C19.0043611,0.457190901 18.9967582,0.388774264 18.9739493,0.322258089 Z M14.8084845,4.8672133 L8.64154378,13.4991123 C8.60162831,13.5542257 8.5778691,13.6150405 8.56456394,13.6777558 C8.56456394,13.678706 8.5626632,13.6806065 8.5626632,13.6815567 L7.96298072,16.6785855 L6.72084919,12.9527295 L14.8084845,4.8672133 Z M8.95421499,16.565508 L9.37522821,14.4588457 L10.2533686,14.8322865 L8.95421499,16.565508 Z" id="Shape"></path>
        </g>
    </g>
</svg>