<?xml version="1.0" encoding="UTF-8" standalone="no"?>
<svg width="18px" height="18px" viewBox="0 0 18 18" version="1.1" xmlns="http://www.w3.org/2000/svg" xmlns:xlink="http://www.w3.org/1999/xlink">
    <!-- Generator: Sketch 48.2 (47327) - http://www.bohemiancoding.com/sketch -->
    <title>phone</title>
    <desc>Created with Sketch.</desc>
    <defs></defs>
    <g id="Cork-Infotech_responsive_view_V4" stroke="none" stroke-width="1" fill="none" fill-rule="evenodd" transform="translate(-280.000000, -27.000000)">
        <g id="phone" transform="translate(280.000000, 27.000000)">
            <path d="M17.2604348,13.1673913 L16.4347826,12.8817391 L13.1869565,11.7782609 C12.9034152,11.6813477 12.5896736,11.744096 12.3652174,11.9426087 L11.2656522,12.9130435 C11.0311605,13.1204564 10.6956247,13.1681702 10.4126087,13.0343478 C8.00559151,11.9302423 6.07630116,9.99678499 4.9773913,7.5873913 C4.84039565,7.30665937 4.88346327,6.97134724 5.08695652,6.73434783 L6.04956522,5.63478261 C6.24807791,5.41032642 6.31082622,5.09658484 6.21391304,4.81304348 L5.11826087,1.56521739 L4.82869565,0.723913043 C4.82869565,0.723913043 4.82869565,0.723913043 4.82869565,0.723913043 C4.78695839,0.604548224 4.71873015,0.496185725 4.62913043,0.406956522 C4.48574245,0.261490729 4.29311104,0.174946184 4.08913043,0.164347826 C2.94349146,0.0890290946 1.83230926,0.573166223 1.1073913,1.46347826 C1.03695652,1.55347826 0.97826087,1.62782609 0.935217391,1.68652174 L0.845217391,1.80391304 C0.803223156,1.85523579 0.764035488,1.90879227 0.727826087,1.96434783 C0.692608696,2.01913043 0.657391304,2.07391304 0.626086957,2.1326087 C-0.688695652,4.42173913 0.856956522,8.78478261 4.37869565,12.5726087 C4.52217391,12.723913 4.66695652,12.873913 4.81304348,13.0226087 L4.89130435,13.0969565 L4.96565217,13.1752174 C5.11434783,13.323913 5.26434783,13.4686957 5.41565217,13.6095652 C9.21521739,17.1313043 13.5665217,18.6965217 15.8556522,17.3621739 L16.023913,17.2604348 C16.0794686,17.2242254 16.1330251,17.1850377 16.1843478,17.1430435 L16.3017391,17.0530435 L16.5247826,16.8808696 C17.4150946,16.1559516 17.8992318,15.0447694 17.823913,13.8991304 C17.8133147,13.6951498 17.7267701,13.5025184 17.5813043,13.3591304 C17.4920751,13.2695307 17.3837126,13.2013025 17.2643478,13.1595652 L17.2604348,13.1673913 Z" id="Shape" fill="#439FE0" fill-rule="nonzero"></path>
            <polyline id="Shape" stroke="#439FE0" stroke-linecap="round" stroke-linejoin="round" points="15.1708696 2.82913043 9.91173913 8.08826087 10.4204348 4.07347826 9.91173913 8.08826087 13.9265217 7.57956522"></polyline>
        </g>
    </g>
</svg>