<?xml version="1.0" encoding="UTF-8" standalone="no"?>
<svg width="18px" height="18px" viewBox="0 0 18 18" version="1.1" xmlns="http://www.w3.org/2000/svg" xmlns:xlink="http://www.w3.org/1999/xlink">
    <!-- Generator: Sketch 48.2 (47327) - http://www.bohemiancoding.com/sketch -->
    <title>I have a Question to ask</title>
    <desc>Created with Sketch.</desc>
    <defs></defs>
    <g id="home_ui_v4" stroke="none" stroke-width="1" fill="none" fill-rule="evenodd" transform="translate(-466.000000, -20.000000)">
        <g id="I-have-a-Question-to-ask" transform="translate(466.000000, 20.000000)" fill="#439FE0" fill-rule="nonzero">
            <path d="M9,0 C4.02,0 0,4.02 0,9 C0,13.98 4.02,18 9,18 C13.98,18 18,13.98 18,9 C18,4.02 13.98,0 9,0 Z M9,14 C8.4,14 7.92,13.52 7.92,12.92 C7.92,12.32 8.4,11.84 9,11.84 C9,11.84 9,11.84 9,11.84 C9.6,11.84 10.08,12.32 10.08,12.92 C10.08,13.52 9.6,14 9,14 Z M11.44,7.92 C11.32,8.08 11.18,8.24 11.04,8.38 C10.94,8.48 10.82,8.58 10.68,8.74 C10.52,8.88 10.4,9 10.3,9.12 C10.2,9.22 10.1,9.32 10.04,9.4 C9.86,9.64 9.78,9.96 9.8,10.26 L9.8,10.88 L8.24,10.88 L8.24,10.04 C8.22,9.76 8.26,9.48 8.38,9.2 C8.54,8.94 8.72,8.7 8.96,8.48 L9.96,7.48 C10.18,7.24 10.28,6.94 10.28,6.62 C10.28,6.3 10.16,6 9.94,5.78 C9.72,5.56 9.4,5.44 9.08,5.44 C8.76,5.42 8.44,5.54 8.2,5.76 C7.96,5.98 7.82,6.3 7.8,6.62 L6.12,6.62 C6.18,5.88 6.52,5.18 7.08,4.7 C7.66,4.22 8.38,3.98 9.14,4 C9.86,3.96 10.58,4.2 11.14,4.66 C11.66,5.1 11.92,5.74 11.92,6.54 C11.9,7.04 11.74,7.54 11.44,7.92 Z" id="Shape"></path>
        </g>
    </g>
</svg>