<?xml version="1.0" encoding="UTF-8" standalone="no"?>
<svg width="20px" height="17px" viewBox="0 0 20 17" version="1.1" xmlns="http://www.w3.org/2000/svg" xmlns:xlink="http://www.w3.org/1999/xlink">
    <!-- Generator: Sketch 48.2 (47327) - http://www.bohemiancoding.com/sketch -->
    <title>Request a Quote</title>
    <desc>Created with Sketch.</desc>
    <defs></defs>
    <g id="home_ui_v4" stroke="none" stroke-width="1" fill="none" fill-rule="evenodd" transform="translate(-38.000000, -19.000000)">
        <g id="Request-a-Quote" transform="translate(38.000000, 19.000000)" fill="#439FE0">
            <path d="M3,2.125 L11.875,2.125 C13.5318542,2.125 14.875,3.46814575 14.875,5.125 L14.875,14 C14.875,15.6568542 13.5318542,17 11.875,17 L3,17 C1.34314575,17 2.02906125e-16,15.6568542 0,14 L0,5.125 C-2.02906125e-16,3.46814575 1.34314575,2.125 3,2.125 Z M3.65277778,3.77777778 C2.54820828,3.77777778 1.65277778,4.67320828 1.65277778,5.77777778 L1.65277778,13.4974747 C1.65277778,14.6020442 2.54820828,15.4974747 3.65277778,15.4974747 L11.2222222,15.4974747 C12.3267917,15.4974747 13.2222222,14.6020442 13.2222222,13.4974747 L13.2222222,5.77777778 C13.2222222,4.67320828 12.3267917,3.77777778 11.2222222,3.77777778 L3.65277778,3.77777778 Z" id="Combined-Shape"></path>
            <path d="M5.66666667,13.4583333 L7.21059369,9.79150665 L9.52648423,11.9916027 L5.66666667,13.4583333 Z M7.8281645,9.05814132 L15.5477996,1.87116102 L17.8636902,4.07125703 L10.2984477,11.4049104 L7.8281645,9.05814132 Z M16.1653704,1.28446875 L16.5513522,0.917786083 C17.2002488,0.301334341 18.2183461,0.301334341 18.8672427,0.917786083 C18.8860439,0.935647175 18.904384,0.953987334 18.9222451,0.972788484 C19.4994079,1.58032822 19.4747825,2.54071934 18.8672427,3.11788209 L18.481261,3.48456476 L16.1653704,1.28446875 Z" id="Combined-Shape"></path>
        </g>
    </g>
</svg>