<?xml version="1.0" encoding="UTF-8" standalone="no"?>
<svg width="23px" height="22px" viewBox="0 0 23 22" version="1.1" xmlns="http://www.w3.org/2000/svg" xmlns:xlink="http://www.w3.org/1999/xlink">
    <!-- Generator: Sketch 48.2 (47327) - http://www.bohemiancoding.com/sketch -->
    <title>Request_icon</title>
    <desc>Created with Sketch.</desc>
    <defs></defs>
    <g id="Our-offering" stroke="none" stroke-width="1" fill="none" fill-rule="evenodd" transform="translate(-583.000000, -3633.000000)">
        <g id="Group-22-Copy" transform="translate(556.000000, 3618.000000)" fill="#FFFFFF" fill-rule="nonzero">
            <g id="Group-17">
                <g id="Group-13" transform="translate(27.000000, 13.000000)">
                    <g id="Group-26">
                        <g id="Group-14">
                            <g id="Request_icon" transform="translate(0.000000, 2.000000)">
                                <path d="M22.1346521,9.92693103 C21.8537106,9.63789655 21.4993999,9.42434483 21.1041646,9.317 C20.7738186,4.12196552 16.5608019,0 11.4293793,0 C6.29795669,0 2.08494,4.12196552 1.75459407,9.31662069 C1.35935876,9.42396552 1.005048,9.63751724 0.724106483,9.92655172 C0.306381103,10.3563103 0.0501417931,10.9533448 0.0578842759,11.6118276 C0.0730005517,12.9045172 1.1370389,13.9256207 2.39353324,13.9256207 L2.52294331,13.9256207 L2.52368069,13.9256207 C3.26548428,13.9256207 3.80413986,13.189 3.58624428,12.4595862 C3.34770207,11.6611379 3.2252971,10.8255172 3.2252971,9.97510345 C3.2252971,9.72703448 3.23525172,9.48162069 3.25626703,9.23962069 C3.61905766,4.92762069 7.14704897,1.53468966 11.4293793,1.53468966 C15.7117097,1.53468966 19.239701,4.92762069 19.6024916,9.24 C19.6235069,9.48162069 19.6334615,9.72741379 19.6334615,9.97548276 C19.6334615,10.8099655 19.5143748,11.6315517 19.283575,12.4178621 C18.7493437,13.4355517 17.3357876,15.8369655 15.3146309,17.1072759 C15.0152549,16.8542759 14.5953174,16.7708276 14.2092993,16.9271034 L13.52538,17.2043793 C12.9590727,17.4342414 12.680712,18.0931034 12.9041379,18.6757241 C13.1275639,19.2587241 13.7679778,19.5447241 14.3342851,19.3148621 L15.0182044,19.0375862 C15.4716927,18.8536207 15.7397301,18.3942759 15.7142905,17.9193793 C17.5245567,16.8072414 18.8592132,14.9258621 19.6142897,13.6528966 C19.806377,13.8213103 20.0559799,13.9252414 20.3347092,13.9252414 L20.4652254,13.9252414 C21.7217197,13.9252414 22.7857581,12.9041379 22.8008743,11.6114483 C22.8086168,10.9533448 22.5523775,10.3563103 22.1346521,9.92693103 Z" id="Shape"></path>
                                <path d="M14.6764291,20.2077586 C14.4323566,20.3067586 14.1805415,20.3537931 13.9324134,20.3537931 C13.6676942,20.3537931 13.407768,20.2995517 13.166645,20.1986552 C12.5619939,20.6045172 11.927479,20.8131379 11.2970197,20.801 C10.1323291,20.7759655 9.02884097,20.0336552 8.10527338,18.6541034 C6.95127476,16.9297586 6.32782055,15.1853103 6.06752566,13.8068966 C6.10291986,13.4116552 6.11766745,13.0145172 6.12577862,12.617 C6.12688469,12.5688276 6.1228291,12.5183793 6.13573324,12.4732414 C6.17555172,12.3313793 6.22901172,12.1936897 6.265512,12.051069 C6.38201793,11.5932414 6.48856924,11.1331379 6.60949945,10.6764483 C6.64268152,10.5516552 6.70204055,10.4310345 6.76582386,10.3183793 C6.88970359,10.1002759 7.03312386,10.1006552 7.174332,10.3096552 C7.19719076,10.3437931 7.21968083,10.3783103 7.249176,10.423069 C7.29268138,9.99558621 7.35277779,9.84765517 7.5555571,9.62841379 C7.7553869,9.41182759 8.00757062,9.2912069 8.28224441,9.25744828 C9.87719586,9.98724138 12.2987495,10.5588621 14.8637234,9.20662069 C15.0340581,9.21003448 15.2029179,9.22406897 15.3714091,9.2767931 C15.653088,9.3647931 15.8632411,9.53548276 15.98454,9.80289655 C16.0627022,9.97434483 16.0988338,10.1662759 16.1519251,10.3434138 C16.1873193,10.3005517 16.2308247,10.2391034 16.2824412,10.186 C16.4022654,10.0631034 16.4992308,10.0816897 16.5692818,10.2417586 C16.5980396,10.3073793 16.6238479,10.3775517 16.6341712,10.4481034 C16.684313,10.7894828 16.7248688,11.1327586 16.7761167,11.4741379 C16.8151978,11.7351034 16.8620214,11.9945517 16.9070015,12.2547586 C16.9018399,12.3173448 16.8977843,12.3791724 16.8915166,12.4421379 C16.8056119,13.3081034 16.658136,14.1221034 16.4498263,14.8909655 C17.1149425,14.1577586 17.6517546,13.3619655 18.0318737,12.7288966 C18.0377727,12.6735172 18.0451465,12.6192759 18.0506768,12.5635172 C18.0775912,12.2915517 18.0930761,12.0233793 18.0997126,11.759 C18.2335469,11.0568966 18.203683,10.3498621 18.1325259,9.64434483 C18.0901266,9.22255172 18.0211817,8.80341379 17.9610852,8.36075862 C18.026712,8.53448276 18.0882832,8.68924138 18.1432179,8.84627586 C18.1970466,9.00103448 18.2435015,9.15882759 18.2932746,9.31510345 C18.2969615,9.28551724 18.2925372,9.25858621 18.2870069,9.23165517 C18.1863546,8.73362069 18.0672679,8.24127586 17.8519531,7.77927586 C17.8073417,7.68331034 17.7675232,7.58431034 17.7313916,7.48455172 C17.6078806,7.14127586 17.487319,6.79724138 17.3656514,6.4532069 C17.3560655,6.42627586 17.3464796,6.39972414 17.3368937,6.37317241 C17.3475857,6.36710345 17.3582777,6.36103448 17.368601,6.35534483 C17.5466781,6.64475862 17.7247552,6.93417241 17.9028323,7.2232069 C17.8755492,7.12572414 17.8419985,7.02937931 17.8043921,6.93493103 C17.6429061,6.53134483 17.4345964,6.16 17.1201041,5.85882759 C17.0548461,5.79624138 16.9940123,5.72531034 16.9442392,5.64906897 C16.6179488,5.14951724 16.2241883,4.72810345 15.6796337,4.47965517 C15.4403541,4.37041379 15.198125,4.26686207 14.9573706,4.16103448 C14.8969055,4.13448276 14.8368091,4.10755172 14.776344,4.08062069 C15.5940977,4.147 16.3547044,4.40948276 17.0891342,4.7667931 C17.0648007,4.741 17.0375177,4.72165517 17.0102346,4.70268966 C16.2606886,4.18151724 15.4222883,3.92017241 14.5326401,3.81282759 C14.2004508,3.77262069 13.8623623,3.77527586 13.5438145,3.64365517 C13.4324702,3.59737931 13.3122774,3.57272414 13.1954028,3.54162069 C13.0280177,3.49686207 12.8598952,3.45551724 12.6921414,3.41227586 C12.6928788,3.40241379 12.6936161,3.39255172 12.6943535,3.38268966 C13.2075695,3.38268966 13.7211542,3.38268966 14.2343702,3.38268966 C14.2225721,3.35196552 14.2085619,3.34248276 14.1938143,3.3402069 C13.5239052,3.2412069 12.8525214,3.16648276 12.1748698,3.22944828 C11.942964,3.25106897 11.7140077,3.26168966 11.483208,3.22906897 C11.381081,3.21465517 11.2778479,3.21048276 11.1753521,3.20175862 C11.1749834,3.19151724 11.1742461,3.18127586 11.1738774,3.17141379 C11.6764014,3.07506897 12.1789254,2.97872414 12.7105759,2.87668966 C12.1770819,2.89034483 11.6745579,2.926 11.1775643,3.01665517 C10.9003097,3.06748276 10.6289541,3.15851724 10.3502247,3.19606897 C9.95167117,3.24955172 9.54906207,3.27041379 9.14571559,3.30531034 C9.94208524,2.91537931 10.7944957,2.74582759 11.6627599,2.64644828 C11.4994303,2.65137931 11.3361008,2.64417241 11.1738774,2.65251724 C10.5721759,2.68475862 9.97526731,2.75796552 9.39236897,2.92182759 C8.90901683,3.05762069 8.45073559,3.24727586 8.05586897,3.57727586 C7.98102497,3.63986207 7.890696,3.68272414 7.80737214,3.73468966 C7.79926097,3.7217931 7.7907811,3.70851724 7.78266993,3.69524138 C7.96369655,3.55982759 8.13882414,3.41417241 8.32796193,3.29241379 C8.52115531,3.16837931 8.724672,3.05913793 8.93076952,2.959 C9.12986193,2.86227586 9.3378029,2.78565517 9.54205697,2.70031034 C9.13723572,2.80613793 8.74753076,2.95217241 8.37294207,3.14144828 C7.62929503,3.51696552 7.07036152,4.14282759 6.42810414,4.65565517 C6.42552331,4.65793103 6.42294248,4.6602069 6.42109903,4.66324138 C6.37980579,4.73227586 6.33519434,4.79903448 6.29869407,4.87072414 C6.244128,4.97731034 6.20320345,5.09186207 6.14126359,5.19351724 C6.11324317,5.23941379 6.05277807,5.27165517 6.00079283,5.29365517 C5.89571628,5.33841379 5.78252855,5.36382759 5.67892676,5.41162069 C5.1251549,5.66727586 4.79849586,6.11372414 4.65986855,6.71455172 C4.79259683,6.44182759 4.96035062,6.1967931 5.20589793,5.97489655 C5.13953379,6.21006897 5.08423034,6.41906897 5.02007834,6.62503448 C4.99390138,6.70886207 4.9574011,6.79155172 4.91094621,6.86513793 C4.78043007,7.07072414 4.68014648,7.28882759 4.60345903,7.54903448 C4.7081669,7.36544828 4.79886455,7.20651724 4.88956221,7.0472069 C4.896936,7.051 4.90467848,7.05517241 4.91205228,7.05896552 C4.90283503,7.1022069 4.89398648,7.14582759 4.88403186,7.18906897 C4.65913117,8.19765517 4.52898372,9.21648276 4.57396386,10.2535172 C4.59350441,10.7018621 4.64954524,11.1384483 4.78448566,11.5594828 C4.76568248,11.8625517 4.75572786,12.1732069 4.75535917,12.4914483 L4.75535917,12.5039655 C4.79517766,14.5731034 5.71137145,17.1903448 7.14631159,19.3338276 C8.27487062,21.0198621 9.740412,21.9662414 11.2734236,21.9988621 C11.3003379,21.9996207 11.3279897,22 11.3556414,22 C12.6906666,22 14.0002523,21.3088966 15.1041091,20.0344138 L14.6764291,20.2077586 Z" id="Shape"></path>
                            </g>
                        </g>
                    </g>
                </g>
            </g>
        </g>
    </g>
</svg>