<?xml version="1.0" encoding="UTF-8" standalone="no"?>
<svg width="24px" height="21px" viewBox="0 0 24 21" version="1.1" xmlns="http://www.w3.org/2000/svg" xmlns:xlink="http://www.w3.org/1999/xlink">
    <!-- Generator: Sketch 48.2 (47327) - http://www.bohemiancoding.com/sketch -->
    <title>request_quote</title>
    <desc>Created with Sketch.</desc>
    <defs></defs>
    <g id="More_dropdown_V4" stroke="none" stroke-width="1" fill="none" fill-rule="evenodd" transform="translate(-98.000000, -97.000000)">
        <g id="request_quote" transform="translate(98.000000, 97.000000)" fill="#439FE0">
            <path d="M3,2.57236842 L15.0065789,2.57236842 C16.6634332,2.57236842 18.0065789,3.91551417 18.0065789,5.57236842 L18.0065789,17.5789474 C18.0065789,19.2358016 16.6634332,20.5789474 15.0065789,20.5789474 L3,20.5789474 C1.34314575,20.5789474 2.02906125e-16,19.2358016 0,17.5789474 L0,5.57236842 C-2.02906125e-16,3.91551417 1.34314575,2.57236842 3,2.57236842 Z M4.00073099,4.57309942 C2.89616149,4.57309942 2.00073099,5.46852992 2.00073099,6.57309942 L2.00073099,16.760101 C2.00073099,17.8646705 2.89616149,18.760101 4.00073099,18.760101 L14.005848,18.760101 C15.1104175,18.760101 16.005848,17.8646705 16.005848,16.760101 L16.005848,6.57309942 C16.005848,5.46852992 15.1104175,4.57309942 14.005848,4.57309942 L4.00073099,4.57309942 Z" id="Combined-Shape"></path>
            <path d="M6.85964912,16.2916667 L8.72861341,11.8528765 L11.5320599,14.5161506 L6.85964912,16.2916667 Z M9.47619913,10.9651184 L18.8210206,2.26508966 L21.624467,4.92836377 L12.466542,13.8059442 L9.47619913,10.9651184 Z M19.5686063,1.55488323 L20.0358474,1.11100421 C20.8213538,0.364773149 22.0537874,0.364773149 22.8392938,1.11100421 C22.8620531,1.13262553 22.8842543,1.15482677 22.9058757,1.17758606 C23.6045464,1.9130289 23.5747367,3.07560762 22.8392938,3.77427832 L22.3720527,4.21815734 L19.5686063,1.55488323 Z" id="Combined-Shape"></path>
        </g>
    </g>
</svg>