<?xml version="1.0" encoding="UTF-8" standalone="no"?>
<svg width="18px" height="15px" viewBox="0 0 18 15" version="1.1" xmlns="http://www.w3.org/2000/svg" xmlns:xlink="http://www.w3.org/1999/xlink">
    <!-- Generator: Sketch 48.2 (47327) - http://www.bohemiancoding.com/sketch -->
    <title>twitter_icon</title>
    <desc>Created with Sketch.</desc>
    <defs></defs>
    <g id="home_ui_v4" stroke="none" stroke-width="1" fill="none" fill-rule="evenodd" transform="translate(-592.000000, -3643.000000)" opacity="0.5">
        <g id="twitter_icon" transform="translate(592.195231, 3643.000000)" fill="#FFFFFF" fill-rule="nonzero">
            <path d="M6.46285308,14.4224196 C3.21097887,14.4224196 0.554729845,12.8608857 0.51133072,12.8347349 C0.257056358,12.681447 0.14549835,12.3709763 0.243146382,12.0905512 C0.341629012,11.8109607 0.619828533,11.6340258 0.91805842,11.6782595 C2.67933959,11.9138945 3.90592128,11.3588865 4.56302855,10.9201658 C2.93444855,9.68607273 -0.711077976,6.20357112 1.52536797,1.04018801 C1.61745202,0.827365376 1.82053767,0.682423426 2.05116507,0.664340457 C2.27706308,0.648761284 2.50518669,0.758093695 2.62898548,0.953667959 C2.69575336,1.05799278 4.26396406,3.41740292 8.18351712,3.91148527 C8.1924195,1.77435655 9.93339211,0.0383915339 12.0713554,0.0383915339 C13.0250234,0.0383915339 13.923886,0.380576945 14.6355204,1.00902966 C15.664024,0.899697252 16.474141,0.876050292 16.511698,0.874659295 C16.5965488,0.875493893 16.6772267,0.886900074 16.7503932,0.914720026 C16.8881019,0.864087713 17.0430591,0.86019292 17.192174,0.915554624 C17.5148855,1.03768421 17.6779104,1.39878719 17.5557808,1.72149864 C17.4358768,2.03948069 16.8597256,3.49084759 16.0757593,4.23336211 C16.2713336,6.03859881 15.8231542,8.69234404 12.9287664,11.6729737 C10.8828871,13.7792223 8.55018409,14.4224196 6.46285308,14.4224196 Z" id="Shape"></path>
        </g>
    </g>
</svg>