<?xml version="1.0" encoding="UTF-8"?>
<svg width="14px" height="15px" viewBox="0 0 14 15" version="1.1" xmlns="http://www.w3.org/2000/svg" xmlns:xlink="http://www.w3.org/1999/xlink">
    <!-- Generator: Sketch 46.2 (44496) - http://www.bohemiancoding.com/sketch -->
    <title>Mask Copy 14</title>
    <desc>Created with Sketch.</desc>
    <defs>
        <path d="M13.0769231,5.53846154 L0.461538462,5.53846154 C0.215384615,5.53846154 0,5.75384615 0,6 L0,13.5384615 C0,14.2153846 0.553846154,14.7692308 1.23076923,14.7692308 L12.3076923,14.7692308 C12.9846154,14.7692308 13.5384615,14.2153846 13.5384615,13.5384615 L13.5384615,6 C13.5384615,5.75384615 13.3230769,5.53846154 13.0769231,5.53846154 Z M4.61538462,12.3076923 C4.61538462,12.4923077 4.49230769,12.6153846 4.30769231,12.6153846 L3.07692308,12.6153846 C2.89230769,12.6153846 2.76923077,12.4923077 2.76923077,12.3076923 L2.76923077,11.0769231 C2.76923077,10.8923077 2.89230769,10.7692308 3.07692308,10.7692308 L4.30769231,10.7692308 C4.49230769,10.7692308 4.61538462,10.8923077 4.61538462,11.0769231 L4.61538462,12.3076923 Z M4.61538462,9.23076923 C4.61538462,9.41538462 4.49230769,9.53846154 4.30769231,9.53846154 L3.07692308,9.53846154 C2.89230769,9.53846154 2.76923077,9.41538462 2.76923077,9.23076923 L2.76923077,8 C2.76923077,7.81538462 2.89230769,7.69230769 3.07692308,7.69230769 L4.30769231,7.69230769 C4.49230769,7.69230769 4.61538462,7.81538462 4.61538462,8 L4.61538462,9.23076923 Z M7.69230769,12.3076923 C7.69230769,12.4923077 7.56923077,12.6153846 7.38461538,12.6153846 L6.15384615,12.6153846 C5.96923077,12.6153846 5.84615385,12.4923077 5.84615385,12.3076923 L5.84615385,11.0769231 C5.84615385,10.8923077 5.96923077,10.7692308 6.15384615,10.7692308 L7.38461538,10.7692308 C7.56923077,10.7692308 7.69230769,10.8923077 7.69230769,11.0769231 L7.69230769,12.3076923 Z M7.69230769,9.23076923 C7.69230769,9.41538462 7.56923077,9.53846154 7.38461538,9.53846154 L6.15384615,9.53846154 C5.96923077,9.53846154 5.84615385,9.41538462 5.84615385,9.23076923 L5.84615385,8 C5.84615385,7.81538462 5.96923077,7.69230769 6.15384615,7.69230769 L7.38461538,7.69230769 C7.56923077,7.69230769 7.69230769,7.81538462 7.69230769,8 L7.69230769,9.23076923 Z M10.7692308,12.3076923 C10.7692308,12.4923077 10.6461538,12.6153846 10.4615385,12.6153846 L9.23076923,12.6153846 C9.04615385,12.6153846 8.92307692,12.4923077 8.92307692,12.3076923 L8.92307692,11.0769231 C8.92307692,10.8923077 9.04615385,10.7692308 9.23076923,10.7692308 L10.4615385,10.7692308 C10.6461538,10.7692308 10.7692308,10.8923077 10.7692308,11.0769231 L10.7692308,12.3076923 Z M10.7692308,9.23076923 C10.7692308,9.41538462 10.6461538,9.53846154 10.4615385,9.53846154 L9.23076923,9.53846154 C9.04615385,9.53846154 8.92307692,9.41538462 8.92307692,9.23076923 L8.92307692,8 C8.92307692,7.81538462 9.04615385,7.69230769 9.23076923,7.69230769 L10.4615385,7.69230769 C10.6461538,7.69230769 10.7692308,7.81538462 10.7692308,8 L10.7692308,9.23076923 Z M12.3076923,1.53846154 L10.7692308,1.53846154 L10.7692308,0.923076923 C10.7692308,0.430769231 10.3692308,0 9.84615385,0 C9.35384615,0 8.92307692,0.4 8.92307692,0.923076923 L8.92307692,1.53846154 L4.61538462,1.53846154 L4.61538462,0.923076923 C4.61538462,0.430769231 4.21538462,0 3.69230769,0 C3.2,0 2.76923077,0.4 2.76923077,0.923076923 L2.76923077,1.53846154 L1.23076923,1.53846154 C0.553846154,1.53846154 0,2.09230769 0,2.76923077 L0,3.53846154 C0,3.78461538 0.215384615,4 0.461538462,4 L13.0769231,4 C13.3230769,4 13.5384615,3.78461538 13.5384615,3.53846154 L13.5384615,2.76923077 C13.5384615,2.09230769 12.9846154,1.53846154 12.3076923,1.53846154 Z" id="path-1"></path>
    </defs>
    <g id="Page-1" stroke="none" stroke-width="1" fill="none" fill-rule="evenodd">
        <mask id="mask-2" fill="white">
            <use xlink:href="#path-1"></use>
        </mask>
        <use id="Mask-Copy-14" fill="#5A5A5A" opacity="0.25" xlink:href="#path-1"></use>
    </g>
</svg>