<?xml version="1.0" encoding="UTF-8"?>
<svg width="12px" height="4px" viewBox="0 0 12 4" version="1.1" xmlns="http://www.w3.org/2000/svg" xmlns:xlink="http://www.w3.org/1999/xlink">
    <!-- Generator: Sketch 46.2 (44496) - http://www.bohemiancoding.com/sketch -->
    <title>Group</title>
    <desc>Created with Sketch.</desc>
    <defs></defs>
    <g id="Asset" stroke="none" stroke-width="1" fill="none" fill-rule="evenodd" opacity="0.6">
        <g id="Create_Customers" transform="translate(-1287.000000, -435.000000)">
            <g id="Group-10" transform="translate(35.000000, 112.000000)">
                <g id="Group-4" transform="translate(241.000000, 79.000000)">
                    <g id="Group-6" transform="translate(1.000000, 160.750000)">
                        <g id="Data-Table---Base" transform="translate(0.000000, 38.000000)">
                            <g id="Row" transform="translate(0.000000, 28.000000)">
                                <g id="Group" transform="translate(1016.000000, 20.000000) rotate(-90.000000) translate(-1016.000000, -20.000000) translate(1007.000000, 11.000000)">
                                    <polygon id="Shape" points="0 0 18 0 18 18 0 18"></polygon>
                                    <path d="M9.5,6 C10.325,6 11,5.325 11,4.5 C11,3.675 10.325,3 9.5,3 C8.675,3 8,3.675 8,4.5 C8,5.325 8.675,6 9.5,6 Z M9.5,7.5 C8.675,7.5 8,8.175 8,9 C8,9.825 8.675,10.5 9.5,10.5 C10.325,10.5 11,9.825 11,9 C11,8.175 10.325,7.5 9.5,7.5 Z M9.5,12 C8.675,12 8,12.675 8,13.5 C8,14.325 8.675,15 9.5,15 C10.325,15 11,14.325 11,13.5 C11,12.675 10.325,12 9.5,12 Z" id="Shape" fill="#555555"></path>
                                </g>
                            </g>
                        </g>
                    </g>
                </g>
            </g>
        </g>
    </g>
</svg>