<?xml version="1.0" encoding="UTF-8" standalone="no"?>
<svg width="26px" height="26px" viewBox="0 0 32 32" version="1.1" xmlns="http://www.w3.org/2000/svg" xmlns:xlink="http://www.w3.org/1999/xlink">
    <!-- Generator: Sketch 41.2 (35397) - http://www.bohemiancoding.com/sketch -->
    <title>facility_icon</title>
    <desc>Created with Sketch.</desc>
    <defs></defs>
    <g id="Company" stroke="none" stroke-width="1" fill="none" fill-rule="evenodd">
        <g id="Create_Sites" transform="translate(-1040.000000, -217.000000)">
            <g id="Group-10" transform="translate(35.000000, 112.000000)">
                <g id="Sites-Panel-Copy-2" transform="translate(993.000000, 94.000000)">
                    <g id="Header" transform="translate(0.000000, -0.000000)">
                        <g id="facility_icon" transform="translate(12.000000, 11.000000)">
                            <rect id="bkgd" fill="#415072" x="0" y="0" width="32" height="32" rx="4"></rect>
                            <path d="M17.2405315,11.1652552 C17.2405315,11.5066062 16.9612443,11.7858935 16.6198932,11.7858935 L15.9992549,11.7858935 C15.6579039,11.7858935 15.3786167,11.5066062 15.3786167,11.1652552 L15.3786167,10.5446169 C15.3786167,10.2032659 15.6579039,9.92397864 15.9992549,9.92397864 L16.6198932,9.92397864 C16.9612443,9.92397864 17.2405315,10.2032659 17.2405315,10.5446169 L17.2405315,11.1652552 Z M13.827021,11.1652552 C13.827021,11.5066062 13.5477338,11.7858935 13.2063827,11.7858935 L12.5857445,11.7858935 C12.2443934,11.7858935 11.9651062,11.5066062 11.9651062,11.1652552 L11.9651062,10.5446169 C11.9651062,10.2032659 12.2443934,9.92397864 12.5857445,9.92397864 L13.2063827,9.92397864 C13.5477338,9.92397864 13.827021,10.2032659 13.827021,10.5446169 L13.827021,11.1652552 Z M13.827021,14.3305104 C13.827021,14.6718614 13.5477338,14.9511486 13.2063827,14.9511486 L12.5857445,14.9511486 C12.2443934,14.9511486 11.9651062,14.6718614 11.9651062,14.3305104 L11.9651062,13.7098721 C11.9651062,13.3685211 12.2443934,13.0892338 12.5857445,13.0892338 L13.2063827,13.0892338 C13.5477338,13.0892338 13.827021,13.3685211 13.827021,13.7098721 L13.827021,14.3305104 Z M13.827021,17.4957656 C13.827021,17.8371166 13.5477338,18.1164038 13.2063827,18.1164038 L12.5857445,18.1164038 C12.2443934,18.1164038 11.9651062,17.8371166 11.9651062,17.4957656 L11.9651062,16.8751273 C11.9651062,16.5337762 12.2443934,16.254489 12.5857445,16.254489 L13.2063827,16.254489 C13.5477338,16.254489 13.827021,16.5337762 13.827021,16.8751273 L13.827021,17.4957656 Z M13.827021,20.6920527 C13.827021,21.0334037 13.5477338,21.3126909 13.2063827,21.3126909 L12.5857445,21.3126909 C12.2443934,21.3126909 11.9651062,21.0334037 11.9651062,20.6920527 L11.9651062,20.0714144 C11.9651062,19.7300633 12.2443934,19.4507761 12.5857445,19.4507761 L13.2063827,19.4507761 C13.5477338,19.4507761 13.827021,19.7300633 13.827021,20.0714144 L13.827021,20.6920527 Z M10.4135105,11.1652552 C10.4135105,11.5066062 10.1342233,11.7858935 9.79287223,11.7858935 L9.17223395,11.7858935 C8.8308829,11.7858935 8.55159568,11.5066062 8.55159568,11.1652552 L8.55159568,10.5446169 C8.55159568,10.2032659 8.8308829,9.92397864 9.17223395,9.92397864 L9.79287223,9.92397864 C10.1342233,9.92397864 10.4135105,10.2032659 10.4135105,10.5446169 L10.4135105,11.1652552 Z M10.4135105,14.3305104 C10.4135105,14.6718614 10.1342233,14.9511486 9.79287223,14.9511486 L9.17223395,14.9511486 C8.8308829,14.9511486 8.55159568,14.6718614 8.55159568,14.3305104 L8.55159568,13.7098721 C8.55159568,13.3685211 8.8308829,13.0892338 9.17223395,13.0892338 L9.79287223,13.0892338 C10.1342233,13.0892338 10.4135105,13.3685211 10.4135105,13.7098721 L10.4135105,14.3305104 Z M10.4135105,17.4957656 C10.4135105,17.8371166 10.1342233,18.1164038 9.79287223,18.1164038 L9.17223395,18.1164038 C8.8308829,18.1164038 8.55159568,17.8371166 8.55159568,17.4957656 L8.55159568,16.8751273 C8.55159568,16.5337762 8.8308829,16.254489 9.17223395,16.254489 L9.79287223,16.254489 C10.1342233,16.254489 10.4135105,16.5337762 10.4135105,16.8751273 L10.4135105,17.4957656 Z M10.4135105,20.6920527 C10.4135105,21.0334037 10.1342233,21.3126909 9.79287223,21.3126909 L9.17223395,21.3126909 C8.8308829,21.3126909 8.55159568,21.0334037 8.55159568,20.6920527 L8.55159568,20.0714144 C8.55159568,19.7300633 8.8308829,19.4507761 9.17223395,19.4507761 L9.79287223,19.4507761 C10.1342233,19.4507761 10.4135105,19.7300633 10.4135105,20.0714144 L10.4135105,20.6920527 Z M18.7921272,12.4375636 L18.7921272,8.83786167 C18.8231591,8.18619148 18.3576804,8 18.1714889,8 L7.6827021,8 C7.09309574,8 7,8.62063827 7,8.6827021 L7,22.8953185 L15.0682975,22.8953185 L15.0682975,13.8029678 C15.0682975,13.8029678 15.0682975,13.0582019 15.7509996,13.0582019 L18.2025208,13.0582019 C18.2025208,13.0582019 18.7921272,12.685819 18.7921272,12.4375636 L18.7921272,12.4375636 Z M23.4469142,17.8371166 C23.4469142,18.1784677 23.167627,18.4577549 22.8262759,18.4577549 L22.2056377,18.4577549 C21.8642866,18.4577549 21.5849994,18.1784677 21.5849994,17.8371166 L21.5849994,17.2164783 C21.5849994,16.8751273 21.8642866,16.5958401 22.2056377,16.5958401 L22.8262759,16.5958401 C23.167627,16.5958401 23.4469142,16.8751273 23.4469142,17.2164783 L23.4469142,17.8371166 Z M23.4469142,21.0023718 C23.4469142,21.3437229 23.167627,21.6230101 22.8262759,21.6230101 L22.2056377,21.6230101 C21.8642866,21.6230101 21.5849994,21.3437229 21.5849994,21.0023718 L21.5849994,20.3817335 C21.5849994,20.0403825 21.8642866,19.7610953 22.2056377,19.7610953 L22.8262759,19.7610953 C23.167627,19.7610953 23.4469142,20.0403825 23.4469142,20.3817335 L23.4469142,21.0023718 Z M20.3437229,17.8371166 C20.3437229,18.1784677 20.0644356,18.4577549 19.7230846,18.4577549 L19.1024463,18.4577549 C18.7610953,18.4577549 18.481808,18.1784677 18.481808,17.8371166 L18.481808,17.2164783 C18.481808,16.8751273 18.7610953,16.5958401 19.1024463,16.5958401 L19.7230846,16.5958401 C20.0644356,16.5958401 20.3437229,16.8751273 20.3437229,17.2164783 L20.3437229,17.8371166 Z M20.3437229,21.0023718 C20.3437229,21.3437229 20.0644356,21.6230101 19.7230846,21.6230101 L19.1024463,21.6230101 C18.7610953,21.6230101 18.481808,21.3437229 18.481808,21.0023718 L18.481808,20.3817335 C18.481808,20.0403825 18.7610953,19.7610953 19.1024463,19.7610953 L19.7230846,19.7610953 C20.0644356,19.7610953 20.3437229,20.0403825 20.3437229,20.3817335 L20.3437229,21.0023718 Z M24.9985099,15.7890103 C25.0295418,15.1373401 24.5640631,14.9511486 24.3778716,14.9511486 L17.6129145,14.9511486 C17.0233081,14.9511486 16.9302124,15.5717869 16.9302124,15.6338507 L16.9302124,22.8953185 L24.9985099,22.8953185 L24.9985099,15.7890103 Z" id="account" fill="#FFFFFF"></path>
                        </g>
                    </g>
                </g>
            </g>
        </g>
    </g>
</svg>