<?xml version="1.0" encoding="UTF-8"?>
<svg width="14px" height="13px" viewBox="0 0 14 13" version="1.1" xmlns="http://www.w3.org/2000/svg" xmlns:xlink="http://www.w3.org/1999/xlink">
    <!-- Generator: Sketch 46.2 (44496) - http://www.bohemiancoding.com/sketch -->
    <title>Mask Copy 2</title>
    <desc>Created with Sketch.</desc>
    <defs>
        <path d="M0.48440865,0 C0.0569086518,0 -0.142591348,0.484499999 0.113908652,0.797999998 L5.64290863,7.26749998 C5.81390863,7.46699998 5.89940863,7.75199998 5.89940863,8.00849998 L5.89940863,12.1125 C5.89940863,12.3405 6.12740863,12.54 6.35540863,12.54 L7.21040863,12.54 C7.43840863,12.54 7.60940863,12.3405 7.60940863,12.1125 L7.60940863,8.00849998 C7.60940863,7.72349998 7.72340863,7.46699998 7.92290863,7.26749998 L13.5089086,0.797999998 C13.7654086,0.484499999 13.5659086,2.53130849e-16 13.1384086,2.53130849e-16 L0.48440865,0 Z" id="path-1"></path>
    </defs>
    <g id="Asset" stroke="none" stroke-width="1" fill="none" fill-rule="evenodd">
        <g transform="translate(-696.000000, -130.000000)" id="Group-10-Copy-2">
            <g transform="translate(661.000000, 127.000000)">
                <g id="icons/utility/filterList" transform="translate(35.000000, 3.000000)">
                    <mask id="mask-2" fill="white">
                        <use xlink:href="#path-1"></use>
                    </mask>
                    <use id="Mask-Copy-2" fill="#777777" opacity="0.800000012" xlink:href="#path-1"></use>
                </g>
            </g>
        </g>
    </g>
</svg>