<?xml version="1.0" encoding="UTF-8" standalone="no"?>
<svg width="26px" height="26px" viewBox="0 0 32 32" version="1.1" xmlns="http://www.w3.org/2000/svg" xmlns:xlink="http://www.w3.org/1999/xlink">
    <!-- Generator: Sketch 41.2 (35397) - http://www.bohemiancoding.com/sketch -->
    <title>functional_icon</title>
    <desc>Created with Sketch.</desc>
    <defs></defs>
    <g id="Company" stroke="none" stroke-width="1" fill="none" fill-rule="evenodd">
        <g id="Create_Sites" transform="translate(-670.000000, -217.000000)">
            <g id="Group-10" transform="translate(35.000000, 112.000000)">
                <g id="Sites-Panel-Copy" transform="translate(623.000000, 94.000000)">
                    <g id="Header" transform="translate(0.000000, -0.000000)">
                        <g id="functional_icon" transform="translate(12.000000, 11.000000)">
                            <rect id="bkgd" fill="#415072" x="0" y="0" width="32" height="32" rx="4"></rect>
                            <g id="noun_229963_cc" transform="translate(6.000000, 6.000000)" stroke-width="0.5" stroke="#FFFFFF" fill="#FFFFFF">
                                <g id="Group">
                                    <g id="Shape">
                                        <path d="M6.50022792,11 C5.12156988,11 4,12.121621 4,13.4996581 C4,14.878379 5.12156988,16 6.50022792,16 C7.87843012,16 9,14.878379 9,13.4996581 C9,12.121621 7.87865804,11 6.50022792,11 Z M6.50022792,15.6107034 C5.33649376,15.6107034 4.38927888,14.6639012 4.38927888,13.4996581 C4.38927888,12.3360988 5.33649376,11.3892966 6.50022792,11.3892966 C7.66396207,11.3892966 8.61072112,12.3358709 8.61072112,13.4996581 C8.61072112,14.6636732 7.66418999,15.6107034 6.50022792,15.6107034 Z"></path>
                                        <path d="M12.8439504,12.5146899 L11.0836584,12.2269859 C10.979843,11.8524483 10.8307579,11.4922742 10.6398855,11.1545158 L11.6660695,9.69075082 C11.7180861,9.61653972 11.7093804,9.5164309 11.6453935,9.45244831 L10.5288878,8.33732318 C10.464248,8.27181719 10.362609,8.26398259 10.2888282,8.31751904 L8.8467295,9.35516866 C8.50655439,9.16060936 8.14417974,9.00957563 7.76657012,8.90598477 L7.45947665,7.15386289 C7.4438064,7.06463547 7.36697862,7 7.27643937,7 L5.69744354,7 C5.60625136,7 5.52855301,7.06594124 5.51418861,7.15603917 L5.22951231,8.90010881 C4.85081448,9.00348205 4.48778691,9.15212187 4.14717651,9.3445049 L2.70899533,8.31773667 C2.63456162,8.26420022 2.53335789,8.27203482 2.46937101,8.33754081 L1.35308299,9.45266594 C1.28909611,9.51664853 1.28039042,9.61675734 1.33197167,9.69096844 L2.34422662,11.1379761 C2.14856607,11.4813928 1.99665165,11.8465724 1.891748,12.226333 L0.155179053,12.5146899 C0.0657280139,12.5299238 0,12.607617 0,12.6983678 L0,14.2768226 C0,14.3669206 0.0646398018,14.4439608 0.153655556,14.4598477 L1.88957158,14.7669206 C1.99403995,15.1466812 2.14595436,15.5120783 2.34161491,15.856148 L1.3167367,17.289445 C1.26363195,17.3634385 1.27190236,17.4644178 1.33632452,17.5292709 L2.45283019,18.6459195 C2.51659942,18.7099021 2.61606201,18.7186072 2.69093101,18.6670294 L4.14021195,17.6520131 C4.48191057,17.8452666 4.84580871,17.9954298 5.22385361,18.0992383 L5.51440625,19.8448313 C5.52920594,19.9338411 5.60690429,20 5.69766118,20 L7.27665701,20 C7.36676098,20 7.44402404,19.9353645 7.4596943,19.84679 L7.77048769,18.0931447 C8.14831495,17.9880305 8.51025431,17.8361262 8.84955886,17.6415669 L10.3095043,18.6668118 C10.3832851,18.7183896 10.4834006,18.7096844 10.5478227,18.6457018 L11.6634578,17.5290533 C11.7280976,17.4642002 11.7359328,17.362568 11.682828,17.2887922 L10.6418443,15.8428727 C10.8335872,15.5038085 10.9820194,15.1429815 11.0847466,14.7682263 L12.8459092,14.45963 C12.9349249,14.4443961 13,14.3667029 13,14.276605 L13,12.6981502 C12.9995647,12.607617 12.9336191,12.5299238 12.8439504,12.5146899 Z M12.6278314,14.1207835 L10.9027975,14.4228509 C10.830105,14.4352557 10.7719944,14.4896627 10.7541478,14.5614799 C10.6501147,14.9819369 10.4840535,15.3849837 10.2603171,15.7582155 C10.222012,15.8219804 10.2254943,15.9027203 10.2690228,15.9627856 L11.2882423,17.3780196 L10.3948201,18.2724701 L8.9646917,17.2683351 C8.90396946,17.2269859 8.82387705,17.2226333 8.76119603,17.2618063 C8.38924512,17.4883569 7.98573605,17.6574538 7.56242152,17.764309 C7.49125245,17.7817193 7.43749477,17.8400435 7.42487151,17.9118607 L7.12060739,19.6282916 L5.85501666,19.6282916 L5.57077564,17.9190424 C5.55880531,17.8457018 5.50395942,17.7869423 5.43170213,17.7688792 C5.00729939,17.6648531 4.60183154,17.4972797 4.226616,17.2722524 C4.16306441,17.2337323 4.08384256,17.2383025 4.02399089,17.2787813 L2.6047446,18.2726877 L1.71023422,17.3775843 L2.71378346,15.9747552 C2.75687666,15.9144723 2.7601413,15.8339499 2.72183623,15.7706202 C2.49374697,15.3930359 2.3246388,14.9858542 2.21929986,14.5601741 C2.20145318,14.4890098 2.14377794,14.4352557 2.07108537,14.4219804 L0.371515628,14.1207835 L0.371515628,12.8557127 L2.07152065,12.5732318 C2.14443087,12.560827 2.20319432,12.50642 2.22147629,12.4346028 C2.32746815,12.0091404 2.49679396,11.6023939 2.72401266,11.2248096 C2.76210008,11.1623504 2.75970602,11.082481 2.71748338,11.022198 L1.72633976,9.60478781 L2.62085014,8.71099021 L4.02877903,9.71577802 C4.08863069,9.75952122 4.16894075,9.76235038 4.23205706,9.72470076 C4.60640204,9.50032644 5.01186988,9.33384113 5.43779612,9.23025027 C5.51005341,9.21196953 5.5648993,9.15321001 5.57686963,9.07921654 L5.8552343,7.37149075 L7.1201721,7.37149075 L7.4207363,9.08726877 C7.43335956,9.15995647 7.48755253,9.21806311 7.55915689,9.23547334 C7.98247141,9.3405876 8.38685105,9.50924918 8.76010782,9.73579978 C8.82387705,9.7749728 8.90505768,9.77127312 8.96512699,9.72774755 L10.3776264,8.71207835 L11.2717015,9.60522307 L10.2664111,11.0385201 C10.2244061,11.0985854 10.2213591,11.1780196 10.2592289,11.2411317 C10.4820947,11.6121872 10.6488088,12.0145811 10.7539301,12.4361262 C10.7719944,12.508161 10.8311932,12.562568 10.9041034,12.5749728 L12.6273962,12.8568009 L12.6273962,14.1207835 L12.6278314,14.1207835 Z"></path>
                                        <path d="M16.7722502,3.1553059 C16.5256079,3.0521567 16.2654573,3 16.0004158,3 C15.1913173,3 14.4669948,3.48151813 14.1549073,4.22661389 C13.7293969,5.24506665 14.2108035,6.41975668 15.2278828,6.8446941 C15.4745251,6.9478433 15.7342099,7 15.9994842,7 C16.8088157,7 17.5329053,6.51848187 17.8449928,5.77268758 C18.2705032,4.75563188 17.7897952,3.58187322 16.7722502,3.1553059 Z M17.4781735,5.61877874 C17.2280377,6.21601956 16.6481139,6.60230514 15.9992513,6.60230514 C15.7873113,6.60230514 15.5793306,6.56016066 15.3815975,6.47796729 C14.5664436,6.13685313 14.1807593,5.19616974 14.5214937,4.38052273 C14.7716295,3.78328191 15.3520191,3.39769486 16.0004158,3.39769486 C16.2128217,3.39769486 16.4208024,3.4396065 16.6185355,3.52203271 C17.4334565,3.86384539 17.8193737,4.80452879 17.4781735,5.61877874 Z"></path>
                                        <path d="M19.7481424,5.44670605 C19.7817972,5.15986859 19.7829116,4.86968803 19.7512627,4.58195908 L20.9111276,3.85182736 C20.9893583,3.80190383 21.0207843,3.70383974 20.9857922,3.61825653 L20.5166309,2.47380404 C20.4814159,2.38755222 20.3889209,2.33629144 20.2973174,2.36080746 L18.97007,2.66859498 C18.7931037,2.44171034 18.5878317,2.23443851 18.3573743,2.04945398 L18.6591531,0.719125465 C18.6796581,0.628416182 18.6324076,0.537038281 18.5472676,0.501155739 L17.4063475,0.0235390513 C17.3178643,-0.0152408385 17.220466,0.0197502115 17.1712096,0.0979786098 L16.4537605,1.24800293 C16.1642401,1.21301188 15.8724908,1.21078315 15.5827475,1.24198536 L14.8702017,0.0901780572 C14.8209453,0.0112810401 14.7226555,-0.0212584076 14.636624,0.0144012611 L13.4923607,0.481320049 C13.4065521,0.516311099 13.358633,0.607689 13.3782464,0.697952536 L13.665538,2.0229321 C13.436195,2.20212194 13.2271341,2.40939376 13.0421441,2.64073586 L11.7280466,2.32982813 C11.6362202,2.30598072 11.5443939,2.35568139 11.5087332,2.44126459 L11.0319939,3.58103675 C10.9963332,3.66661996 11.0268677,3.76468405 11.1042069,3.81460758 L12.2417838,4.54941963 C12.2070146,4.8378172 12.2061231,5.13223234 12.239555,5.42620174 L11.0903883,6.13560627 C11.0112661,6.18486119 10.9789486,6.2835939 11.0141636,6.36984572 L11.4826563,7.51585833 C11.5174255,7.60144153 11.6085832,7.64757623 11.699518,7.62974639 L13.0260968,7.34045733 C13.206852,7.56934783 13.4130156,7.77617391 13.6419128,7.95826109 L13.3309959,9.27967469 C13.3091537,9.37038397 13.3568499,9.46332199 13.4428814,9.49898165 L14.5831329,9.97481536 C14.6678271,10.0120351 14.7665628,9.97994144 14.8162649,9.9028274 L15.5562248,8.75391745 C15.8452995,8.78801701 16.1390547,8.78734839 16.4267921,8.75324883 L17.1562767,9.91085083 C17.1919374,9.96812917 17.253675,10 17.3171957,10 C17.3412667,10 17.3660063,9.99554254 17.3896315,9.98595901 L18.5330034,9.51614287 C18.6194806,9.4804832 18.6669539,9.38754519 18.6460033,9.29683591 L18.3373152,7.96650739 C18.5646522,7.78731755 18.7699243,7.58272021 18.9502338,7.35694993 L20.2884023,7.65938849 C20.3775541,7.67721833 20.470049,7.63197512 20.5059326,7.54706054 L20.9826719,6.40728837 C21.0185555,6.32103655 20.9873524,6.22141235 20.9080073,6.17215743 L19.7481424,5.44670605 Z M20.2164122,7.25242252 L18.9154646,6.95800738 C18.8410228,6.94173766 18.7654667,6.96915103 18.7211136,7.02999534 C18.5202992,7.29922584 18.2813724,7.53703125 18.0110196,7.73650253 C17.9501735,7.78174573 17.9216449,7.85841402 17.9388066,7.93285358 L18.2383567,9.22507082 L17.3929747,9.57252972 L16.6833264,8.44657568 C16.6485572,8.39018883 16.5870425,8.35742651 16.5221845,8.35742651 C16.5126007,8.35742651 16.5030169,8.358318 16.4934331,8.35987811 C16.1635714,8.4118075 15.8216743,8.41047027 15.4891381,8.36143822 C15.4160336,8.34940308 15.3411461,8.38372551 15.3008049,8.44612993 L14.5820185,9.56227757 L13.737751,9.20991546 L14.0395298,7.92639026 C14.0569144,7.8519507 14.0288316,7.77528242 13.9682084,7.73003921 C13.6962954,7.52789346 13.4564771,7.28696783 13.2563313,7.0155086 C13.2113096,6.95511004 13.1350848,6.92479932 13.062649,6.94262915 L11.7739598,7.22367192 L11.4269364,6.37519467 L12.5437855,5.6858487 C12.6086435,5.64573157 12.6431898,5.57129202 12.6324916,5.49618384 C12.5818979,5.15630262 12.5827894,4.81575278 12.6347204,4.48411786 C12.6460872,4.4105698 12.6128782,4.33613024 12.5498033,4.29512162 L11.4440981,3.58125963 L11.7969163,2.73746272 L13.0733472,3.03923266 C13.1471203,3.05773112 13.2242366,3.02875763 13.2697041,2.96791332 C13.4758676,2.69288813 13.7179147,2.45329973 13.9891591,2.25561144 C14.0500052,2.21103686 14.0792024,2.13526006 14.0631551,2.06148912 L13.7841099,0.773729332 L14.6308291,0.427830546 L15.3233157,1.54687553 C15.3625425,1.61150867 15.4392131,1.64872845 15.5123175,1.63468746 C15.844408,1.58788414 16.1869738,1.58855276 16.5197329,1.64204227 C16.5977407,1.65184868 16.6708452,1.61886348 16.7109635,1.55512182 L17.4081305,0.437414082 L18.2523981,0.790444802 L17.9593115,2.08288492 C17.9423727,2.15665586 17.9702326,2.23243266 18.0301872,2.27789873 C18.3052205,2.48450194 18.5434787,2.72542758 18.7376067,2.99398946 C18.7826284,3.056171 18.8595218,3.08603598 18.9353008,3.06753752 L20.2255502,2.76844205 L20.5725736,3.61469057 L19.4452491,4.32431797 C19.3817285,4.3644351 19.3476279,4.43798317 19.3583261,4.51309135 C19.4062452,4.84628638 19.4049079,5.18327024 19.3543143,5.51401367 C19.3429474,5.58912185 19.377048,5.66423003 19.4419059,5.70434715 L20.5690075,6.40929423 L20.2164122,7.25242252 Z"></path>
                                    </g>
                                </g>
                            </g>
                        </g>
                    </g>
                </g>
            </g>
        </g>
    </g>
</svg>