<?xml version="1.0" encoding="UTF-8"?>
<svg width="16px" height="16px" viewBox="0 0 16 16" version="1.1" xmlns="http://www.w3.org/2000/svg" xmlns:xlink="http://www.w3.org/1999/xlink">
    <!-- Generator: Sketch 46.2 (44496) - http://www.bohemiancoding.com/sketch -->
    <title>Mask</title>
    <desc>Created with Sketch.</desc>
    <defs>
        <path d="M15.2608999,13.9378179 L11.137823,9.84551026 C11.9685923,8.67627949 12.3993615,7.19935641 12.1839769,5.63012564 C11.8147461,2.9839718 9.66089994,0.891664104 6.98397687,0.645510258 C3.35320764,0.276279488 0.276284559,3.35320257 0.645515328,7.01474103 C0.891669175,9.66089487 2.98397687,11.8455103 5.63013071,12.214741 C7.19936148,12.4301256 8.67628456,11.9993564 9.84551533,11.1685872 L13.937823,15.2608949 C14.1224384,15.4455103 14.3993615,15.4455103 14.5839769,15.2608949 L15.2301307,14.614741 C15.4147461,14.4301256 15.4147461,14.1224333 15.2608999,13.9378179 L15.2608999,13.9378179 Z M2.46089994,6.43012564 C2.46089994,4.24551026 4.24551533,2.46089487 6.43013071,2.46089487 C8.6147461,2.46089487 10.3993615,4.24551026 10.3993615,6.43012564 C10.3993615,8.61474103 8.6147461,10.3993564 6.43013071,10.3993564 C4.24551533,10.3993564 2.46089994,8.64551026 2.46089994,6.43012564 L2.46089994,6.43012564 Z" id="path-1"></path>
    </defs>
    <g id="Page-1" stroke="none" stroke-width="1" fill="none" fill-rule="evenodd">
        <g id="Dashboard_Revised" transform="translate(-1117.000000, -232.000000)">
            <g id="Group-9" transform="translate(25.000000, 210.000000)">
                <g id="Recommended-Courses" transform="translate(0.000000, 14.000000)">
                    <g id="Group-13" transform="translate(957.000000, 8.000000)">
                        <g id="Group-12-Copy" transform="translate(135.000000, 0.000000)">
                            <g id="icons/utility/search">
                                <mask id="mask-2" fill="white">
                                    <use xlink:href="#path-1"></use>
                                </mask>
                                <use id="Mask" fill="#5A5A5A"  xlink:href="#path-1"></use>
                            </g>
                        </g>
                    </g>
                </g>
            </g>
        </g>
    </g>
</svg>