<?xml version="1.0" encoding="UTF-8"?>
<svg width="20px" height="20px" viewBox="0 0 20 20" version="1.1" xmlns="http://www.w3.org/2000/svg" xmlns:xlink="http://www.w3.org/1999/xlink">
    <!-- Generator: Sketch 46.2 (44496) - http://www.bohemiancoding.com/sketch -->
    <title>Imported Layers 2</title>
    <desc>Created with Sketch.</desc>
    <defs></defs>
    <g id="Page-1" stroke="none" stroke-width="1" fill="none" fill-rule="evenodd" opacity="0.5">
        <g id="Vidal-UI-Kits" transform="translate(-1043.000000, -12576.000000)" fill="#FFFFFF">
            <g id="Modal" transform="translate(360.000000, 12557.000000)">
                <g id="Modal---Base">
                    <g id="Group-11">
                        <path d="M702.241842,21.4639474 C702.550263,21.1555263 702.550263,20.6555263 702.241842,20.3471053 L701.126053,19.2313158 C700.817632,18.9228947 700.317632,18.9228947 700.009211,19.2313158 L693.108684,26.1318421 C692.903421,26.3371053 692.569737,26.3371053 692.364474,26.1318421 L685.463947,19.2313158 C685.155526,18.9228947 684.655526,18.9228947 684.347105,19.2313158 L683.231316,20.3471053 C682.922895,20.6555263 682.922895,21.1555263 683.231316,21.4639474 L690.131842,28.3644737 C690.337105,28.5697368 690.337105,28.9034211 690.131842,29.1086842 L683.231316,36.0092105 C682.922895,36.3176316 682.922895,36.8176316 683.231316,37.1260526 L684.347105,38.2418421 C684.655526,38.5502632 685.155526,38.5502632 685.463947,38.2418421 L692.364474,31.3413158 C692.569737,31.1360526 692.903421,31.1360526 693.108684,31.3413158 L700.009211,38.2418421 C700.317632,38.5502632 700.817632,38.5502632 701.126053,38.2418421 L702.241842,37.1260526 C702.550263,36.8176316 702.550263,36.3176316 702.241842,36.0092105 L695.341316,29.1086842 C695.136053,28.9034211 695.136053,28.5697368 695.341316,28.3644737 L702.241842,21.4639474 Z" id="Imported-Layers-2"></path>
                    </g>
                </g>
            </g>
        </g>
    </g>
</svg>