<?xml version="1.0" encoding="UTF-8" standalone="no"?>
<svg width="50px" height="50px" viewBox="0 0 40 40" version="1.1" xmlns="http://www.w3.org/2000/svg" xmlns:xlink="http://www.w3.org/1999/xlink">
    <!-- Generator: Sketch 41.2 (35397) - http://www.bohemiancoding.com/sketch -->
    <title>noun_1310145_cc</title>
    <desc>Created with Sketch.</desc>
    <defs></defs>
    <g id="Page-1" stroke="none" stroke-width="1" fill="none" fill-rule="evenodd">
        <g id="noun_1310145_cc" fill="#000">
            <g id="Group">
                <g id="Shape">
                    <path d="M19.6875,19.6875 L19.6875,0.5545635 C19.6875,0.381974563 19.827411,0.2420635 20,0.2420635 C20.172589,0.2420635 20.3125,0.381974563 20.3125,0.5545635 L20.3125,19.6875 L39.4454365,19.6875 C39.6180254,19.6875 39.7579365,19.827411 39.7579365,20 C39.7579365,20.172589 39.6180254,20.3125 39.4454365,20.3125 L20.3125,20.3125 L20.3125,39.4454365 C20.3125,39.6180254 20.172589,39.7579365 20,39.7579365 C19.827411,39.7579365 19.6875,39.6180254 19.6875,39.4454365 L19.6875,20.3125 L0.5545635,20.3125 C0.381974563,20.3125 0.2420635,20.172589 0.2420635,20 C0.2420635,19.827411 0.381974563,19.6875 0.5545635,19.6875 L19.6875,19.6875 L19.6875,19.6875 Z"></path>
                </g>
            </g>
        </g>
    </g>
</svg>