<?xml version="1.0" encoding="UTF-8"?>
<svg width="30px" height="30px" viewBox="0 0 30 30" version="1.1" xmlns="http://www.w3.org/2000/svg" xmlns:xlink="http://www.w3.org/1999/xlink">
    <!-- Generator: Sketch 46.2 (44496) - http://www.bohemiancoding.com/sketch -->
    <title>Group 5</title>
    <desc>Created with Sketch.</desc>
    <defs>
        <rect id="path-1" x="0" y="0" width="30" height="30" rx="2"></rect>
    </defs>
    <g id="Page-1" stroke="none" stroke-width="1" fill="none" fill-rule="evenodd">
        <g id="Group-5">
            <g id="Group-3">
                <g id="menu-icon" opacity="0.6" transform="translate(11.000000, 15.000000) rotate(90.000000) translate(-11.000000, -15.000000) translate(2.000000, 6.000000)">
                    <g id="Group">
                        <polygon id="Shape" points="0 0 18 0 18 18 0 18"></polygon>
                        <path d="M9,6 C9.825,6 10.5,5.325 10.5,4.5 C10.5,3.675 9.825,3 9,3 C8.175,3 7.5,3.675 7.5,4.5 C7.5,5.325 8.175,6 9,6 Z M9,7.5 C8.175,7.5 7.5,8.175 7.5,9 C7.5,9.825 8.175,10.5 9,10.5 C9.825,10.5 10.5,9.825 10.5,9 C10.5,8.175 9.825,7.5 9,7.5 Z M9,12 C8.175,12 7.5,12.675 7.5,13.5 C7.5,14.325 8.175,15 9,15 C9.825,15 10.5,14.325 10.5,13.5 C10.5,12.675 9.825,12 9,12 Z" id="Shape" fill="#000000"></path>
                    </g>
                </g>
                <g id="Group-6-Copy" transform="translate(15.000000, 15.000000) scale(-1, 1) translate(-15.000000, -15.000000) ">
                    <g id="Rectangle-5">
                        <use fill="#FFFFFF" fill-rule="evenodd" xlink:href="#path-1"></use>
                        <rect stroke="#E4E4E4" stroke-width="1" x="0.5" y="0.5" width="29" height="29" rx="2"></rect>
                    </g>
                    <polygon id="Shape" fill="#000000" points="16.735 10 12 14.735 16.735 19.47 17.0194631 19.1835194 12.5709438 14.735 17.0194631 10.2864806"></polygon>
                </g>
            </g>
        </g>
    </g>
</svg>