<?xml version="1.0" encoding="UTF-8"?>
<svg width="34px" height="19px" viewBox="0 0 35 20" version="1.1" xmlns="http://www.w3.org/2000/svg" xmlns:xlink="http://www.w3.org/1999/xlink">
    <!-- Generator: Sketch 46.2 (44496) - http://www.bohemiancoding.com/sketch -->
    <title>notification-icon copy</title>
    <desc>Created with Sketch.</desc>
    <defs></defs>
    <g id="Page-1" stroke="none" stroke-width="1" fill="none" fill-rule="evenodd" opacity="1">
        <g id="notification-icon-copy" fill="#415072">
            <g id="icon">
                <g id="noun_879834_cc">
                    <g id="Group">
                        <path d="M19.2982456,11.4207018 L19.2982456,7.87754386 L16.113208,7.87754386 C15.9646115,7.33002506 15.7495739,6.81117794 15.4747118,6.32899749 L17.7251629,4.07854637 L15.2196992,1.57308271 L12.9681454,3.82353383 C12.4859649,3.54867168 11.9671178,3.33363409 11.4207018,3.18393484 L11.4207018,0 L7.87754386,0 L7.87754386,3.18393484 C7.33112782,3.33363409 6.81117794,3.54867168 6.3287218,3.82353383 L4.07827068,1.57308271 L1.57280702,4.07854637 L3.82325815,6.32899749 C3.5481203,6.81117794 3.3333584,7.33002506 3.18365915,7.87754386 L0,7.87754386 L0,11.4207018 L3.18393484,11.4207018 C3.33363409,11.9682206 3.54867168,12.4870677 3.82353383,12.9692481 L1.57308271,15.2196992 L4.07854637,17.7240602 L6.32899749,15.4747118 C6.81145363,15.7495739 7.33002506,15.9646115 7.87781955,16.1143108 L7.87781955,19.2982456 L11.4209774,19.2982456 L11.4209774,16.1143108 C11.9673935,15.9646115 12.4873434,15.7495739 12.9697995,15.4747118 L15.2202506,17.7240602 L17.7257143,15.2196992 L15.4752632,12.9692481 C15.750401,12.4870677 15.9651629,11.9682206 16.1137594,11.4207018 L19.2982456,11.4207018 L19.2982456,11.4207018 Z M9.64912281,13.1534085 C7.71350877,13.1534085 6.14483709,11.5847368 6.14483709,9.64912281 C6.14483709,7.71350877 7.71350877,6.14483709 9.64912281,6.14483709 C11.5836341,6.14483709 13.1534085,7.71350877 13.1534085,9.64912281 C13.1534085,11.5847368 11.5836341,13.1534085 9.64912281,13.1534085 Z" id="Shape"></path>
                        <path d="M34.2844256,8 C34.5374028,8 34.7144868,8.325 34.5121051,8.55 L30.1355999,13.85 C29.9838136,14.05 29.6549433,14.05 29.503157,13.85 L25.0760564,8.55 C24.8989724,8.325 25.0507587,8 25.3290336,8 L34.2844256,8 Z" id="down-copy"></path>
                    </g>
                </g>
            </g>
        </g>
    </g>
</svg>