<?xml version="1.0" encoding="UTF-8" standalone="no"?>
<svg width="26px" height="26px" viewBox="0 0 32 32" version="1.1" xmlns="http://www.w3.org/2000/svg" xmlns:xlink="http://www.w3.org/1999/xlink">
    <!-- Generator: Sketch 41.2 (35397) - http://www.bohemiancoding.com/sketch -->
    <title>sites_icon</title>
    <desc>Created with Sketch.</desc>
    <defs></defs>
    <g id="Company" stroke="none" stroke-width="1" fill="none" fill-rule="evenodd">
        <g id="Create_Sites" transform="translate(-300.000000, -217.000000)">
            <g id="Group-10" transform="translate(35.000000, 112.000000)">
                <g id="Sites-Panel" transform="translate(253.000000, 94.000000)">
                    <g id="Header" transform="translate(0.000000, -0.000000)">
                        <g id="sites_icon" transform="translate(12.000000, 11.000000)">
                            <rect id="bkgd" fill="#415072" x="0" y="0" width="32" height="32" rx="4"></rect>
                            <g id="noun_1049_cc" transform="translate(6.000000, 6.000000)" fill="#FFFFFF">
                                <g id="Group">
                                    <path d="M20.89878,9.05856 C20.84733,8.68623 20.7774,8.31999 20.68794,7.96089 C20.43132,6.9321 20.02413,5.96232 19.48863,5.07801 C19.25679,4.69497 18.99912,4.32957 18.72192,3.98034 C16.79643,1.55778 13.82787,0 10.5,0 C7.17234,0 4.20336,1.55778 2.27829,3.98055 C2.00088,4.32957 1.74342,4.69518 1.51179,5.07822 C0.97629,5.96253 0.56868,6.93231 0.31227,7.9611 C0.22281,8.31999 0.15288,8.68644 0.10164,9.05877 C0.03633,9.53001 0,10.0107 0,10.5 C0,10.9893 0.03633,11.46999 0.10143,11.94144 C0.15288,12.31377 0.22281,12.68022 0.31206,13.03911 C0.56868,14.06811 0.97608,15.03768 1.51158,15.9222 C1.74342,16.30524 2.00088,16.67064 2.27808,17.01987 C4.20336,19.44222 7.17234,21 10.5,21 C13.82766,21 16.79664,19.44222 18.72192,17.01945 C18.99912,16.67043 19.25679,16.30503 19.48863,15.92178 C20.02392,15.03726 20.43132,14.0679 20.68794,13.03869 C20.7774,12.6798 20.84733,12.31356 20.89878,11.94102 C20.96367,11.46978 21,10.98909 21,10.5 C21,10.01091 20.96367,9.53001 20.89878,9.05856 Z M7.5537,1.5729 C7.01022,2.21298 6.5331,3.02841 6.14103,3.98055 L3.73443,3.98055 C4.78233,2.89338 6.08853,2.05779 7.5537,1.5729 Z M2.82555,5.07801 L5.74581,5.07801 C5.47113,5.95959 5.26323,6.92832 5.13303,7.96089 L1.44858,7.96089 C1.74237,6.91509 2.21256,5.943 2.82555,5.07801 Z M1.09767,10.5 C1.09767,10.01007 1.13568,9.52875 1.20813,9.05856 L5.02656,9.05856 C4.99401,9.52917 4.97574,10.00965 4.97574,10.5 C4.97574,10.99035 4.99401,11.47083 5.02656,11.94144 L1.20813,11.94144 C1.13547,11.47125 1.09767,10.99014 1.09767,10.5 Z M2.82555,15.92178 C2.21277,15.05679 1.74237,14.0847 1.44858,13.03869 L5.13282,13.03869 C5.26302,14.07147 5.47113,15.03999 5.7456,15.92178 L2.82555,15.92178 Z M3.73464,17.01945 L6.14124,17.01945 C6.5331,17.97159 7.01043,18.78681 7.55391,19.4271 C6.08853,18.942 4.78254,18.10683 3.73464,17.01945 Z M9.95127,19.82379 C8.94495,19.54575 8.03187,18.51738 7.34496,17.01945 L9.95127,17.01945 L9.95127,19.82379 Z M9.95127,15.92178 L6.9111,15.92178 C6.61626,15.05364 6.38883,14.08029 6.24582,13.03869 L9.95148,13.03869 C9.95127,14.07588 9.95127,15.04608 9.95127,15.92178 Z M9.95127,10.5 L9.95127,11.94144 L6.12801,11.94144 C6.0921,11.4702 6.07299,10.98867 6.07299,10.5 C6.07299,10.01112 6.09189,9.5298 6.12801,9.05856 L9.95127,9.05856 L9.95127,10.5 Z M9.95127,7.96089 L6.24561,7.96089 C6.38862,6.91929 6.61626,5.94594 6.91089,5.07801 L9.95127,5.07801 L9.95127,7.96089 Z M9.95127,3.98055 L7.34496,3.98055 C8.03208,2.4822 8.94495,1.45425 9.95127,1.176 L9.95127,3.98055 Z M18.17445,5.07801 C18.78744,5.943 19.25742,6.91509 19.55142,7.96089 L15.86718,7.96089 C15.73677,6.92832 15.52887,5.95959 15.25419,5.07801 L18.17445,5.07801 L18.17445,5.07801 Z M17.26557,3.98055 L14.85897,3.98055 C14.46711,3.02841 13.98957,2.21298 13.4463,1.57311 C14.91147,2.05779 16.21767,2.89338 17.26557,3.98055 Z M11.04873,1.176 C12.05526,1.45425 12.96813,2.4822 13.65504,3.98034 L11.04873,3.98034 L11.04873,1.176 Z M11.04873,5.07801 L14.0889,5.07801 C14.38395,5.94594 14.61138,6.91929 14.75439,7.96089 L11.04873,7.96089 L11.04873,5.07801 Z M11.04873,9.05856 L14.87199,9.05856 C14.90769,9.5298 14.9268,10.01112 14.9268,10.5 C14.9268,10.98888 14.90769,11.47041 14.87199,11.94144 L11.04873,11.94144 L11.04873,9.05856 Z M11.04873,13.0389 L14.75439,13.0389 C14.61138,14.0805 14.38395,15.05385 14.0889,15.92199 L11.04873,15.92199 L11.04873,13.0389 Z M11.04873,19.82379 L11.04873,17.01945 L13.65504,17.01945 C12.96813,18.51759 12.05526,19.54554 11.04873,19.82379 Z M13.4463,19.4271 C13.98957,18.78681 14.4669,17.97138 14.85876,17.01945 L17.26536,17.01945 C16.21746,18.10662 14.91147,18.942 13.4463,19.4271 Z M18.17445,15.92178 L15.25398,15.92178 C15.52887,15.0402 15.73677,14.07147 15.86718,13.03869 L19.55142,13.03869 C19.25742,14.0847 18.78744,15.05679 18.17445,15.92178 Z M19.79187,11.94123 L15.97323,11.94123 C16.00599,11.47062 16.02426,10.99035 16.02426,10.49979 C16.02426,10.00965 16.00599,9.52896 15.97323,9.05835 L19.79187,9.05835 C19.86453,9.52833 19.90233,10.00965 19.90233,10.49979 C19.90233,10.99014 19.86453,11.47125 19.79187,11.94123 Z" id="Shape"></path>
                                </g>
                            </g>
                        </g>
                    </g>
                </g>
            </g>
        </g>
    </g>
</svg>