<?xml version="1.0" encoding="UTF-8"?>
<svg width="15px" height="14px" viewBox="0 0 15 14" version="1.1" xmlns="http://www.w3.org/2000/svg" xmlns:xlink="http://www.w3.org/1999/xlink">
    <!-- Generator: Sketch 46.2 (44496) - http://www.bohemiancoding.com/sketch -->
    <title>Shape</title>
    <desc>Created with Sketch.</desc>
    <defs></defs>
    <g id="Asset" stroke="none" stroke-width="1" fill="none" fill-rule="evenodd">
        <g id="Create_Customers" transform="translate(-1143.000000, -471.000000)" stroke="#777777">
            <g id="Group-10" transform="translate(35.000000, 112.000000)">
                <g id="Group-4" transform="translate(241.000000, 79.000000)">
                    <g id="Group-6" transform="translate(1.000000, 160.750000)">
                        <g id="Data-Table---Base" transform="translate(0.000000, 38.000000)">
                            <g id="Row" transform="translate(0.000000, 68.000000)">
                                <path d="M873.068197,23.3834662 C873.19953,23.2876045 873.412788,23.2878427 873.543794,23.3834662 L877.060794,25.950582 C877.192126,26.0464437 877.257461,25.9984977 877.207005,25.8443493 L875.852443,21.7060679 C875.80186,21.5515355 875.867987,21.3487804 875.99941,21.2537305 L879.527597,18.702014 C879.659348,18.6067274 879.63394,18.5297713 879.47175,18.5301258 L875.117585,18.5396431 C874.954991,18.5399985 874.782601,18.4144508 874.732819,18.2600833 L873.396359,14.1159199 C873.346453,13.9611678 873.265415,13.9615524 873.215632,14.1159199 L871.879173,18.2600833 C871.829266,18.4148353 871.656597,18.5399977 871.494407,18.5396431 L867.140242,18.5301258 C866.977648,18.5297704 866.952971,18.6069642 867.084394,18.702014 L870.612582,21.2537305 C870.744332,21.3490172 870.810006,21.5519195 870.759549,21.7060679 L869.404987,25.8443493 C869.354405,25.9988817 869.420192,26.0462055 869.551198,25.950582 L873.068197,23.3834662 Z" id="Shape"></path>
                            </g>
                        </g>
                    </g>
                </g>
            </g>
        </g>
    </g>
</svg>