<?xml version="1.0" encoding="UTF-8"?>
<svg width="15px" height="14px" viewBox="0 0 15 14" version="1.1" xmlns="http://www.w3.org/2000/svg" xmlns:xlink="http://www.w3.org/1999/xlink">
    <!-- Generator: Sketch 46.2 (44496) - http://www.bohemiancoding.com/sketch -->
    <title>Shape</title>
    <desc>Created with Sketch.</desc>
    <defs></defs>
    <g id="Asset" stroke="none" stroke-width="1" fill="none" fill-rule="evenodd">
        <g id="Create_Customers" transform="translate(-1143.000000, -435.000000)" stroke="#F5A623" fill="#F5A623">
            <g id="Group-10" transform="translate(35.000000, 112.000000)">
                <g id="Group-4" transform="translate(241.000000, 79.000000)">
                    <g id="Group-6" transform="translate(1.000000, 160.750000)">
                        <g id="Data-Table---Base" transform="translate(0.000000, 38.000000)">
                            <g id="Row" transform="translate(0.000000, 28.000000)">
                                <g id="noun_1174060_cc" transform="translate(867.000000, 18.000000)">
                                    <g id="Star-8.6">
                                        <g id="Group">
                                            <g id="Shape">
                                                <path d="M6.06819748,9.38346616 C6.19952987,9.28760447 6.41278812,9.28784272 6.54379413,9.38346616 L10.0607937,11.950582 C10.1921261,12.0464437 10.2574613,11.9984977 10.2070047,11.8443493 L8.85244258,7.70606789 C8.80186029,7.55153549 8.86798728,7.34878037 8.99941003,7.25373053 L12.5275974,4.70201402 C12.6593476,4.6067274 12.6339397,4.52977129 12.4717498,4.53012582 L8.11758479,4.53964313 C7.95499081,4.53999854 7.7826013,4.41445075 7.73281902,4.26008329 L6.39635918,0.115919855 C6.34645286,-0.0388321773 6.26541472,-0.0384476065 6.21563243,0.115919855 L4.8791726,4.26008329 C4.8292663,4.41483532 4.65659675,4.53999766 4.49440683,4.53964313 L0.14024179,4.53012582 C-0.0223521546,4.52977041 -0.047028572,4.60696417 0.0843941779,4.70201402 L3.61258159,7.25373053 C3.74433175,7.34901718 3.81000561,7.55191953 3.75954903,7.70606789 L2.4049869,11.8443493 C2.35440461,11.9988817 2.42019187,12.0462055 2.55119789,11.950582 L6.06819748,9.38346616 Z"></path>
                                            </g>
                                        </g>
                                    </g>
                                </g>
                            </g>
                        </g>
                    </g>
                </g>
            </g>
        </g>
    </g>
</svg>