<?xml version="1.0" encoding="UTF-8" standalone="no"?>
<svg width="26px" height="26px" viewBox="0 0 32 32" version="1.1" xmlns="http://www.w3.org/2000/svg" xmlns:xlink="http://www.w3.org/1999/xlink">
    <!-- Generator: Sketch 41.2 (35397) - http://www.bohemiancoding.com/sketch -->
    <title>sites_icon</title>
    <desc>Created with Sketch.</desc>
    <defs></defs>
    <g id="Company" stroke="none" stroke-width="1" fill="none" fill-rule="evenodd">
        <g id="Create_Sites" transform="translate(-300.000000, -217.000000)">
            <g id="Group-10" transform="translate(35.000000, 112.000000)">
                <g id="Sites-Panel" transform="translate(253.000000, 94.000000)">
                    <g id="Header" transform="translate(0.000000, -0.000000)">
                        <g id="sites_icon" transform="translate(12.000000, 11.000000)">
                            <rect id="bkgd" fill="#415072" x="0" y="0" width="32" height="32" rx="4"></rect>
                            <g id="noun_419_cc" transform="translate(4.000000, 6.000000)" fill="#FFFFFF">
                                <g id="Group">
                                    <path d="M23.65776,17.1585129 C23.14992,14.2296517 16.16112,14.5410729 14.4768,12.2471246 C14.1216,11.7629599 14.1216,11.7629599 14.35968,9.96524697 C14.76624,7.9529458 15.13464,9.20184933 15.71592,5.18824462 C16.20408,1.81759991 15.3017342,0 12.1392542,0 C8.9767742,0 7.79592,1.81759991 8.28408,5.18824462 C8.86536,9.20184933 9.23352,7.9529458 9.64032,9.96524697 C9.8784,11.7629599 9.8784,11.7629599 9.5232,12.2471246 C7.83888,14.5410729 0.85008,14.2296517 0.34224,17.1585129 C0.282,17.5050729 0,19.4234917 0,19.4234917 L24,19.4234917 C24,19.4234917 23.718,17.5050729 23.65776,17.1585129 Z" id="Shape"></path>
                                </g>
                            </g>
                        </g>
                    </g>
                </g>
            </g>
        </g>
    </g>
</svg>