<?xml version="1.0" encoding="UTF-8"?>
<svg width="122px" height="126px" viewBox="0 0 122 126" version="1.1" xmlns="http://www.w3.org/2000/svg" xmlns:xlink="http://www.w3.org/1999/xlink">
    <!-- Generator: Sketch 44.1 (41455) - http://www.bohemiancoding.com/sketch -->
    <title>about_icon</title>
    <desc>Created with Sketch.</desc>
    <defs></defs>
    <g id="Page-1" stroke="none" stroke-width="1" fill="none" fill-rule="evenodd">
        <g id="About-Us" transform="translate(-145.000000, -166.000000)" stroke="#543E6A" stroke-width="5" fill="#FFFFFF" fill-rule="nonzero">
            <path d="M236.565803,207.805857 C227.38663,207.805857 219.256608,212.320174 214.293359,219.229574 C214.235408,219.179201 214.184701,219.128829 214.127958,219.079656 C210.608651,216.198841 206.63781,213.951277 202.402569,212.40053 C207.737669,207.876618 211.125379,201.149518 211.125379,193.652441 C211.124172,180.060317 199.992779,169 186.309135,169 C172.62549,169 161.494097,180.060317 161.494097,193.65364 C161.494097,201.798361 165.491499,209.030383 171.639118,213.523112 C167.302463,215.49003 163.311098,218.231723 159.840083,221.679826 C152.203851,229.265654 148,239.347309 148,250.075409 C148,250.185748 148.003622,250.293688 148.014488,250.401629 C148.003622,250.50957 148,250.61871 148,250.72665 L148,284.882665 C148,287.156614 149.85322,289 152.144693,289 L220.475991,289 C222.765049,289 224.619477,287.156614 224.619477,284.882665 C224.619477,282.608715 222.766257,280.767728 220.475991,280.767728 L156.285764,280.767728 L156.285764,250.72785 C156.285764,250.61871 156.280935,250.50957 156.272484,250.402828 C156.280935,250.293688 156.285764,250.185748 156.285764,250.076608 C156.285764,233.470541 169.114634,219.788466 185.442286,218.29169 C185.728419,218.302484 186.01938,218.307281 186.307927,218.307281 C187.22669,218.307281 188.135794,218.256909 189.027995,218.158563 C196.259779,218.295288 203.277868,220.865474 208.853223,225.432562 C209.391683,225.876318 210.011033,226.156964 210.650907,226.288891 C209.722486,229.01859 209.216623,231.937784 209.216623,234.975713 C209.216623,237.247264 211.073465,239.09065 213.360109,239.09065 C215.649168,239.09065 217.503595,237.247264 217.503595,234.975713 C217.503595,224.535455 226.056175,216.040528 236.565803,216.040528 C247.077846,216.040528 255.625597,224.535455 255.625597,234.975713 C255.625597,245.417171 247.077846,253.9097 236.565803,253.9097 C234.276744,253.9097 232.422317,255.753086 232.422317,258.027035 L232.422317,269.547899 C232.422317,271.821848 234.276744,273.664035 236.565803,273.664035 C238.854862,273.664035 240.709289,271.821848 240.709289,269.547899 L240.709289,261.830143 C253.830328,259.841637 263.912568,248.558243 263.912568,234.974514 C263.911361,219.993554 251.646305,207.805857 236.565803,207.805857 Z M169.779862,193.65364 C169.779862,184.59982 177.197571,177.232272 186.309135,177.232272 C195.424321,177.232272 202.840822,184.601019 202.840822,193.65364 C202.840822,201.947079 196.61835,208.822897 188.565596,209.919094 C188.519718,209.919094 188.467804,209.917895 188.420719,209.917895 C187.361908,209.917895 186.307927,209.958673 185.262397,210.040228 C176.634964,209.501724 169.779862,202.358453 169.779862,193.65364 Z" id="about_icon"></path>
        </g>
    </g>
</svg>