<?xml version="1.0" encoding="UTF-8"?>
<svg width="23px" height="23px" viewBox="0 0 23 23" version="1.1" xmlns="http://www.w3.org/2000/svg" xmlns:xlink="http://www.w3.org/1999/xlink">
    <!-- Generator: Sketch 44.1 (41455) - http://www.bohemiancoding.com/sketch -->
    <title>big_bullet_icon</title>
    <desc>Created with Sketch.</desc>
    <defs></defs>
    <g id="Page-1" stroke="none" stroke-width="1" fill="none" fill-rule="evenodd">
        <g id="Implementation-Methodology" transform="translate(-144.000000, -2731.000000)" fill-rule="nonzero" fill="#30D6C7">
            <path d="M167,2733.22581 L167,2732.85484 L159.951613,2732.85484 C159.525742,2732.85484 159.114339,2732.91568 158.720742,2733.01992 C157.682774,2732.66676 156.600661,2732.48387 155.5,2732.48387 C154.037645,2732.48387 152.604226,2732.80624 151.290258,2733.41611 L151.779194,2731.46074 L151.059516,2731.28119 L150.487113,2733.57081 C149.676919,2732.04353 148.071742,2731 146.225806,2731 L145.854839,2731 L145.854839,2738.04839 C145.854839,2738.47426 145.915677,2738.88566 146.019919,2739.27926 C145.666758,2740.31723 145.483871,2741.39934 145.483871,2742.5 C145.483871,2743.96235 145.806242,2745.39577 146.416113,2746.70974 L144.460742,2746.22081 L144.281194,2746.94048 L146.570806,2747.51289 C145.043532,2748.32308 144,2749.92826 144,2751.77419 L144,2752.14516 L151.048387,2752.14516 C151.474258,2752.14516 151.885661,2752.08432 152.279258,2751.98008 C153.317226,2752.33324 154.399339,2752.51613 155.5,2752.51613 C156.962355,2752.51613 158.395774,2752.19376 159.709742,2751.58389 L159.220806,2753.53926 L159.940113,2753.71881 L160.512516,2751.42919 C161.323081,2752.95647 162.928258,2754 164.774194,2754 L165.145161,2754 L165.145161,2746.95161 C165.145161,2746.52574 165.084323,2746.11434 164.980081,2745.72074 C165.333242,2744.68277 165.516129,2743.60066 165.516129,2742.5 C165.516129,2741.03765 165.193758,2739.60423 164.583887,2738.29026 L166.539258,2738.77919 L166.718806,2738.05989 L164.429194,2737.48748 C165.956468,2736.67692 167,2735.07174 167,2733.22581 Z M157.597452,2733.4725 C156.126565,2734.29939 155.129032,2735.8734 155.129032,2737.67742 L155.129032,2738.04839 L155.129032,2742.12903 L151.048387,2742.12903 L151.048387,2735.82258 C151.048387,2735.53434 151.018339,2735.25389 150.969742,2734.97937 L152.697339,2736.13123 L153.108742,2735.51394 L151.237581,2734.26637 C152.550435,2733.58527 154.009452,2733.22581 155.5,2733.22581 C156.210403,2733.22581 156.911532,2733.31335 157.597452,2733.4725 Z M146.596774,2731.75863 C148.673823,2731.94671 150.306452,2733.69731 150.306452,2735.82258 L150.306452,2742.11234 C148.229403,2741.92426 146.596774,2740.17366 146.596774,2738.04839 L146.596774,2731.75863 Z M146.4725,2740.40255 C147.299387,2741.87344 148.873403,2742.87097 150.677419,2742.87097 L151.048387,2742.87097 L155.129032,2742.87097 L155.129032,2746.95161 L148.822581,2746.95161 C148.534339,2746.95161 148.253887,2746.98166 147.979371,2747.03026 L149.131226,2745.30266 L148.513935,2744.89126 L147.266371,2746.76242 C146.585274,2745.44956 146.225806,2743.99055 146.225806,2742.5 C146.225806,2741.7896 146.313355,2741.08847 146.4725,2740.40255 Z M144.758629,2751.40323 C144.94671,2749.32618 146.697306,2747.69355 148.822581,2747.69355 L155.112339,2747.69355 C154.924258,2749.7706 153.173661,2751.40323 151.048387,2751.40323 L144.758629,2751.40323 Z M153.402548,2751.5275 C154.873435,2750.70061 155.870968,2749.1266 155.870968,2747.32258 L155.870968,2746.95161 L155.870968,2742.87097 L159.951613,2742.87097 L159.951613,2749.17742 C159.951613,2749.46566 159.981661,2749.74611 160.030258,2750.02063 L158.302661,2748.86877 L157.891258,2749.48606 L159.76279,2750.73363 C158.449565,2751.41473 156.990548,2751.77419 155.5,2751.77419 C154.789597,2751.77419 154.088468,2751.68665 153.402548,2751.5275 Z M164.403226,2753.24137 C162.326177,2753.05329 160.693548,2751.30269 160.693548,2749.17742 L160.693548,2742.88766 C162.770597,2743.07574 164.403226,2744.82634 164.403226,2746.95161 L164.403226,2753.24137 Z M164.5275,2744.59745 C163.700613,2743.12656 162.126597,2742.12903 160.322581,2742.12903 L159.951613,2742.12903 L155.870968,2742.12903 L155.870968,2738.04839 L162.177419,2738.04839 C162.465661,2738.04839 162.746113,2738.01834 163.020629,2737.96974 L161.868774,2739.69734 L162.486065,2740.10874 L163.733629,2738.23721 C164.414726,2739.55044 164.774194,2741.00945 164.774194,2742.5 C164.774194,2743.2104 164.686645,2743.91153 164.5275,2744.59745 Z M162.177419,2737.30645 L155.887661,2737.30645 C156.075742,2735.2294 157.826339,2733.59677 159.951613,2733.59677 L166.241371,2733.59677 C166.05329,2735.67382 164.302694,2737.30645 162.177419,2737.30645 Z" id="big_bullet_icon"></path>
        </g>
    </g>
</svg>