<?xml version="1.0" encoding="UTF-8"?>
<svg width="23px" height="23px" viewBox="0 0 23 23" version="1.1" xmlns="http://www.w3.org/2000/svg" xmlns:xlink="http://www.w3.org/1999/xlink">
    <!-- Generator: Sketch 44.1 (41455) - http://www.bohemiancoding.com/sketch -->
    <title>bullet_icon_big</title>
    <desc>Created with Sketch.</desc>
    <defs></defs>
    <g id="Page-1" stroke="none" stroke-width="1" fill="none" fill-rule="evenodd">
        <g id="About-Us" transform="translate(-410.000000, -1305.000000)" fill-rule="nonzero" fill="#30D6C7">
            <g id="bullet_icon_big" transform="translate(410.000000, 1305.000000)">
                <path d="M23,2.22580645 L23,1.85483871 L15.9516129,1.85483871 C15.5257419,1.85483871 15.1143387,1.91567742 14.7207419,2.01991935 C13.6827742,1.66675806 12.6006613,1.48387097 11.5,1.48387097 C10.0376452,1.48387097 8.60422581,1.80624194 7.29025806,2.4161129 L7.77919355,0.460741935 L7.05951613,0.281193548 L6.4871129,2.57080645 C5.67691935,1.04353226 4.07174194,0 2.22580645,0 L1.85483871,0 L1.85483871,7.0483871 C1.85483871,7.47425806 1.91567742,7.88566129 2.01991935,8.27925806 C1.66675806,9.31722581 1.48387097,10.3993387 1.48387097,11.5 C1.48387097,12.9623548 1.80624194,14.3957742 2.4161129,15.7097419 L0.460741935,15.2208065 L0.281193548,15.9404839 L2.57080645,16.5128871 C1.04353226,17.3230806 0,18.9282581 0,20.7741935 L0,21.1451613 L7.0483871,21.1451613 C7.47425806,21.1451613 7.88566129,21.0843226 8.27925806,20.9800806 C9.31722581,21.3332419 10.3993387,21.516129 11.5,21.516129 C12.9623548,21.516129 14.3957742,21.1937581 15.7097419,20.5838871 L15.2208065,22.5392581 L15.9401129,22.7188065 L16.5125161,20.4291935 C17.3230806,21.9564677 18.9282581,23 20.7741935,23 L21.1451613,23 L21.1451613,15.9516129 C21.1451613,15.5257419 21.0843226,15.1143387 20.9800806,14.7207419 C21.3332419,13.6827742 21.516129,12.6006613 21.516129,11.5 C21.516129,10.0376452 21.1937581,8.60422581 20.5838871,7.29025806 L22.5392581,7.77919355 L22.7188065,7.0598871 L20.4291935,6.48748387 C21.9564677,5.67691935 23,4.07174194 23,2.22580645 Z M13.5974516,2.4725 C12.1265645,3.2993871 11.1290323,4.87340323 11.1290323,6.67741935 L11.1290323,7.0483871 L11.1290323,11.1290323 L7.0483871,11.1290323 L7.0483871,4.82258065 C7.0483871,4.53433871 7.01833871,4.2538871 6.96974194,3.97937097 L8.69733871,5.13122581 L9.10874194,4.51393548 L7.23758065,3.26637097 C8.55043548,2.58527419 10.0094516,2.22580645 11.5,2.22580645 C12.2104032,2.22580645 12.9115323,2.31335484 13.5974516,2.4725 Z M2.59677419,0.758629032 C4.67382258,0.946709677 6.30645161,2.69730645 6.30645161,4.82258065 L6.30645161,11.1123387 C4.22940323,10.9242581 2.59677419,9.17366129 2.59677419,7.0483871 L2.59677419,0.758629032 Z M2.4725,9.40254839 C3.2993871,10.8734355 4.87340323,11.8709677 6.67741935,11.8709677 L7.0483871,11.8709677 L11.1290323,11.8709677 L11.1290323,15.9516129 L4.82258065,15.9516129 C4.53433871,15.9516129 4.2538871,15.9816613 3.97937097,16.0302581 L5.13122581,14.3026613 L4.51393548,13.8912581 L3.26637097,15.7624194 C2.58527419,14.4495645 2.22580645,12.9905484 2.22580645,11.5 C2.22580645,10.7895968 2.31335484,10.0884677 2.4725,9.40254839 Z M0.758629032,20.4032258 C0.946709677,18.3261774 2.69730645,16.6935484 4.82258065,16.6935484 L11.1123387,16.6935484 C10.9242581,18.7705968 9.17366129,20.4032258 7.0483871,20.4032258 L0.758629032,20.4032258 Z M9.40254839,20.5275 C10.8734355,19.7006129 11.8709677,18.1265968 11.8709677,16.3225806 L11.8709677,15.9516129 L11.8709677,11.8709677 L15.9516129,11.8709677 L15.9516129,18.1774194 C15.9516129,18.4656613 15.9816613,18.7461129 16.0302581,19.020629 L14.3026613,17.8687742 L13.8912581,18.4860645 L15.7627903,19.733629 C14.4495645,20.4147258 12.9905484,20.7741935 11.5,20.7741935 C10.7895968,20.7741935 10.0884677,20.6866452 9.40254839,20.5275 Z M20.4032258,22.241371 C18.3261774,22.0532903 16.6935484,20.3026935 16.6935484,18.1774194 L16.6935484,11.8876613 C18.7705968,12.0757419 20.4032258,13.8263387 20.4032258,15.9516129 L20.4032258,22.241371 Z M20.5275,13.5974516 C19.7006129,12.1265645 18.1265968,11.1290323 16.3225806,11.1290323 L15.9516129,11.1290323 L11.8709677,11.1290323 L11.8709677,7.0483871 L18.1774194,7.0483871 C18.4656613,7.0483871 18.7461129,7.01833871 19.020629,6.96974194 L17.8687742,8.69733871 L18.4860645,9.10874194 L19.733629,7.23720968 C20.4147258,8.55043548 20.7741935,10.0094516 20.7741935,11.5 C20.7741935,12.2104032 20.6866452,12.9115323 20.5275,13.5974516 Z M18.1774194,6.30645161 L11.8876613,6.30645161 C12.0757419,4.22940323 13.8263387,2.59677419 15.9516129,2.59677419 L22.241371,2.59677419 C22.0532903,4.67382258 20.3026935,6.30645161 18.1774194,6.30645161 Z" id="Shape"></path>
            </g>
        </g>
    </g>
</svg>