<?xml version="1.0" encoding="UTF-8"?>
<svg width="36px" height="39px" viewBox="0 0 36 39" version="1.1" xmlns="http://www.w3.org/2000/svg" xmlns:xlink="http://www.w3.org/1999/xlink">
    <!-- Generator: Sketch 44.1 (41455) - http://www.bohemiancoding.com/sketch -->
    <title>Communication</title>
    <desc>Created with Sketch.</desc>
    <defs></defs>
    <g id="Page-1" stroke="none" stroke-width="1" fill="none" fill-rule="evenodd">
        <g id="What-we-do" transform="translate(-935.000000, -2821.000000)" fill-rule="nonzero" stroke="#FFFFFF">
            <g id="Communication" transform="translate(935.000000, 2821.000000)">
                <g id="Group-3">
                    <g id="noun_1122702_cc" transform="translate(0.000000, 15.405405)" stroke-width="0.5" fill="#000000">
                        <g id="Group" transform="translate(0.312573, 0.000000)">
                            <path d="M17.7318449,0.488723206 C14.9320799,0.488723206 12.6413631,2.78359739 12.6413631,5.58844362 L12.6413631,5.71593663 C12.6413631,8.52078285 14.9320799,10.815657 17.7318449,10.815657 L17.8591069,10.815657 C20.6588719,10.815657 22.9495887,8.52078285 22.9495887,5.71593663 L22.9495887,5.58844362 C22.9495887,2.78359739 20.6588719,0.488723206 17.8591069,0.488723206 L17.7318449,0.488723206 L17.7318449,0.488723206 Z M21.2527615,5.58844362 L21.2527615,5.71593663 C21.2527615,7.58583411 19.7256169,9.11575023 17.8591069,9.11575023 L17.7318449,9.11575023 C15.8653349,9.11575023 14.3381904,7.58583411 14.3381904,5.71593663 L14.3381904,5.58844362 C14.3381904,3.71854613 15.8653349,2.18863001 17.7318449,2.18863001 L17.8591069,2.18863001 C19.7680376,2.18863001 21.2527615,3.71854613 21.2527615,5.58844362 Z" id="Shape"></path>
                            <path d="M23.2889542,7.79832246 C23.2889542,10.0082013 25.1130435,11.8356011 27.3189189,11.8356011 C29.5247944,11.8356011 31.3488837,10.0082013 31.3488837,7.79832246 C31.3488837,5.58844362 29.5247944,3.7610438 27.3189189,3.7610438 C25.1130435,3.7610438 23.2889542,5.58844362 23.2889542,7.79832246 Z M27.3189189,5.46095061 C28.5915394,5.46095061 29.6520564,6.52339236 29.6520564,7.79832246 C29.6520564,9.07325256 28.5915394,10.1356943 27.3189189,10.1356943 C26.0462985,10.1356943 24.9857814,9.07325256 24.9857814,7.79832246 C24.9857814,6.52339236 26.0038778,5.46095061 27.3189189,5.46095061 Z" id="Shape"></path>
                            <path d="M31.1792009,13.0255359 L30.7549941,13.0255359 C30.50047,13.0255359 30.2883666,13.1105312 30.1186839,13.2805219 C29.6096357,13.8329916 27.6582844,14.300466 26.4705053,14.300466 C26.3856639,14.300466 26.3432432,14.300466 26.2584019,14.3429637 C25.2403055,13.1105312 23.7555817,12.3030755 22.0587544,12.1755825 C21.8042303,12.1755825 21.5921269,12.2605778 21.4224442,12.4305685 C20.4467685,13.3655172 19.1741481,13.917987 17.8166863,13.917987 C16.4592244,13.917987 15.186604,13.4080149 14.2109283,12.4305685 C14.0412456,12.2605778 13.7867215,12.1755825 13.5746181,12.1755825 C11.8777908,12.3030755 10.393067,13.1105312 9.37497062,14.3429637 C9.33254994,14.3429637 9.24770858,14.300466 9.16286722,14.300466 C7.93266745,14.300466 6.02373678,13.8329916 5.47226792,13.2805219 C5.30258519,13.1105312 5.09048179,13.0255359 4.8359577,13.0255359 L4.41175088,13.0255359 C2.03619271,13.0255359 0.127262045,14.937931 0.127262045,17.3178006 L0.127262045,19.9101584 C0.127262045,20.3776328 0.509048179,20.7601118 0.975675676,20.7601118 L7.89024677,20.7601118 L7.89024677,21.6525629 C7.89024677,22.1200373 8.2720329,22.5025163 8.7386604,22.5025163 L26.8098707,22.5025163 C27.2764982,22.5025163 27.6582844,22.1200373 27.6582844,21.6525629 L27.6582844,20.7601118 L34.5728555,20.7601118 C35.039483,20.7601118 35.4212691,20.3776328 35.4212691,19.9101584 L35.4212691,17.3178006 C35.4636898,14.937931 33.5547591,13.0255359 31.1792009,13.0255359 Z M1.86650999,19.060205 L1.86650999,17.3178006 C1.86650999,15.8728798 3.01186839,14.7254427 4.45417156,14.7254427 L4.58143361,14.7254427 C5.55710928,15.4904007 7.25393655,15.8303821 8.39929495,15.9578751 C8.10235018,16.6803355 7.93266745,17.4452936 7.93266745,18.2527493 L7.93266745,19.060205 L1.86650999,19.060205 L1.86650999,19.060205 Z M26.0038778,20.7601118 L9.62949471,20.7601118 L9.62949471,18.2102516 C9.62949471,16.0428705 11.2414806,14.2154706 13.320094,13.8754893 C14.5502938,14.937931 16.1622797,15.5328984 17.8166863,15.5328984 C19.4710928,15.5328984 21.040658,14.937931 22.3132785,13.8754893 C24.4343126,14.2154706 26.0038778,16.0428705 26.0038778,18.2102516 L26.0038778,20.7601118 Z M33.7668625,19.060205 L27.7007051,19.060205 L27.7007051,18.2527493 C27.7007051,17.4452936 27.5310223,16.6803355 27.2340776,15.9578751 C28.379436,15.8303821 30.0762632,15.4904007 31.0519389,14.7254427 L31.1792009,14.7254427 C32.6215041,14.7254427 33.7668625,15.8728798 33.7668625,17.3178006 L33.7668625,19.060205 Z" id="Shape"></path>
                            <path d="M8.31445358,3.7610438 C6.10857814,3.7610438 4.28448884,5.58844362 4.28448884,7.79832246 C4.28448884,10.0082013 6.10857814,11.8356011 8.31445358,11.8356011 C10.520329,11.8356011 12.3444183,10.0082013 12.3444183,7.79832246 C12.3444183,5.58844362 10.5627497,3.7610438 8.31445358,3.7610438 Z M8.31445358,10.1356943 C7.04183314,10.1356943 5.9813161,9.07325256 5.9813161,7.79832246 C5.9813161,6.52339236 7.04183314,5.46095061 8.31445358,5.46095061 C9.58707403,5.46095061 10.6475911,6.52339236 10.6475911,7.79832246 C10.6475911,9.07325256 9.62949471,10.1356943 8.31445358,10.1356943 Z" id="Shape"></path>
                        </g>
                    </g>
                    <path d="M6.59083431,13.2592731 L7.52408931,13.2592731 L10.2814336,16.7865797 C10.4511163,16.999068 10.7056404,17.126561 10.9601645,17.126561 C10.9601645,17.126561 10.9601645,17.126561 11.0025852,17.126561 C11.2571093,17.126561 11.5116334,16.9565704 11.6813161,16.744082 L14.0144536,13.2592731 L21.7350176,13.2592731 C23.6015276,13.2592731 25.1286722,11.7293569 25.1286722,9.85945946 L25.1286722,3.78229264 C25.1286722,1.91239515 23.6015276,0.382479031 21.7350176,0.382479031 L6.59083431,0.382479031 C4.72432432,0.382479031 3.19717979,1.91239515 3.19717979,3.78229264 L3.19717979,9.90195713 C3.19717979,11.7718546 4.72432432,13.2592731 6.59083431,13.2592731 Z M4.89400705,3.78229264 C4.89400705,2.8473439 5.65757932,2.08238583 6.59083431,2.08238583 L21.6925969,2.08238583 C22.6258519,2.08238583 23.3894242,2.8473439 23.3894242,3.78229264 L23.3894242,9.90195713 C23.3894242,10.8369059 22.6258519,11.6018639 21.6925969,11.6018639 L13.5054054,11.6018639 C13.2084606,11.6018639 12.9539365,11.7293569 12.7842538,11.984343 L10.8753231,14.8741845 L8.62702703,11.8993476 C8.4573443,11.6868593 8.20282021,11.5593663 7.94829612,11.5593663 L6.59083431,11.5593663 C5.65757932,11.5593663 4.89400705,10.7944082 4.89400705,9.85945946 L4.89400705,3.78229264 Z" id="Shape" stroke-width="0.3" fill="#30D6C7"></path>
                    <path d="M7.94829612,5.94967381 L19.1049354,5.94967381 C19.5715629,5.94967381 19.953349,5.56719478 19.953349,5.09972041 C19.953349,4.63224604 19.5715629,4.24976701 19.1049354,4.24976701 L7.94829612,4.24976701 C7.48166863,4.24976701 7.09988249,4.63224604 7.09988249,5.09972041 C7.09988249,5.56719478 7.48166863,5.94967381 7.94829612,5.94967381 Z" id="Shape" stroke-width="0.3" fill="#30D6C7"></path>
                    <path d="M7.94829612,9.39198509 L15.2446533,9.39198509 C15.7112808,9.39198509 16.093067,9.00950606 16.093067,8.54203169 C16.093067,8.07455732 15.7112808,7.69207829 15.2446533,7.69207829 L7.94829612,7.69207829 C7.48166863,7.69207829 7.09988249,8.07455732 7.09988249,8.54203169 C7.09988249,9.00950606 7.48166863,9.39198509 7.94829612,9.39198509 Z" id="Shape" stroke-width="0.3" fill="#30D6C7"></path>
                </g>
            </g>
        </g>
    </g>
</svg>