<?xml version="1.0" encoding="UTF-8"?>
<svg width="35px" height="39px" viewBox="0 0 35 39" version="1.1" xmlns="http://www.w3.org/2000/svg" xmlns:xlink="http://www.w3.org/1999/xlink">
    <!-- Generator: Sketch 44.1 (41455) - http://www.bohemiancoding.com/sketch -->
    <title>noun_995717_cc</title>
    <desc>Created with Sketch.</desc>
    <defs></defs>
    <g id="Page-1" stroke="none" stroke-width="1" fill="none" fill-rule="evenodd">
        <g id="Hardware-Design-And-Development-" transform="translate(-145.000000, -426.000000)" fill-rule="nonzero">
            <g id="noun_995717_cc" transform="translate(145.000000, 426.000000)">
                <g id="Group">
                    <path d="M19.0423729,17.7 C18.6271186,17.34 18.0338983,17.1 17.3813559,17.1 C16.9661017,17.1 16.6101695,16.98 16.3135593,16.74 C16.0762712,16.5 15.8983051,16.2 15.8983051,15.9 C15.8983051,15.6 16.0169492,15.3 16.3135593,15.06 C16.9067797,14.58 17.9152542,14.58 18.4491525,15.06 C18.6864407,15.3 18.8644068,15.6 18.8644068,15.9 L19.7542373,15.9 C19.7542373,15.3 19.5169492,14.76 19.0423729,14.34 C18.6864407,14.04 18.2711864,13.86 17.8559322,13.8 L17.8559322,12.42 L16.9661017,12.42 L16.9661017,13.8 C16.4915254,13.86 16.0762712,14.04 15.779661,14.34 C15.3050847,14.76 15.0677966,15.3 15.0677966,15.9 C15.0677966,16.5 15.3050847,17.04 15.779661,17.46 C16.1949153,17.82 16.7881356,18.06 17.440678,18.06 C17.8559322,18.06 18.2118644,18.18 18.5084746,18.42 C18.7457627,18.66 18.9237288,18.96 18.9237288,19.26 C18.9237288,19.56 18.8050847,19.86 18.5084746,20.1 C17.9152542,20.58 16.9067797,20.58 16.3728814,20.1 C16.0169492,19.8 15.8983051,19.5 15.8983051,19.2 L15.0084746,19.2 C15.0084746,19.8 15.2457627,20.34 15.720339,20.76 C16.0762712,21.06 16.4915254,21.24 16.9067797,21.3 L16.9067797,22.68 L17.7966102,22.68 L17.7966102,21.3 C18.2711864,21.24 18.6864407,21 18.9830508,20.76 C19.4576271,20.34 19.6949153,19.8 19.6949153,19.2 C19.7542373,18.6 19.5169492,18.06 19.0423729,17.7 Z" id="Shape" fill="#30D6C7"></path>
                    <path d="M16.6101695,10.32 L16.4915254,9.42 C16.1949153,9.48 15.8389831,9.48 15.5423729,9.6 L15.720339,10.5 C16.0169492,10.44 16.3135593,10.38 16.6101695,10.32 Z" id="Shape" fill="#000000"></path>
                    <path d="M10.5,15.6 L9.66949153,15.36 C9.61016949,15.66 9.55084746,15.96 9.49152542,16.32 L10.3813559,16.44 C10.3813559,16.2 10.3813559,15.9 10.5,15.6 Z" id="Shape" fill="#000000"></path>
                    <path d="M18.9237288,9.54 C18.6271186,9.48 18.2711864,9.42 17.9745763,9.42 L17.9152542,10.32 C18.2118644,10.32 18.4491525,10.38 18.7457627,10.44 L18.9237288,9.54 Z" id="Shape" fill="#000000"></path>
                    <path d="M12.7542373,12 L12.1610169,11.34 C11.9237288,11.52 11.6864407,11.76 11.5084746,12 L12.1610169,12.6 C12.3389831,12.42 12.5169492,12.18 12.7542373,12 Z" id="Shape" fill="#000000"></path>
                    <path d="M11.3305085,13.68 L10.559322,13.2 C10.3813559,13.44 10.2627119,13.74 10.0847458,14.04 L10.9152542,14.4 C11.0338983,14.16 11.2118644,13.92 11.3305085,13.68 Z" id="Shape" fill="#000000"></path>
                    <path d="M23.9067797,20.46 L24.7372881,20.82 C24.8559322,20.52 24.9745763,20.22 25.0932203,19.92 L24.2627119,19.68 C24.1440678,19.92 24.0254237,20.16 23.9067797,20.46 Z" id="Shape" fill="#000000"></path>
                    <path d="M23.0762712,11.76 C22.8389831,11.52 22.6016949,11.34 22.3644068,11.1 L21.8305085,11.82 C22.0677966,12 22.2457627,12.18 22.4830508,12.36 L23.0762712,11.76 Z" id="Shape" fill="#000000"></path>
                    <path d="M22.779661,22.26 L23.4322034,22.86 C23.6694915,22.62 23.8474576,22.38 24.0254237,22.08 L23.3135593,21.6 C23.1355932,21.84 22.9576271,22.02 22.779661,22.26 Z" id="Shape" fill="#000000"></path>
                    <path d="M24.5,17.52 C24.5,17.82 24.5,18.12 24.440678,18.36 L25.3305085,18.48 C25.3898305,18.18 25.3898305,17.82 25.3898305,17.52 L25.1525424,17.52 L24.5,17.52 Z" id="Shape" fill="#000000"></path>
                    <path d="M10.2627119,17.76 L9.37288136,17.82 C9.37288136,18.12 9.43220339,18.48 9.43220339,18.78 L10.3220339,18.66 C10.2627119,18.36 10.2627119,18.06 10.2627119,17.76 Z" id="Shape" fill="#000000"></path>
                    <path d="M24.3813559,16.2 L25.2711864,16.02 C25.2118644,15.72 25.1525424,15.42 25.0338983,15.06 L24.2033898,15.3 C24.2627119,15.66 24.3813559,15.9 24.3813559,16.2 Z" id="Shape" fill="#000000"></path>
                    <path d="M24.5,13.74 C24.3813559,13.44 24.2033898,13.2 24.0254237,12.9 L23.3135593,13.44 C23.4915254,13.68 23.6101695,13.92 23.7288136,14.16 L24.5,13.74 Z" id="Shape" fill="#000000"></path>
                    <path d="M19.220339,24.54 L19.4576271,25.44 C19.7542373,25.38 20.0508475,25.26 20.3474576,25.14 L20.0508475,24.3 C19.7542373,24.36 19.4576271,24.42 19.220339,24.54 Z" id="Shape" fill="#000000"></path>
                    <path d="M20.2881356,9.96 L19.9915254,10.8 C20.2288136,10.92 20.5254237,11.04 20.7627119,11.16 L21.1779661,10.38 C20.8813559,10.2 20.5847458,10.08 20.2881356,9.96 Z" id="Shape" fill="#000000"></path>
                    <path d="M17.0847458,24.72 L17.0254237,25.62 C17.1440678,25.62 17.2627119,25.62 17.3813559,25.62 C17.559322,25.62 17.7966102,25.62 17.9745763,25.62 L17.9152542,24.72 C17.6186441,24.72 17.3813559,24.78 17.0847458,24.72 Z" id="Shape" fill="#000000"></path>
                    <path d="M14.7118644,25.2 C15.0084746,25.32 15.3050847,25.38 15.6016949,25.44 L15.779661,24.54 C15.4830508,24.48 15.2457627,24.42 14.9491525,24.3 L14.7118644,25.2 Z" id="Shape" fill="#000000"></path>
                    <path d="M21.1779661,23.64 L21.6525424,24.42 C21.9491525,24.24 22.1864407,24.06 22.4237288,23.88 L21.8898305,23.16 C21.5932203,23.34 21.4152542,23.52 21.1779661,23.64 Z" id="Shape" fill="#000000"></path>
                    <path d="M13.3474576,10.5 L13.8220339,11.28 C14.059322,11.16 14.2966102,10.98 14.5932203,10.92 L14.2372881,10.08 C13.8813559,10.2 13.6440678,10.32 13.3474576,10.5 Z" id="Shape" fill="#000000"></path>
                    <path d="M10.6186441,19.86 L9.78813559,20.16 C9.90677966,20.46 10.0254237,20.76 10.1440678,21.06 L10.9152542,20.64 C10.7966102,20.4 10.7372881,20.16 10.6186441,19.86 Z" id="Shape" fill="#000000"></path>
                    <path d="M10.9152542,22.32 C11.0932203,22.56 11.3305085,22.8 11.5084746,23.04 L12.1610169,22.44 C11.9830508,22.26 11.8050847,22.02 11.6271186,21.78 L10.9152542,22.32 Z" id="Shape" fill="#000000"></path>
                    <path d="M12.5762712,24.06 C12.8135593,24.24 13.1101695,24.42 13.3474576,24.6 L13.8220339,23.82 C13.5847458,23.7 13.3474576,23.52 13.1101695,23.34 L12.5762712,24.06 Z" id="Shape" fill="#000000"></path>
                    <path d="M26.6355932,23.52 C26.6949153,23.4 26.8135593,23.22 26.9322034,23.04 C27.940678,21.24 28.4152542,19.14 28.3559322,17.04 C28.059322,11.46 23.7288136,7.02 18.2118644,6.6 C11.8644068,6.18 6.52542373,11.28 6.52542373,17.64 C6.52542373,18.9 6.76271186,20.16 7.1779661,21.42 L8.06779661,23.22 C8.18644068,23.46 8.36440678,23.7 8.48305085,24 L8.54237288,24.06 C9.78813559,26.34 10.7966102,28.8 11.5084746,31.44 L9.43220339,31.44 L9.43220339,32.34 L11.7457627,32.34 C11.8644068,32.7 11.9237288,33.12 11.9830508,33.48 L10.1440678,33.48 L10.1440678,34.38 L12.1016949,34.38 C12.1610169,34.68 12.1610169,34.98 12.220339,35.28 C12.3389831,36.06 12.9915254,36.66 13.7627119,36.72 C14,37.98 15.4237288,38.94 17.2627119,38.94 C19.0423729,38.94 20.5254237,37.98 20.7627119,36.72 L20.940678,36.72 C21.7711864,36.72 22.4237288,36.12 22.5423729,35.28 C22.5423729,35.16 22.6016949,35.04 22.6016949,34.92 C22.6016949,34.74 22.6610169,34.56 22.720339,34.38 L24.6779661,34.38 L24.6779661,33.48 L22.8983051,33.48 C22.9576271,33.12 23.0762712,32.7 23.1355932,32.34 L25.3898305,32.34 L25.3898305,31.44 L23.3728814,31.44 C24.1440678,28.62 25.2711864,25.92 26.6355932,23.52 Z M9.31355932,23.52 L9.31355932,23.52 C9.13559322,23.22 9.01694915,22.98 8.89830508,22.74 L8.00847458,21 C7.59322034,19.92 7.41525424,18.72 7.41525424,17.58 C7.41525424,11.76 12.279661,7.08 18.0932203,7.5 C23.1355932,7.86 27.1101695,11.94 27.4067797,17.04 C27.5254237,18.96 27.0508475,20.88 26.1610169,22.5 L26.1016949,22.62 C25.9830508,22.74 25.9237288,22.92 25.8644068,23.04 C24.3813559,25.56 23.2542373,28.44 22.4830508,31.38 L12.4576271,31.38 C11.6864407,28.62 10.6779661,25.98 9.31355932,23.52 Z M17.3220339,38.04 C16.0762712,38.04 15.0084746,37.5 14.7711864,36.72 L19.8728814,36.72 C19.6355932,37.44 18.5677966,38.04 17.3220339,38.04 Z M21.7711864,34.8 C21.7711864,34.92 21.7118644,35.04 21.7118644,35.22 C21.6525424,35.58 21.3559322,35.88 21,35.88 L13.8813559,35.88 C13.5254237,35.88 13.1694915,35.58 13.1694915,35.22 C13.1101695,34.92 13.1101695,34.68 13.0508475,34.44 L21.8305085,34.44 C21.8305085,34.5 21.7711864,34.62 21.7711864,34.8 Z M22.0084746,33.48 L12.8728814,33.48 C12.8135593,33.12 12.6949153,32.7 12.6355932,32.34 L22.2457627,32.34 C22.1864407,32.7 22.0677966,33.12 22.0084746,33.48 Z" id="Shape" fill="#000000"></path>
                    <rect id="Rectangle-path" fill="#30D6C7" transform="translate(12.317335, 4.696709) rotate(67.504865) translate(-12.317335, -4.696709) " x="11.1304997" y="4.19671039" width="2.37285047" height="1"></rect>
                    <rect id="Rectangle-path" fill="#30D6C7" transform="translate(4.896740, 12.195249) rotate(22.500428) translate(-4.896740, -12.195249) " x="3.70986293" y="11.69525" width="2.37294127" height="1"></rect>
                    <rect id="Rectangle-path" fill="#30D6C7" transform="translate(4.828340, 22.768807) rotate(-22.495135) translate(-4.828340, -22.768807) " x="3.64231643" y="22.268808" width="2.37285047" height="1"></rect>
                    <rect id="Rectangle-path" fill="#30D6C7" transform="translate(30.089577, 22.881608) rotate(-157.499572) translate(-30.089577, -22.881608) " x="28.903512" y="22.3816099" width="2.37294127" height="1"></rect>
                    <rect id="Rectangle-path" fill="#30D6C7" transform="translate(30.168363, 12.286202) rotate(157.499572) translate(-30.168363, -12.286202) " x="28.9814865" y="11.7862039" width="2.37294127" height="1"></rect>
                    <rect id="Rectangle-path" fill="#30D6C7" transform="translate(22.861216, 4.813364) rotate(22.513208) translate(-22.861216, -4.813364) " x="22.3612173" y="3.61381163" width="1" height="2.40002262"></rect>
                    <rect id="Rectangle-path" fill="#30D6C7" x="17.1440678" y="0.06" width="1" height="4.86"></rect>
                    <rect id="Rectangle-path" fill="#30D6C7" transform="translate(7.053271, 6.857256) rotate(45.000000) translate(-7.053271, -6.857256) " x="4.65075165" y="6.35725639" width="4.80503866" height="1"></rect>
                    <rect id="Rectangle-path" fill="#30D6C7" x="0.237288136" y="16.98" width="4.80508475" height="1"></rect>
                    <rect id="Rectangle-path" fill="#30D6C7" transform="translate(6.871190, 28.038642) rotate(-135.016206) translate(-6.871190, -28.038642) " x="6.37119035" y="25.6086511" width="1" height="4.85995359"></rect>
                    <rect id="Rectangle-path" fill="#30D6C7" transform="translate(27.973993, 28.193496) rotate(-135.000000) translate(-27.973993, -28.193496) " x="25.5714741" y="27.6934956" width="4.80503866" height="1"></rect>
                    <rect id="Rectangle-path" fill="#30D6C7" x="29.9576271" y="17.16" width="4.80508475" height="1"></rect>
                    <rect id="Rectangle-path" fill="#30D6C7" transform="translate(28.114037, 7.029487) rotate(45.016206) translate(-28.114037, -7.029487) " x="27.6140369" y="4.5995249" width="1" height="4.85995359"></rect>
                </g>
            </g>
        </g>
    </g>
</svg>