<?xml version="1.0" encoding="UTF-8"?>
<svg width="53px" height="48px" viewBox="0 0 53 48" version="1.1" xmlns="http://www.w3.org/2000/svg" xmlns:xlink="http://www.w3.org/1999/xlink">
    <!-- Generator: Sketch 44.1 (41455) - http://www.bohemiancoding.com/sketch -->
    <title>contact_icon</title>
    <desc>Created with Sketch.</desc>
    <defs></defs>
    <g id="Page-1" stroke="none" stroke-width="1" fill="none" fill-rule="evenodd">
        <g id="menu" transform="translate(-983.000000, -485.000000)" stroke-width="0.4" stroke="#543E6A" fill="#30D6C7" fill-rule="nonzero">
            <g id="contact_icon" transform="translate(983.000000, 486.000000)">
                <g id="noun_982973_cc">
                    <g id="Group">
                        <path d="M52.0601946,45.3918062 L49.5401601,38.8970492 C49.5401601,38.8964557 49.5401601,38.8964557 49.5389731,38.8952687 L43.3789545,23.0201193 C43.2839932,22.774407 43.0477771,22.6129728 42.7842596,22.6129728 L32.4797753,22.6129728 L35.7535649,16.0731092 C36.6313631,14.4973458 37.0942993,12.7031714 37.0942993,10.8840696 C37.0942993,4.97985298 32.2904463,0.176 26.3862297,0.176 C20.4814195,0.176 15.6781601,4.97985298 15.6781601,10.8840696 C15.6781601,12.7055454 16.1422832,14.5015003 17.0212684,16.0784508 L20.2920905,22.6123793 L9.98641924,22.6123793 C9.72349524,22.6123793 9.4878726,22.7738135 9.39231783,23.0195258 L0.710484192,45.3918062 C0.63451518,45.5876639 0.66003602,45.8090423 0.778737601,45.9829401 C0.897439182,46.1562444 1.09448381,46.2601083 1.30458561,46.2601083 L40.4505865,46.2601083 C40.45118,46.2601083 40.4517735,46.2601083 40.4517735,46.2601083 C40.452367,46.2601083 40.4529605,46.2601083 40.453554,46.2601083 L51.4666867,46.2601083 C51.677382,46.2601083 51.8744267,46.1562444 51.9931282,45.9829401 C52.1112363,45.8090423 52.1361637,45.5876639 52.0601946,45.3918062 Z M26.3856362,1.45085498 C31.5871395,1.45085498 35.8194443,5.68256634 35.8194443,10.8846631 C35.8194443,12.4948501 35.4081433,14.0812967 34.6253064,15.4796013 C34.6235259,15.4837559 34.6223389,15.488504 34.6199648,15.492065 C34.6181843,15.495626 34.6158103,15.4980001 34.6140298,15.5015611 L30.8755235,22.9684841 L26.3856362,32.0527161 L21.8933748,22.9655165 L18.155462,15.4991871 C18.150714,15.4902845 18.1465594,15.4819754 18.1418114,15.4730727 C17.3637225,14.0812967 16.951828,12.4948501 16.951828,10.8846631 C16.951828,5.68315985 21.1841329,1.45085498 26.3856362,1.45085498 Z M10.422054,23.8884213 L20.927144,23.8884213 L25.8140881,33.773889 C25.921513,33.9911129 26.1434849,34.1294002 26.3856362,34.1294002 C26.6277874,34.1294002 26.8497594,33.9917064 26.9565908,33.773889 L31.8435349,23.8884213 L35.8325015,23.8884213 L37.7798009,32.3025829 L29.9971318,32.3025829 C29.7015648,32.3025829 29.4445759,32.5049691 29.376916,32.7916334 L28.2189821,37.6566177 L18.4243211,37.6566177 L20.7532462,29.2857822 C20.8066619,29.0946727 20.7674903,28.8881319 20.6464147,28.7296653 C20.5259326,28.5706052 20.3377906,28.4774245 20.1389655,28.4774245 L8.64153033,28.4774245 L10.422054,23.8884213 Z M8.14654474,29.7522794 L19.2997453,29.7522794 L16.9714138,38.1231149 C16.9179981,38.314818 16.9571696,38.5213587 17.0776517,38.6798253 C17.1981338,38.838292 17.3862758,38.9314727 17.585101,38.9314727 L28.7216833,38.9314727 C29.0172502,38.9314727 29.2736456,38.7290865 29.341899,38.4418287 L30.5004265,33.5774379 L38.5810366,33.5774379 C38.7757072,33.5774379 38.9591011,33.4890052 39.0795832,33.3370672 C39.2012524,33.1851292 39.2457655,32.9857105 39.2018459,32.7963815 L37.1399994,23.8890148 L42.3474378,23.8890148 L48.0201863,38.5077081 L38.5810366,38.5077081 C38.3810244,38.5077081 38.1922889,38.6014823 38.0718068,38.7617294 C37.9519182,38.9219766 37.9127467,39.1291108 37.96913,39.3214074 L39.6042442,44.9858468 L2.23579951,44.9858468 L8.14654474,29.7522794 Z M40.9313279,44.9852533 L39.4291594,39.781376 L48.5157654,39.781376 L50.5354728,44.9852533 L40.9313279,44.9852533 L40.9313279,44.9852533 Z" id="Shape"></path>
                        <path d="M26.3856362,18.1088414 C30.3686677,18.1088414 33.6092209,14.8682882 33.6092209,10.8852566 C33.6092209,6.90222509 30.3686677,3.66107842 26.3856362,3.66107842 C22.4020111,3.66107842 19.1614579,6.90163158 19.1614579,10.8852566 C19.1614579,14.8688817 22.4020111,18.1088414 26.3856362,18.1088414 Z M26.3856362,4.93533989 C29.6659544,4.93533989 32.3343659,7.60434494 32.3343659,10.8846631 C32.3343659,14.1649813 29.6659544,16.8339864 26.3856362,16.8339864 C23.105318,16.8339864 20.4363129,14.1649813 20.4363129,10.8846631 C20.4363129,7.60434494 23.105318,4.93533989 26.3856362,4.93533989 Z" id="Shape"></path>
                    </g>
                </g>
            </g>
        </g>
    </g>
</svg>