<?xml version="1.0" encoding="UTF-8"?>
<svg width="133px" height="119px" viewBox="0 0 133 119" version="1.1" xmlns="http://www.w3.org/2000/svg" xmlns:xlink="http://www.w3.org/1999/xlink">
    <!-- Generator: Sketch 44.1 (41455) - http://www.bohemiancoding.com/sketch -->
    <title>contact_icon</title>
    <desc>Created with Sketch.</desc>
    <defs></defs>
    <g id="Page-1" stroke="none" stroke-width="1" fill="none" fill-rule="evenodd">
        <g id="Contact-Us" transform="translate(-149.000000, -169.000000)" stroke-width="0.8" stroke="#543E6A" fill="#FFFFFF" fill-rule="nonzero">
            <g id="contact_icon" transform="translate(148.000000, 169.000000)">
                <g id="Group">
                    <path d="M132.919646,115.893973 L126.485515,99.3116151 C126.485515,99.3100997 126.485515,99.3100997 126.482484,99.3070691 L110.754777,58.7747726 C110.512323,58.1474221 109.909218,57.7352498 109.236407,57.7352498 L82.927086,57.7352498 L91.2856977,41.0377257 C93.5268846,37.0144998 94.7088493,32.433629 94.7088493,27.7891139 C94.7088493,12.7145183 82.4436927,0.449361702 67.3690971,0.449361702 C52.292986,0.449361702 40.0293448,12.7145183 40.0293448,27.7891139 C40.0293448,32.4396903 41.2143402,37.0251072 43.4585577,41.0513638 L51.8095928,57.7337345 L25.4972406,57.7337345 C24.8259453,57.7337345 24.2243556,58.1459068 23.9803859,58.7732573 L1.81400219,115.893973 C1.62003876,116.394035 1.68519835,116.959257 1.98826622,117.403251 C2.29133408,117.84573 2.79442674,118.110915 3.33085686,118.110915 L103.278093,118.110915 C103.279609,118.110915 103.281124,118.110915 103.281124,118.110915 C103.282639,118.110915 103.284155,118.110915 103.28567,118.110915 L131.404307,118.110915 C131.942252,118.110915 132.445345,117.84573 132.748413,117.403251 C133.049965,116.959257 133.113609,116.394035 132.919646,115.893973 Z M67.3675817,3.70431059 C80.6480156,3.70431059 91.4539004,14.50868 91.4539004,27.7906293 C91.4539004,31.9017449 90.4037702,35.9522469 88.4050377,39.5223864 C88.4004916,39.5329938 88.397461,39.5451165 88.3913996,39.5542085 C88.3868536,39.5633005 88.3807922,39.5693619 88.3762462,39.5784539 L78.8311238,58.6429381 L67.3675817,81.8367219 L55.8979783,58.6353614 L46.3543712,39.5723926 C46.3422485,39.5496625 46.3316411,39.5284477 46.3195184,39.5057177 C44.3329085,35.9522469 43.281263,31.9017449 43.281263,27.7906293 C43.281263,14.5101954 54.0871478,3.70431059 67.3675817,3.70431059 Z M26.6094997,60.991714 L53.4310059,60.991714 L65.9083099,86.231206 C66.1825864,86.7858202 66.7493233,87.1388942 67.3675817,87.1388942 C67.9858402,87.1388942 68.5525771,86.7873355 68.8253381,86.231206 L81.3026422,60.991714 L91.4872379,60.991714 L96.4590662,82.4746798 L76.5884215,82.4746798 C75.8337826,82.4746798 75.1776406,82.9914105 75.0048919,83.7233194 L72.0484649,96.1445559 L47.0408199,96.1445559 L52.9870114,74.7722099 C53.123392,74.2842707 53.0233796,73.7569326 52.7142504,73.352337 C52.4066365,72.946226 51.9262739,72.7083178 51.4186352,72.7083178 L22.0634817,72.7083178 L26.6094997,60.991714 Z M20.7996887,75.9632667 L49.2759454,75.9632667 L43.3312692,97.3356126 C43.1948887,97.8250672 43.2949011,98.3524053 43.602515,98.7570009 C43.9101288,99.1615965 44.3904914,99.3995048 44.8981301,99.3995048 L73.3319573,99.3995048 C74.0865963,99.3995048 74.7412229,98.8827741 74.9154869,98.1493498 L77.8734293,85.7296286 L98.5047743,85.7296286 C99.0018056,85.7296286 99.4700455,85.5038431 99.7776594,85.1159162 C100.088304,84.7279894 100.201954,84.2188353 100.089819,83.7354421 L94.8255304,60.9932294 L108.121118,60.9932294 L122.604731,98.3175525 L98.5047743,98.3175525 C97.994105,98.3175525 97.512227,98.5569761 97.2046132,98.9661177 C96.8985146,99.3752593 96.7985022,99.9041128 96.9424595,100.395083 L101.117219,114.857481 L5.70842428,114.857481 L20.7996887,75.9632667 Z M104.505518,114.855966 L100.670194,101.569471 L123.870039,101.569471 L129.026739,114.855966 L104.505518,114.855966 L104.505518,114.855966 Z" id="Shape"></path>
                    <path d="M67.3675817,46.2353396 C77.537024,46.2353396 85.8107767,37.9615869 85.8107767,27.7921446 C85.8107767,17.6227024 77.537024,9.34743426 67.3675817,9.34743426 C57.1966241,9.34743426 48.9228714,17.621187 48.9228714,27.7921446 C48.9228714,37.9631022 57.1966241,46.2353396 67.3675817,46.2353396 Z M67.3675817,12.6008678 C75.7428622,12.6008678 82.5558278,19.4153488 82.5558278,27.7906293 C82.5558278,36.1659098 75.7428622,42.9803907 67.3675817,42.9803907 C58.9923012,42.9803907 52.1778202,36.1659098 52.1778202,27.7906293 C52.1778202,19.4153488 58.9923012,12.6008678 67.3675817,12.6008678 Z" id="Shape"></path>
                </g>
            </g>
        </g>
    </g>
</svg>