<?xml version="1.0" encoding="UTF-8"?>
<svg width="33px" height="32px" viewBox="0 0 33 32" version="1.1" xmlns="http://www.w3.org/2000/svg" xmlns:xlink="http://www.w3.org/1999/xlink">
    <!-- Generator: Sketch 44.1 (41455) - http://www.bohemiancoding.com/sketch -->
    <title>Customer  Support</title>
    <desc>Created with Sketch.</desc>
    <defs></defs>
    <g id="Page-1" stroke="none" stroke-width="1" fill="none" fill-rule="evenodd">
        <g id="What-we-do" transform="translate(-144.000000, -1614.000000)" fill-rule="nonzero">
            <g id="Customer--Support" transform="translate(144.000000, 1614.000000)">
                <g id="noun_654305_cc">
                    <g id="Group">
                        <path d="M16.70625,31.8451613 C16.603125,31.8451613 16.5515625,31.8451613 16.4484375,31.8451613 C16.396875,31.8451613 16.3453125,31.8451613 16.29375,31.8451613 C14.540625,31.8451613 12.7875,31.1225806 11.446875,29.8322581 L11.240625,29.6258065 C9.9515625,28.3354839 9.075,27.0451613 8.4046875,25.6 C6.9609375,22.4 6.2390625,19.1483871 6.2390625,15.9483871 C6.2390625,15.7935484 6.2390625,15.6903226 6.2390625,15.5870968 L6.2390625,15.483871 C6.2390625,15.1741935 6.2390625,14.8645161 6.2390625,14.5032258 C6.39375,12.6451613 6.9609375,11.0451613 7.8375,9.70322581 C8.8171875,8.25806452 10.1578125,7.17419355 11.8078125,6.50322581 C13.2,5.93548387 14.7984375,5.62580645 16.4484375,5.62580645 C18.15,5.62580645 19.696875,5.93548387 21.0890625,6.50322581 C24.3375,7.79354839 26.296875,10.6322581 26.6578125,14.5032258 C26.709375,14.8645161 26.6578125,15.1741935 26.6578125,15.483871 L26.6578125,15.5870968 C26.6578125,15.7419355 26.6578125,15.8451613 26.6578125,16 C26.6578125,16.3612903 26.3484375,16.6193548 25.9875,16.6193548 C25.6265625,16.6193548 25.3171875,16.3096774 25.3171875,16 C25.3171875,15.8451613 25.3171875,15.6903226 25.3171875,15.5870968 L25.3171875,15.483871 C25.3171875,15.2258065 25.3171875,14.916129 25.3171875,14.6580645 C25.0078125,11.3032258 23.30625,8.87741935 20.521875,7.74193548 C19.284375,7.22580645 17.840625,6.96774194 16.3453125,6.96774194 C14.85,6.96774194 13.4578125,7.27741935 12.16875,7.74193548 C10.7765625,8.30967742 9.6421875,9.23870968 8.8171875,10.4258065 C8.04375,11.6129032 7.5796875,13.0064516 7.425,14.6580645 C7.425,14.916129 7.425,15.2258065 7.425,15.483871 L7.425,15.5870968 C7.425,15.6903226 7.425,15.8451613 7.425,16 C7.425,19.0451613 8.146875,22.0903226 9.4875,25.1354839 C10.0546875,26.3741935 10.8796875,27.5612903 12.065625,28.7483871 L12.375,28.9032258 C13.4578125,29.9870968 14.85,30.5548387 16.29375,30.5548387 C16.3453125,30.5548387 16.3453125,30.5548387 16.396875,30.5548387 L16.4484375,30.5548387 L16.5515625,30.5548387 C16.603125,30.5548387 16.6546875,30.5548387 16.7578125,30.5548387 C18.2015625,30.5548387 19.59375,29.9870968 20.6765625,28.9032258 C20.934375,28.6451613 21.346875,28.6451613 21.6046875,28.9032258 C21.8625,29.1612903 21.8625,29.5741935 21.6046875,29.8322581 C20.2125,31.1225806 18.459375,31.8451613 16.70625,31.8451613 Z" id="Shape" fill="#000000"></path>
                        <path d="M9.590625,16.5677419 C10.415625,16.7225806 10.5703125,16.7225806 11.3953125,16.7225806 L11.55,16.7225806 C14.64375,16.7225806 17.7375,15.7935484 20.2640625,14.1419355 L20.625,13.9354839 L20.83125,14.2967742 C21.140625,14.8645161 21.65625,15.3806452 22.2234375,15.6387097 C22.5328125,15.7935484 22.9453125,15.9483871 23.30625,15.9483871 C23.615625,15.9483871 23.615625,15.8451613 23.615625,15.7419355 C23.615625,15.5870968 23.5125,15.483871 23.3578125,15.483871 C22.996875,15.4322581 22.6875,15.3806452 22.3265625,15.1741935 C21.65625,14.8129032 21.1921875,14.2451613 21.0375,13.4709677 L20.934375,13.1096774 L20.625,13.2645161 C18.046875,15.1741935 14.85,16.2064516 11.55,16.2064516 L11.240625,16.2064516 C10.621875,16.2064516 10.415625,16.2064516 9.69375,16.0516129 L9.590625,16.0516129 C9.4875,16.0516129 9.384375,16.1548387 9.384375,16.2580645 C9.384375,16.4129032 9.4359375,16.5677419 9.590625,16.5677419 Z" id="Shape" fill="#000000"></path>
                        <path d="M32.4328125,13.5225806 L32.38125,13.1612903 C32.3296875,12.7483871 32.2265625,12.2322581 31.96875,11.8709677 L31.865625,11.716129 L31.7109375,11.6645161 C31.6078125,11.6129032 31.35,11.5612903 31.246875,11.5096774 L31.14375,11.5096774 C31.040625,11.5096774 30.9890625,11.4580645 30.8859375,11.4580645 C30.7828125,11.2 30.2671875,9.80645161 30.2671875,9.75483871 C28.7203125,5.88387097 26.090625,3.04516129 22.4296875,1.39354839 C20.6765625,0.619354839 18.8203125,0.206451613 16.9125,0.206451613 L15.984375,0.206451613 C14.0765625,0.206451613 12.271875,0.619354839 10.4671875,1.39354839 C6.909375,2.99354839 4.2796875,5.83225806 2.68125,9.70322581 L2.5265625,10.116129 L2.5265625,10.116129 C2.371875,10.5290323 2.165625,11.2 2.0625,11.3548387 C2.0109375,11.3548387 1.9078125,11.4064516 1.8046875,11.4580645 L1.7015625,11.4580645 C1.4953125,11.5096774 1.340625,11.5612903 1.2375,11.6129032 L1.0828125,11.6645161 L1.03125,11.8709677 C0.7734375,12.2322581 0.6703125,12.7483871 0.61875,13.1612903 C0.61875,13.316129 0.5671875,13.4709677 0.5671875,13.5741935 C0.4125,14.3483871 0.3609375,15.1225806 0.4640625,15.8451613 C0.515625,16.8774194 0.6703125,17.7548387 0.9796875,18.5806452 L1.03125,18.683871 C1.2375,19.3548387 1.65,20.5419355 2.578125,20.5419355 L2.578125,20.5419355 C2.7328125,20.5419355 2.9390625,20.4903226 3.196875,20.4903226 L4.846875,20.2322581 C5.2078125,20.1806452 5.465625,19.8709677 5.4140625,19.5096774 C5.3625,19.1483871 5.053125,18.8903226 4.6921875,18.9419355 L3.0421875,19.2 C2.8875,19.2 2.784375,19.2516129 2.6296875,19.2516129 C2.5265625,19.1483871 2.4234375,18.8903226 2.2171875,18.2709677 L2.165625,18.1677419 C1.9078125,17.4451613 1.753125,16.6193548 1.7015625,15.7935484 C1.65,15.1741935 1.7015625,14.5032258 1.8046875,13.8322581 C1.8046875,13.6774194 1.85625,13.5225806 1.85625,13.3677419 C1.85625,13.2129032 1.9078125,12.9548387 1.959375,12.7483871 C2.0109375,12.7483871 2.0625,12.7483871 2.0625,12.6967742 L2.165625,12.6967742 C2.6296875,12.5935484 3.09375,12.4387097 3.3,11.8709677 C3.609375,10.9935484 3.815625,10.5290323 3.91875,10.1677419 C5.3109375,6.60645161 7.734375,4.02580645 11.0859375,2.52903226 C12.684375,1.80645161 14.3859375,1.44516129 16.0875,1.44516129 L17.015625,1.44516129 C18.7171875,1.44516129 20.3671875,1.80645161 22.0171875,2.52903226 C25.36875,4.02580645 27.740625,6.60645161 29.184375,10.1677419 C29.184375,10.1677419 29.803125,11.8709677 29.803125,11.8709677 C30.009375,12.4903226 30.4734375,12.5935484 30.8859375,12.6967742 L30.9890625,12.6967742 C31.040625,12.6967742 31.040625,12.6967742 31.0921875,12.7483871 C31.14375,12.9032258 31.1953125,13.2129032 31.246875,13.3677419 L31.2984375,13.7290323 C31.453125,14.4 31.453125,15.0193548 31.4015625,15.6903226 C31.35,16.5677419 31.1953125,17.3935484 30.9375,18.1677419 L30.8859375,18.3225806 C30.73125,18.7870968 30.5765625,19.0967742 30.4734375,19.2516129 C30.3703125,19.2516129 30.215625,19.2 30.0609375,19.2 L27.6890625,18.9419355 C27.1734375,18.8903226 26.709375,18.9935484 26.2453125,19.2 C25.678125,19.5096774 25.265625,19.9741935 25.059375,20.5419355 C24.8015625,21.1612903 24.54375,21.7290323 24.234375,22.2967742 C23.9765625,22.8129032 23.71875,23.3290323 23.2546875,23.7419355 C22.89375,24.0516129 22.4296875,24.1548387 21.8625,24.1548387 L21.8625,24.1548387 C21.8625,24.1548387 21.8109375,24.1548387 21.759375,24.1548387 L21.759375,23.8967742 C21.759375,22.7096774 20.83125,21.7806452 19.6453125,21.7806452 L16.2421875,21.7806452 C15.05625,21.7806452 14.128125,22.7096774 14.128125,23.8967742 L14.128125,24.1548387 L14.128125,24.7741935 L14.128125,25.4967742 C14.128125,26.683871 15.05625,27.6129032 16.2421875,27.6129032 L19.6453125,27.6129032 C20.83125,27.6129032 21.759375,26.683871 21.759375,25.4967742 L21.759375,25.4451613 C22.48125,25.3935484 23.409375,25.2903226 24.0796875,24.7225806 C24.5953125,24.3096774 24.95625,23.7935484 25.2140625,23.2258065 C25.5234375,22.5548387 25.884375,21.9870968 26.1421875,21.2645161 C26.2453125,21.0064516 26.296875,20.8 26.503125,20.5935484 C26.7609375,20.283871 27.1734375,20.1290323 27.5859375,20.1806452 L29.9578125,20.4387097 C30.1640625,20.4387097 30.3703125,20.4903226 30.525,20.4903226 L30.5765625,20.4903226 C31.453125,20.4903226 31.865625,19.3548387 32.071875,18.683871 L32.1234375,18.5290323 C32.4328125,17.6516129 32.5875,16.7225806 32.690625,15.7419355 C32.6390625,15.0709677 32.5875,14.2967742 32.4328125,13.5225806 Z M20.315625,25.4967742 C20.315625,25.9612903 19.9546875,26.3225806 19.490625,26.3225806 L16.0875,26.3225806 C15.6234375,26.3225806 15.2625,25.9612903 15.2625,25.4967742 L15.2625,25.4451613 L15.2625,24.1548387 L15.2625,23.8967742 C15.2625,23.4322581 15.6234375,23.0709677 16.0875,23.0709677 L19.490625,23.0709677 C19.9546875,23.0709677 20.315625,23.4322581 20.315625,23.8967742 L20.315625,24.1548387 L20.315625,25.4967742 L20.315625,25.4967742 Z" id="Shape" fill="#30D6C7"></path>
                    </g>
                </g>
            </g>
        </g>
    </g>
</svg>