<?xml version="1.0" encoding="UTF-8"?>
<svg width="34px" height="37px" viewBox="0 0 34 37" version="1.1" xmlns="http://www.w3.org/2000/svg" xmlns:xlink="http://www.w3.org/1999/xlink">
    <!-- Generator: Sketch 44.1 (41455) - http://www.bohemiancoding.com/sketch -->
    <title>Data  Quality Check</title>
    <desc>Created with Sketch.</desc>
    <defs></defs>
    <g id="Page-1" stroke="none" stroke-width="1" fill="none" fill-rule="evenodd">
        <g id="Hardware-Design-And-Development-" transform="translate(-733.000000, -424.000000)" fill-rule="nonzero">
            <g id="Data--Quality-Check" transform="translate(733.000000, 424.000000)">
                <path d="M33.8284623,31.298386 L27.6175678,21.1209767 L29.9541709,19.8815628 C30.1325427,19.7869116 30.2186533,19.5776465 30.1586834,19.3836977 L29.3276482,16.6866558 L31.1200804,14.515014 C31.2492462,14.3589256 31.2492462,14.1322791 31.1200804,13.9761907 L29.3276482,11.8045488 L30.1586834,9.10750698 C30.2184824,8.91355814 30.1325427,8.70429302 29.9541709,8.60964186 L27.4733668,7.29347442 L27.2148643,4.48216279 C27.1964121,4.28012558 27.0373467,4.12007907 26.8367638,4.10149302 L24.0451759,3.84146047 L22.738995,1.34335814 C22.6450251,1.16403721 22.4374372,1.07730233 22.2448844,1.1371907 L19.5672563,1.97270233 L17.4110754,0.168651163 C17.2561106,0.0390651163 17.0312663,0.0390651163 16.8764724,0.168651163 L14.7197789,1.97270233 L12.0423216,1.1371907 C11.8499397,1.07713023 11.6421809,1.16386512 11.5483819,1.34335814 L10.2420302,3.84146047 L7.45129648,4.10149302 C7.25071357,4.12025116 7.0918191,4.28029767 7.07319598,4.48216279 L6.81469347,7.29347442 L4.33371859,8.60964186 C4.15534673,8.70412093 4.06940704,8.91338605 4.12920603,9.10733488 L4.95972864,11.8045488 L3.16917588,13.9763628 C3.04035176,14.1324512 3.04035176,14.3587535 3.16917588,14.5148419 L4.95972864,16.6866558 L4.12920603,19.3838698 C4.06940704,19.5776465 4.15534673,19.7869116 4.33371859,19.8815628 L6.41113568,20.9834744 L0.146934673,31.2992465 C0.0632160804,31.4372651 0.0650954774,31.6114233 0.152060302,31.7473767 C0.239025126,31.8835023 0.39518593,31.9571581 0.554934673,31.9373674 L6.5380804,31.1939256 L8.10857286,36.6604605 C8.15436181,36.8201628 8.28933668,36.9378744 8.45284422,36.9605907 C8.47215075,36.9633442 8.49145729,36.9645488 8.51042211,36.9645488 C8.65342714,36.9645488 8.78840201,36.8905488 8.86545729,36.7659535 L15.0392764,26.7862791 L16.8759598,28.3227256 C16.9533568,28.3874326 17.0485226,28.419786 17.1431759,28.419786 C17.2381709,28.419786 17.332995,28.3874326 17.4105628,28.3227256 L18.9771256,27.0120651 L25.1125025,36.7685349 C25.1900704,36.8917535 25.3240201,36.9645488 25.4658291,36.9645488 C25.4853065,36.9645488 25.5051256,36.9631721 25.5249447,36.9604186 C25.6877688,36.937014 25.8220603,36.8196465 25.8678492,36.6604605 L27.4388543,31.1939256 L33.4204623,31.9373674 C33.5800402,31.9571581 33.7365427,31.8831581 33.8235075,31.7470326 C33.9109849,31.6107349 33.9126935,31.4362326 33.8284623,31.298386 Z M8.65188945,35.518107 L7.24336683,30.6143163 C7.18613065,30.4153767 6.99374874,30.2878558 6.79026131,30.3131535 L1.31352764,30.9939535 L6.87380905,21.8372279 L7.07336683,24.009214 C7.09198995,24.2112512 7.25088442,24.3712977 7.45146734,24.3898837 L10.242201,24.6494 L11.5485528,27.1478465 C11.6423518,27.3275116 11.8501106,27.4139023 12.0424925,27.354014 L14.0997487,26.7119349 L8.65188945,35.518107 Z M17.1436884,27.4505581 L15.0799397,25.7239488 C15.0039095,25.6604465 14.9090854,25.6268884 14.8128945,25.6268884 C14.7713769,25.6268884 14.7296884,25.6330837 14.6888543,25.6458186 L12.1268945,26.4453628 L10.8770955,24.0544744 C10.8109749,23.9283302 10.6862513,23.8443488 10.5452965,23.8312698 L7.87467337,23.5829395 L7.62744724,20.8922651 C7.61446231,20.7502884 7.53125628,20.6246605 7.40584925,20.5582326 L5.03165829,19.2990279 L5.82647236,16.7179767 C5.86850251,16.5818512 5.83911558,16.433507 5.74873367,16.3238837 L4.03523618,14.2455163 L5.74873367,12.1671488 C5.83911558,12.0575256 5.86850251,11.9091814 5.82647236,11.7730558 L5.03165829,9.19200465 L7.40584925,7.93262791 C7.53108543,7.8662 7.61446231,7.74057209 7.62744724,7.59876744 L7.87467337,4.90843721 L10.5452965,4.6595907 C10.6862513,4.64651163 10.8111457,4.56253023 10.8770955,4.43638605 L12.1268945,2.04584186 L14.6888543,2.84538605 C14.824,2.88772093 14.9711055,2.85812093 15.0799397,2.76708372 L17.1436884,1.04064651 L19.207608,2.76708372 C19.3162714,2.85812093 19.4633769,2.88754884 19.5985226,2.84555814 L22.160995,2.04601395 L23.410794,4.43655814 C23.4767437,4.56270233 23.6014673,4.64668372 23.7424221,4.65976279 L26.4138995,4.9087814 L26.6609548,7.59911163 C26.6741106,7.74108837 26.7574874,7.86671628 26.8827236,7.93297209 L29.256402,9.19217674 L28.4612462,11.7732279 C28.4193869,11.9095256 28.448603,12.0578698 28.5391558,12.167493 L30.2545327,14.2456884 L28.5391558,16.3238837 C28.448603,16.4336791 28.4193869,16.5820233 28.4612462,16.7183209 L29.256402,19.2993721 L26.8827236,20.5585767 C26.7576583,20.6250047 26.6741106,20.7506326 26.6609548,20.8926093 L26.4138995,23.5832837 L23.7424221,23.831614 C23.6014673,23.844693 23.4765729,23.9286744 23.410794,24.0548186 L22.160995,26.445707 L19.5985226,25.6461628 C19.4635477,25.6038279 19.3162714,25.6332558 19.207608,25.7244651 L17.1436884,27.4505581 Z M27.1878693,30.3133256 C26.9840402,30.2882 26.792,30.4155488 26.7349347,30.6143163 L25.322995,35.5272279 L19.6796784,26.5534372 L22.245397,27.354186 C22.4377789,27.4142465 22.6455377,27.3275116 22.7395075,27.1480186 L24.0456884,24.6495721 L26.8371055,24.3900558 C27.0378593,24.3714698 27.1967538,24.2114233 27.2153769,24.009386 L27.3701709,22.3244233 L32.6608442,30.9936093 L27.1878693,30.3133256 Z" id="Shape" fill="#000000"></path>
                <path d="M31.1436583,11.4269767 C31.1048744,11.4269767 31.0659196,11.4216419 31.0266231,11.4101116 C30.8050251,11.3452326 30.6772261,11.1115302 30.7416382,10.8879814 L31.5849749,7.96274419 L28.7684422,6.57567442 C28.6413266,6.51303256 28.5543618,6.38998605 28.5371055,6.24869767 L28.1400402,3.00749767 L25.2107437,2.71648837 C24.9807739,2.6936 24.8128241,2.48726047 24.8355477,2.25579535 C24.8581005,2.02433023 25.0619296,1.8549907 25.2930955,1.87787907 L28.5553869,2.20210233 C28.7501608,2.22154884 28.9056382,2.37419535 28.9293869,2.56986512 L29.3397789,5.91913953 L32.2687337,7.36162326 C32.4513769,7.45162791 32.5434673,7.66089302 32.4867437,7.85759535 L31.5453367,11.1232326 C31.492201,11.3072 31.3251055,11.4269767 31.1436583,11.4269767 Z" id="Shape" fill="#000000"></path>
                <path d="M17.1436884,23.9047535 C11.8562613,23.9047535 7.55449246,19.5716233 7.55449246,14.2456884 C7.55449246,8.91975349 11.8562613,4.58679535 17.1436884,4.58679535 C22.4311156,4.58679535 26.7328844,8.91975349 26.7328844,14.2456884 C26.7328844,19.5716233 22.4311156,23.9047535 17.1436884,23.9047535 Z M17.1436884,5.42936279 C12.3177387,5.42936279 8.39116583,9.38423256 8.39116583,14.2455163 C8.39116583,19.1069721 12.3175678,23.0618419 17.1436884,23.0618419 C21.969809,23.0618419 25.8963819,19.1068 25.8963819,14.2455163 C25.8962111,9.38423256 21.969809,5.42936279 17.1436884,5.42936279 Z" id="Shape" fill="#000000"></path>
                <path d="M15.9205427,19.2630605 C15.6994573,19.2630605 15.486402,19.1746047 15.3292161,19.0162791 L12.4187136,16.085707 C12.0918693,15.7566651 12.0916985,15.2230047 12.4185427,14.8937907 C12.7450452,14.5647488 13.2748643,14.5645767 13.6017085,14.8936186 L15.8559598,17.1633535 L20.8900101,10.915 C21.1809749,10.5534326 21.7078894,10.4983628 22.0670251,10.7917814 C22.4258191,11.0850279 22.4804925,11.6157628 22.1893568,11.9771581 L16.5703015,18.9514 C16.4211457,19.1367442 16.2009146,19.2496372 15.9641106,19.2620279 C15.9495879,19.2627163 15.9352362,19.2630605 15.9205427,19.2630605 Z" id="Shape" fill="#30D6C7"></path>
            </g>
        </g>
    </g>
</svg>