<?xml version="1.0" encoding="UTF-8"?>
<svg width="37px" height="37px" viewBox="0 0 37 37" version="1.1" xmlns="http://www.w3.org/2000/svg" xmlns:xlink="http://www.w3.org/1999/xlink">
    <!-- Generator: Sketch 44.1 (41455) - http://www.bohemiancoding.com/sketch -->
    <title>Data Mining &amp; Analysis –  Web Based Research</title>
    <desc>Created with Sketch.</desc>
    <defs></defs>
    <g id="Page-1" stroke="none" stroke-width="1" fill="none" fill-rule="evenodd">
        <g id="Hardware-Design-And-Development-" transform="translate(-442.000000, -425.000000)" fill-rule="nonzero">
            <g id="Data-Mining-&amp;-Analysis-–--Web-Based-Research" transform="translate(442.000000, 425.000000)">
                <path d="M6.16666667,14.8 L12.3333333,14.8 C12.6737333,14.8 12.95,14.5237333 12.95,14.1833333 L12.95,0.616666667 C12.95,0.276266667 12.6737333,0 12.3333333,0 L6.16666667,0 C5.82626667,0 5.55,0.276266667 5.55,0.616666667 L5.55,7.4 L5.55,14.1833333 C5.55,14.5237333 5.82626667,14.8 6.16666667,14.8 Z M6.78333333,1.23333333 L11.7166667,1.23333333 L11.7166667,13.5666667 L6.78333333,13.5666667 L6.78333333,1.23333333 Z" id="Shape" fill="#000000"></path>
                <rect id="Rectangle-path" fill="#000000" x="2.46666667" y="28.3666667" width="3.7" height="1.23333333"></rect>
                <rect id="Rectangle-path" fill="#000000" x="2.46666667" y="30.8333333" width="3.7" height="1.23333333"></rect>
                <rect id="Rectangle-path" fill="#000000" x="2.46666667" y="33.3" width="3.7" height="1.23333333"></rect>
                <path d="M0.616666667,37 L8.01666667,37 C8.35706667,37 8.63333333,36.7237333 8.63333333,36.3833333 L8.63333333,26.5166667 C8.63333333,26.1762667 8.35706667,25.9 8.01666667,25.9 L4.93333333,25.9 L4.93333333,18.5 C4.93333333,18.1596 4.65706667,17.8833333 4.31666667,17.8833333 L1.23333333,17.8833333 L1.23333333,8.01666667 L3.4447,8.01666667 L2.64735,8.81401667 L3.51931667,9.68598333 L5.36931667,7.83598333 C5.48956667,7.71573333 5.55,7.55786667 5.55,7.4 C5.55,7.24213333 5.48956667,7.08426667 5.36931667,6.96401667 L3.51931667,5.11401667 L2.64735,5.98598333 L3.4447,6.78333333 L0.616666667,6.78333333 C0.276266667,6.78333333 0,7.0596 0,7.4 L0,18.5 C0,18.8404 0.276266667,19.1166667 0.616666667,19.1166667 L3.7,19.1166667 L3.7,25.9 L0.616666667,25.9 C0.276266667,25.9 0,26.1762667 0,26.5166667 L0,36.3833333 C0,36.7237333 0.276266667,37 0.616666667,37 Z M1.23333333,27.1333333 L7.4,27.1333333 L7.4,35.7666667 L1.23333333,35.7666667 L1.23333333,27.1333333 Z" id="Shape" fill="#000000"></path>
                <path d="M29.6,27.1333333 L29.6,36.3833333 C29.6,36.7237333 29.8762667,37 30.2166667,37 L36.3833333,37 C36.7237333,37 37,36.7237333 37,36.3833333 L37,27.1333333 C37,26.7929333 36.7237333,26.5166667 36.3833333,26.5166667 L33.3,26.5166667 L30.2166667,26.5166667 C29.8762667,26.5166667 29.6,26.7929333 29.6,27.1333333 Z M30.8333333,30.8333333 L35.7666667,30.8333333 L35.7666667,32.6833333 L30.8333333,32.6833333 L30.8333333,30.8333333 Z M30.8333333,35.7666667 L30.8333333,33.9166667 L35.7666667,33.9166667 L35.7666667,35.7666667 L30.8333333,35.7666667 Z M35.7666667,27.75 L35.7666667,29.6 L30.8333333,29.6 L30.8333333,27.75 L35.7666667,27.75 Z" id="Shape" fill="#000000"></path>
                <rect id="Rectangle-path" fill="#000000" x="8.63333333" y="11.1" width="1.23333333" height="1.23333333"></rect>
                <rect id="Rectangle-path" fill="#000000" x="8.01666667" y="2.46666667" width="2.46666667" height="1.23333333"></rect>
                <rect id="Rectangle-path" fill="#000000" x="8.01666667" y="4.93333333" width="2.46666667" height="1.23333333"></rect>
                <path d="M19.1166667,7.4 L21.5833333,7.4 L21.5833333,9.25 C21.5833333,9.5904 21.8596,9.86666667 22.2,9.86666667 L27.1333333,9.86666667 C27.4737333,9.86666667 27.75,9.5904 27.75,9.25 L27.75,5.55 C27.75,5.2096 27.4737333,4.93333333 27.1333333,4.93333333 L24.6666667,4.93333333 L24.6666667,3.08333333 C24.6666667,2.74293333 24.3904,2.46666667 24.05,2.46666667 L19.1166667,2.46666667 C18.7762667,2.46666667 18.5,2.74293333 18.5,3.08333333 L18.5,6.78333333 C18.5,7.12373333 18.7762667,7.4 19.1166667,7.4 Z M26.5166667,8.63333333 L22.8166667,8.63333333 L22.8166667,6.16666667 L26.5166667,6.16666667 L26.5166667,8.63333333 Z M19.7333333,3.7 L23.4333333,3.7 L23.4333333,4.93333333 L22.2,4.93333333 C21.8596,4.93333333 21.5833333,5.2096 21.5833333,5.55 L21.5833333,6.16666667 L19.7333333,6.16666667 L19.7333333,3.7 Z" id="Shape" fill="#000000"></path>
                <path d="M36.3833333,6.78333333 L31.45,6.78333333 L31.45,0.616666667 C31.45,0.276266667 31.1737333,0 30.8333333,0 L14.8,0 C14.4596,0 14.1833333,0.276266667 14.1833333,0.616666667 L14.1833333,11.7166667 C14.1833333,12.0570667 14.4596,12.3333333 14.8,12.3333333 L20.9666667,12.3333333 L20.9666667,13.5666667 L18.5,13.5666667 L18.5,14.8 L21.5833333,14.8 L24.05,14.8 L27.1333333,14.8 L27.1333333,13.5666667 L24.6666667,13.5666667 L24.6666667,12.3333333 L30.8333333,12.3333333 C31.1737333,12.3333333 31.45,12.0570667 31.45,11.7166667 L31.45,8.01666667 L35.7666667,8.01666667 L35.7666667,17.8833333 L33.3,17.8833333 C33.1365833,17.8833333 32.9793333,17.9480833 32.8640167,18.0640167 C32.7487,18.17995 32.6833333,18.3365833 32.6833333,18.5 L32.6833333,24.4113667 L31.8859833,23.6140167 L31.0140167,24.4859833 L32.8640167,26.3359833 C32.9842667,26.4562333 33.1421333,26.5166667 33.3,26.5166667 C33.4578667,26.5166667 33.6157333,26.4562333 33.7359833,26.3359833 L35.5859833,24.4859833 L34.7140167,23.6140167 L33.9166667,24.4113667 L33.9166667,19.1166667 L36.3833333,19.1166667 C36.54675,19.1166667 36.704,19.0519167 36.8193167,18.9359833 C36.9346333,18.82005 37,18.6640333 37,18.5 L37,7.4 C37,7.0596 36.7237333,6.78333333 36.3833333,6.78333333 Z M23.4333333,13.5666667 L22.2,13.5666667 L22.2,12.3333333 L23.4333333,12.3333333 L23.4333333,13.5666667 Z M30.2166667,11.1 L24.05,11.1 L21.5833333,11.1 L15.4166667,11.1 L15.4166667,1.23333333 L30.2166667,1.23333333 L30.2166667,11.1 Z" id="Shape" fill="#000000"></path>
                <path d="M14.2795333,23.71885 L9.96286667,30.5021833 C9.80808333,30.7463833 9.84261667,31.0652 10.04735,31.2693167 L11.2806833,32.50265 C11.4009333,32.6229 11.5588,32.6833333 11.7166667,32.6833333 C11.8745333,32.6833333 12.0324,32.6229 12.15265,32.50265 L16.8726167,27.7826833 L24.8208333,36.7915667 C24.9336833,36.9192167 25.0940167,36.99445 25.2642167,37 C25.2703833,37 25.2771667,37 25.2833333,37 C25.44675,37 25.604,36.93525 25.7193167,36.8193167 L28.1859833,34.35265 C28.3062333,34.2324 28.3716,34.06775 28.36605,33.89755 C28.3605,33.72735 28.2852667,33.5670167 28.1576167,33.4541667 L19.1499667,25.50595 L23.2532667,21.40265 C23.4943833,21.1615333 23.4943833,20.7718 23.2532667,20.5306833 L20.7866,18.0640167 C20.5454833,17.8229 20.15575,17.8229 19.9146333,18.0640167 L14.3646333,23.6140167 C14.33195,23.6460833 14.3035833,23.6806167 14.2795333,23.71885 Z M25.3110833,35.483 L17.7464333,26.9094833 L18.27615,26.3797667 L26.8496667,33.9444167 L25.3110833,35.483 Z M20.35,19.3719667 L21.9447,20.9666667 L17.81365,25.0977167 L16.4643833,26.4469833 L11.7166667,31.1947 L11.2689667,30.747 L15.2834667,24.4378833 L20.35,19.3719667 Z" id="Shape" fill="#30D6C7"></path>
                <rect id="Rectangle-path" fill="#30D6C7" transform="translate(12.333087, 20.966605) rotate(-45.000000) translate(-12.333087, -20.966605) " x="11.7164259" y="20.0946467" width="1.23332151" height="1.74391661"></rect>
                <rect id="Rectangle-path" fill="#30D6C7" x="14.8" y="18.5" width="1.23333333" height="1.85"></rect>
                <rect id="Rectangle-path" fill="#30D6C7" x="9.86666667" y="23.4333333" width="1.85" height="1.23333333"></rect>
            </g>
        </g>
    </g>
</svg>