<?xml version="1.0" encoding="UTF-8"?>
<svg width="34px" height="34px" viewBox="0 0 34 34" version="1.1" xmlns="http://www.w3.org/2000/svg" xmlns:xlink="http://www.w3.org/1999/xlink">
    <!-- Generator: Sketch 44.1 (41455) - http://www.bohemiancoding.com/sketch -->
    <title>Data Mapping for  Product Catalogue</title>
    <desc>Created with Sketch.</desc>
    <defs></defs>
    <g id="Page-1" stroke="none" stroke-width="1" fill="none" fill-rule="evenodd">
        <g id="Hardware-Design-And-Development-" transform="translate(-1035.000000, -426.000000)" fill-rule="nonzero">
            <g id="Data-Mapping-for--Product-Catalogue" transform="translate(1035.000000, 426.000000)">
                <path d="M15.671875,1.115625 L13.971875,2.815625 L14.715625,3.559375 L18.275,0 L17,0 C17,0 17,0 17,0 C9.9875,0 3.6125,4.409375 1.115625,10.94375 L2.125,11.315625 C4.25,5.63125 9.615625,1.646875 15.671875,1.115625 Z" id="Shape" fill="#000000"></path>
                <path d="M23.05625,1.115625 L22.684375,2.125 C28.36875,4.25 32.353125,9.615625 32.884375,15.671875 L31.184375,13.971875 L30.440625,14.715625 L34,18.275 L34,17 C34,9.9875 29.590625,3.6125 23.05625,1.115625 Z" id="Shape" fill="#000000"></path>
                <path d="M18.328125,32.884375 L20.028125,31.184375 L19.284375,30.440625 L15.725,34 L17,34 C17,34 17,34 17,34 C24.0125,34 30.3875,29.590625 32.884375,23.05625 L31.875,22.684375 C29.75,28.36875 24.384375,32.353125 18.328125,32.884375 Z" id="Shape" fill="#000000"></path>
                <path d="M1.115625,18.328125 L2.815625,20.028125 L3.559375,19.284375 L0,15.725 L0,17 C0,24.0125 4.409375,30.3875 10.94375,32.884375 L11.315625,31.875 C5.63125,29.75 1.646875,24.384375 1.115625,18.328125 Z" id="Shape" fill="#000000"></path>
                <path d="M17,22.3125 C19.071875,22.3125 20.71875,20.665625 20.71875,18.59375 C20.71875,16.946875 19.65625,15.246875 18.753125,13.70625 C18.16875,12.696875 17.53125,11.6875 17.53125,11.15625 C17.53125,10.8375 17.31875,10.625 17,10.625 C16.68125,10.625 16.46875,10.8375 16.46875,11.15625 C16.46875,11.6875 15.83125,12.696875 15.246875,13.70625 C14.34375,15.246875 13.28125,16.946875 13.28125,18.59375 C13.28125,20.665625 14.928125,22.3125 17,22.3125 Z M16.15,14.2375 C16.46875,13.70625 16.734375,13.228125 17,12.803125 C17.2125,13.228125 17.53125,13.759375 17.85,14.2375 C18.7,15.61875 19.65625,17.2125 19.65625,18.59375 C19.65625,20.08125 18.4875,21.25 17,21.25 C15.5125,21.25 14.34375,20.08125 14.34375,18.59375 C14.34375,17.265625 15.3,15.671875 16.15,14.2375 Z" id="Shape" fill="#30D6C7"></path>
                <path d="M6.375,17 C6.375,22.84375 11.15625,27.625 17,27.625 C22.84375,27.625 27.625,22.84375 27.625,17 C27.625,11.15625 22.84375,6.375 17,6.375 C11.15625,6.375 6.375,11.15625 6.375,17 Z M17,7.4375 C22.259375,7.4375 26.5625,11.740625 26.5625,17 C26.5625,22.259375 22.259375,26.5625 17,26.5625 C11.740625,26.5625 7.4375,22.259375 7.4375,17 C7.4375,11.740625 11.740625,7.4375 17,7.4375 Z" id="Shape" fill="#000000"></path>
            </g>
        </g>
    </g>
</svg>