<?xml version="1.0" encoding="UTF-8"?>
<svg width="35px" height="38px" viewBox="0 0 35 38" version="1.1" xmlns="http://www.w3.org/2000/svg" xmlns:xlink="http://www.w3.org/1999/xlink">
    <!-- Generator: Sketch 44.1 (41455) - http://www.bohemiancoding.com/sketch -->
    <title>Engineering</title>
    <desc>Created with Sketch.</desc>
    <defs></defs>
    <g id="Page-1" stroke="none" stroke-width="1" fill="none" fill-rule="evenodd">
        <g id="What-we-do" transform="translate(-544.000000, -2562.000000)" fill-rule="nonzero">
            <g id="Engineering" transform="translate(544.000000, 2562.000000)">
                <g id="Shape" fill="#000000">
                    <path d="M18.3875,21.6224176 L21.5708333,18.4320879 C21.8145445,18.187537 21.8145445,17.7913641 21.5708333,17.5468132 L19.4333333,15.4087912 C19.5458333,15.1707692 19.6458333,14.9243956 19.7375,14.6738462 L22.7583333,14.6738462 C23.1035113,14.6738462 23.3833333,14.3934091 23.3833333,14.0474725 L23.3833333,9.53340659 C23.3833333,9.18746999 23.1035113,8.90703297 22.7583333,8.90703297 L19.7333333,8.90703297 C19.6416667,8.65648352 19.5416667,8.41010989 19.4291667,8.17208791 L21.5625,6.03406593 C21.8062111,5.78951502 21.8062111,5.39334213 21.5625,5.14879121 L18.3875,1.95846154 C18.1399139,1.72302256 17.7517528,1.72302256 17.5041667,1.95846154 L15.3708333,4.09648352 C15.1319444,3.98512821 14.8875,3.88351648 14.6375,3.79164835 L14.6375,0.764175824 C14.6375,0.418239223 14.357678,0.137802198 14.0125,0.137802198 L9.50833333,0.137802198 C9.16315536,0.137802198 8.88333333,0.418239223 8.88333333,0.764175824 L8.88333333,3.79164835 C8.63055556,3.88351648 8.38611111,3.98512821 8.15,4.09648352 L6.0125,1.95846154 C5.76491385,1.72302256 5.37675282,1.72302256 5.12916667,1.95846154 L1.94583333,5.14879121 C1.70212218,5.39334213 1.70212218,5.78951502 1.94583333,6.03406593 L4.07916667,8.17208791 C3.96805556,8.41150183 3.86666667,8.65648352 3.775,8.90703297 L0.758333333,8.90703297 C0.413155365,8.90703297 0.133333333,9.18746999 0.133333333,9.53340659 L0.133333333,14.0432967 C0.133333333,14.3892333 0.413155365,14.6696703 0.758333333,14.6696703 L3.77916667,14.6696703 C3.86805556,14.9230037 3.96944444,15.1679853 4.08333333,15.4046154 L1.94583333,17.5384615 C1.70212218,17.7830125 1.70212218,18.1791853 1.94583333,18.4237363 L5.12916667,21.6140659 C5.37675282,21.8495049 5.76491385,21.8495049 6.0125,21.6140659 L8.14583333,19.476044 C8.38472222,19.5873993 8.62916667,19.689011 8.87916667,19.7808791 L8.87916667,22.8083516 C8.87916667,23.1542882 9.1589887,23.4347253 9.50416667,23.4347253 L14.0041667,23.4347253 C14.3493446,23.4347253 14.6291667,23.1542882 14.6291667,22.8083516 L14.6291667,19.7850549 C14.8819444,19.6931868 15.1263889,19.5915751 15.3625,19.4802198 L17.5,21.6224176 C17.7481379,21.8605099 18.1393621,21.8605099 18.3875,21.6224176 Z M15.1916667,18.169011 C14.7580665,18.4034111 14.3014797,18.5923245 13.8291667,18.7327473 C13.564151,18.8122203 13.3827886,19.0568331 13.3833333,19.3340659 L13.3833333,22.1903297 L10.1333333,22.1903297 L10.1333333,19.3298901 C10.133878,19.0526573 9.95251567,18.8080444 9.6875,18.7285714 C9.21820725,18.5889473 8.76444344,18.4014458 8.33333333,18.169011 C8.09050937,18.0382445 7.79087623,18.0823552 7.59583333,18.2775824 L5.57083333,20.2945055 L3.27083333,17.9894505 L5.28333333,15.9725275 C5.47813243,15.7770559 5.52214634,15.4767642 5.39166667,15.2334066 C5.15804754,14.7987266 4.96956,14.3411644 4.82916667,13.8679121 C4.74986793,13.602314 4.50579149,13.420553 4.22916667,13.4210989 L1.38333333,13.4210989 L1.38333333,10.163956 L4.23333333,10.163956 C4.50995816,10.1645019 4.7540346,9.98274097 4.83333333,9.71714286 C4.97239288,9.24405148 5.1594821,8.78649454 5.39166667,8.35164835 C5.52214634,8.10829071 5.47813243,7.80799904 5.28333333,7.61252747 L3.27083333,5.5956044 L5.57083333,3.29054945 L7.58333333,5.3032967 C7.77632442,5.51018217 8.08382335,5.56154463 8.33333333,5.42857143 C8.76693348,5.1941713 9.22352026,5.00525789 9.69583333,4.86483516 C9.960849,4.78536215 10.1422114,4.54074928 10.1416667,4.26351648 L10.1416667,1.39054945 L13.3916667,1.39054945 L13.3916667,4.24681319 C13.391122,4.52404598 13.5724843,4.76865885 13.8375,4.84813187 C14.3076016,4.9944348 14.7613918,5.18894393 15.1916667,5.42857143 C15.4344906,5.55933787 15.7341238,5.51522723 15.9291667,5.32 L17.9416667,3.30307692 L20.2416667,5.60813187 L18.2291667,7.62505495 C18.040246,7.81837616 17.9965532,8.11142415 18.1208333,8.35164835 C18.3544525,8.78632839 18.54294,9.24389052 18.6833333,9.71714286 C18.7626321,9.98274097 19.0067085,10.1645019 19.2833333,10.163956 L22.1333333,10.163956 L22.1333333,13.4210989 L19.2833333,13.4210989 C19.0067085,13.420553 18.7626321,13.602314 18.6833333,13.8679121 C18.54294,14.3411644 18.3544525,14.7987266 18.1208333,15.2334066 C17.9903537,15.4767642 18.0343676,15.7770559 18.2291667,15.9725275 L20.2416667,17.9894505 L17.9416667,20.2945055 L15.9291667,18.2775824 C15.7341238,18.0823552 15.4344906,18.0382445 15.1916667,18.169011 L15.1916667,18.169011 Z"></path>
                    <path d="M34.3416667,26.6167033 L32.1916667,26.6167033 C32.1472222,26.4942125 32.0986111,26.3745055 32.0458333,26.2575824 L33.5625,24.7375824 C33.8062111,24.4930315 33.8062111,24.0968586 33.5625,23.8523077 L31.1833333,21.4679121 C30.9357472,21.2324731 30.5475861,21.2324731 30.3,21.4679121 L28.7833333,22.9879121 C28.6666667,22.9350183 28.5472222,22.8863004 28.425,22.8417582 L28.425,20.687033 C28.425,20.3410964 28.145178,20.0606593 27.8,20.0606593 L24.4375,20.0606593 C24.092322,20.0606593 23.8125,20.3410964 23.8125,20.687033 L23.8125,22.8417582 C23.6902778,22.8863004 23.5708333,22.9350183 23.4541667,22.9879121 L21.9375,21.4679121 C21.6934854,21.2236653 21.2981813,21.2236653 21.0541667,21.4679121 L18.675,23.8523077 C18.4312889,24.0968586 18.4312889,24.4930315 18.675,24.7375824 L20.1916667,26.2575824 C20.1388889,26.3745055 20.0902778,26.4942125 20.0458333,26.6167033 L17.9166667,26.6167033 C17.5714887,26.6167033 17.2916667,26.8971403 17.2916667,27.2430769 L17.2916667,30.612967 C17.2916667,30.9589036 17.5714887,31.2393407 17.9166667,31.2393407 L20.0625,31.2393407 C20.1069444,31.3618315 20.1555556,31.4815385 20.2083333,31.5984615 L18.6916667,33.1184615 C18.4479555,33.3630125 18.4479555,33.7591853 18.6916667,34.0037363 L21.0708333,36.3881319 C21.314848,36.6323786 21.710152,36.6323786 21.9541667,36.3881319 L23.4708333,34.8681319 C23.5875,34.9210256 23.7069444,34.9697436 23.8291667,35.0142857 L23.8291667,37.1648352 C23.8291667,37.5107718 24.1089887,37.7912088 24.4541667,37.7912088 L27.8166667,37.7912088 C28.1618446,37.7912088 28.4416667,37.5107718 28.4416667,37.1648352 L28.4416667,35.0142857 C28.5638889,34.9697436 28.6833333,34.9210256 28.8,34.8681319 L30.3166667,36.3881319 C30.5606813,36.6323786 30.9559854,36.6323786 31.2,36.3881319 L33.5791667,34.0037363 C33.8228778,33.7591853 33.8228778,33.3630125 33.5791667,33.1184615 L32.0625,31.5984615 C32.1152778,31.4815385 32.1638889,31.3618315 32.2083333,31.2393407 L34.3541667,31.2393407 C34.6993446,31.2393407 34.9791667,30.9589036 34.9791667,30.612967 L34.9791667,27.2430769 C34.9792003,27.0747588 34.9116391,26.9135099 34.7917113,26.7956752 C34.6717835,26.6778406 34.5095821,26.6133369 34.3416667,26.6167033 Z M33.7166667,29.9865934 L31.7458333,29.9865934 C31.4692085,29.9860475 31.2251321,30.1678085 31.1458333,30.4334066 C31.0412453,30.776769 30.9016185,31.1084119 30.7291667,31.4230769 C30.6017645,31.6634742 30.6438636,31.9588157 30.8333333,32.1538462 L32.225,33.5485714 L30.7458333,35.0769231 L29.3541667,33.6821978 C29.1591238,33.4869706 28.8594906,33.4428599 28.6166667,33.5736264 C28.3026146,33.7462976 27.9717158,33.8862242 27.6291667,33.9912088 C27.364151,34.0706818 27.1827886,34.3152947 27.1833333,34.5925275 L27.1833333,36.5384615 L25.0625,36.5384615 L25.0625,34.5632967 C25.0630447,34.2860639 24.8816823,34.041451 24.6166667,33.961978 C24.2740874,33.8570766 23.9431803,33.7171464 23.6291667,33.5443956 C23.3863427,33.4136292 23.0867096,33.4577398 22.8916667,33.652967 L21.4958333,35.0769231 L20,33.5610989 L21.3958333,32.1538462 C21.5906324,31.9583746 21.6346463,31.6580829 21.5041667,31.4147253 C21.3317149,31.1000603 21.192088,30.7684174 21.0875,30.4250549 C21.0082013,30.1594568 20.7641248,29.9776959 20.4875,29.9782418 L18.525,29.9782418 L18.525,27.8694505 L20.4958333,27.8694505 C20.7724582,27.8699964 21.0165346,27.6882355 21.0958333,27.4226374 C21.2004214,27.0792749 21.3400482,26.747632 21.5125,26.432967 C21.6429797,26.1896094 21.5989658,25.8893177 21.4041667,25.6938462 L20,24.2949451 L21.4958333,22.7958242 L22.8875,24.1905495 C23.0825429,24.3857767 23.382176,24.4298873 23.625,24.2991209 C23.938975,24.1262901 24.2698905,23.9863564 24.6125,23.8815385 C24.8775157,23.8020654 25.058878,23.5574526 25.0583333,23.2802198 L25.0583333,21.2967033 L27.1708333,21.2967033 L27.1708333,23.2718681 C27.1702886,23.5491009 27.351651,23.7937138 27.6166667,23.8731868 C27.9607066,23.9777355 28.2930311,24.1176746 28.6083333,24.2907692 C28.8511573,24.4215357 29.1507904,24.377425 29.3458333,24.1821978 L30.7375,22.7874725 L32.2333333,24.2865934 L30.8333333,25.6896703 C30.6385342,25.8851419 30.5945203,26.1854336 30.725,26.4287912 C30.8974518,26.7434562 31.0370786,27.0750991 31.1416667,27.4184615 C31.2209654,27.6840597 31.4650418,27.8658206 31.7416667,27.8652747 L33.7125,27.8652747 L33.7166667,29.9865934 Z"></path>
                </g>
                <path d="M11.7583333,7.88395604 C9.60442281,7.88395604 7.85833333,9.63388308 7.85833333,11.7925275 C7.85833333,13.9511719 9.60442281,15.7010989 11.7583333,15.7010989 C13.9122439,15.7010989 15.6583333,13.9511719 15.6583333,11.7925275 C15.6560368,9.63483713 13.9112919,7.88625758 11.7583333,7.88395604 Z M11.7583333,14.4441758 C10.2947787,14.4441758 9.10833333,13.2551228 9.10833333,11.7883516 C9.10833333,10.3215805 10.2947787,9.13252747 11.7583333,9.13252747 C13.2218879,9.13252747 14.4083333,10.3215805 14.4083333,11.7883516 C14.4083333,13.2551228 13.2218879,14.4441758 11.7583333,14.4441758 Z" id="Shape" fill="#30D6C7"></path>
                <path d="M26.1208333,25.8483516 C24.4248589,25.8483516 23.05,27.2262322 23.05,28.9259341 C23.05,30.6256359 24.4248589,32.0035165 26.1208333,32.0035165 C27.8168078,32.0035165 29.1916667,30.6256359 29.1916667,28.9259341 C29.1893714,27.2271859 27.8158561,25.8506519 26.1208333,25.8483516 L26.1208333,25.8483516 Z M26.1208333,30.7507692 C25.1152149,30.7507692 24.3,29.9337627 24.3,28.9259341 C24.3,27.9181054 25.1152149,27.1010989 26.1208333,27.1010989 C27.1264518,27.1010989 27.9416667,27.9181054 27.9416667,28.9259341 C27.9393755,29.9328101 27.1255013,30.748473 26.1208333,30.7507692 Z" id="Shape" fill="#30D6C7"></path>
            </g>
        </g>
    </g>
</svg>