<?xml version="1.0" encoding="UTF-8"?>
<svg width="32px" height="40px" viewBox="0 0 32 40" version="1.1" xmlns="http://www.w3.org/2000/svg" xmlns:xlink="http://www.w3.org/1999/xlink">
    <!-- Generator: Sketch 44.1 (41455) - http://www.bohemiancoding.com/sketch -->
    <title>Gas, Petroleum &amp; Oil Gas, Petroleum &amp; Oil </title>
    <desc>Created with Sketch.</desc>
    <defs></defs>
    <g id="Page-1" stroke="none" stroke-width="1" fill="none" fill-rule="evenodd">
        <g id="What-we-do" transform="translate(-933.000000, -2561.000000)">
            <g id="Gas,-Petroleum-&amp;-Oil-Gas,-Petroleum-&amp;-Oil-" transform="translate(934.000000, 2561.000000)">
                <g id="Group" stroke="#FFFFFF" stroke-width="0.9" fill="#000000" fill-rule="nonzero">
                    <g transform="translate(0.000000, 0.344768)">
                        <path d="M11.7857143,0.195772973 C9.98032875,0.195772973 8.57142857,1.70901081 8.57142857,3.43901622 L8.57142857,18.5741514 L7.5,18.5741514 C6.90829083,18.574211 6.42863056,19.0581926 6.42857143,19.6552324 L6.42857143,33.7092865 L5.35714286,33.7092865 C5.05221321,33.7092865 4.76387304,33.5958811 4.58705357,33.4390162 C4.41023411,33.2821514 4.28571429,33.0975027 4.28571429,32.6282054 L4.28571429,18.5741514 L5.35714286,18.5741514 C5.94885207,18.5740918 6.42851241,18.0901102 6.42857143,17.4930703 L6.42857143,12.6282054 C6.43077228,12.3365058 6.31606265,12.0562858 6.11049107,11.8511784 L4.50334821,10.2295568 C4.43311329,10.1628643 4.35427626,10.1060448 4.26897321,10.0606378 C4.27736243,10.0159925 4.28295388,9.97085796 4.28571429,9.9255027 L4.28571429,8.25320541 C4.28571429,7.31465405 5.07285268,6.68225946 5.35714286,6.68225946 C5.74353758,6.68777189 6.10294198,6.48293311 6.29773365,6.14617958 C6.49252531,5.80942604 6.49252531,5.39293072 6.29773365,5.05617718 C6.10294198,4.71942364 5.74353758,4.51458486 5.35714286,4.5200973 C3.50457589,4.5200973 2.14285714,6.25164865 2.14285714,8.25320541 L2.14285714,9.9255027 L1.07142857,9.9255027 C1.03796484,9.92391838 1.00444588,9.92391838 0.970982143,9.9255027 C0.418815385,9.97801154 -0.00239156566,10.4469788 -2.84692686e-15,11.0065838 L-9.43687877e-16,17.4930703 C5.90141646e-05,18.0901102 0.479719357,18.5740918 1.07142857,18.5741514 L2.14285714,18.5741514 L2.14285714,32.6282054 C2.14285714,33.6289622 2.55330161,34.5039351 3.18080357,35.0606378 C3.80830554,35.6173405 4.59364393,35.8714486 5.35714286,35.8714486 L6.42857143,35.8714486 L6.42857143,38.0336108 C6.42863056,38.6306507 6.90829083,39.1146322 7.5,39.1146919 L28.9285714,39.1146919 C29.5202806,39.1146322 29.9999409,38.6306507 30,38.0336108 L30,19.6552324 C30.0023915,19.0956275 29.5811846,18.6266603 29.0290179,18.5741514 C28.9955541,18.572567 28.9620352,18.572567 28.9285714,18.5741514 L27.8571429,18.5741514 L27.8571429,3.43901622 C27.8571429,1.70901081 26.4482421,0.195772973 24.6428571,0.195772973 L11.7857143,0.195772973 Z M11.7857143,2.35793514 L24.6428571,2.35793514 C25.3701193,2.35793514 25.7142857,2.77327027 25.7142857,3.43901622 L25.7142857,18.5741514 L10.7142857,18.5741514 L10.7142857,3.43901622 C10.7142857,2.77327027 11.0584516,2.35793514 11.7857143,2.35793514 Z M12.8571429,3.43901622 C12.2654337,3.43907591 11.7857734,3.92305743 11.7857143,4.5200973 L11.7857143,14.249827 C11.7857734,14.8468669 12.2654337,15.3308484 12.8571429,15.3309081 L23.5714286,15.3309081 C24.1631377,15.3308484 24.642798,14.8468669 24.6428571,14.249827 L24.6428571,4.5200973 C24.6452486,3.96049239 24.2240417,3.49152517 23.671875,3.43901622 C23.6384113,3.43743189 23.6048923,3.43743189 23.5714286,3.43901622 L12.8571429,3.43901622 Z M13.9285714,5.60117838 L22.5,5.60117838 L22.5,13.1687459 L13.9285714,13.1687459 L13.9285714,5.60117838 Z M2.14285714,12.0876649 L3.31473214,12.0876649 L4.28571429,13.0673946 L4.28571429,16.4119892 L3.41517857,16.4119892 C3.31057791,16.3904007 3.20336693,16.3847072 3.09709821,16.3950973 C3.06336968,16.3991185 3.0298497,16.4047555 2.99665179,16.4119892 L2.14285714,16.4119892 L2.14285714,12.0876649 Z M8.57142857,20.7363135 L27.8571429,20.7363135 L27.8571429,36.9525297 L8.57142857,36.9525297 L8.57142857,20.7363135 Z" id="Shape"></path>
                    </g>
                </g>
                <path d="M18.0803571,22.7027027 C17.7393692,22.7476433 17.4404759,22.9549837 17.2767857,23.2601351 L13.5267857,30.2871622 C13.4389005,30.4474459 13.3928161,30.627632 13.3928571,30.8108108 C13.3928571,33.5376757 15.5889295,35.6756757 18.2142857,35.6756757 C20.8396409,35.6756757 23.0357143,33.5376757 23.0357143,30.8108108 C23.0357554,30.627632 22.9896709,30.4474459 22.9017857,30.2871622 L19.1517857,23.2601351 C18.9419102,22.8700208 18.5170448,22.648976 18.0803571,22.7027027 Z" id="Path" stroke="#30D6C7" fill="#30D6C7"></path>
                <path d="M18.2142857,26.0472973 L20.859375,30.9966216 C20.7653405,32.483973 19.6659691,33.5135135 18.2142857,33.5135135 C16.7626013,33.5135135 15.6632293,32.483973 15.5691964,30.9966216 L18.2142857,26.0472973 Z" id="Path" stroke="#FFFFFF" fill="#FFFFFF"></path>
            </g>
        </g>
    </g>
</svg>