<?xml version="1.0" encoding="UTF-8"?>
<svg width="33px" height="40px" viewBox="0 0 33 40" version="1.1" xmlns="http://www.w3.org/2000/svg" xmlns:xlink="http://www.w3.org/1999/xlink">
    <!-- Generator: Sketch 44.1 (41455) - http://www.bohemiancoding.com/sketch -->
    <title>Healthcare</title>
    <desc>Created with Sketch.</desc>
    <defs></defs>
    <g id="Page-1" stroke="none" stroke-width="1" fill="none" fill-rule="evenodd">
        <g id="What-we-do" transform="translate(-167.000000, -2561.000000)" stroke-width="0.5" stroke="#30D6C7" fill="#000000" fill-rule="nonzero">
            <g id="Healthcare" transform="translate(168.000000, 2562.000000)">
                <g id="Group">
                    <g id="Shape">
                        <path d="M30.4141349,31.4066225 C30.110752,30.5006623 29.3017309,29.3933775 27.2033326,29.3178808 L16.3068304,29.2927152 C15.9023199,29.2927152 15.2702722,28.8649007 14.789916,28.5629139 L13.6016663,27.807947 C12.9696186,27.4304636 12.7673634,26.5748344 13.1718739,25.9456954 L13.8292035,24.8635762 C14.7646341,23.3033113 14.5623788,21.2397351 13.3488472,19.8807947 C13.3488472,19.8807947 13.3235653,19.8556291 13.3235653,19.8556291 C12.9696186,19.4781457 12.4639805,19.2768212 11.9583423,19.3271523 C11.4527042,19.3774834 10.9976298,19.6543046 10.7448107,20.0821192 L9.40486964,21.818543 L8.52000287,22.4476821 C7.38231703,23.2529801 6.42160454,24.3602649 5.76427494,25.5933775 L3.91869568,28.9907285 L0.809021044,29.7456954 C0.303382892,29.8715232 5.02375919e-15,30.3748344 0.101127631,30.8781457 C0.227537169,31.381457 0.733175321,31.6834437 1.23881347,31.5827815 L4.75299864,30.7271523 C5.00581771,30.6516556 5.23335488,30.5006623 5.35976442,30.2490066 L7.40759894,26.4741722 C7.91323709,25.4927152 8.67169432,24.6119205 9.58184299,23.9827815 L10.5931193,23.2781457 C10.668965,23.2278146 10.7448107,23.1523179 10.7953746,23.0768212 L12.1353157,21.3907285 C12.6409538,22.1205298 12.6662357,23.1271523 12.2111614,23.8821192 L11.5538318,24.9642384 C10.6436831,26.4741722 11.0987575,28.4622517 12.6156719,29.3933775 L13.6016663,30.0225166 L13.7533578,30.1231788 C14.4612512,30.6013245 15.3461179,31.1801325 16.3068304,31.1801325 L27.1527688,31.205298 C27.9365079,31.2304636 28.2904546,31.4317881 28.467428,31.7086093 L17.9501544,33.6463576 C17.3686705,33.7470199 16.7871867,33.8225166 16.2309847,33.8225166 L10.0369173,33.9231788 C9.98635352,33.9231788 9.91050779,33.9231788 9.85994398,33.9483444 L0.85958486,35.8860927 C0.353946707,35.986755 0.0252819076,36.4900662 0.126409538,37.018543 C0.227537169,37.4715232 0.606765783,37.7735099 1.06184012,37.7735099 C1.13768584,37.7735099 1.18824966,37.7735099 1.26409538,37.7483444 L10.1633269,35.8357616 L16.2815485,35.7350993 C16.96416,35.7099338 17.6467715,35.6344371 18.3041011,35.5086093 L29.5292681,33.4450331 C29.9084967,33.3695364 30.2118796,33.1430464 30.4141349,32.815894 C30.6163901,32.4887417 30.6416721,32.0860927 30.5152625,31.7337748 L30.4141349,31.4066225 Z"></path>
                        <path d="M30.7933635,11.802649 L18.6833297,11.802649 C18.3041011,11.802649 17.9501544,12.0291391 17.8237449,12.381457 L16.5343676,15.3761589 L13.0960282,7.32317881 C12.9443367,6.97086093 12.6156719,6.74437086 12.2364433,6.74437086 C11.8572147,6.74437086 11.503268,6.97086093 11.3768584,7.32317881 L9.45543346,11.7774834 L2.19952596,11.7774834 C2.19952596,11.7774834 2.19952596,11.7774834 2.19952596,11.7774834 C1.6686059,11.7774834 1.23881347,12.205298 1.23881347,12.7086093 C1.23881347,13.2370861 1.6686059,13.6649007 2.17424406,13.6649007 L10.0369173,13.6649007 C10.4161459,13.6649007 10.7700927,13.4384106 10.8965022,13.0860927 L12.1858795,10.0913907 L15.6242189,18.1443709 C15.7759104,18.4966887 16.1045752,18.7231788 16.4838038,18.7231788 C16.8630324,18.7231788 17.2169791,18.4966887 17.3433886,18.1443709 L19.2648136,13.6900662 L30.7427997,13.6900662 C31.2737197,13.6900662 31.7035122,13.2622517 31.7035122,12.7337748 C31.754076,12.2304636 31.3242836,11.802649 30.7933635,11.802649 Z"></path>
                        <path d="M8.57056669,19.3019868 C8.74754004,19.4529801 8.97507721,19.5284768 9.20261438,19.5284768 C9.45543346,19.5284768 9.73353444,19.4278146 9.91050779,19.2013245 C10.2644545,18.7986755 10.2138907,18.2198675 9.80938016,17.8675497 C9.22789629,17.3642384 8.67169432,16.8357616 8.11549235,16.3072848 L7.07893414,15.3006623 C6.69970552,14.9231788 6.09293974,14.9483444 5.73899303,15.3006623 C5.35976442,15.6781457 5.38504633,16.2821192 5.73899303,16.6344371 L6.77555125,17.6410596 C7.35703512,18.2198675 7.9638009,18.7735099 8.57056669,19.3019868 Z"></path>
                        <path d="M3.59003088,10.6198675 C4.09566904,10.5192053 4.42433384,10.015894 4.32320621,9.51258278 C4.22207858,9.08476821 4.19679667,8.63178808 4.19679667,8.17880795 C4.19679667,7.32317881 4.34848811,6.49271523 4.67715291,5.71258278 C4.9805358,4.95761589 5.43561014,4.2781457 5.99181211,3.69933775 C6.54801408,3.1205298 7.20534368,2.66754967 7.9638009,2.36556291 C9.48071536,1.71125828 11.225167,1.71125828 12.7420814,2.36556291 C13.4752568,2.69271523 14.1325864,3.14569536 14.6887883,3.69933775 C14.8657617,3.87549669 15.042735,4.07682119 15.1944265,4.30331126 C15.3461179,4.50463576 15.4978094,4.73112583 15.6242189,4.95761589 C15.8011923,5.25960265 16.1045752,5.43576159 16.43324,5.43576159 C16.7619048,5.43576159 17.0905696,5.25960265 17.242261,4.95761589 C17.3686705,4.73112583 17.520362,4.50463576 17.6720534,4.30331126 C17.8237449,4.10198675 18.0007182,3.90066225 18.1776916,3.69933775 C18.7338936,3.1205298 19.3912232,2.66754967 20.1243985,2.36556291 C20.8828557,2.0384106 21.6918768,1.86225166 22.5008978,1.86225166 C22.5008978,1.86225166 22.5008978,1.86225166 22.5008978,1.86225166 C23.3352007,1.86225166 24.1442218,2.0384106 24.902679,2.36556291 C25.6358543,2.69271523 26.2931839,3.14569536 26.8746678,3.69933775 C27.4308698,4.2781457 27.8859441,4.95761589 28.189327,5.71258278 C28.5179918,6.49271523 28.6696833,7.32317881 28.6696833,8.17880795 C28.6696833,8.63178808 28.6191194,9.05960265 28.5432737,9.51258278 C28.4421461,10.015894 28.7708109,10.5192053 29.276449,10.6198675 C29.3522948,10.6450331 29.4028586,10.6450331 29.4787043,10.6450331 C29.9084967,10.6450331 30.3130073,10.3430464 30.4141349,9.89006623 C30.5405444,9.33642384 30.5911082,8.75761589 30.5911082,8.17880795 C30.5911082,7.07152318 30.388853,6.01456954 29.9590605,5.00794702 C29.55455,4.02649007 28.9730661,3.14569536 28.2398908,2.41589404 C27.5067155,1.66092715 26.6471306,1.08211921 25.6864182,0.654304636 C24.7004238,0.226490066 23.6385836,-7.10542736e-15 22.5514616,-7.10542736e-15 C22.5514616,-7.10542736e-15 22.5514616,-7.10542736e-15 22.5514616,-7.10542736e-15 C21.4643396,-7.10542736e-15 20.4024995,0.226490066 19.4165051,0.654304636 C18.4557926,1.05695364 17.5962077,1.66092715 16.8630324,2.41589404 C16.7113409,2.56688742 16.5849314,2.71788079 16.43324,2.86887417 C16.3068304,2.71788079 16.155139,2.54172185 16.0034475,2.41589404 C15.2702722,1.66092715 14.4106874,1.08211921 13.4499749,0.654304636 C11.4527042,-0.201324503 9.15205056,-0.201324503 7.15477986,0.654304636 C6.19406737,1.05695364 5.33448251,1.66092715 4.60130719,2.41589404 C3.86813187,3.17086093 3.28664799,4.05165563 2.88213747,5.00794702 C2.45234504,6.01456954 2.25008978,7.09668874 2.25008978,8.17880795 C2.25008978,8.75761589 2.30065359,9.33642384 2.42706313,9.89006623 C2.57875458,10.418543 3.08439273,10.7456954 3.59003088,10.6198675 Z"></path>
                    </g>
                    <path d="M16.4838038,24.7880795 C16.155139,24.7880795 15.8517561,24.6119205 15.6747827,24.3350993 C15.3966817,23.8821192 15.5483732,23.3033113 16.0034475,23.0516556 L16.155139,22.9509934 C17.520362,22.1456954 18.9361488,21.3152318 20.2255261,20.384106 C22.3492063,18.8741722 24.3211951,17.1377483 26.1162106,15.2251656 C26.4701573,14.8476821 27.0769231,14.8225166 27.4561517,15.1748344 C27.8353803,15.5271523 27.8606622,16.1311258 27.5067155,16.5086093 C25.6358543,18.5218543 23.5627379,20.3337748 21.33793,21.9192053 C19.972707,22.9006623 18.5316383,23.7562914 17.1411334,24.5615894 L16.9894419,24.6622517 C16.8124686,24.7377483 16.6607771,24.7880795 16.4838038,24.7880795 Z" id="Shape"></path>
                </g>
            </g>
        </g>
    </g>
</svg>