<?xml version="1.0" encoding="UTF-8"?>
<svg width="78px" height="32px" viewBox="0 0 78 32" version="1.1" xmlns="http://www.w3.org/2000/svg" xmlns:xlink="http://www.w3.org/1999/xlink">
    <!-- Generator: Sketch 44.1 (41455) - http://www.bohemiancoding.com/sketch -->
    <title>home_icon</title>
    <desc>Created with Sketch.</desc>
    <defs>
        <path d="M9.94098099,19.5552876 C9.57634781,19.8036504 9.20471234,20.0709355 8.82607456,20.3571429 C10.4014113,18.8091334 11.8853536,17.3629075 13.2779014,16.0184652 C19.5585616,9.46718994 23.7751636,5.45123096 25.9277075,3.97058824 C27.3946851,2.96151722 28.797752,2.39206051 30.1369082,2.09805517 C33.2404585,1.11955056 36.0160779,1.85815643 37.1749842,2.14285714 C37.8999575,2.32095645 41.5171571,4.18652593 45.4575043,6.27800537 C46.0795657,6.58656366 46.5533466,6.82510015 46.8045629,6.94852941 C48.1514568,7.61029412 49.8350742,8.27205882 51.8554151,8.27205882 C53.8757559,8.27205882 54.8859263,8.27205882 60.2735019,6.28676471 C63.865219,4.96323529 69.3650357,2.86764706 76.7729522,0 L76.0995052,1.65441176 L64.6509071,12.9044118 L62.7631442,14.7594278 C57.277183,20.6251388 53.5937638,24.2767581 51.7128866,25.7142857 C48.4418586,28.2142857 45.1708305,29.2857143 40.8094598,27.8571429 C36.4480891,26.4285714 31.7232708,23.9285714 29.1791379,22.5 C28.8720241,22.3275507 28.5066527,22.1238757 28.0958099,21.8983985 C27.3573629,21.7635249 26.4913068,21.6810083 25.2542606,21.5073529 C23.6828844,21.2867647 21.8870258,21.5073529 19.866685,22.1691176 L9.76498076,26.4705882 L0.336723474,29.7794118 L9.94098099,19.5552876 Z M9.94098099,19.5552876 C12.6097227,17.7375261 14.9033694,16.9333826 16.8219209,17.1428571 C19.6980884,17.4568877 25.1032282,20.2560206 28.0958099,21.8983985 C28.7643978,22.0205126 29.3283789,22.1855459 29.9683892,22.5 C31.3152831,23.1617647 36.3661352,26.1397059 37.3763057,26.4705882 C38.3864761,26.8014706 40.0700935,27.4632353 42.4271578,27.7941176 C44.7842221,28.125 46.8045629,27.7941176 48.4881803,27.1323529 C49.6105919,26.6911765 51.7431739,25.1470588 54.8859263,22.5 L62.7631442,14.7594278 C63.6375956,13.824445 64.5578455,12.8332072 65.5238939,11.7857143 C61.6471199,13.2142857 58.3760919,13.2142857 55.7108098,11.7857143 C53.7065632,10.711453 49.4187422,8.38057331 45.4575043,6.27800537 C42.7443899,4.93223157 37.2105964,2.25446184 35.0192413,1.98529412 C33.4990356,1.79856477 31.8715912,1.71721381 30.1369082,2.09805517 C29.3472093,2.34703585 28.5362785,2.70719068 27.7253477,3.21428571 C25.4827169,4.61665808 20.6669015,8.8847179 13.2779014,16.0184652 C13.0086505,16.2993173 12.7356062,16.5848289 12.4587686,16.875 L9.94098099,19.5552876 Z" id="path-1"></path>
    </defs>
    <g id="Page-1" stroke="none" stroke-width="1" fill="none" fill-rule="evenodd">
        <g id="menu" transform="translate(-254.000000, -253.000000)">
            <g id="home_icon" transform="translate(254.623562, 254.000000)">
                <mask id="mask-2" fill="white">
                    <use xlink:href="#path-1"></use>
                </mask>
                <use id="Combined-Shape" stroke="#30D6C7" xlink:href="#path-1"></use>
            </g>
        </g>
    </g>
</svg>