<?xml version="1.0" encoding="UTF-8"?>
<svg width="78px" height="32px" viewBox="0 0 78 32" version="1.1" xmlns="http://www.w3.org/2000/svg" xmlns:xlink="http://www.w3.org/1999/xlink">
    <!-- Generator: Sketch 44.1 (41455) - http://www.bohemiancoding.com/sketch -->
    <title>home</title>
    <desc>Created with Sketch.</desc>
    <defs>
        <path d="M0.336723474,29.7794118 L9.76498076,26.4705882 L19.866685,22.1691176 C21.8870258,21.5073529 23.6828844,21.2867647 25.2542606,21.5073529 C27.6113249,21.8382353 28.6214953,21.8382353 29.9683892,22.5 C31.3152831,23.1617647 36.3661352,26.1397059 37.3763057,26.4705882 C38.3864761,26.8014706 40.0700935,27.4632353 42.4271578,27.7941176 C44.7842221,28.125 46.8045629,27.7941176 48.4881803,27.1323529 C49.6105919,26.6911765 51.7431739,25.1470588 54.8859263,22.5 L64.6509071,12.9044118 L76.0995052,1.65441176 L76.7729522,0 C69.3650357,2.86764706 63.865219,4.96323529 60.2735019,6.28676471 C54.8859263,8.27205882 53.8757559,8.27205882 51.8554151,8.27205882 C49.8350742,8.27205882 48.1514568,7.61029412 46.8045629,6.94852941 C45.457669,6.28676471 37.7130291,2.31617647 35.0192413,1.98529412 C32.3254535,1.65441176 29.2949423,1.65441176 25.9277075,3.97058824 C23.6828844,5.51470588 19.193238,9.81617647 12.4587686,16.875 L0.336723474,29.7794118 Z" id="path-1"></path>
    </defs>
    <g id="Page-1" stroke="none" stroke-width="1" fill="none" fill-rule="evenodd">
        <g id="menu" transform="translate(-254.000000, -253.000000)">
            <g id="home" transform="translate(254.000000, 254.000000)">
                <g id="Group-Copy">
                    <g id="logo" transform="translate(0.623562, 0.000000)">
                        <mask id="mask-2" fill="white">
                            <use xlink:href="#path-1"></use>
                        </mask>
                        <use id="Mask" stroke="#FFFFFF" xlink:href="#path-1"></use>
                    </g>
                </g>
                <path d="M9.44963655,20.3571429 C12.5995154,17.9761905 15.2647975,16.9047619 17.4454829,17.1428571 C20.7165109,17.5 27.258567,21.0714286 29.8026999,22.5 C32.3468328,23.9285714 37.0716511,26.4285714 41.4330218,27.8571429 C45.7943925,29.2857143 49.0654206,28.2142857 52.3364486,25.7142857 C54.517134,24.047619 59.120803,19.4047619 66.1474559,11.7857143 C62.2706819,13.2142857 58.9996539,13.2142857 56.3343718,11.7857143 C52.3364486,9.64285714 39.2523364,2.5 37.7985462,2.14285714 C36.344756,1.78571429 32.3468328,0.714285714 28.3489097,3.21428571 C25.6836276,4.88095238 19.3838699,10.5952381 9.44963655,20.3571429 Z" id="Path-5" stroke="#FFFFFF"></path>
            </g>
        </g>
    </g>
</svg>