<?xml version="1.0" encoding="UTF-8"?>
<svg width="31px" height="32px" viewBox="0 0 31 32" version="1.1" xmlns="http://www.w3.org/2000/svg" xmlns:xlink="http://www.w3.org/1999/xlink">
    <!-- Generator: Sketch 44.1 (41455) - http://www.bohemiancoding.com/sketch -->
    <title>ideas_btn_banner</title>
    <desc>Created with Sketch.</desc>
    <defs></defs>
    <g id="Page-1" stroke="none" stroke-width="1" fill="none" fill-rule="evenodd">
        <g id="NexGenSm_Wesite_Home_Page-UI" transform="translate(-1392.000000, -637.000000)" fill-rule="nonzero" fill="#FFFFFF">
            <g id="Group-9" transform="translate(1179.000000, 630.000000)">
                <g id="noun_1079383_cc" transform="translate(213.000000, 7.000000)">
                    <g id="ideas_btn_banner">
                        <path d="M21.6158571,9.06317241 C19.8499643,7.38206897 17.5316071,6.52027586 15.0809464,6.63062069 C10.5344643,6.83972414 6.83107143,10.5550345 6.65005357,15.0896552 C6.552625,17.5382069 7.44221429,19.8510345 9.15441071,21.6022069 C10.3910893,22.8662069 11.0714286,24.6002759 11.0714286,26.4827586 C11.0714286,26.7873103 11.318875,27.0344828 11.625,27.0344828 L19.375,27.0344828 C19.681125,27.0344828 19.9285714,26.7856552 19.9285714,26.4811034 C19.9285714,24.6273103 20.6321607,22.8706207 21.9114643,21.5348966 C23.4891429,19.8868966 24.3571429,17.7252414 24.3571429,15.4482759 C24.3571429,13.0129655 23.3834107,10.7453793 21.6158571,9.06317241 Z M14.3928571,17.6551724 L13.0089286,17.6551724 C12.2455536,17.6551724 11.625,17.0361379 11.625,16.2758621 C11.625,15.5155862 12.2455536,14.8965517 13.0089286,14.8965517 C13.7723036,14.8965517 14.3928571,15.5155862 14.3928571,16.2758621 L14.3928571,17.6551724 Z M16.0535714,25.9310345 L14.9464286,25.9310345 L14.9464286,18.2068966 L16.0535714,18.2068966 L16.0535714,25.9310345 Z M21.1104464,20.7724138 C19.7619464,22.182069 18.9675714,23.9955862 18.8391429,25.9310345 L16.6071429,25.9310345 L16.6071429,18.2068966 L17.9910714,18.2068966 C19.0594643,18.2068966 19.9285714,17.3406897 19.9285714,16.2758621 C19.9285714,15.2110345 19.0594643,14.3448276 17.9910714,14.3448276 C16.9226786,14.3448276 16.0535714,15.2110345 16.0535714,16.2758621 L16.0535714,17.6551724 L14.9464286,17.6551724 L14.9464286,16.2758621 C14.9464286,15.2110345 14.0773214,14.3448276 13.0089286,14.3448276 C11.9405357,14.3448276 11.0714286,15.2110345 11.0714286,16.2758621 C11.0714286,17.3406897 11.9405357,18.2068966 13.0089286,18.2068966 L14.3928571,18.2068966 L14.3928571,25.9310345 L12.1614107,25.9310345 C12.0385179,23.9724138 11.2635179,22.1787586 9.947125,20.832 C8.44916071,19.2998621 7.67083929,17.2761379 7.75608929,15.1326897 C7.91441071,11.1663448 11.1550179,7.91558621 15.131875,7.73241379 C17.2775179,7.63531034 19.30525,8.38951724 20.851375,9.86096552 C22.3980536,11.3335172 23.25,13.3175172 23.25,15.4482759 C23.25,17.4394483 22.4899464,19.3313103 21.1104464,20.7724138 Z M16.6071429,17.6551724 L16.6071429,16.2758621 C16.6071429,15.5155862 17.2276964,14.8965517 17.9910714,14.8965517 C18.7544464,14.8965517 19.375,15.5155862 19.375,16.2758621 C19.375,17.0361379 18.7544464,17.6551724 17.9910714,17.6551724 L16.6071429,17.6551724 Z M19.375,28.137931 C19.375,28.4424828 19.1275536,28.6896552 18.8214286,28.6896552 L12.1785714,28.6896552 C11.8724464,28.6896552 11.625,28.4424828 11.625,28.137931 C11.625,27.8333793 11.8724464,27.5862069 12.1785714,27.5862069 L18.8214286,27.5862069 C19.1275536,27.5862069 19.375,27.8333793 19.375,28.137931 Z M19.375,29.7931034 C19.375,30.0976552 19.1275536,30.3448276 18.8214286,30.3448276 L12.1785714,30.3448276 C11.8724464,30.3448276 11.625,30.0976552 11.625,29.7931034 C11.625,29.4885517 11.8724464,29.2413793 12.1785714,29.2413793 L18.8214286,29.2413793 C19.1275536,29.2413793 19.375,29.4885517 19.375,29.7931034 Z M18.2678571,31.4482759 C18.2678571,31.7528276 18.0204107,32 17.7142857,32 L13.2857143,32 C12.9795893,32 12.7321429,31.7528276 12.7321429,31.4482759 C12.7321429,31.1437241 12.9795893,30.8965517 13.2857143,30.8965517 L17.7142857,30.8965517 C18.0204107,30.8965517 18.2678571,31.1437241 18.2678571,31.4482759 Z M8.141375,22.7823448 C8.35782143,22.998069 8.35782143,23.3467586 8.141375,23.5624828 L5.37351786,26.3211034 C5.157625,26.5368276 4.80666071,26.5368276 4.59076786,26.3211034 C4.37432143,26.1053793 4.37432143,25.7566897 4.59076786,25.5409655 L7.358625,22.7823448 C7.57507143,22.5666207 7.92492857,22.5666207 8.141375,22.7823448 Z M4.53983929,16 L0.625535714,16 C0.319410714,16 0.0719642857,15.7528276 0.0719642857,15.4482759 C0.0719642857,15.1437241 0.319410714,14.8965517 0.625535714,14.8965517 L4.53983929,14.8965517 C4.84596429,14.8965517 5.09341071,15.1437241 5.09341071,15.4482759 C5.09341071,15.7528276 4.84596429,16 4.53983929,16 Z M4.59076786,5.35558621 C4.37432143,5.13986207 4.37432143,4.79117241 4.59076786,4.57544828 C4.80721429,4.35972414 5.15707143,4.35972414 5.37351786,4.57544828 L8.141375,7.33406897 C8.35782143,7.5497931 8.35782143,7.89848276 8.141375,8.1142069 C7.92492857,8.32993103 7.57507143,8.32993103 7.358625,8.1142069 L4.59076786,5.35558621 Z M14.9464286,4.52468966 L14.9464286,0.551724138 C14.9464286,0.247172414 15.193875,0 15.5,0 C15.806125,0 16.0535714,0.247172414 16.0535714,0.551724138 L16.0535714,4.52468966 C16.0535714,4.82924138 15.806125,5.07641379 15.5,5.07641379 C15.193875,5.07641379 14.9464286,4.82924138 14.9464286,4.52468966 Z M22.858625,8.1142069 C22.6421786,7.89848276 22.6421786,7.5497931 22.858625,7.33406897 L25.6264821,4.57544828 C25.8429286,4.35972414 26.1927857,4.35972414 26.4092321,4.57544828 C26.6256786,4.79117241 26.6256786,5.13986207 26.4092321,5.35558621 L23.641375,8.1142069 C23.424375,8.32993103 23.075625,8.32993103 22.858625,8.1142069 Z M30.9280357,15.4482759 C30.9280357,15.7528276 30.6805893,16 30.3744643,16 L26.4601607,16 C26.1540357,16 25.9065893,15.7528276 25.9065893,15.4482759 C25.9065893,15.1437241 26.1540357,14.8965517 26.4601607,14.8965517 L30.3744643,14.8965517 C30.6805893,14.8965517 30.9280357,15.1437241 30.9280357,15.4482759 Z M26.4092321,25.5409655 C26.6256786,25.7566897 26.6256786,26.1053793 26.4092321,26.3211034 C26.1927857,26.5368276 25.8429286,26.5368276 25.6264821,26.3211034 L22.858625,23.5624828 C22.6421786,23.3467586 22.6421786,22.998069 22.858625,22.7823448 C23.0750714,22.5666207 23.4249286,22.5666207 23.641375,22.7823448 L26.4092321,25.5409655 Z" id="Shape"></path>
                    </g>
                </g>
            </g>
        </g>
    </g>
</svg>