<?xml version="1.0" encoding="UTF-8"?>
<svg width="76px" height="79px" viewBox="0 0 76 79" version="1.1" xmlns="http://www.w3.org/2000/svg" xmlns:xlink="http://www.w3.org/1999/xlink">
    <!-- Generator: Sketch 44.1 (41455) - http://www.bohemiancoding.com/sketch -->
    <title>idea</title>
    <desc>Created with Sketch.</desc>
    <defs></defs>
    <g id="Page-1" stroke="none" stroke-width="1" fill="none" fill-rule="evenodd">
        <g id="Share-your-ideas" transform="translate(-154.000000, -205.000000)" stroke="#543E6A" fill-rule="nonzero" fill="#FFFFFF">
            <path d="M206.667241,227.587293 C202.432221,223.555618 196.872264,221.488838 190.995013,221.753471 C180.091496,222.254949 171.209903,231.165123 170.77578,242.040193 C170.542124,247.912387 172.675565,253.459082 176.781808,257.658799 C179.74765,260.690164 181.379261,264.848862 181.379261,269.363492 C181.379261,270.093877 181.972695,270.686654 182.706853,270.686654 L201.293147,270.686654 C202.027305,270.686654 202.620739,270.089908 202.620739,269.359522 C202.620739,264.913697 204.308109,260.700749 207.376175,257.497373 C211.159813,253.545088 213.241478,248.360939 213.241478,242.900248 C213.241478,237.059811 210.906243,231.621614 206.667241,227.587293 Z M189.344815,248.192897 L186.025834,248.192897 C184.195084,248.192897 182.706853,246.708309 182.706853,244.884992 C182.706853,243.061674 184.195084,241.577086 186.025834,241.577086 C187.856584,241.577086 189.344815,243.061674 189.344815,244.884992 L189.344815,248.192897 Z M193.327592,268.040329 L190.672408,268.040329 L190.672408,249.516059 L193.327592,249.516059 L193.327592,268.040329 Z M205.455149,255.668763 C202.221134,259.049443 200.316039,263.398677 200.008037,268.040329 L194.655185,268.040329 L194.655185,249.516059 L197.974166,249.516059 C200.536419,249.516059 202.620739,247.438695 202.620739,244.884992 C202.620739,242.331289 200.536419,240.253924 197.974166,240.253924 C195.411912,240.253924 193.327592,242.331289 193.327592,244.884992 L193.327592,248.192897 L190.672408,248.192897 L190.672408,244.884992 C190.672408,242.331289 188.588088,240.253924 186.025834,240.253924 C183.463581,240.253924 181.379261,242.331289 181.379261,244.884992 C181.379261,247.438695 183.463581,249.516059 186.025834,249.516059 L189.344815,249.516059 L189.344815,268.040329 L183.99329,268.040329 C183.698565,263.343104 181.839935,259.041504 178.682921,255.811665 C175.090456,252.137243 173.223861,247.283885 173.42831,242.1434 C173.808001,232.631187 181.579727,224.835115 191.117151,224.395826 C196.262899,224.162949 201.12587,225.971712 204.833836,229.500585 C208.543129,233.032105 210.586294,237.790196 210.586294,242.900248 C210.586294,247.675541 208.763509,252.212664 205.455149,255.668763 Z M194.655185,248.192897 L194.655185,244.884992 C194.655185,243.061674 196.143416,241.577086 197.974166,241.577086 C199.804916,241.577086 201.293147,243.061674 201.293147,244.884992 C201.293147,246.708309 199.804916,248.192897 197.974166,248.192897 L194.655185,248.192897 Z M201.293147,273.332978 C201.293147,274.063364 200.699713,274.65614 199.965554,274.65614 L184.034446,274.65614 C183.300287,274.65614 182.706853,274.063364 182.706853,273.332978 C182.706853,272.602593 183.300287,272.009816 184.034446,272.009816 L199.965554,272.009816 C200.699713,272.009816 201.293147,272.602593 201.293147,273.332978 Z M201.293147,277.302465 C201.293147,278.03285 200.699713,278.625627 199.965554,278.625627 L184.034446,278.625627 C183.300287,278.625627 182.706853,278.03285 182.706853,277.302465 C182.706853,276.572079 183.300287,275.979302 184.034446,275.979302 L199.965554,275.979302 C200.699713,275.979302 201.293147,276.572079 201.293147,277.302465 Z M198.637962,281.271951 C198.637962,282.002337 198.044528,282.595113 197.31037,282.595113 L186.68963,282.595113 C185.955472,282.595113 185.362038,282.002337 185.362038,281.271951 C185.362038,280.541566 185.955472,279.948789 186.68963,279.948789 L197.31037,279.948789 C198.044528,279.948789 198.637962,280.541566 198.637962,281.271951 Z M174.352314,260.489043 C174.871403,261.006399 174.871403,261.842638 174.352314,262.359994 L167.714352,268.975805 C167.196591,269.493162 166.354898,269.493162 165.837137,268.975805 C165.318048,268.458449 165.318048,267.62221 165.837137,267.104854 L172.475099,260.489043 C172.994187,259.971687 173.833226,259.971687 174.352314,260.489043 Z M165.714998,244.223411 L156.327592,244.223411 C155.593434,244.223411 155,243.630634 155,242.900248 C155,242.169863 155.593434,241.577086 156.327592,241.577086 L165.714998,241.577086 C166.449157,241.577086 167.042591,242.169863 167.042591,242.900248 C167.042591,243.630634 166.449157,244.223411 165.714998,244.223411 Z M165.837137,218.695643 C165.318048,218.178287 165.318048,217.342048 165.837137,216.824692 C166.356225,216.307335 167.195264,216.307335 167.714352,216.824692 L174.352314,223.440502 C174.871403,223.957859 174.871403,224.794097 174.352314,225.311454 C173.833226,225.82881 172.994187,225.82881 172.475099,225.311454 L165.837137,218.695643 Z M190.672408,216.702961 L190.672408,207.17487 C190.672408,206.444484 191.265841,205.851708 192,205.851708 C192.734159,205.851708 193.327592,206.444484 193.327592,207.17487 L193.327592,216.702961 C193.327592,217.433346 192.734159,218.026123 192,218.026123 C191.265841,218.026123 190.672408,217.433346 190.672408,216.702961 Z M209.647686,225.311454 C209.128597,224.794097 209.128597,223.957859 209.647686,223.440502 L216.285648,216.824692 C216.804736,216.307335 217.643775,216.307335 218.162863,216.824692 C218.681952,217.342048 218.681952,218.178287 218.162863,218.695643 L211.524901,225.311454 C211.004485,225.82881 210.168102,225.82881 209.647686,225.311454 Z M229,242.900248 C229,243.630634 228.406566,244.223411 227.672408,244.223411 L218.285002,244.223411 C217.550843,244.223411 216.957409,243.630634 216.957409,242.900248 C216.957409,242.169863 217.550843,241.577086 218.285002,241.577086 L227.672408,241.577086 C228.406566,241.577086 229,242.169863 229,242.900248 Z M218.162863,267.104854 C218.681952,267.62221 218.681952,268.458449 218.162863,268.975805 C217.643775,269.493162 216.804736,269.493162 216.285648,268.975805 L209.647686,262.359994 C209.128597,261.842638 209.128597,261.006399 209.647686,260.489043 C210.166774,259.971687 211.005813,259.971687 211.524901,260.489043 L218.162863,267.104854 Z" id="idea"></path>
        </g>
    </g>
</svg>