<?xml version="1.0" encoding="UTF-8"?>
<svg width="31px" height="32px" viewBox="0 0 31 32" version="1.1" xmlns="http://www.w3.org/2000/svg" xmlns:xlink="http://www.w3.org/1999/xlink">
    <!-- Generator: Sketch 44.1 (41455) - http://www.bohemiancoding.com/sketch -->
    <title>idea</title>
    <desc>Created with Sketch.</desc>
    <defs></defs>
    <g id="Page-1" stroke="none" stroke-width="1" fill="none" fill-rule="evenodd">
        <g id="idea" transform="translate(-18.000000, -7.000000)">
            <g id="Group-5-Copy">
                <rect id="Rectangle-13-Copy-2" transform="translate(33.089744, 23.000000) scale(-1, 1) translate(-33.089744, -23.000000) " x="0" y="0" width="66.1794872" height="46"></rect>
                <path d="M39.6158571,16.0631724 C37.8499643,14.382069 35.5316071,13.5202759 33.0809464,13.6306207 C28.5344643,13.8397241 24.8310714,17.5550345 24.6500536,22.0896552 C24.552625,24.5382069 25.4422143,26.8510345 27.1544107,28.6022069 C28.3910893,29.8662069 29.0714286,31.6002759 29.0714286,33.4827586 C29.0714286,33.7873103 29.318875,34.0344828 29.625,34.0344828 L37.375,34.0344828 C37.681125,34.0344828 37.9285714,33.7856552 37.9285714,33.4811034 C37.9285714,31.6273103 38.6321607,29.8706207 39.9114643,28.5348966 C41.4891429,26.8868966 42.3571429,24.7252414 42.3571429,22.4482759 C42.3571429,20.0129655 41.3834107,17.7453793 39.6158571,16.0631724 Z M32.3928571,24.6551724 L31.0089286,24.6551724 C30.2455536,24.6551724 29.625,24.0361379 29.625,23.2758621 C29.625,22.5155862 30.2455536,21.8965517 31.0089286,21.8965517 C31.7723036,21.8965517 32.3928571,22.5155862 32.3928571,23.2758621 L32.3928571,24.6551724 Z M34.0535714,32.9310345 L32.9464286,32.9310345 L32.9464286,25.2068966 L34.0535714,25.2068966 L34.0535714,32.9310345 Z M39.1104464,27.7724138 C37.7619464,29.182069 36.9675714,30.9955862 36.8391429,32.9310345 L34.6071429,32.9310345 L34.6071429,25.2068966 L35.9910714,25.2068966 C37.0594643,25.2068966 37.9285714,24.3406897 37.9285714,23.2758621 C37.9285714,22.2110345 37.0594643,21.3448276 35.9910714,21.3448276 C34.9226786,21.3448276 34.0535714,22.2110345 34.0535714,23.2758621 L34.0535714,24.6551724 L32.9464286,24.6551724 L32.9464286,23.2758621 C32.9464286,22.2110345 32.0773214,21.3448276 31.0089286,21.3448276 C29.9405357,21.3448276 29.0714286,22.2110345 29.0714286,23.2758621 C29.0714286,24.3406897 29.9405357,25.2068966 31.0089286,25.2068966 L32.3928571,25.2068966 L32.3928571,32.9310345 L30.1614107,32.9310345 C30.0385179,30.9724138 29.2635179,29.1787586 27.947125,27.832 C26.4491607,26.2998621 25.6708393,24.2761379 25.7560893,22.1326897 C25.9144107,18.1663448 29.1550179,14.9155862 33.131875,14.7324138 C35.2775179,14.6353103 37.30525,15.3895172 38.851375,16.8609655 C40.3980536,18.3335172 41.25,20.3175172 41.25,22.4482759 C41.25,24.4394483 40.4899464,26.3313103 39.1104464,27.7724138 Z M34.6071429,24.6551724 L34.6071429,23.2758621 C34.6071429,22.5155862 35.2276964,21.8965517 35.9910714,21.8965517 C36.7544464,21.8965517 37.375,22.5155862 37.375,23.2758621 C37.375,24.0361379 36.7544464,24.6551724 35.9910714,24.6551724 L34.6071429,24.6551724 Z M37.375,35.137931 C37.375,35.4424828 37.1275536,35.6896552 36.8214286,35.6896552 L30.1785714,35.6896552 C29.8724464,35.6896552 29.625,35.4424828 29.625,35.137931 C29.625,34.8333793 29.8724464,34.5862069 30.1785714,34.5862069 L36.8214286,34.5862069 C37.1275536,34.5862069 37.375,34.8333793 37.375,35.137931 Z M37.375,36.7931034 C37.375,37.0976552 37.1275536,37.3448276 36.8214286,37.3448276 L30.1785714,37.3448276 C29.8724464,37.3448276 29.625,37.0976552 29.625,36.7931034 C29.625,36.4885517 29.8724464,36.2413793 30.1785714,36.2413793 L36.8214286,36.2413793 C37.1275536,36.2413793 37.375,36.4885517 37.375,36.7931034 Z M36.2678571,38.4482759 C36.2678571,38.7528276 36.0204107,39 35.7142857,39 L31.2857143,39 C30.9795893,39 30.7321429,38.7528276 30.7321429,38.4482759 C30.7321429,38.1437241 30.9795893,37.8965517 31.2857143,37.8965517 L35.7142857,37.8965517 C36.0204107,37.8965517 36.2678571,38.1437241 36.2678571,38.4482759 Z M26.141375,29.7823448 C26.3578214,29.998069 26.3578214,30.3467586 26.141375,30.5624828 L23.3735179,33.3211034 C23.157625,33.5368276 22.8066607,33.5368276 22.5907679,33.3211034 C22.3743214,33.1053793 22.3743214,32.7566897 22.5907679,32.5409655 L25.358625,29.7823448 C25.5750714,29.5666207 25.9249286,29.5666207 26.141375,29.7823448 Z M22.5398393,23 L18.6255357,23 C18.3194107,23 18.0719643,22.7528276 18.0719643,22.4482759 C18.0719643,22.1437241 18.3194107,21.8965517 18.6255357,21.8965517 L22.5398393,21.8965517 C22.8459643,21.8965517 23.0934107,22.1437241 23.0934107,22.4482759 C23.0934107,22.7528276 22.8459643,23 22.5398393,23 Z M22.5907679,12.3555862 C22.3743214,12.1398621 22.3743214,11.7911724 22.5907679,11.5754483 C22.8072143,11.3597241 23.1570714,11.3597241 23.3735179,11.5754483 L26.141375,14.334069 C26.3578214,14.5497931 26.3578214,14.8984828 26.141375,15.1142069 C25.9249286,15.329931 25.5750714,15.329931 25.358625,15.1142069 L22.5907679,12.3555862 Z M32.9464286,11.5246897 L32.9464286,7.55172414 C32.9464286,7.24717241 33.193875,7 33.5,7 C33.806125,7 34.0535714,7.24717241 34.0535714,7.55172414 L34.0535714,11.5246897 C34.0535714,11.8292414 33.806125,12.0764138 33.5,12.0764138 C33.193875,12.0764138 32.9464286,11.8292414 32.9464286,11.5246897 Z M40.858625,15.1142069 C40.6421786,14.8984828 40.6421786,14.5497931 40.858625,14.334069 L43.6264821,11.5754483 C43.8429286,11.3597241 44.1927857,11.3597241 44.4092321,11.5754483 C44.6256786,11.7911724 44.6256786,12.1398621 44.4092321,12.3555862 L41.641375,15.1142069 C41.424375,15.329931 41.075625,15.329931 40.858625,15.1142069 Z M48.9280357,22.4482759 C48.9280357,22.7528276 48.6805893,23 48.3744643,23 L44.4601607,23 C44.1540357,23 43.9065893,22.7528276 43.9065893,22.4482759 C43.9065893,22.1437241 44.1540357,21.8965517 44.4601607,21.8965517 L48.3744643,21.8965517 C48.6805893,21.8965517 48.9280357,22.1437241 48.9280357,22.4482759 Z M44.4092321,32.5409655 C44.6256786,32.7566897 44.6256786,33.1053793 44.4092321,33.3211034 C44.1927857,33.5368276 43.8429286,33.5368276 43.6264821,33.3211034 L40.858625,30.5624828 C40.6421786,30.3467586 40.6421786,29.998069 40.858625,29.7823448 C41.0750714,29.5666207 41.4249286,29.5666207 41.641375,29.7823448 L44.4092321,32.5409655 Z" id="Shape" fill="#FFFFFF" fill-rule="nonzero"></path>
            </g>
        </g>
    </g>
</svg>