<?xml version="1.0" encoding="UTF-8"?>
<svg width="62px" height="62px" viewBox="0 0 62 62" version="1.1" xmlns="http://www.w3.org/2000/svg" xmlns:xlink="http://www.w3.org/1999/xlink">
    <!-- Generator: Sketch 44.1 (41455) - http://www.bohemiancoding.com/sketch -->
    <title>launch</title>
    <desc>Created with Sketch.</desc>
    <defs></defs>
    <g id="Page-1" stroke="none" stroke-width="1" fill="none" fill-rule="evenodd">
        <g id="Share-your-ideas" transform="translate(-934.000000, -217.000000)" stroke-width="1.2" stroke="#543E6A" fill="#FFFFFF" fill-rule="nonzero">
            <g id="launch" transform="translate(934.000000, 217.000000)">
                <g id="noun_664190_cc">
                    <g id="Group" transform="translate(0.355836, 0.495964)">
                        <path d="M59.3325075,0.281628261 C52.4091221,0.281636037 43.2851817,2.74720911 35.0119586,7.79025075 C31.7482238,9.7796996 28.6201592,12.193083 25.8375733,15.0072763 C24.3727854,14.8463256 22.9845203,14.7345149 21.695856,14.6913795 C17.3519999,14.5459776 13.945041,15.0775317 11.0044464,16.4409615 C7.08365337,18.2588704 4.19724708,21.4425263 1.05950906,25.7963649 C0.765450516,26.2062918 0.687405987,26.7349606 0.850292901,27.2135822 C1.01317981,27.6922038 1.39663076,28.0609311 1.87822061,28.2020401 L16.9039855,32.7460931 L28.7030637,44.6529702 L33.2059772,59.8160137 C33.3515606,60.2977913 33.7193201,60.6785988 34.1928265,60.8378763 C34.6663329,60.9971538 35.1869564,60.9151794 35.5898726,60.6179054 C39.9042536,57.4514732 43.0350521,54.5387303 44.8364972,50.582109 C46.5845161,46.7428303 46.9773951,42.1004352 46.2812823,35.662063 C54.1077016,27.8022007 58.697397,17.1532458 60.2716178,8.30054548 C60.3705508,7.75361323 60.1728255,7.19496465 59.752923,6.83503727 C59.3330205,6.47510989 58.7547341,6.36858524 58.2358986,6.55559014 C57.7170631,6.74259504 57.3365021,7.19471899 57.2375692,7.74165125 C55.0105119,20.265602 46.0381854,36.8115773 30.4127261,41.9799978 L19.5045987,30.9722115 C22.4559448,21.9012123 29.0521392,15.0648569 36.6012222,10.4632232 C44.3907035,5.71505217 53.1565159,3.39199615 59.3325075,3.39199615 C59.888285,3.39992804 60.4052414,3.10525865 60.6854239,2.62082266 C60.9656064,2.13638666 60.9656064,1.53723775 60.6854239,1.05280176 C60.4052414,0.568365762 59.888285,0.273696372 59.3325075,0.281628261 Z M43.1509146,11.1679159 C39.3390907,11.1679159 36.2159462,14.3195972 36.2159462,18.1662436 C36.2159462,22.0128978 39.3390907,25.1645714 43.1509146,25.1645714 C46.9627392,25.1645714 50.085883,22.0128978 50.085883,18.1662436 C50.085883,14.3195972 46.9627392,11.1679159 43.1509146,11.1679159 Z M43.1509146,14.2782838 C45.2969868,14.2782838 47.0036748,16.0005645 47.0036748,18.1662436 C47.0036748,20.3319306 45.2969868,22.0542035 43.1509146,22.0542035 C41.0048393,22.0542035 39.2981543,20.3319306 39.2981543,18.1662436 C39.2981543,16.0005645 41.0048393,14.2782838 43.1509146,14.2782838 Z M19.7213164,17.7774477 C20.7959915,17.753903 21.9750386,17.811077 23.2369601,17.8989464 C20.4864014,21.251633 18.226682,25.0892375 16.7354272,29.4413273 L4.98450855,25.8935639 C7.39181639,22.8106061 9.63117394,20.5236615 12.304753,19.2840321 C14.3090113,18.3547413 16.6708411,17.8442801 19.7213164,17.7774477 Z M12.9067468,37.5817432 C12.5671116,37.6312589 12.2535653,37.7937402 12.015796,38.0434385 L7.39248369,42.7089903 C6.98826079,43.0969242 6.82330575,43.674995 6.96117968,44.2204581 C7.09905361,44.7659212 7.51823507,45.1936325 8.05720341,45.3387846 C8.59617175,45.4839367 9.17079662,45.3238721 9.55966132,44.9202675 L14.1829736,40.2547156 C14.673454,39.7898487 14.8083969,39.0576158 14.5163223,38.445885 C14.2242477,37.8341541 13.5726753,37.4843408 12.9067468,37.5817432 L12.9067468,37.5817432 Z M43.4157918,38.3107357 C43.7512586,43.1822849 43.2859307,46.5648512 42.043246,49.2942223 C40.8153012,51.9913001 38.5225983,54.2288599 35.4694739,56.6570463 L31.9538302,44.8230685 C36.2698262,43.3199746 40.0916997,41.0774414 43.4157918,38.3107357 Z M18.3006111,41.4697031 C17.9609759,41.5192188 17.6474296,41.6817 17.4096603,41.9313983 L8.16303574,51.262502 C7.7588162,51.6504367 7.59386375,52.2285057 7.73173812,52.7739667 C7.8696125,53.3194277 8.28879233,53.7471374 8.82775856,53.8922899 C9.36672478,54.0374424 9.94134797,53.8773804 10.3302134,53.4737792 L19.5768379,44.1426755 C20.0673185,43.6778087 20.2022616,42.9455757 19.9101869,42.3338447 C19.6181123,41.7221137 18.9665397,41.3723004 18.3006111,41.4697031 Z M22.1533713,46.9128469 C21.8137362,46.9623626 21.5001899,47.1248439 21.2624205,47.3745421 L16.6391082,52.040094 C16.2348887,52.4280286 16.0699363,53.0060977 16.2078106,53.5515587 C16.345685,54.0970197 16.7648648,54.5247293 17.3038311,54.6698819 C17.8427973,54.8150344 18.4174205,54.6549724 18.8062859,54.2513712 L23.4295981,49.5858193 C23.9200788,49.1209525 24.0550218,48.3887195 23.7629472,47.7769885 C23.4708725,47.1652575 22.8192999,46.8154442 22.1533713,46.9128469 Z" id="Shape"></path>
                    </g>
                </g>
            </g>
        </g>
    </g>
</svg>