<?xml version="1.0" encoding="UTF-8"?>
<svg width="35px" height="35px" viewBox="0 0 35 35" version="1.1" xmlns="http://www.w3.org/2000/svg" xmlns:xlink="http://www.w3.org/1999/xlink">
    <!-- Generator: Sketch 44.1 (41455) - http://www.bohemiancoding.com/sketch -->
    <title>launch_pad</title>
    <desc>Created with Sketch.</desc>
    <defs></defs>
    <g id="Page-1" stroke="none" stroke-width="1" fill="none" fill-rule="evenodd">
        <g id="launch_pad" transform="translate(-16.000000, -6.000000)" fill-rule="nonzero">
            <g id="Group-2">
                <g id="request-a-call-back">
                    <g id="Group-9">
                        <rect id="Rectangle-13-Copy-2" transform="translate(33.089744, 23.000000) scale(-1, 1) translate(-33.089744, -23.000000) " x="8.00000009e-07" y="0" width="66.1794872" height="46"></rect>
                    </g>
                </g>
            </g>
            <g id="noun_664190_cc" transform="translate(16.000000, 6.000000)" stroke="#30D6C7" stroke-width="0.7" fill="#645B6A">
                <g id="Group" transform="translate(0.698006, 0.275980)">
                    <path d="M33.0156695,0.1567125 C29.1631405,0.156716827 24.0861092,1.52868894 19.4824608,4.3348976 C17.6663503,5.44192962 15.9257338,6.78486072 14.3773593,8.35082308 C13.5622758,8.26126183 12.7897734,8.19904457 12.0726941,8.17504183 C9.65554832,8.09413269 7.75974055,8.38991683 6.12344195,9.14859952 C3.94171034,10.1601779 2.33556491,11.9317284 0.589565527,14.3544288 C0.425936174,14.5825334 0.38250817,14.876712 0.473146856,15.1430417 C0.563785542,15.4093715 0.777157437,15.6145504 1.04513889,15.6930707 L9.40625,18.2216163 L15.9718661,24.8472173 L18.4775196,33.2847173 C18.5585297,33.5528032 18.76317,33.7647042 19.0266535,33.8533344 C19.2901369,33.9419646 19.5798387,33.8963498 19.804042,33.7309313 C22.2047863,31.9689649 23.9469241,30.3481644 24.9493412,28.1464962 C25.9220291,26.0101233 26.1406473,23.426855 25.7532942,19.8442125 C30.1083178,15.4705794 32.6622612,9.5449513 33.538239,4.61885192 C33.5932904,4.31451059 33.4832658,4.00364968 33.2496104,3.80336751 C33.015955,3.60308534 32.6941665,3.54380953 32.4054597,3.64786871 C32.1167529,3.75192789 31.9049891,4.00351298 31.8499377,4.30785433 C30.6106881,11.2768269 25.6180225,20.4838615 16.9232105,23.3598375 L10.8533654,17.234537 C12.4956467,12.1869649 16.1661097,8.38286394 20.3668091,5.8222774 C24.7012786,3.18015 29.579029,1.88748173 33.0156695,1.88748173 C33.3249328,1.89189544 33.612594,1.72792619 33.768502,1.458361 C33.92441,1.1887958 33.92441,0.855398426 33.768502,0.585833235 C33.612594,0.316268045 33.3249328,0.152298788 33.0156695,0.1567125 Z M24.011396,6.21440481 C21.8903005,6.21440481 20.1524217,7.96816298 20.1524217,10.1086356 C20.1524217,12.2491125 21.8903005,14.0028663 24.011396,14.0028663 C26.132492,14.0028663 27.8703704,12.2491125 27.8703704,10.1086356 C27.8703704,7.96816298 26.132492,6.21440481 24.011396,6.21440481 Z M24.011396,7.94517404 C25.2055814,7.94517404 26.1552707,8.9035399 26.1552707,10.1086356 C26.1552707,11.3137356 25.2055814,12.2720971 24.011396,12.2720971 C22.817209,12.2720971 21.8675214,11.3137356 21.8675214,10.1086356 C21.8675214,8.9035399 22.817209,7.94517404 24.011396,7.94517404 Z M10.9739583,9.89228942 C11.571963,9.87918793 12.2280457,9.9110025 12.9302439,9.9598976 C11.3996911,11.8255054 10.1422666,13.9609467 9.31245548,16.382674 L2.77363782,14.4085154 C4.11318815,12.6929986 5.35928227,11.4204245 6.84699964,10.7306308 C7.96227239,10.2135254 9.27651643,9.92947846 10.9739583,9.89228942 Z M7.18198006,20.9124216 C6.99298952,20.9399747 6.81851619,21.0303877 6.68620905,21.1693327 L4.11355947,23.7654865 C3.88862899,23.981353 3.79683949,24.3030214 3.87355966,24.6065452 C3.95027983,24.910069 4.18353403,25.1480697 4.48344383,25.2288398 C4.78335363,25.30961 5.10310457,25.2205417 5.31948896,24.9959553 L7.89213853,22.3998014 C8.16506714,22.1411255 8.24015634,21.7336733 8.07763095,21.3932747 C7.91510557,21.0528761 7.55253706,20.8582219 7.18198006,20.9124216 L7.18198006,20.9124216 Z M24.1587874,21.3180707 C24.3454584,24.0288521 24.086526,25.9110865 23.3950321,27.4298495 C22.7117402,28.9306428 21.435962,30.1757365 19.7370459,31.5269048 L17.7807603,24.9418688 C20.1824033,24.1054698 22.3090909,22.8576085 24.1587874,21.3180707 Z M10.1834046,23.0758832 C9.99441402,23.1034362 9.81994069,23.1938492 9.68763355,23.3327942 L4.5423344,28.5251019 C4.31740579,28.7409688 4.22561773,29.0626363 4.30233815,29.3661589 C4.37905857,29.6696815 4.61231186,29.9076813 4.91222049,29.9884516 C5.21212911,30.069222 5.53187911,29.9801552 5.74826389,29.7555707 L10.893563,24.563263 C11.1664918,24.3045871 11.241581,23.8971348 11.0790556,23.5567361 C10.9165302,23.2163374 10.5539616,23.0216833 10.1834046,23.0758832 Z M12.3272792,26.1047293 C12.1382887,26.1322824 11.9638153,26.2226954 11.8315082,26.3616404 L9.25885862,28.9577942 C9.03393001,29.1736611 8.94214195,29.4953286 9.01886237,29.7988512 C9.09558278,30.1023739 9.32883608,30.3403736 9.6287447,30.4211439 C9.92865333,30.5019143 10.2484033,30.4128475 10.4647881,30.188263 L13.0374377,27.5921091 C13.3103664,27.3334332 13.3854557,26.925981 13.2229303,26.5855823 C13.0604049,26.2451836 12.6978362,26.0505295 12.3272792,26.1047293 Z" id="Shape"></path>
                </g>
            </g>
        </g>
    </g>
</svg>