<?xml version="1.0" encoding="UTF-8"?>
<svg width="31px" height="31px" viewBox="0 0 31 31" version="1.1" xmlns="http://www.w3.org/2000/svg" xmlns:xlink="http://www.w3.org/1999/xlink">
    <!-- Generator: Sketch 44.1 (41455) - http://www.bohemiancoding.com/sketch -->
    <title>Icon_4</title>
    <desc>Created with Sketch.</desc>
    <defs></defs>
    <g id="Page-1" stroke="none" stroke-width="1" fill="none" fill-rule="evenodd">
        <g id="What-we-do" transform="translate(-1036.000000, -1495.000000)">
            <g id="Icon_4" transform="translate(1036.000000, 1495.000000)">
                <g id="noun_614193_cc" stroke="#FFFFFF" stroke-width="0.4" fill="#000000" fill-rule="nonzero">
                    <g id="Group" transform="translate(0.000000, 0.217439)">
                        <path d="M7.43334273,0.134873864 C7.08209957,0.167977387 6.81416216,0.463631013 6.81568295,0.816426136 L6.81568295,15.1609773 C3.18706773,15.5044432 0.330255682,18.569625 0.330255682,22.2853636 C0.330255682,26.2296136 3.55297773,29.4522955 7.49723864,29.4522955 C11.094257,29.4522955 14.0904951,26.7705341 14.589676,23.3076818 L24.536128,23.3076818 C24.912522,23.3076441 25.2176414,23.0025291 25.2176833,22.6261364 L25.2176833,20.6879659 L30.2974023,5.14002955 C30.4070869,4.79965669 30.2350744,4.43238816 29.9033778,4.2987375 L25.2176833,2.39251705 L25.2176833,0.816426136 C25.2176452,0.440030753 24.9125247,0.134911625 24.536128,0.134873864 L7.49723864,0.134873864 C7.47595171,0.133875043 7.45462965,0.133875043 7.43334273,0.134873864 L7.43334273,0.134873864 Z M8.17879398,1.49797841 L23.8545723,1.49797841 L23.8545723,2.81848977 C23.8541285,2.83268517 23.8541285,2.84689097 23.8545723,2.86108636 L23.8545723,20.5814659 C23.8532121,20.6062996 23.8532121,20.6311891 23.8545723,20.6560227 L23.8545723,21.9445568 L14.6535719,21.9445568 C14.6317265,21.4761477 14.5595342,21.0226023 14.4512352,20.5814659 L21.8099056,20.5814659 C22.055822,20.5851341 22.2846443,20.4560405 22.4086736,20.2436617 C22.5327029,20.0312829 22.5327029,19.768558 22.4086736,19.5561792 C22.2846443,19.3438004 22.055822,19.2147068 21.8099056,19.218375 L13.9613673,19.218375 C13.8501941,18.9857045 13.7233732,18.754875 13.5886415,18.5367955 L21.8099056,18.5367955 C22.055822,18.5404636 22.2846443,18.4113701 22.4086736,18.1989913 C22.5327029,17.9866125 22.5327029,17.7238875 22.4086736,17.5115087 C22.2846443,17.2991299 22.055822,17.1700364 21.8099056,17.1737045 L12.5024124,17.1737045 C11.3611415,16.0557273 9.85539784,15.3196705 8.17879398,15.1609773 L8.17879398,1.49797841 L8.17879398,1.49797841 Z M16.0166833,2.87173295 C12.4488361,2.87173295 9.55255466,5.76797386 9.55255466,9.33583977 C9.55255466,12.9037091 12.4488361,15.7999432 16.0166833,15.7999432 C19.5845301,15.7999432 22.4808119,12.9037091 22.4808119,9.33583977 C22.4808119,5.76797386 19.5845301,2.87173295 16.0166833,2.87173295 Z M25.2176833,3.87276477 L28.7958501,5.32106591 L25.2176833,16.2897955 L25.2176833,3.87276477 Z M15.3351276,4.46912386 L15.3351276,8.6542875 L13.6525374,8.6542875 C13.7966601,6.50228864 14.6015697,4.8958875 15.3351276,4.46912386 Z M16.6982386,4.46912386 C17.4317966,4.8958875 18.2367061,6.50228864 18.3808292,8.6542875 L16.6982386,8.6542875 L16.6982386,4.46912386 Z M13.0561763,5.16132614 C12.6060423,6.12119318 12.3542424,7.32514432 12.289426,8.6542875 L10.9476136,8.6542875 C11.1392601,7.21375568 11.9268167,5.96310682 13.0561763,5.16132614 Z M18.97719,5.16132614 C20.1065495,5.96310682 20.8941061,7.21375568 21.0857526,8.6542875 L19.7439402,8.6542875 C19.6791239,7.32514432 19.427324,6.12119318 18.97719,5.16132614 L18.97719,5.16132614 Z M10.9476136,10.017392 L12.289426,10.017392 C12.353385,11.3500125 12.60483,12.5504591 13.0561763,13.5103534 C11.9268167,12.7085727 11.1392601,11.4579239 10.9476136,10.017392 Z M13.6525374,10.017392 L15.3351276,10.017392 L15.3351276,14.1919091 C14.6009666,13.7647977 13.7956749,12.170492 13.6525374,10.017392 Z M16.6982386,10.017392 L18.3808292,10.017392 C18.2376914,12.170492 17.4323997,13.7647977 16.6982386,14.1919091 L16.6982386,10.017392 Z M19.7439402,10.017392 L21.0857526,10.017392 C20.8941061,11.4579239 20.1065495,12.7085727 18.97719,13.5103534 C19.4285362,12.5504591 19.6799812,11.3500125 19.7439402,10.017392 Z M7.49723864,16.5027955 C10.7048195,16.5027955 13.2798116,19.0777841 13.2798116,22.2853636 C13.2798116,25.4929432 10.7048195,28.0678977 7.49723864,28.0678977 C4.28965739,28.0678977 1.71466534,25.4929432 1.71466534,22.2853636 C1.71466534,19.0777841 4.28965739,16.5027955 7.49723864,16.5027955 Z" id="Shape"></path>
                    </g>
                </g>
                <circle id="Oval-3" fill="#FFFFFF" cx="8" cy="23" r="8"></circle>
                <circle id="Oval-3-Copy" stroke="#30D6C7" stroke-width="1.5" cx="7.5" cy="22.5" r="6.5"></circle>
                <polygon id="Path" stroke="#30D6C7" fill="#30D6C7" points="4.77101625 19.7765864 6.13412727 19.7765864 6.13412727 21.1396773 4.77101625 21.1396773"></polygon>
                <polygon id="Path" stroke="#30D6C7" fill="#30D6C7" points="8.86034966 19.7765864 10.2234607 19.7765864 10.2234607 21.1396773 8.86034966 21.1396773 8.86034966 19.7765864"></polygon>
                <polygon id="Path" stroke="#30D6C7" fill="#30D6C7" points="4.77101625 23.8658932 6.13412727 23.8658932 6.13412727 25.2289841 4.77101625 25.2289841"></polygon>
                <polygon id="Path" stroke="#30D6C7" fill="#30D6C7" points="8.86034966 23.8658932 10.2234607 23.8658932 10.2234607 25.2289841 8.86034966 25.2289841 8.86034966 23.8658932"></polygon>
            </g>
        </g>
    </g>
</svg>