<?xml version="1.0" encoding="UTF-8"?>
<svg width="37px" height="30px" viewBox="0 0 37 30" version="1.1" xmlns="http://www.w3.org/2000/svg" xmlns:xlink="http://www.w3.org/1999/xlink">
    <!-- Generator: Sketch 44.1 (41455) - http://www.bohemiancoding.com/sketch -->
    <title>icon_1</title>
    <desc>Created with Sketch.</desc>
    <defs></defs>
    <g id="Page-1" stroke="none" stroke-width="1" fill="none" fill-rule="evenodd">
        <g id="What-we-do" transform="translate(-144.000000, -1495.000000)" fill-rule="nonzero">
            <g id="icon_1" transform="translate(144.000000, 1495.000000)">
                <g id="noun_1057713_cc" fill="#000000">
                    <g id="Group" transform="translate(0.055030, 0.416108)">
                        <path d="M0.567880925,0 L35.7764983,0 C36.0888328,0 36.3443792,0.255546416 36.3443792,0.567880925 L36.3443792,23.3470045 C36.3443792,23.659339 36.0888328,23.9148855 35.7764983,23.9148855 L0.567880925,23.9148855 C0.255546416,23.9148855 0,23.659339 0,23.3470045 L0,0.567880925 C0,0.255546416 0.255546416,0 0.567880925,0 Z M35.2086174,1.13576185 L1.13576185,1.13576185 L1.13576185,22.7791236 L35.2086174,22.7791236 L35.2086174,1.13576185 Z" id="Shape"></path>
                        <path d="M20.0390982,23.3470045 C20.0390982,23.03467 20.2946446,22.7791236 20.6069791,22.7791236 C20.9193136,22.7791236 21.17486,23.03467 21.17486,23.3470045 L21.17486,28.5928046 C21.17486,28.9051391 20.9193136,29.1606855 20.6069791,29.1606855 C20.2946446,29.1606855 20.0390982,28.9051391 20.0390982,28.5928046 L20.0390982,23.3470045 Z M16.3052811,28.5928046 C16.3052811,28.9051391 16.0497347,29.1606855 15.7374001,29.1606855 C15.4250656,29.1606855 15.1695192,28.9051391 15.1695192,28.5928046 L15.1695192,23.3470045 C15.1695192,23.03467 15.4250656,22.7791236 15.7374001,22.7791236 C16.0497347,22.7791236 16.3052811,23.03467 16.3052811,23.3470045 L16.3052811,28.5928046 Z" id="Shape"></path>
                        <path d="M26.4419556,28.0320222 C26.7542901,28.0320222 27.0098365,28.2875686 27.0098365,28.5999031 C27.0098365,28.9122376 26.7542901,29.167784 26.4419556,29.167784 L9.90952215,29.167784 C9.59718764,29.167784 9.34164122,28.9122376 9.34164122,28.5999031 C9.34164122,28.2875686 9.59718764,28.0320222 9.90952215,28.0320222 L26.4419556,28.0320222 Z" id="Shape"></path>
                    </g>
                </g>
                <g id="noun_963241_cc" transform="translate(9.000000, 5.000000)" fill="#30D6C7">
                    <g id="Group">
                        <polygon id="Shape" points="14.0119048 5.11764706 16.3690476 7.5 14.0119048 9.88235294 14.9285714 10.8088235 18.202381 7.5 14.9285714 4.19117647"></polygon>
                        <rect id="Rectangle-path" transform="translate(9.378569, 7.491044) rotate(-74.151406) translate(-9.378569, -7.491044) " x="2.04513488" y="6.82927028" width="14.6668691" height="1.32354768"></rect>
                        <polygon id="Shape" points="3.4047619 4.19117647 0.130952381 7.5 3.4047619 10.8088235 4.32142857 9.88235294 1.96428571 7.5 4.32142857 5.11764706"></polygon>
                    </g>
                </g>
            </g>
        </g>
    </g>
</svg>