<?xml version="1.0" encoding="UTF-8"?>
<svg width="22px" height="34px" viewBox="0 0 22 34" version="1.1" xmlns="http://www.w3.org/2000/svg" xmlns:xlink="http://www.w3.org/1999/xlink">
    <!-- Generator: Sketch 44.1 (41455) - http://www.bohemiancoding.com/sketch -->
    <title>Icon_ 7</title>
    <desc>Created with Sketch.</desc>
    <defs></defs>
    <g id="Page-1" stroke="none" stroke-width="1" fill="none" fill-rule="evenodd">
        <g id="What-we-do" transform="translate(-732.000000, -1613.000000)">
            <g id="Icon_-7" transform="translate(732.000000, 1613.000000)">
                <g id="noun_995861_cc-copy-2" transform="translate(3.000000, 18.000000)" fill-rule="nonzero" fill="#000000">
                    <g id="Group">
                        <path d="M1.71090909,6.14363636 L0.189090909,6.42545455 L0.189090909,9.01818182 L1.71090909,9.3 C1.88,9.86363636 2.04909091,10.3709091 2.33090909,10.8218182 L1.42909091,12.1181818 L3.28909091,13.9218182 L4.58545455,13.02 C5.09272727,13.3018182 5.6,13.5272727 6.10727273,13.64 L6.38909091,15.1618182 L8.98181818,15.1618182 L9.26363636,13.64 C9.82727273,13.4709091 10.3345455,13.3018182 10.7854545,13.02 L12.0818182,13.9218182 L13.8854545,12.0618182 L12.9836364,10.7654545 C13.2654545,10.3145455 13.4909091,9.75090909 13.6036364,9.24363636 L15.1254545,8.96181818 L15.1254545,6.36909091 L13.6036364,6.08727273 C13.4345455,5.52363636 13.2654545,5.01636364 12.9836364,4.56545455 L13.8854545,3.26909091 L12.0254545,1.46545455 L10.7290909,2.36727273 C10.2218182,2.08545455 9.71454545,1.86 9.20727273,1.74727273 L8.92545455,0.225454545 L6.33272727,0.225454545 L6.05090909,1.74727273 C5.54363636,1.91636364 4.98,2.08545455 4.52909091,2.36727273 L3.23272727,1.46545455 L1.42909091,3.32545455 L2.33090909,4.62181818 C2.04909091,5.07272727 1.82363636,5.63636364 1.71090909,6.14363636 Z M2.44363636,6.59454545 C2.55636364,5.97454545 2.83818182,5.35454545 3.17636364,4.84727273 L3.34545455,4.62181818 L2.55636364,3.43818182 L3.34545455,2.59272727 L4.52909091,3.38181818 L4.75454545,3.21272727 C5.31818182,2.87454545 5.88181818,2.59272727 6.50181818,2.48 L6.78363636,2.42363636 L7.00909091,1.01454545 L8.19272727,1.01454545 L8.47454545,2.42363636 L8.75636364,2.48 C9.37636364,2.59272727 9.99636364,2.87454545 10.56,3.21272727 L10.7854545,3.38181818 L11.9690909,2.59272727 L12.8145455,3.43818182 L12.0254545,4.62181818 L12.1945455,4.84727273 C12.5327273,5.41090909 12.8145455,5.97454545 12.9272727,6.59454545 L12.9836364,6.87636364 L14.3927273,7.10181818 L14.3927273,8.28545455 L12.9836364,8.56727273 L12.9272727,8.79272727 C12.8145455,9.41272727 12.5327273,10.0327273 12.1945455,10.5963636 L12.0254545,10.8218182 L12.8145455,12.0054545 L11.9690909,12.8509091 L10.7854545,12.0618182 L10.56,12.2309091 C10.0527273,12.5690909 9.43272727,12.8509091 8.81272727,12.9636364 L8.53090909,12.9636364 L8.30545455,14.3727273 L7.12181818,14.3727273 L6.84,12.9636364 L6.55818182,12.9072727 C5.93818182,12.7945455 5.31818182,12.5127273 4.81090909,12.1745455 L4.58545455,12.0054545 L3.40181818,12.7945455 L2.55636364,11.9490909 L3.34545455,10.7654545 L3.17636364,10.54 C2.83818182,9.97636364 2.55636364,9.41272727 2.44363636,8.79272727 L2.38727273,8.51090909 L0.978181818,8.28545455 L0.978181818,7.10181818 L2.38727273,6.82 L2.44363636,6.59454545 Z" id="Shape"></path>
                        <path d="M7.68545455,11.1036364 C9.54545455,11.1036364 11.0672727,9.58181818 11.0672727,7.72181818 C11.0672727,5.86181818 9.54545455,4.34 7.68545455,4.34 C5.82545455,4.34 4.30363636,5.86181818 4.30363636,7.72181818 C4.30363636,9.58181818 5.82545455,11.1036364 7.68545455,11.1036364 Z M7.68545455,5.18545455 C9.09454545,5.18545455 10.2218182,6.31272727 10.2218182,7.72181818 C10.2218182,9.13090909 9.09454545,10.2581818 7.68545455,10.2581818 C6.27636364,10.2581818 5.14909091,9.13090909 5.14909091,7.72181818 C5.14909091,6.31272727 6.27636364,5.18545455 7.68545455,5.18545455 Z" id="Shape"></path>
                    </g>
                </g>
                <g id="noun_850425_cc-copy">
                    <g id="Group">
                        <path d="M0.944897959,22.3866667 C1.21020408,22.4933333 1.52857143,22.36 1.63469388,22.0933333 C3.22653061,18.2 6.8877551,15.6933333 10.9734694,15.6933333 C15.0591837,15.6933333 18.7204082,18.2 20.3122449,22.0933333 C20.3918367,22.3066667 20.6040816,22.4133333 20.8163265,22.4133333 C20.8959184,22.4133333 20.9489796,22.4133333 21.0285714,22.36 C21.2938776,22.2533333 21.4265306,21.9333333 21.3204082,21.6666667 C19.9408163,18.28 17.1285714,15.8533333 13.7857143,14.9466667 C14.5020408,14.5733333 15.1387755,14.04 15.6693878,13.4 C15.855102,13.16 15.8285714,12.84 15.5897959,12.6533333 C15.3510204,12.4666667 15.0326531,12.4933333 14.8469388,12.7333333 C13.8653061,13.9066667 12.4591837,14.6 10.9734694,14.6 C8.16122449,14.6 5.87959184,12.2266667 5.87959184,9.32 C5.87959184,6.41333333 8.1877551,4.06666667 11,4.06666667 C13.6265306,4.06666667 15.8020408,6.09333333 16.0673469,8.78666667 C16.0938776,9.05333333 16.3326531,9.26666667 16.5979592,9.26666667 L18.0836735,9.26666667 L18.0836735,10.4133333 L11,10.4133333 C10.7081633,10.4133333 10.4693878,10.6533333 10.4693878,10.9466667 C10.4693878,11.24 10.7081633,11.48 11,11.48 L18.6142857,11.48 C18.9061224,11.48 19.144898,11.24 19.144898,10.9466667 L19.144898,9.21333333 C19.144898,9.08 19.144898,8.94666667 19.144898,8.84 C19.144898,8.81333333 19.144898,8.78666667 19.144898,8.73333333 C19.144898,8.68 19.144898,8.62666667 19.1183673,8.57333333 C18.7734694,4.33333333 15.244898,1 10.9469388,1 C6.62244898,1 3.09387755,4.38666667 2.88163265,8.70666667 C2.88163265,8.84 2.93469388,9 3.04081633,9.10666667 C3.14693878,9.21333333 3.27959184,9.26666667 3.4122449,9.26666667 L4.87142857,9.26666667 C4.87142857,9.29333333 4.87142857,9.32 4.87142857,9.32 C4.87142857,11.7733333 6.2244898,13.9066667 8.21428571,14.9466667 C4.87142857,15.8266667 2.05918367,18.28 0.679591837,21.6666667 C0.546938776,21.96 0.679591837,22.2533333 0.944897959,22.3866667 Z M3.96938776,8.2 C4.42040816,4.73333333 7.36530612,2.06666667 10.9469388,2.06666667 C14.5285714,2.06666667 17.5265306,4.73333333 18.0040816,8.2 L17.0489796,8.2 C16.5183673,5.18666667 13.9979592,3 11,3 C7.9755102,3 5.48163265,5.24 4.95102041,8.2 L3.96938776,8.2 Z" id="Shape" fill="#000000" fill-rule="nonzero"></path>
                        <path d="M4.5,10 L5,7 L7,4 L10.5,2.5 L12.5,2.5 L15,4 L17,6.5 L17.5,9.5 L18,12 L19.5,10.5 L19,5.5 L16,1.5 L11,0 L7,1 C5.33333333,2 4.5,2.5 4.5,2.5 C4.5,2.5 4,3 3,4 L2,7 L2.5,9.5 L2.5,10.5 L4.5,10 Z" id="Path-3" fill="#FFFFFF"></path>
                        <path d="M18.2020408,9.26666667 L18.2020408,10.4133333 L11.1183673,10.4133333 C10.8265306,10.4133333 10.5877551,10.6533333 10.5877551,10.9466667 C10.5877551,11.24 10.8265306,11.48 11.1183673,11.48 L18.7326531,11.48 C19.0244898,11.48 19.2632653,11.24 19.2632653,10.9466667 L19.2632653,9.21333333 C19.2632653,9.08 19.2632653,8.94666667 19.2632653,8.84 C19.2632653,8.81333333 19.2632653,8.78666667 19.2632653,8.73333333 C19.2632653,8.68 19.2632653,8.62666667 19.2367347,8.57333333 C18.8918367,4.33333333 15.3632653,1 11.0653061,1 C6.74081633,1 3.2122449,4.38666667 3,8.70666667 C3,8.79555556 8.06734694,8.98222222 18.2020408,9.26666667 Z M4.0877551,8.2 C4.53877551,4.73333333 7.48367347,2.06666667 11.0653061,2.06666667 C14.6469388,2.06666667 17.644898,4.73333333 18.122449,8.2 L4.0877551,8.2 Z" id="Shape-Copy-3" fill="#30D6C7" fill-rule="nonzero"></path>
                        <rect id="Rectangle" fill="#FFFFFF" x="6" y="7" width="10" height="3"></rect>
                    </g>
                </g>
                <path d="M16.5,7.5 L16.5,9.5" id="Path-2-Copy" stroke="#000000"></path>
                <rect id="Rectangle-11-Copy" fill="#30D6C7" x="10" y="10" width="8" height="2"></rect>
                <path d="M5.5,7.5 L5.5,10" id="Path-3-Copy" stroke="#000000"></path>
            </g>
        </g>
    </g>
</svg>