<?xml version="1.0" encoding="UTF-8"?>
<svg width="38px" height="31px" viewBox="0 0 38 31" version="1.1" xmlns="http://www.w3.org/2000/svg" xmlns:xlink="http://www.w3.org/1999/xlink">
    <!-- Generator: Sketch 44.1 (41455) - http://www.bohemiancoding.com/sketch -->
    <title>Icon_2</title>
    <desc>Created with Sketch.</desc>
    <defs></defs>
    <g id="Page-1" stroke="none" stroke-width="1" fill="none" fill-rule="evenodd">
        <g id="What-we-do" transform="translate(-441.000000, -1494.000000)" fill-rule="nonzero">
            <g id="Icon_2" transform="translate(441.000000, 1494.000000)">
                <g id="noun_995861_cc">
                    <g id="Group">
                        <path d="M35.7909091,2.25454545 L27.9,2.25454545 L27.9,3.1 L35.7909091,3.1 C36.1854545,3.1 36.5236364,3.43818182 36.5236364,3.83272727 L36.5236364,22.9963636 L1.29636364,22.9963636 L1.29636364,3.83272727 C1.29636364,3.43818182 1.63454545,3.1 1.97272727,3.1 L13.5272727,3.1 L13.5272727,2.25454545 L1.97272727,2.25454545 C1.12727273,2.25454545 0.450909091,2.98727273 0.450909091,3.83272727 L0.450909091,24.9127273 C0.450909091,25.7581818 1.12727273,26.4909091 2.02909091,26.4909091 L13.64,26.4909091 L13.64,30.0418182 L11.5545455,30.0418182 L11.5545455,30.8872727 L26.3781818,30.8872727 L26.3781818,30.0418182 L24.2927273,30.0418182 L24.2927273,26.4909091 L35.9036364,26.4909091 C36.7490909,26.4909091 37.4818182,25.8145455 37.4818182,24.9127273 L37.4818182,3.83272727 C37.3690909,2.98727273 36.6363636,2.25454545 35.7909091,2.25454545 Z M23.3345455,29.9854545 L14.4290909,29.9854545 L14.4290909,26.4345455 L23.3345455,26.4345455 L23.3345455,29.9854545 L23.3345455,29.9854545 Z M35.7909091,25.5890909 L1.97272727,25.5890909 C1.57818182,25.5890909 1.29636364,25.2509091 1.29636364,24.8563636 L1.29636364,23.7854545 L36.5236364,23.7854545 L36.5236364,24.8563636 C36.5236364,25.3072727 36.1854545,25.5890909 35.7909091,25.5890909 Z" id="Shape" fill="#000000"></path>
                        <polygon id="Shape" fill="#000000" points="12.2872727 19.9527273 14.88 17.6418182 12.2872727 15.3872727 11.7236364 16.0072727 13.5836364 17.6418182 11.7236364 19.2763636"></polygon>
                        <polygon id="Shape" fill="#000000" points="5.91818182 15.3872727 3.38181818 17.6418182 5.91818182 19.9527273 6.48181818 19.2763636 4.62181818 17.6418182 6.48181818 16.0072727"></polygon>
                        <rect id="Rectangle-path" fill="#000000" transform="translate(9.119118, 17.654128) rotate(116.308811) translate(-9.119118, -17.654128) " x="4.8073876" y="17.2314094" width="8.62346044" height="1"></rect>
                        <path d="M14.7109091,6.14363636 L13.1890909,6.42545455 L13.1890909,9.01818182 L14.7109091,9.3 C14.88,9.86363636 15.0490909,10.3709091 15.3309091,10.8218182 L14.4290909,12.1181818 L16.2890909,13.9218182 L17.5854545,13.02 C18.0927273,13.3018182 18.6,13.5272727 19.1072727,13.64 L19.3890909,15.1618182 L21.9818182,15.1618182 L22.2636364,13.64 C22.8272727,13.4709091 23.3345455,13.3018182 23.7854545,13.02 L25.0818182,13.9218182 L26.8854545,12.0618182 L25.9836364,10.7654545 C26.2654545,10.3145455 26.4909091,9.75090909 26.6036364,9.24363636 L28.1254545,8.96181818 L28.1254545,6.36909091 L26.6036364,6.08727273 C26.4345455,5.52363636 26.2654545,5.01636364 25.9836364,4.56545455 L26.8854545,3.26909091 L25.0254545,1.46545455 L23.7290909,2.36727273 C23.2218182,2.08545455 22.7145455,1.86 22.2072727,1.74727273 L21.9254545,0.225454545 L19.3327273,0.225454545 L19.0509091,1.74727273 C18.5436364,1.91636364 17.98,2.08545455 17.5290909,2.36727273 L16.2327273,1.46545455 L14.4290909,3.32545455 L15.3309091,4.62181818 C15.0490909,5.07272727 14.8236364,5.63636364 14.7109091,6.14363636 Z M15.4436364,6.59454545 C15.5563636,5.97454545 15.8381818,5.35454545 16.1763636,4.84727273 L16.3454545,4.62181818 L15.5563636,3.43818182 L16.3454545,2.59272727 L17.5290909,3.38181818 L17.7545455,3.21272727 C18.3181818,2.87454545 18.8818182,2.59272727 19.5018182,2.48 L19.7836364,2.42363636 L20.0090909,1.01454545 L21.1927273,1.01454545 L21.4745455,2.42363636 L21.7563636,2.48 C22.3763636,2.59272727 22.9963636,2.87454545 23.56,3.21272727 L23.7854545,3.38181818 L24.9690909,2.59272727 L25.8145455,3.43818182 L25.0254545,4.62181818 L25.1945455,4.84727273 C25.5327273,5.41090909 25.8145455,5.97454545 25.9272727,6.59454545 L25.9836364,6.87636364 L27.3927273,7.10181818 L27.3927273,8.28545455 L25.9836364,8.56727273 L25.9272727,8.79272727 C25.8145455,9.41272727 25.5327273,10.0327273 25.1945455,10.5963636 L25.0254545,10.8218182 L25.8145455,12.0054545 L24.9690909,12.8509091 L23.7854545,12.0618182 L23.56,12.2309091 C23.0527273,12.5690909 22.4327273,12.8509091 21.8127273,12.9636364 L21.5309091,12.9636364 L21.3054545,14.3727273 L20.1218182,14.3727273 L19.84,12.9636364 L19.5581818,12.9072727 C18.9381818,12.7945455 18.3181818,12.5127273 17.8109091,12.1745455 L17.5854545,12.0054545 L16.4018182,12.7945455 L15.5563636,11.9490909 L16.3454545,10.7654545 L16.1763636,10.54 C15.8381818,9.97636364 15.5563636,9.41272727 15.4436364,8.79272727 L15.3872727,8.51090909 L13.9781818,8.28545455 L13.9781818,7.10181818 L15.3872727,6.82 L15.4436364,6.59454545 Z" id="Shape" fill="#30D6C7"></path>
                        <path d="M20.6854545,11.1036364 C22.5454545,11.1036364 24.0672727,9.58181818 24.0672727,7.72181818 C24.0672727,5.86181818 22.5454545,4.34 20.6854545,4.34 C18.8254545,4.34 17.3036364,5.86181818 17.3036364,7.72181818 C17.3036364,9.58181818 18.8254545,11.1036364 20.6854545,11.1036364 Z M20.6854545,5.18545455 C22.0945455,5.18545455 23.2218182,6.31272727 23.2218182,7.72181818 C23.2218182,9.13090909 22.0945455,10.2581818 20.6854545,10.2581818 C19.2763636,10.2581818 18.1490909,9.13090909 18.1490909,7.72181818 C18.1490909,6.31272727 19.2763636,5.18545455 20.6854545,5.18545455 Z" id="Shape" fill="#30D6C7"></path>
                    </g>
                </g>
            </g>
        </g>
    </g>
</svg>