<?xml version="1.0" encoding="UTF-8"?>
<svg width="38px" height="38px" viewBox="0 0 38 38" version="1.1" xmlns="http://www.w3.org/2000/svg" xmlns:xlink="http://www.w3.org/1999/xlink">
    <!-- Generator: Sketch 44.1 (41455) - http://www.bohemiancoding.com/sketch -->
    <title>Manpower  Outsourcing</title>
    <desc>Created with Sketch.</desc>
    <defs></defs>
    <g id="Page-1" stroke="none" stroke-width="1" fill="none" fill-rule="evenodd">
        <g id="What-we-do" transform="translate(-441.000000, -1613.000000)" fill-rule="nonzero">
            <g id="Manpower--Outsourcing" transform="translate(441.000000, 1613.000000)">
                <g id="noun_995901_cc">
                    <g id="Group">
                        <path d="M3.33939394,18.4818182 L5.00909091,20.3818182 L5.64242424,19.8060606 L2.93636364,16.8121212 L0,19.4606061 L0.575757576,20.0939394 L2.47575758,18.3666667 C2.36060606,25.9090909 7.54242424,32.7606061 14.969697,34.4878788 L15.1424242,33.6242424 C8.11818182,32.0121212 3.22424242,25.5636364 3.33939394,18.4818182 Z" id="Shape" fill="#000000"></path>
                        <path d="M18.9424242,3.33939394 L17.0424242,5.00909091 L17.6181818,5.64242424 L20.6121212,2.93636364 L17.9636364,0 L17.330303,0.575757576 L19.0575758,2.47575758 C11.5151515,2.3030303 4.66363636,7.54242424 2.93636364,14.969697 L3.8,15.1424242 C5.41212121,8.11818182 11.8606061,3.22424242 18.9424242,3.33939394 Z" id="Shape" fill="#000000"></path>
                        <path d="M34.0848485,18.9424242 L32.4151515,17.0424242 L31.7818182,17.6181818 L34.4878788,20.6121212 L37.4818182,17.9060606 L36.9060606,17.2727273 L35.0060606,19 C35.0636364,11.5151515 29.8818182,4.66363636 22.4545455,2.93636364 L22.2818182,3.8 C29.3060606,5.41212121 34.2,11.8606061 34.0848485,18.9424242 Z" id="Shape" fill="#000000"></path>
                        <path d="M18.4818182,34.0848485 L20.3818182,32.4151515 L19.8060606,31.7818182 L16.8121212,34.4878788 L19.5181818,37.4818182 L20.1515152,36.9060606 L18.4242424,35.0060606 C18.5393939,35.0060606 18.6545455,35.0060606 18.769697,35.0060606 C26.1969697,35.0060606 32.8181818,29.8242424 34.5454545,22.5121212 L33.6818182,22.3393939 C32.0121212,29.3060606 25.5636364,34.2 18.4818182,34.0848485 Z" id="Shape" fill="#000000"></path>
                        <path d="M30.4,25.7939394 C30.4,22.8 27.9818182,20.3818182 24.9878788,20.3818182 L23.2030303,20.3818182 C21.9939394,20.3818182 20.8424242,20.7848485 19.9212121,21.5333333 L18.5393939,21.5333333 C17.5606061,20.7848485 16.4666667,20.3818182 15.2575758,20.3818182 L13.4727273,20.3818182 C11.9757576,20.3818182 10.6515152,20.9575758 9.67272727,21.9363636 L7.88787879,21.9363636 C8.06060606,19.9787879 9.55757576,18.3090909 11.4575758,17.9060606 C11.9757576,19 13.069697,19.7484848 14.3363636,19.7484848 C15.0848485,19.7484848 15.8333333,19.4606061 16.3515152,19 C16.869697,20.0939394 17.9636364,20.8424242 19.230303,20.8424242 C20.4969697,20.8424242 21.5909091,20.0939394 22.1090909,19 C22.6848485,19.4606061 23.3757576,19.6909091 24.1242424,19.6909091 C25.8515152,19.6909091 27.2909091,18.2515152 27.2909091,16.5242424 C27.2909091,15.2575758 26.5424242,14.1636364 25.4484848,13.6454545 C25.4484848,13.530303 25.4484848,13.4151515 25.4484848,13.3 C25.4484848,11.5727273 24.0090909,10.1333333 22.2818182,10.1333333 C21.130303,10.1333333 20.0939394,10.7666667 19.5757576,11.6878788 C19.1151515,11.4 18.5393939,11.2848485 17.9636364,11.2848485 C17.2727273,11.2848485 16.6969697,11.5151515 16.1787879,11.8606061 C15.6606061,10.7090909 14.5666667,9.96060606 13.3,9.96060606 C11.5727273,9.96060606 10.1333333,11.4 10.1333333,13.1272727 C10.1333333,14.1060606 10.5939394,14.969697 11.3424242,15.6030303 C11.2272727,15.8909091 11.169697,16.2363636 11.169697,16.5818182 C11.169697,16.7545455 11.169697,16.9272727 11.2272727,17.0424242 C8.80909091,17.5606061 7.02424242,19.7484848 7.02424242,22.3393939 L7.02424242,22.8 L8.98181818,22.8 C8.40606061,23.6636364 8.06060606,24.7 8.06060606,25.7939394 L8.06060606,26.2545455 L13.0121212,26.2545455 C12.9545455,26.4848485 12.9545455,26.7151515 12.9545455,26.9454545 L12.9545455,27.4060606 L25.5636364,27.4060606 L25.5636364,26.9454545 C25.5636364,26.7151515 25.5636364,26.4848485 25.5060606,26.2545455 L30.4,26.2545455 L30.4,25.7939394 L30.4,25.7939394 Z M14.3363636,18.9424242 C13.069697,18.9424242 12.0333333,17.9060606 12.0333333,16.6393939 C12.0333333,15.3727273 13.069697,14.3363636 14.3363636,14.3363636 C15.430303,14.3363636 16.2939394,15.0848485 16.5818182,16.1212121 C16.2939394,16.5818182 16.1212121,17.1575758 16.1212121,17.7909091 C16.1212121,17.9060606 16.1212121,18.0212121 16.1212121,18.1363636 C15.6606061,18.6545455 15.0272727,18.9424242 14.3363636,18.9424242 Z M19.2878788,20.0939394 C18.0212121,20.0939394 16.9848485,19.0575758 16.9848485,17.7909091 C16.9848485,16.5242424 18.0212121,15.4878788 19.2878788,15.4878788 C20.5545455,15.4878788 21.5909091,16.5242424 21.5909091,17.7909091 C21.5909091,19.0575758 20.5545455,20.0939394 19.2878788,20.0939394 Z M26.4272727,16.6393939 C26.4272727,17.9060606 25.3909091,18.9424242 24.1242424,18.9424242 C23.4333333,18.9424242 22.8575758,18.6545455 22.3969697,18.1363636 C22.3969697,18.0212121 22.3969697,17.9060606 22.3969697,17.7333333 C22.3969697,17.1 22.2242424,16.5242424 21.8787879,16.0060606 C22.1666667,15.0272727 23.030303,14.2787879 24.0666667,14.2787879 C25.3909091,14.3363636 26.4272727,15.3727273 26.4272727,16.6393939 Z M22.3393939,11.1121212 C23.6060606,11.1121212 24.6424242,12.1484848 24.6424242,13.4151515 C24.6424242,13.4727273 24.6424242,13.4727273 24.6424242,13.530303 C24.469697,13.530303 24.2969697,13.4727273 24.1242424,13.4727273 C22.8575758,13.4727273 21.7636364,14.2212121 21.2454545,15.3151515 C21.1878788,15.2575758 21.130303,15.2575758 21.0727273,15.2 C21.130303,14.969697 21.130303,14.7969697 21.130303,14.5666667 C21.130303,13.7606061 20.7848485,12.9545455 20.2666667,12.3787879 C20.669697,11.630303 21.4757576,11.1121212 22.3393939,11.1121212 Z M19.4606061,12.7818182 C19.9787879,13.2424242 20.2666667,13.8757576 20.2666667,14.5666667 C20.2666667,14.6242424 20.2666667,14.6818182 20.2666667,14.7969697 C19.9212121,14.6818182 19.5757576,14.6242424 19.230303,14.6242424 C18.4818182,14.6242424 17.7333333,14.9121212 17.2151515,15.3727273 C16.9272727,14.7393939 16.4090909,14.2212121 15.8333333,13.8757576 C16.1212121,12.9545455 16.9848485,12.2636364 18.0212121,12.2636364 C18.5393939,12.2636364 19.0575758,12.4363636 19.4606061,12.7818182 Z M10.9969697,13.2424242 C10.9969697,11.9757576 12.0333333,10.9393939 13.3,10.9393939 C14.3363636,10.9393939 15.2575758,11.630303 15.4878788,12.6090909 C15.2575758,12.8969697 15.0848485,13.1848485 14.969697,13.530303 C14.7393939,13.4727273 14.5090909,13.4727273 14.2787879,13.4727273 C13.1848485,13.4727273 12.2060606,14.0484848 11.630303,14.8545455 C11.2848485,14.4515152 10.9969697,13.8757576 10.9969697,13.2424242 Z M8.92424242,25.3909091 C9.15454545,23.0878788 11.1121212,21.3030303 13.4151515,21.3030303 L15.2,21.3030303 C15.8333333,21.3030303 16.4666667,21.4757576 17.0424242,21.7060606 C15.2,22.1666667 13.7030303,23.5484848 13.1272727,25.3909091 L8.92424242,25.3909091 Z M13.8181818,26.4848485 C14.0484848,24.1818182 16.0060606,22.3969697 18.3090909,22.3969697 L20.1515152,22.3969697 C22.5121212,22.3969697 24.469697,24.1818182 24.6424242,26.4848485 L13.8181818,26.4848485 Z M25.3333333,25.3909091 C24.7575758,23.5484848 23.2606061,22.1090909 21.3606061,21.7060606 C21.9363636,21.4757576 22.569697,21.3030303 23.2030303,21.3030303 L24.9878788,21.3030303 C27.3484848,21.3030303 29.3060606,23.0878788 29.4787879,25.3909091 L25.3333333,25.3909091 Z" id="Shape" fill="#30D6C7"></path>
                    </g>
                </g>
            </g>
        </g>
    </g>
</svg>