<?xml version="1.0" encoding="UTF-8"?>
<svg width="67px" height="40px" viewBox="0 0 67 40" version="1.1" xmlns="http://www.w3.org/2000/svg" xmlns:xlink="http://www.w3.org/1999/xlink">
    <!-- Generator: Sketch 44.1 (41455) - http://www.bohemiancoding.com/sketch -->
    <title>METHODOLOGY_icon</title>
    <desc>Created with Sketch.</desc>
    <defs></defs>
    <g id="Page-1" stroke="none" stroke-width="1" fill="none" fill-rule="evenodd">
        <g id="menu" transform="translate(-687.000000, -490.000000)" stroke="#543E6A" stroke-width="0.4" fill="#30D6C7">
            <g id="METHODOLOGY_icon" transform="translate(687.000000, 490.000000)">
                <g id="Group" transform="translate(0.000000, 0.490631)">
                    <path d="M33.4506164,24.0453077 C30.9379489,24.0453077 28.8793435,21.9800769 28.8793435,19.4489231 C28.8793435,16.9116308 30.9397762,14.8527846 33.4506164,14.8527846 C35.9614567,14.8527846 38.0218894,16.9116308 38.0218894,19.4489231 C38.0218894,21.9800769 35.9632915,24.0453077 33.4506164,24.0453077 Z M33.4506164,22.5068462 C35.1441785,22.5068462 36.4991621,21.1427692 36.4991621,19.4489231 C36.4991621,17.7458615 35.1460057,16.3912462 33.4506164,16.3912462 C31.7552271,16.3912462 30.4020708,17.7458615 30.4020708,19.4489231 C30.4020708,21.1427692 31.757062,22.5068462 33.4506164,22.5068462 Z" id="Shape"></path>
                    <path d="M1.52279382,38.7770769 C1.32025595,38.7770799 1.12601256,38.6962643 0.982796083,38.552409 C0.839579602,38.4085537 0.759121913,38.2134429 0.759123248,38.01 L0.759123248,30.3559231 C0.759121913,30.1524801 0.839579602,29.9573694 0.982796083,29.8135141 C1.12601256,29.6696588 1.32025595,29.5888432 1.52279382,29.5888462 L9.14278041,29.5888462 C9.34531695,29.5888452 9.53955839,29.6696617 9.68277322,29.8135168 C9.82598805,29.9573719 9.9064447,30.1524815 9.90644336,30.3559231 L9.90644336,38.01 C9.9064447,38.2134416 9.82598805,38.4085512 9.68277322,38.5524063 C9.53955839,38.6962614 9.34531695,38.7770779 9.14278041,38.7770769 L1.52279382,38.7770769 L1.52279382,38.7770769 Z M2.28645677,37.2429231 L8.37910984,37.2429231 L8.37910984,31.123 L2.28645677,31.123 L2.28645677,37.2429231 Z" id="Shape"></path>
                    <path d="M61.6725848,9.50778462 C61.3815211,9.50978495 61.114636,9.34541222 60.9844035,9.08393846 L57.1744104,1.42993846 C57.0560746,1.19217473 57.0687233,0.909820233 57.2078401,0.68369297 C57.3469569,0.457565708 57.5927084,0.319903983 57.857346,0.319861538 L65.4773321,0.319861538 C65.7419711,0.319901333 65.9877249,0.457561995 66.1268436,0.683689718 C66.2659622,0.909817441 66.2786117,1.19217351 66.1602753,1.42993846 L62.3502822,9.08393846 C62.2217396,9.34201975 61.959872,9.50579718 61.6725848,9.50778462 L61.6725848,9.50778462 Z M61.6673314,7.02601538 L64.2419359,1.85401538 L59.0927346,1.85401538 L61.6673314,7.02601538 L61.6673314,7.02601538 Z" id="Shape"></path>
                    <path d="M16.5571451,34.9522308 C16.28257,34.9561541 16.027174,34.8104036 15.8887533,34.5707901 C15.7503325,34.3311766 15.7503325,34.0348234 15.8887533,33.7952099 C16.027174,33.5555964 16.28257,33.4098459 16.5571451,33.4137692 L60.3498373,33.4137692 L60.3498373,20.2181538 L45.6900165,20.2181538 L48.6352985,22.6835385 C48.8474082,22.8580635 48.9505582,23.1341307 48.905514,23.4067348 C48.8604699,23.6793389 48.6741546,23.9065823 48.4174355,24.0020305 C48.1607163,24.0974786 47.8730492,24.0464617 47.6638518,23.8683846 L43.0918631,20.0412308 C42.9173298,19.8950772 42.8163261,19.6779548 42.8163261,19.4489231 C42.8163261,19.2198914 42.9173298,19.0027689 43.0918631,18.8566154 L47.6638518,15.0297077 C47.8726777,14.8486422 48.1619517,14.795503 48.4204962,14.8907133 C48.6790408,14.9859236 48.8666225,15.2146672 48.9111476,15.4890304 C48.9556727,15.7633936 48.8502123,16.0406815 48.6352985,16.2143231 L45.6900165,18.6796923 L61.111201,18.6796923 C61.5316731,18.6797348 61.8725226,19.0241062 61.8725646,19.4489231 L61.8725646,34.183 C61.8725226,34.6078168 61.5316731,34.9521883 61.111201,34.9522308 L16.5571451,34.9522308 L16.5571451,34.9522308 Z" id="Shape"></path>
                    <path d="M5.92732022,20.5320769 C5.50684811,20.5320344 5.16599862,20.187663 5.16595658,19.7628462 L5.16595658,5.02101538 C5.16599862,4.59619856 5.50684811,4.25182709 5.92732022,4.25178462 L49.1613551,4.25178462 L46.2160655,1.7864 C46.0036346,1.61194049 45.9002486,1.33569481 45.9452839,1.06287594 C45.9903192,0.790057078 46.1768432,0.562662131 46.433815,0.467298426 C46.6907867,0.371934722 46.9786487,0.423282328 47.1877635,0.601784615 L51.7597521,4.42870769 C51.9342854,4.57486124 52.0352892,4.79198369 52.0352892,5.02101538 C52.0352892,5.25004708 51.9342854,5.46716953 51.7597521,5.61332308 L47.1877635,9.44047692 C46.9786487,9.61897921 46.6907867,9.67032682 46.433815,9.57496311 C46.1768432,9.47959941 45.9903192,9.25220446 45.9452839,8.9793856 C45.9002486,8.70656673 46.0036346,8.43032105 46.2160655,8.25586154 L49.1615987,5.79024615 L6.68868461,5.79024615 L6.68868461,18.9936154 L23.0570511,18.9936154 C23.3316262,18.9896921 23.5870221,19.1354425 23.7254429,19.375056 C23.8638636,19.6146695 23.8638636,19.9110228 23.7254429,20.1506363 C23.5870221,20.3902498 23.3316262,20.5360002 23.0570511,20.5320769 L5.92732022,20.5320769 L5.92732022,20.5320769 Z" id="Shape"></path>
                </g>
            </g>
        </g>
    </g>
</svg>