<?xml version="1.0" encoding="UTF-8"?>
<svg width="146px" height="87px" viewBox="0 0 146 87" version="1.1" xmlns="http://www.w3.org/2000/svg" xmlns:xlink="http://www.w3.org/1999/xlink">
    <!-- Generator: Sketch 44.1 (41455) - http://www.bohemiancoding.com/sketch -->
    <title>methodology_icon</title>
    <desc>Created with Sketch.</desc>
    <defs></defs>
    <g id="Page-1" stroke="none" stroke-width="1" fill="none" fill-rule="evenodd">
        <g id="Implementation-Methodology" transform="translate(-149.000000, -169.000000)" stroke="#543E6A" fill="#FFFFFF">
            <g id="methodology_icon" transform="translate(149.000000, 169.000000)">
                <path d="M72.8909139,53.115008 C67.3405439,53.115008 62.7931766,48.5530057 62.7931766,42.9618002 C62.7931766,37.3570351 67.3445803,32.8091362 72.8909139,32.8091362 C78.4372475,32.8091362 82.9886512,37.3570351 82.9886512,42.9618002 C82.9886512,48.5530057 78.4413007,53.115008 72.8909139,53.115008 Z M72.8909139,49.7166154 C76.6319166,49.7166154 79.6250148,46.7034305 79.6250148,42.9618002 C79.6250148,39.1998135 76.635953,36.2075288 72.8909139,36.2075288 C69.1458748,36.2075288 66.156813,39.1998135 66.156813,42.9618002 C66.156813,46.7034305 69.149928,49.7166154 72.8909139,49.7166154 Z" id="Shape"></path>
                <path d="M2.36378335,85.6568266 C1.91638628,85.6568333 1.48731134,85.4783151 1.17095254,85.1605452 C0.854593748,84.8427753 0.676866316,84.4117844 0.676869264,83.9623881 L0.676869264,67.0548749 C0.676866316,66.6054785 0.854593748,66.1744876 1.17095254,65.8567177 C1.48731134,65.5389478 1.91638628,65.3604296 2.36378335,65.3604363 L19.1959925,65.3604363 C19.6433867,65.3604341 20.0724573,65.5389542 20.3888125,65.8567237 C20.7051676,66.1744931 20.8828928,66.6054814 20.8828898,67.0548749 L20.8828898,83.9623881 C20.8828928,84.4117815 20.7051676,84.8427698 20.3888125,85.1605393 C20.0724573,85.4783087 19.6433867,85.6568288 19.1959925,85.6568266 L2.36378335,85.6568266 L2.36378335,85.6568266 Z M4.05068063,82.2679495 L17.5090785,82.2679495 L17.5090785,68.7493134 L4.05068063,68.7493134 L4.05068063,82.2679495 Z" id="Shape"></path>
                <path d="M135.231978,21.0022705 C134.589032,21.0066891 133.999494,20.6435971 133.711817,20.0660133 L125.295713,3.15867003 C125.034314,2.6334606 125.062255,2.00975216 125.369557,1.51024716 C125.67686,1.01074216 126.219714,0.706653575 126.804287,0.706559816 L143.636495,0.706559816 C144.22107,0.706647721 144.76393,1.01073396 145.071237,1.51023998 C145.378543,2.00974599 145.406485,2.63345791 145.145086,3.15867003 L136.728982,20.0660133 C136.445037,20.6361033 135.866583,20.9978803 135.231978,21.0022705 L135.231978,21.0022705 Z M135.220374,15.5201534 L140.90756,4.09543697 L129.533205,4.09543697 L135.220374,15.5201534 L135.220374,15.5201534 Z" id="Shape"></path>
                <path d="M35.5739921,77.2079127 C34.967468,77.2165791 34.4033098,76.8946229 34.0975446,76.3653274 C33.7917793,75.8360319 33.7917793,75.1814009 34.0975446,74.6521054 C34.4033098,74.1228099 34.967468,73.8008537 35.5739921,73.8095201 L132.310088,73.8095201 L132.310088,44.6609966 L99.9272007,44.6609966 L106.433197,50.1069208 C106.901738,50.4924387 107.129591,51.1022589 107.030091,51.7044291 C106.93059,52.3065993 106.519028,52.80857 105.951947,53.0194106 C105.384866,53.2302513 104.749422,53.1175572 104.287314,52.7241929 L94.1879962,44.2701814 C93.8024599,43.9473348 93.5793472,43.467721 93.5793472,42.9618002 C93.5793472,42.4558795 93.8024599,41.9762657 94.1879962,41.6534191 L104.287314,33.1999513 C104.748601,32.7999858 105.387595,32.6826037 105.958708,32.8929189 C106.529821,33.1032342 106.944181,33.6085186 107.042535,34.2145746 C107.140889,34.8206306 106.907932,35.4331471 106.433197,35.8167137 L99.9272007,41.2626039 L133.991907,41.2626039 C134.920711,41.2626977 135.673632,42.0233989 135.673725,42.9618002 L135.673725,75.5087164 C135.673632,76.4471178 134.920711,77.2078189 133.991907,77.2079127 L35.5739921,77.2079127 L35.5739921,77.2079127 Z" id="Shape"></path>
                <path d="M12.093185,45.3544386 C11.1643809,45.3543448 10.4114596,44.5936436 10.4113668,43.6552423 L10.4113668,11.0911982 C10.4114596,10.1527968 11.1643809,9.39209566 12.093185,9.39200184 L107.595232,9.39200184 L101.089219,3.94607761 C100.619969,3.56070436 100.391594,2.95049002 100.491075,2.34784537 C100.590556,1.74520071 101.002579,1.24289545 101.570218,1.0322413 C102.137857,0.821587146 102.773731,0.93501171 103.235657,1.32931527 L113.334975,9.78281699 C113.720511,10.1056636 113.943624,10.5852774 113.943624,11.0911982 C113.943624,11.5971189 113.720511,12.0767327 113.334975,12.3995793 L103.235657,20.8535908 C102.773731,21.2478944 102.137857,21.3613189 101.570218,21.1506648 C101.002579,20.9400106 100.590556,20.4377054 100.491075,19.8350607 C100.391594,19.2324161 100.619969,18.6222017 101.089219,18.2368285 L107.59577,12.7903945 L13.7750048,12.7903945 L13.7750048,41.9560459 L49.9319935,41.9560459 C50.5385175,41.9473795 51.1026757,42.2693358 51.408441,42.7986312 C51.7142062,43.3279267 51.7142062,43.9825578 51.408441,44.5118533 C51.1026757,45.0411488 50.5385175,45.363105 49.9319935,45.3544386 L12.093185,45.3544386 L12.093185,45.3544386 Z" id="Shape"></path>
            </g>
        </g>
    </g>
</svg>