<?xml version="1.0" encoding="UTF-8"?>
<svg width="52px" height="35px" viewBox="0 0 52 35" version="1.1" xmlns="http://www.w3.org/2000/svg" xmlns:xlink="http://www.w3.org/1999/xlink">
    <!-- Generator: Sketch 44.1 (41455) - http://www.bohemiancoding.com/sketch -->
    <title>nnovation_icon</title>
    <desc>Created with Sketch.</desc>
    <defs>
        <path d="M38.0346452,19.85 L37.783871,19.85 L37.622,20.4875 C37.3267742,21.6435 36.8763871,22.74595 36.2825806,23.7651 L35.952129,24.3329 L37.908,26.3151 L34.3493548,29.92165 L32.3934839,27.93945 L31.8332258,28.27435 C30.8276129,28.87615 29.7398065,29.3326 28.5991613,29.6318 L27.970129,29.79585 L27.970129,32.6 L22.937871,32.6 L22.937871,29.79585 L22.3088387,29.6318 C21.1681935,29.3326 20.0803871,28.87615 19.0747742,28.27435 L18.5145161,27.93945 L16.5586452,29.92165 L13,26.3151 L14.955871,24.3329 L14.6254194,23.7651 C14.2169677,23.06385 13.8814839,22.3201 13.6122581,21.55 L17.243871,21.55 C18.8139355,24.6644 21.975871,26.65 25.454,26.65 C30.5407742,26.65 34.6798065,22.45525 34.6798065,17.3 C34.6798065,12.14475 30.5407742,7.95 25.454,7.95 C21.975871,7.95 18.8130968,9.9356 17.243871,13.05 L13.6130968,13.05 C13.8814839,12.27905 14.2169677,11.53615 14.6262581,10.83405 L14.9567097,10.2671 L13.0008387,8.2849 L16.5594839,4.67835 L18.5153548,6.6614 L19.0756129,6.32565 C20.0820645,5.72385 21.169871,5.26655 22.3096774,4.96905 L22.937871,4.80415 L22.937871,2 L27.970129,2 L27.970129,4.80415 L28.5991613,4.9682 C29.7389677,5.26655 30.8267742,5.723 31.8332258,6.3248 L32.3934839,6.66055 L34.3493548,4.6775 L37.908,8.28405 L35.952129,10.26625 L36.2825806,10.8332 C36.8763871,11.8532 37.3267742,12.95565 37.6211613,14.11165 L37.783871,14.75 L38.0346452,14.75 L40.5507742,14.75 L40.5507742,19.85 L38.0346452,19.85 Z" id="path-1"></path>
    </defs>
    <g id="Page-1" stroke="none" stroke-width="1" fill="none" fill-rule="evenodd">
        <g id="NexGenSm_Wesite_Home_Page-UI" transform="translate(-148.000000, -1630.000000)">
            <g id="nnovation_icon" transform="translate(148.000000, 1630.000000)">
                <g id="Group-3">
                    <g id="noun_898485_cc" fill-rule="nonzero" fill="#000000">
                        <g id="Group">
                            <path d="M52,17 C52,14.65655 50.1187742,12.75 47.8064516,12.75 L42.7741935,12.75 L39.6130968,12.75 C39.3514194,11.883 39.0083871,11.04575 38.5923871,10.24845 L40.825871,7.98405 L34.8953548,1.9737 L32.661871,4.2381 C31.8751613,3.81565 31.0481935,3.46885 30.1935484,3.2028 L30.1935484,0 L21.8064516,0 L21.8064516,3.2028 C20.9509677,3.46885 20.1248387,3.81565 19.338129,4.2381 L17.1046452,1.9737 L11.174129,7.98405 L13.4076129,10.24845 C12.9916129,11.0432 12.6729032,11.8864 12.4103871,12.75 L5.57658065,12.75 L0.334645161,17 L5.57658065,21.25 L12.4103871,21.25 C12.6729032,22.1136 12.9916129,22.9568 13.4067742,23.75155 L11.1732903,26.0151 L17.1038065,32.02545 L19.3372903,29.7619 C20.124,30.1835 20.9509677,30.52945 21.8056129,30.79635 L21.8056129,34 L30.1927097,34 L30.1927097,30.79635 C31.0481935,30.5303 31.8743226,30.1835 32.6610323,29.7619 L34.8945161,32.02545 L40.8250323,26.0151 L38.5915484,23.75155 C39.0075484,22.95425 39.3489032,22.11615 39.6122581,21.25 L42.7741935,21.25 L47.8064516,21.25 C50.1187742,21.25 52,19.34345 52,17 Z M42.7741935,14.45 L44.4516129,14.45 L44.4516129,19.55 L42.7741935,19.55 L42.7741935,14.45 Z M47.8064516,19.55 L46.1290323,19.55 L46.1290323,14.45 L47.8064516,14.45 C49.1936774,14.45 50.3225806,15.5941 50.3225806,17 C50.3225806,18.4059 49.1936774,19.55 47.8064516,19.55 Z" id="Shape"></path>
                            <rect id="Rectangle-path" x="49.483871" y="22.95" width="1.67741935" height="1.7"></rect>
                            <rect id="Rectangle-path" x="46.1290323" y="22.95" width="1.67741935" height="1.7"></rect>
                            <rect id="Rectangle-path" x="42.7741935" y="22.95" width="1.67741935" height="1.7"></rect>
                            <rect id="Rectangle-path" x="6.70967742" y="9.35" width="1.67741935" height="1.7"></rect>
                            <rect id="Rectangle-path" x="3.35483871" y="9.35" width="1.67741935" height="1.7"></rect>
                            <rect id="Rectangle-path" x="0" y="9.35" width="1.67741935" height="1.7"></rect>
                        </g>
                    </g>
                    <path d="M33.1080645,19.55 L7.5483871,19.55 L7.5483871,17.85 L33.4989032,17.85 C33.4343226,18.44075 33.2984516,19.0077 33.1080645,19.55 Z" id="Path" fill="#FFFFFF"></path>
                    <path d="M32.271871,21.25 C30.9156774,23.2985 28.6109032,24.65 26,24.65 C23.4570323,24.65 21.1287742,23.3444 19.7423871,21.25 L32.271871,21.25 Z" id="Path" fill="#FFFFFF"></path>
                    <path d="M33.1080645,14.45 C33.2984516,14.9923 33.4343226,15.5601 33.4989032,16.15 L7.5483871,16.15 L7.5483871,14.45 L33.1080645,14.45 Z" id="Path" fill="#FFFFFF"></path>
                    <path d="M19.7423871,12.75 C21.1279355,10.65475 23.4570323,9.35 26,9.35 C28.6117419,9.35 30.9165161,10.7015 32.271871,12.75 L19.7423871,12.75 Z" id="Path" fill="#FFFFFF"></path>
                    <polygon id="Path" fill="#FFFFFF" points="3.02019355 17 5.87096774 14.688 5.87096774 19.31115"></polygon>
                </g>
                <g id="Path">
                    <use fill="#FFFFFF" fill-rule="evenodd" xlink:href="#path-1"></use>
                    <path stroke="#30D6C7" stroke-width="1.6" d="M38.4061244,20.65 L38.3971218,20.685455 C38.0835262,21.9133847 37.6048794,23.0847387 36.9740089,24.1675015 L36.9513041,24.2065142 L39.0318821,26.3151 L34.3493548,31.0606613 L32.2650225,28.9482707 L32.2440352,28.960816 C31.1737884,29.6012956 30.016036,30.0872072 28.8010465,30.4059075 L28.770129,30.4139707 L28.770129,33.4 L22.137871,33.4 L22.137871,30.4139699 L22.1058594,30.4056213 C20.891964,30.0872072 19.7342116,29.6012956 18.664309,28.9610219 L18.6429774,28.9482707 L16.5586452,31.0606613 L11.8761179,26.3151 L13.956696,24.2065141 L13.9341343,24.1677474 C13.5075112,23.4352997 13.1485689,22.6478009 12.8570769,21.8140102 L12.4851005,20.75 L17.7364763,20.75 L17.9582285,21.1898705 C19.3987365,24.0472806 22.292019,25.85 25.454,25.85 C30.0965342,25.85 33.8798065,22.015799 33.8798065,17.3 C33.8798065,12.584201 30.0965342,8.75 25.454,8.75 C22.2917349,8.75 19.3978426,10.5529664 17.9583058,13.4099761 L17.7365948,13.85 L12.4875061,13.85 L12.8575695,12.7869819 C13.1476167,11.9538126 13.5065724,11.1662843 13.9350921,10.4311981 L13.9572445,10.3931917 L11.8769566,8.2849 L16.559606,3.53921497 L18.643428,5.65199407 L18.6650556,5.63903313 C19.7385509,4.99714491 20.8968139,4.51101903 22.1065598,4.19526498 L22.137871,4.18704585 L22.137871,1.2 L28.770129,1.2 L28.770129,4.18602966 L28.8017403,4.19427382 C30.0142382,4.51165115 31.1721137,4.99738666 32.2444578,5.638587 L32.265411,5.6511438 L34.3492328,3.53836497 L39.0318821,8.28405 L36.9515942,10.3923418 L36.9739556,10.4307069 C37.6055051,11.5155394 38.0839173,12.6870953 38.396375,13.914055 L38.405537,13.95 L41.3507742,13.95 L41.3507742,20.65 L38.4061244,20.65 Z"></path>
                </g>
            </g>
        </g>
    </g>
</svg>