<?xml version="1.0" encoding="UTF-8"?>
<svg width="46px" height="34px" viewBox="0 0 46 34" version="1.1" xmlns="http://www.w3.org/2000/svg" xmlns:xlink="http://www.w3.org/1999/xlink">
    <!-- Generator: Sketch 44.1 (41455) - http://www.bohemiancoding.com/sketch -->
    <title>Our  Clientele</title>
    <desc>Created with Sketch.</desc>
    <defs></defs>
    <g id="Page-1" stroke="none" stroke-width="1" fill="none" fill-rule="evenodd">
        <g id="Hardware-Design-And-Development-" transform="translate(-1032.000000, -545.000000)" fill-rule="nonzero">
            <g id="Our--Clientele" transform="translate(1032.000000, 545.000000)">
                <g id="Group">
                    <g transform="translate(0.000000, 1.000000)" id="Shape" fill="#000000">
                        <path d="M9.35164835,11.25 C6.31868132,11.25 3.84175824,8.8 3.84175824,5.75 C3.84175824,2.7 6.31868132,0.25 9.35164835,0.25 C12.3846154,0.25 14.8615385,2.7 14.8615385,5.75 C14.8615385,8.8 12.3846154,11.25 9.35164835,11.25 Z M9.35164835,1.35 C6.92527473,1.35 4.95384615,3.3 4.95384615,5.75 C4.95384615,8.15 6.92527473,10.15 9.35164835,10.15 C11.778022,10.15 13.7494505,8.2 13.7494505,5.75 C13.7494505,3.35 11.778022,1.35 9.35164835,1.35 Z"></path>
                        <path d="M18.5010989,20 L0.202197802,20 L0.353846154,19.3 C1.31428571,15.15 5.05494505,12.2 9.35164835,12.2 C13.6483516,12.2 17.3384615,15.1 18.3494505,19.3 L18.5010989,20 Z M1.61758242,18.9 L17.0351648,18.9 C15.9230769,15.6 12.8901099,13.35 9.3010989,13.35 C5.71208791,13.35 2.67912088,15.6 1.61758242,18.9 Z"></path>
                    </g>
                    <g transform="translate(27.296703, 13.000000)" id="Shape" fill="#000000">
                        <path d="M9.25054945,11.25 C6.21758242,11.25 3.74065934,8.8 3.74065934,5.75 C3.74065934,2.7 6.21758242,0.25 9.25054945,0.25 C12.2835165,0.25 14.7604396,2.7 14.7604396,5.75 C14.7604396,8.8 12.2835165,11.25 9.25054945,11.25 Z M9.25054945,1.35 C6.82417582,1.35 4.85274725,3.3 4.85274725,5.75 C4.85274725,8.2 6.82417582,10.15 9.25054945,10.15 C11.6769231,10.15 13.6483516,8.2 13.6483516,5.75 C13.6483516,3.3 11.6769231,1.35 9.25054945,1.35 Z"></path>
                        <path d="M18.4,20 L0.101098901,20 L0.252747253,19.3 C1.21318681,15.15 4.95384615,12.2 9.25054945,12.2 C13.5472527,12.2 17.2373626,15.1 18.2483516,19.3 L18.4,20 Z M1.51648352,18.85 L16.9340659,18.85 C15.821978,15.55 12.789011,13.3 9.2,13.3 C5.66153846,13.35 2.62857143,15.6 1.51648352,18.85 Z"></path>
                    </g>
                    <g transform="translate(8.593407, 0.000000)" id="Shape" fill="#30D6C7">
                        <path d="M29.8241758,10.1 C27.1450549,4.4 21.3824176,0.45 14.6593407,0.45 C12.7384615,0.45 10.8175824,0.8 9.04835165,1.4 L9.4021978,2.45 C11.0703297,1.85 12.8395604,1.55 14.6593407,1.55 C20.7252747,1.55 25.9824176,5 28.610989,10.05 C28.8131868,10.4 28.9648352,10.8 29.1164835,11.15 L30.3296703,11.15 C30.1274725,10.8 29.9758242,10.45 29.8241758,10.1 Z"></path>
                        <path d="M14.0527473,32.65 C8.7956044,32.45 3.89230769,29.6 1.16263736,25.05 L0.202197802,25.6 C3.13406593,30.45 8.39120879,33.55 14.0527473,33.75 C14.2549451,33.75 14.4065934,33.75 14.6087912,33.75 C14.810989,33.75 14.9626374,33.75 15.1648352,33.75 L15.1648352,32.65 C14.9626374,32.65 14.810989,32.65 14.6087912,32.65 C14.4571429,32.65 14.2549451,32.65 14.0527473,32.65 Z"></path>
                    </g>
                </g>
            </g>
        </g>
    </g>
</svg>