<?xml version="1.0" encoding="UTF-8"?>
<svg width="75px" height="73px" viewBox="0 0 75 73" version="1.1" xmlns="http://www.w3.org/2000/svg" xmlns:xlink="http://www.w3.org/1999/xlink">
    <!-- Generator: Sketch 44.1 (41455) - http://www.bohemiancoding.com/sketch -->
    <title>parnership</title>
    <desc>Created with Sketch.</desc>
    <defs></defs>
    <g id="Page-1" stroke="none" stroke-width="1" fill="none" fill-rule="evenodd">
        <g id="Share-your-ideas" transform="translate(-545.000000, -210.000000)" fill-rule="nonzero" fill="#FFFFFF">
            <g id="parnership" transform="translate(545.000000, 210.000000)">
                <g id="Group">
                    <path d="M40.0746269,56.4923077 C40.4104478,55.9318681 40.6343284,55.3714286 40.6343284,54.6989011 L41.3059701,55.1472527 C41.8656716,55.5956044 42.5373134,55.7076923 43.2089552,55.7076923 C43.4328358,55.7076923 43.6567164,55.7076923 43.880597,55.5956044 C44.7761194,55.3714286 45.5597015,54.9230769 46.119403,54.1384615 C46.4552239,53.578022 46.6791045,53.0175824 46.6791045,52.3450549 C47.238806,52.7934066 47.9104478,52.9054945 48.5820896,52.9054945 C48.8059701,52.9054945 49.0298507,52.9054945 49.2537313,52.7934066 C50.1492537,52.6813187 50.9328358,52.1208791 51.4925373,51.3362637 C51.8283582,50.7758242 52.0522388,50.2153846 52.0522388,49.5428571 L52.2761194,49.6549451 C52.8358209,50.1032967 53.5074627,50.2153846 54.1791045,50.2153846 C54.4029851,50.2153846 54.6268657,50.2153846 54.8507463,50.1032967 C55.7462687,49.9912088 56.5298507,49.4307692 57.0895522,48.6461538 C57.6492537,47.8615385 57.761194,46.9648352 57.6492537,46.0681319 C57.4253731,45.1714286 56.9776119,44.3868132 56.1940299,43.8263736 L45.3358209,36.4285714 L43.2089552,36.4285714 C39.8507463,36.4285714 39.4029851,33.8505495 39.2910448,33.6263736 L39.1791045,32.8417582 L31.5671642,32.8417582 L31.4552239,33.5142857 C31.119403,35.1956044 30.5597015,36.3164835 29.7761194,36.8769231 C29.3283582,37.1010989 28.880597,37.2131868 28.5447761,37.2131868 L28.5447761,32.5054945 L34.0298507,29.367033 L34.9253731,29.367033 L49.2537313,29.367033 C49.3656716,29.5912088 49.3656716,29.7032967 49.4776119,29.9274725 L57.4253731,41.5846154 C57.761194,42.032967 58.3208955,42.3692308 58.880597,42.4813187 C58.9925373,42.4813187 59.1044776,42.4813187 59.2164179,42.4813187 C59.8880597,42.4813187 60.5597015,42.2571429 61.119403,41.8087912 C63.358209,40.0153846 65.7089552,38.3340659 68.0597015,36.7648352 L67.1641791,35.4197802 C64.8134328,36.989011 62.4626866,38.7824176 60.1119403,40.4637363 C59.7761194,40.6879121 59.4402985,40.8 59.1044776,40.8 C58.880597,40.8 58.7686567,40.6879121 58.7686567,40.5758242 L50.8208955,28.9186813 C50.8208955,28.9186813 50.7089552,28.8065934 50.7089552,28.5824176 C50.8208955,28.2461538 51.0447761,28.021978 51.380597,27.7978022 C53.0597015,26.789011 54.738806,25.6681319 56.4179104,24.5472527 L55.5223881,23.0901099 C53.8432836,24.210989 52.1641791,25.2197802 50.5970149,26.2285714 C50.0373134,26.5648352 49.5895522,27.0131868 49.3656716,27.5736264 L35.0373134,27.5736264 L33.6940299,27.5736264 L25.5223881,27.5736264 C25.2985075,27.0131868 24.8507463,26.5648352 24.2910448,26.2285714 C22.6119403,25.2197802 20.9328358,24.0989011 19.3656716,23.0901099 L18.4701493,24.5472527 C20.1492537,25.6681319 21.8283582,26.6769231 23.5074627,27.7978022 C23.8432836,28.021978 24.0671642,28.3582418 24.1791045,28.5824176 C24.1791045,28.8065934 24.1791045,28.9186813 24.0671642,28.9186813 L16.119403,40.5758242 C16.119403,40.5758242 16.0074627,40.6879121 15.7835821,40.8 C15.4477612,40.8 15.1119403,40.6879121 14.7761194,40.4637363 C12.4253731,38.6703297 10.0746269,36.989011 7.7238806,35.4197802 L6.82835821,36.7648352 C9.17910448,38.3340659 11.5298507,40.0153846 13.7686567,41.8087912 C14.3283582,42.2571429 15,42.4813187 15.6716418,42.4813187 C15.7835821,42.4813187 15.8955224,42.4813187 16.0074627,42.4813187 C16.5671642,42.3692308 17.1268657,42.032967 17.4626866,41.5846154 L17.9104478,41.4725275 C18.358209,41.9208791 19.0298507,42.5934066 19.3656716,43.1538462 C19.4776119,43.378022 19.5895522,43.6021978 19.7014925,43.7142857 C19.7014925,43.8263736 19.7014925,43.8263736 19.8134328,43.9384615 C19.5895522,44.1626374 19.2537313,44.3868132 19.141791,44.610989 C18.5820896,45.2835165 18.358209,46.1802198 18.5820896,47.0769231 C18.6940299,47.9736264 19.141791,48.6461538 19.8134328,49.2065934 L19.9253731,49.3186813 C20.4850746,49.767033 21.1567164,49.9912088 21.8283582,49.9912088 C21.9402985,49.9912088 22.1641791,49.9912088 22.2761194,49.9912088 C22.2761194,50.1032967 22.2761194,50.2153846 22.2761194,50.3274725 C22.3880597,51.2241758 22.8358209,52.0087912 23.619403,52.4571429 C24.1791045,52.9054945 24.8507463,53.1296703 25.6343284,53.1296703 C25.858209,53.1296703 26.0820896,53.1296703 26.3059701,53.0175824 C26.3059701,53.1296703 26.3059701,53.1296703 26.3059701,53.2417582 C26.4179104,54.1384615 26.8656716,54.9230769 27.6492537,55.3714286 C28.2089552,55.8197802 28.880597,56.043956 29.6641791,56.043956 C29.8880597,56.043956 30.2238806,56.043956 30.4477612,55.9318681 C30.4477612,55.9318681 30.4477612,55.9318681 30.4477612,55.9318681 C30.5597015,56.7164835 31.0074627,57.389011 31.6791045,57.9494505 C32.238806,58.2857143 32.7985075,58.5098901 33.4701493,58.5098901 C34.3656716,58.5098901 35.1492537,58.1736264 35.7089552,57.5010989 C36.2686567,57.8373626 36.8283582,57.9494505 37.5,57.9494505 C38.3955224,57.9494505 39.4029851,57.5010989 40.0746269,56.4923077 Z M20.8208955,47.9736264 L20.7089552,47.8615385 C20.3731343,47.6373626 20.1492537,47.3010989 20.0373134,46.8527473 C19.9253731,46.4043956 20.0373134,46.0681319 20.3731343,45.7318681 C20.7089552,45.2835165 21.1567164,45.0593407 21.6044776,45.0593407 C21.9402985,45.0593407 22.2761194,45.1714286 22.5,45.3956044 L22.6119403,45.5076923 C22.9477612,45.7318681 23.1716418,46.0681319 23.2835821,46.5164835 C23.2835821,46.8527473 23.2835821,47.189011 23.0597015,47.4131868 L22.7238806,47.7494505 C22.2761194,48.3098901 21.380597,48.421978 20.8208955,47.9736264 Z M24.5149254,51.1120879 C24.1791045,50.8879121 23.9552239,50.4395604 23.8432836,49.9912088 C23.7313433,49.5428571 23.8432836,49.2065934 24.0671642,48.8703297 C24.1791045,48.7582418 24.1791045,48.7582418 24.2910448,48.6461538 C24.4029851,48.5340659 24.5149254,48.421978 24.5149254,48.1978022 L25.1865672,47.3010989 C25.5223881,46.8527473 25.9701493,46.6285714 26.5298507,46.6285714 C26.8656716,46.6285714 27.2014925,46.7406593 27.5373134,46.9648352 C28.3208955,47.5252747 28.4328358,48.5340659 27.8731343,49.3186813 L26.7537313,50.7758242 C26.3059701,51.4483516 25.1865672,51.5604396 24.5149254,51.1120879 Z M28.5447761,54.0263736 C28.2089552,53.8021978 27.9850746,53.3538462 27.8731343,52.9054945 C27.761194,52.4571429 27.8731343,52.0087912 28.2089552,51.6725275 L30.2238806,48.8703297 C30.5597015,48.421978 31.0074627,48.1978022 31.5671642,48.1978022 C31.9029851,48.1978022 32.238806,48.3098901 32.5746269,48.5340659 C32.9104478,48.7582418 33.1343284,49.2065934 33.2462687,49.6549451 C33.358209,50.1032967 33.2462687,50.5516484 32.9104478,50.8879121 L30.8955224,53.6901099 C30.3358209,54.3626374 29.2164179,54.5868132 28.5447761,54.0263736 Z M34.5895522,55.9318681 L34.2537313,56.2681319 C33.8059701,56.8285714 33.0223881,56.9406593 32.3507463,56.4923077 C32.0149254,56.2681319 31.9029851,55.9318681 31.7910448,55.5956044 C31.7910448,55.2593407 31.7910448,54.9230769 32.0149254,54.5868132 L32.3507463,54.2505495 C32.5746269,53.9142857 33.0223881,53.6901099 33.4701493,53.6901099 C33.8059701,53.6901099 34.0298507,53.8021978 34.2537313,53.9142857 C34.5895522,54.1384615 34.7014925,54.4747253 34.8134328,54.810989 C34.9253731,55.2593407 34.8134328,55.5956044 34.5895522,55.9318681 Z M36.380597,56.043956 C36.4925373,55.5956044 36.6044776,55.1472527 36.4925373,54.6989011 C36.380597,53.9142857 35.9328358,53.2417582 35.261194,52.6813187 C34.8134328,52.3450549 34.3656716,52.232967 33.9179104,52.1208791 L34.141791,51.8967033 C34.7014925,51.2241758 34.9253731,50.3274725 34.7014925,49.4307692 C34.5895522,48.5340659 34.141791,47.7494505 33.358209,47.3010989 C32.238806,46.5164835 30.6716418,46.5164835 29.5522388,47.189011 C29.3283582,46.6285714 28.9925373,46.0681319 28.4328358,45.6197802 C27.3134328,44.8351648 25.7462687,44.8351648 24.6268657,45.5076923 C24.4029851,44.9472527 24.0671642,44.3868132 23.5074627,44.0505495 L23.5074627,43.9384615 C22.8358209,43.4901099 22.0522388,43.2659341 21.2686567,43.378022 C21.2686567,43.2659341 21.1567164,43.1538462 21.1567164,43.0417582 C21.0447761,42.8175824 20.9328358,42.5934066 20.8208955,42.3692308 C20.3731343,41.4725275 19.4776119,40.5758242 18.9179104,40.0153846 L25.4104478,30.4879121 C25.5223881,30.3758242 25.6343284,30.1516484 25.6343284,29.9274725 L30.6716418,29.9274725 L26.8656716,32.0571429 L26.8656716,39.2307692 L27.4253731,39.4549451 C27.5373134,39.4549451 28.9925373,39.9032967 30.5597015,39.0065934 C31.6791045,38.3340659 32.5746269,36.989011 32.9104478,35.1956044 L37.7238806,35.1956044 C38.1716418,36.7648352 39.738806,38.7824176 43.0970149,38.7824176 L44.6641791,38.7824176 L55.0746269,45.843956 C55.4104478,46.0681319 55.7462687,46.5164835 55.858209,46.9648352 C55.9701493,47.4131868 55.858209,47.8615385 55.5223881,48.3098901 C54.9626866,49.0945055 53.8432836,49.3186813 53.0597015,48.7582418 L50.3731343,46.9648352 L50.3731343,46.9648352 L42.8731343,41.8087912 L41.9776119,43.1538462 L49.4776119,48.3098901 C50.261194,48.8703297 50.4850746,49.9912088 49.9253731,50.7758242 C49.7014925,51.1120879 49.2537313,51.4483516 48.8059701,51.5604396 C48.358209,51.6725275 47.9104478,51.5604396 47.4626866,51.2241758 L39.9626866,46.0681319 L39.8507463,46.1802198 L39.8507463,46.1802198 L39.1791045,47.5252747 L44.3283582,50.8879121 C44.6641791,51.1120879 45,51.5604396 45.1119403,52.0087912 C45.2238806,52.4571429 45.1119403,52.9054945 44.7761194,53.3538462 C44.5522388,53.6901099 44.1044776,54.0263736 43.6567164,54.1384615 C43.2089552,54.2505495 42.761194,54.1384615 42.3134328,53.9142857 L37.5,50.4395604 L36.4925373,51.7846154 L38.2835821,53.0175824 L38.2835821,53.0175824 C38.619403,53.2417582 38.9552239,53.6901099 39.0671642,54.1384615 C39.1791045,54.5868132 39.0671642,55.0351648 38.8432836,55.4835165 C38.1716418,56.2681319 37.1641791,56.4923077 36.380597,56.043956 Z" id="Shape"></path>
                    <rect id="Rectangle-path" transform="translate(57.585285, 35.268610) rotate(144.963858) translate(-57.585285, -35.268610) " x="56.7495407" y="34.4239752" width="1.67912484" height="1.68133907"></rect>
                    <rect id="Rectangle-path" transform="translate(59.459834, 38.079881) rotate(54.992491) translate(-59.459834, -38.079881) " x="58.6241875" y="37.235113" width="1.67915191" height="1.68136618"></rect>
                    <rect id="Rectangle-path" transform="translate(17.376555, 35.012118) rotate(34.870912) translate(-17.376555, -35.012118) " x="16.5405018" y="34.1679237" width="1.67901804" height="1.68123213"></rect>
                    <rect id="Rectangle-path" transform="translate(15.484253, 37.747731) rotate(-145.129088) translate(-15.484253, -37.747731) " x="14.6442224" y="36.9076366" width="1.67901804" height="1.68123213"></rect>
                    <rect id="Rectangle-path" x="39.738806" y="0.336263736" width="1.67910448" height="1.68131868"></rect>
                    <rect id="Rectangle-path" x="43.880597" y="0.336263736" width="1.67910448" height="1.68131868"></rect>
                    <rect id="Rectangle-path" x="48.0223881" y="0.336263736" width="1.67910448" height="1.68131868"></rect>
                    <rect id="Rectangle-path" x="52.1641791" y="0.336263736" width="1.67910448" height="1.68131868"></rect>
                    <path d="M13.9925373,54.9230769 L13.9925373,62.8813187 C6.71641791,56.2681319 2.57462687,46.8527473 2.57462687,36.989011 C2.57462687,17.7098901 18.2462687,2.01758242 37.5,2.01758242 L37.5,0.336263736 C17.238806,0.336263736 0.78358209,16.8131868 0.78358209,36.989011 C0.78358209,47.189011 5.03731343,56.9406593 12.4253731,63.778022 L4.92537313,63.778022 L4.92537313,65.4593407 L15.5597015,65.4593407 L15.5597015,54.810989 L13.9925373,54.810989 L13.9925373,54.9230769 Z" id="Shape"></path>
                    <path d="M62.4626866,9.07912088 L69.9626866,9.07912088 L69.9626866,7.3978022 L59.3283582,7.3978022 L59.3283582,18.0461538 L61.0074627,18.0461538 L61.0074627,10.0879121 C68.2835821,16.589011 72.5373134,26.0043956 72.5373134,35.8681319 C72.5373134,55.1472527 56.8656716,70.8395604 37.6119403,70.8395604 L37.6119403,72.5208791 C57.761194,72.5208791 74.2164179,56.043956 74.2164179,35.8681319 C74.2164179,25.6681319 69.9626866,15.9164835 62.4626866,9.07912088 Z" id="Shape"></path>
                    <rect id="Rectangle-path" x="33.5820896" y="70.8395604" width="1.67910448" height="1.68131868"></rect>
                    <rect id="Rectangle-path" x="29.4402985" y="70.8395604" width="1.67910448" height="1.68131868"></rect>
                    <rect id="Rectangle-path" x="25.2985075" y="70.8395604" width="1.67910448" height="1.68131868"></rect>
                    <rect id="Rectangle-path" x="21.1567164" y="70.8395604" width="1.67910448" height="1.68131868"></rect>
                </g>
            </g>
        </g>
    </g>
</svg>