<?xml version="1.0" encoding="UTF-8"?>
<svg width="35px" height="35px" viewBox="0 0 35 35" version="1.1" xmlns="http://www.w3.org/2000/svg" xmlns:xlink="http://www.w3.org/1999/xlink">
    <!-- Generator: Sketch 44.1 (41455) - http://www.bohemiancoding.com/sketch -->
    <title>Partner_icon</title>
    <desc>Created with Sketch.</desc>
    <defs></defs>
    <g id="Page-1" stroke="none" stroke-width="1" fill="none" fill-rule="evenodd">
        <g id="Partner_icon" transform="translate(-16.000000, -6.000000)" fill-rule="nonzero">
            <rect id="Rectangle-13-Copy-2" transform="translate(33.089744, 23.000000) scale(-1, 1) translate(-33.089744, -23.000000) " x="8.00000009e-07" y="0" width="66.1794872" height="46"></rect>
            <g id="noun_996137_cc" transform="translate(16.000000, 6.000000)" fill="#645B6A">
                <g id="Group">
                    <path d="M18.7014925,26.3630769 C18.858209,26.1015385 18.9626866,25.84 18.9626866,25.5261538 L19.2761194,25.7353846 C19.5373134,25.9446154 19.8507463,25.9969231 20.1641791,25.9969231 C20.2686567,25.9969231 20.3731343,25.9969231 20.4776119,25.9446154 C20.8955224,25.84 21.261194,25.6307692 21.5223881,25.2646154 C21.6791045,25.0030769 21.7835821,24.7415385 21.7835821,24.4276923 C22.0447761,24.6369231 22.358209,24.6892308 22.6716418,24.6892308 C22.7761194,24.6892308 22.880597,24.6892308 22.9850746,24.6369231 C23.4029851,24.5846154 23.7686567,24.3230769 24.0298507,23.9569231 C24.1865672,23.6953846 24.2910448,23.4338462 24.2910448,23.12 L24.3955224,23.1723077 C24.6567164,23.3815385 24.9701493,23.4338462 25.2835821,23.4338462 C25.3880597,23.4338462 25.4925373,23.4338462 25.5970149,23.3815385 C26.0149254,23.3292308 26.380597,23.0676923 26.641791,22.7015385 C26.9029851,22.3353846 26.9552239,21.9169231 26.9029851,21.4984615 C26.7985075,21.08 26.5895522,20.7138462 26.2238806,20.4523077 L21.1567164,17 L20.1641791,17 C18.5970149,17 18.3880597,15.7969231 18.3358209,15.6923077 L18.2835821,15.3261538 L14.7313433,15.3261538 L14.6791045,15.64 C14.5223881,16.4246154 14.261194,16.9476923 13.8955224,17.2092308 C13.6865672,17.3138462 13.4776119,17.3661538 13.3208955,17.3661538 L13.3208955,15.1692308 L15.880597,13.7046154 L16.2985075,13.7046154 L22.9850746,13.7046154 C23.0373134,13.8092308 23.0373134,13.8615385 23.0895522,13.9661538 L26.7985075,19.4061538 C26.9552239,19.6153846 27.2164179,19.7723077 27.4776119,19.8246154 C27.5298507,19.8246154 27.5820896,19.8246154 27.6343284,19.8246154 C27.9477612,19.8246154 28.261194,19.72 28.5223881,19.5107692 C29.5671642,18.6738462 30.6641791,17.8892308 31.761194,17.1569231 L31.3432836,16.5292308 C30.2462687,17.2615385 29.1492537,18.0984615 28.0522388,18.8830769 C27.8955224,18.9876923 27.738806,19.04 27.5820896,19.04 C27.4776119,19.04 27.4253731,18.9876923 27.4253731,18.9353846 L23.7164179,13.4953846 C23.7164179,13.4953846 23.6641791,13.4430769 23.6641791,13.3384615 C23.7164179,13.1815385 23.8208955,13.0769231 23.9776119,12.9723077 C24.761194,12.5015385 25.5447761,11.9784615 26.3283582,11.4553846 L25.9104478,10.7753846 C25.1268657,11.2984615 24.3432836,11.7692308 23.6119403,12.24 C23.3507463,12.3969231 23.141791,12.6061538 23.0373134,12.8676923 L16.3507463,12.8676923 L15.7238806,12.8676923 L11.9104478,12.8676923 C11.8059701,12.6061538 11.5970149,12.3969231 11.3358209,12.24 C10.5522388,11.7692308 9.76865672,11.2461538 9.03731343,10.7753846 L8.61940299,11.4553846 C9.40298507,11.9784615 10.1865672,12.4492308 10.9701493,12.9723077 C11.1268657,13.0769231 11.2313433,13.2338462 11.2835821,13.3384615 C11.2835821,13.4430769 11.2835821,13.4953846 11.2313433,13.4953846 L7.52238806,18.9353846 C7.52238806,18.9353846 7.47014925,18.9876923 7.36567164,19.04 C7.20895522,19.04 7.05223881,18.9876923 6.89552239,18.8830769 C5.79850746,18.0461538 4.70149254,17.2615385 3.60447761,16.5292308 L3.18656716,17.1569231 C4.28358209,17.8892308 5.38059701,18.6738462 6.42537313,19.5107692 C6.68656716,19.72 7,19.8246154 7.31343284,19.8246154 C7.36567164,19.8246154 7.41791045,19.8246154 7.47014925,19.8246154 C7.73134328,19.7723077 7.99253731,19.6153846 8.14925373,19.4061538 L8.35820896,19.3538462 C8.56716418,19.5630769 8.88059701,19.8769231 9.03731343,20.1384615 C9.08955224,20.2430769 9.14179104,20.3476923 9.19402985,20.4 C9.19402985,20.4523077 9.19402985,20.4523077 9.24626866,20.5046154 C9.14179104,20.6092308 8.98507463,20.7138462 8.93283582,20.8184615 C8.67164179,21.1323077 8.56716418,21.5507692 8.67164179,21.9692308 C8.7238806,22.3876923 8.93283582,22.7015385 9.24626866,22.9630769 L9.29850746,23.0153846 C9.55970149,23.2246154 9.87313433,23.3292308 10.1865672,23.3292308 C10.238806,23.3292308 10.3432836,23.3292308 10.3955224,23.3292308 C10.3955224,23.3815385 10.3955224,23.4338462 10.3955224,23.4861538 C10.4477612,23.9046154 10.6567164,24.2707692 11.0223881,24.48 C11.2835821,24.6892308 11.5970149,24.7938462 11.9626866,24.7938462 C12.0671642,24.7938462 12.1716418,24.7938462 12.2761194,24.7415385 C12.2761194,24.7938462 12.2761194,24.7938462 12.2761194,24.8461538 C12.3283582,25.2646154 12.5373134,25.6307692 12.9029851,25.84 C13.1641791,26.0492308 13.4776119,26.1538462 13.8432836,26.1538462 C13.9477612,26.1538462 14.1044776,26.1538462 14.2089552,26.1015385 C14.2089552,26.1015385 14.2089552,26.1015385 14.2089552,26.1015385 C14.261194,26.4676923 14.4701493,26.7815385 14.7835821,27.0430769 C15.0447761,27.2 15.3059701,27.3046154 15.619403,27.3046154 C16.0373134,27.3046154 16.4029851,27.1476923 16.6641791,26.8338462 C16.9253731,26.9907692 17.1865672,27.0430769 17.5,27.0430769 C17.9179104,27.0430769 18.3880597,26.8338462 18.7014925,26.3630769 Z M9.71641791,22.3876923 L9.6641791,22.3353846 C9.50746269,22.2307692 9.40298507,22.0738462 9.35074627,21.8646154 C9.29850746,21.6553846 9.35074627,21.4984615 9.50746269,21.3415385 C9.6641791,21.1323077 9.87313433,21.0276923 10.0820896,21.0276923 C10.238806,21.0276923 10.3955224,21.08 10.5,21.1846154 L10.5522388,21.2369231 C10.7089552,21.3415385 10.8134328,21.4984615 10.8656716,21.7076923 C10.8656716,21.8646154 10.8656716,22.0215385 10.761194,22.1261538 L10.6044776,22.2830769 C10.3955224,22.5446154 9.97761194,22.5969231 9.71641791,22.3876923 Z M11.4402985,23.8523077 C11.2835821,23.7476923 11.1791045,23.5384615 11.1268657,23.3292308 C11.0746269,23.12 11.1268657,22.9630769 11.2313433,22.8061538 C11.2835821,22.7538462 11.2835821,22.7538462 11.3358209,22.7015385 C11.3880597,22.6492308 11.4402985,22.5969231 11.4402985,22.4923077 L11.7537313,22.0738462 C11.9104478,21.8646154 12.119403,21.76 12.380597,21.76 C12.5373134,21.76 12.6940299,21.8123077 12.8507463,21.9169231 C13.2164179,22.1784615 13.2686567,22.6492308 13.0074627,23.0153846 L12.4850746,23.6953846 C12.2761194,24.0092308 11.7537313,24.0615385 11.4402985,23.8523077 Z M13.3208955,25.2123077 C13.1641791,25.1076923 13.0597015,24.8984615 13.0074627,24.6892308 C12.9552239,24.48 13.0074627,24.2707692 13.1641791,24.1138462 L14.1044776,22.8061538 C14.261194,22.5969231 14.4701493,22.4923077 14.7313433,22.4923077 C14.8880597,22.4923077 15.0447761,22.5446154 15.2014925,22.6492308 C15.358209,22.7538462 15.4626866,22.9630769 15.5149254,23.1723077 C15.5671642,23.3815385 15.5149254,23.5907692 15.358209,23.7476923 L14.4179104,25.0553846 C14.1567164,25.3692308 13.6343284,25.4738462 13.3208955,25.2123077 Z M16.141791,26.1015385 L15.9850746,26.2584615 C15.7761194,26.52 15.4104478,26.5723077 15.0970149,26.3630769 C14.9402985,26.2584615 14.8880597,26.1015385 14.8358209,25.9446154 C14.8358209,25.7876923 14.8358209,25.6307692 14.9402985,25.4738462 L15.0970149,25.3169231 C15.2014925,25.16 15.4104478,25.0553846 15.619403,25.0553846 C15.7761194,25.0553846 15.880597,25.1076923 15.9850746,25.16 C16.141791,25.2646154 16.1940299,25.4215385 16.2462687,25.5784615 C16.2985075,25.7876923 16.2462687,25.9446154 16.141791,26.1015385 Z M16.9776119,26.1538462 C17.0298507,25.9446154 17.0820896,25.7353846 17.0298507,25.5261538 C16.9776119,25.16 16.7686567,24.8461538 16.4552239,24.5846154 C16.2462687,24.4276923 16.0373134,24.3753846 15.8283582,24.3230769 L15.9328358,24.2184615 C16.1940299,23.9046154 16.2985075,23.4861538 16.1940299,23.0676923 C16.141791,22.6492308 15.9328358,22.2830769 15.5671642,22.0738462 C15.0447761,21.7076923 14.3134328,21.7076923 13.7910448,22.0215385 C13.6865672,21.76 13.5298507,21.4984615 13.2686567,21.2892308 C12.7462687,20.9230769 12.0149254,20.9230769 11.4925373,21.2369231 C11.3880597,20.9753846 11.2313433,20.7138462 10.9701493,20.5569231 L10.9701493,20.5046154 C10.6567164,20.2953846 10.2910448,20.1907692 9.92537313,20.2430769 C9.92537313,20.1907692 9.87313433,20.1384615 9.87313433,20.0861538 C9.82089552,19.9815385 9.76865672,19.8769231 9.71641791,19.7723077 C9.50746269,19.3538462 9.08955224,18.9353846 8.82835821,18.6738462 L11.858209,14.2276923 C11.9104478,14.1753846 11.9626866,14.0707692 11.9626866,13.9661538 L14.3134328,13.9661538 L12.5373134,14.96 L12.5373134,18.3076923 L12.7985075,18.4123077 C12.8507463,18.4123077 13.5298507,18.6215385 14.261194,18.2030769 C14.7835821,17.8892308 15.2014925,17.2615385 15.358209,16.4246154 L17.6044776,16.4246154 C17.8134328,17.1569231 18.5447761,18.0984615 20.1119403,18.0984615 L20.8432836,18.0984615 L25.7014925,21.3938462 C25.858209,21.4984615 26.0149254,21.7076923 26.0671642,21.9169231 C26.119403,22.1261538 26.0671642,22.3353846 25.9104478,22.5446154 C25.6492537,22.9107692 25.1268657,23.0153846 24.761194,22.7538462 L23.5074627,21.9169231 L23.5074627,21.9169231 L20.0074627,19.5107692 L19.5895522,20.1384615 L23.0895522,22.5446154 C23.4552239,22.8061538 23.5597015,23.3292308 23.2985075,23.6953846 C23.1940299,23.8523077 22.9850746,24.0092308 22.7761194,24.0615385 C22.5671642,24.1138462 22.358209,24.0615385 22.1492537,23.9046154 L18.6492537,21.4984615 L18.5970149,21.5507692 L18.5970149,21.5507692 L18.2835821,22.1784615 L20.6865672,23.7476923 C20.8432836,23.8523077 21,24.0615385 21.0522388,24.2707692 C21.1044776,24.48 21.0522388,24.6892308 20.8955224,24.8984615 C20.7910448,25.0553846 20.5820896,25.2123077 20.3731343,25.2646154 C20.1641791,25.3169231 19.9552239,25.2646154 19.7462687,25.16 L17.5,23.5384615 L17.0298507,24.1661538 L17.8656716,24.7415385 L17.8656716,24.7415385 C18.0223881,24.8461538 18.1791045,25.0553846 18.2313433,25.2646154 C18.2835821,25.4738462 18.2313433,25.6830769 18.1268657,25.8923077 C17.8134328,26.2584615 17.3432836,26.3630769 16.9776119,26.1538462 Z" id="Shape"></path>
                    <rect id="Rectangle-path" transform="translate(26.722318, 16.435169) rotate(144.963858) translate(-26.722318, -16.435169) " x="26.2223181" y="15.9351689" width="1" height="1"></rect>
                    <rect id="Rectangle-path" transform="translate(27.724408, 17.921417) rotate(54.992491) translate(-27.724408, -17.921417) " x="27.2244075" y="17.4214167" width="1" height="1"></rect>
                    <rect id="Rectangle-path" transform="translate(8.138550, 16.488790) rotate(34.870912) translate(-8.138550, -16.488790) " x="7.63855027" y="15.9887904" width="1" height="1"></rect>
                    <rect id="Rectangle-path" transform="translate(7.199109, 17.465299) rotate(-145.129088) translate(-7.199109, -17.465299) " x="6.69910927" y="16.9652985" width="1" height="1"></rect>
                    <rect id="Rectangle-path" x="18.5447761" y="0.156923077" width="1" height="1"></rect>
                    <rect id="Rectangle-path" x="20.4776119" y="0.156923077" width="1" height="1"></rect>
                    <rect id="Rectangle-path" x="22.4104478" y="0.156923077" width="1" height="1"></rect>
                    <rect id="Rectangle-path" x="24.3432836" y="0.156923077" width="1" height="1"></rect>
                    <path d="M6.52985075,25.6307692 L6.52985075,29.3446154 C3.13432836,26.2584615 1.20149254,21.8646154 1.20149254,17.2615385 C1.20149254,8.26461538 8.51492537,0.941538462 17.5,0.941538462 L17.5,0.156923077 C8.04477612,0.156923077 0.365671642,7.84615385 0.365671642,17.2615385 C0.365671642,22.0215385 2.35074627,26.5723077 5.79850746,29.7630769 L2.29850746,29.7630769 L2.29850746,30.5476923 L7.26119403,30.5476923 L7.26119403,25.5784615 L6.52985075,25.5784615 L6.52985075,25.6307692 Z" id="Shape"></path>
                    <path d="M29.1492537,4.23692308 L32.6492537,4.23692308 L32.6492537,3.45230769 L27.6865672,3.45230769 L27.6865672,8.42153846 L28.4701493,8.42153846 L28.4701493,4.70769231 C31.8656716,7.74153846 33.8507463,12.1353846 33.8507463,16.7384615 C33.8507463,25.7353846 26.5373134,33.0584615 17.5522388,33.0584615 L17.5522388,33.8430769 C26.9552239,33.8430769 34.6343284,26.1538462 34.6343284,16.7384615 C34.6343284,11.9784615 32.6492537,7.42769231 29.1492537,4.23692308 Z" id="Shape"></path>
                    <rect id="Rectangle-path" x="15.6716418" y="33.0584615" width="1" height="1"></rect>
                    <rect id="Rectangle-path" x="13.738806" y="33.0584615" width="1" height="1"></rect>
                    <rect id="Rectangle-path" x="11.8059701" y="33.0584615" width="1" height="1"></rect>
                    <rect id="Rectangle-path" x="9.87313433" y="33.0584615" width="1" height="1"></rect>
                </g>
            </g>
        </g>
    </g>
</svg>