<?xml version="1.0" encoding="UTF-8"?>
<svg width="14px" height="14px" viewBox="0 0 14 14" version="1.1" xmlns="http://www.w3.org/2000/svg" xmlns:xlink="http://www.w3.org/1999/xlink">
    <!-- Generator: Sketch 44.1 (41455) - http://www.bohemiancoding.com/sketch -->
    <title>small_bullet_icon</title>
    <desc>Created with Sketch.</desc>
    <defs></defs>
    <g id="Page-1" stroke="none" stroke-width="1" fill="none" fill-rule="evenodd">
        <g id="Implementation-Methodology" transform="translate(-143.000000, -1023.000000)" stroke="#30D6C7" stroke-width="0.2" fill="#30D6C7" fill-rule="nonzero">
            <path d="M156,1025.16129 L156,1024.96774 L152.322581,1024.96774 C152.100387,1024.96774 151.885742,1024.99948 151.680387,1025.05387 C151.138839,1024.86961 150.574258,1024.77419 150,1024.77419 C149.237032,1024.77419 148.489161,1024.94239 147.803613,1025.26058 L148.05871,1024.24039 L147.683226,1024.14671 L147.384581,1025.34129 C146.961871,1024.54445 146.124387,1024 145.16129,1024 L144.967742,1024 L144.967742,1027.67742 C144.967742,1027.89961 144.999484,1028.11426 145.053871,1028.31961 C144.869613,1028.86116 144.774194,1029.42574 144.774194,1030 C144.774194,1030.76297 144.942387,1031.51084 145.260581,1032.19639 L144.240387,1031.94129 L144.14671,1032.31677 L145.34129,1032.61542 C144.544452,1033.03813 144,1033.87561 144,1034.83871 L144,1035.03226 L147.677419,1035.03226 C147.899613,1035.03226 148.114258,1035.00052 148.319613,1034.94613 C148.861161,1035.13039 149.425742,1035.22581 150,1035.22581 C150.762968,1035.22581 151.510839,1035.05761 152.196387,1034.73942 L151.94129,1035.75961 L152.316581,1035.85329 L152.615226,1034.65871 C153.038129,1035.45555 153.875613,1036 154.83871,1036 L155.032258,1036 L155.032258,1032.32258 C155.032258,1032.10039 155.000516,1031.88574 154.946129,1031.68039 C155.130387,1031.13884 155.225806,1030.57426 155.225806,1030 C155.225806,1029.23703 155.057613,1028.48916 154.739419,1027.80361 L155.759613,1028.05871 L155.85329,1027.68342 L154.65871,1027.38477 C155.455548,1026.96187 156,1026.12439 156,1025.16129 Z M151.094323,1025.29 C150.326903,1025.72142 149.806452,1026.54265 149.806452,1027.48387 L149.806452,1027.67742 L149.806452,1029.80645 L147.677419,1029.80645 L147.677419,1026.51613 C147.677419,1026.36574 147.661742,1026.21942 147.636387,1026.07619 L148.537742,1026.67716 L148.752387,1026.3551 L147.776129,1025.70419 C148.461097,1025.34884 149.222323,1025.16129 150,1025.16129 C150.370645,1025.16129 150.736452,1025.20697 151.094323,1025.29 Z M145.354839,1024.39581 C146.438516,1024.49394 147.290323,1025.40729 147.290323,1026.51613 L147.290323,1029.79774 C146.206645,1029.69961 145.354839,1028.78626 145.354839,1027.67742 L145.354839,1024.39581 Z M145.29,1028.90568 C145.721419,1029.6731 146.542645,1030.19355 147.483871,1030.19355 L147.677419,1030.19355 L149.806452,1030.19355 L149.806452,1032.32258 L146.516129,1032.32258 C146.365742,1032.32258 146.219419,1032.33826 146.076194,1032.36361 L146.677161,1031.46226 L146.355097,1031.24761 L145.704194,1032.22387 C145.348839,1031.5389 145.16129,1030.77768 145.16129,1030 C145.16129,1029.62935 145.206968,1029.26355 145.29,1028.90568 Z M144.395806,1034.64516 C144.493935,1033.56148 145.40729,1032.70968 146.516129,1032.70968 L149.797742,1032.70968 C149.699613,1033.79335 148.786258,1034.64516 147.677419,1034.64516 L144.395806,1034.64516 Z M148.905677,1034.71 C149.673097,1034.27858 150.193548,1033.45735 150.193548,1032.51613 L150.193548,1032.32258 L150.193548,1030.19355 L152.322581,1030.19355 L152.322581,1033.48387 C152.322581,1033.63426 152.338258,1033.78058 152.363613,1033.92381 L151.462258,1033.32284 L151.247613,1033.6449 L152.224065,1034.29581 C151.538903,1034.65116 150.777677,1034.83871 150,1034.83871 C149.629355,1034.83871 149.263548,1034.79303 148.905677,1034.71 Z M154.645161,1035.60419 C153.561484,1035.50606 152.709677,1034.59271 152.709677,1033.48387 L152.709677,1030.20226 C153.793355,1030.30039 154.645161,1031.21374 154.645161,1032.32258 L154.645161,1035.60419 Z M154.71,1031.09432 C154.278581,1030.3269 153.457355,1029.80645 152.516129,1029.80645 L152.322581,1029.80645 L150.193548,1029.80645 L150.193548,1027.67742 L153.483871,1027.67742 C153.634258,1027.67742 153.780581,1027.66174 153.923806,1027.63639 L153.322839,1028.53774 L153.644903,1028.75239 L154.295806,1027.77594 C154.651161,1028.4611 154.83871,1029.22232 154.83871,1030 C154.83871,1030.37065 154.793032,1030.73645 154.71,1031.09432 Z M153.483871,1027.29032 L150.202258,1027.29032 C150.300387,1026.20665 151.213742,1025.35484 152.322581,1025.35484 L155.604194,1025.35484 C155.506065,1026.43852 154.59271,1027.29032 153.483871,1027.29032 Z" id="small_bullet_icon"></path>
        </g>
    </g>
</svg>