<?xml version="1.0" encoding="UTF-8"?>
<svg width="51px" height="37px" viewBox="0 0 51 37" version="1.1" xmlns="http://www.w3.org/2000/svg" xmlns:xlink="http://www.w3.org/1999/xlink">
    <!-- Generator: Sketch 44.1 (41455) - http://www.bohemiancoding.com/sketch -->
    <title>software_icon</title>
    <desc>Created with Sketch.</desc>
    <defs></defs>
    <g id="Page-1" stroke="none" stroke-width="1" fill="none" fill-rule="evenodd">
        <g id="NexGenSm_Wesite_Home_Page-UI" transform="translate(-540.000000, -1630.000000)">
            <g id="software_icon" transform="translate(541.000000, 1630.000000)">
                <g id="Group-8">
                    <g id="noun_568069_cc" stroke="#000000" fill-rule="nonzero" fill="#000000">
                        <path d="M26.0805446,26.5833844 L1.52084922,26.5833844 C1.25158004,26.5833844 1.03215742,26.3632525 1.03215742,26.0920185 L1.03215742,23.1742878 L22.9040478,23.1742878 C23.1742944,23.1742878 23.3927396,22.9546472 23.3927396,22.6829219 C23.3927396,22.4111965 23.1742944,22.191556 22.9040478,22.191556 L1.03215742,22.191556 L1.03215742,2.17822266 C1.03215742,1.90748004 1.25158004,1.68685675 1.52084922,1.68685675 L36.1368445,1.68685675 C36.4066024,1.68685675 36.6255363,1.90748004 36.6255363,2.17822266 L36.6255363,16.7108607 C36.6255363,16.9820946 36.8439816,17.2022266 37.1142281,17.2022266 C37.3844747,17.2022266 37.6029199,16.9820946 37.6029199,16.7108607 L37.6029199,2.17822266 C37.6029199,1.36550345 36.9451408,0.704124942 36.1368445,0.704124942 L1.52084922,0.704124942 C0.712552979,0.704124942 0.0547738095,1.36550345 0.0547738095,2.17822266 L0.0547738095,26.0920185 C0.0547738095,26.9047377 0.712552979,27.5661162 1.52084922,27.5661162 L15.8448947,27.5661162 L15.5355528,30.901508 C15.5311546,30.9825834 15.3869905,32.8885917 12.1142215,32.8885917 C11.8444636,32.8885917 11.6255297,33.1082323 11.6255297,33.3799576 C11.6255297,33.651683 11.8444636,33.8713235 12.1142215,33.8713235 L25.543961,33.8713235 C25.8142075,33.8713235 26.0326528,33.651683 26.0326528,33.3799576 C26.0326528,33.1082323 25.8142075,32.8885917 25.543961,32.8885917 C22.2711919,32.8885917 22.1270279,30.9825834 22.1211636,30.8774311 L21.8137764,27.5661162 L26.0800559,27.5661162 C26.3503024,27.5661162 26.5687477,27.3464757 26.5687477,27.0747503 C26.5687477,26.803025 26.3507911,26.5833844 26.0805446,26.5833844 Z M22.207662,32.8885917 L15.4529639,32.8885917 C16.4572255,32.0463906 16.5109816,30.9688251 16.510493,30.9688251 L16.8266766,27.5661162 L20.8324833,27.5661162 L21.1467121,30.9393432 C21.1472008,30.9570323 21.2009569,32.0434424 22.207662,32.8885917 Z" id="Shape"></path>
                    </g>
                    <circle id="Oval" stroke="#30D6C7" stroke-width="1.8" fill="#FFFFFF" cx="36" cy="23" r="13"></circle>
                    <g id="noun_568069_cc-copy" transform="translate(26.000000, 17.000000)" stroke="#30D6C7" fill-rule="nonzero" fill="#30D6C7">
                        <path d="M19.9336002,5.85449425 L14.9794204,1.02490517 C14.7599534,0.811295887 14.394945,0.802262659 14.162772,1.00311915 C13.9311765,1.20450701 13.9202031,1.5413933 14.1390927,1.75447122 L18.7196009,6.21901159 L14.1390927,10.6819579 C13.9202031,10.8950358 13.9311765,11.2313907 14.162772,11.4333099 C14.2742381,11.5300186 14.4168917,11.5778416 14.5595453,11.5778416 C14.7131722,11.5778416 14.8656441,11.5220481 14.979998,11.4115239 L19.9341778,6.58352893 C20.143249,6.37895287 20.143249,6.05960167 19.9336002,5.85449425 Z M6.12681281,1.00311915 C5.89521732,0.802262659 5.52963142,0.811295887 5.31016437,1.02490517 L0.355984562,5.85290015 C0.146335778,6.05800758 0.146335778,6.37735877 0.355984562,6.5824662 L5.31016437,11.4120553 C5.42394071,11.5225795 5.5769901,11.578373 5.73061703,11.578373 C5.87269307,11.578373 6.01534665,11.5300186 6.12739035,11.4338413 C6.35898584,11.2324534 6.36995919,10.8955671 6.15106969,10.6824892 L1.5705614,6.21794886 L6.15106969,1.75500259 C6.36938165,1.5413933 6.35840829,1.20503838 6.12681281,1.00311915 Z M12.3400404,0.956890277 C12.0414497,0.852742465 11.7082063,0.98877226 11.5938525,1.26242595 L7.61803363,10.7940762 C7.50367975,11.0682612 7.65268633,11.375391 7.95012193,11.4806015 C8.01827222,11.504513 8.08815515,11.5156717 8.15688299,11.5156717 C8.38847848,11.5156717 8.60794553,11.3860183 8.69630989,11.1745345 L12.6721287,1.64288428 C12.7864826,1.36923059 12.637476,1.06210082 12.3400404,0.956890277 Z" id="Shape"></path>
                    </g>
                </g>
            </g>
        </g>
    </g>
</svg>