<?xml version="1.0" encoding="UTF-8"?>
<svg width="44px" height="44px" viewBox="0 0 44 44" version="1.1" xmlns="http://www.w3.org/2000/svg" xmlns:xlink="http://www.w3.org/1999/xlink">
    <!-- Generator: Sketch 44.1 (41455) - http://www.bohemiancoding.com/sketch -->
    <title>success_icon</title>
    <desc>Created with Sketch.</desc>
    <defs></defs>
    <g id="Page-1" stroke="none" stroke-width="1" fill="none" fill-rule="evenodd">
        <g id="menu" transform="translate(-411.000000, -489.000000)" fill-rule="nonzero" fill="#30D6C7">
            <g id="success_icon" transform="translate(411.000000, 489.000000)">
                <path d="M35.2594595,24.4378378 C34.4864865,23.1891892 33.1783784,22.4162162 31.6918919,22.4162162 C30.5027027,22.4162162 29.372973,22.9513514 28.6,23.7837838 L27.5891892,22.0594595 C27.5891892,22.0594595 27.5891892,22.0594595 27.5891892,22.0594595 C26.5189189,20.2162162 24.6756757,19.0864865 22.5945946,18.9081081 L22.5945946,10.8216216 L34.4864865,10.8216216 C34.7243243,10.8216216 34.9621622,10.6432432 35.0216216,10.4054054 C35.0810811,10.1675676 35.0216216,9.92972973 34.8432432,9.75135135 L29.5513514,5.52972973 L34.8432432,1.30810811 C35.0216216,1.12972973 35.1405405,0.891891892 35.0216216,0.654054054 C34.9621622,0.416216216 34.7243243,0.237837838 34.4864865,0.237837838 L22,0.237837838 C21.6432432,0.237837838 21.4054054,0.475675676 21.4054054,0.832432432 L21.4054054,18.8486486 C19.3243243,19.027027 17.4810811,20.1567568 16.4108108,22 L15.4,23.7837838 C14.627027,22.8918919 13.4972973,22.4162162 12.3081081,22.4162162 C12.3081081,22.4162162 12.3081081,22.4162162 12.3081081,22.4162162 C10.8216216,22.4162162 9.51351351,23.1891892 8.74054054,24.4378378 L0.475675676,38.2324324 C0.356756757,38.4108108 0.356756757,38.6486486 0.475675676,38.827027 C0.594594595,39.0054054 0.772972973,39.1243243 1.01081081,39.1243243 L6.77837838,39.1243243 L4.6972973,42.8702703 C4.57837838,43.0486486 4.57837838,43.2864865 4.6972973,43.4648649 C4.81621622,43.6432432 4.99459459,43.7621622 5.23243243,43.7621622 L38.9459459,43.7621622 C39.1837838,43.7621622 39.3621622,43.6432432 39.4810811,43.4648649 C39.6,43.2864865 39.6,43.0486486 39.4810811,42.8702703 L37.4,39.1243243 L43.1675676,39.1243243 C43.4054054,39.1243243 43.5837838,39.0054054 43.7027027,38.827027 C43.8216216,38.6486486 43.8216216,38.4108108 43.7027027,38.2324324 L35.2594595,24.4378378 Z M22.5945946,1.42702703 L32.8216216,1.42702703 L28.3027027,5.05405405 C28.1837838,5.17297297 28.0648649,5.35135135 28.0648649,5.52972973 C28.0648649,5.70810811 28.1243243,5.88648649 28.3027027,6.00540541 L32.8216216,9.63243243 L22.5945946,9.63243243 L22.5945946,1.42702703 Z M2.02162162,37.9351351 L9.75135135,25.0324324 C10.2864865,24.1405405 11.2378378,23.6054054 12.3081081,23.6054054 C13.3189189,23.6054054 14.2108108,24.0810811 14.7459459,24.9135135 L7.37297297,37.9351351 L2.02162162,37.9351351 Z M6.12432432,42.572973 L17.3621622,22.6540541 C18.3135135,21.0486486 20.0378378,20.0378378 21.9405405,20.0378378 C23.8432432,20.0378378 25.5675676,20.9891892 26.5189189,22.6540541 L37.7567568,42.572973 L6.12432432,42.572973 Z M36.627027,37.9351351 L29.2540541,24.9135135 C29.7891892,24.0810811 30.6810811,23.6054054 31.6918919,23.6054054 C32.7621622,23.6054054 33.7135135,24.1405405 34.2486486,25.0324324 L41.9783784,37.9351351 L36.627027,37.9351351 Z" id="Shape"></path>
            </g>
        </g>
    </g>
</svg>