<?xml version="1.0" encoding="UTF-8"?>
<svg width="120px" height="120px" viewBox="0 0 120 120" version="1.1" xmlns="http://www.w3.org/2000/svg" xmlns:xlink="http://www.w3.org/1999/xlink">
    <!-- Generator: Sketch 44.1 (41455) - http://www.bohemiancoding.com/sketch -->
    <title>success_icon</title>
    <desc>Created with Sketch.</desc>
    <defs></defs>
    <g id="Page-1" stroke="none" stroke-width="1" fill="none" fill-rule="evenodd">
        <g id="Success-Stories" transform="translate(-148.000000, -169.000000)" stroke="#543E6A" fill-rule="nonzero" fill="#FFFFFF">
            <g id="success_icon" transform="translate(149.000000, 169.000000)">
                <path d="M95.1621622,66.6486486 C93.0540541,63.2432432 89.4864865,61.1351351 85.4324324,61.1351351 C82.1891892,61.1351351 79.1081081,62.5945946 77,64.8648649 L74.2432432,60.1621622 C74.2432432,60.1621622 74.2432432,60.1621622 74.2432432,60.1621622 C71.3243243,55.1351351 66.2972973,52.0540541 60.6216216,51.5675676 L60.6216216,29.5135135 L93.0540541,29.5135135 C93.7027027,29.5135135 94.3513514,29.027027 94.5135135,28.3783784 C94.6756757,27.7297297 94.5135135,27.0810811 94.027027,26.5945946 L79.5945946,15.0810811 L94.027027,3.56756757 C94.5135135,3.08108108 94.8378378,2.43243243 94.5135135,1.78378378 C94.3513514,1.13513514 93.7027027,0.648648649 93.0540541,0.648648649 L59,0.648648649 C58.027027,0.648648649 57.3783784,1.2972973 57.3783784,2.27027027 L57.3783784,51.4054054 C51.7027027,51.8918919 46.6756757,54.972973 43.7567568,60 L41,64.8648649 C38.8918919,62.4324324 35.8108108,61.1351351 32.5675676,61.1351351 C32.5675676,61.1351351 32.5675676,61.1351351 32.5675676,61.1351351 C28.5135135,61.1351351 24.9459459,63.2432432 22.8378378,66.6486486 L0.297297297,104.27027 C-0.027027027,104.756757 -0.027027027,105.405405 0.297297297,105.891892 C0.621621622,106.378378 1.10810811,106.702703 1.75675676,106.702703 L17.4864865,106.702703 L11.8108108,116.918919 C11.4864865,117.405405 11.4864865,118.054054 11.8108108,118.540541 C12.1351351,119.027027 12.6216216,119.351351 13.2702703,119.351351 L105.216216,119.351351 C105.864865,119.351351 106.351351,119.027027 106.675676,118.540541 C107,118.054054 107,117.405405 106.675676,116.918919 L101,106.702703 L116.72973,106.702703 C117.378378,106.702703 117.864865,106.378378 118.189189,105.891892 C118.513514,105.405405 118.513514,104.756757 118.189189,104.27027 L95.1621622,66.6486486 Z M60.6216216,3.89189189 L88.5135135,3.89189189 L76.1891892,13.7837838 C75.8648649,14.1081081 75.5405405,14.5945946 75.5405405,15.0810811 C75.5405405,15.5675676 75.7027027,16.0540541 76.1891892,16.3783784 L88.5135135,26.2702703 L60.6216216,26.2702703 L60.6216216,3.89189189 Z M4.51351351,103.459459 L25.5945946,68.2702703 C27.0540541,65.8378378 29.6486486,64.3783784 32.5675676,64.3783784 C35.3243243,64.3783784 37.7567568,65.6756757 39.2162162,67.9459459 L19.1081081,103.459459 L4.51351351,103.459459 Z M15.7027027,116.108108 L46.3513514,61.7837838 C48.9459459,57.4054054 53.6486486,54.6486486 58.8378378,54.6486486 C64.027027,54.6486486 68.7297297,57.2432432 71.3243243,61.7837838 L101.972973,116.108108 L15.7027027,116.108108 Z M98.8918919,103.459459 L78.7837838,67.9459459 C80.2432432,65.6756757 82.6756757,64.3783784 85.4324324,64.3783784 C88.3513514,64.3783784 90.9459459,65.8378378 92.4054054,68.2702703 L113.486486,103.459459 L98.8918919,103.459459 Z" id="Shape"></path>
            </g>
        </g>
    </g>
</svg>