<?xml version="1.0" encoding="UTF-8"?>
<svg width="45px" height="37px" viewBox="0 0 45 37" version="1.1" xmlns="http://www.w3.org/2000/svg" xmlns:xlink="http://www.w3.org/1999/xlink">
    <!-- Generator: Sketch 44.1 (41455) - http://www.bohemiancoding.com/sketch -->
    <title>Email and Chat  Support Services</title>
    <desc>Created with Sketch.</desc>
    <defs></defs>
    <g id="Page-1" stroke="none" stroke-width="1" fill="none" fill-rule="evenodd">
        <g id="Hardware-Design-And-Development-" transform="translate(-442.000000, -544.000000)">
            <g id="Email-and-Chat--Support-Services" transform="translate(442.000000, 544.000000)">
                <g id="noun_576568_cc" fill-rule="nonzero" fill="#000000">
                    <path d="M38.0303571,27.0943382 L37.0108929,27.0943382 C36.7151786,27.0943382 36.4757143,27.3370147 36.4751786,27.6368235 L36.4703571,29.55375 L35.0491071,27.3408235 C34.95,27.1873824 34.78125,27.0943382 34.6001786,27.0943382 L29.2264286,27.0943382 L29.2264286,20.6797353 L38.0303571,20.6797353 L38.0303571,27.0943382 Z M38.0148214,15.4001618 L38.0148214,3.91819118 C38.0148214,2.02901471 36.5014286,0.491882353 34.6414286,0.491882353 L3.88821429,0.491882353 C2.02821429,0.491882353 0.514821429,2.02901471 0.514821429,3.91819118 L0.514821429,25.3596912 C0.514821429,27.2488676 2.02821429,28.786 3.88821429,28.786 L23.2714286,28.786 C24.6573214,33.2564706 28.7753571,36.5075735 33.6283929,36.5075735 C39.615,36.5075735 44.4851786,31.5615441 44.4851786,25.4815735 C44.4851786,21.0796618 41.955,17.1669118 38.0148214,15.4001618 Z M22.9928571,27.6977647 L3.88821429,27.6977647 C2.61910714,27.6977647 1.58625,26.6487059 1.58625,25.3596912 L1.58625,3.91819118 C1.58625,2.62917647 2.61910714,1.58011765 3.88821429,1.58011765 L34.6414286,1.58011765 C35.9105357,1.58011765 36.9433929,2.62917647 36.9433929,3.91819118 L36.9433929,14.9882647 C35.87625,14.6400294 34.76625,14.4555735 33.6283929,14.4555735 C31.1244643,14.4555735 28.8021429,15.3326912 26.9491071,16.8039853 L24.8571429,14.8103382 L34.0023214,5.75132353 C34.2144643,5.54129412 34.2182143,5.19686765 34.0119643,4.98194118 C33.8057143,4.76701471 33.4660714,4.76320588 33.2544643,4.97214706 L19.53375,18.5636618 L5.26767857,4.96452941 C5.05178571,4.75939706 4.71267857,4.76919118 4.51017857,4.98847059 C4.30767857,5.20775 4.31839286,5.55217647 4.53375,5.75785294 L13.6719643,14.4680882 L4.52678571,23.5271029 C4.31464286,23.7371324 4.31089286,24.0815588 4.51714286,24.2964853 C4.62214286,24.4058529 4.76142857,24.4608088 4.90071429,24.4608088 C5.03571429,24.4608088 5.17071429,24.4091176 5.27464286,24.3062794 L14.4535714,15.2135294 L19.1742857,19.7133824 C19.2771429,19.8118676 19.4089286,19.8608382 19.5407143,19.8608382 C19.6757143,19.8608382 19.8107143,19.8091471 19.9146429,19.7063088 L24.0894643,15.5710147 L26.1348214,17.5205882 C24.3798214,19.2220441 23.1723214,21.5127794 22.8551786,24.1125735 C22.8,24.5625588 22.7721429,25.0239706 22.7721429,25.4826618 C22.7726786,26.2411618 22.84875,26.9817059 22.9928571,27.6977647 Z M33.6283929,35.4198824 C28.2332143,35.4198824 23.8435714,30.9619265 23.8435714,25.4821176 C23.8435714,25.0680441 23.86875,24.6523382 23.9185714,24.2464265 C24.5239286,19.2851618 28.6982143,15.5438088 33.6283929,15.5438088 C34.8910714,15.5438088 36.1189286,15.7837647 37.27875,16.2582353 C41.0051786,17.7806765 43.4132143,21.4017794 43.4132143,25.4826618 C43.41375,30.9613824 39.0241071,35.4198824 33.6283929,35.4198824 Z" id="Shape"></path>
                </g>
                <path d="M38.5660714,19.5915 L28.6907143,19.5915 C28.3944643,19.5915 28.155,19.8347206 28.155,20.1356176 L28.155,27.6384559 C28.155,27.9393529 28.3944643,28.1825735 28.6907143,28.1825735 L34.3098214,28.1825735 L36.5528571,31.6741765 C36.6535714,31.8308824 36.8239286,31.9206618 37.0017857,31.9206618 C37.0526786,31.9206618 37.1030357,31.9130441 37.1539286,31.8983529 C37.3810714,31.8297941 37.5369643,31.6181324 37.5375,31.3781765 L37.5455357,28.1825735 L38.5666071,28.1825735 C38.8628571,28.1825735 39.1023214,27.9393529 39.1023214,27.6384559 L39.1023214,20.1356176 C39.1017857,19.8347206 38.8623214,19.5915 38.5660714,19.5915 Z" id="Path" stroke="#30D6C7" stroke-width="1.2" fill="#FFFFFF"></path>
            </g>
        </g>
    </g>
</svg>