<?xml version="1.0" encoding="UTF-8"?>
<svg width="178px" height="122px" viewBox="0 0 178 122" version="1.1" xmlns="http://www.w3.org/2000/svg" xmlns:xlink="http://www.w3.org/1999/xlink">
    <!-- Generator: Sketch 44.1 (41455) - http://www.bohemiancoding.com/sketch -->
    <title>team</title>
    <desc>Created with Sketch.</desc>
    <defs></defs>
    <g id="Page-1" stroke="none" stroke-width="1" fill="none" fill-rule="evenodd">
        <g id="Team" transform="translate(-147.000000, -168.000000)" stroke="#543E6A" stroke-width="1.5" fill="#FFFFFF">
            <path d="M235.698083,169.000514 C219.961707,169.000514 207.14213,181.866761 207.14213,197.784709 C207.14213,204.697727 209.61219,211.001754 213.678325,215.967583 C209.72489,217.895959 206.083562,220.410588 202.890598,223.484884 C201.1207,221.988455 199.187336,220.639936 197.116092,219.565607 C199.808912,216.04933 201.431183,211.684166 201.431183,206.908271 C201.431183,195.278346 192.021239,185.962629 180.553656,185.962629 C169.086073,185.962629 159.676129,195.278346 159.676129,206.908271 C159.676129,211.702485 161.343277,216.106878 164.054779,219.629858 C154.916736,224.370306 148,233.504971 148,246.615144 L148,259.015375 C148,260.270777 148.537102,260.66327 149.269144,261.19989 C162.81914,270.727458 176.727541,274.150722 190.579897,271.030104 L190.579897,271.544107 C190.62254,272.61858 191.170608,272.934178 191.849042,273.47162 C221.037739,294.202203 250.86446,294.128804 279.737191,273.535357 C280.840027,272.706989 280.726108,272.297225 280.879624,271.029693 C294.587602,274.073004 308.506561,270.748224 322.063257,261.199479 C323.177667,260.347466 323.467032,259.958674 323.459316,258.693609 L323.459316,246.614527 C323.459316,233.47043 316.586442,224.272646 307.468096,219.565093 C310.160916,216.048816 311.783187,211.683652 311.783187,206.907757 C311.783187,195.277832 302.373446,185.962115 290.905662,185.962115 C279.438079,185.962115 270.091693,195.277832 270.091693,206.907757 C270.091693,211.683652 271.713964,216.048816 274.406784,219.565093 C272.343054,220.627436 270.381058,221.964503 268.56872,223.48437 C265.38733,220.424589 261.773619,217.947648 257.844551,216.031319 C261.9381,211.059692 264.380746,204.715594 264.380746,197.784195 C264.380746,181.866227 251.508576,169 235.698083,169 L235.698083,169.000514 Z M235.698083,173.112542 C249.350421,173.112542 260.319484,184.101032 260.319484,197.784709 C260.319484,211.381356 249.343111,222.392626 235.698083,222.392626 C222.139153,222.392626 211.203392,211.381356 211.203392,197.784709 C211.203392,184.101032 222.131843,173.112542 235.698083,173.112542 Z M180.553656,190.074657 C189.855165,190.074657 197.369921,197.509718 197.369921,206.908271 C197.369921,216.217306 189.855165,223.677635 180.553656,223.677635 C175.999357,223.677635 171.900528,221.909998 168.877528,218.987353 C168.818639,218.918888 168.75569,218.854535 168.686648,218.794705 C165.647403,215.761447 163.736782,211.562881 163.736782,206.908374 C163.736782,197.50982 171.251538,190.07476 180.553047,190.07476 L180.553656,190.074657 Z M290.905662,190.074657 C300.207371,190.074657 307.721925,197.509718 307.721925,206.908271 C307.721925,216.217306 300.207371,223.677635 290.905662,223.677635 C281.604153,223.677635 274.152955,216.217306 274.152955,206.908271 C274.152955,197.509697 281.604153,190.074657 290.905662,190.074657 Z M216.660916,219.115854 C221.729778,223.696715 228.374815,226.504654 235.698083,226.504654 C243.048155,226.504654 249.71959,223.688326 254.798605,219.115854 C267.360698,224.691661 276.818362,236.05854 276.818362,253.811192 L276.818362,270.5161 C249.344126,289.863808 222.426893,289.978123 194.641159,270.452364 L194.641159,253.811604 C194.641159,236.03983 204.076487,224.732781 216.660916,219.116368 L216.660916,219.115854 Z M194.133501,222.713879 C196.317039,223.72628 198.29731,225.00911 200.09848,226.504654 C194.292297,233.38675 190.579897,242.507022 190.579897,253.811192 L190.579897,266.789781 C177.72316,269.989966 165.069891,267.124911 152.061262,258.115869 L152.061262,246.615144 C152.061262,234.383711 158.389521,226.728965 166.973811,222.778129 C170.629962,225.916223 175.389558,227.789663 180.553656,227.789663 C185.733187,227.789663 190.473086,225.868729 194.133501,222.713879 Z M277.32602,222.713879 C280.99009,225.882916 285.713135,227.789663 290.905662,227.789663 C296.081332,227.789663 300.826308,225.864412 304.485708,222.713879 C313.032634,226.627398 319.398053,234.350404 319.398053,246.615144 L319.398053,258.115869 C306.357747,267.197488 293.636251,269.916772 280.879624,266.789781 L280.879624,253.811192 C280.879624,242.493658 277.19545,233.330826 271.360838,226.440507 C273.167084,224.963672 275.184922,223.714972 277.32602,222.713879 Z" id="team"></path>
        </g>
    </g>
</svg>