<?xml version="1.0" encoding="UTF-8"?>
<svg width="65px" height="45px" viewBox="0 0 65 45" version="1.1" xmlns="http://www.w3.org/2000/svg" xmlns:xlink="http://www.w3.org/1999/xlink">
    <!-- Generator: Sketch 44.1 (41455) - http://www.bohemiancoding.com/sketch -->
    <title>team_icon</title>
    <desc>Created with Sketch.</desc>
    <defs></defs>
    <g id="Page-1" stroke="none" stroke-width="1" fill="none" fill-rule="evenodd">
        <g id="menu" transform="translate(-1123.000000, -249.000000)" stroke-width="0.4" stroke="#543E6A" fill="#30D6C7">
            <g id="team_icon" transform="translate(1123.000000, 249.000000)">
                <g id="noun_1094223_cc">
                    <g id="Group" transform="translate(0.000000, 0.477006)">
                        <path d="M32.4884876,0.13442951 C26.7644251,0.13442951 22.1013399,4.814491 22.1013399,10.6046 C22.1013399,13.1191909 22.9998172,15.4122629 24.4788626,17.2185692 C23.0408115,17.9200108 21.7162887,18.8346999 20.5548569,19.9529664 C19.9110615,19.4086447 19.2078058,18.9181247 18.4543967,18.5273406 C19.4339024,17.2483045 20.023999,15.6604882 20.023999,13.9232701 C20.023999,9.69291735 16.6011581,6.30435138 12.4298569,6.30435138 C8.2585558,6.30435138 4.83571489,9.69291735 4.83571489,13.9232701 C4.83571489,15.6671517 5.44213534,17.2692374 6.42843648,18.5507115 C3.10449898,20.2750364 0.588555648,23.597745 0.588555648,28.3665337 L0.588555648,32.8770831 C0.588555648,33.3337321 0.783924966,33.4765004 1.05020338,33.6716942 C5.97897625,37.1373207 11.0381183,38.3825231 16.076874,37.247407 L16.076874,37.4343744 C16.0923853,37.8252109 16.2917433,37.9400088 16.5385217,38.1355018 C27.1558285,45.6761934 38.0052149,45.6494945 48.5075899,38.1586858 C48.9087433,37.8573692 48.8673058,37.7083189 48.9231467,37.2472575 C53.9093853,38.3542536 58.9723676,37.1448741 63.9035778,33.6715447 C64.3089414,33.3616276 64.4141971,33.2202055 64.4113903,32.7600415 L64.4113903,28.3663093 C64.4113903,23.5851808 61.9114016,20.2395126 58.5946289,18.5271536 C59.5741346,17.2481176 60.1642312,15.6603013 60.1642312,13.9230831 C60.1642312,9.69273038 56.7414641,6.30416442 52.5700899,6.30416442 C48.3987887,6.30416442 44.9990672,9.69273038 44.9990672,13.9230831 C44.9990672,15.6603013 45.5891637,17.2481176 46.5686694,18.5271536 C45.8179933,18.9135777 45.1043228,19.399932 44.4450899,19.9527795 C43.2878683,18.8397929 41.973391,17.9388123 40.5442035,17.2417532 C42.0332206,15.4333379 42.9217262,13.1256899 42.9217262,10.604413 C42.9217262,4.81429656 38.2395103,0.134242543 32.4884876,0.134242543 L32.4884876,0.13442951 Z M32.4884876,1.63016815 C37.4544876,1.63016815 41.4444535,5.62720059 41.4444535,10.6046 C41.4444535,15.550342 37.4518285,19.5556609 32.4884876,19.5556609 C27.5564649,19.5556609 23.5786126,15.550342 23.5786126,10.6046 C23.5786126,5.62720059 27.5538058,1.63016815 32.4884876,1.63016815 Z M12.4298569,7.80009002 C15.8132547,7.80009002 18.5467262,10.5045724 18.5467262,13.9232701 C18.5467262,17.3094055 15.8132547,20.0230792 12.4298569,20.0230792 C10.7732433,20.0230792 9.2823058,19.380106 8.18269784,18.3170023 C8.16127739,18.2920983 8.13837966,18.26869 8.11326602,18.246927 C7.00774898,17.1435879 6.31276602,15.6163714 6.31276602,13.9233075 C6.31276602,10.5046098 9.04623761,7.80012741 12.4296353,7.80012741 L12.4298569,7.80009002 Z M52.5700899,7.80009002 C55.9535607,7.80009002 58.6869585,10.5045724 58.6869585,13.9232701 C58.6869585,17.3094055 55.9535607,20.0230792 52.5700899,20.0230792 C49.1866922,20.0230792 46.4763399,17.3094055 46.4763399,13.9232701 C46.4763399,10.504565 49.1866922,7.80009002 52.5700899,7.80009002 Z M25.5637717,18.3637441 C27.4075558,20.0300194 29.8246694,21.0513995 32.4884876,21.0513995 C35.1620558,21.0513995 37.5887717,20.0269681 39.436249,18.3637441 C44.0056751,20.3919283 47.445874,24.5265987 47.445874,30.9840763 L47.445874,37.0604397 C37.4521978,44.0981143 27.6611297,44.1396959 17.5541467,37.0372558 L17.5541467,30.9842259 C17.5541467,24.519793 20.9862206,20.4068857 25.5637717,18.3639311 L25.5637717,18.3637441 Z M17.3694876,19.6725154 C18.1637433,20.0407738 18.8840615,20.5073994 19.5392319,21.0513995 C17.427249,23.5547425 16.076874,26.872216 16.076874,30.9840763 L16.076874,35.7050013 C11.4002717,36.8690599 6.7976808,35.826904 2.06582838,32.5498903 L2.06582838,28.3665337 C2.06582838,23.9173843 4.36771489,21.132992 7.49022625,19.6958864 C8.82014102,20.8373593 10.5514308,21.5188178 12.4298569,21.5188178 C14.3138967,21.5188178 16.0380217,20.8200835 17.3694876,19.6725154 Z M47.6305331,19.6725154 C48.9633285,20.8252438 50.6813228,21.5188178 52.5700899,21.5188178 C54.4527255,21.5188178 56.1786971,20.818513 57.5097937,19.6725154 C60.6187141,21.0960473 62.9341176,23.9052688 62.9341176,28.3665337 L62.9341176,32.5498903 C58.1907426,35.8533038 53.5633342,36.8424358 48.9231467,35.7050013 L48.9231467,30.9840763 C48.9231467,26.8673548 47.5830388,23.5344004 45.4607149,21.028066 C46.1177319,20.4908714 46.8517149,20.0366605 47.6305331,19.6725154 Z" id="Shape"></path>
                    </g>
                </g>
            </g>
        </g>
    </g>
</svg>