<?xml version="1.0" encoding="UTF-8"?>
<svg width="36px" height="33px" viewBox="0 0 36 33" version="1.1" xmlns="http://www.w3.org/2000/svg" xmlns:xlink="http://www.w3.org/1999/xlink">
    <!-- Generator: Sketch 44.1 (41455) - http://www.bohemiancoding.com/sketch -->
    <title>Tools  and Softwares</title>
    <desc>Created with Sketch.</desc>
    <defs></defs>
    <g id="Page-1" stroke="none" stroke-width="1" fill="none" fill-rule="evenodd">
        <g id="Hardware-Design-And-Development-" transform="translate(-733.000000, -549.000000)">
            <g id="Tools--and-Softwares" transform="translate(733.000000, 549.000000)">
                <g id="noun_528015_cc" fill-rule="nonzero" fill="#000000">
                    <g id="Group">
                        <path d="M33.0294695,7.54487179 L27.2369352,7.54487179 L27.2369352,5.23205128 C27.2369352,2.36217949 24.8958743,0.0352564103 22.0243615,0.0352564103 L13.9049116,0.0352564103 C11.0263261,0.0352564103 8.69233792,2.36923077 8.69233792,5.23205128 L8.69233792,7.54487179 L2.89980354,7.54487179 C1.30137525,7.54487179 0,8.84230769 0,10.4358974 L0,30.0807692 C0,31.674359 1.30137525,32.9717949 2.89980354,32.9717949 L5.79960707,32.9717949 L12.9076621,32.9717949 L23.0286837,32.9717949 L30.1367387,32.9717949 L33.0365422,32.9717949 C34.6349705,32.9717949 35.9363458,31.674359 35.9363458,30.0807692 L35.9363458,10.4358974 C35.9292731,8.84230769 34.6278978,7.54487179 33.0294695,7.54487179 Z M9.85225933,5.23205128 C9.85225933,3.00384615 11.6699411,1.18461538 13.9119843,1.18461538 L22.0243615,1.18461538 C24.259332,1.18461538 26.0840864,2.99679487 26.0840864,5.23205128 L26.0840864,7.54487179 L24.924165,7.54487179 L24.924165,5.23205128 C24.924165,3.63846154 23.6227898,2.34102564 22.0243615,2.34102564 L13.9049116,2.34102564 C12.3064833,2.34102564 11.0051081,3.63846154 11.0051081,5.23205128 L11.0051081,7.54487179 L9.84518664,7.54487179 L9.84518664,5.23205128 L9.85225933,5.23205128 Z M23.7571709,7.54487179 L12.1721022,7.54487179 L12.1721022,5.23205128 C12.1721022,4.27307692 12.9500982,3.4974359 13.9119843,3.4974359 L22.0243615,3.4974359 C22.9862475,3.4974359 23.7642436,4.27307692 23.7642436,5.23205128 L23.7642436,7.54487179 L23.7571709,7.54487179 Z M2.89980354,8.70128205 L8.69233792,8.70128205 L11.0121807,8.70128205 L24.9170923,8.70128205 L27.2369352,8.70128205 L33.0294695,8.70128205 C33.9913556,8.70128205 34.7693517,9.47692308 34.7693517,10.4358974 L34.7693517,13.3269231 L29.556778,13.3269231 L28.9768173,13.3269231 L26.6569745,13.3269231 L26.0770138,13.3269231 L9.85225933,13.3269231 L9.27229862,13.3269231 L6.9524558,13.3269231 L6.37249509,13.3269231 L1.15992141,13.3269231 L1.15992141,10.4358974 C1.15992141,9.47692308 1.93791749,8.70128205 2.89980354,8.70128205 Z M26.6569745,14.4762821 L28.9768173,14.4762821 L28.9768173,16.7891026 L26.6569745,16.7891026 L26.6569745,14.4762821 Z M6.9524558,14.4762821 L9.27229862,14.4762821 L9.27229862,16.7891026 L6.9524558,16.7891026 L6.9524558,14.4762821 Z M14.1100196,31.8083333 C14.3929273,29.9397436 16.0125737,28.5012821 17.9646365,28.5012821 C19.9166994,28.5012821 21.5434185,29.9397436 21.8192534,31.8083333 L14.1100196,31.8083333 Z M33.0294695,31.8083333 L30.129666,31.8083333 L30.129666,29.5871795 L26.9328094,29.0583333 C26.8550098,28.8467949 26.7630648,28.6352564 26.6640472,28.4237179 L28.5524558,25.7935897 L24.5776031,21.8307692 L21.9394892,23.7134615 C21.7273084,23.6147436 21.5151277,23.5301282 21.302947,23.4455128 L20.7724951,20.2583333 L15.156778,20.2583333 L14.6263261,23.4455128 C14.4141454,23.5230769 14.2019646,23.6147436 13.9897839,23.7134615 L11.3516699,21.8307692 L7.37681729,25.7935897 L9.26522593,28.4237179 C9.16620825,28.6352564 9.08133595,28.8467949 8.99646365,29.0583333 L5.79960707,29.5871795 L5.79960707,31.8083333 L2.89980354,31.8083333 C1.93791749,31.8083333 1.15992141,31.0326923 1.15992141,30.0737179 L1.15992141,14.4762821 L5.79253438,14.4762821 L5.79253438,17.9455128 L10.4251473,17.9455128 L10.4251473,14.4762821 L25.4899804,14.4762821 L25.4899804,17.9455128 L30.1225933,17.9455128 L30.1225933,14.4762821 L34.7552063,14.4762821 L34.7552063,30.0737179 C34.7693517,31.0326923 33.9913556,31.8083333 33.0294695,31.8083333 Z" id="Shape"></path>
                        <rect id="Rectangle-path" x="15.064833" y="10.4358974" width="1.15992141" height="1.15641026"></rect>
                        <rect id="Rectangle-path" x="17.3846758" y="10.4358974" width="1.15992141" height="1.15641026"></rect>
                        <rect id="Rectangle-path" x="19.7045187" y="10.4358974" width="1.15992141" height="1.15641026"></rect>
                        <rect id="Rectangle-path" x="17.3846758" y="22.5641026" width="1.15992141" height="1.15641026"></rect>
                        <rect id="Rectangle-path" transform="translate(11.179342, 25.862630) rotate(-135.000000) translate(-11.179342, -25.862630) " x="10.5993865" y="25.28443" width="1.15991029" height="1.15639917"></rect>
                        <rect id="Rectangle-path" transform="translate(24.747678, 25.865082) rotate(-45.000000) translate(-24.747678, -25.865082) " x="24.1677229" y="25.2868824" width="1.15991029" height="1.15639917"></rect>
                    </g>
                </g>
                <path d="M22.9862475,31.8083333 C22.6962672,29.2980769 20.5532417,27.3448718 17.9646365,27.3448718 C15.3689587,27.3448718 13.2330059,29.2980769 12.9430255,31.8083333 L6.9524558,31.8083333 L6.9524558,30.5673077 L9.86640472,30.0807692 L9.97956778,29.749359 C10.1068762,29.375641 10.2624754,28.9948718 10.4534381,28.6211538 L10.6090373,28.3108974 L8.89037328,25.9134615 L11.4719057,23.3397436 L13.8766208,25.0532051 L14.1878193,24.8980769 C14.5626719,24.7076923 14.9445972,24.5525641 15.3194499,24.425641 L15.6518664,24.3128205 L16.1398821,21.4076923 L19.7964637,21.4076923 L20.2844794,24.3128205 L20.6168959,24.425641 C20.9917485,24.5525641 21.3736739,24.7076923 21.7485265,24.8980769 L22.059725,25.0532051 L24.4644401,23.3397436 L27.0459725,25.9134615 L25.3273084,28.3108974 L25.4829077,28.6211538 C25.6738703,28.9948718 25.8294695,29.375641 25.956778,29.749359 L26.0699411,30.0807692 L28.98389,30.5673077 L28.98389,31.8083333 L22.9862475,31.8083333 Z" id="Path" stroke="#30D6C7" stroke-width="1.2" fill="#FFFFFF"></path>
            </g>
        </g>
    </g>
</svg>