<?xml version="1.0" encoding="UTF-8"?>
<svg width="65px" height="36px" viewBox="0 0 65 36" version="1.1" xmlns="http://www.w3.org/2000/svg" xmlns:xlink="http://www.w3.org/1999/xlink">
    <!-- Generator: Sketch 44.1 (41455) - http://www.bohemiancoding.com/sketch -->
    <title>Transport &amp; Logistics</title>
    <desc>Created with Sketch.</desc>
    <defs>
        <path d="M8.00000491,28.3399367 C8.00000491,27.1781435 8.36700262,26.0754219 9.06137477,25.150654 C9.06137477,25.1505063 9.06152317,25.1503586 9.06167157,25.150211 C10.0868314,23.7837342 11.6561807,23 13.3672538,23 C15.0786236,23 16.6479729,23.7838819 17.6731328,25.1503586 C17.6731328,25.1505063 17.6731328,25.150654 17.6731328,25.150654 C18.3675049,26.0754219 18.7345026,27.1781435 18.7345026,28.3399367 C18.7345026,28.374789 18.734651,28.4100844 18.7333154,28.4449367 C18.7330186,28.4512869 18.7328702,28.4576371 18.7328702,28.4639873 C18.7328702,28.4978059 18.7318314,28.5314768 18.728715,28.5774051 C18.6015346,31.4383966 16.2463976,33.6795781 13.3671054,33.6795781 C10.4864775,33.6795781 8.13134052,31.4385443 8.00475376,28.5642616 C8.00237934,28.5314768 8.00148892,28.4978059 8.00148892,28.4639873 C8.00148892,28.4576371 8.00134052,28.4515823 8.00119212,28.4453797 C8.00119212,28.4452321 8.00119212,28.4450844 8.00119212,28.4449367 C7.9998565,28.4100844 8.00000491,28.3749367 8.00000491,28.3399367 Z" id="path-1"></path>
        <path d="M56.5942237,28.6171519 C56.5939269,28.6235021 56.5937785,28.6298523 56.5937785,28.6362025 C56.5937785,28.6700211 56.5927397,28.703692 56.5896233,28.7496203 C56.4624429,31.6106118 54.1073059,33.8517932 51.2280137,33.8517932 C48.3472374,33.8517932 45.9922489,31.6107595 45.8656621,28.7364768 C45.8632877,28.703692 45.8623973,28.6700211 45.8623973,28.6362025 C45.8623973,28.6298523 45.8621005,28.6235021 45.8619521,28.6171519 C45.8606164,28.5822996 45.8607648,28.5470042 45.8607648,28.5121519 C45.8607648,28.2941772 45.8736758,28.0785654 45.8992009,27.8656118 C45.9092922,27.7818776 45.9219064,27.6985865 45.9358562,27.6157384 C46.0608105,26.8740928 46.3414384,26.1718776 46.7664612,25.5429114 C46.816621,25.4686287 46.8681164,25.3950844 46.9221347,25.3230169 C46.9222831,25.3230169 46.9222831,25.3230169 46.9222831,25.3230169 L46.9224315,25.3228692 C47.9475913,23.9562447 49.5167922,23.1723629 51.2281621,23.1723629 C52.939532,23.1723629 54.5087329,23.9562447 55.5340411,25.3227215 C55.5341895,25.3228692 55.5341895,25.3230169 55.5341895,25.3230169 C56.2285616,26.2477848 56.5955594,27.3505063 56.5955594,28.5122996 C56.5952626,28.5471519 56.5952626,28.5822996 56.5942237,28.6171519 Z" id="path-2"></path>
        <path d="M18.7334638,28.444789 C18.733167,28.4511392 18.7330186,28.4574895 18.7330186,28.4638397 C18.7330186,28.4976582 18.7319798,28.5313291 18.7288634,28.5772574 C18.601683,31.4382489 16.246546,33.6794304 13.3672538,33.6794304 C10.4864775,33.6794304 8.13148892,31.4383966 8.00490217,28.5641139 C8.00252774,28.5313291 8.00163733,28.4976582 8.00163733,28.4638397 C8.00163733,28.4574895 8.00134052,28.4511392 8.00119212,28.444789 C7.9998565,28.4099367 8.00000491,28.3746414 8.00000491,28.339789 C8.00000491,28.1218143 8.01291586,27.9062025 8.03844098,27.6932489 C8.0485323,27.6095148 8.06114646,27.5262236 8.07509623,27.4433755 C8.20005057,26.70173 8.48067842,25.9995148 8.90570125,25.3705485 C8.95586107,25.2962658 9.0073565,25.2227215 9.06137477,25.150654 C9.06152317,25.150654 9.06152317,25.150654 9.06152317,25.150654 L9.06167157,25.1505063 C10.0868314,23.7838819 11.6560323,23 13.3674022,23 C15.078772,23 16.6479729,23.7838819 17.6732812,25.1503586 C17.6734296,25.1505063 17.6734296,25.150654 17.6734296,25.150654 C18.3678017,26.0754219 18.7347994,27.1781435 18.7347994,28.3399367 C18.7345026,28.374789 18.7345026,28.4099367 18.7334638,28.444789 Z" id="path-3"></path>
    </defs>
    <g id="Page-1" stroke="none" stroke-width="1" fill="none" fill-rule="evenodd">
        <g id="What-we-do" transform="translate(-543.000000, -2826.000000)">
            <g id="Transport-&amp;-Logistics" transform="translate(543.000000, 2826.000000)">
                <g id="noun_1104815_cc" fill-rule="nonzero" fill="#000000">
                    <path d="M10.4535731,28.6703165 C10.4574315,28.7286498 10.4617352,28.7868354 10.4684132,28.8340928 C10.630468,30.1767932 11.7782078,31.1894304 13.1380137,31.1894304 C13.2230479,31.1894304 13.3071918,31.185443 13.3902968,31.177616 C13.4334817,31.1736287 13.4753311,31.1658017 13.5179224,31.1598945 C13.5573973,31.1542827 13.5973174,31.1505907 13.6361986,31.1433544 C14.7692466,30.9314346 15.6658904,30.0103586 15.8067237,28.8431013 C15.8068721,28.8425105 15.8068721,28.8419198 15.8068721,28.8413291 C15.8068721,28.8402954 15.8071689,28.8392616 15.8073174,28.8383755 C15.8147374,28.7834388 15.8190411,28.72673 15.8227511,28.6701688 C15.8230479,28.665 15.8233447,28.6601266 15.8234932,28.6549578 C15.825274,28.6072574 15.8269064,28.559557 15.8269064,28.5120042 C15.8269064,27.0358017 14.6206963,25.8347257 13.1380137,25.8347257 C11.6554795,25.8347257 10.4492694,27.0358017 10.4492694,28.5120042 C10.4492694,28.5579325 10.4509018,28.6037131 10.4526826,28.6549578 C10.4529795,28.6601266 10.4531279,28.6651477 10.4535731,28.6703165 Z M13.1381621,26.8686287 C14.0480137,26.8686287 14.788242,27.6058439 14.788242,28.5121519 C14.788242,28.5446414 14.7870548,28.5772785 14.7858676,28.6097679 C14.7839384,28.6379747 14.7818607,28.6661814 14.7784475,28.6936498 C14.7778539,28.699557 14.7774087,28.7044304 14.7766667,28.7106329 C14.6772374,29.5342405 13.972774,30.1555274 13.1381621,30.1555274 C12.3036986,30.1555274 11.5993836,29.5342405 11.4987671,28.7014768 C11.4943151,28.669135 11.4923858,28.6354641 11.4907534,28.6118354 C11.4895662,28.5784599 11.4882306,28.5452321 11.4882306,28.5120042 C11.4880822,27.6059916 12.2283105,26.8686287 13.1381621,26.8686287 Z" id="Shape"></path>
                    <path d="M45.8370205,13.5507595 C45.9961073,13.5507595 46.1465868,13.4781013 46.2451256,13.3537553 C46.3436644,13.2294093 46.3792808,13.0668143 46.3418836,12.9127848 L44.5033333,5.32649789 C44.1444977,3.84586498 42.8250571,2.81181435 41.294589,2.81181435 L33.2823744,2.81181435 C32.9955137,2.81181435 32.762968,3.04322785 32.762968,3.32869198 L32.762968,13.0340295 C32.762968,13.3194937 32.9955137,13.5509072 33.2823744,13.5509072 L45.8370205,13.5509072 L45.8370205,13.5507595 Z M33.8019292,3.84556962 L41.2947374,3.84556962 C42.3434932,3.84556962 43.2477055,4.55413502 43.4936073,5.56883966 L45.1775228,12.5171519 L33.8019292,12.5171519 L33.8019292,3.84556962 Z" id="Shape"></path>
                    <path d="M25.8180594,13.5507595 L30.2471119,13.5507595 C30.5339726,13.5507595 30.7665183,13.319346 30.7665183,13.0338819 L30.7665183,3.32869198 C30.7665183,3.04322785 30.5339726,2.81181435 30.2471119,2.81181435 L25.8180594,2.81181435 C25.5311986,2.81181435 25.298653,3.04322785 25.298653,3.32869198 L25.298653,13.0340295 C25.298653,13.319346 25.5311986,13.5507595 25.8180594,13.5507595 Z M26.3374658,3.84556962 L29.7277055,3.84556962 L29.7277055,12.5171519 L26.3374658,12.5171519 L26.3374658,3.84556962 Z" id="Shape"></path>
                    <path d="M31.7645205,16.6607384 C31.7645205,16.9462025 31.9970662,17.177616 32.2839269,17.177616 L35.7456963,17.177616 C36.0327055,17.177616 36.2651027,16.9462025 36.2651027,16.6607384 C36.2651027,16.3752743 36.0327055,16.1438608 35.7456963,16.1438608 L32.2839269,16.1438608 C31.9970662,16.1438608 31.7645205,16.3752743 31.7645205,16.6607384 Z" id="Shape"></path>
                    <path d="M63.2890753,24.4966034 L63.0320434,24.4966034 L63.0320434,18.3177004 C63.0320434,17.7656751 62.9424087,17.2309283 62.7766438,16.7276371 C62.7708562,16.625 62.7358333,16.5306329 62.6782534,16.4526582 C62.087911,14.9562236 60.8027511,13.7836498 59.1553425,13.365865 L48.7433219,10.9905907 L47.1073402,4.21137131 C46.5257534,1.80183544 44.3804566,0.118881857 41.8901256,0.118881857 L27.5478311,0.118881857 C27.2609703,0.118881857 27.0284247,0.350295359 27.0284247,0.635759494 C27.0284247,0.921223629 27.2609703,1.15263713 27.5478311,1.15263713 L41.8899772,1.15263713 C43.8980023,1.15263713 45.6280708,2.50966245 46.0971689,4.452827 L47.8083904,11.5435021 C47.8545434,11.7343038 48.0051712,11.8827215 48.1973516,11.9265823 L58.9109247,14.3705274 C59.9929224,14.6449156 60.8775457,15.3344304 61.4178767,16.2401477 L59.9408333,16.2401477 C58.7899772,16.2401477 57.85371,17.1718565 57.85371,18.3171097 L57.85371,20.6996203 C57.85371,20.9852321 58.0861073,21.2164979 58.3731164,21.2164979 L61.993379,21.2164979 L61.993379,24.4966034 L56.227968,24.4966034 C55.0499543,23.0458017 53.2483562,22.1173418 51.2280137,22.1173418 C49.2076712,22.1173418 47.4060731,23.0458017 46.2280594,24.4966034 L44.246895,24.4966034 C43.9600342,24.4966034 43.7274886,24.7280169 43.7274886,25.013481 C43.7274886,25.2990928 43.9600342,25.5303586 44.246895,25.5303586 L45.5431849,25.5303586 C45.1284018,26.31173 44.8718151,27.1885021 44.8151256,28.1193249 L19.5511986,28.1193249 C19.4945091,27.1883544 19.237774,26.31173 18.8229909,25.5303586 L41.5035388,25.5303586 C41.7903995,25.5303586 42.0229452,25.2990928 42.0229452,25.013481 C42.0229452,24.7280169 41.7903995,24.4966034 41.5035388,24.4966034 L18.1381164,24.4966034 C16.9601027,23.0458017 15.1585046,22.1173418 13.1381621,22.1173418 C11.1178196,22.1173418 9.31622146,23.0458017 8.13820776,24.4966034 L2.93969178,24.4966034 L2.93969178,21.2164979 L4.43528539,21.2164979 C5.75665525,21.2164979 6.83152968,20.1467089 6.83152968,18.8319198 L6.83152968,18.6944304 C6.83152968,17.3794937 5.75650685,16.3098523 4.43528539,16.3098523 L2.93969178,16.3098523 L2.93969178,15.2675316 L22.7396119,15.2675316 C23.0264726,15.2675316 23.2590183,15.0361181 23.2590183,14.750654 L23.2590183,1.15263713 L24.70371,1.15263713 C24.9905708,1.15263713 25.2231164,0.921223629 25.2231164,0.635759494 C25.2231164,0.350295359 24.9905708,0.118881857 24.70371,0.118881857 L22.7396119,0.118881857 C22.4527511,0.118881857 22.2202055,0.350295359 22.2202055,0.635759494 L22.2202055,14.2337764 L16.7748973,14.2337764 L16.7748973,6.69947257 L16.7748973,6.69932489 L16.7748973,2.31871308 C16.7748973,2.03324895 16.5423516,1.80183544 16.2554909,1.80183544 C15.9686301,1.80183544 15.7360845,2.03324895 15.7360845,2.31871308 L15.7360845,6.48445148 L7.93623288,14.2336287 L2.42028539,14.2336287 C2.13342466,14.2336287 1.900879,14.4650422 1.900879,14.7505063 L1.900879,16.8265823 L1.900879,20.6996203 L1.900879,24.4966034 L1.71092466,24.4966034 C0.797659817,24.4966034 0.0544634703,25.2361814 0.0544634703,26.145 L0.0544634703,27.5030591 C0.0544634703,28.4129114 0.797511416,29.1530802 1.71092466,29.1530802 L6.74426941,29.1530802 C7.06734018,32.3838608 9.8065411,34.906962 13.1381621,34.906962 C16.4699315,34.906962 19.208984,32.3838608 19.5320548,29.1530802 L44.8338242,29.1530802 C45.1570434,32.3838608 47.8962443,34.906962 51.2278653,34.906962 C54.5594863,34.906962 57.2986872,32.3838608 57.6219064,29.1530802 L63.2890753,29.1530802 C64.2024886,29.1530802 64.9455365,28.4129114 64.9455365,27.5030591 L64.9455365,26.145 C64.9455365,25.2361814 64.2024886,24.4966034 63.2890753,24.4966034 Z M15.7360845,7.94544304 L15.7360845,14.2337764 L9.40659817,14.2337764 L15.7360845,7.94544304 Z M2.93969178,17.3434599 L4.43528539,17.3434599 C5.1838242,17.3434599 5.79271689,17.9495359 5.79271689,18.6942827 L5.79271689,18.8317722 C5.79271689,19.5766667 5.1836758,20.1825949 4.43528539,20.1825949 L2.93969178,20.1825949 L2.93969178,17.3434599 Z M1.09327626,27.5030591 L1.09327626,26.145 C1.09327626,25.8060759 1.37034247,25.5303586 1.71092466,25.5303586 L7.45333333,25.5303586 C7.03869863,26.31173 6.78196347,27.1885021 6.72512557,28.1193249 L1.71092466,28.1193249 C1.37034247,28.1193249 1.09327626,27.8428692 1.09327626,27.5030591 Z M58.8923744,20.1827426 L58.8923744,18.3171097 C58.8923744,17.7418987 59.3628082,17.273903 59.9406849,17.273903 L61.8559589,17.273903 C61.945,17.608692 61.9930822,17.9585443 61.9930822,18.3177004 L61.9930822,20.1827426 L58.8923744,20.1827426 L58.8923744,20.1827426 Z M63.9067237,27.5030591 C63.9067237,27.8428692 63.6296575,28.1193249 63.2890753,28.1193249 L57.6407534,28.1193249 C57.5840639,27.1883544 57.3274772,26.31173 56.9126941,25.5303586 L63.2890753,25.5303586 C63.6296575,25.5303586 63.9067237,25.8060759 63.9067237,26.145 L63.9067237,27.5030591 Z" id="Shape"></path>
                </g>
                <g id="Path">
                    <use fill="#FFFFFF" fill-rule="evenodd" xlink:href="#path-1"></use>
                    <path stroke="#30D6C7" stroke-width="1.5" d="M8.75097986,28.4275472 C8.75097978,28.4275407 8.7509797,28.4275342 8.75097963,28.4275277 L8.75097754,28.4274404 C8.75097847,28.427479 8.75097939,28.4275171 8.7509803,28.4275548 Z M8.46247963,24.6991341 C8.486023,24.642493 8.49977933,24.6306583 8.52078154,24.6226713 C8.52447801,24.6212656 8.52839893,24.619979 8.53263718,24.6185883 L9.06167157,25.150211 L8.46173527,24.7001261 C8.46198336,24.6997954 8.46223148,24.6994647 8.46247963,24.6991341 C8.48174422,24.673466 8.50117899,24.6479779 8.52078185,24.6226709 C9.68855914,23.1150862 11.4528142,22.25 13.3672538,22.25 C15.3144379,22.25 17.1061343,23.1448194 18.2730691,24.7002737 L18.4231328,24.9002997 L18.4231328,24.9093659 C19.1178758,25.9199292 19.4845026,27.1023236 19.4845026,28.3399367 L19.484505,28.3491625 C19.4845156,28.3716012 19.4845156,28.3716012 19.4843893,28.3979899 C19.484061,28.4298377 19.4840322,28.4326236 19.4828657,28.4686279 C19.4827648,28.5201878 19.4809876,28.56924 19.477975,28.6107121 C19.3329369,31.8734237 16.6468081,34.4295781 13.3671054,34.4295781 C10.083696,34.4295781 7.39966582,31.8711465 7.25671306,28.6184382 C7.25306329,28.5680442 7.25148892,28.5172943 7.25148892,28.4639873 C7.25149123,28.4643616 7.25149333,28.4647034 7.25149525,28.4650153 C7.2515155,28.4683096 7.25151485,28.468255 7.25150731,28.467624 L7.25140462,28.4632318 L7.25137602,28.4608293 C7.25020644,28.4196855 7.25019138,28.4162529 7.25001797,28.3767337 C7.24999724,28.3622779 7.24999724,28.3622779 7.25000251,28.3491966 L7.25000491,28.3399367 C7.25000491,27.0159459 7.66959418,25.7551508 8.46162272,24.7003236 L8.46190032,24.700532 C8.46193001,24.7004602 8.46195968,24.7003884 8.46198934,24.7003167 C8.46215324,24.6999203 8.46231667,24.6995261 8.46247963,24.6991341 Z"></path>
                </g>
                <g id="Path">
                    <use fill="#FFFFFF" fill-rule="evenodd" xlink:href="#path-2"></use>
                    <path stroke="#30D6C7" stroke-width="1.5" d="M46.4239188,24.8222144 L46.424116,24.8221157 L46.9221347,24.5730169 L46.9222831,24.5730169 L46.9222831,25.3230169 L46.3932487,24.7913943 L46.3933971,24.7912466 L46.9224315,25.3228692 L46.3224719,24.8728154 C47.4893997,23.3172022 49.2809554,22.4223629 51.2281621,22.4223629 C53.1752859,22.4223629 54.9668357,23.3171316 56.1339461,24.8725949 L56.1236374,24.8803298 C56.1236514,24.8803506 56.1236654,24.8803713 56.1236793,24.880392 L56.1339416,24.8726865 C56.9259701,25.9275136 57.3455594,27.1883088 57.3455322,28.5186864 C57.3454499,28.529119 57.3454499,28.529119 57.3453745,28.5405248 C57.3452761,28.5554584 57.3452761,28.5554584 57.3451357,28.5718805 C57.3447855,28.6033 57.3447855,28.6033 57.3438908,28.6394966 L57.3435751,28.6477456 C57.3437194,28.6437818 57.3437304,28.6423655 57.3437785,28.6362025 C57.3437785,28.6383592 57.3437756,28.6405118 57.3437698,28.6426599 C57.3436312,28.6935549 57.3418606,28.7419426 57.3388833,28.7829273 C57.1938452,32.0456389 54.5077165,34.6017932 51.2280137,34.6017932 C47.9445044,34.6017932 45.2605763,32.0434098 45.1176214,28.7906534 C45.1141502,28.7427255 45.1125563,28.6944757 45.1124086,28.6440104 C45.1124084,28.6439179 45.1124081,28.6438255 45.1124078,28.6437331 C45.1124069,28.6434042 45.112406,28.6430752 45.1124052,28.6427461 C45.1112377,28.6050818 45.1112285,28.60419 45.1108782,28.5702051 C45.1107519,28.5438164 45.1107519,28.5438164 45.1107624,28.5213777 L45.1107648,28.5121519 C45.1107648,28.2649711 45.1253816,28.0195463 45.1545888,27.775874 C45.1655451,27.6849629 45.1792704,27.5921509 45.1962797,27.4911327 C45.3392699,26.6424377 45.6607076,25.8397229 46.1448984,25.1231976 C46.2062073,25.032404 46.2636214,24.9510812 46.3220053,24.8731894 L46.4239188,24.8222144 Z"></path>
                </g>
                <path d="M51.2280137,25.8348734 C49.7454795,25.8348734 48.539121,27.0359494 48.539121,28.5121519 C48.539121,28.5580802 48.5409018,28.6038608 48.5425342,28.6551055 C48.5428311,28.6601266 48.5431279,28.665 48.5434247,28.6703165 C48.5471347,28.7286498 48.5515868,28.7868354 48.5582648,28.8340928 C48.720468,30.1767932 49.8680594,31.1894304 51.2280137,31.1894304 C51.3128995,31.1894304 51.3971918,31.185443 51.4801484,31.177616 C51.5233333,31.1736287 51.5651826,31.1658017 51.6076256,31.1598945 C51.6471005,31.1542827 51.6870205,31.1505907 51.7260502,31.1433544 C52.8592466,30.9314346 53.755742,30.0103586 53.8965753,28.8431013 C53.8965753,28.8425105 53.8965753,28.8419198 53.8967237,28.8413291 C53.8968721,28.8402954 53.8971689,28.8392616 53.8971689,28.8383755 C53.9047374,28.7834388 53.9088927,28.72673 53.9126027,28.6701688 C53.9130479,28.665 53.9133447,28.6601266 53.9134932,28.6549578 C53.915274,28.6072574 53.9169064,28.559557 53.9169064,28.5120042 C53.9169064,27.0359494 52.7105479,25.8348734 51.2280137,25.8348734 Z M52.8755708,28.6097679 C52.8736416,28.6379747 52.8717123,28.6661814 52.8681507,28.6936498 C52.8674087,28.699557 52.8669635,28.7044304 52.8662215,28.7106329 C52.7667922,29.5342405 52.0624772,30.1555274 51.2278653,30.1555274 C50.3934018,30.1555274 49.6890868,29.5342405 49.5884703,28.7014768 C49.5838699,28.669135 49.582089,28.6354641 49.5803082,28.6118354 C49.579121,28.5784599 49.577637,28.5452321 49.577637,28.5120042 C49.577637,27.6056962 50.3178653,26.868481 51.2277169,26.868481 C52.1375685,26.868481 52.8777968,27.6056962 52.8777968,28.5120042 C52.8780936,28.5446414 52.876758,28.5774262 52.8755708,28.6097679 Z" id="Shape" fill="#30D6C7" fill-rule="nonzero"></path>
                <g id="Path-Copy">
                    <use fill="#FFFFFF" fill-rule="evenodd" xlink:href="#path-3"></use>
                    <path stroke="#30D6C7" stroke-width="1.5" d="M8.46182442,24.7005369 L8.46171192,24.7004525 C9.62863975,23.1448393 11.4201955,22.25 13.3674022,22.25 C15.314526,22.25 17.1060758,23.1447688 18.2731862,24.700232 L18.2628775,24.707967 C18.2628915,24.7079877 18.2629054,24.7080084 18.2629194,24.7080291 L18.2731816,24.7003236 C19.0652102,25.7551508 19.4847994,27.0159459 19.4847722,28.3463235 C19.48469,28.3567561 19.48469,28.3567561 19.4846145,28.3681619 C19.4845162,28.3830955 19.4845162,28.3830955 19.4843757,28.3995176 C19.4840256,28.4309371 19.4840256,28.4309371 19.4831309,28.4671337 L19.4828152,28.4753827 C19.4829595,28.4714189 19.4829705,28.4700026 19.4830186,28.4638397 C19.4830186,28.4659964 19.4830157,28.4681489 19.4830098,28.4702971 C19.4828713,28.521192 19.4811006,28.5695797 19.4781234,28.6105644 C19.3330853,31.873276 16.6469565,34.4294304 13.3672538,34.4294304 C10.0837445,34.4294304 7.39981634,31.871047 7.25686146,28.6182905 C7.25339029,28.5703626 7.25179638,28.5221127 7.2516487,28.4716474 C7.25164842,28.471555 7.25164816,28.4714626 7.2516479,28.4713702 C7.25164697,28.4710413 7.2516461,28.4707123 7.2516453,28.4703832 C7.25163997,28.4682062 7.25163733,28.4660251 7.25163733,28.4638397 C7.25167658,28.4684601 7.25169868,28.4710612 7.25171638,28.4726759 C7.25169222,28.4718968 7.25166853,28.4711327 7.2516453,28.4703832 C7.2504778,28.4327189 7.2504686,28.4318272 7.25011822,28.3978422 C7.24999196,28.3714535 7.24999196,28.3714535 7.25000251,28.3490148 L7.25000491,28.339789 C7.25000491,28.0926082 7.26462162,27.8471835 7.29382892,27.6035111 C7.30478518,27.5126 7.3185105,27.419788 7.33551972,27.3187698 C7.47851001,26.4700749 7.7999477,25.66736 8.28413846,24.9508347 C8.34544735,24.8600411 8.40286151,24.7787184 8.46124541,24.7008265 L8.46182442,24.7005369 Z"></path>
                </g>
                <path d="M13.6888927,26 C12.2063584,26 11,27.2010759 11,28.6772785 C11,28.7232068 11.0017808,28.7689873 11.0034132,28.8202321 C11.00371,28.8252532 11.0040068,28.8301266 11.0043037,28.835443 C11.0080137,28.8937764 11.0124658,28.951962 11.0191438,28.9992194 C11.181347,30.3419198 12.3289384,31.354557 13.6888927,31.354557 C13.7737785,31.354557 13.8580708,31.3505696 13.9410274,31.3427426 C13.9842123,31.3387553 14.0260616,31.3309283 14.0685046,31.3250211 C14.1079795,31.3194093 14.1478995,31.3157173 14.1869292,31.308481 C15.3201256,31.0965612 16.216621,30.1754852 16.3574543,29.0082278 C16.3574543,29.0076371 16.3574543,29.0070464 16.3576027,29.0064557 C16.3577511,29.0054219 16.3580479,29.0043882 16.3580479,29.0035021 C16.3656164,28.9485654 16.3697717,28.8918565 16.3734817,28.8352954 C16.3739269,28.8301266 16.3742237,28.8252532 16.3743721,28.8200844 C16.376153,28.772384 16.3777854,28.7246835 16.3777854,28.6771308 C16.3777854,27.2010759 15.1714269,26 13.6888927,26 Z M15.3364498,28.7748945 C15.3345205,28.8031013 15.3325913,28.831308 15.3290297,28.8587764 C15.3282877,28.8646835 15.3278425,28.869557 15.3271005,28.8757595 C15.2276712,29.6993671 14.5233562,30.320654 13.6887443,30.320654 C12.8542808,30.320654 12.1499658,29.6993671 12.0493493,28.8666034 C12.0447489,28.8342616 12.042968,28.8005907 12.0411872,28.776962 C12.04,28.7435865 12.038516,28.7103586 12.038516,28.6771308 C12.038516,27.7708228 12.7787443,27.0336076 13.6885959,27.0336076 C14.5984475,27.0336076 15.3386758,27.7708228 15.3386758,28.6771308 C15.3389726,28.7097679 15.337637,28.7425527 15.3364498,28.7748945 Z" id="Shape-Copy-4" fill="#30D6C7" fill-rule="nonzero"></path>
            </g>
        </g>
    </g>
</svg>