<?xml version="1.0" encoding="UTF-8"?>
<svg width="60px" height="45px" viewBox="0 0 60 45" version="1.1" xmlns="http://www.w3.org/2000/svg" xmlns:xlink="http://www.w3.org/1999/xlink">
    <!-- Generator: Sketch 44.1 (41455) - http://www.bohemiancoding.com/sketch -->
    <title>Travel &amp; Tourism</title>
    <desc>Created with Sketch.</desc>
    <defs></defs>
    <g id="Page-1" stroke="none" stroke-width="1" fill="none" fill-rule="evenodd">
        <g id="What-we-do" transform="translate(-143.000000, -2820.000000)">
            <g id="Travel-&amp;-Tourism" transform="translate(143.000000, 2820.000000)">
                <g>
                    <g id="Group-3-Copy" transform="translate(8.000000, 11.000000)" fill="#FFFFFF">
                        <path d="M30.1080645,10.55 L4.5483871,10.55 L4.5483871,8.85 L30.4989032,8.85 C30.4343226,9.44075 30.2984516,10.0077 30.1080645,10.55 Z" id="Path"></path>
                        <path d="M29.271871,12.25 C27.9156774,14.2985 25.6109032,15.65 23,15.65 C20.4570323,15.65 18.1287742,14.3444 16.7423871,12.25 L29.271871,12.25 Z" id="Path"></path>
                        <path d="M30.1080645,5.45 C30.2984516,5.9923 30.4343226,6.5601 30.4989032,7.15 L4.5483871,7.15 L4.5483871,5.45 L30.1080645,5.45 Z" id="Path"></path>
                        <path d="M16.7423871,3.75 C18.1279355,1.65475 20.4570323,0.35 23,0.35 C25.6117419,0.35 27.9165161,1.7015 29.271871,3.75 L16.7423871,3.75 Z" id="Path"></path>
                        <polygon id="Path" points="0.0201935484 8 2.87096774 5.688 2.87096774 10.31115"></polygon>
                    </g>
                    <g id="Group" fill-rule="nonzero">
                        <g>
                            <path d="M39.0989011,34.7426471 C47.8681319,34.7426471 54.9230769,27.5955882 54.9230769,18.8602941 C54.9230769,10.0588235 47.8021978,2.97794118 39.0989011,2.97794118 C30.3296703,2.97794118 23.2747253,10.125 23.2747253,18.8602941 C23.2747253,19.9852941 23.4065934,21.1764706 23.6703297,22.2352941 L17.8021978,23.625 C17.5384615,23.6911765 17.3406593,23.9558824 17.2747253,24.2205882 C17.2747253,24.4852941 17.4065934,24.8161765 17.6703297,24.8823529 L23.6043956,27.5294118 L23.6043956,31.8970588 C23.6043956,32.1617647 23.7362637,32.4264706 24,32.4926471 C24.0659341,32.5588235 24.1978022,32.5588235 24.2637363,32.5588235 C24.3956044,32.5588235 24.5934066,32.4926471 24.6593407,32.4264706 L26.967033,30.5735294 L28.8791209,32.3602941 C29.010989,32.4926471 29.1428571,32.5588235 29.3406593,32.5588235 C29.3406593,32.5588235 29.3406593,32.5588235 29.4065934,32.5588235 C29.6043956,32.5588235 29.7362637,32.4926471 29.8681319,32.2941176 L30.1978022,31.8970588 C32.8351648,33.8161765 35.8681319,34.7426471 39.0989011,34.7426471 Z M34.8131868,20.9779412 L24.1978022,26.4044118 L20.043956,24.4852941 L34.8131868,20.9779412 Z M24.9230769,30.5073529 L24.9230769,28.6544118 L25.978022,29.6470588 L24.9230769,30.5073529 Z M29.2747253,30.9705882 L27.4945055,29.25 L27.4945055,29.25 L25.5164835,27.3970588 L25.4505495,27.3308824 L37.5824176,21.1102941 L29.2747253,30.9705882 Z" id="Shape" fill="#30D6C7"></path>
                            <path d="M47.7362637,0.198529412 C47.4065934,0.0661764706 47.010989,0.198529412 46.8131868,0.529411765 C46.6813187,0.860294118 46.8131868,1.25735294 47.1428571,1.45588235 C56.7032967,5.88970588 60.8571429,17.3382353 56.4395604,26.9338235 C52.021978,36.5294118 40.6153846,40.6985294 31.0549451,36.2647059 C30.7252747,36.1323529 30.3296703,36.2647059 30.1318681,36.5955882 C30,36.9264706 30.1318681,37.3235294 30.4615385,37.5220588 C33.032967,38.7132353 35.7362637,39.3088235 38.4395604,39.4411765 L38.4395604,43.4779412 L33.4285714,43.4779412 C33.032967,43.4779412 32.7692308,43.8088235 32.7692308,44.1397059 C32.7692308,44.5367647 33.0989011,44.8014706 33.4285714,44.8014706 L44.1758242,44.8014706 C44.5714286,44.8014706 44.8351648,44.4705882 44.8351648,44.1397059 C44.8351648,43.7426471 44.5054945,43.4779412 44.1758242,43.4779412 L39.8241758,43.4779412 L39.8241758,39.4411765 C47.2747253,39.1764706 54.3956044,34.8088235 57.7582418,27.5955882 C62.4395604,17.2058824 57.956044,4.96323529 47.7362637,0.198529412 Z" id="Shape" fill="#000000"></path>
                            <path d="M20.2417582,29.25 L19.6483516,29.5808824 C19.4505495,29.7132353 19.3846154,29.9779412 19.5164835,30.1764706 C19.5824176,30.3088235 19.7802198,30.375 19.9120879,30.375 C19.978022,30.375 20.043956,30.375 20.1098901,30.3088235 L20.7032967,29.9779412 C20.9010989,29.8455882 20.967033,29.5808824 20.8351648,29.3823529 C20.7032967,29.1838235 20.4395604,29.1176471 20.2417582,29.25 Z" id="Shape" fill="#000000"></path>
                            <path d="M8.50549451,25.0147059 C8.43956044,24.75 8.24175824,24.6176471 7.97802198,24.6838235 C7.51648352,24.8161765 6.98901099,24.9485294 6.59340659,25.2132353 C6.3956044,25.3455882 6.32967033,25.6102941 6.46153846,25.8088235 C6.52747253,25.9411765 6.72527473,26.0073529 6.85714286,26.0073529 C6.92307692,26.0073529 6.98901099,26.0073529 7.05494505,25.9411765 C7.38461538,25.7426471 7.78021978,25.6102941 8.17582418,25.5441176 C8.37362637,25.5441176 8.50549451,25.2794118 8.50549451,25.0147059 Z" id="Shape" fill="#000000"></path>
                            <path d="M6.3956044,32.0955882 C6.13186813,31.8308824 5.86813187,31.5661765 5.67032967,31.2352941 C5.53846154,31.0367647 5.27472527,30.9705882 5.07692308,31.1029412 C4.87912088,31.2352941 4.81318681,31.5 4.94505495,31.6985294 C5.20879121,32.0955882 5.47252747,32.4264706 5.86813187,32.7573529 L5.93406593,32.8235294 C6,32.8897059 6.13186813,32.8897059 6.1978022,32.8897059 C6.32967033,32.8897059 6.46153846,32.8235294 6.52747253,32.6911765 C6.65934066,32.4926471 6.65934066,32.2279412 6.46153846,32.0294118 L6.3956044,32.0955882 Z" id="Shape" fill="#000000"></path>
                            <path d="M4.68131868,29.3823529 L4.68131868,29.3823529 C4.94505495,29.3823529 5.14285714,29.1838235 5.14285714,28.9852941 C5.14285714,28.8529412 5.14285714,28.7205882 5.20879121,28.5882353 C5.27472527,28.3235294 5.34065934,28.0588235 5.40659341,27.8602941 C5.47252747,27.6617647 5.40659341,27.3970588 5.14285714,27.2647059 C4.94505495,27.1985294 4.68131868,27.2647059 4.54945055,27.5294118 C4.41758242,27.8602941 4.35164835,28.125 4.28571429,28.4558824 C4.28571429,28.6544118 4.21978022,28.7867647 4.21978022,28.9852941 C4.21978022,29.1176471 4.41758242,29.3823529 4.68131868,29.3823529 Z" id="Shape" fill="#000000"></path>
                            <path d="M5.07692308,35.4705882 C5.01098901,35.4705882 4.94505495,35.4705882 4.81318681,35.4705882 C4.48351648,35.4705882 4.08791209,35.4705882 3.75824176,35.4044118 C3.49450549,35.4044118 3.2967033,35.5367647 3.2967033,35.8014706 C3.2967033,36.0661765 3.42857143,36.2647059 3.69230769,36.2647059 C4.08791209,36.3308824 4.48351648,36.3308824 4.81318681,36.3308824 C4.87912088,36.3308824 5.01098901,36.3308824 5.07692308,36.3308824 C5.34065934,36.3308824 5.53846154,36.1323529 5.53846154,35.8676471 C5.47252747,35.6691176 5.27472527,35.4705882 5.07692308,35.4705882 Z" id="Shape" fill="#000000"></path>
                            <path d="M8.76923077,34.6102941 C8.37362637,34.8088235 7.97802198,34.9411765 7.58241758,35.0735294 C7.31868132,35.1397059 7.18681319,35.4044118 7.25274725,35.6029412 C7.31868132,35.8014706 7.51648352,35.9338235 7.71428571,35.9338235 C7.78021978,35.9338235 7.78021978,35.9338235 7.84615385,35.9338235 C8.30769231,35.8014706 8.76923077,35.6029412 9.16483516,35.4044118 C9.36263736,35.2720588 9.49450549,35.0073529 9.36263736,34.8088235 C9.2967033,34.6102941 9.03296703,34.4779412 8.76923077,34.6102941 Z" id="Shape" fill="#000000"></path>
                            <path d="M12.9230769,30.375 L12.989011,30.375 C13.1868132,30.375 13.3846154,30.2426471 13.4505495,29.9779412 C13.5164835,29.7132353 13.5164835,29.4485294 13.5164835,29.25 C13.5164835,28.9852941 13.5164835,28.7205882 13.4505495,28.5220588 C13.3846154,28.2573529 13.1868132,28.125 12.9230769,28.125 C12.6593407,28.1911765 12.5274725,28.3897059 12.5274725,28.6544118 C12.5274725,28.8529412 12.5934066,29.0514706 12.5934066,29.25 C12.5934066,29.4485294 12.5934066,29.6470588 12.5274725,29.8455882 C12.5274725,30.1102941 12.7252747,30.375 12.9230769,30.375 Z" id="Shape" fill="#000000"></path>
                            <path d="M13.7142857,32.7573529 C13.2527473,32.9558824 12.8571429,33.0882353 12.4615385,33.1544118 C12.1978022,33.2205882 12.0659341,33.4852941 12.1318681,33.6838235 C12.1978022,33.8823529 12.3956044,34.0147059 12.5934066,34.0147059 C12.6593407,34.0147059 12.6593407,34.0147059 12.7252747,34.0147059 C13.1208791,33.8823529 13.5824176,33.75 14.043956,33.5514706 C14.3076923,33.4852941 14.3736264,33.2205882 14.3076923,32.9558824 C14.2417582,32.7573529 13.978022,32.625 13.7142857,32.7573529 Z" id="Shape" fill="#000000"></path>
                            <path d="M17.3406593,30.9705882 C16.9450549,31.1691176 16.5494505,31.4338235 16.1538462,31.6323529 C15.956044,31.7647059 15.8241758,32.0294118 15.956044,32.2279412 C16.021978,32.3602941 16.2197802,32.4926471 16.3516484,32.4926471 C16.4175824,32.4926471 16.4835165,32.4926471 16.5494505,32.4264706 C16.9450549,32.2279412 17.3406593,31.9632353 17.7362637,31.7647059 C17.9340659,31.6323529 18,31.3676471 17.9340659,31.1691176 C17.8021978,30.9044118 17.5384615,30.8382353 17.3406593,30.9705882 Z" id="Shape" fill="#000000"></path>
                            <path d="M9.95604396,33.4852941 C9.49450549,33.4852941 9.0989011,33.4191176 8.7032967,33.2867647 C8.43956044,33.2205882 8.24175824,33.3529412 8.17582418,33.6176471 C8.10989011,33.8823529 8.24175824,34.0808824 8.50549451,34.1470588 C8.96703297,34.2794118 9.42857143,34.3455882 9.95604396,34.3455882 L9.95604396,34.3455882 C10.2197802,34.3455882 10.4175824,34.1470588 10.4175824,33.8823529 C10.4175824,33.6838235 10.2197802,33.4852941 9.95604396,33.4852941 Z" id="Shape" fill="#000000"></path>
                            <path d="M11.8021978,26.6691176 C11.9340659,26.6691176 12.0659341,26.6029412 12.1318681,26.5367647 C12.3296703,26.3382353 12.3296703,26.0735294 12.1318681,25.875 C11.8021978,25.5441176 11.3406593,25.2132353 10.8791209,25.0147059 C10.6813187,24.8823529 10.4175824,25.0147059 10.2857143,25.2132353 C10.1538462,25.4117647 10.2857143,25.6764706 10.4835165,25.8088235 C10.8791209,26.0073529 11.2087912,26.2058824 11.4725275,26.4705882 C11.5384615,26.6029412 11.6703297,26.6691176 11.8021978,26.6691176 Z" id="Shape" fill="#000000"></path>
                            <path d="M12.3296703,32.0955882 C12.1318681,31.9632353 11.8681319,32.0294118 11.7362637,32.2279412 C11.5384615,32.5588235 11.2087912,32.8897059 10.9450549,33.2205882 C10.7472527,33.4191176 10.7472527,33.6838235 10.9450549,33.8823529 C11.010989,33.9485294 11.1428571,34.0147059 11.2747253,34.0147059 C11.4065934,34.0147059 11.4725275,33.9485294 11.6043956,33.8823529 C11.9340659,33.5514706 12.2637363,33.1544118 12.5274725,32.7573529 C12.5934066,32.4926471 12.5274725,32.2279412 12.3296703,32.0955882 Z" id="Shape" fill="#000000"></path>
                            <path d="M1.25274725,34.8088235 C1.05494505,34.7426471 0.857142857,34.6102941 0.659340659,34.5441176 C0.461538462,34.4117647 0.197802198,34.5441176 0.0659340659,34.7426471 C-0.0659340659,34.9411765 0.0659340659,35.2058824 0.263736264,35.3382353 C0.461538462,35.4705882 0.659340659,35.5367647 0.923076923,35.6029412 C0.989010989,35.6029412 1.05494505,35.6029412 1.12087912,35.6029412 C1.31868132,35.6029412 1.45054945,35.4705882 1.51648352,35.3382353 C1.58241758,35.1397059 1.45054945,34.875 1.25274725,34.8088235 Z" id="Shape" fill="#000000"></path>
                        </g>
                    </g>
                    <path d="M24.5934066,18.8602941 C24.5934066,10.8529412 31.1208791,4.30147059 39.0989011,4.30147059 C47.0769231,4.30147059 53.6043956,10.8529412 53.6043956,18.8602941 C53.6043956,26.8676471 47.0769231,33.4191176 39.0989011,33.4191176 C36.1978022,33.4191176 33.4285714,32.5588235 31.0549451,30.9705882 L40.7472527,19.4558824 C40.7472527,19.3897059 40.8131868,19.3897059 40.8131868,19.3235294 L40.8791209,19.2573529 C40.8791209,19.1911765 40.9450549,19.125 40.9450549,19.0588235 L40.9450549,19.0588235 C40.9450549,18.9926471 40.9450549,18.9264706 40.8791209,18.7941176 L40.8791209,18.7941176 C40.8791209,18.7941176 40.8791209,18.7279412 40.8131868,18.7279412 C40.8131868,18.6617647 40.7472527,18.6617647 40.7472527,18.5955882 L40.7472527,18.5955882 L40.6813187,18.5294118 L40.6153846,18.4632353 C40.5494505,18.4632353 40.5494505,18.4632353 40.4835165,18.3970588 C40.4175824,18.3970588 40.4175824,18.3970588 40.3516484,18.3308824 C40.2857143,18.3308824 40.2857143,18.3308824 40.2197802,18.3308824 C40.1538462,18.3308824 40.1538462,18.3308824 40.0879121,18.3308824 C40.0879121,18.3308824 40.0879121,18.3308824 40.021978,18.3308824 L24.9230769,21.9705882 C24.7252747,20.9117647 24.5934066,19.9191176 24.5934066,18.8602941 Z" id="Path" fill="#FFFFFF"></path>
                </g>
            </g>
        </g>
    </g>
</svg>