<?xml version="1.0" encoding="UTF-8"?>
<svg width="34px" height="33px" viewBox="0 0 34 33" version="1.1" xmlns="http://www.w3.org/2000/svg" xmlns:xlink="http://www.w3.org/1999/xlink">
    <!-- Generator: Sketch 44.1 (41455) - http://www.bohemiancoding.com/sketch -->
    <title>Virtual  Marketing Support</title>
    <desc>Created with Sketch.</desc>
    <defs></defs>
    <g id="Page-1" stroke="none" stroke-width="1" fill="none" fill-rule="evenodd">
        <g id="What-we-do" transform="translate(-733.000000, -1618.000000)" fill-rule="nonzero">
            <g id="Virtual--Marketing-Support" transform="translate(733.000000, 1618.000000)">
                <g id="noun_981569_cc" fill="#000000">
                    <g id="Group">
                        <g id="Shape">
                            <g>
                                <path d="M5.4624623,32.99571 C3.95865902,32.99571 2.71738033,32.58486 1.84118361,31.72081 C-0.585078689,29.32721 0.448298361,24.01146 4.53777377,17.84871 C4.70665902,17.59461 5.05223279,17.52311 5.30974098,17.68976 C5.5666918,17.85641 5.63915082,18.19741 5.47026557,18.45151 C1.74475738,24.06591 0.629445902,28.96971 2.62931475,30.94311 C5.6324623,33.90541 14.8715443,29.79526 22.8058066,21.96601 C30.7395115,14.13676 34.9059049,5.01996 31.9033148,2.05711 C30.023282,0.20251 25.539741,1.06931 20.1995115,4.31816 C19.9381016,4.47766 19.5942,4.39736 19.4325607,4.13886 C19.2709213,3.87981 19.3522984,3.54101 19.614823,3.38206 C25.5051836,-0.20229 30.3939377,-0.98714 32.6914459,1.27886 C36.2397082,4.78016 32.2433148,14.20881 23.5939377,22.74371 C17.0793148,29.17211 10.0507902,32.99571 5.4624623,32.99571"></path>
                                <path d="M29.0704459,32.99571 C24.482118,32.99626 17.4541508,29.17266 10.9389705,22.74371 C2.28959344,14.20881 -1.7068,4.78016 1.8414623,1.27886 C5.38972459,-2.22189 14.9448393,1.72161 23.593659,10.25651 C24.4180197,11.06996 26.934577,13.60326 27.7188066,14.48821 C27.9211344,14.71646 27.8977246,15.06406 27.6658557,15.26426 C27.4339869,15.46391 27.082282,15.44081 26.8793967,15.21201 C26.1124459,14.34631 23.6226426,11.84051 22.8055279,11.03421 C14.8712656,3.20496 5.63162623,-0.90574 2.62959344,2.05711 C-0.372996721,5.01996 3.79339672,14.13676 11.7271016,21.96601 C19.6619213,29.79526 28.9010033,33.90596 31.9035934,30.94311 C33.764118,29.10721 32.9152328,24.72921 29.6880197,19.51741 C29.5280525,19.25836 29.6105443,18.91956 29.8730689,18.76116 C30.1367082,18.60331 30.4789377,18.68471 30.6394623,18.94376 C34.2022164,24.69731 34.9691672,29.47351 32.6917246,31.72081 C31.8160852,32.58486 30.5736918,32.99571 29.0704459,32.99571"></path>
                                <path d="M27.2992689,15.4 L23.9550066,15.4 C23.6473344,15.4 23.3976295,15.1536 23.3976295,14.85 C23.3976295,14.5464 23.6473344,14.3 23.9550066,14.3 L26.7418918,14.3 L26.7418918,11.55 C26.7418918,11.2464 26.9915967,11 27.2992689,11 C27.606941,11 27.8566459,11.2464 27.8566459,11.55 L27.8566459,14.85 C27.8566459,15.1536 27.606941,15.4 27.2992689,15.4"></path>
                                <path d="M5.00418689,22 C4.69651475,22 4.44680984,21.7536 4.44680984,21.45 L4.44680984,18.7 L1.65992459,18.7 C1.35225246,18.7 1.10254754,18.4536 1.10254754,18.15 C1.10254754,17.8464 1.35225246,17.6 1.65992459,17.6 L5.00418689,17.6 C5.31185902,17.6 5.56156393,17.8464 5.56156393,18.15 L5.56156393,21.45 C5.56156393,21.7536 5.31185902,22 5.00418689,22"></path>
                            </g>
                        </g>
                    </g>
                </g>
                <g id="Group" transform="translate(10.000000, 10.000000)" fill="#30D6C7">
                    <path d="M10.3558386,7.18419689 C9.06963907,7.46632124 7.78343949,7.74559585 6.49447983,8.02772021 C5.45116773,8.25569948 4.41061571,8.48367876 3.36730361,8.71165803 C2.71868365,8.85414508 2.06730361,8.99663212 1.41868365,9.13626943 C1.57324841,9.20181347 1.73057325,9.26735751 1.885138,9.33290155 C1.6118896,8.84274611 1.3358811,8.35259067 1.0626327,7.85958549 C1.04055202,8.03341969 1.01847134,8.20440415 0.999150743,8.37823834 C1.68641189,7.5888601 2.37643312,6.79663212 3.06369427,6.00725389 C4.15944798,4.74766839 5.2552017,3.4880829 6.35095541,2.22849741 C6.60212314,1.94067358 6.85329087,1.65284974 7.10169851,1.36502591 C6.8836518,1.3365285 6.66836518,1.30803109 6.45031847,1.27953368 C6.86157113,2.01761658 7.27558386,2.75569948 7.68683652,3.49093264 C8.34097665,4.66217617 8.99511677,5.83341969 9.65201699,7.00181347 C9.80382166,7.27253886 9.95286624,7.54041451 10.1046709,7.8111399 C10.2150743,8.01062176 10.4800425,8.08186528 10.6704883,7.96502591 C10.8636943,7.84818653 10.9299363,7.58031088 10.8195329,7.38082902 C10.4082803,6.64274611 9.99426752,5.90466321 9.58301486,5.16943005 C8.92887473,3.99818653 8.27473461,2.82694301 7.61783439,1.65854922 C7.46602972,1.38782383 7.31698514,1.11994819 7.16518047,0.849222798 C7.03821656,0.621243523 6.69320594,0.555699482 6.51380042,0.76373057 C5.82653928,1.55310881 5.13651805,2.34533679 4.4492569,3.13471503 C3.35350318,4.39430052 2.25774947,5.65388601 1.16199575,6.9134715 C0.910828025,7.20129534 0.659660297,7.48911917 0.411252654,7.77694301 C0.287048832,7.91943005 0.251167728,8.1246114 0.347770701,8.29559585 C0.621019108,8.7857513 0.897027601,9.27590674 1.17027601,9.76891192 C1.26687898,9.93989637 1.45732484,10.0054404 1.63673036,9.96554404 C2.81804671,9.70621762 3.99936306,9.44974093 5.18067941,9.19041451 C6.33991507,8.93678756 7.50191083,8.68316062 8.6611465,8.42953368 C9.29872611,8.28989637 9.93630573,8.15025907 10.5738854,8.01062176 C10.7919321,7.96217617 10.918896,7.69715026 10.8636943,7.48341969 C10.8029724,7.24974093 10.5766454,7.13860104 10.3558386,7.18419689 Z" id="Shape"></path>
                    <path d="M2.17218684,9.84015544 C1.76645435,9.11632124 1.36072187,8.38963731 0.954989384,7.66580311 C0.897027601,7.56321244 0.839065817,7.46062176 0.781104034,7.35803109 C0.670700637,7.15854922 0.405732484,7.0873057 0.215286624,7.20414508 C0.0220806794,7.32098446 -0.0441613588,7.5888601 0.0662420382,7.78834197 C0.471974522,8.51217617 0.877707006,9.2388601 1.28343949,9.9626943 C1.34140127,10.065285 1.39936306,10.1678756 1.45732484,10.2704663 C1.56772824,10.4699482 1.83269639,10.5411917 2.02314225,10.4243523 C2.21910828,10.307513 2.28535032,10.0396373 2.17218684,9.84015544 L2.17218684,9.84015544 Z" id="Shape"></path>
                    <path d="M6.17154989,0.775129534 C6.6462845,1.62435233 7.12101911,2.47357513 7.59575372,3.32279793 C8.35201699,4.67642487 9.11104034,6.03005181 9.86730361,7.3865285 C10.041189,7.69715026 10.2150743,8.01062176 10.3889597,8.32124352 C10.4993631,8.52072539 10.7643312,8.59196891 10.9547771,8.47512953 C11.147983,8.35829016 11.2142251,8.09041451 11.1038217,7.89093264 C10.629087,7.04170984 10.1543524,6.19248705 9.67961783,5.34326425 C8.92335456,3.98963731 8.16433121,2.63601036 7.40806794,1.27953368 C7.23418259,0.968911917 7.06029724,0.655440415 6.88641189,0.344818653 C6.77600849,0.145336788 6.51104034,0.0740932642 6.32059448,0.190932642 C6.12738854,0.307772021 6.0611465,0.572797927 6.17154989,0.775129534 L6.17154989,0.775129534 Z" id="Shape"></path>
                    <path d="M10.3641189,3.79585492 C10.8443737,3.51088083 11.3218684,3.22590674 11.8021231,2.9380829 C11.9953291,2.82409326 12.0643312,2.55051813 11.9511677,2.35388601 C11.8380042,2.15440415 11.5785563,2.08601036 11.3853503,2.2 C10.9050955,2.48497409 10.4276008,2.76994819 9.94734607,3.05777202 C9.75414013,3.17176166 9.685138,3.44533679 9.79830149,3.64196891 C9.91146497,3.84430052 10.170913,3.9126943 10.3641189,3.79585492 L10.3641189,3.79585492 Z" id="Shape"></path>
                    <path d="M9.40636943,2.07746114 C9.71549894,1.60440415 10.0273885,1.13134715 10.336518,0.658290155 C10.4607219,0.467357513 10.3723992,0.185233161 10.1874735,0.0740932642 C9.98322718,-0.0484455959 9.74585987,0.0370466321 9.62165605,0.227979275 C9.31252654,0.701036269 9.00063694,1.17409326 8.69150743,1.64715026 C8.56730361,1.8380829 8.65562633,2.12020725 8.84055202,2.23134715 C9.0447983,2.35388601 9.27940552,2.26839378 9.40636943,2.07746114 L9.40636943,2.07746114 Z" id="Shape"></path>
                    <path d="M10.9161359,5.62823834 C11.4681529,5.58834197 12.0201699,5.54559585 12.5721868,5.50569948 C12.7874735,5.48860104 12.9972399,5.32046632 12.9861996,5.07823834 C12.9779193,4.86165803 12.804034,4.63367876 12.5721868,4.6507772 C12.0201699,4.69067358 11.4681529,4.73341969 10.9161359,4.77331606 C10.7008493,4.79041451 10.4910828,4.95854922 10.5021231,5.2007772 C10.5104034,5.41735751 10.6842887,5.64533679 10.9161359,5.62823834 L10.9161359,5.62823834 Z" id="Shape"></path>
                    <path d="M5.95902335,8.49222798 C5.95902335,8.69455959 5.95902335,8.89689119 5.95902335,9.0992228 C5.95902335,9.13911917 5.95902335,9.1761658 5.95626327,9.21606218 C5.95350318,9.24170984 5.95350318,9.26735751 5.9507431,9.29300518 C5.95350318,9.27305699 5.96730361,9.21321244 5.94798301,9.29300518 C5.93694268,9.34145078 5.92590234,9.39274611 5.91210191,9.44119171 C5.90658174,9.4611399 5.86518047,9.56658031 5.88174098,9.53238342 C5.89830149,9.49533679 5.84585987,9.6007772 5.83757962,9.61502591 C5.81549894,9.65207254 5.79341826,9.68911917 5.77133758,9.7261658 C5.76029724,9.74041451 5.75201699,9.75751295 5.74097665,9.77176166 C5.77685775,9.72331606 5.7492569,9.76036269 5.72441614,9.78601036 C5.69681529,9.81735751 5.66645435,9.84870466 5.63609342,9.87720207 C5.62229299,9.88860104 5.60849257,9.90284974 5.59469214,9.9142487 C5.5477707,9.95699482 5.64437367,9.87720207 5.59469214,9.91709845 C5.52016985,9.97124352 5.44288747,10.0168394 5.36284501,10.0595855 C5.43460722,10.0253886 5.33248408,10.0709845 5.30764331,10.0795337 C5.26624204,10.0937824 5.22484076,10.1051813 5.18343949,10.1137306 C5.15859873,10.1194301 5.13375796,10.1251295 5.11167728,10.1279793 C5.11719745,10.1279793 5.17791932,10.1194301 5.12823779,10.1251295 C5.08407643,10.1279793 5.03715499,10.130829 4.99299363,10.130829 C4.94883227,10.130829 4.907431,10.130829 4.86326964,10.130829 C4.82462845,10.130829 4.78598726,10.1279793 4.74458599,10.1251295 C4.66178344,10.1194301 4.72526539,10.1222798 4.7418259,10.1251295 C4.71698514,10.1194301 4.69214437,10.1165803 4.67006369,10.1108808 C4.62314225,10.0994819 4.57346072,10.0852332 4.52929936,10.0709845 C4.5044586,10.0624352 4.42993631,10.0253886 4.49341826,10.0567358 C4.40785563,10.0139896 4.32229299,9.96554404 4.24501062,9.90284974 C4.30573248,9.95129534 4.2118896,9.86865285 4.192569,9.84870466 C4.15944798,9.81450777 4.12632696,9.77746114 4.09596603,9.74041451 C4.14840764,9.80310881 4.06836518,9.70051813 4.05456476,9.67772021 C4.02972399,9.63497409 4.00764331,9.59222798 3.98280255,9.54663212 C3.94416136,9.47823834 3.97176221,9.52668394 3.98004246,9.54663212 C3.97176221,9.5238342 3.96348195,9.49818653 3.9552017,9.4753886 C3.93864119,9.42124352 3.92208068,9.36709845 3.91104034,9.31010363 C3.90828025,9.29015544 3.90276008,9.27305699 3.9,9.25310881 C3.91104034,9.31580311 3.90276008,9.26735751 3.9,9.23031088 C3.89723992,9.19326425 3.89723992,9.15621762 3.89723992,9.11917098 C3.79511677,9.25595855 3.69575372,9.39274611 3.59363057,9.53238342 C4.43821656,9.34715026 5.28280255,9.16476684 6.12738854,8.97953368 C6.24607219,8.95388601 6.36751592,8.92823834 6.48619958,8.89974093 C6.70424628,8.85129534 6.83121019,8.58626943 6.77600849,8.37253886 C6.71252654,8.1388601 6.48619958,8.02487047 6.26539278,8.07331606 C5.42080679,8.25854922 4.57622081,8.44093264 3.73163482,8.6261658 C3.61295117,8.65181347 3.49150743,8.67746114 3.37282378,8.70595855 C3.19617834,8.74585492 3.06921444,8.93963731 3.06921444,9.11917098 C3.06921444,10.142228 3.88343949,10.9715026 4.86878981,10.9829016 C5.29936306,10.988601 5.7133758,10.8888601 6.0611465,10.6181347 C6.47239915,10.296114 6.72356688,9.8373057 6.78152866,9.30725389 C6.8118896,9.0365285 6.792569,8.75725389 6.792569,8.4865285 C6.792569,8.2642487 6.60212314,8.04766839 6.37855626,8.05906736 C6.14946921,8.0761658 5.95902335,8.25284974 5.95902335,8.49222798 Z" id="Shape"></path>
                </g>
            </g>
        </g>
    </g>
</svg>