<?xml version="1.0" encoding="UTF-8"?>
<svg width="39px" height="35px" viewBox="0 0 39 35" version="1.1" xmlns="http://www.w3.org/2000/svg" xmlns:xlink="http://www.w3.org/1999/xlink">
    <!-- Generator: Sketch 44.1 (41455) - http://www.bohemiancoding.com/sketch -->
    <title>Website  Quality Analysis</title>
    <desc>Created with Sketch.</desc>
    <defs></defs>
    <g id="Page-1" stroke="none" stroke-width="1" fill="none" fill-rule="evenodd">
        <g id="Hardware-Design-And-Development-" transform="translate(-148.000000, -545.000000)" fill-rule="nonzero">
            <g id="Website--Quality-Analysis" transform="translate(148.000000, 545.000000)">
                <g id="Group">
                    <path d="M0.465671642,0.401639344 L0.465671642,29.204918 L8.14925373,29.204918 L8.14925373,28.3442623 L1.33880597,28.3442623 L1.33880597,5.85245902 L37.719403,5.85245902 L37.719403,28.3442623 L30.8507463,28.3442623 L30.8507463,29.204918 L38.5925373,29.204918 L38.5925373,0.401639344 L0.465671642,0.401639344 Z M1.33880597,4.99180328 L1.33880597,1.26229508 L37.719403,1.26229508 L37.719403,4.99180328 L1.33880597,4.99180328 Z" id="Shape" fill="#000000"></path>
                    <rect id="Rectangle-path" fill="#000000" x="30.3268657" y="2.69672131" width="1" height="1"></rect>
                    <rect id="Rectangle-path" fill="#000000" x="32.538806" y="2.69672131" width="1" height="1"></rect>
                    <rect id="Rectangle-path" fill="#000000" x="34.7507463" y="2.69672131" width="1" height="1"></rect>
                    <rect id="Rectangle-path" fill="#000000" x="3.9" y="2.69672131" width="23.9820896" height="1"></rect>
                    <polygon id="Shape" fill="#30D6C7" points="18.0447761 26.1639344 16.4731343 24.6147541 15.8910448 25.2459016 18.0447761 27.4262295 23.1089552 22.4344262 22.5268657 21.8032787"></polygon>
                    <path d="M19.5,17.7295082 C15.7164179,17.7295082 12.6313433,20.7704918 12.6313433,24.5 C12.6313433,28.2295082 15.7164179,31.2131148 19.5,31.2131148 C23.2835821,31.2131148 26.3686567,28.1721311 26.3686567,24.442623 C26.3686567,20.7131148 23.2835821,17.7295082 19.5,17.7295082 Z M19.5,30.352459 C16.1820896,30.352459 13.5044776,27.7131148 13.5044776,24.442623 C13.5044776,21.1721311 16.1820896,18.5327869 19.5,18.5327869 C22.8179104,18.5327869 25.4955224,21.2295082 25.4955224,24.442623 C25.4955224,27.7131148 22.8179104,30.352459 19.5,30.352459 Z" id="Shape" fill="#30D6C7"></path>
                    <path d="M9.19701493,34.5983607 L29.8029851,34.5983607 L29.8029851,14.3442623 L9.19701493,14.3442623 L9.19701493,34.5983607 Z M10.0701493,15.204918 L28.9298507,15.204918 L28.9298507,33.795082 L10.0701493,33.795082 L10.0701493,15.204918 Z" id="Shape" fill="#000000"></path>
                    <rect id="Rectangle-path" fill="#000000" x="3.60895522" y="8.03278689" width="31.7820896" height="1"></rect>
                    <rect id="Rectangle-path" fill="#000000" x="12.3985075" y="10.6147541" width="22.9925373" height="1"></rect>
                </g>
            </g>
        </g>
    </g>
</svg>