<?xml version="1.0" encoding="UTF-8"?>
<svg width="150px" height="121px" viewBox="0 0 150 121" version="1.1" xmlns="http://www.w3.org/2000/svg" xmlns:xlink="http://www.w3.org/1999/xlink">
    <!-- Generator: Sketch 44.1 (41455) - http://www.bohemiancoding.com/sketch -->
    <title>noun_1113280_cc</title>
    <desc>Created with Sketch.</desc>
    <defs></defs>
    <g id="Page-1" stroke="none" stroke-width="1" fill="none" fill-rule="evenodd">
        <g id="What-we-do" transform="translate(-148.000000, -170.000000)" fill-rule="nonzero">
            <g id="noun_1113280_cc" transform="translate(149.000000, 170.000000)">
                <path d="M121.48029,27.4005188 L118.326629,28.6052792 C117.125235,26.7981385 115.623492,25.442783 113.971574,24.2380226 L115.473317,20.6237412 C115.623492,20.3225511 115.623492,20.021361 115.473317,19.8707659 C115.323143,19.5695758 115.172969,19.4189808 114.87262,19.2683857 L110.067042,17.1600549 C109.466345,16.8588648 108.865648,17.1600549 108.715473,17.7624352 L107.063556,21.3767165 C105.261464,21.0755264 103.309198,21.0755264 101.507106,21.3767165 L100.155538,17.9130302 C100.005363,17.31065 99.2544918,17.1600549 98.8039689,17.31065 L93.8482167,19.2683857 C93.2475194,19.4189808 93.0973451,20.1719561 93.2475194,20.6237412 L94.5990882,23.9368325 C92.9471708,24.9909979 91.595602,26.3463534 90.3942076,27.8523039 L86.3395012,26.1957583 C85.738804,25.8945682 85.1381067,26.1957583 84.9879324,26.7981385 L82.8854921,31.7677754 C82.7353178,32.0689655 82.7353178,32.3701556 82.8854921,32.5207507 C83.0356664,32.6713457 83.1858407,32.9725359 83.4861893,33.1231309 L87.3907214,34.7796765 C86.9401984,36.8880073 86.9401984,38.9963381 87.2405471,41.1046689 L84.0868866,42.3094294 C83.4861893,42.4600244 83.336015,43.2129997 83.4861893,43.6647849 L85.4384553,48.6344217 C85.5886297,49.236802 86.3395012,49.387397 86.7900241,49.236802 L89.9436846,48.0320415 C90.9949048,49.6885871 92.3464736,51.0439426 93.8482167,52.098108 L92.3464736,55.5617943 C92.1962993,55.8629844 92.1962993,56.1641745 92.3464736,56.3147696 C92.4966479,56.6159597 92.6468222,56.7665548 92.9471708,56.9171498 L97.902923,59.0254806 C98.2032717,59.1760757 98.5036203,59.1760757 98.6537946,59.0254806 C98.9541432,58.8748856 99.1043175,58.7242905 99.2544918,58.4231004 L100.756235,54.9594141 C102.858675,55.4111993 104.961116,55.4111993 107.063556,55.1100092 L108.26495,57.9713152 C108.415125,58.5736955 109.165996,58.7242905 109.616519,58.5736955 L114.572271,56.6159597 C115.172969,56.4653647 115.323143,55.7123894 115.172969,55.2606042 L113.971574,52.2487031 C115.623492,51.0439426 117.125235,49.5379921 118.326629,47.8814464 L121.179941,49.0862069 C121.48029,49.236802 121.780638,49.236802 121.930813,49.0862069 C122.231161,48.9356118 122.381335,48.7850168 122.53151,48.4838267 L124.63395,43.5141898 C124.784124,43.2129997 124.784124,42.9118096 124.63395,42.7612145 C124.483776,42.4600244 124.333602,42.3094294 124.033253,42.1588343 L121.029767,40.8034788 C121.330115,38.9963381 121.330115,37.0386024 121.029767,35.0808666 L124.183427,33.8761062 C124.784124,33.7255111 124.934299,32.9725359 124.784124,32.5207507 L122.831858,27.5511138 C122.681684,27.5511138 121.930813,27.2499237 121.48029,27.4005188 Z M107.964602,48.3332316 C102.558327,50.4415624 96.4011799,47.8814464 94.1485653,42.4600244 C92.046125,37.0386024 94.5990882,30.8642051 100.005363,28.6052792 C105.411639,26.3463534 111.568785,29.0570644 113.8214,34.4784864 C116.074014,39.8999085 113.370877,46.0743058 107.964602,48.3332316 Z" id="Shape" stroke="#FFFFFF"></path>
                <path d="M135.746849,82.6689045 L106.16251,91.1022276 L106.16251,91.2528227 C106.913382,94.2647238 106.462859,97.276625 104.961116,100.137931 C103.309198,102.999237 100.756235,105.107568 97.4524001,105.860543 C94.2987396,106.764114 90.9949048,106.312328 88.1415929,104.806378 L71.171896,95.1682942 L72.8238134,92.3069881 L89.7935103,101.945072 C91.8959507,103.149832 94.2987396,103.451022 96.5513543,102.698047 C98.8039689,102.095667 100.756235,100.589716 101.807455,98.4813854 C102.408152,97.42722 102.708501,96.2224596 102.858675,95.0176991 C103.309198,92.005798 101.957629,89.1444919 99.4046661,87.4879463 L58.2569053,64.4469027 C58.2569053,64.4469027 53.9018504,61.5855966 48.0450523,63.2421422 C48.0450523,63.2421422 48.0450523,63.2421422 47.894878,63.2421422 C46.8436578,63.3927373 2.39206222,76.1933171 0.439796192,76.7956973 L0.289621883,76.7956973 L9.45025476,108.721849 L39.184768,100.137931 C42.1882542,101.945072 64.864575,116.101007 67.7178868,117.606958 C72.673639,120.468264 78.98096,118.962313 80.3325288,118.510528 C80.4827031,118.510528 141.00295,101.192096 141.00295,101.192096 C145.207831,99.987336 148.66184,94.4153189 147.009922,88.6927067 C145.658353,84.1748551 140.702601,81.313549 135.746849,82.6689045 Z" id="Shape" stroke="#FFFFFF" stroke-width="2"></path>
                <path d="M129.289354,55.7123894 C133.043711,50.4415624 135.146152,44.11657 135.146152,37.4903875 C135.296326,29.0570644 131.992491,21.0755264 126.135693,15.0517241 C120.278895,9.02792188 112.319657,5.71483064 103.909895,5.71483064 C86.6398498,5.71483064 72.5234647,19.8707659 72.5234647,37.1891974 C72.5234647,54.5076289 86.6398498,68.6635642 103.909895,68.6635642 C106.913382,68.6635642 109.766693,68.2117791 112.620005,67.4588038 L112.019308,64.4469027 C109.316171,65.1998779 106.613033,65.6516631 103.909895,65.6516631 C88.1415929,65.6516631 75.5269509,53.0016784 75.5269509,37.3397925 C75.5269509,21.6779066 88.1415929,9.02792188 103.759721,9.02792188 C119.377849,9.02792188 131.992491,21.6779066 131.992491,37.3397925 C131.992491,43.3635948 130.1904,49.0862069 126.586216,54.0558438 L129.289354,55.7123894 Z" id="Shape" fill="#FFFFFF"></path>
                <path d="M130.340574,11.1362527 C123.282381,4.05828502 113.8214,0.142813549 103.759721,0.142813549 C100.305712,0.142813549 96.8517029,0.594598718 93.6980424,1.49816906 L94.2987396,4.35947513 C97.4524001,3.45590479 100.606061,3.00411962 103.759721,3.00411962 C122.831858,3.00411962 138.299812,18.5154104 138.299812,37.6409826 C138.299812,56.7665548 122.831858,72.2778456 103.759721,72.2778456 C84.6875838,72.1272505 69.2196299,56.6159597 69.2196299,37.6409826 C69.2196299,30.4124199 71.4722446,23.4850473 75.5269509,17.6118401 L72.9739877,16.1058895 C68.4687584,22.4308819 66.2161437,29.8100397 66.2161437,37.6409826 C66.2161437,58.2725053 83.0356664,75.1391517 103.609547,75.1391517 C124.333602,75.1391517 141.153124,58.2725053 141.153124,37.6409826 C141.303298,27.5511138 137.398766,18.2142203 130.340574,11.1362527 Z" id="Shape" fill="#FFFFFF"></path>
            </g>
        </g>
    </g>
</svg>