<?xml version="1.0" encoding="UTF-8"?>
<svg width="59px" height="48px" viewBox="0 0 59 48" version="1.1" xmlns="http://www.w3.org/2000/svg" xmlns:xlink="http://www.w3.org/1999/xlink">
    <!-- Generator: Sketch 44.1 (41455) - http://www.bohemiancoding.com/sketch -->
    <title>what_we_do_icon</title>
    <desc>Created with Sketch.</desc>
    <defs></defs>
    <g id="Page-1" stroke="none" stroke-width="1" fill="none" fill-rule="evenodd">
        <g id="menu" transform="translate(-836.000000, -246.000000)" fill-rule="nonzero">
            <g id="what_we_do_icon" transform="translate(836.000000, 246.000000)">
                <g id="noun_1113280_cc">
                    <path d="M47.8060606,11.10375 L46.5757576,11.57375 C46.1070707,10.86875 45.5212121,10.34 44.8767677,9.87 L45.4626263,8.46 C45.5212121,8.3425 45.5212121,8.225 45.4626263,8.16625 C45.4040404,8.04875 45.3454545,7.99 45.2282828,7.93125 L43.3535354,7.10875 C43.1191919,6.99125 42.8848485,7.10875 42.8262626,7.34375 L42.1818182,8.75375 C41.4787879,8.63625 40.7171717,8.63625 40.0141414,8.75375 L39.4868687,7.4025 C39.4282828,7.1675 39.1353535,7.10875 38.959596,7.1675 L37.0262626,7.93125 C36.7919192,7.99 36.7333333,8.28375 36.7919192,8.46 L37.3191919,9.7525 C36.6747475,10.16375 36.1474747,10.6925 35.6787879,11.28 L34.0969697,10.63375 C33.8626263,10.51625 33.6282828,10.63375 33.569697,10.86875 L32.7494949,12.8075 C32.6909091,12.925 32.6909091,13.0425 32.7494949,13.10125 C32.8080808,13.16 32.8666667,13.2775 32.9838384,13.33625 L34.5070707,13.9825 C34.3313131,14.805 34.3313131,15.6275 34.4484848,16.45 L33.2181818,16.92 C32.9838384,16.97875 32.9252525,17.2725 32.9838384,17.44875 L33.7454545,19.3875 C33.8040404,19.6225 34.0969697,19.68125 34.2727273,19.6225 L35.5030303,19.1525 C35.9131313,19.79875 36.440404,20.3275 37.0262626,20.73875 L36.440404,22.09 C36.3818182,22.2075 36.3818182,22.325 36.440404,22.38375 C36.4989899,22.50125 36.5575758,22.56 36.6747475,22.61875 L38.6080808,23.44125 C38.7252525,23.5 38.8424242,23.5 38.9010101,23.44125 C39.0181818,23.3825 39.0767677,23.32375 39.1353535,23.20625 L39.7212121,21.855 C40.5414141,22.03125 41.3616162,22.03125 42.1818182,21.91375 L42.6505051,23.03 C42.7090909,23.265 43.0020202,23.32375 43.1777778,23.265 L45.1111111,22.50125 C45.3454545,22.4425 45.4040404,22.14875 45.3454545,21.9725 L44.8767677,20.7975 C45.5212121,20.3275 46.1070707,19.74 46.5757576,19.09375 L47.6888889,19.56375 C47.8060606,19.6225 47.9232323,19.6225 47.9818182,19.56375 C48.0989899,19.505 48.1575758,19.44625 48.2161616,19.32875 L49.0363636,17.39 C49.0949495,17.2725 49.0949495,17.155 49.0363636,17.09625 C48.9777778,16.97875 48.9191919,16.92 48.8020202,16.86125 L47.630303,16.3325 C47.7474747,15.6275 47.7474747,14.86375 47.630303,14.1 L48.8606061,13.63 C49.0949495,13.57125 49.1535354,13.2775 49.0949495,13.10125 L48.3333333,11.1625 C48.2747475,11.1625 47.9818182,11.045 47.8060606,11.10375 Z M42.5333333,19.27 C40.4242424,20.0925 38.0222222,19.09375 37.1434343,16.97875 C36.3232323,14.86375 37.3191919,12.455 39.4282828,11.57375 C41.5373737,10.6925 43.9393939,11.75 44.8181818,13.865 C45.6969697,15.98 44.6424242,18.38875 42.5333333,19.27 Z" id="Shape" stroke="#30D6C7"></path>
                    <path d="M53.3717172,32.665 L41.830303,35.955 L41.830303,36.01375 C42.1232323,37.18875 41.9474747,38.36375 41.3616162,39.48 C40.7171717,40.59625 39.7212121,41.41875 38.4323232,41.7125 C37.2020202,42.065 35.9131313,41.88875 34.8,41.30125 L28.179798,37.54125 L28.8242424,36.425 L35.4444444,40.185 C36.2646465,40.655 37.2020202,40.7725 38.0808081,40.47875 C38.959596,40.24375 39.7212121,39.65625 40.1313131,38.83375 C40.3656566,38.4225 40.4828283,37.9525 40.5414141,37.4825 C40.7171717,36.3075 40.189899,35.19125 39.1939394,34.545 L23.1414141,25.55625 C23.1414141,25.55625 21.4424242,24.44 19.1575758,25.08625 C19.1575758,25.08625 19.1575758,25.08625 19.0989899,25.08625 C18.6888889,25.145 1.34747475,30.13875 0.585858586,30.37375 L0.527272727,30.37375 L4.1010101,42.82875 L15.7010101,39.48 C16.8727273,40.185 25.7191919,45.7075 26.8323232,46.295 C28.7656566,47.41125 31.2262626,46.82375 31.7535354,46.6475 C31.8121212,46.6475 55.4222222,39.89125 55.4222222,39.89125 C57.0626263,39.42125 58.410101,37.2475 57.7656566,35.015 C57.2383838,33.2525 55.3050505,32.13625 53.3717172,32.665 Z" id="Shape" stroke="#30D6C7"></path>
                    <path d="M50.8525253,22.14875 C52.3171717,20.0925 53.1373737,17.625 53.1373737,15.04 C53.1959596,11.75 51.9070707,8.63625 49.6222222,6.28625 C47.3373737,3.93625 44.2323232,2.64375 40.9515152,2.64375 C34.2141414,2.64375 28.7070707,8.16625 28.7070707,14.9225 C28.7070707,21.67875 34.2141414,27.20125 40.9515152,27.20125 C42.1232323,27.20125 43.2363636,27.025 44.3494949,26.73125 L44.1151515,25.55625 C43.0606061,25.85 42.0060606,26.02625 40.9515152,26.02625 C34.8,26.02625 29.8787879,21.09125 29.8787879,14.98125 C29.8787879,8.87125 34.8,3.93625 40.8929293,3.93625 C46.9858586,3.93625 51.9070707,8.87125 51.9070707,14.98125 C51.9070707,17.33125 51.2040404,19.56375 49.7979798,21.5025 L50.8525253,22.14875 Z" id="Shape" fill="#30D6C7"></path>
                    <path d="M51.2626263,4.75875 C48.5090909,1.9975 44.8181818,0.47 40.8929293,0.47 C39.5454545,0.47 38.1979798,0.64625 36.9676768,0.99875 L37.2020202,2.115 C38.4323232,1.7625 39.6626263,1.58625 40.8929293,1.58625 C48.3333333,1.58625 54.3676768,7.6375 54.3676768,15.09875 C54.3676768,22.56 48.3333333,28.61125 40.8929293,28.61125 C33.4525253,28.5525 27.4181818,22.50125 27.4181818,15.09875 C27.4181818,12.27875 28.2969697,9.57625 29.8787879,7.285 L28.8828283,6.6975 C27.1252525,9.165 26.2464646,12.04375 26.2464646,15.09875 C26.2464646,23.1475 32.8080808,29.7275 40.8343434,29.7275 C48.9191919,29.7275 55.4808081,23.1475 55.4808081,15.09875 C55.5393939,11.1625 54.0161616,7.52 51.2626263,4.75875 Z" id="Shape" fill="#30D6C7"></path>
                </g>
            </g>
        </g>
    </g>
</svg>