<?xml version="1.0" encoding="UTF-8"?>
<svg width="44px" height="45px" viewBox="0 0 44 45" version="1.1" xmlns="http://www.w3.org/2000/svg" xmlns:xlink="http://www.w3.org/1999/xlink">
    <!-- Generator: Sketch 44.1 (41455) - http://www.bohemiancoding.com/sketch -->
    <title>who_we_are_icon</title>
    <desc>Created with Sketch.</desc>
    <defs></defs>
    <g id="Page-1" stroke="none" stroke-width="1" fill="none" fill-rule="evenodd">
        <g id="menu" transform="translate(-557.000000, -245.000000)" stroke="#543E6A" fill-rule="nonzero" stroke-width="1.8" fill="#30D6C7">
            <g id="who_we_are_icon" transform="translate(558.000000, 246.000000)">
                <path d="M31.866,13.7753267 C28.6075714,13.7753267 25.7215714,15.3778218 23.9597143,17.8305248 C23.9391429,17.8126436 23.9211429,17.7947624 23.901,17.7773069 C22.6517143,16.7546733 21.2421429,15.9568317 19.7387143,15.4063465 C21.6325714,13.8004455 22.8351429,11.4124554 22.8351429,8.75113861 C22.8347143,3.92619802 18.8832857,0 14.0258571,0 C9.16842857,0 5.217,3.92619802 5.217,8.75156436 C5.217,11.6427822 6.636,14.2100099 8.81828571,15.8048416 C7.27885714,16.5030594 5.862,17.4763069 4.62985714,18.7003168 C1.91914286,21.3931386 0.426857143,24.9719307 0.426857143,28.780198 C0.426857143,28.8193663 0.428142857,28.8576832 0.432,28.896 C0.428142857,28.9343168 0.426857143,28.9730594 0.426857143,29.0113762 L0.426857143,41.136099 C0.426857143,41.9433069 1.08471429,42.5976733 1.89814286,42.5976733 L26.1544286,42.5976733 C26.967,42.5976733 27.6252857,41.9433069 27.6252857,41.136099 C27.6252857,40.3288911 26.9674286,39.6753762 26.1544286,39.6753762 L3.36814286,39.6753762 L3.36814286,29.011802 C3.36814286,28.9730594 3.36642857,28.9343168 3.36342857,28.8964257 C3.36642857,28.8576832 3.36814286,28.8193663 3.36814286,28.7806238 C3.36814286,22.8857921 7.92214286,18.0289208 13.7181429,17.4975941 C13.8197143,17.5014257 13.923,17.5031287 14.0254286,17.5031287 C14.3515714,17.5031287 14.6742857,17.4852475 14.991,17.4503366 C17.5581429,17.4988713 20.0494286,18.4112376 22.0285714,20.0324653 C22.2197143,20.1899901 22.4395714,20.2896139 22.6667143,20.3364455 C22.3371429,21.3054356 22.1575714,22.3416931 22.1575714,23.420099 C22.1575714,24.2264554 22.8167143,24.8808218 23.6284286,24.8808218 C24.441,24.8808218 25.0992857,24.2264554 25.0992857,23.420099 C25.0992857,19.7140099 28.1352857,16.6984752 31.866,16.6984752 C35.5975714,16.6984752 38.6318571,19.7140099 38.6318571,23.420099 C38.6318571,27.1266139 35.5975714,30.141297 31.866,30.141297 C31.0534286,30.141297 30.3951429,30.7956634 30.3951429,31.6028713 L30.3951429,35.6925545 C30.3951429,36.4997624 31.0534286,37.153703 31.866,37.153703 C32.6785714,37.153703 33.3368571,36.4997624 33.3368571,35.6925545 L33.3368571,32.952901 C37.9945714,32.2470198 41.5735714,28.2416337 41.5735714,23.4196733 C41.5731429,18.1017228 37.2192857,13.7753267 31.866,13.7753267 Z M8.15828571,8.75156436 C8.15828571,5.53763366 10.7914286,2.92229703 14.0258571,2.92229703 C17.2615714,2.92229703 19.8942857,5.53805941 19.8942857,8.75156436 C19.8942857,11.6955743 17.6854286,14.1363564 14.8268571,14.5254851 C14.8105714,14.5254851 14.7921429,14.5250594 14.7754286,14.5250594 C14.3995714,14.5250594 14.0254286,14.5395347 13.6542857,14.5684851 C10.5917143,14.3773267 8.15828571,11.841604 8.15828571,8.75156436 Z" id="Shape"></path>
                <ellipse id="Oval" cx="31.866" cy="41.0922475" rx="1.908" ry="1.89540594"></ellipse>
            </g>
        </g>
    </g>
</svg>