<?xml version="1.0" encoding="UTF-8"?>
<svg width="37px" height="47px" viewBox="0 0 37 47" version="1.1" xmlns="http://www.w3.org/2000/svg" xmlns:xlink="http://www.w3.org/1999/xlink">
    <!-- Generator: Sketch 44.1 (41455) - http://www.bohemiancoding.com/sketch -->
    <title>Abstracting/Title search_icon Copy 2</title>
    <desc>Created with Sketch.</desc>
    <defs></defs>
    <g id="Page-1" stroke="none" stroke-width="1" fill="none" fill-rule="evenodd">
        <g id="services" transform="translate(-782.000000, -275.000000)" fill="#232838">
            <g id="Group-7">
                <g id="Group-4-Copy" transform="translate(782.000000, 275.000000)">
                    <g id="Abstracting/Title-search_icon-Copy-2">
                        <g id="Group" transform="translate(0.000000, 0.134353)">
                            <path d="M9.57911389,0.188756437 C9.47935589,0.210337451 9.38778885,0.263268503 9.31599758,0.340852896 L9.28310804,0.357725463 C9.27751164,0.363218674 9.27202871,0.368844235 9.26666327,0.374598031 L0.271374477,8.28361389 C0.213068265,8.3231337 0.162737703,8.37485633 0.123371553,8.43571035 C0.114094072,8.44841886 0.0987017683,8.45598988 0.0904820149,8.46950956 C0.0904023196,8.47513343 0.0904023196,8.48075827 0.0904820149,8.48638213 C0.0871667494,8.49222264 0.077173592,8.49736012 0.0740372456,8.5032547 C0.0309679156,8.58584557 0.00831916092,8.67894631 0.00825816846,8.7736484 C0.00827079804,8.77986746 0.0080539902,8.78435599 0.00825816846,8.79052097 L0.00825816846,39.3111888 C0.0145743145,39.6099867 0.240265466,39.8494019 0.518046016,39.8519762 L3.5767731,39.8519762 L3.5767731,42.6573109 C3.57454413,42.9627168 3.80270241,43.2123247 4.08656095,43.2150249 L7.1123985,43.2150249 L7.1123985,46.1555564 C7.11019742,46.4609414 7.33834758,46.7105162 7.62218634,46.7132164 L36.301864,46.7132164 C36.4410163,46.7166805 36.5755327,46.6593202 36.6746974,46.5542333 C36.7738621,46.4491464 36.8292077,46.3053058 36.8280966,46.1555564 L36.8280966,7.59064891 C36.8292146,7.4408949 36.7738719,7.29704727 36.6747065,7.19195443 C36.575541,7.0868616 36.4410207,7.02949762 36.301864,7.03296189 L33.2924712,7.03296189 L33.2924712,4.09243035 C33.2935892,3.94267634 33.2382465,3.79882871 33.1390811,3.69373588 C33.0399157,3.58864304 32.9053953,3.53127907 32.7662386,3.53474334 L29.7239563,3.53474334 L29.7239563,0.72940865 C29.720885,0.582595873 29.6637029,0.443116431 29.5650022,0.341685869 C29.4663016,0.240255306 29.3341767,0.185191818 29.1977236,0.188621241 L9.6777825,0.188621241 C9.64496896,0.185219341 9.61192743,0.185219341 9.57911389,0.188621241 L9.57911389,0.188756437 Z M10.1875704,1.28723086 L28.6879358,1.28723086 L28.6879358,3.53487853 L13.2462974,3.53487853 C13.1252969,3.5369134 13.0088378,3.58478548 12.9174021,3.67007539 L12.8845125,3.68694795 C12.8726806,3.70316618 12.8617003,3.72008314 12.851623,3.73761973 L10.1875704,6.08666504 L10.1875704,1.28717678 L10.1875704,1.28723086 Z M9.16799466,1.8956167 L9.16799466,6.98239827 L7.73729973,8.23296915 L1.96518571,8.23296915 L9.16799466,1.8956167 Z M13.7725301,4.65025256 L32.2564507,4.65025256 L32.2564507,7.03309709 L16.8148124,7.03309709 C16.803852,7.03271987 16.7928832,7.03271987 16.7819228,7.03309709 C16.7764416,7.0330028 16.7709593,7.0330028 16.7654781,7.03309709 C16.7321576,7.03526315 16.6991122,7.04091399 16.6668094,7.04996965 C16.639021,7.05318105 16.611522,7.05882392 16.5845856,7.06684222 C16.5789892,7.07233543 16.5735063,7.07796099 16.5681408,7.08371479 C16.5511135,7.09396532 16.5346421,7.10524996 16.5188065,7.117514 C16.5076616,7.1227185 16.4966915,7.12834622 16.485917,7.13438657 C16.474772,7.13959107 16.463802,7.14521879 16.4530274,7.15125914 C16.4529478,7.156883 16.4529478,7.16250784 16.4530274,7.1681317 L16.4201379,7.18500427 C16.4200582,7.19062813 16.4200582,7.19625298 16.4201379,7.20187684 L16.3872484,7.2187494 C16.381652,7.22424261 16.376169,7.22986818 16.3708036,7.23562197 L13.7725301,9.53396846 L13.7725301,4.64998217 L13.7725301,4.65025256 Z M12.7365096,5.2586384 L12.7365096,10.429918 L11.4373728,11.5790912 L5.53370065,11.5790912 L12.7365096,5.2586384 Z M17.2917107,8.14847112 L35.7920761,8.14847112 L35.7920761,45.6148772 L8.14841896,45.6148772 L8.14841896,16.1926838 L16.7819228,16.1926838 C17.0657715,16.1899836 17.2939257,15.9403923 17.2917107,15.6349968 L17.2917107,8.14847112 Z M16.272135,8.75685695 L16.272135,15.0773098 L9.06932604,15.0773098 L16.272135,8.75685695 Z M1.04427863,9.33144358 L6.48749726,9.33144358 L3.88922372,11.6128905 C3.7303209,11.6905655 3.618871,11.8496384 3.59321787,12.0353806 C3.59127081,12.0469535 3.57802554,12.0574988 3.5767731,12.0691798 C3.57549277,12.0916916 3.57549277,12.1142665 3.5767731,12.1367783 C3.57680152,12.1424025 3.57658892,12.1480807 3.5767731,12.1536508 L3.5767731,38.7536369 L1.04427863,38.7536369 L1.04427863,9.33141654 L1.04427863,9.33144358 Z M4.61279357,12.6944653 L10.1711256,12.6944653 L7.42484911,15.111109 C7.40782181,15.1213595 7.39135041,15.1326442 7.37551481,15.1449082 C7.33277919,15.1725268 7.29400253,15.2066832 7.26040142,15.2463059 C7.23591612,15.2720465 7.21388049,15.3003529 7.19462234,15.3308039 C7.17496449,15.3626778 7.15843133,15.3966587 7.14528804,15.4322015 C7.13904792,15.448796 7.13355988,15.4657065 7.12884327,15.4828733 C7.12044568,15.5160495 7.11494029,15.5499955 7.1123985,15.584271 C7.11167937,15.6011527 7.11167937,15.618061 7.1123985,15.6349427 C7.11111816,15.6574545 7.11111816,15.6800294 7.1123985,15.7025412 L7.1123985,42.1165775 L4.61279357,42.1165775 L4.61279357,12.6944112 L4.61279357,12.6944653 Z" id="Shape"></path>
                            <path d="M13.0356402,38.8699062 C12.8458618,38.8671481 12.6693395,38.9696141 12.5736671,39.138068 C12.4779946,39.306522 12.4779946,39.5148653 12.5736671,39.6833193 C12.6693395,39.8517732 12.8458618,39.9542392 13.0356402,39.951481 L32.440961,39.951481 C32.6307394,39.9542392 32.8072618,39.8517732 32.9029342,39.6833193 C32.9986066,39.5148653 32.9986066,39.306522 32.9029342,39.138068 C32.8072618,38.9696141 32.6307394,38.8671481 32.440961,38.8699062 L13.0356402,38.8699062 Z" id="Shape"></path>
                            <path d="M13.0356402,34.5664282 C12.8458618,34.56367 12.6693395,34.666136 12.5736671,34.83459 C12.4779946,35.0030439 12.4779946,35.2113873 12.5736671,35.3798412 C12.6693395,35.5482952 12.8458618,35.6507612 13.0356402,35.648003 L32.3743595,35.648003 C32.5641378,35.6507612 32.7406602,35.5482952 32.8363326,35.3798412 C32.932005,35.2113873 32.932005,35.0030439 32.8363326,34.83459 C32.7406602,34.666136 32.5641378,34.56367 32.3743595,34.5664282 L13.0356402,34.5664282 Z" id="Shape"></path>
                            <path d="M12.963941,25.7391012 C12.7741626,25.736343 12.5976403,25.8388091 12.5019679,26.007263 C12.4062954,26.175717 12.4062954,26.3840603 12.5019679,26.5525142 C12.5976403,26.7209682 12.7741626,26.8234342 12.963941,26.820676 L32.5075626,26.820676 C32.697341,26.8234342 32.8738633,26.7209682 32.9695358,26.5525142 C33.0652082,26.3840603 33.0652082,26.175717 32.9695358,26.007263 C32.8738633,25.8388091 32.697341,25.736343 32.5075626,25.7391012 L12.963941,25.7391012 L12.963941,25.7391012 Z" id="Shape"></path>
                            <path d="M13.0305421,30.1196415 C12.8407637,30.1168833 12.6642413,30.2193493 12.5685689,30.3878033 C12.4728965,30.5562572 12.4728965,30.7646005 12.5685689,30.9330545 C12.6642413,31.1015085 12.8407637,31.2039745 13.0305421,31.2012163 L32.440961,31.2012163 C32.6307394,31.2039745 32.8072618,31.1015085 32.9029342,30.9330545 C32.9986066,30.7646005 32.9986066,30.5562572 32.9029342,30.3878033 C32.8072618,30.2193493 32.6307394,30.1168833 32.440961,30.1196415 L13.0305421,30.1196415 L13.0305421,30.1196415 Z" id="Shape"></path>
                            <path d="M20.0366716,12.6082746 C19.8468932,12.6055164 19.6703709,12.7079824 19.5746984,12.8764364 C19.479026,13.0448903 19.479026,13.2532337 19.5746984,13.4216876 C19.6703709,13.5901416 19.8468932,13.6926076 20.0366716,13.6898494 L32.440961,13.6898494 C32.6307394,13.6926076 32.8072618,13.5901416 32.9029342,13.4216876 C32.9986066,13.2532337 32.9986066,13.0448903 32.9029342,12.8764364 C32.8072618,12.7079824 32.6307394,12.6055164 32.440961,12.6082746 L20.0366716,12.6082746 L20.0366716,12.6082746 Z" id="Shape"></path>
                            <path d="M19.9700705,16.9171713 C19.7802921,16.9144131 19.6037698,17.0168792 19.5080974,17.1853331 C19.4124249,17.3537871 19.4124249,17.5621304 19.5080974,17.7305843 C19.6037698,17.8990383 19.7802921,18.0015043 19.9700705,17.9987461 L32.3743595,17.9987461 C32.5641378,18.0015043 32.7406602,17.8990383 32.8363326,17.7305843 C32.932005,17.5621304 32.932005,17.3537871 32.8363326,17.1853331 C32.7406602,17.0168792 32.5641378,16.9144131 32.3743595,16.9171713 L19.9700705,16.9171713 Z" id="Shape"></path>
                            <path d="M12.963941,21.3639634 C12.7742066,21.3612757 12.5977549,21.4637579 12.5021246,21.6321837 C12.4064944,21.8006095 12.4064944,22.0088976 12.5021246,22.1773234 C12.5977549,22.3457492 12.7742066,22.4482314 12.963941,22.4455437 L32.5739995,22.4455437 C32.7637339,22.4482314 32.9401856,22.3457492 33.0358159,22.1773234 C33.1314461,22.0088976 33.1314461,21.8006095 33.0358159,21.6321837 C32.9401856,21.4637579 32.7637339,21.3612757 32.5739995,21.3639634 L12.963941,21.3639634 Z" id="Shape"></path>
                        </g>
                    </g>
                </g>
            </g>
        </g>
    </g>
</svg>