<?xml version="1.0" encoding="UTF-8"?>
<svg width="109px" height="87px" viewBox="0 0 109 87" version="1.1" xmlns="http://www.w3.org/2000/svg" xmlns:xlink="http://www.w3.org/1999/xlink">
    <!-- Generator: Sketch 46.2 (44496) - http://www.bohemiancoding.com/sketch -->
    <title>sign_icon</title>
    <desc>Created with Sketch.</desc>
    <defs></defs>
    <g id="Page-1" stroke="none" stroke-width="1" fill="none" fill-rule="evenodd">
        <g id="home_Banner_3" transform="translate(-577.000000, -1274.000000)" stroke-width="0.3" stroke="#FFFFFF" fill="#FFFFFF" fill-rule="nonzero">
            <g id="sign_icon" transform="translate(577.454746, 1274.519427)">
                <g id="Group">
                    <path d="M22.2278598,78.9645248 C26.3928953,79.6658776 29.3954007,76.811479 32.041859,74.2844581 C33.8244846,72.5818554 35.5186958,70.9557204 37.433943,70.3822121 C37.5151887,71.2233576 37.433943,72.2974909 37.3622557,73.3453383 C37.1842321,75.7743849 37.0050137,78.2846785 38.4196442,79.7746052 C40.9119746,82.4067693 43.0733485,80.3947111 44.3601365,79.1939281 C45.2012682,78.4077438 45.9946083,77.6693519 46.8022858,77.6693519 C46.8190129,77.6693519 46.8393243,77.6693519 46.8620253,77.6693519 C47.3913169,77.6944429 47.4044596,77.7207286 47.6039894,78.2416653 C47.8130775,78.7805242 48.1655404,79.6730465 49.3328495,80.0207359 C50.3436412,80.3134641 51.3365111,80.1653077 52.2158761,80.038658 C52.9542558,79.9275408 53.6460388,79.8343457 54.2625501,79.9789175 C55.2984324,80.2417755 55.9651248,80.6838548 56.8062565,81.2442202 C57.3486908,81.6098318 57.9233845,81.9873914 58.6354789,82.3494185 C58.7931911,82.4294707 58.9616563,82.4677046 59.1277321,82.4677046 C59.5232073,82.4677046 59.9043451,82.2514442 60.0967062,81.8738845 C60.3691181,81.3386101 60.1564456,80.6850496 59.6223748,80.4126332 C58.9939157,80.0936192 58.4921042,79.7542935 58.0070197,79.4364743 C57.1157069,78.8426542 56.1945244,78.2297173 54.7966209,77.8736642 C53.7607386,77.6179751 52.7762322,77.762547 51.8968673,77.8903915 C51.1453449,77.9967295 50.4953795,78.0947038 49.9433868,77.9334046 C49.8239079,77.89995 49.8035965,77.8903915 49.6327416,77.4578707 C49.3782515,76.8043102 48.9027254,75.5808258 46.9576084,75.4959944 C45.1367496,75.3693446 43.9180645,76.6334525 42.8726239,77.606027 C41.2250094,79.156889 40.8904684,79.232162 39.9991556,78.281094 C39.242854,77.4829617 39.395787,75.3681498 39.5272139,73.5042479 C39.6586407,71.7168137 39.781704,70.0261591 39.2846716,68.7274017 C39.1102324,68.2638159 38.5928886,67.9890098 38.1603749,68.0308281 C35.1017144,68.3450629 32.7802388,70.5697971 30.5376193,72.7192584 C28.0452889,75.1005126 25.6808009,77.3849873 22.5970497,76.8210375 C18.4654684,76.1077366 17.1750959,68.7907266 17.328029,62.7449934 C17.5096369,55.5140096 18.0329547,47.3785555 21.9984603,42.3842542 C24.4023763,39.3613875 26.9496671,38.0315652 29.3404404,38.520242 C32.444503,39.1570752 35.4338658,42.9278922 36.7756141,47.9006871 C36.9333263,48.482559 37.5187731,48.8302484 38.108999,48.670144 C38.6860822,48.5124292 39.0301815,47.91383 38.8736641,47.3367372 C37.2989319,41.5024852 33.7312911,37.2059522 29.7789281,36.3898977 C27.494491,35.9275066 24.012875,36.3528586 20.293496,41.0365097 C15.915788,46.5517478 15.3458736,55.1077746 15.1559021,62.6924218 C15.0650981,66.2051601 15.3160038,77.7709106 22.2278598,78.9645248 Z" id="Shape"></path>
                    <path d="M102.167626,83.2909279 L1.08725825,83.2909279 C0.488668817,83.2909279 0,83.7760204 0,84.3782041 C0,84.9803878 0.488668817,85.4654802 1.08725825,85.4654802 L102.167626,85.4654802 C102.767411,85.4654802 103.254885,84.9815826 103.254885,84.3782041 C103.254885,83.7748256 102.767411,83.2909279 102.167626,83.2909279 Z" id="Shape"></path>
                    <path d="M104.062562,1.31747599 C102.503362,0.467966836 100.715957,0.446460275 99.0384733,0.956643693 C96.9499816,1.58391839 95.0729677,3.03680606 94.1087727,4.81946101 L92.5412092,7.70731422 L90.5327684,6.63676541 L91.1313578,5.54948927 C91.4157177,5.02735776 91.220967,4.36065437 90.6809222,4.08106908 C90.4180686,3.92813353 90.1122025,3.91140621 89.8493489,3.99623764 C89.5864953,4.07270542 89.3523166,4.25192676 89.2041627,4.53151205 L77.3793332,26.3403597 C77.1069212,26.8756341 77.3028666,27.5291946 77.8285739,27.826702 C78.355476,28.1230146 79.0221684,27.9198971 79.3101126,27.376259 L87.2674093,12.6753298 L89.2507595,13.7530475 L80.0234018,30.7683216 L64.5341536,59.6229576 C64.4325965,59.7938153 64.3394029,60.0220238 64.2079761,60.2944402 L63.3369747,62.8465521 C61.9271234,67.4537354 60.3738973,75.1148503 61.9569931,77.7900276 L60.8948254,79.7769948 C60.5973229,80.3027108 60.8016318,80.970609 61.345261,81.245415 C61.8805266,81.5345588 62.5292971,81.3386101 62.8220205,80.8045305 L63.9272006,78.7399007 C64.168548,78.706446 64.3943632,78.6980824 64.6488533,78.6204198 C68.8604856,77.3551171 75.8081852,69.1778447 77.2694125,66.4596544 L82.2719953,57.1425342 L83.7403913,54.4123958 L92.7646348,37.6097976 L106.842837,11.660937 C108.252688,9.04669504 107.577632,3.19452084 104.062562,1.31747599 Z M88.3080707,10.7612459 L89.4968861,8.56518704 L91.493379,9.63573585 L90.3033688,11.8317947 L88.3080707,10.7612459 Z M75.3410226,65.4321187 C73.9574566,67.9925942 67.3705833,75.5127217 64.0120307,76.5223353 C63.8973309,76.5569847 63.8089165,76.5820757 63.7527614,76.586855 C62.5006222,74.3919909 64.9929527,63.36032 66.4589591,60.645714 L77.7664449,39.5884012 L86.6568719,44.3652474 L75.3410226,65.4321187 Z M87.4968088,42.7821255 L78.605187,38.0184223 L79.4976946,36.3707808 L88.3761737,41.1524061 L87.4968088,42.7821255 Z M104.932369,10.6214532 L90.8434136,36.5703139 L89.2292533,39.5812324 L80.3340471,34.799607 L81.9470126,31.810195 L91.7096358,13.818762 L96.0455261,5.85655517 C96.7074394,4.61275906 98.1256543,3.50397636 99.6621533,3.03800087 C100.902345,2.66402567 102.09116,2.73212978 103.029069,3.25067686 C104.031498,3.7763928 104.808111,5.02496814 105.160574,6.67260968 C105.539322,8.39671898 105.301559,9.93324328 104.932369,10.6214532 Z" id="Shape"></path>
                </g>
            </g>
        </g>
    </g>
</svg>