<?xml version="1.0" encoding="UTF-8"?>
<svg width="26px" height="26px" viewBox="0 0 26 26" version="1.1" xmlns="http://www.w3.org/2000/svg" xmlns:xlink="http://www.w3.org/1999/xlink">
    <!-- Generator: Sketch 44.1 (41455) - http://www.bohemiancoding.com/sketch -->
    <title>Attorneys</title>
    <desc>Created with Sketch.</desc>
    <defs></defs>
    <g id="Page-1" stroke="none" stroke-width="1" fill="none" fill-rule="evenodd">
        <g id="home_d3" transform="translate(-891.000000, -1019.000000)" stroke="#FFFFFF" stroke-width="0.4" fill="#1E7ED4" fill-rule="nonzero">
            <g id="Attorneys" transform="translate(892.000000, 1020.000000)">
                <path d="M23.9653953,11.960093 C23.9653953,18.559814 18.6156279,23.9073488 12.015907,23.9073488 C5.42344186,23.9073488 0.0761860465,18.559814 0.0761860465,11.960093 C0.0761860465,5.36539535 5.42344186,0.0200930233 12.015907,0.0200930233 C18.6156279,0.0200930233 23.9653953,5.36539535 23.9653953,11.960093 L23.9653953,11.960093 Z M22.5987907,11.960093 C22.5987907,6.11972093 17.8562791,1.38223256 12.015907,1.38223256 C6.17609302,1.38223256 1.44251163,6.12 1.44251163,11.960093 C1.44251163,17.8077209 6.17609302,22.5404651 12.015907,22.5404651 C17.856,22.5404651 22.5987907,17.8077209 22.5987907,11.960093 L22.5987907,11.960093 Z" id="Shape"></path>
                <path d="M4.99032558,16.060186 L19.0487442,16.060186 C19.1751628,16.060186 19.2823256,16.1698605 19.2823256,16.2985116 L19.2823256,18.0482791 C19.2823256,18.1791628 19.1751628,18.2866047 19.0487442,18.2866047 L4.99032558,18.2866047 C4.85693023,18.2866047 4.75423256,18.1791628 4.75423256,18.0482791 L4.75423256,16.2985116 C4.75423256,16.1695814 4.85693023,16.060186 4.99032558,16.060186 Z" id="Shape"></path>
                <path d="M5.24232558,6.64855814 C5.27581395,6.64855814 5.30902326,6.6415814 5.33776744,6.62734884 L12.015907,3.63237209 L18.6990698,6.62734884 C18.732,6.6415814 18.7652093,6.64855814 18.7986977,6.64855814 L19.0227907,6.64855814 C19.156186,6.64855814 19.2655814,6.7532093 19.2655814,6.88186047 L19.2655814,7.56055814 C19.2655814,7.69144186 19.155907,7.79888372 19.0227907,7.79888372 L5.00930233,7.79888372 C4.88288372,7.79888372 4.77572093,7.69144186 4.77572093,7.56055814 L4.77572093,6.88186047 C4.77572093,6.7532093 4.88288372,6.64855814 5.00930233,6.64855814 L5.24232558,6.64855814" id="Shape"></path>
                <path d="M5.76167442,8.42706977 L6.89051163,8.42706977 C7.02362791,8.42706977 7.12855814,8.53618605 7.12855814,8.66539535 L7.12855814,15.260093 C7.12855814,15.3915349 7.02362791,15.4984186 6.89051163,15.4984186 L5.76167442,15.4984186 C5.63330233,15.4984186 5.52362791,15.3915349 5.52362791,15.260093 L5.52362791,8.66511628 C5.52362791,8.53590698 5.63330233,8.42706977 5.76167442,8.42706977 Z" id="Shape"></path>
                <path d="M9.55674419,8.42706977 L10.6822326,8.42706977 C10.815907,8.42706977 10.9225116,8.53618605 10.9225116,8.66539535 L10.9225116,15.260093 C10.9225116,15.3915349 10.8156279,15.4984186 10.6822326,15.4984186 L9.55674419,15.4984186 C9.42306977,15.4984186 9.31562791,15.3915349 9.31562791,15.260093 L9.31562791,8.66511628 C9.31562791,8.53590698 9.42306977,8.42706977 9.55674419,8.42706977 Z" id="Shape"></path>
                <path d="M13.3490233,8.42706977 L14.4823256,8.42706977 C14.6084651,8.42706977 14.715907,8.53618605 14.715907,8.66539535 L14.715907,15.260093 C14.715907,15.3915349 14.6084651,15.4984186 14.4823256,15.4984186 L13.3490233,15.4984186 C13.2156279,15.4984186 13.1157209,15.3915349 13.1157209,15.260093 L13.1157209,8.66511628 C13.1157209,8.53590698 13.2156279,8.42706977 13.3490233,8.42706977 Z" id="Shape"></path>
                <path d="M17.1485581,8.42706977 L18.2748837,8.42706977 C18.4082791,8.42706977 18.5151628,8.53618605 18.5151628,8.66539535 L18.5151628,15.260093 C18.5151628,15.3915349 18.408,15.4984186 18.2748837,15.4984186 L17.1485581,15.4984186 C17.0154419,15.4984186 16.9082791,15.3915349 16.9082791,15.260093 L16.9082791,8.66511628 C16.9082791,8.53590698 17.0157209,8.42706977 17.1485581,8.42706977 Z" id="Shape"></path>
            </g>
        </g>
    </g>
</svg>