<?xml version="1.0" encoding="UTF-8"?>
<svg width="28px" height="30px" viewBox="0 0 28 30" version="1.1" xmlns="http://www.w3.org/2000/svg" xmlns:xlink="http://www.w3.org/1999/xlink">
    <!-- Generator: Sketch 44.1 (41455) - http://www.bohemiancoding.com/sketch -->
    <title>Banks</title>
    <desc>Created with Sketch.</desc>
    <defs></defs>
    <g id="Page-1" stroke="none" stroke-width="1" fill="none" fill-rule="evenodd">
        <g id="home_d3" transform="translate(-1056.000000, -1015.000000)" stroke="#FFFFFF" stroke-width="0.2" fill="#1E7ED4" fill-rule="nonzero">
            <g id="Banks" transform="translate(1057.000000, 1015.000000)">
                <g id="Group" transform="translate(0.000000, 0.191346)">
                    <path d="M12.9999312,0.108648 C15.2773805,0.108648 17.1362948,1.996164 17.1362948,4.308648 C17.1362948,6.621132 15.2773805,8.508648 12.9999312,8.508648 C10.7224789,8.508648 8.86356752,6.621132 8.86356752,4.308648 C8.86356752,1.996164 10.7224789,0.108648 12.9999312,0.108648 Z M12.9999312,1.308648 C11.3611807,1.308648 10.0453857,2.644692 10.0453857,4.308648 C10.0453857,5.972604 11.3611807,7.308648 12.9999312,7.308648 C14.6386787,7.308648 15.9544766,5.972604 15.9544766,4.308648 C15.9544766,2.644692 14.6386787,1.308648 12.9999312,1.308648 Z M5.95518684,7.908648 C6.03195018,7.91258784 6.10721944,7.93169465 6.17677775,7.964898 L9.8237948,9.811773 C10.8289607,9.55467 11.8921037,9.408648 12.9999312,9.408648 C17.9299005,9.408648 22.1528766,12.165882 23.3131414,15.98991 C24.1065403,15.8817 24.818113,15.28998 24.818113,14.20866 C24.8144402,14.0358581 24.8843295,13.8698402 25.0098814,13.7531253 C25.1354334,13.6364105 25.3044533,13.5803352 25.473653,13.599261 C25.7780963,13.6332308 26.0065309,13.8977443 25.9999315,14.20866 C25.9999315,15.82449 24.8523683,16.91427 23.5716641,17.15241 C23.6132878,17.46684 23.6362948,17.784 23.6362948,18.10866 C23.6362948,20.69637 22.2290803,22.9845 20.0908403,24.55866 L20.0908403,28.90866 C20.0908076,29.2400171 19.8262677,29.5086269 19.4999312,29.50866 L15.6590221,29.50866 C15.3920995,29.5099033 15.1574911,29.3293126 15.0865789,29.06802 L14.4125732,26.69616 C13.9466621,26.74791 13.484515,26.80866 12.9999312,26.80866 C12.5153473,26.80866 12.0532003,26.74791 11.5872891,26.69616 L10.9132834,29.06802 C10.8423713,29.3293126 10.6077628,29.5099033 10.3408403,29.50866 L6.49993116,29.50866 C6.1735946,29.5086269 5.9090547,29.2400171 5.90902207,28.90866 L5.90902207,24.57741 C4.7644282,23.73783 3.8315157,22.69446 3.21299934,21.50241 L0.443113125,20.78991 C0.182120575,20.7214634 -0.000183697312,20.4823643 -6.86931818e-05,20.20866 L-6.86931818e-05,16.30866 C-0.000183697312,16.0349557 0.182120575,15.7958566 0.443113125,15.72741 L3.04680616,15.06177 C3.63952934,13.762641 4.59499684,12.632421 5.79822661,11.724273 L5.32734593,8.593023 C5.30171828,8.41312287 5.35778351,8.23112411 5.479803,8.09811734 C5.60182249,7.96511057 5.77664222,7.89543429 5.95518684,7.908648 L5.95518684,7.908648 Z M6.66612434,9.558648 L7.01697661,11.883648 C7.04968859,12.1097944 6.95302778,12.335171 6.76768684,12.464898 C5.48674661,13.357641 4.5227257,14.514 3.99780048,15.80241 C3.92823854,15.9781185 3.78107126,16.1101742 3.60078343,16.15866 L1.18174949,16.77741 L1.18174949,19.73991 L3.7485107,20.39616 C3.91777174,20.439082 4.05970622,20.555749 4.1362948,20.71491 C4.69220434,21.89844 5.62546548,22.9632 6.83231752,23.78991 C6.99426047,23.9017931 7.09108493,24.087882 7.09084025,24.28677 L7.09084025,28.30866 L9.88842548,28.30866 L10.5716641,25.89927 C10.6521387,25.6084804 10.93294,25.4237539 11.2272039,25.46802 C11.8019487,25.55463 12.3959777,25.60866 12.9999312,25.60866 C13.6038816,25.60866 14.1979107,25.55463 14.7726584,25.46802 C15.0669223,25.4237539 15.3477236,25.6084804 15.4281982,25.89927 L16.1114368,28.30866 L18.9090221,28.30866 L18.9090221,24.28677 C18.9087774,24.087882 19.0056019,23.9017931 19.1675448,23.78991 C21.2065416,22.39314 22.4544766,20.35731 22.4544766,18.10866 C22.4544766,14.043471 18.2942787,10.608648 12.9999312,10.608648 C11.9085132,10.608648 10.862743,10.750923 9.88842548,11.021148 C9.74718948,11.0627393 9.59575549,11.0493685 9.46370957,10.983648 L6.66612434,9.558648 L6.66612434,9.558648 Z M12.9999312,11.508648 C14.3521912,11.508648 15.6341832,11.760222 16.7669766,12.221148 C16.9641478,12.3009028 17.1042293,12.4816724 17.1341885,12.6950203 C17.1641477,12.9083682 17.0794058,13.1216873 16.9120448,13.2542185 C16.7446837,13.3867496 16.5202821,13.4182374 16.3237948,13.336761 C15.3358362,12.934791 14.2043664,12.708651 12.9999312,12.708651 C12.2218191,12.708651 11.4738878,12.803811 10.7747891,12.980511 C10.5682413,13.0318222 10.3504423,12.9670021 10.2038559,12.810593 C10.0572695,12.6541839 10.0043022,12.4300938 10.0650087,12.2231686 C10.1257152,12.0162433 10.2908162,11.8581124 10.4978005,11.808648 C11.2901121,11.608377 12.1258939,11.508648 12.9999312,11.508648 L12.9999312,11.508648 Z M7.09084025,15.10866 C7.74354366,15.10866 8.27265843,15.64593 8.27265843,16.30866 C8.27265843,16.97142 7.74354366,17.50866 7.09084025,17.50866 C6.43814275,17.50866 5.90902207,16.97142 5.90902207,16.30866 C5.90902207,15.64593 6.43814275,15.10866 7.09084025,15.10866 Z" id="Shape"></path>
                </g>
            </g>
        </g>
    </g>
</svg>