<?xml version="1.0" encoding="UTF-8"?>
<svg width="81px" height="62px" viewBox="0 0 81 62" version="1.1" xmlns="http://www.w3.org/2000/svg" xmlns:xlink="http://www.w3.org/1999/xlink">
    <!-- Generator: Sketch 44.1 (41455) - http://www.bohemiancoding.com/sketch -->
    <title>Create Account</title>
    <desc>Created with Sketch.</desc>
    <defs></defs>
    <g id="Page-1" stroke="none" stroke-width="1" fill="none" fill-rule="evenodd">
        <g id="home_d3" transform="translate(-240.000000, -3060.000000)" fill-rule="nonzero" stroke="#F3F3F3" stroke-width="0.7" fill="#1E7ED4">
            <g id="Create-Account" transform="translate(240.000000, 3060.000000)">
                <g id="Group">
                    <rect id="Rectangle-path" x="64.0746269" y="5.10588235" width="1.81343284" height="1.82352941"></rect>
                    <rect id="Rectangle-path" x="68.6686567" y="5.10588235" width="1.81343284" height="1.82352941"></rect>
                    <rect id="Rectangle-path" x="59.480597" y="5.10588235" width="1.81343284" height="1.82352941"></rect>
                    <path d="M75.8014925,53.3686275 L75.8014925,3.89019608 C75.8014925,2.06666667 74.3507463,0.48627451 72.4164179,0.48627451 L8.46268657,0.48627451 C6.64925373,0.48627451 5.07761194,1.94509804 5.07761194,3.89019608 L5.07761194,53.3686275 L0.846268657,53.3686275 L0.846268657,57.0156863 L4.23134328,61.3921569 L76.7686567,61.3921569 L80.1537313,57.0156863 L80.1537313,53.3686275 L75.8014925,53.3686275 Z M8.46268657,2.43137255 L72.5373134,2.43137255 C73.3835821,2.43137255 74.1089552,3.16078431 74.1089552,4.01176471 L74.1089552,9.36078431 L7.0119403,9.36078431 L7.0119403,4.01176471 C7.0119403,3.03921569 7.73731343,2.43137255 8.46268657,2.43137255 Z M7.0119403,11.1843137 L73.9880597,11.1843137 L73.9880597,53.3686275 L7.0119403,53.3686275 L7.0119403,11.1843137 Z M78.3402985,56.4078431 L75.9223881,59.6901961 L5.19850746,59.6901961 L2.78059701,56.4078431 L2.78059701,55.1921569 L78.3402985,55.1921569 L78.3402985,56.4078431 Z" id="Shape"></path>
                    <rect id="Rectangle-path" x="12.2104478" y="5.10588235" width="41.8298507" height="1.82352941"></rect>
                    <polygon id="Shape" points="53.1940299 35.4980392 51.380597 35.4980392 51.380597 40.4823529 46.5447761 40.4823529 46.5447761 42.3058824 51.380597 42.3058824 51.380597 47.1686275 53.1940299 47.1686275 53.1940299 42.3058824 58.0298507 42.3058824 58.0298507 40.4823529 53.1940299 40.4823529"></polygon>
                    <path d="M52.3477612,31.4862745 C50.2925373,31.4862745 48.358209,32.0941176 46.7865672,33.3098039 C46.3029851,32.945098 45.819403,32.7019608 45.3358209,32.5803922 L40.0164179,30.6352941 L35.4223881,39.2666667 L33.9716418,39.2666667 L29.3776119,30.6352941 L24.058209,32.5803922 C22.6074627,33.0666667 21.3985075,34.1607843 20.6731343,35.3764706 C19.9477612,36.5921569 19.5850746,37.8078431 19.5850746,39.0235294 C19.4641791,39.5098039 19.1014925,43.1568627 18.8597015,47.4117647 L18.8597015,48.3843137 L45.4567164,48.3843137 C47.2701493,50.2078431 49.6880597,51.1803922 52.2268657,51.1803922 C54.8865672,51.1803922 57.3044776,50.2078431 59.1179104,48.2627451 C62.9865672,44.372549 62.9865672,38.172549 59.1179104,34.4039216 C57.4253731,32.5803922 54.8865672,31.4862745 52.3477612,31.4862745 Z M21.3985075,39.2666667 L21.3985075,39.145098 C21.3985075,38.0509804 21.8820896,36.9568627 22.2447761,36.227451 C22.7283582,35.254902 23.5746269,34.6470588 24.6626866,34.2823529 L28.4104478,32.945098 L32.7626866,41.2117647 L36.3895522,41.2117647 L40.741791,32.945098 L44.4895522,34.2823529 C44.7313433,34.4039216 44.9731343,34.5254902 45.0940299,34.5254902 C41.9507463,37.8078431 41.4671642,42.7921569 43.8850746,46.5607843 L20.7940299,46.5607843 C20.9149254,42.427451 21.3985075,39.2666667 21.3985075,39.2666667 Z M57.9089552,47.0470588 C56.458209,48.5058824 54.4029851,49.3568627 52.2268657,49.3568627 C50.0507463,49.3568627 48.1164179,48.5058824 46.5447761,47.0470588 C43.4014925,43.8862745 43.4014925,38.9019608 46.5447761,35.7411765 C47.9955224,34.2823529 50.0507463,33.4313725 52.2268657,33.4313725 C54.4029851,33.4313725 56.3373134,34.2823529 57.9089552,35.7411765 C61.0522388,38.7803922 61.0522388,43.8862745 57.9089552,47.0470588 Z" id="Shape"></path>
                    <path d="M34.6970149,29.7843137 C38.5656716,29.7843137 41.8298507,26.6235294 41.8298507,22.6117647 C41.8298507,18.7215686 38.6865672,15.4392157 34.6970149,15.4392157 C30.7074627,15.4392157 27.5641791,18.6 27.5641791,22.6117647 C27.5641791,26.6235294 30.8283582,29.7843137 34.6970149,29.7843137 Z M34.6970149,17.3843137 C37.5985075,17.3843137 40.0164179,19.8156863 40.0164179,22.7333333 C40.0164179,25.6509804 37.5985075,28.0823529 34.6970149,28.0823529 C31.7955224,28.0823529 29.3776119,25.6509804 29.3776119,22.7333333 C29.3776119,19.8156863 31.7955224,17.3843137 34.6970149,17.3843137 Z" id="Shape"></path>
                </g>
            </g>
        </g>
    </g>
</svg>