<?xml version="1.0" encoding="UTF-8"?>
<svg width="79px" height="78px" viewBox="0 0 85 81" version="1.1" xmlns="http://www.w3.org/2000/svg" xmlns:xlink="http://www.w3.org/1999/xlink">
    <!-- Generator: Sketch 44.1 (41455) - http://www.bohemiancoding.com/sketch -->
    <title>customer security</title>
    <desc>Created with Sketch.</desc>
    <defs></defs>
    <g id="Page-1" stroke="none" stroke-width="1" fill="none" fill-rule="evenodd">
        <g id="home_d3-copy" transform="translate(-153.000000, -3972.000000)" fill-rule="nonzero" fill="#1E7ED4">
            <g id="customer-security" transform="translate(153.000000, 3972.263672)">
                <g id="Group">
                    <path d="M0.796875,21.2459016 C0.53125,21.2459016 0.33203125,21.445082 0.33203125,21.7106557 L0.33203125,29.6114754 C0.33203125,29.8770492 0.53125,30.0762295 0.796875,30.0762295 C1.0625,30.0762295 1.328125,29.9434426 1.328125,29.6114754 L1.328125,21.7106557 C1.328125,21.445082 1.0625,21.2459016 0.796875,21.2459016 Z" id="Shape"></path>
                    <path d="M0.796875,31.7360656 C0.53125,31.7360656 0.33203125,31.9352459 0.33203125,32.2008197 L0.33203125,34.7901639 C0.33203125,35.0557377 0.53125,35.254918 0.796875,35.254918 C1.0625,35.254918 1.328125,35.0557377 1.328125,34.7901639 L1.328125,32.2008197 C1.328125,31.9352459 1.0625,31.7360656 0.796875,31.7360656 Z" id="Shape"></path>
                    <path d="M80.4179687,47.5377049 C80.4179687,47.2721311 80.21875,47.0729508 79.953125,47.0729508 C79.6875,47.0729508 79.4882812,47.2721311 79.4882812,47.5377049 L79.4882812,55.4385246 C79.4882812,55.7040984 79.6875,55.9032787 79.953125,55.9032787 C80.21875,55.9032787 80.4179687,55.7040984 80.4179687,55.4385246 L80.4179687,47.5377049 Z" id="Shape"></path>
                    <path d="M79.953125,57.5631148 C79.6875,57.5631148 79.4882812,57.7622951 79.4882812,58.0278689 L79.4882812,60.6172131 C79.4882812,60.8827869 79.6875,61.0819672 79.953125,61.0819672 C80.21875,61.0819672 80.4179687,60.8827869 80.4179687,60.6172131 L80.4179687,58.0278689 C80.4179687,57.7622951 80.21875,57.5631148 79.953125,57.5631148 Z" id="Shape"></path>
                    <path d="M38.7148437,11.0877049 C38.78125,11.1540984 38.9140625,11.2204918 39.046875,11.2204918 C39.1796875,11.2204918 39.3125,11.1540984 39.3789062,11.0877049 C39.578125,10.8885246 39.578125,10.5565574 39.3789062,10.4237705 L38.3828125,9.42786885 C38.1835937,9.22868852 37.8515625,9.22868852 37.71875,9.42786885 C37.5859375,9.62704918 37.5195312,9.95901639 37.71875,10.0918033 L38.7148437,11.0877049 Z" id="Shape"></path>
                    <path d="M41.9023438,14.2745902 C41.96875,14.3409836 42.1015625,14.407377 42.234375,14.407377 C42.3671875,14.407377 42.5,14.3409836 42.5664062,14.2745902 C42.765625,14.0754098 42.765625,13.7434426 42.5664062,13.6106557 L41.5703125,12.6147541 C41.3710938,12.4155738 41.0390625,12.4155738 40.90625,12.6147541 C40.7070313,12.8139344 40.7070313,13.1459016 40.90625,13.2786885 L41.9023438,14.2745902 Z" id="Shape"></path>
                    <path d="M38.0507812,14.407377 C38.1835937,14.407377 38.3164062,14.3409836 38.3828125,14.2745902 L39.3789062,13.2786885 C39.578125,13.0795082 39.578125,12.747541 39.3789062,12.6147541 C39.1796875,12.4155738 38.8476562,12.4155738 38.7148437,12.6147541 L37.71875,13.6106557 C37.5195312,13.8098361 37.5195312,14.1418033 37.71875,14.2745902 C37.7851562,14.3409836 37.9179687,14.407377 38.0507812,14.407377 Z" id="Shape"></path>
                    <path d="M41.2382813,11.2204918 C41.3710938,11.2204918 41.5039062,11.1540984 41.5703125,11.0877049 L42.5664062,10.0918033 C42.765625,9.89262295 42.765625,9.56065574 42.5664062,9.42786885 C42.3671875,9.22868852 42.0351562,9.22868852 41.9023438,9.42786885 L40.90625,10.4237705 C40.7070313,10.6229508 40.7070313,10.954918 40.90625,11.0877049 C40.9726563,11.1540984 41.1054688,11.2204918 41.2382813,11.2204918 Z" id="Shape"></path>
                    <path d="M41.8359375,75.4229508 C41.6367187,75.2237705 41.3046875,75.2237705 41.171875,75.4229508 C40.9726562,75.6221311 40.9726562,75.9540984 41.171875,76.0868852 L42.1679687,77.0827869 C42.234375,77.1491803 42.3671875,77.2155738 42.5,77.2155738 C42.6328125,77.2155738 42.765625,77.1491803 42.8320312,77.0827869 C43.03125,76.8836066 43.03125,76.5516393 42.8320312,76.4188525 L41.8359375,75.4229508 Z" id="Shape"></path>
                    <path d="M45.0234375,78.6098361 C44.8242188,78.4106557 44.4921875,78.4106557 44.359375,78.6098361 C44.1601562,78.8090164 44.1601562,79.1409836 44.359375,79.2737705 L45.3554688,80.2696721 C45.421875,80.3360656 45.5546875,80.402459 45.6875,80.402459 C45.8203125,80.402459 45.953125,80.3360656 46.0195313,80.2696721 C46.21875,80.0704918 46.21875,79.7385246 46.0195313,79.6057377 L45.0234375,78.6098361 Z" id="Shape"></path>
                    <path d="M42.1015625,78.6098361 L41.1054687,79.6057377 C40.90625,79.804918 40.90625,80.1368852 41.1054687,80.2696721 C41.171875,80.3360656 41.3046875,80.402459 41.4375,80.402459 C41.5703125,80.402459 41.703125,80.3360656 41.7695312,80.2696721 L42.765625,79.2737705 C42.9648438,79.0745902 42.9648438,78.742623 42.765625,78.6098361 C42.6328125,78.4106557 42.3007812,78.4106557 42.1015625,78.6098361 Z" id="Shape"></path>
                    <path d="M45.3554688,75.4229508 L44.359375,76.4188525 C44.1601562,76.6180328 44.1601562,76.95 44.359375,77.0827869 C44.4257812,77.1491803 44.5585937,77.2155738 44.6914062,77.2155738 C44.8242188,77.2155738 44.9570313,77.1491803 45.0234375,77.0827869 L46.0195313,76.0868852 C46.21875,75.8877049 46.21875,75.5557377 46.0195313,75.4229508 C45.8203125,75.2237705 45.4882813,75.2237705 45.3554688,75.4229508 Z" id="Shape"></path>
                    <path d="M82.2109375,0.331967213 C80.8828125,0.331967213 79.7539062,1.46065574 79.7539062,2.78852459 C79.7539062,4.11639344 80.8828125,5.24508197 82.2109375,5.24508197 C83.5390625,5.24508197 84.6679688,4.11639344 84.6679688,2.78852459 C84.6679688,1.3942623 83.5390625,0.331967213 82.2109375,0.331967213 Z M82.2109375,4.24918033 C81.4140625,4.24918033 80.75,3.5852459 80.75,2.78852459 C80.75,1.99180328 81.4140625,1.32786885 82.2109375,1.32786885 C83.0078125,1.32786885 83.671875,1.99180328 83.671875,2.78852459 C83.671875,3.5852459 83.0078125,4.24918033 82.2109375,4.24918033 Z" id="Shape"></path>
                    <path d="M17.5976562,74.6262295 C16.2695312,74.6262295 15.140625,75.754918 15.140625,77.0827869 C15.140625,78.4106557 16.2695312,79.5393443 17.5976562,79.5393443 C18.9257812,79.5393443 20.0546875,78.4106557 20.0546875,77.0827869 C20.0546875,75.6885246 18.9257812,74.6262295 17.5976562,74.6262295 Z M17.5976562,78.5434426 C16.8007812,78.5434426 16.1367188,77.8795082 16.1367188,77.0827869 C16.1367188,76.2860656 16.8007812,75.6221311 17.5976562,75.6221311 C18.3945312,75.6221311 19.0585937,76.2860656 19.0585937,77.0827869 C19.0585937,77.8795082 18.3945312,78.5434426 17.5976562,78.5434426 Z" id="Shape"></path>
                    <path d="M12.5507812,6.44016393 C12.5507812,6.7057377 12.75,6.90491803 13.015625,6.90491803 L22.1132812,6.90491803 C22.3789062,6.90491803 22.578125,6.7057377 22.578125,6.44016393 C22.578125,6.17459016 22.3789062,5.97540984 22.1132812,5.97540984 L13.0820312,5.97540984 C12.8164063,5.97540984 12.5507812,6.17459016 12.5507812,6.44016393 Z" id="Shape"></path>
                    <path d="M7.171875,6.97131148 L10.09375,6.97131148 C10.359375,6.97131148 10.5585938,6.77213115 10.5585938,6.50655738 C10.5585938,6.24098361 10.359375,6.04180328 10.09375,6.04180328 L7.171875,6.04180328 C6.90625,6.04180328 6.70703125,6.24098361 6.70703125,6.50655738 C6.640625,6.7057377 6.90625,6.97131148 7.171875,6.97131148 Z" id="Shape"></path>
                    <path d="M7.171875,3.85081967 L13.4804688,3.85081967 C13.7460938,3.85081967 13.9453125,3.5852459 13.9453125,3.31967213 C13.9453125,3.05409836 13.7460938,2.85491803 13.4804688,2.85491803 L7.171875,2.85491803 C6.90625,2.85491803 6.640625,3.05409836 6.640625,3.31967213 C6.640625,3.5852459 6.90625,3.85081967 7.171875,3.85081967 Z" id="Shape"></path>
                    <path d="M16.203125,3.85081967 L18.2617188,3.85081967 C18.5273438,3.85081967 18.7265625,3.65163934 18.7265625,3.38606557 C18.7265625,3.1204918 18.5273438,2.92131148 18.2617188,2.92131148 L16.203125,2.92131148 C15.9375,2.92131148 15.7382812,3.1204918 15.7382812,3.38606557 C15.7382812,3.5852459 15.9375,3.85081967 16.203125,3.85081967 Z" id="Shape"></path>
                    <path d="M76.765625,77.0827869 C76.765625,76.8172131 76.5664062,76.6180328 76.3007812,76.6180328 L67.203125,76.6180328 C66.9375,76.6180328 66.7382812,76.8172131 66.7382812,77.0827869 C66.7382812,77.3483607 66.9375,77.547541 67.203125,77.547541 L76.3007812,77.547541 C76.5664062,77.547541 76.765625,77.3483607 76.765625,77.0827869 Z" id="Shape"></path>
                    <path d="M82.2109375,76.6180328 L79.2890625,76.6180328 C79.0234375,76.6180328 78.8242187,76.8172131 78.8242187,77.0827869 C78.8242187,77.3483607 79.0234375,77.547541 79.2890625,77.547541 L82.2109375,77.547541 C82.4765625,77.547541 82.6757813,77.3483607 82.6757813,77.0827869 C82.6757813,76.8172131 82.4765625,76.6180328 82.2109375,76.6180328 Z" id="Shape"></path>
                    <path d="M82.2109375,79.7385246 L75.9023437,79.7385246 C75.6367187,79.7385246 75.4375,79.9377049 75.4375,80.2032787 C75.4375,80.4688525 75.6367187,80.6680328 75.9023437,80.6680328 L82.2109375,80.6680328 C82.4765625,80.6680328 82.6757813,80.4688525 82.6757813,80.2032787 C82.6757813,79.9377049 82.4765625,79.7385246 82.2109375,79.7385246 Z" id="Shape"></path>
                    <path d="M73.1132812,79.7385246 L71.0546875,79.7385246 C70.7890625,79.7385246 70.5898437,79.9377049 70.5898437,80.2032787 C70.5898437,80.4688525 70.7890625,80.6680328 71.0546875,80.6680328 L73.1132812,80.6680328 C73.3789062,80.6680328 73.578125,80.4688525 73.578125,80.2032787 C73.6445313,79.9377049 73.3789062,79.7385246 73.1132812,79.7385246 Z" id="Shape"></path>
                    <path d="M75.171875,68.7836066 L75.171875,38.707377 C75.171875,38.4418033 74.9726563,38.242623 74.7070313,38.242623 C74.4414062,38.242623 74.2421875,38.4418033 74.2421875,38.707377 L74.2421875,68.7836066 C74.2421875,69.8459016 73.3789062,70.7090164 72.3164062,70.7090164 L12.8828125,70.7090164 C13.015625,70.642623 13.0820312,70.5098361 13.0820312,70.3106557 L13.0820312,69.3147541 C13.0820312,69.0491803 12.8828125,68.85 12.6171875,68.85 C12.3515625,68.85 12.1523438,69.0491803 12.1523438,69.3147541 L12.1523438,70.3106557 C12.1523438,70.4434426 12.21875,70.5762295 12.3515625,70.7090164 L8.1015625,70.7090164 C7.0390625,70.7090164 6.17578125,69.8459016 6.17578125,68.7836066 L6.17578125,24.7647541 C6.17578125,23.4368852 7.3046875,22.3081967 8.6328125,22.3081967 L12.3515625,22.3081967 C12.21875,22.3745902 12.1523438,22.507377 12.1523438,22.7065574 L12.1523438,23.702459 C12.1523438,23.9680328 12.3515625,24.1672131 12.6171875,24.1672131 C12.8828125,24.1672131 13.0820312,23.9680328 13.0820312,23.702459 L13.0820312,22.7065574 C13.0820312,22.5737705 13.015625,22.4409836 12.8828125,22.3081967 L35.59375,22.3081967 C36.390625,22.3081967 37.1210938,22.7065574 37.5859375,23.3040984 C38.0507812,23.9680328 38.78125,24.7647541 39.4453125,25.5614754 C39.9101563,26.092623 40.3085938,26.6237705 40.7070312,27.0885246 C42.1679688,28.8811475 44.359375,28.7483607 44.4257812,28.7483607 L51.6640625,28.7483607 L51.6640625,32.0680328 C51.6640625,34.7901639 53.8554688,37.047541 56.6445313,37.047541 L77.4960938,37.047541 C80.21875,37.047541 82.4765625,34.8565574 82.4765625,32.0680328 L82.4765625,19.4532787 C82.4765625,16.7311475 80.2851562,14.4737705 77.4960938,14.4737705 L75.5703125,14.4737705 L75.5703125,8.76393443 C75.5703125,4.11639344 71.7851562,0.331967213 67.1367187,0.331967213 C62.4882812,0.331967213 58.5703125,4.11639344 58.5703125,8.76393443 L58.5703125,14.4737705 L56.6445313,14.4737705 C53.921875,14.4737705 51.6640625,16.6647541 51.6640625,19.4532787 L51.6640625,27.8188525 L44.359375,27.8188525 C44.2929688,27.8188525 42.5664062,27.9516393 41.4375,26.557377 C41.0390625,26.0262295 40.5742188,25.495082 40.1757812,24.9639344 C39.5117188,24.1672131 38.8476562,23.3704918 38.3828125,22.7065574 C37.71875,21.8434426 36.7226562,21.3122951 35.59375,21.3122951 L8.56640625,21.3122951 C6.640625,21.3122951 5.11328125,22.8393443 5.11328125,24.7647541 L5.11328125,68.85 C5.11328125,70.4434426 6.44140625,71.7713115 8.03515625,71.7713115 L72.3164063,71.7713115 C73.9101562,71.704918 75.171875,70.3770492 75.171875,68.7836066 Z M59.5664063,8.76393443 C59.5664063,4.64754098 62.953125,1.26147541 67.0703125,1.26147541 C71.1875,1.26147541 74.5742187,4.64754098 74.5742187,8.76393443 L74.5742187,14.4737705 L71.453125,14.4737705 L71.453125,8.76393443 C71.453125,6.37377049 69.4609375,4.38196721 67.0703125,4.38196721 C64.6796875,4.38196721 62.6875,6.37377049 62.6875,8.76393443 L62.6875,14.4737705 L59.5664063,14.4737705 L59.5664063,8.76393443 Z M70.4570312,14.4737705 L63.6171875,14.4737705 L63.6171875,8.76393443 C63.6171875,6.90491803 65.1445312,5.37786885 67.0039062,5.37786885 C68.8632812,5.37786885 70.390625,6.90491803 70.390625,8.76393443 L70.390625,14.4737705 L70.4570312,14.4737705 Z M52.6601562,19.4532787 C52.6601562,17.2622951 54.453125,15.4696721 56.6445312,15.4696721 L77.4960938,15.4696721 C79.6875,15.4696721 81.4804688,17.2622951 81.4804688,19.4532787 L81.4804688,32.0680328 C81.4804688,34.2590164 79.6875,36.0516393 77.4960938,36.0516393 L56.6445312,36.0516393 C54.453125,36.0516393 52.6601562,34.2590164 52.6601562,32.0680328 L52.6601562,19.4532787 Z" id="Shape"></path>
                    <path d="M68.7304687,45.147541 L57.109375,45.147541 C56.84375,45.147541 56.6445312,45.3467213 56.6445312,45.6122951 C56.6445312,45.8778689 56.84375,46.0770492 57.109375,46.0770492 L68.7304687,46.0770492 C68.9960938,46.0770492 69.1953125,45.8778689 69.1953125,45.6122951 C69.1953125,45.4131148 68.9960938,45.147541 68.7304687,45.147541 Z" id="Shape"></path>
                    <path d="M68.7304687,51.5213115 L55.5820313,51.5213115 C55.3164063,51.5213115 55.1171875,51.7204918 55.1171875,51.9860656 C55.1171875,52.2516393 55.3164063,52.4508197 55.5820313,52.4508197 L68.6640625,52.4508197 C68.9296875,52.4508197 69.1289062,52.2516393 69.1289062,51.9860656 C69.1289062,51.7204918 68.9960937,51.5213115 68.7304687,51.5213115 Z" id="Shape"></path>
                    <path d="M68.7304687,57.8286885 L51.9960937,57.8286885 C51.7304687,57.8286885 51.53125,58.0278689 51.53125,58.2934426 C51.53125,58.5590164 51.7304687,58.7581967 51.9960937,58.7581967 L68.7304687,58.7581967 C68.9960937,58.7581967 69.1953125,58.5590164 69.1953125,58.2934426 C69.1953125,58.0278689 68.9960937,57.8286885 68.7304687,57.8286885 Z" id="Shape"></path>
                    <path d="M45.6875,65.1319672 L68.6640625,65.1319672 C68.9296875,65.1319672 69.1289062,64.9327869 69.1289062,64.6672131 C69.1289062,64.4016393 68.9296875,64.202459 68.6640625,64.202459 L45.6875,64.202459 C45.421875,64.202459 45.2226562,64.4016393 45.2226562,64.6672131 C45.2226562,64.9327869 45.421875,65.1319672 45.6875,65.1319672 Z" id="Shape"></path>
                    <path d="M16.734375,45.6786885 C16.734375,45.9442623 16.9335938,46.1434426 17.1992188,46.1434426 L23.9726562,46.1434426 C24.2382812,46.1434426 24.4375,45.9442623 24.4375,45.6786885 C24.4375,45.4131148 24.2382812,45.2139344 23.9726562,45.2139344 L17.1992188,45.2139344 C16.9335938,45.147541 16.734375,45.4131148 16.734375,45.6786885 Z" id="Shape"></path>
                    <path d="M17.1992188,52.4508197 L24.8359375,52.4508197 C25.1015625,52.4508197 25.3007813,52.2516393 25.3007813,51.9860656 C25.3007813,51.7204918 25.1015625,51.5213115 24.8359375,51.5213115 L17.1992188,51.5213115 C16.9335938,51.5213115 16.734375,51.7204918 16.734375,51.9860656 C16.734375,52.2516393 16.9335938,52.4508197 17.1992188,52.4508197 Z" id="Shape"></path>
                    <path d="M17.1992188,58.8245902 L26.9609375,58.8245902 C27.2265625,58.8245902 27.4257812,58.6254098 27.4257812,58.3598361 C27.4257812,58.0942623 27.2265625,57.895082 26.9609375,57.895082 L17.1992188,57.895082 C16.9335938,57.895082 16.734375,58.0942623 16.734375,58.3598361 C16.734375,58.5590164 16.9335938,58.8245902 17.1992188,58.8245902 Z" id="Shape"></path>
                    <path d="M17.1992188,65.1319672 L30.6132812,65.1319672 C30.8789062,65.1319672 31.078125,64.9327869 31.078125,64.6672131 C31.078125,64.4016393 30.8789062,64.202459 30.6132812,64.202459 L17.1992188,64.202459 C16.9335938,64.202459 16.734375,64.4016393 16.734375,64.6672131 C16.734375,64.9327869 16.9335938,65.1319672 17.1992188,65.1319672 Z" id="Shape"></path>
                    <path d="M13.0820313,53.4467213 C13.0820313,53.1811475 12.8828125,52.9819672 12.6171875,52.9819672 C12.3515625,52.9819672 12.1523438,53.1811475 12.1523438,53.4467213 L12.1523438,55.4385246 C12.1523438,55.7040984 12.3515625,55.9032787 12.6171875,55.9032787 C12.8828125,55.9032787 13.0820313,55.7040984 13.0820313,55.4385246 L13.0820313,53.4467213 Z" id="Shape"></path>
                    <path d="M13.0820313,48.1352459 C13.0820313,47.8696721 12.8828125,47.6704918 12.6171875,47.6704918 C12.3515625,47.6704918 12.1523438,47.8696721 12.1523438,48.1352459 L12.1523438,50.1270492 C12.1523438,50.392623 12.3515625,50.5918033 12.6171875,50.5918033 C12.8828125,50.5918033 13.0820313,50.392623 13.0820313,50.1270492 L13.0820313,48.1352459 Z" id="Shape"></path>
                    <path d="M13.0820313,26.9557377 C13.0820313,26.6901639 12.8828125,26.4909836 12.6171875,26.4909836 C12.3515625,26.4909836 12.1523438,26.6901639 12.1523438,26.9557377 L12.1523438,28.947541 C12.1523438,29.2131148 12.3515625,29.4122951 12.6171875,29.4122951 C12.8828125,29.4122951 13.0820313,29.2131148 13.0820313,28.947541 L13.0820313,26.9557377 Z" id="Shape"></path>
                    <path d="M13.0820313,58.7581967 C13.0820313,58.492623 12.8828125,58.2934426 12.6171875,58.2934426 C12.3515625,58.2934426 12.1523438,58.492623 12.1523438,58.7581967 L12.1523438,60.75 C12.1523438,61.0155738 12.3515625,61.2147541 12.6171875,61.2147541 C12.8828125,61.2147541 13.0820313,61.0155738 13.0820313,60.75 L13.0820313,58.7581967 Z" id="Shape"></path>
                    <path d="M12.6171875,63.604918 C12.3515625,63.604918 12.1523438,63.8040984 12.1523438,64.0696721 L12.1523438,66.0614754 C12.1523438,66.3270492 12.3515625,66.5262295 12.6171875,66.5262295 C12.8828125,66.5262295 13.0820313,66.3270492 13.0820313,66.0614754 L13.0820313,64.0696721 C13.0820313,63.8040984 12.8828125,63.604918 12.6171875,63.604918 Z" id="Shape"></path>
                    <path d="M13.0820313,32.2672131 C13.0820313,32.0016393 12.8828125,31.802459 12.6171875,31.802459 C12.3515625,31.802459 12.1523438,32.0016393 12.1523438,32.2672131 L12.1523438,34.2590164 C12.1523438,34.5245902 12.3515625,34.7237705 12.6171875,34.7237705 C12.8828125,34.7237705 13.0820313,34.5245902 13.0820313,34.2590164 L13.0820313,32.2672131 Z" id="Shape"></path>
                    <path d="M13.0820313,42.8237705 C13.0820313,42.5581967 12.8828125,42.3590164 12.6171875,42.3590164 C12.3515625,42.3590164 12.1523438,42.5581967 12.1523438,42.8237705 L12.1523438,44.8155738 C12.1523438,45.0811475 12.3515625,45.2803279 12.6171875,45.2803279 C12.8828125,45.2803279 13.0820313,45.0811475 13.0820313,44.8155738 L13.0820313,42.8237705 Z" id="Shape"></path>
                    <path d="M13.0820313,37.5786885 C13.0820313,37.3131148 12.8828125,37.1139344 12.6171875,37.1139344 C12.3515625,37.1139344 12.1523438,37.3131148 12.1523438,37.5786885 L12.1523438,39.5704918 C12.1523438,39.8360656 12.3515625,40.0352459 12.6171875,40.0352459 C12.8828125,40.0352459 13.0820313,39.8360656 13.0820313,39.5704918 L13.0820313,37.5786885 Z" id="Shape"></path>
                    <path d="M65.0117188,25.2295082 C65.078125,25.2959016 65.1445312,25.4286885 65.2773438,25.495082 C65.4765625,25.8270492 65.609375,26.2254098 65.609375,26.6901639 L65.609375,29.7442623 C65.609375,30.0098361 65.8085938,30.2090164 66.0742188,30.2090164 L68,30.2090164 C68.265625,30.2090164 68.4648438,30.0098361 68.4648438,29.7442623 L68.4648438,26.6901639 C68.4648438,26.2254098 68.5976562,25.8270492 68.796875,25.495082 C68.8632812,25.3622951 68.9960937,25.2959016 69.0625,25.2295082 C69.0625,25.2295082 69.1289062,25.1631148 69.1289062,25.1631148 C69.3945312,24.7647541 69.5273437,24.3 69.5273437,23.8352459 C69.5273437,22.4409836 68.3984375,21.3122951 67.0039062,21.3122951 C65.609375,21.3122951 64.4804688,22.4409836 64.4804688,23.8352459 C64.4804688,24.3 64.6132813,24.7647541 64.8789063,25.1631148 C64.9453125,25.1631148 64.9453125,25.1631148 65.0117188,25.2295082 Z M67.0703125,22.2418033 C67.9335937,22.2418033 68.5976562,22.9057377 68.5976562,23.7688525 C68.5976562,24.0344262 68.53125,24.3 68.3984375,24.5655738 C68.265625,24.6983607 68.1328125,24.8311475 68.0664062,24.9639344 C67.734375,25.495082 67.5351562,26.092623 67.5351562,26.6901639 L67.5351562,29.2795082 L66.6054687,29.2795082 L66.6054687,26.6901639 C66.6054687,26.0262295 66.40625,25.4286885 66.0742188,24.9639344 C65.9414062,24.8311475 65.875,24.6319672 65.7421875,24.5655738 C65.609375,24.3 65.5429688,24.0344262 65.5429688,23.7688525 C65.4765625,22.9057377 66.2070312,22.2418033 67.0703125,22.2418033 Z" id="Shape"></path>
                    <path d="M56.9101562,32.7983607 L77.0976562,32.7983607 C77.6953125,32.7983607 78.1601562,32.3336066 78.1601562,31.7360656 L78.1601562,19.7188525 C78.1601562,19.1213115 77.6953125,18.6565574 77.0976562,18.6565574 L56.9101562,18.6565574 C56.3125,18.6565574 55.8476562,19.1213115 55.8476562,19.7188525 L55.8476562,31.7360656 C55.9140625,32.3336066 56.3789062,32.7983607 56.9101562,32.7983607 Z M56.84375,19.7188525 C56.84375,19.652459 56.84375,19.652459 56.9101562,19.652459 L77.0976562,19.652459 C77.1640625,19.652459 77.1640625,19.652459 77.1640625,19.7188525 L77.1640625,31.7360656 C77.1640625,31.802459 77.1640625,31.802459 77.0976562,31.802459 L56.9101562,31.802459 C56.84375,31.802459 56.84375,31.802459 56.84375,31.7360656 L56.84375,19.7188525 L56.84375,19.7188525 Z" id="Shape"></path>
                    <path d="M39.9101563,62.8745902 C39.9765625,62.9409836 40.0429688,62.9409836 40.109375,62.9409836 C40.1757813,62.9409836 40.2421875,62.9409836 40.3085938,62.8745902 C43.4960938,61.2147541 46.1523438,58.957377 48.2109375,56.1688525 C49.6054688,54.2434426 50.734375,52.052459 51.53125,49.6622951 C53.1914063,44.8155738 52.9921875,40.8319672 52.9921875,40.6327869 C52.9921875,40.3672131 52.7929688,40.1680328 52.5273438,40.1680328 C52.5273438,40.1680328 52.5273438,40.1680328 52.5273438,40.1680328 C47.6796875,40.3008197 44.359375,38.9065574 42.3671875,37.7114754 C41.171875,36.9147541 40.5078125,36.2508197 40.5078125,36.2508197 C40.4414063,36.1844262 40.3085938,36.1180328 40.1757813,36.1180328 L40.1757813,36.1180328 C40.0429688,36.1180328 39.9101563,36.1844262 39.84375,36.2508197 C39.7773438,36.3172131 35.859375,40.3672131 27.7578125,40.1680328 C27.7578125,40.1680328 27.7578125,40.1680328 27.7578125,40.1680328 C27.4921875,40.1680328 27.2929687,40.3672131 27.2929687,40.6327869 C27.2265625,40.7655738 26.6953125,56.0360656 39.9101563,62.8745902 Z M28.2226562,41.1639344 C35.1289062,41.1639344 38.9804688,38.242623 40.109375,37.2467213 C40.4414062,37.5786885 41.0390625,38.0434426 41.9023438,38.5081967 C43.8945312,39.7032787 47.2148437,41.1639344 52.0625,41.1639344 C52.0625,42.3590164 51.8632813,45.6122951 50.6015625,49.3303279 C49.8046875,51.6540984 48.7421875,53.7122951 47.4140625,55.5713115 C45.4882812,58.2270492 43.03125,60.2852459 40.109375,61.8786885 C29.0195313,55.9696721 28.2226562,43.6868852 28.2226562,41.1639344 C28.2226562,41.1639344 28.2226562,41.1639344 28.2226562,41.1639344 Z" id="Shape"></path>
                    <path d="M39.84375,57.0319672 C39.9101562,57.0983607 40.0429687,57.0983607 40.109375,57.0983607 C40.2421875,57.0983607 40.3085937,57.0983607 40.375,57.0319672 C41.8359375,55.9696721 43.1640625,54.7081967 44.2265625,53.1811475 C45.3554688,51.6540984 46.21875,49.9278689 46.8828125,48.002459 C47.2148437,47.0729508 47.4140625,46.1434426 47.6132812,45.2139344 C47.6132812,45.0811475 47.6132812,44.9483607 47.546875,44.8155738 C47.4804688,44.6827869 47.3476562,44.6163934 47.2148437,44.6163934 C44.6914062,44.1516393 42.3671875,43.2885246 40.3085937,42.1598361 C40.1757812,42.0934426 39.9765625,42.0934426 39.84375,42.1598361 C37.7851562,43.354918 35.4609375,44.1516393 32.9375,44.6163934 C32.8046875,44.6163934 32.671875,44.6827869 32.6054687,44.8155738 C32.5390625,44.9483607 32.4726562,45.0811475 32.5390625,45.2139344 C33.3359375,48.7327869 35.1289062,53.6459016 39.84375,57.0319672 Z M40.1757812,43.1557377 C42.1679688,44.2180328 44.2929688,45.0147541 46.6835938,45.4795082 C46.484375,46.2098361 46.2851563,46.9401639 46.0859375,47.6704918 C45.4882812,49.5295082 44.625,51.1229508 43.5625,52.5836066 C42.6328125,53.845082 41.5039062,55.0401639 40.2421875,55.9696721 C36.1914062,52.9155738 34.4648437,48.6663934 33.734375,45.4795082 C35.9921875,45.0811475 38.1835938,44.2844262 40.1757812,43.1557377 Z" id="Shape"></path>
                    <path d="M17.5976562,28.7483607 L33.1367187,28.7483607 C33.4023437,28.7483607 33.6015625,28.5491803 33.6015625,28.2836066 C33.6015625,28.0180328 33.4023437,27.8188525 33.1367187,27.8188525 L17.5976562,27.8188525 C17.3320312,27.8188525 17.1328125,28.0180328 17.1328125,28.2836066 C17.0664062,28.5491803 17.3320312,28.7483607 17.5976562,28.7483607 Z" id="Shape"></path>
                </g>
            </g>
        </g>
    </g>
</svg>