<?xml version="1.0" encoding="UTF-8"?>
<svg width="81px" height="103px" viewBox="0 0 81 103" version="1.1" xmlns="http://www.w3.org/2000/svg" xmlns:xlink="http://www.w3.org/1999/xlink">
    <!-- Generator: Sketch 44.1 (41455) - http://www.bohemiancoding.com/sketch -->
    <title>doc</title>
    <desc>Created with Sketch.</desc>
    <defs></defs>
    <g id="Page-1" stroke="none" stroke-width="1" fill="none" fill-rule="evenodd">
        <g id="doc" fill="#FFFFFF">
            <g id="Group" transform="translate(0.000000, 0.292922)">
                <path d="M20.82603,0.411534939 C20.6091453,0.458586797 20.4100687,0.573989363 20.2539867,0.74314221 L20.1824813,0.779928509 C20.1703141,0.791905044 20.1583936,0.804170136 20.1467285,0.816714809 L0.589997474,18.0602929 C0.46323346,18.1464557 0.353809373,18.2592236 0.268223105,18.3919001 C0.248052858,18.4196078 0.214588323,18.4361144 0.19671769,18.4655906 C0.196544424,18.477852 0.196544424,18.4901156 0.19671769,18.5023769 C0.189509944,18.5151107 0.167783739,18.5263116 0.160964982,18.5391632 C0.0673275991,18.7192314 0.0180867559,18.9222137 0.0179541517,19.1286873 C0.0179816098,19.1422463 0.0175102461,19.1520324 0.0179541517,19.1654736 L0.0179541517,85.707952 C0.0316861367,86.3594042 0.522363119,86.8813875 1.12628809,86.8870001 L7.77629171,86.8870001 L7.77629171,93.003312 C7.77144568,93.6691712 8.26748647,94.2133772 8.88462564,94.2192642 L15.4631238,94.2192642 L15.4631238,100.630338 C15.4583385,101.296152 15.9543616,101.840285 16.5714578,101.846173 L78.9241799,101.846173 C79.2267122,101.853725 79.5191654,101.728666 79.7347601,101.499551 C79.9503548,101.270436 80.0706823,100.956828 80.0682665,100.630338 L80.0682665,16.5494607 C80.0706971,16.2229605 79.9503762,15.9093377 79.7347799,15.6802098 C79.5191835,15.4510818 79.2267217,15.3260144 78.9241799,15.3335673 L72.3814344,15.3335673 L72.3814344,8.92249345 C72.383865,8.59599329 72.2635441,8.28237047 72.0479477,8.05324254 C71.8323513,7.8241146 71.5398896,7.69904718 71.2373477,7.70660013 L64.6230968,7.70660013 L64.6230968,1.59028825 C64.6164197,1.27020069 64.4920995,0.966101586 64.2775136,0.744958292 C64.0629277,0.523814998 63.775674,0.403763201 63.4790102,0.411240177 L21.0405462,0.411240177 C20.969206,0.403823209 20.8973702,0.403823209 20.82603,0.411240177 L20.82603,0.411534939 Z M22.1488802,2.80647634 L62.3706763,2.80647634 L62.3706763,7.70689489 L28.7988838,7.70689489 C28.5358155,7.7113314 28.2826208,7.81570418 28.0838296,8.00165691 L28.0123242,8.03844321 C27.9866003,8.07380288 27.9627279,8.11068598 27.9408188,8.14892001 L22.1488802,13.2704101 L22.1488802,2.80635843 L22.1488802,2.80647634 Z M19.9322123,4.13290542 L19.9322123,15.2233264 L16.8217267,17.949875 L4.27252636,17.949875 L19.9322123,4.13290542 Z M29.9429704,10.1386815 L70.1290138,10.1386815 L70.1290138,15.3338621 L36.5572213,15.3338621 C36.5333923,15.3330397 36.509545,15.3330397 36.4857159,15.3338621 C36.4737991,15.3336565 36.46188,15.3336565 36.4499632,15.3338621 C36.3775208,15.3385846 36.3056766,15.3509049 36.235447,15.3706484 C36.1750318,15.37765 36.115246,15.3899529 36.0566834,15.4074347 C36.0445162,15.4194112 36.0325958,15.4316763 36.0209307,15.444221 C35.9839115,15.4665697 35.9481009,15.4911729 35.9136726,15.5179115 C35.8894423,15.5292586 35.8655922,15.5415284 35.8421672,15.5546978 C35.8179369,15.5660449 35.7940868,15.5783147 35.7706618,15.5914841 C35.7704885,15.6037455 35.7704885,15.616009 35.7706618,15.6282704 L35.6991564,15.6650567 C35.6989831,15.6773181 35.6989831,15.6895816 35.6991564,15.701843 L35.627651,15.7386293 C35.6154838,15.7506058 35.6035633,15.7628709 35.5918982,15.7754156 L29.9429704,20.7863699 L29.9429704,10.138092 L29.9429704,10.1386815 Z M27.6905499,11.4651106 L27.6905499,22.7397578 L24.866086,25.245235 L12.0308639,25.245235 L27.6905499,11.4651106 Z M37.5940499,17.7656488 L77.815846,17.7656488 L77.815846,99.4515259 L17.7155444,99.4515259 L17.7155444,35.3039888 L36.4857159,35.3039888 C37.1028336,35.2981017 37.5988656,34.7539319 37.5940499,34.0880955 L37.5940499,17.7656488 Z M35.377382,19.0920778 L35.377382,32.8722022 L19.7176961,32.8722022 L35.377382,19.0920778 Z M2.27037473,20.3448164 L14.104521,20.3448164 L8.45559315,25.3189255 C8.11012124,25.488276 7.86781708,25.8350935 7.81204441,26.2400568 C7.80781129,26.2652884 7.77901463,26.2882798 7.77629171,26.3137473 C7.77350812,26.3628284 7.77350812,26.4120472 7.77629171,26.4611283 C7.77635349,26.4733904 7.77589128,26.4857704 7.77629171,26.4979146 L7.77629171,84.4923534 L2.27037473,84.4923534 L2.27037473,20.3447575 L2.27037473,20.3448164 Z M10.0287123,27.6770216 L22.1131275,27.6770216 L16.1424253,32.9458927 C16.1054061,32.9682413 16.0695955,32.9928446 16.0351672,33.0195832 C15.9422553,33.0797985 15.8579507,33.1542678 15.7848982,33.2406547 C15.7316645,33.2967756 15.6837567,33.3584904 15.6418874,33.424881 C15.5991491,33.4943737 15.5632042,33.5684604 15.5346293,33.6459525 C15.5210626,33.6821325 15.509131,33.7190014 15.4988766,33.7564293 C15.4806193,33.8287614 15.46865,33.9027719 15.4631238,33.9775008 C15.4615604,34.0143071 15.4615604,34.0511713 15.4631238,34.0879776 C15.4603403,34.1370587 15.4603403,34.1862775 15.4631238,34.2353586 L15.4631238,91.8243818 L10.0287123,91.8243818 L10.0287123,27.6769037 L10.0287123,27.6770216 Z" id="Shape"></path>
                <path d="M28.3408922,84.7458488 C27.9282934,84.7398353 27.5445148,84.9632361 27.3365126,85.3305067 C27.1285103,85.6977773 27.1285103,86.1520164 27.3365126,86.519287 C27.5445148,86.8865576 27.9282934,87.1099584 28.3408922,87.1039449 L70.5301592,87.1039449 C70.9427579,87.1099584 71.3265366,86.8865576 71.5345388,86.519287 C71.742541,86.1520164 71.742541,85.6977773 71.5345388,85.3305067 C71.3265366,84.9632361 70.9427579,84.7398353 70.5301592,84.7458488 L28.3408922,84.7458488 Z" id="Shape"></path>
                <path d="M28.3408922,75.36322 C27.9282934,75.3572065 27.5445148,75.5806074 27.3365126,75.947878 C27.1285103,76.3151486 27.1285103,76.7693877 27.3365126,77.1366582 C27.5445148,77.5039288 27.9282934,77.7273297 28.3408922,77.7213162 L70.3853602,77.7213162 C70.7979589,77.7273297 71.1817375,77.5039288 71.3897398,77.1366582 C71.597742,76.7693877 71.597742,76.3151486 71.3897398,75.947878 C71.1817375,75.5806074 70.7979589,75.3572065 70.3853602,75.36322 L28.3408922,75.36322 Z" id="Shape"></path>
                <path d="M28.1850104,56.1175004 C27.7724116,56.111487 27.388633,56.3348878 27.1806308,56.7021584 C26.9726285,57.069429 26.9726285,57.5236681 27.1806308,57.8909387 C27.388633,58.2582092 27.7724116,58.4816101 28.1850104,58.4755966 L70.6749582,58.4755966 C71.087557,58.4816101 71.4713356,58.2582092 71.6793378,57.8909387 C71.8873401,57.5236681 71.8873401,57.069429 71.6793378,56.7021584 C71.4713356,56.3348878 71.087557,56.111487 70.6749582,56.1175004 L28.1850104,56.1175004 L28.1850104,56.1175004 Z" id="Shape"></path>
                <path d="M28.3298083,65.6681435 C27.9172095,65.6621301 27.5334309,65.8855309 27.3254287,66.2528015 C27.1174264,66.6200721 27.1174264,67.0743112 27.3254287,67.4415818 C27.5334309,67.8088523 27.9172095,68.0322532 28.3298083,68.0262397 L70.5301592,68.0262397 C70.9427579,68.0322532 71.3265366,67.8088523 71.5345388,67.4415818 C71.742541,67.0743112 71.742541,66.6200721 71.5345388,66.2528015 C71.3265366,65.8855309 70.9427579,65.6621301 70.5301592,65.6681435 L28.3298083,65.6681435 L28.3298083,65.6681435 Z" id="Shape"></path>
                <path d="M43.5618918,27.4891049 C43.1492931,27.4830914 42.7655144,27.7064923 42.5575122,28.0737629 C42.34951,28.4410335 42.34951,28.8952726 42.5575122,29.2625432 C42.7655144,29.6298137 43.1492931,29.8532146 43.5618918,29.8472011 L70.5301592,29.8472011 C70.9427579,29.8532146 71.3265366,29.6298137 71.5345388,29.2625432 C71.742541,28.8952726 71.742541,28.4410335 71.5345388,28.0737629 C71.3265366,27.7064923 70.9427579,27.4830914 70.5301592,27.4891049 L43.5618918,27.4891049 L43.5618918,27.4891049 Z" id="Shape"></path>
                <path d="M43.4170939,36.8835477 C43.0044952,36.8775343 42.6207165,37.1009351 42.4127143,37.4682057 C42.2047121,37.8354763 42.2047121,38.2897154 42.4127143,38.656986 C42.6207165,39.0242566 43.0044952,39.2476574 43.4170939,39.2416439 L70.3853602,39.2416439 C70.7979589,39.2476574 71.1817375,39.0242566 71.3897398,38.656986 C71.597742,38.2897154 71.597742,37.8354763 71.3897398,37.4682057 C71.1817375,37.1009351 70.7979589,36.8775343 70.3853602,36.8835477 L43.4170939,36.8835477 Z" id="Shape"></path>
                <path d="M28.1850104,46.578636 C27.7725073,46.5727762 27.388882,46.7962122 27.1809716,47.1634214 C26.9730612,47.5306306 26.9730612,47.9847494 27.1809716,48.3519586 C27.388882,48.7191678 27.7725073,48.9426038 28.1850104,48.936744 L70.8193992,48.936744 C71.2319023,48.9426038 71.6155275,48.7191678 71.8234379,48.3519586 C72.0313484,47.9847494 72.0313484,47.5306306 71.8234379,47.1634214 C71.6155275,46.7962122 71.2319023,46.5727762 70.8193992,46.578636 L28.1850104,46.578636 Z" id="Shape"></path>
            </g>
        </g>
    </g>
</svg>