<?xml version="1.0" encoding="UTF-8"?>
<svg width="81px" height="62px" viewBox="0 0 75 80" version="1.1" xmlns="http://www.w3.org/2000/svg" xmlns:xlink="http://www.w3.org/1999/xlink">
    <!-- Generator: Sketch 44.1 (41455) - http://www.bohemiancoding.com/sketch -->
    <title>Download Documents</title>
    <desc>Created with Sketch.</desc>
    <defs></defs>
    <g id="Page-1" stroke="none" stroke-width="1" fill="none" fill-rule="evenodd">
        <g id="home_d3" transform="translate(-1121.000000, -3051.000000)" stroke="#F3F3F3" stroke-width="1.2" fill="#1E7ED4" fill-rule="nonzero">
            <g id="Download-Documents" transform="translate(1121.000000, 3052.000000)">
                <path d="M19.1556818,62.6119565 C19.1642045,62.6085652 19.1727273,62.6077174 19.18125,62.6043261 C19.3346591,62.5407391 19.4735795,62.4483261 19.5894886,62.3338696 C19.5920455,62.3321739 19.5946023,62.3313261 19.5971591,62.3287826 L26.0241477,55.9353261 C26.5235795,55.4385 26.5235795,54.633913 26.0241477,54.137087 C25.5247159,53.6402609 24.7159091,53.6402609 24.2164773,54.137087 L19.9704545,58.3609565 L19.9704545,46.0276304 C19.9704545,45.3256304 19.3985795,44.7558913 18.6920455,44.7558913 C17.9855114,44.7558913 17.4136364,45.3256304 17.4136364,46.0276304 L17.4136364,58.3575652 L13.1693182,54.1353913 C12.6698864,53.6385652 11.8610795,53.6385652 11.3616477,54.1353913 C10.8622159,54.6322174 10.8622159,55.4368043 11.3616477,55.9336304 L17.7801136,62.3186087 C17.9011364,62.4415435 18.046875,62.5398913 18.2096591,62.6060217 C18.2139205,62.6077174 18.2190341,62.6085652 18.2232955,62.6102609 C18.3690341,62.6670652 18.5267045,62.7009783 18.6928977,62.7009783 L18.6963068,62.7009783 C18.8573864,62.7001304 19.0125,62.6670652 19.1556818,62.6119565 Z M69.4636364,6.35869565 L63.9630682,6.35869565 L63.9630682,3.39130435 C63.9630682,1.755 62.625,0.423913043 60.9801136,0.423913043 L16.0934659,0.423913043 C14.4485795,0.423913043 13.1105114,1.755 13.1105114,3.39130435 L13.1105114,36.8804348 C6,39.2187391 0.848863636,45.8818043 0.848863636,53.7292826 C0.848863636,61.5767609 5.99914773,68.2398261 13.1105114,70.5781304 L13.1105114,74.6086957 C13.1105114,76.245 14.4485795,77.576087 16.0934659,77.576087 L60.9801136,77.576087 C62.625,77.576087 63.9630682,76.245 63.9630682,74.6086957 L63.9630682,72.4891304 L66.0545455,72.4891304 C68.6386364,72.4891304 70.7420455,70.3966957 70.7420455,67.826087 L70.7420455,35.523913 L73.7471591,32.721 C74.0045455,32.4802174 74.1511364,32.1444783 74.1511364,31.7934783 L74.1511364,11.0217391 C74.1511364,8.45028261 72.0477273,6.35869565 69.4636364,6.35869565 Z M3.40568182,53.7292826 C3.40568182,45.3434348 10.2639205,38.5209783 18.69375,38.5209783 C27.1227273,38.5209783 33.9809659,45.3434348 33.9809659,53.7292826 C33.9809659,62.1151304 27.1235795,68.937587 18.69375,68.937587 C10.2639205,68.937587 3.40568182,62.1151304 3.40568182,53.7292826 Z M61.40625,74.6086957 C61.40625,74.8418478 61.2144886,75.0326087 60.9801136,75.0326087 L16.0934659,75.0326087 C15.8582386,75.0326087 15.6673295,74.8418478 15.6673295,74.6086957 L15.6673295,71.2055217 C16.6534091,71.3733913 17.6599432,71.4802174 18.69375,71.4802174 C28.5323864,71.4802174 36.5377841,63.516587 36.5377841,53.7284348 C36.5377841,43.9402826 28.5332386,35.9766522 18.69375,35.9766522 C17.6607955,35.9766522 16.6534091,36.0834783 15.6673295,36.2521957 L15.6673295,3.39130435 C15.6673295,3.15730435 15.8582386,2.9673913 16.0934659,2.9673913 L60.9801136,2.9673913 C61.2144886,2.9673913 61.40625,3.15730435 61.40625,3.39130435 L61.40625,74.6086957 Z M71.5943182,31.2423913 L68.5892045,34.0453043 C68.3318182,34.286087 68.1852273,34.6218261 68.1852273,34.9728261 L68.1852273,67.826087 C68.1852273,68.9952391 67.2298295,69.9456522 66.0545455,69.9456522 L63.9630682,69.9456522 L63.9630682,8.90217391 L69.4636364,8.90217391 C70.6389205,8.90217391 71.5943182,9.85343478 71.5943182,11.0217391 L71.5943182,31.2423913 L71.5943182,31.2423913 Z M53.0258523,11.0268261 L24.0485795,11.0268261 C23.3420455,11.0268261 22.7701705,11.5957174 22.7701705,12.2985652 C22.7701705,13.001413 23.3420455,13.5703043 24.0485795,13.5703043 L53.0258523,13.5703043 C53.7315341,13.5703043 54.3042614,13.001413 54.3042614,12.2985652 C54.3042614,11.5957174 53.7315341,11.0268261 53.0258523,11.0268261 Z M53.0258523,17.3855217 L35.128125,17.3855217 C34.4215909,17.3855217 33.8497159,17.954413 33.8497159,18.6572609 C33.8497159,19.3601087 34.4215909,19.929 35.128125,19.929 L53.0258523,19.929 C53.7315341,19.929 54.3042614,19.3601087 54.3042614,18.6572609 C54.3042614,17.954413 53.7315341,17.3855217 53.0258523,17.3855217 Z" id="Shape"></path>
            </g>
        </g>
    </g>
</svg>