<?xml version="1.0" encoding="UTF-8"?>
<svg width="42px" height="42px" viewBox="0 0 42 42" version="1.1" xmlns="http://www.w3.org/2000/svg" xmlns:xlink="http://www.w3.org/1999/xlink">
    <!-- Generator: Sketch 44.1 (41455) - http://www.bohemiancoding.com/sketch -->
    <title>go_to_top_btn</title>
    <desc>Created with Sketch.</desc>
    <defs></defs>
    <g id="Page-1" stroke="none" stroke-width="1" fill="none" fill-rule="evenodd">
        <g id="home_d3-copy(updated_with_purchased_images)" transform="translate(-1382.000000, -5184.000000)" fill="#1E7ED4">
            <g id="go_to_top_btn" transform="translate(1382.000000, 5184.000000)">
                <g id="Group">
                    <rect id="Rectangle-8" x="0" y="36.8666667" width="42" height="5.13333333"></rect>
                    <path d="M0,36.4 C0,39.48 2.52,42 5.6,42 L36.4,42 C39.48,42 42,39.48 42,36.4 L42,10.7333333 L0,10.7333333 L0,36.4 Z M14.28,22.2133333 L20.3466667,16.1466667 C20.72,15.7733333 21.28,15.7733333 21.6533333,16.1466667 L27.72,22.2133333 C28.0933333,22.5866667 28.0933333,23.1466667 27.72,23.52 C27.3466667,23.8933333 26.7866667,23.8933333 26.4133333,23.52 L21.9333333,19.04 L21.9333333,35.2333333 C21.9333333,35.7466667 21.5133333,36.1666667 21,36.1666667 C20.4866667,36.1666667 20.0666667,35.7466667 20.0666667,35.2333333 L20.0666667,19.04 L15.5866667,23.52 C15.2133333,23.8933333 14.6533333,23.8933333 14.28,23.52 C13.9066667,23.1466667 13.9066667,22.5866667 14.28,22.2133333 Z" id="Shape" fill-rule="nonzero"></path>
                    <path d="M36.4,0 L5.6,0 C2.52,0 0,2.52 0,5.6 L0,8.86666667 L42,8.86666667 L42,5.6 C42,2.52 39.48,0 36.4,0 Z" id="Shape" fill-rule="nonzero"></path>
                </g>
            </g>
        </g>
    </g>
</svg>