<?xml version="1.0" encoding="UTF-8"?>
<svg width="75px" height="75px" viewBox="0 0 75 75" version="1.1" xmlns="http://www.w3.org/2000/svg" xmlns:xlink="http://www.w3.org/1999/xlink">
    <!-- Generator: Sketch 44.1 (41455) - http://www.bohemiancoding.com/sketch -->
    <title>High Quality</title>
    <desc>Created with Sketch.</desc>
    <defs></defs>
    <g id="Page-1" stroke="none" stroke-width="1" fill="none" fill-rule="evenodd">
        <g id="home_d3-copy" transform="translate(-822.000000, -1352.000000)" fill-rule="nonzero">
            <g id="High-Quality" transform="translate(823.000000, 1353.000000)">
                <g id="Group" transform="translate(0.016393, 0.000000)">
                    <path d="M34.6885246,5.14513644 L34.6885246,15.0704225 L37.704918,15.0704225 L37.704918,5.14513644 L41.1631661,8.60073731 L43.2958505,6.46968537 L37.2630636,0.441516361 C36.6739243,-0.14717202 35.7195185,-0.14717202 35.1303792,0.441516361 L29.0975923,6.46968537 L31.2302767,8.60073731 L34.6885246,5.14513644 Z" id="Shape" stroke="#F3F3F3" stroke-width="1.9" fill="#1E7ED4"></path>
                    <path d="M20.1993788,13.1660156 L20.1993788,10.1519311 L11.6679047,10.1519311 C10.8350089,10.1519311 10.159708,10.8259792 10.159708,11.6589733 L10.159708,20.1846529 L13.1761014,20.1846529 L13.1761014,15.2972515 L19.1330365,21.2501788 L21.265721,19.1191268 L15.3086017,13.1660156 L20.1993788,13.1660156 L20.1993788,13.1660156 Z" id="Shape" stroke="#F3F3F3" stroke-width="1.9" fill="#1E7ED4"></path>
                    <path d="M13.5737705,37.6760563 L13.5737705,34.6619718 L5.14907787,34.6619718 L8.6073259,31.206371 L6.47464147,29.075319 L0.441854584,35.103488 C-0.147284761,35.6921764 -0.147284761,36.6458516 0.441854584,37.23454 L6.47464147,43.262709 L8.6073259,41.1316571 L5.14907787,37.6760563 L13.5737705,37.6760563 Z" id="Shape" stroke="#F3F3F3" stroke-width="1.9" fill="#1E7ED4"></path>
                    <path d="M19.1330367,51.0878494 L13.1761015,57.0407766 L13.1761015,52.1533753 L10.1597081,52.1533753 L10.1597081,60.6790548 C10.1597081,61.5120489 10.8350091,62.1860971 11.6679048,62.1860971 L20.199379,62.1860971 L20.199379,59.1720126 L15.3086018,59.1720126 L21.2657211,53.2189014 L19.1330367,51.0878494 Z" id="Shape" stroke="#F3F3F3" stroke-width="1.9" fill="#1E7ED4"></path>
                    <path d="M37.704918,67.1928917 L37.704918,57.2676056 L34.6885246,57.2676056 L34.6885246,67.1928917 L31.2302766,63.7372909 L29.0975921,65.8683428 L35.130379,71.8965118 C35.4249488,72.1908561 35.810835,72.3380282 36.1967213,72.3380282 C36.5826076,72.3380282 36.9684939,72.190856 37.2630636,71.8965118 L43.2958505,65.8683428 L41.1631661,63.7372909 L37.704918,67.1928917 Z" id="Shape" stroke="#F3F3F3" stroke-width="1.9" fill="#1E7ED4"></path>
                    <path d="M59.2166048,57.0407766 L53.2596696,51.0878494 L51.1269852,53.2189014 L57.0841045,59.1720126 L52.1933273,59.1720126 L52.1933273,62.1860971 L60.7248015,62.1860971 C61.5576973,62.1860971 62.2329982,61.5120489 62.2329982,60.6790548 L62.2329982,52.1533753 L59.2166048,52.1533753 L59.2166048,57.0407766 L59.2166048,57.0407766 Z" id="Shape" stroke="#F3F3F3" stroke-width="1.9" fill="#1E7ED4"></path>
                    <path d="M71.9515882,35.1034882 L65.9188013,29.0753192 L63.7861169,31.2063711 L67.2443648,34.6619718 L58.8196721,34.6619718 L58.8196721,37.6760563 L67.2443648,37.6760563 L63.7861167,41.1316572 L65.9188012,43.2627091 L71.951588,37.2345401 C72.5407275,36.6458517 72.5407275,35.6921766 71.9515882,35.1034882 Z" id="Shape" stroke="#F3F3F3" stroke-width="1.9" fill="#1E7ED4"></path>
                    <path d="M53.2596696,21.2501788 L59.2166048,15.2972515 L59.2166048,20.1846529 L62.2329982,20.1846529 L62.2329982,11.6589733 C62.2329982,10.8259792 61.5576973,10.1519311 60.7248015,10.1519311 L52.1933273,10.1519311 L52.1933273,13.1660156 L57.0841045,13.1660156 L51.1269852,19.1191268 L53.2596696,21.2501788 Z" id="Shape" stroke="#F3F3F3" stroke-width="1.9" fill="#1E7ED4"></path>
                    <polygon id="Shape" stroke="#1E7ED4" stroke-width="1.2" points="39.2647565 34.7929551 33.1280417 34.7929551 36.1966293 46.390484"></polygon>
                    <polygon id="Shape" stroke="#1E7ED4" stroke-width="1.2" points="30.0077204 34.7929551 24.2355357 34.7929551 32.8938589 45.7009828"></polygon>
                    <polygon id="Shape" stroke="#1E7ED4" stroke-width="1.2" points="30.6321161 27.5859375 25.798412 27.5859375 23.6048804 31.7788705 29.9007549 31.7788705"></polygon>
                    <polygon id="Shape" stroke="#1E7ED4" stroke-width="1.2" points="38.6986304 27.5859375 33.6946281 27.5859375 32.9632668 31.7788705 39.4296235 31.7788705"></polygon>
                    <polygon id="Shape" stroke="#1E7ED4" stroke-width="1.2" points="39.4991234 45.7013507 48.1579069 34.7929551 42.3849858 34.7929551"></polygon>
                    <polygon id="Shape" stroke="#1E7ED4" stroke-width="1.2" points="41.7611424 27.5859375 42.4921355 31.7788705 48.7885622 31.7788705 46.5950308 27.5859375"></polygon>
                </g>
            </g>
        </g>
    </g>
</svg>