<?xml version="1.0" encoding="UTF-8"?>
<svg width="82px" height="135px" viewBox="0 0 82 135" version="1.1" xmlns="http://www.w3.org/2000/svg" xmlns:xlink="http://www.w3.org/1999/xlink">
    <!-- Generator: Sketch 44.1 (41455) - http://www.bohemiancoding.com/sketch -->
    <title>home</title>
    <desc>Created with Sketch.</desc>
    <defs></defs>
    <g id="Page-1" stroke="none" stroke-width="1" fill="none" fill-rule="evenodd">
        <g id="home" fill-rule="nonzero" fill="#FFFFFF">
            <g id="Group">
                <path d="M81.3663823,94.7113486 L64.7913133,79.5259472 C64.5196294,79.2771402 64.1632648,79.1393035 63.7939629,79.1393035 L45.5746772,79.1393035 L45.5746772,39.5217593 C45.5746772,38.7157649 44.9160496,38.0616246 44.1045263,38.0616246 L41.7428759,38.0616246 L41.7428759,30.9548567 C41.7428759,30.1488623 41.0842483,29.494722 40.272725,29.494722 L24.4974181,29.494722 L24.4974181,10.5316599 C26.7026444,9.87985578 28.3292193,7.83099469 28.3292193,5.38380885 C28.3292193,2.41564693 25.9499271,0 23.0272672,0 C20.1034311,0 17.7253151,2.41564693 17.7253151,5.38380885 C17.7253151,7.83099469 19.35189,9.87985578 21.5571163,10.5316599 L21.5571163,29.494722 L5.78180937,29.494722 C4.97028608,29.494722 4.31165849,30.1488623 4.31165849,30.9548567 L4.31165849,38.0604565 L1.47015088,38.0604565 C0.658627593,38.0604565 0,38.7145968 0,39.5205912 L0,132.969215 C0,133.77521 0.658627593,134.42935 1.47015088,134.42935 L44.1045263,134.42935 L80.369032,134.42935 C81.1805553,134.42935 81.8391829,133.77521 81.8391829,132.969215 L81.8391829,95.7848396 C81.8391829,95.37717 81.6674692,94.9881901 81.3663823,94.7113486 Z M20.6644407,5.38380885 C20.6644407,4.02529948 21.7241255,2.9202695 23.0260911,2.9202695 C24.3280567,2.9202695 25.3877414,4.02529948 25.3877414,5.38380885 C25.3877414,6.74348633 24.3280567,7.84851631 23.0260911,7.84851631 C21.7241255,7.84851631 20.6644407,6.74348633 20.6644407,5.38380885 Z M7.25196024,32.4149915 L38.8025742,32.4149915 L38.8025742,38.0604565 L7.25196024,38.0604565 L7.25196024,32.4149915 Z M2.94030175,40.9818941 L5.78180937,40.9818941 L40.272725,40.9818941 L42.6343754,40.9818941 L42.6343754,80.5994382 L42.6343754,131.510249 L31.3636107,131.510249 L31.3636107,118.562942 L33.471219,118.562942 C34.1204377,118.562942 34.6473397,118.039629 34.6473397,117.394834 C34.6473397,116.750038 34.1204377,116.226726 33.471219,116.226726 L12.1046343,116.226726 C11.4554156,116.226726 10.9285136,116.750038 10.9285136,117.394834 C10.9285136,118.039629 11.4554156,118.562942 12.1046343,118.562942 L14.7015088,118.562942 L14.7015088,131.510249 L2.94030175,131.510249 L2.94030175,40.9818941 Z M29.0113693,118.562942 L29.0113693,131.510249 L17.0537502,131.510249 L17.0537502,118.562942 L29.0113693,118.562942 Z M78.8988811,131.510249 L45.5746772,131.510249 L45.5746772,82.059573 L63.2188399,82.059573 L78.8988811,96.4237946 L78.8988811,131.510249 Z" id="Shape"></path>
                <path d="M9.84883475,59.1845179 L19.0625643,59.1845179 C19.7117829,59.1845179 20.238685,58.6612056 20.238685,58.0164101 L20.238685,48.0874938 C20.238685,47.4426983 19.7117829,46.919386 19.0625643,46.919386 L9.84883475,46.919386 C9.19961612,46.919386 8.67271405,47.4426983 8.67271405,48.0874938 L8.67271405,58.0164101 C8.67271405,58.6612056 9.19961612,59.1845179 9.84883475,59.1845179 Z M11.0249555,49.2556016 L17.8852675,49.2556016 L17.8852675,56.8483023 L11.0249555,56.8483023 L11.0249555,49.2556016 Z" id="Shape"></path>
                <path d="M26.6097309,59.1845179 L35.8222843,59.1845179 C36.4715029,59.1845179 36.998405,58.6612056 36.998405,58.0164101 L36.998405,48.0874938 C36.998405,47.4426983 36.4715029,46.919386 35.8222843,46.919386 L26.6097309,46.919386 C25.9605122,46.919386 25.4336102,47.4426983 25.4336102,48.0874938 L25.4336102,58.0164101 C25.4336102,58.6612056 25.9605122,59.1845179 26.6097309,59.1845179 Z M27.7858516,49.2556016 L34.6461636,49.2556016 L34.6461636,56.8483023 L27.7858516,56.8483023 L27.7858516,49.2556016 Z" id="Shape"></path>
                <path d="M9.8006138,75.3429531 L19.0131673,75.3429531 C19.6623859,75.3429531 20.189288,74.8196408 20.189288,74.1748453 L20.189288,64.245929 C20.189288,63.6011335 19.6623859,63.0778212 19.0131673,63.0778212 L9.8006138,63.0778212 C9.15139517,63.0778212 8.6244931,63.6011335 8.6244931,64.245929 L8.6244931,74.1748453 C8.6244931,74.8196408 9.15139517,75.3429531 9.8006138,75.3429531 Z M10.9767345,65.4140368 L17.8370465,65.4140368 L17.8370465,73.0067375 L10.9767345,73.0067375 L10.9767345,65.4140368 Z" id="Shape"></path>
                <path d="M26.5603338,75.3429531 L35.7728872,75.3429531 C36.4221059,75.3429531 36.9490079,74.8196408 36.9490079,74.1748453 L36.9490079,64.245929 C36.9490079,63.6011335 36.4221059,63.0778212 35.7728872,63.0778212 L26.5603338,63.0778212 C25.9111152,63.0778212 25.3842131,63.6011335 25.3842131,64.245929 L25.3842131,74.1748453 C25.3842131,74.8196408 25.9111152,75.3429531 26.5603338,75.3429531 Z M27.7364545,65.4140368 L34.5967665,65.4140368 L34.5967665,73.0067375 L27.7364545,73.0067375 L27.7364545,65.4140368 Z" id="Shape"></path>
                <path d="M19.2777944,79.6264044 L10.0640648,79.6264044 C9.41484621,79.6264044 8.88794414,80.1497167 8.88794414,80.7945122 L8.88794414,90.7234285 C8.88794414,91.368224 9.41484621,91.8915363 10.0640648,91.8915363 L19.2766183,91.8915363 C19.9258369,91.8915363 20.452739,91.368224 20.452739,90.7234285 L20.452739,80.7945122 C20.4539151,80.1497167 19.927013,79.6264044 19.2777944,79.6264044 Z M18.1016737,89.5553207 L11.2401855,89.5553207 L11.2401855,81.96262 L18.1004976,81.96262 L18.1004976,89.5553207 L18.1016737,89.5553207 Z" id="Shape"></path>
                <path d="M36.0375144,79.6264044 L26.8249609,79.6264044 C26.1757423,79.6264044 25.6488402,80.1497167 25.6488402,80.7945122 L25.6488402,90.7234285 C25.6488402,91.368224 26.1757423,91.8915363 26.8249609,91.8915363 L36.0375144,91.8915363 C36.686733,91.8915363 37.2136351,91.368224 37.2136351,90.7234285 L37.2136351,80.7945122 C37.2136351,80.1497167 36.686733,79.6264044 36.0375144,79.6264044 Z M34.8613937,89.5553207 L28.0010816,89.5553207 L28.0010816,81.96262 L34.8613937,81.96262 L34.8613937,89.5553207 Z" id="Shape"></path>
                <path d="M20.404518,106.883032 L20.404518,96.9541155 C20.404518,96.30932 19.877616,95.7860077 19.2283973,95.7860077 L10.0158439,95.7860077 C9.36662526,95.7860077 8.83972319,96.30932 8.83972319,96.9541155 L8.83972319,106.883032 C8.83972319,107.527827 9.36662526,108.05114 10.0158439,108.05114 L19.2283973,108.05114 C19.877616,108.05114 20.404518,107.527827 20.404518,106.883032 Z M18.0522766,105.714924 L11.1919646,105.714924 L11.1919646,98.1222233 L18.0522766,98.1222233 L18.0522766,105.714924 Z" id="Shape"></path>
                <path d="M35.9892934,95.7860077 L26.77674,95.7860077 C26.1275214,95.7860077 25.6006193,96.30932 25.6006193,96.9541155 L25.6006193,106.883032 C25.6006193,107.527827 26.1275214,108.05114 26.77674,108.05114 L35.9892934,108.05114 C36.6385121,108.05114 37.1654141,107.527827 37.1654141,106.883032 L37.1654141,96.9541155 C37.1654141,96.3081519 36.6385121,95.7860077 35.9892934,95.7860077 Z M34.8131727,105.714924 L27.9528607,105.714924 L27.9528607,98.1222233 L34.8131727,98.1222233 L34.8131727,105.714924 Z" id="Shape"></path>
                <path d="M58.0015685,87.9012801 L48.7878389,87.9012801 C48.1386203,87.9012801 47.6117182,88.4245924 47.6117182,89.0693879 L47.6117182,98.9983042 C47.6117182,99.6430997 48.1386203,100.166412 48.7878389,100.166412 L58.0015685,100.166412 C58.6507871,100.166412 59.1776892,99.6430997 59.1776892,98.9983042 L59.1776892,89.0693879 C59.1776892,88.4234243 58.6519632,87.9012801 58.0015685,87.9012801 Z M56.8254478,97.8301964 L49.9639596,97.8301964 L49.9639596,90.2374957 L56.8254478,90.2374957 L56.8254478,97.8301964 Z" id="Shape"></path>
                <path d="M57.9239445,102.697702 L48.7113911,102.697702 C48.0621724,102.697702 47.5352704,103.221014 47.5352704,103.865809 L47.5352704,113.794726 C47.5352704,114.439521 48.0621724,114.962833 48.7113911,114.962833 L57.9239445,114.962833 C58.5731631,114.962833 59.1000652,114.439521 59.1000652,113.794726 L59.1000652,103.865809 C59.1000652,103.219846 58.5731631,102.697702 57.9239445,102.697702 Z M56.7478238,112.626618 L49.8875118,112.626618 L49.8875118,105.033917 L56.7478238,105.033917 L56.7478238,112.626618 Z" id="Shape"></path>
                <path d="M64.7454446,114.962833 L73.957998,114.962833 C74.6072167,114.962833 75.1341187,114.439521 75.1341187,113.794726 L75.1341187,103.865809 C75.1341187,103.221014 74.6072167,102.697702 73.957998,102.697702 L64.7454446,102.697702 C64.096226,102.697702 63.5693239,103.221014 63.5693239,103.865809 L63.5693239,113.794726 C63.5693239,114.439521 64.096226,114.962833 64.7454446,114.962833 Z M65.9215653,105.033917 L72.7818773,105.033917 L72.7818773,112.626618 L65.9215653,112.626618 L65.9215653,105.033917 Z" id="Shape"></path>
                <path d="M57.9239445,117.200928 L48.7113911,117.200928 C48.0621724,117.200928 47.5352704,117.72424 47.5352704,118.369036 L47.5352704,128.297952 C47.5352704,128.942748 48.0621724,129.46606 48.7113911,129.46606 L57.9239445,129.46606 C58.5731631,129.46606 59.1000652,128.942748 59.1000652,128.297952 L59.1000652,118.369036 C59.1000652,117.72424 58.5731631,117.200928 57.9239445,117.200928 Z M56.7478238,127.129844 L49.8875118,127.129844 L49.8875118,119.537144 L56.7478238,119.537144 L56.7478238,127.129844 Z" id="Shape"></path>
                <path d="M64.7454446,129.46606 L73.957998,129.46606 C74.6072167,129.46606 75.1341187,128.942748 75.1341187,128.297952 L75.1341187,118.369036 C75.1341187,117.72424 74.6072167,117.200928 73.957998,117.200928 L64.7454446,117.200928 C64.096226,117.200928 63.5693239,117.72424 63.5693239,118.369036 L63.5693239,128.297952 C63.5693239,128.942748 64.096226,129.46606 64.7454446,129.46606 Z M65.9215653,119.537144 L72.7818773,119.537144 L72.7818773,127.129844 L65.9215653,127.129844 L65.9215653,119.537144 Z" id="Shape"></path>
                <path d="M64.8230686,100.166412 L75.0764888,100.166412 C75.5551699,100.166412 75.9856301,99.8778894 76.1655766,99.4386808 C76.3455231,98.9983042 76.2396722,98.4936816 75.8974211,98.161939 L65.6440008,88.2330227 C65.3041019,87.9036163 64.8007223,87.8113358 64.3655576,87.9923925 C63.9292168,88.1746173 63.6469478,88.5986404 63.6469478,89.0682198 L63.6469478,98.9971361 C63.6469478,99.6430997 64.1738499,100.166412 64.8230686,100.166412 Z M65.9991893,91.8389715 L72.1855841,97.8290283 L65.9991893,97.8290283 L65.9991893,91.8389715 Z" id="Shape"></path>
                <rect id="Rectangle-path" x="21.6112179" y="120.023076" width="2.3522414" height="9.87985578"></rect>
            </g>
        </g>
    </g>
</svg>