<?xml version="1.0" encoding="UTF-8"?>
<svg width="53px" height="50px" viewBox="0 0 53 50" version="1.1" xmlns="http://www.w3.org/2000/svg" xmlns:xlink="http://www.w3.org/1999/xlink">
    <!-- Generator: Sketch 44.1 (41455) - http://www.bohemiancoding.com/sketch -->
    <title>Abstracting/Title search_icon Copy</title>
    <desc>Created with Sketch.</desc>
    <defs></defs>
    <g id="Page-1" stroke="none" stroke-width="1" fill="none" fill-rule="evenodd">
        <g id="services" transform="translate(-782.000000, -772.000000)" fill-rule="nonzero" fill="#232838">
            <g id="Group-7">
                <g id="Group-5-Copy" transform="translate(782.000000, 772.000000)">
                    <g id="Abstracting/Title-search_icon-Copy">
                        <path d="M52.767033,25.9302326 L26.9659341,0.174418605 C26.9076923,0.11627907 26.8494505,0.0581395349 26.732967,0.0581395349 C26.6164835,1.38777878e-16 26.4417582,0.0581395349 26.3252747,0.174418605 L0.582417582,25.9302326 C0.407692308,26.1046512 0.407692308,26.3372093 0.582417582,26.5116279 L3.84395604,29.7674419 C3.9021978,29.8255814 4.01868132,29.8837209 4.13516484,29.8837209 C4.25164835,29.8837209 4.36813187,29.8255814 4.42637363,29.7674419 L8.67802198,25.5232558 L8.67802198,45.8139535 L7.04725275,45.8139535 C6.93076923,45.8139535 6.81428571,45.872093 6.75604396,45.9302326 C6.6978022,45.9883721 6.63956044,46.1046512 6.63956044,46.2209302 L6.63956044,49.4186047 C6.63956044,49.6511628 6.81428571,49.8255814 7.04725275,49.8255814 L46.010989,49.8255814 C46.243956,49.8255814 46.4186813,49.6511628 46.4186813,49.4186047 L46.4186813,46.2790698 C46.4186813,46.0465116 46.243956,45.872093 46.010989,45.872093 L44.6131868,45.872093 L44.6131868,25.5813953 L48.8648352,29.8255814 C49.0395604,30 49.2725275,30 49.4472527,29.8255814 L52.7087912,26.5697674 C52.9417582,26.3372093 52.9417582,26.1046512 52.767033,25.9302326 Z M45.6032967,49.0697674 L7.45494505,49.0697674 L7.45494505,46.6860465 L45.6032967,46.744186 L45.6032967,49.0697674 Z M25.6263736,45.8139535 C25.5681319,45.8139535 25.5681319,45.8139535 25.5098901,45.8139535 L13.7450549,45.8139535 C13.7450549,45.8139535 12.3472527,45.8139535 9.55164835,45.8139535 L9.55164835,24.7093023 L26.6747253,7.61627907 L43.7978022,24.7093023 L43.7978022,45.8139535 L25.6263736,45.8139535 Z M49.156044,28.8953488 L26.9659341,6.74418605 C26.9076923,6.68604651 26.7912088,6.62790698 26.6747253,6.62790698 C26.5582418,6.62790698 26.4417582,6.68604651 26.3835165,6.74418605 L4.13516484,28.8953488 L1.45604396,26.2209302 L26.6747253,1.04651163 L51.8934066,26.2209302 L49.156044,28.8953488 Z M8.67802198,15.1744186 L8.67802198,6.74418605 C8.67802198,6.51162791 8.85274725,6.3372093 9.08571429,6.3372093 L13.2791209,6.3372093 C13.5120879,6.3372093 13.6868132,6.51162791 13.6868132,6.74418605 L13.6868132,10.8139535 C13.6868132,11.0465116 13.5120879,11.2209302 13.2791209,11.2209302 C13.0461538,11.2209302 12.8714286,11.0465116 12.8714286,10.8139535 L12.8714286,7.15116279 L9.49340659,7.15116279 L9.49340659,15.1162791 C9.49340659,15.3488372 9.31868132,15.5232558 9.08571429,15.5232558 C8.85274725,15.5232558 8.67802198,15.3488372 8.67802198,15.1744186 Z" id="Shape"></path>
                    </g>
                </g>
            </g>
        </g>
    </g>
</svg>