<?xml version="1.0" encoding="UTF-8"?>
<svg width="108px" height="112px" viewBox="0 0 108 112" version="1.1" xmlns="http://www.w3.org/2000/svg" xmlns:xlink="http://www.w3.org/1999/xlink">
    <!-- Generator: Sketch 44.1 (41455) - http://www.bohemiancoding.com/sketch -->
    <title>key</title>
    <desc>Created with Sketch.</desc>
    <defs></defs>
    <g id="Page-1" stroke="none" stroke-width="1" fill="none" fill-rule="evenodd">
        <g id="key" transform="translate(0.426696, 1.122367)" fill-rule="nonzero" stroke="#FFFFFF" stroke-width="0.6" fill="#FFFFFF">
            <g id="Group">
                <path d="M30.6312062,61.8910232 C13.769943,61.8910232 0.0510013631,48.0171817 0.0510013631,30.9641017 C0.0510013631,13.910592 13.7701555,0.0371803048 30.6312062,0.0371803048 C46.3842522,0.0371803048 59.7680725,12.4569065 61.1004831,28.3120499 C61.1404341,28.7852929 60.7936249,29.2005088 60.3256874,29.2406979 C59.8911133,29.2785229 59.4480389,28.9312202 59.4083003,28.4579773 C58.1504792,13.4844154 45.5097914,1.75499635 30.6312062,1.75499635 C14.7058181,1.75499635 1.74998427,14.8577226 1.74998427,30.9638868 C1.74998427,47.0698361 14.7058181,60.1725624 30.6312062,60.1725624 C44.9109504,60.1725624 57.2014289,49.4098312 59.2189578,35.1375372 C59.2869596,34.6651539 59.7349216,34.3380532 60.1794835,34.4085453 C60.6442334,34.4755988 60.967667,34.9110167 60.9011527,35.3808211 C58.7641956,50.4936479 45.7503478,61.8910232 30.6312062,61.8910232 Z" id="Shape"></path>
                <path d="M30.6312062,20.6548414 C26.8832435,20.6548414 23.8354871,17.57167 23.8354871,13.7820728 C23.8354871,9.99247557 26.8832435,6.90930416 30.6312062,6.90930416 C34.3791689,6.90930416 37.4269253,9.99247557 37.4269253,13.7820728 C37.4269253,14.2568201 37.0469652,14.6410882 36.5775401,14.6410882 C36.1079026,14.6410882 35.7281549,14.2568201 35.7281549,13.7820728 C35.7281549,10.9396062 33.4418063,8.62755004 30.6314187,8.62755004 C27.8210311,8.62755004 25.534895,10.9398211 25.534895,13.7820728 C25.534895,16.6243244 27.8210311,18.9363806 30.6314187,18.9363806 C31.3996267,18.9363806 32.1344714,18.7696065 32.8164021,18.4414312 C33.2363133,18.2351127 33.7437769,18.4171458 33.9477823,18.8474057 C34.1503003,19.2753016 33.9694579,19.787874 33.5463591,19.9918284 C32.6336472,20.4317595 31.653146,20.6548414 30.6312062,20.6548414 Z" id="Shape"></path>
                <g transform="translate(18.700500, 61.680621)" id="Shape">
                    <path d="M0.88784873,39.7281228 C0.418211178,39.7281228 0.038463528,39.3438547 0.038463528,38.8688924 L0.038463528,1.06941732 C0.038463528,0.594455047 0.418211178,0.210401841 0.88784873,0.210401841 C1.35727378,0.210401841 1.73723393,0.594455047 1.73723393,1.06941732 L1.73723393,38.8691074 C1.73723393,39.3438547 1.35727378,39.7281228 0.88784873,39.7281228 Z"></path>
                    <path d="M22.9733515,41.4463687 C22.5039265,41.4463687 22.1239663,41.0621006 22.1239663,40.5873532 L22.1239663,30.6339922 L18.9750572,27.4495958 C18.6431233,27.1138985 18.6431233,26.5703783 18.9750572,26.234681 L21.9399364,23.236401 L20.5146608,20.3539603 C20.3952326,20.1121808 20.3952326,19.8269886 20.5146608,19.585424 L21.9399364,16.7027684 L18.9750572,13.7044884 C18.6431233,13.3687911 18.6431233,12.8252709 18.9750572,12.4895736 L22.1239663,9.30517722 L22.1239663,1.07006207 C22.1239663,0.595099792 22.5039265,0.211046586 22.9733515,0.211046586 C23.4429891,0.211046586 23.8229492,0.595099792 23.8229492,1.07006207 L23.8229492,9.66107655 C23.8229492,9.88931634 23.7332718,10.1072402 23.5738926,10.2684265 L20.7766803,13.0971385 L23.5738926,15.9262803 C23.832937,16.1880468 23.8973262,16.587359 23.7332718,16.9176834 L22.2236315,19.9696922 L23.7332718,23.0219158 C23.8973262,23.3524552 23.832937,23.7517673 23.5738926,24.0135339 L20.7766803,26.8424608 L23.5738926,29.6713877 C23.7332718,29.832359 23.8229492,30.0504978 23.8229492,30.2787376 L23.8229492,40.5877831 C23.8229492,41.0621006 23.4429891,41.4463687 22.9733515,41.4463687 Z"></path>
                    <path d="M7.68335536,48.3189224 C7.43451121,48.3189224 7.1871546,48.2080262 7.01970012,47.9967647 L0.223980986,39.4057502 C-0.0680018175,39.0350218 -0.00998776695,38.4947253 0.356797036,38.1977127 C0.724856874,37.9024194 1.25930866,37.9628106 1.55129146,38.3320346 L8.3470106,46.9228342 C8.6389934,47.2937776 8.58097935,47.834074 8.21419455,48.1308717 C8.05672784,48.2585313 7.86908532,48.3189224 7.68335536,48.3189224 Z"></path>
                    <path d="M7.68335536,48.3189224 C7.35822167,48.3189224 7.04796338,48.1291524 6.9068596,47.808929 C6.71624201,47.3758751 6.9102597,46.8673861 7.33824613,46.6746073 L22.6282423,39.8018387 C23.0564412,39.6122836 23.5590172,39.803558 23.7498473,40.2381163 C23.9404649,40.6709552 23.7464472,41.1794442 23.3184607,41.372223 L8.02846458,48.2449916 C7.91562407,48.2954967 7.79938346,48.3189224 7.68335536,48.3189224 Z"></path>
                </g>
                <path d="M26.3838552,103.12699 C25.9142176,103.12699 25.53447,102.742722 25.53447,102.267975 L25.53447,64.4682845 C25.53447,63.9933222 25.9142176,63.6090541 26.3838552,63.6090541 C26.8532802,63.6090541 27.2332404,63.9933222 27.2332404,64.4682845 L27.2332404,102.267975 C27.2332404,102.742722 26.8532802,103.12699 26.3838552,103.12699 Z" id="Shape"></path>
                <path d="M30.6312062,55.87727 C17.0482682,55.87727 5.99712279,44.7016871 5.99712279,30.9656061 C5.99712279,30.4906439 6.37708294,30.1063757 6.84650799,30.1063757 C7.31614554,30.1063757 7.69589319,30.4906439 7.69589319,30.9656061 C7.69589319,43.7545564 17.9839307,54.1590242 30.6312062,54.1590242 C31.1008438,54.1590242 31.4805914,54.5432923 31.4805914,55.0182546 C31.4805914,55.4930019 31.1008438,55.87727 30.6312062,55.87727 Z" id="Shape"></path>
                <g transform="translate(61.201636, 22.780996)" id="Shape">
                    <path d="M12.7913544,56.2361782 C12.4362574,56.2361782 12.1060236,56.0096577 11.9865954,55.6505346 L0.0843647549,19.8190367 C0.00127503408,19.5714546 0.0346384258,19.299587 0.175742197,19.0808035 L3.54374472,13.7904545 C3.79598896,13.3911423 4.32002796,13.2770224 4.71677607,13.5329862 C5.11161162,13.7895948 5.22593968,14.3215096 4.97050785,14.7199621 L1.82499878,19.6630084 L13.3255937,54.2879732 L43.925774,43.8951109 L32.4232666,9.2692864 L13.0136353,2.08618046 L8.28857153,9.50676754 C8.03632729,9.90522005 7.51058824,10.0210593 7.11554018,9.76445069 C6.72091713,9.5076272 6.60637657,8.97571243 6.8618084,8.57725992 L11.953657,0.578766248 C12.1693503,0.240704864 12.5856489,0.101439907 12.9590214,0.236406563 L33.3905925,7.79711826 C33.6328489,7.88695276 33.821979,8.0831702 33.9033687,8.33053743 L45.8055993,44.1622503 C45.8787012,44.3786697 45.8621258,44.6135719 45.7607606,44.818386 C45.6613079,45.0229851 45.4853532,45.1772941 45.27136,45.2512249 L13.0618741,56.191046 C12.9721967,56.2211341 12.8810318,56.2361782 12.7913544,56.2361782 Z"></path>
                    <g transform="translate(10.625284, 19.557270)">
                        <path d="M8.05417777,27.428749 C7.92476181,27.428749 7.79534585,27.398446 7.67591766,27.3380549 C7.47361225,27.2372597 7.32082067,27.059525 7.24963127,26.8428906 L4.54507148,18.699974 C4.39589249,18.2503717 4.63474888,17.7640189 5.07931076,17.6127187 C5.5223851,17.4633528 6.00519801,17.7034129 6.1545895,18.1530152 L8.58841705,25.4822634 L23.0838545,20.5557655 L20.6500269,13.2284516 C20.5006354,12.7788493 20.7397043,12.2914219 21.1842662,12.1403366 C21.6290406,11.99269 22.1101535,12.2316755 22.2595449,12.6814928 L24.9638922,20.8244093 C25.1132837,21.2740116 24.8742148,21.7605793 24.4296529,21.9116646 L8.32491001,27.3851213 C8.23672015,27.413705 8.14534271,27.428749 8.05417777,27.428749 Z"></path>
                        <path d="M1.04637797,17.1214229 C0.918449548,17.1214229 0.789033589,17.0928392 0.668117857,17.0324481 C0.248206634,16.8209717 0.0775645731,16.304101 0.286457656,15.8798586 L7.77388278,0.649473302 C7.98128832,0.224156404 8.49555207,0.0513646986 8.91185069,0.262841115 C9.33176192,0.47431753 9.50240398,0.989254007 9.29351089,1.41478582 L1.80608577,16.6449562 C1.65860683,16.9469119 1.3581238,17.1214229 1.04637797,17.1214229 Z"></path>
                        <path d="M23.5930181,9.46163538 C23.4653022,9.46163538 23.3360987,9.43305167 23.2149705,9.3720158 L8.15533047,1.80120309 C7.73563176,1.58972668 7.56477719,1.0747902 7.77388278,0.649258387 C7.98128832,0.223941489 8.49555207,0.0511497835 8.91185069,0.262626199 L23.9714907,7.83322399 C24.3911894,8.04470041 24.562044,8.5598518 24.3529384,8.9851687 C24.2054595,9.28733927 23.9051889,9.46163538 23.5930181,9.46163538 Z"></path>
                        <path d="M2.12951942,20.3797501 C2.001591,20.3797501 1.87238754,20.3511664 1.75125931,20.2909902 C1.33156059,20.0795138 1.16070602,19.562643 1.36959911,19.1381858 L8.85553669,3.90629607 C9.06464228,3.48097918 9.57720598,3.30818747 9.9935046,3.51944897 C10.4134158,3.73092539 10.5842704,4.24607678 10.3751648,4.67139368 L2.88943973,19.9034983 C2.74174828,20.205454 2.44147776,20.3797501 2.12951942,20.3797501 Z"></path>
                        <path d="M24.6748845,12.7203924 C24.5471686,12.7203924 24.4177526,12.6918087 24.2966244,12.6305579 L9.23719689,5.05824078 C8.81728567,4.84697928 8.6466436,4.33182789 8.85553669,3.90651099 C9.06464228,3.48119409 9.57720598,3.30840238 9.9935046,3.51966389 L25.0531446,11.091981 C25.4728433,11.3032425 25.6436979,11.8183939 25.4348048,12.2437108 C25.2871134,12.5456664 24.9868428,12.7203924 24.6748845,12.7203924 Z"></path>
                        <path d="M16.1075055,24.69374 C15.7524085,24.69374 15.4206872,24.4670046 15.302959,24.1078816 L14.2210926,20.8495544 C14.0719136,20.3997372 14.31077,19.9116651 14.7553319,19.7605798 C15.2018063,19.6129332 15.6844067,19.8529933 15.8306106,20.3025956 L16.9122645,23.5609228 C17.061656,24.01074 16.8225871,24.4988121 16.3780252,24.6498974 C16.2881353,24.6804153 16.1969704,24.69374 16.1075055,24.69374 Z"></path>
                    </g>
                    <path d="M16.9721911,14.8658894 C16.6173066,14.8658894 16.2868603,14.6393689 16.1676446,14.2802459 C16.0184656,13.8306436 16.257322,13.3432162 16.7018839,13.1923458 C17.1466583,13.0412606 17.3872147,12.5529736 17.2378232,12.1042309 C17.0884317,11.6563479 16.6073189,11.4154282 16.1610569,11.5630748 C15.7162826,11.7141601 15.2353822,11.471521 15.0857782,11.0219187 C14.9365992,10.5721015 15.1754556,10.084889 15.62023,9.93380376 C16.9456279,9.48742518 18.3974667,10.2097547 18.8471287,11.5555528 C19.0645221,12.2099691 19.0164958,12.9088729 18.7128252,13.5254642 C18.4108546,14.1420555 17.8883031,14.6026185 17.2429234,14.8216169 C17.153246,14.851705 17.0618685,14.8658894 16.9721911,14.8658894 Z"></path>
                </g>
                <path d="M75.6256713,36.0915452 C75.6107959,36.0915452 75.595708,36.0915452 75.5808326,36.0906855 C41.2309895,34.265197 32.6470351,15.830858 32.2985258,15.0474926 C32.1059956,14.6152984 32.2968257,14.1087437 32.7231121,13.9131709 C33.1527986,13.7203921 33.653887,13.9097323 33.8481172,14.3410668 C33.9292944,14.5239595 42.4337717,32.6084168 75.6702975,34.3743739 C76.138235,34.3995189 76.4982196,34.803989 76.4733565,35.2778768 C76.4501933,35.7358607 76.0751208,36.0915452 75.6256713,36.0915452 Z" id="Shape"></path>
                <path d="M68.861403,26.9552912 C68.6839608,26.9552912 68.5065185,26.900058 68.355427,26.7857232 C66.3364105,25.2679931 64.0883129,23.8570757 61.6727609,22.5918708 C61.2562497,22.373732 61.0936829,21.8553569 61.3093762,21.4341234 C61.5250694,21.0113854 62.0393332,20.8501992 62.4558443,21.0668335 C64.951086,22.3739469 67.2771732,23.8345096 69.3675915,25.4066133 C69.7441516,25.6903011 69.8238412,26.2280186 69.5433337,26.6088481 C69.3758793,26.8353686 69.1204474,26.9552912 68.861403,26.9552912 Z" id="Shape"></path>
            </g>
        </g>
    </g>
</svg>