<?xml version="1.0" encoding="UTF-8"?>
<svg width="16px" height="19px" viewBox="0 0 16 19" version="1.1" xmlns="http://www.w3.org/2000/svg" xmlns:xlink="http://www.w3.org/1999/xlink">
    <!-- Generator: Sketch 46.2 (44496) - http://www.bohemiancoding.com/sketch -->
    <title>login</title>
    <desc>Created with Sketch.</desc>
    <defs></defs>
    <g id="Page-1" stroke="none" stroke-width="1" fill="none" fill-rule="evenodd">
        <g id="Group-15" transform="translate(-33.000000, -11.000000)" stroke-width="0.2" stroke="#1E7ED4" fill="#FFFFFF" fill-rule="nonzero">
            <g id="login" transform="translate(33.000000, 11.000000)">
                <g id="Group">
                    <path d="M12.1365854,8.81969309 C12.9682927,7.8842711 13.4780488,6.68158568 13.4780488,5.34526854 C13.4780488,2.45882353 11.1170732,0.106905371 8.2195122,0.106905371 C5.32195122,0.106905371 2.96097561,2.45882353 2.96097561,5.34526854 C2.96097561,6.68158568 3.47073171,7.8842711 4.30243902,8.81969309 C2.18292683,9.72838875 0.680487805,11.8397698 0.680487805,14.271867 L0.680487805,17.4255754 C0.680487805,17.7997442 0.975609756,18.093734 1.35121951,18.093734 L15.0878049,18.093734 C15.4634146,18.093734 15.7585366,17.7997442 15.7585366,17.4255754 L15.7585366,14.271867 C15.7585366,11.8130435 14.2560976,9.7016624 12.1365854,8.81969309 Z M14.4170732,16.7574169 L1.99512195,16.7574169 L1.99512195,14.271867 C1.99512195,12.1337596 3.47073171,10.3163683 5.48292683,9.83529412 C6.28780488,10.3163683 7.2,10.6103581 8.19268293,10.6103581 C9.18536585,10.6103581 10.1243902,10.3163683 10.902439,9.83529412 C12.9146341,10.3430946 14.3902439,12.1337596 14.3902439,14.271867 L14.3902439,16.7574169 L14.4170732,16.7574169 Z M4.27560976,5.34526854 C4.27560976,3.18043478 6.04634146,1.44322251 8.19268293,1.44322251 C10.3390244,1.44322251 12.1365854,3.18043478 12.1365854,5.34526854 C12.1365854,7.5101023 10.3658537,9.24731458 8.2195122,9.24731458 C6.07317073,9.24731458 4.27560976,7.48337596 4.27560976,5.34526854 Z" id="Shape"></path>
                </g>
            </g>
        </g>
    </g>
</svg>