<?xml version="1.0" encoding="UTF-8"?>
<svg width="24px" height="20px" viewBox="0 0 24 20" version="1.1" xmlns="http://www.w3.org/2000/svg" xmlns:xlink="http://www.w3.org/1999/xlink">
    <!-- Generator: Sketch 44.1 (41455) - http://www.bohemiancoding.com/sketch -->
    <title>login</title>
    <desc>Created with Sketch.</desc>
    <defs></defs>
    <g id="Page-1" stroke="none" stroke-width="1" fill="none" fill-rule="evenodd">
        <g id="home_d3" transform="translate(-1110.000000, -35.000000)" stroke-width="0.6" stroke="" fill="#FFFFFF" fill-rule="nonzero">
            <g id="Group-15" transform="translate(1084.000000, 25.000000)">
                <g id="login" transform="translate(27.000000, 11.000000)">
                    <g id="Group">
                        <path d="M4.07804878,5.21163683 L1.39512195,2.53900256 C1.12682927,2.27173913 0.697560976,2.27173913 0.456097561,2.53900256 C0.187804878,2.80626598 0.187804878,3.23388747 0.456097561,3.47442455 L2.65609756,5.66598465 L0.456097561,7.85754476 C0.187804878,8.12480818 0.187804878,8.55242967 0.456097561,8.79296675 C0.590243902,8.92659847 0.751219512,8.98005115 0.93902439,8.98005115 C1.12682927,8.98005115 1.28780488,8.92659847 1.42195122,8.79296675 L4.10487805,6.12033248 C4.34634146,5.8797954 4.34634146,5.47890026 4.07804878,5.21163683 Z" id="Shape"></path>
                        <path d="M7.02926829,5.21163683 L4.34634146,2.53900256 C4.07804878,2.27173913 3.64878049,2.27173913 3.40731707,2.53900256 C3.13902439,2.80626598 3.13902439,3.23388747 3.40731707,3.47442455 L5.60731707,5.66598465 L3.40731707,7.85754476 C3.13902439,8.12480818 3.13902439,8.55242967 3.40731707,8.79296675 C3.54146341,8.92659847 3.70243902,8.98005115 3.8902439,8.98005115 C4.07804878,8.98005115 4.23902439,8.92659847 4.37317073,8.79296675 L7.05609756,6.12033248 C7.29756098,5.8797954 7.29756098,5.47890026 7.02926829,5.21163683 Z" id="Shape"></path>
                        <path d="M18.1365854,8.81969309 C18.9682927,7.8842711 19.4780488,6.68158568 19.4780488,5.34526854 C19.4780488,2.45882353 17.1170732,0.106905371 14.2195122,0.106905371 C11.3219512,0.106905371 8.96097561,2.45882353 8.96097561,5.34526854 C8.96097561,6.68158568 9.47073171,7.8842711 10.302439,8.81969309 C8.18292683,9.72838875 6.6804878,11.8397698 6.6804878,14.271867 L6.6804878,17.4255754 C6.6804878,17.7997442 6.97560976,18.093734 7.35121951,18.093734 L21.0878049,18.093734 C21.4634146,18.093734 21.7585366,17.7997442 21.7585366,17.4255754 L21.7585366,14.271867 C21.7585366,11.8130435 20.2560976,9.7016624 18.1365854,8.81969309 Z M20.4170732,16.7574169 L7.99512195,16.7574169 L7.99512195,14.271867 C7.99512195,12.1337596 9.47073171,10.3163683 11.4829268,9.83529412 C12.2878049,10.3163683 13.2,10.6103581 14.1926829,10.6103581 C15.1853659,10.6103581 16.1243902,10.3163683 16.902439,9.83529412 C18.9146341,10.3430946 20.3902439,12.1337596 20.3902439,14.271867 L20.3902439,16.7574169 L20.4170732,16.7574169 Z M10.2756098,5.34526854 C10.2756098,3.18043478 12.0463415,1.44322251 14.1926829,1.44322251 C16.3390244,1.44322251 18.1365854,3.18043478 18.1365854,5.34526854 C18.1365854,7.5101023 16.3658537,9.24731458 14.2195122,9.24731458 C12.0731707,9.24731458 10.2756098,7.48337596 10.2756098,5.34526854 Z" id="Shape"></path>
                    </g>
                </g>
            </g>
        </g>
    </g>
</svg>