<?xml version="1.0" encoding="UTF-8"?>
<svg width="24px" height="24px" viewBox="0 0 24 24" version="1.1" xmlns="http://www.w3.org/2000/svg" xmlns:xlink="http://www.w3.org/1999/xlink">
    <!-- Generator: Sketch 44.1 (41455) - http://www.bohemiancoding.com/sketch -->
    <title>mail</title>
    <desc>Created with Sketch.</desc>
    <defs></defs>
    <g id="Page-1" stroke="none" stroke-width="1" fill="none" fill-rule="evenodd">
        <g id="home_d3" transform="translate(-856.000000, -34.000000)" stroke="#FFFFFF" stroke-width="0.4" fill="#FFFFFF" fill-rule="nonzero">
            <g id="mail" transform="translate(856.000000, 34.000000)">
                <g id="Group" transform="translate(0.000000, 0.196252)">
                    <path d="M23.6010391,0.134723077 C23.5185148,0.0745909204 23.4115372,0.0593097884 23.3154778,0.0939323077 L0.470492923,8.57921846 C0.349730597,8.62503588 0.270432364,8.74139121 0.271949302,8.87054412 C0.273466241,8.99969703 0.355475474,9.11415776 0.477280615,9.15712615 L10.9954775,12.8082462 L14.6465852,23.3264615 C14.6895567,23.4482667 14.8040208,23.5302735 14.9331748,23.5317863 C15.0623288,23.5332992 15.1786823,23.4539959 15.2244951,23.3332308 L23.7098031,0.488258462 C23.756322,0.359341754 23.7119769,0.215198713 23.6010391,0.134723077 L23.6010391,0.134723077 Z M22.2072126,1.16137846 L11.1518702,12.2167385 L1.48354646,8.85795692 L22.2072126,1.16137846 L22.2072126,1.16137846 Z M22.6423551,1.59652 L14.9457455,22.3201846 L11.5870203,12.6518769 L22.6423551,1.59652 Z" id="Shape"></path>
                </g>
            </g>
        </g>
    </g>
</svg>