<?xml version="1.0" encoding="UTF-8"?>
<svg width="103px" height="103px" viewBox="0 0 103 103" version="1.1" xmlns="http://www.w3.org/2000/svg" xmlns:xlink="http://www.w3.org/1999/xlink">
    <!-- Generator: Sketch 41.2 (35397) - http://www.bohemiancoding.com/sketch -->
    <title>mallet_leagal</title>
    <desc>Created with Sketch.</desc>
    <defs></defs>
    <g id="Page-1" stroke="none" stroke-width="1" fill="none" fill-rule="evenodd">
        <g id="mallet_leagal" transform="translate(-2.000000, -1.000000)" fill="#FFFFFF">
            <g id="Page-1">
                <g id="mallet_leagal" transform="translate(0.993969, 0.155877)">
                    <g id="noun_837055_cc" transform="translate(0.965949, 0.474821)">
                        <g id="Group" transform="translate(0.411754, 0.147693)">
                            <path d="M47.783256,0.429491567 C47.5053082,0.449900644 47.2434699,0.568014301 47.0438965,0.763012201 L26.9702845,20.9224816 C26.5146133,21.3845109 26.5146133,22.1280555 26.9702845,22.5900848 L37.5800941,33.2627451 C37.8029839,33.4936749 38.1098111,33.6240592 38.4303576,33.6240592 C38.7509041,33.6240592 39.0577314,33.4936749 39.2806211,33.2627451 L43.1622588,29.371671 L46.230601,32.4104146 L0.907860011,77.8433365 C0.4521888,78.3053658 0.4521888,79.0489104 0.907860011,79.5109396 L11.5916056,90.2206578 C12.0525144,90.6774367 12.7942558,90.6774367 13.2551646,90.2206578 L54.6592999,48.7158678 C54.9630699,48.4179792 55.0852286,47.9802654 54.9797601,47.5676091 C54.8742915,47.1549528 54.557219,46.8300463 54.1479805,46.7152786 C53.7387421,46.6005109 53.2995108,46.7133181 52.9957409,47.0112068 L12.4049012,87.7007241 L3.42168251,78.695667 L47.89416,34.0780177 L61.6092798,47.8264794 L57.6906741,51.7546113 C57.2350029,52.2166406 57.2350029,52.9601852 57.6906741,53.4222145 L68.3374518,64.0948748 C68.5603415,64.3258046 68.8671688,64.4561889 69.1877153,64.4561889 C69.5082618,64.4561889 69.815089,64.3258046 70.0379788,64.0948748 L90.1485588,43.9354054 C90.60423,43.4733761 90.60423,42.7298315 90.1485588,42.2678022 L79.5017811,31.5951419 C79.2153367,31.2978354 78.7951416,31.1714704 78.3927418,31.2616213 C78.167319,31.3125078 77.9616956,31.4284522 77.8012541,31.5951419 L73.9196165,35.486216 L55.4725955,17.0314076 L59.3542331,13.1032757 C59.8099044,12.6412464 59.8099044,11.8977018 59.3542331,11.4356725 L48.7444235,0.763012201 C48.7208798,0.737226789 48.6962104,0.712497412 48.6704875,0.688896504 C48.4220604,0.485421094 48.1018529,0.391800221 47.783256,0.429491567 Z M47.89416,3.28294588 L56.8773786,12.288003 L38.4303576,30.7428114 L29.484107,21.7748121 L47.89416,3.28294588 Z M53.8090365,18.6990107 L72.2190895,37.190877 L63.2728388,46.1588763 L44.8258178,27.7040678 L53.8090365,18.6990107 Z M78.6515176,34.1150756 L87.5977683,43.1201327 L69.1877153,61.5749411 L60.2414646,52.6069418 L78.6515176,34.1150756 Z M54.7702039,71.5805601 C54.2046447,71.6887353 53.7988908,72.1893388 53.8090365,72.7664113 L53.8090365,85.8107738 L49.0771353,85.8107738 C48.4238231,85.8108393 47.8942253,86.3417246 47.89416,86.996625 L47.89416,101.226839 C47.8942253,101.881739 48.4238231,102.412624 49.0771353,102.41269 L101.128048,102.41269 C101.78136,102.412624 102.310958,101.881739 102.311024,101.226839 L102.311024,86.996625 C102.310958,86.3417246 101.78136,85.8108393 101.128048,85.8107738 L96.396147,85.8107738 L96.396147,72.7664113 C96.3960817,72.1115109 95.8664839,71.5806256 95.2131718,71.5805601 L54.9920117,71.5805601 C54.9550641,71.5788223 54.9180555,71.5788223 54.8811078,71.5805601 C54.8441602,71.5788223 54.8071515,71.5788223 54.7702039,71.5805601 Z M56.174987,73.9522624 L94.0301965,73.9522624 L94.0301965,86.996625 C94.0302618,87.6515254 94.5598596,88.1824106 95.2131718,88.1824761 L99.9450729,88.1824761 L99.9450729,100.040988 L50.2601106,100.040988 L50.2601106,88.1824761 L53.9938763,88.1824761 L54.1047803,88.1824761 C54.2029768,88.1948228 54.3023275,88.1948228 54.4005241,88.1824761 L54.9920117,88.1824761 L55.1029157,88.1824761 L90.4812706,88.1824761 C90.907894,88.1885243 91.3047176,87.9638345 91.5197901,87.5944447 C91.7348625,87.225055 91.7348625,86.768195 91.5197901,86.3988052 C91.3047176,86.0294155 90.907894,85.8047257 90.4812706,85.8107738 L56.174987,85.8107738 L56.174987,73.9522624 Z" id="Shape"></path>
                        </g>
                    </g>
                </g>
            </g>
        </g>
    </g>
</svg>