<?xml version="1.0" encoding="UTF-8"?>
<svg width="26px" height="22px" viewBox="0 0 26 22" version="1.1" xmlns="http://www.w3.org/2000/svg" xmlns:xlink="http://www.w3.org/1999/xlink">
    <!-- Generator: Sketch 44.1 (41455) - http://www.bohemiancoding.com/sketch -->
    <title>menu_icon</title>
    <desc>Created with Sketch.</desc>
    <defs></defs>
    <g id="Page-1" stroke="none" stroke-width="1" fill="none" fill-rule="evenodd">
        <g id="home_d3" transform="translate(-1365.000000, -35.000000)" fill-rule="nonzero" fill="#FFFFFF">
            <g id="menu_icon" transform="translate(1364.251881, 35.000000)">
                <path d="M1.59073448,0.915534504 C1.30448044,0.928931229 1.04710569,1.09445566 0.915583393,1.34974181 C0.784061099,1.60502795 0.798378192,1.91128098 0.953140305,2.15311145 C1.10790242,2.39494191 1.37959096,2.53559978 1.66583963,2.52208824 L25.699488,2.52208824 C25.9883985,2.52618105 26.2571268,2.37397878 26.4027733,2.1237617 C26.5484197,1.87354462 26.5484197,1.56407812 26.4027733,1.31386105 C26.2571268,1.06364397 25.9883985,0.911441696 25.699488,0.915534504 L1.66583963,0.915534504 C1.64081834,0.914357299 1.61575576,0.914357299 1.59073448,0.915534504 Z M1.59073448,10.5548569 C1.30448044,10.5682537 1.04710569,10.7337781 0.915583393,10.9890642 C0.784061099,11.2443504 0.798378192,11.5506034 0.953140305,11.7924339 C1.10790242,12.0342643 1.37959096,12.1749222 1.66583963,12.1614107 L25.699488,12.1614107 C25.9883985,12.1655035 26.2571268,12.0133012 26.4027733,11.7630841 C26.5484197,11.5128671 26.5484197,11.2034006 26.4027733,10.9531835 C26.2571268,10.7029664 25.9883985,10.5507641 25.699488,10.5548569 L1.66583963,10.5548569 C1.64081834,10.5536797 1.61575576,10.5536797 1.59073448,10.5548569 Z M1.59073448,20.1941794 C1.30448044,20.2075761 1.04710569,20.3731005 0.915583393,20.6283867 C0.784061099,20.8836728 0.798378192,21.1899259 0.953140305,21.4317563 C1.10790242,21.6735868 1.37959096,21.8142447 1.66583963,21.8007331 L25.699488,21.8007331 C25.9883985,21.8048259 26.2571268,21.6526237 26.4027733,21.4024066 C26.5484197,21.1521895 26.5484197,20.842723 26.4027733,20.5925059 C26.2571268,20.3422888 25.9883985,20.1900866 25.699488,20.1941794 L1.66583963,20.1941794 C1.64081834,20.1930022 1.61575576,20.1930022 1.59073448,20.1941794 Z" id="Shape"></path>
            </g>
        </g>
    </g>
</svg>