<?xml version="1.0" encoding="UTF-8"?>
<svg width="75px" height="75px" viewBox="0 0 78 76" version="1.1" xmlns="http://www.w3.org/2000/svg" xmlns:xlink="http://www.w3.org/1999/xlink">
    <!-- Generator: Sketch 44.1 (41455) - http://www.bohemiancoding.com/sketch -->
    <title>Nationwide Team</title>
    <desc>Created with Sketch.</desc>
    <defs></defs>
    <g id="Page-1" stroke="none" stroke-width="1" fill="none" fill-rule="evenodd">
        <g id="home_d3-copy" transform="translate(-1118.000000, -1353.000000)" stroke-width="0.8" stroke="#F3F3F3" fill="#1E7ED4" fill-rule="nonzero">
            <g id="Nationwide-Team" transform="translate(1118.000000, 1353.000000)">
                <g id="Group">
                    <path d="M38.5343284,10.4061538 C41.2119403,10.4061538 43.4238806,8.18461538 43.4238806,5.49538462 C43.4238806,2.80615385 41.2119403,0.584615385 38.5343284,0.584615385 C35.8567164,0.584615385 33.6447761,2.80615385 33.6447761,5.49538462 C33.6447761,8.18461538 35.8567164,10.4061538 38.5343284,10.4061538 Z M38.5343284,2.33846154 C40.280597,2.33846154 41.6776119,3.74153846 41.6776119,5.49538462 C41.6776119,7.24923077 40.280597,8.65230769 38.5343284,8.65230769 C36.7880597,8.65230769 35.3910448,7.24923077 35.3910448,5.49538462 C35.3910448,3.74153846 36.7880597,2.33846154 38.5343284,2.33846154 Z" id="Shape"></path>
                    <path d="M48.8955224,16.1353846 C48.8955224,15.3169231 48.6626866,14.3815385 48.1970149,13.5630769 C47.7313433,12.6276923 46.8,11.9261538 45.8686567,11.5753846 L42.1432836,10.2892308 L39.1164179,16.0184615 L38.4179104,16.0184615 L35.3910448,10.2892308 L31.6656716,11.5753846 C30.6179104,11.9261538 29.8029851,12.6276923 29.3373134,13.5630769 C28.8716418,14.3815385 28.638806,15.3169231 28.638806,16.0184615 C28.638806,16.0184615 28.2895522,19.1753846 28.1731343,22.2153846 L28.1731343,23.1507692 L49.4776119,23.1507692 L49.4776119,22.2153846 C49.1283582,19.2923077 48.8955224,16.1353846 48.8955224,16.1353846 Z M45.6358209,21.3969231 L45.4029851,18.3569231 L43.6567164,18.4738462 L43.8895522,21.3969231 L33.4119403,21.3969231 L33.6447761,18.4738462 L31.8985075,18.3569231 L31.6656716,21.3969231 L29.8029851,21.3969231 C29.919403,18.7076923 30.2686567,16.2523077 30.2686567,16.1353846 C30.2686567,15.4338462 30.5014925,14.8492308 30.8507463,14.3815385 C31.2,13.7969231 31.6656716,13.4461538 32.2477612,13.2123077 L34.4597015,12.3938462 L37.2537313,17.7723077 L39.9313433,17.7723077 L42.7253731,12.3938462 L44.9373134,13.2123077 C45.519403,13.4461538 46.1014925,13.9138462 46.3343284,14.3815385 C46.5671642,14.8492308 46.8,15.4338462 46.9164179,16.2523077 C46.9164179,16.2523077 47.1492537,18.7076923 47.3820896,21.3969231 L45.6358209,21.3969231 Z" id="Shape"></path>
                    <path d="M43.4238806,57.76 C43.4238806,55.0707692 41.2119403,52.8492308 38.5343284,52.8492308 C35.8567164,52.8492308 33.6447761,55.0707692 33.6447761,57.76 C33.6447761,60.4492308 35.8567164,62.6707692 38.5343284,62.6707692 C41.2119403,62.6707692 43.4238806,60.4492308 43.4238806,57.76 Z M35.3910448,57.76 C35.3910448,56.0061538 36.7880597,54.6030769 38.5343284,54.6030769 C40.280597,54.6030769 41.6776119,56.0061538 41.6776119,57.76 C41.6776119,59.5138462 40.280597,60.9169231 38.5343284,60.9169231 C36.7880597,60.9169231 35.3910448,59.5138462 35.3910448,57.76 Z" id="Shape"></path>
                    <path d="M48.8955224,68.5169231 C48.8955224,67.6984615 48.6626866,66.7630769 48.1970149,65.9446154 C47.7313433,65.0092308 46.8,64.3076923 45.8686567,63.9569231 L42.1432836,62.6707692 L39.1164179,68.4 L38.4179104,68.4 L35.3910448,62.6707692 L31.6656716,63.9569231 C30.6179104,64.3076923 29.8029851,65.0092308 29.3373134,65.9446154 C28.8716418,66.7630769 28.638806,67.6984615 28.638806,68.4 C28.638806,68.4 28.2895522,71.5569231 28.1731343,74.5969231 L28.1731343,75.5323077 L49.4776119,75.5323077 L49.4776119,74.5969231 C49.1283582,71.5569231 48.8955224,68.5169231 48.8955224,68.5169231 Z M45.6358209,73.6615385 L45.4029851,70.6215385 L43.6567164,70.7384615 L43.8895522,73.6615385 L33.4119403,73.6615385 L33.6447761,70.7384615 L31.8985075,70.6215385 L31.7820896,73.6615385 L29.919403,73.6615385 C30.0358209,70.9723077 30.3850746,68.5169231 30.3850746,68.4 C30.3850746,67.6984615 30.6179104,67.1138462 30.9671642,66.6461538 C31.3164179,66.0615385 31.7820896,65.7107692 32.3641791,65.4769231 L34.5761194,64.6584615 L37.3701493,70.0369231 L40.0477612,70.0369231 L42.841791,64.6584615 L45.0537313,65.4769231 C45.6358209,65.7107692 46.2179104,66.1784615 46.4507463,66.6461538 C46.6835821,67.1138462 46.9164179,67.6984615 47.0328358,68.5169231 C47.0328358,68.5169231 47.2656716,70.9723077 47.4985075,73.6615385 L45.6358209,73.6615385 Z" id="Shape"></path>
                    <path d="M61.4686567,33.5569231 C61.4686567,36.2461538 63.680597,38.4676923 66.358209,38.4676923 C69.0358209,38.4676923 71.2477612,36.2461538 71.2477612,33.5569231 C71.2477612,30.8676923 69.0358209,28.6461538 66.358209,28.6461538 C63.680597,28.6461538 61.4686567,30.8676923 61.4686567,33.5569231 Z M66.358209,30.4 C68.1044776,30.4 69.5014925,31.8030769 69.5014925,33.5569231 C69.5014925,35.3107692 68.1044776,36.7138462 66.358209,36.7138462 C64.6119403,36.7138462 63.2149254,35.3107692 63.2149254,33.5569231 C63.2149254,31.8030769 64.6119403,30.4 66.358209,30.4 Z" id="Shape"></path>
                    <path d="M66.8238806,44.08 L66.241791,44.08 L63.2149254,38.3507692 L59.4895522,39.7538462 C58.441791,40.1046154 57.6268657,40.8061538 57.161194,41.7415385 C56.6955224,42.56 56.4626866,43.4953846 56.4626866,44.1969231 C56.4626866,44.1969231 56.1134328,47.3538462 55.9970149,50.3938462 L55.9970149,51.3292308 L77.3014925,51.3292308 L77.3014925,50.3938462 C77.1850746,47.3538462 76.8358209,44.3138462 76.8358209,44.3138462 C76.8358209,43.4953846 76.6029851,42.56 76.1373134,41.7415385 C75.6716418,40.8061538 74.7402985,40.1046154 73.8089552,39.7538462 L69.8507463,38.3507692 L66.8238806,44.08 Z M72.9940299,41.3907692 C73.5761194,41.6246154 74.158209,42.0923077 74.3910448,42.56 C74.6238806,43.0276923 74.8567164,43.6123077 74.9731343,44.4307692 C74.9731343,44.4307692 75.2059701,46.8861538 75.438806,49.5753846 L73.5761194,49.5753846 L73.3432836,46.5353846 L71.5970149,46.6523077 L71.8298507,49.5753846 L61.3522388,49.5753846 L61.5850746,46.6523077 L59.838806,46.5353846 L59.6059701,49.5753846 L57.7432836,49.5753846 C57.8597015,46.8861538 58.2089552,44.4307692 58.2089552,44.3138462 C58.2089552,43.6123077 58.441791,43.0276923 58.7910448,42.56 C59.1402985,41.9753846 59.6059701,41.6246154 60.1880597,41.3907692 L62.4,40.5723077 L65.1940299,45.9507692 L67.8716418,45.9507692 L70.6656716,40.5723077 L72.9940299,41.3907692 Z" id="Shape"></path>
                    <path d="M11.2925373,38.4676923 C13.9701493,38.4676923 16.1820896,36.2461538 16.1820896,33.5569231 C16.1820896,30.8676923 13.9701493,28.6461538 11.2925373,28.6461538 C8.61492537,28.6461538 6.40298507,30.8676923 6.40298507,33.5569231 C6.40298507,36.3630769 8.61492537,38.4676923 11.2925373,38.4676923 Z M11.2925373,30.4 C13.038806,30.4 14.4358209,31.8030769 14.4358209,33.5569231 C14.4358209,35.3107692 13.038806,36.7138462 11.2925373,36.7138462 C9.54626866,36.7138462 8.14925373,35.3107692 8.14925373,33.5569231 C8.14925373,31.8030769 9.54626866,30.4 11.2925373,30.4 Z" id="Shape"></path>
                    <path d="M22.119403,50.3938462 C22.0029851,47.3538462 21.6537313,44.3138462 21.6537313,44.3138462 C21.6537313,43.4953846 21.4208955,42.56 20.9552239,41.7415385 C20.4895522,40.8061538 19.558209,40.1046154 18.6268657,39.7538462 L14.9014925,38.4676923 L11.8746269,44.1969231 L11.1761194,44.1969231 L8.14925373,38.3507692 L4.4238806,39.7538462 C3.3761194,40.1046154 2.56119403,40.8061538 2.09552239,41.7415385 C1.62985075,42.56 1.39701493,43.4953846 1.39701493,44.1969231 C1.39701493,44.1969231 1.04776119,47.3538462 0.931343284,50.3938462 L0.931343284,51.3292308 L22.119403,51.3292308 L22.119403,50.3938462 Z M18.5104478,49.5753846 L18.2776119,46.5353846 L16.5313433,46.6523077 L16.7641791,49.5753846 L6.28656716,49.5753846 L6.51940299,46.6523077 L4.65671642,46.5353846 L4.4238806,49.5753846 L2.67761194,49.5753846 C2.79402985,46.8861538 3.14328358,44.4307692 3.14328358,44.3138462 C3.14328358,43.6123077 3.3761194,43.0276923 3.72537313,42.56 C4.07462687,41.9753846 4.54029851,41.6246154 5.12238806,41.3907692 L7.33432836,40.5723077 L10.1283582,45.9507692 L12.8059701,45.9507692 L15.6,40.5723077 L17.8119403,41.3907692 C18.3940299,41.6246154 18.9761194,42.0923077 19.2089552,42.56 C19.441791,43.0276923 19.6746269,43.6123077 19.7910448,44.4307692 C19.7910448,44.4307692 20.0238806,46.8861538 20.2567164,49.5753846 L18.5104478,49.5753846 Z" id="Shape"></path>
                    <path d="M14.4358209,52.6153846 L12.9223881,53.4338462 C14.319403,56.1230769 16.0656716,58.4615385 18.161194,60.6830769 C20.2567164,62.7876923 22.7014925,64.5415385 25.3791045,65.9446154 L26.1940299,64.4246154 C23.7492537,63.1384615 21.4208955,61.5015385 19.441791,59.5138462 C17.3462687,57.4092308 15.7164179,55.0707692 14.4358209,52.6153846 Z" id="Shape"></path>
                    <path d="M57.9761194,59.3969231 C55.9970149,61.3846154 53.6686567,63.0215385 51.2238806,64.3076923 L52.038806,65.8276923 C54.7164179,64.4246154 57.0447761,62.6707692 59.2567164,60.5661538 C61.3522388,58.4615385 63.0985075,56.0061538 64.4955224,53.3169231 L62.9820896,52.6153846 C61.7014925,55.0707692 59.9552239,57.4092308 57.9761194,59.3969231 Z" id="Shape"></path>
                    <path d="M62.9820896,27.36 L64.4955224,26.5415385 C63.0985075,23.8523077 61.3522388,21.5138462 59.2567164,19.2923077 C57.161194,17.1876923 54.7164179,15.4338462 52.038806,14.0307692 L51.2238806,15.5507692 C53.6686567,16.8369231 55.9970149,18.4738462 57.9761194,20.4615385 C59.9552239,22.5661538 61.7014925,24.7876923 62.9820896,27.36 Z" id="Shape"></path>
                    <path d="M18.161194,19.2923077 C16.0656716,21.3969231 14.319403,23.8523077 12.9223881,26.5415385 L14.4358209,27.36 C15.7164179,24.9046154 17.3462687,22.5661538 19.3253731,20.5784615 C21.3044776,18.5907692 23.6328358,16.9538462 26.0776119,15.6676923 L25.3791045,14.0307692 C22.7014925,15.4338462 20.2567164,17.1876923 18.161194,19.2923077 Z" id="Shape"></path>
                </g>
            </g>
        </g>
    </g>
</svg>