<?xml version="1.0" encoding="UTF-8"?>
<svg width="79px" height="78px" viewBox="0 0 79 78" version="1.1" xmlns="http://www.w3.org/2000/svg" xmlns:xlink="http://www.w3.org/1999/xlink">
    <!-- Generator: Sketch 44.1 (41455) - http://www.bohemiancoding.com/sketch -->
    <title>order tracking</title>
    <desc>Created with Sketch.</desc>
    <defs></defs>
    <g id="Page-1" stroke="none" stroke-width="1" fill="none" fill-rule="evenodd">
        <g id="home_d3-copy" transform="translate(-147.000000, -3775.000000)" fill-rule="nonzero" stroke="#FFFFFF" stroke-width="0.5" fill="#1E7ED4">
            <g id="order-tracking" transform="translate(148.000000, 3775.263672)">
                <g id="Group">
                    <rect id="Rectangle-path" x="67.4233894" y="37.761863" width="10.0062981" height="1.78683894"></rect>
                    <rect id="Rectangle-path" x="37.761863" y="0" width="1.78683894" height="10.0062981"></rect>
                    <rect id="Rectangle-path" x="0" y="37.761863" width="10.0062981" height="1.78683894"></rect>
                    <rect id="Rectangle-path" x="37.761863" y="67.4233894" width="1.78683894" height="10.0062981"></rect>
                    <path d="M70.2823317,34.4264303 L72.0691707,34.1881851 C70.0440865,19.178738 58.1318269,7.26647837 43.1223798,5.24139423 L42.8841346,7.14735577 C57.1788462,8.93419471 68.3763702,20.2508413 70.2823317,34.4264303 Z" id="Shape"></path>
                    <path d="M34.5455529,7.14735577 L34.3073077,5.36051683 C19.2978606,7.26647837 7.38560096,19.178738 5.36051683,34.1881851 L7.14735577,34.4264303 C9.05331731,20.2508413 20.2508413,8.93419471 34.5455529,7.14735577 Z" id="Shape"></path>
                    <path d="M42.8841346,70.2823317 L43.1223798,72.0691707 C58.2509495,70.0440865 70.1632091,58.1318269 72.0691707,43.0032572 L70.2823317,42.765012 C68.4954928,57.1788462 57.1788462,68.4954928 42.8841346,70.2823317 Z" id="Shape"></path>
                    <path d="M7.02823317,42.765012 L5.24139423,43.0032572 C7.14735577,58.1318269 19.0596154,70.0440865 34.1881851,72.0691707 L34.5455529,70.2823317 C20.2508413,68.4954928 8.93419471,57.1788462 7.02823317,42.765012 Z" id="Shape"></path>
                    <path d="M38.7148438,13.9373437 C38.7148438,13.9373437 38.7148438,13.9373437 38.7148438,13.9373437 C38.7148438,13.9373437 38.7148438,13.9373437 38.7148438,13.9373437 C32.4013462,13.9373437 26.5643389,16.3197957 21.9185577,20.4890865 C16.7962861,25.1348678 13.9373438,31.8057332 13.9373438,38.7148438 C13.9373438,45.6239543 16.7962861,52.2948197 21.9185577,56.940601 C26.4452163,61.1098918 32.4013462,63.4923438 38.7148438,63.4923438 C45.0283413,63.4923438 50.8653486,61.2290144 55.5111298,56.940601 C60.6334014,52.2948197 63.4923438,45.6239543 63.4923438,38.7148438 C63.4923438,31.8057332 60.6334014,25.1348678 55.5111298,20.4890865 C50.8653486,16.3197957 44.9092188,13.9373437 38.7148438,13.9373437 Z M51.6992067,37.761863 C51.5800841,33.2352043 50.9844712,29.1850361 49.7932452,25.6113582 C51.5800841,24.7775 53.2478005,23.586274 54.6772716,22.2759255 C58.8465625,26.3260938 61.2290144,31.9248558 61.4672596,37.6427404 L51.6992067,37.6427404 L51.6992067,37.761863 Z M39.6678245,15.8433053 C42.8841346,16.4389183 45.7430769,19.774351 47.6490385,24.7775 C45.1474639,25.8496034 42.5267668,26.4452163 39.6678245,26.5643389 L39.6678245,15.8433053 Z M37.761863,15.8433053 L37.761863,26.4452163 C35.0220433,26.3260938 32.2822236,25.7304808 29.780649,24.6583774 C31.8057332,19.774351 34.6646755,16.4389183 37.761863,15.8433053 Z M37.761863,28.3511779 L37.761863,37.8809856 L27.3981971,37.8809856 C27.5173197,33.7116947 28.1129327,29.8997716 29.1850361,26.5643389 C31.9248558,27.5173197 34.9029207,28.2320553 37.761863,28.3511779 Z M37.761863,39.6678245 L37.761863,49.1976322 C34.7837981,49.3167548 31.9248558,49.9123678 29.1850361,51.1035938 C28.1129327,47.7681611 27.5173197,43.8371154 27.3981971,39.7869471 L37.761863,39.7869471 L37.761863,39.6678245 Z M37.761863,50.9844712 L37.761863,61.5863822 C34.5455529,60.9907692 31.6866106,57.6553365 29.780649,52.6521875 C32.4013462,51.5800841 35.0220433,50.9844712 37.761863,50.9844712 Z M32.8778365,60.8716466 C29.6615264,60.0377885 26.5643389,58.4891947 23.9436418,56.2258654 C23.9436418,56.2258654 23.9436418,56.2258654 23.9436418,56.2258654 C25.2539904,55.153762 26.6834615,54.2007813 28.1129327,53.4860457 C29.4232813,56.5832332 30.971875,59.2039303 32.8778365,60.8716466 Z M39.6678245,61.5863822 L39.6678245,50.9844712 C42.4076442,51.1035938 45.1474639,51.6992067 47.6490385,52.7713101 C45.6239543,57.6553365 42.765012,60.9907692 39.6678245,61.5863822 Z M49.1976322,53.4860457 C50.746226,54.2007813 52.0565745,55.153762 53.3669231,56.2258654 C50.746226,58.3700721 47.7681611,60.0377885 44.551851,60.8716466 C46.4578125,59.2039303 48.0064063,56.5832332 49.1976322,53.4860457 Z M39.6678245,49.0785096 L39.6678245,39.5487019 L50.0314904,39.5487019 C49.9123678,43.7179928 49.3167548,47.5299159 48.2446514,50.8653486 C45.5048317,49.9123678 42.5267668,49.1976322 39.6678245,49.0785096 Z M39.6678245,37.761863 L39.6678245,28.2320553 C42.6458894,28.1129327 45.5048317,27.5173197 48.2446514,26.3260938 C49.3167548,29.6615264 49.9123678,33.5925721 50.0314904,37.6427404 L39.6678245,37.6427404 L39.6678245,37.761863 Z M53.4860457,21.2038221 C52.1756971,22.2759255 50.746226,23.2289063 49.3167548,23.9436418 C48.1255288,20.8464543 46.5769351,18.2257572 44.6709736,16.5580409 C47.8872837,17.391899 50.8653486,18.9404928 53.4860457,21.2038221 Z M28.2320553,23.9436418 C26.6834615,23.2289063 25.373113,22.2759255 24.0627644,21.2038221 C26.6834615,19.0596154 29.6615264,17.391899 32.8778365,16.5580409 C30.971875,18.3448798 29.4232813,20.8464543 28.2320553,23.9436418 Z M22.6332933,22.3950481 C24.181887,23.7053966 25.8496034,24.7775 27.5173197,25.7304808 C26.3260938,29.3041587 25.7304808,33.3543269 25.6113582,37.8809856 L15.7241827,37.8809856 C16.0815505,32.0439784 18.4640024,26.4452163 22.6332933,22.3950481 Z M15.8433053,39.6678245 L25.7304808,39.6678245 C25.8496034,44.1944832 26.4452163,48.2446514 27.6364423,51.8183293 C25.8496034,52.6521875 24.181887,53.8434135 22.7524159,55.153762 C18.4640024,50.9844712 16.0815505,45.3857091 15.8433053,39.6678245 Z M22.9906611,55.3920072 C23.1097837,55.5111298 23.2289063,55.6302524 23.3480288,55.749375 C23.3480288,55.749375 23.2289063,55.6302524 23.2289063,55.6302524 C23.1097837,55.5111298 22.9906611,55.5111298 22.9906611,55.3920072 Z M54.2007813,55.749375 C54.3199038,55.6302524 54.3199038,55.6302524 54.4390264,55.5111298 C54.3199038,55.5111298 54.3199038,55.6302524 54.2007813,55.749375 C54.2007813,55.6302524 54.2007813,55.6302524 54.2007813,55.749375 Z M54.7963942,55.0346394 C53.2478005,53.7242909 51.5800841,52.6521875 49.9123678,51.6992067 C51.1035938,48.1255288 51.6992067,44.0753606 51.8183293,39.5487019 L61.7055048,39.5487019 C61.348137,45.3857091 58.9656851,50.9844712 54.7963942,55.0346394 Z" id="Shape"></path>
                </g>
            </g>
        </g>
    </g>
</svg>