<?xml version="1.0" encoding="UTF-8"?>
<svg width="22px" height="23px" viewBox="0 0 22 23" version="1.1" xmlns="http://www.w3.org/2000/svg" xmlns:xlink="http://www.w3.org/1999/xlink">
    <!-- Generator: Sketch 44.1 (41455) - http://www.bohemiancoding.com/sketch -->
    <title>phone</title>
    <desc>Created with Sketch.</desc>
    <defs></defs>
    <g id="Page-1" stroke="none" stroke-width="1" fill="none" fill-rule="evenodd">
        <g id="home_d3" transform="translate(-665.000000, -34.000000)" fill-rule="nonzero" fill="#ffffff">
            <g id="phone" transform="translate(665.000000, 34.000000)">
                <g id="Group" transform="translate(0.000000, 0.172254)">
                    <g transform="translate(0.000000, 0.000027)" id="Shape">
                        <path d="M9.40096143,15.0148384 C9.97178286,15.6317131 10.66054,16.0125542 11.3107919,16.0890158 C11.9768105,16.15458 12.6802081,15.9278584 13.457874,15.0327493 C13.6988657,14.755371 13.9628971,14.4342257 14.4070038,14.2808084 C14.8511079,14.1273965 15.3847624,14.2226116 15.9522236,14.5374239 C17.0348174,15.3851442 18.1512938,16.2436726 19.2162771,17.1154695 C19.7239664,17.6389818 19.8546464,18.3284939 19.6908407,18.8699766 C19.527035,19.4114593 19.1760774,19.8216027 18.8516664,20.1649773 C17.0430805,22.1082968 14.9007807,23.047408 12.7981674,22.7191058 C10.7671012,22.356532 8.80165786,20.8896306 6.6230869,18.6431604 C5.68665429,17.6775448 4.95711595,16.9252663 4.03036071,15.9696297 C1.85178976,13.7231595 0.429225238,11.6964594 0.0776128571,9.60208852 C-0.34045,7.01189797 0.993978333,4.90354839 2.55453,3.35992078 C2.88752881,3.02540435 3.28527571,2.66350578 3.81039214,2.49459205 C4.33550857,2.32568102 5.00417762,2.46043121 5.5118669,2.98394629 C6.35731643,4.08212183 7.18989595,5.23340075 8.01199405,6.34973023 C8.31728857,6.93487472 8.40962571,7.48516159 8.2608481,7.94310968 C8.1120731,8.40106317 7.80063167,8.67332093 7.53163714,8.92182356 C6.66358262,9.72372423 6.44371619,10.44905 6.50729881,11.1358263 C6.58144405,11.8063418 6.95068524,12.5166572 7.54900929,13.1051748 M6.80823,13.8690446 C6.10759024,13.1671904 5.55510738,12.2669608 5.45977929,11.2372852 C5.36419714,10.2047442 5.78094786,9.08654584 6.83137976,8.11617704 C7.08724238,7.87979505 7.22658357,7.71652303 7.26541881,7.59699655 C7.30357048,7.4795901 7.3141619,7.30882641 7.0975981,6.88682431 L4.77108762,3.74781065 C4.47116738,3.43854554 4.35083524,3.44771433 4.12291786,3.52102686 C3.8949769,3.59435289 3.581435,3.83653323 3.28953167,4.12974284 C1.41447429,6.06324261 0.82535619,7.70088342 1.11348548,9.41714359 C1.4016331,11.1333821 2.65642667,13.0252348 4.77109024,15.2058059 C5.63906095,16.1008285 6.59340524,17.0849194 7.36381381,17.8793419 C9.47847476,20.0599076 11.3131517,21.3538092 12.9775198,21.6509374 C14.641901,21.9480441 16.2300417,21.3405731 18.1051017,19.4070707 C18.389449,19.1060696 18.6243017,18.7827556 18.6954167,18.5477104 C18.7665212,18.3126923 18.7754207,18.1886098 18.4754926,17.8793365 L15.4313526,15.4803214 C15.0221055,15.2570107 14.8565057,15.2679268 14.7426531,15.3072567 C14.6267314,15.3472834 14.4683917,15.4909728 14.2391648,15.7548261 C13.2981279,16.8379913 12.2137243,17.2677308 11.2123917,17.1691724 C10.2138352,17.0708759 9.34083595,16.5011496 8.66017952,15.7786974"></path>
                        <path d="M18.3354155,9.27793728 C18.6247076,9.27793728 18.859225,9.03611883 18.859225,8.73780225 C18.859225,8.43948567 18.6247076,8.19766722 18.3354155,8.19766722 L14.889731,8.19766722 L21.8465762,1.01554569 C22.0511369,0.804622956 22.0511421,0.466930533 21.8465762,0.256007802 C21.6420102,0.0450580645 21.3145271,0.0450580645 21.109969,0.256007802 L14.1449393,7.42964921 L14.1449393,3.87658695 C14.1449393,3.57827037 13.9104298,3.33645191 13.6211298,3.33645191 C13.3318298,3.33645191 13.0973202,3.57827037 13.0973202,3.87658695 L13.0973202,8.73780225 C13.0973202,9.03611883 13.3318376,9.27793728 13.6211298,9.27793728 L18.3354155,9.27793728 L18.3354155,9.27793728 Z"></path>
                    </g>
                </g>
            </g>
        </g>
    </g>
</svg>