<?xml version="1.0" encoding="UTF-8"?>
<svg width="75px" height="75px" viewBox="0 0 78 73" version="1.1" xmlns="http://www.w3.org/2000/svg" xmlns:xlink="http://www.w3.org/1999/xlink">
    <!-- Generator: Sketch 44.1 (41455) - http://www.bohemiancoding.com/sketch -->
    <title>Rapid Delivery</title>
    <desc>Created with Sketch.</desc>
    <defs></defs>
    <g id="Page-1" stroke="none" stroke-width="1" fill="none" fill-rule="evenodd">
        <g id="home_d3-copy" transform="translate(-532.000000, -1354.000000)" fill-rule="nonzero" stroke="#F3F3F3" stroke-width="0.9" fill="#1E7ED4">
            <g id="Rapid-Delivery" transform="translate(533.000000, 1354.000000)">
                <g id="Group">
                    <path d="M65.6857409,14.004 C66.6042945,12.3023415 67.1250699,10.4698537 67.1678136,8.676 C67.2306207,6.03570732 66.2771743,3.79053659 64.4828108,2.35229268 C62.6893197,0.914926829 60.3035228,0.48204878 57.7580913,1.13531707 C55.3251892,1.75960976 53.0248798,3.31726829 51.2819832,5.52204878 C50.6024455,6.38165854 50.0528835,7.3097561 49.6141062,8.26595122 C49.175329,7.3097561 48.625767,6.38165854 47.9462293,5.52204878 C46.2033327,3.31726829 43.9030233,1.75960976 41.4701212,1.13531707 C38.9273066,0.482926829 36.5388928,0.915804878 34.7454017,2.35229268 C32.9510382,3.78965854 31.9975918,6.03570732 32.0595266,8.676 C32.1013979,10.4698537 32.6230457,12.3023415 33.5424716,14.004 L14.9018527,14.004 L14.9018527,16.199122 L23.4174464,16.199122 L23.4174464,64.4637073 L3.34360485,64.4637073 L3.34360485,66.6588293 L75.7287679,66.6588293 L75.7287679,14.004 L65.6857409,14.004 Z M73.5479664,24.804878 L56.3161454,24.804878 L56.3161454,16.199122 L73.5488388,16.199122 L73.5488388,24.804878 L73.5479664,24.804878 Z M73.5479664,44.8542439 L73.5479664,51.4396098 L56.3161454,51.4396098 L56.3161454,27 L73.5488388,27 L73.5488388,42.659122 L62.0804399,42.659122 L62.0804399,44.8542439 L73.5479664,44.8542439 Z M54.1353439,53.6347317 L54.1353439,64.4637073 L45.0126151,64.4637073 L45.0126151,36.072878 L54.1353439,36.072878 L54.1353439,51.4387317 L50.8850774,51.4387317 L50.8850774,53.6338537 L54.1353439,53.6338537 L54.1353439,53.6347317 Z M40.2759143,9.84819512 C40.9615582,9.29941463 41.9211109,9.1457561 42.9687679,9.41443902 C44.1298267,9.71209756 45.2411631,10.475122 46.1021435,11.5612683 C46.6996831,12.3163902 47.1026952,13.1566829 47.3120522,14.004 L39.5606114,14.004 C38.9813905,12.3251707 39.241342,10.6779512 40.2759143,9.84819512 Z M59.6676011,14.004 L51.9161603,14.004 C52.1246449,13.1566829 52.5285294,12.3163902 53.126069,11.5612683 C53.9861771,10.4742439 55.0983858,9.71209756 56.2594445,9.41443902 C57.3079739,9.1457561 58.2666542,9.29941463 58.9522982,9.84907317 C59.9868705,10.6779512 60.246822,12.3251707 59.6676011,14.004 Z M42.8318136,16.199122 L42.8318136,24.804878 L25.5991202,24.804878 L25.5991202,16.199122 L42.8318136,16.199122 L42.8318136,16.199122 Z M45.0126151,16.199122 L54.1353439,16.199122 L54.1353439,24.804878 L45.0126151,24.804878 L45.0126151,16.199122 Z M54.1353439,27 L54.1353439,33.8777561 L45.0126151,33.8777561 L45.0126151,27 L54.1353439,27 Z M52.98737,6.88917073 C54.4362945,5.05756098 56.3222516,3.76946341 58.2971855,3.26282927 C60.1622069,2.78517073 61.8771892,3.07053659 63.1246076,4.07063415 C64.3720261,5.06985366 65.0332451,6.68721951 64.9878844,8.62507317 C64.9451407,10.440878 64.2909003,12.3251707 63.1359478,14.004878 L61.9286561,14.004878 C62.5035154,11.6736585 61.9373793,9.43639024 60.3105014,8.1324878 C59.079657,7.14468293 57.4501622,6.84439024 55.7203504,7.28868293 C54.1021957,7.704 52.5756347,8.73570732 51.4206822,10.1959024 C51.2662815,10.3908293 51.1232209,10.5901463 50.9871389,10.7938537 C51.3570028,9.44341463 52.0339236,8.09473171 52.98737,6.88917073 Z M34.2403281,8.62419512 C34.1940951,6.68634146 34.8561864,5.06985366 36.1036048,4.0697561 C37.3510233,3.06965854 39.0651333,2.78341463 40.931027,3.26195122 C42.9059609,3.76858537 44.791918,5.05668293 46.2408425,6.88917073 C47.1942889,8.09473171 47.8712097,9.44253659 48.2410736,10.7920976 C48.1049916,10.5883902 47.961931,10.3890732 47.8075303,10.1941463 C46.6534501,8.73482927 45.1268891,7.70312195 43.5078621,7.28780488 C41.7789226,6.8435122 40.1476831,7.14380488 38.9177111,8.13160976 C37.2908332,9.4355122 36.7246971,11.6727805 37.2995564,14.004 L36.093137,14.004 C34.9373122,12.3242927 34.2830718,10.44 34.2403281,8.62419512 Z M25.5991202,64.4637073 L25.5991202,27 L42.8318136,27 L42.8318136,33.8777561 L35.1475415,33.8777561 L35.1475415,36.072878 L42.8318136,36.072878 L42.8318136,64.4628293 L25.5991202,64.4628293 L25.5991202,64.4637073 Z M56.3161454,64.4637073 L56.3161454,53.6347317 L73.5488388,53.6347317 L73.5488388,64.4637073 L56.3161454,64.4637073 Z" id="Shape"></path>
                    <rect id="Rectangle-path" x="0.14567754" y="25.0972683" width="21.0813719" height="2.19512195"></rect>
                    <rect id="Rectangle-path" x="4.36160298" y="33.8786341" width="16.8645741" height="2.19512195"></rect>
                    <rect id="Rectangle-path" x="8.57752842" y="42.659122" width="12.6486486" height="2.19512195"></rect>
                    <rect id="Rectangle-path" x="12.7943262" y="51.4396098" width="8.43272321" height="2.19512195"></rect>
                    <rect id="Rectangle-path" x="34.1661808" y="69.5853659" width="40.4730587" height="2.19512195"></rect>
                    <rect id="Rectangle-path" x="7.99656291" y="5.48780488" width="20.5361715" height="2.19512195"></rect>
                </g>
            </g>
        </g>
    </g>
</svg>