<?xml version="1.0" encoding="UTF-8"?>
<svg width="24px" height="24px" viewBox="0 0 24 24" version="1.1" xmlns="http://www.w3.org/2000/svg" xmlns:xlink="http://www.w3.org/1999/xlink">
    <!-- Generator: Sketch 44.1 (41455) - http://www.bohemiancoding.com/sketch -->
    <title>Real Estate Brokers</title>
    <desc>Created with Sketch.</desc>
    <defs></defs>
    <g id="Page-1" stroke="none" stroke-width="1" fill="none" fill-rule="evenodd">
        <g id="home_d3" transform="translate(-457.000000, -1019.000000)" stroke-width="0.3" stroke="#1E7ED4" fill="#1E7ED4" fill-rule="nonzero">
            <g id="Real-Estate-Brokers" transform="translate(457.000000, 1019.000000)">
                <g id="Group">
                    <path d="M9.05426087,5.55443478 C8.95252174,5.45269565 8.78713043,5.45269565 8.6853913,5.55443478 L5.55495652,8.68486957 C5.50591304,8.73391304 5.47826087,8.80017391 5.47826087,8.86956522 L5.47826087,12 C5.47826087,12.144 5.59513043,12.2608696 5.73913043,12.2608696 L7.82608696,12.2608696 C7.97008696,12.2608696 8.08695652,12.144 8.08695652,12 L8.08695652,10.173913 L9.65217391,10.173913 L9.65217391,12 C9.65217391,12.144 9.76904348,12.2608696 9.91304348,12.2608696 L12,12.2608696 C12.144,12.2608696 12.2608696,12.144 12.2608696,12 L12.2608696,8.86956522 C12.2608696,8.80017391 12.2332174,8.73391304 12.1846957,8.68486957 L9.05426087,5.55443478 Z M11.7391304,11.7391304 L10.173913,11.7391304 L10.173913,9.91304348 C10.173913,9.76904348 10.0570435,9.65217391 9.91304348,9.65217391 L7.82608696,9.65217391 C7.68208696,9.65217391 7.56521739,9.76904348 7.56521739,9.91304348 L7.56521739,11.7391304 L6,11.7391304 L6,8.97756522 L8.86956522,6.108 L11.7391304,8.97756522 L11.7391304,11.7391304 Z" id="Shape"></path>
                    <path d="M9.05426087,3.46747826 C8.95252174,3.36573913 8.78713043,3.36573913 8.6853913,3.46747826 L3.468,8.68486957 C3.36626087,8.7866087 3.36626087,8.952 3.468,9.05373913 C3.56973913,9.15547826 3.73513043,9.15547826 3.83686957,9.05373913 L8.86956522,4.02104348 L13.9022609,9.05373913 C13.9533913,9.10486957 14.0201739,9.13043478 14.0869565,9.13043478 C14.1537391,9.13043478 14.2205217,9.10486957 14.2716522,9.05426087 C14.3733913,8.95252174 14.3733913,8.78713043 14.2716522,8.6853913 L9.05426087,3.46747826 Z" id="Shape"></path>
                    <path d="M23.6629565,23.2935652 L15.1293913,14.7605217 C16.5813913,13.2187826 17.4782609,11.1490435 17.4782609,8.86956522 C17.4782609,4.12278261 13.6163478,0.260869565 8.86956522,0.260869565 C4.12278261,0.260869565 0.260869565,4.12278261 0.260869565,8.86956522 C0.260869565,13.6163478 4.12278261,17.4782609 8.86956522,17.4782609 C11.1490435,17.4782609 13.2187826,16.5813913 14.7605217,15.1293913 L23.2935652,23.6624348 C23.3446957,23.7135652 23.4114783,23.7391304 23.4782609,23.7391304 C23.5450435,23.7391304 23.6118261,23.7135652 23.6629565,23.6629565 C23.7646957,23.5606957 23.7646957,23.3958261 23.6629565,23.2935652 Z M0.782608696,8.86956522 C0.782608696,4.41026087 4.41026087,0.782608696 8.86956522,0.782608696 C13.3288696,0.782608696 16.9565217,4.41026087 16.9565217,8.86956522 C16.9565217,13.3288696 13.3288696,16.9565217 8.86956522,16.9565217 C4.41026087,16.9565217 0.782608696,13.3288696 0.782608696,8.86956522 Z" id="Shape"></path>
                </g>
            </g>
        </g>
    </g>
</svg>