<?xml version="1.0" encoding="UTF-8"?>
<svg width="20px" height="20px" viewBox="0 0 20 20" version="1.1" xmlns="http://www.w3.org/2000/svg" xmlns:xlink="http://www.w3.org/1999/xlink">
    <!-- Generator: Sketch 41.2 (35397) - http://www.bohemiancoding.com/sketch -->
    <title>fa-arrow-circle-up</title>
    <desc>Created with Sketch.</desc>
    <defs></defs>
    <g id="Page-1" stroke="none" stroke-width="1" fill="none" fill-rule="evenodd">
        <g id="Interview-Sherpa_Revised_7_2_17_Design_A" transform="translate(-1354.000000, -8455.000000)" fill="#999999">
            <g id="Scrollup_btn" transform="translate(1332.000000, 8433.000000)">
                <path d="M32.0114369,42 C33.8080682,42 35.4882512,41.5560408 37.0291121,40.6462882 C38.5460595,39.7594094 39.7594094,38.5460595 40.669162,37.0051986 C41.5560408,35.4882512 42,33.8080682 42,31.9875234 C42,30.1908921 41.5560408,28.5107091 40.669162,26.9937617 C39.7594094,25.4539405 38.5460595,24.2395508 37.0291121,23.3297983 C35.4882512,22.4429195 33.8080682,22 32.0114369,22 C30.1908921,22 28.5107091,22.4429195 26.9937617,23.3297983 C25.4539405,24.2395508 24.2405906,25.4539405 23.3297983,26.9937617 C22.4429195,28.5107091 22,30.1908921 22,31.9875234 C22,33.8080682 22.4429195,35.4882512 23.3297983,37.0051986 C24.2405906,38.5460595 25.4539405,39.7594094 26.9937617,40.6462882 C28.5107091,41.5560408 30.1908921,42 32.0114369,42 Z M25.3364525,31.1713454 C25.3364525,30.937409 25.430027,30.7512996 25.5932626,30.588064 C25.7564982,30.4248284 25.9436473,30.3312539 26.176544,30.3312539 L32.7111666,30.3312539 L30.2376794,27.8806405 C30.0973175,27.7174049 30.0047827,27.5302558 30.0047827,27.2973591 C30.0047827,27.0634227 30.0973175,26.8533999 30.2376794,26.7140778 L31.4281555,25.5236016 C31.5913911,25.360366 31.7775005,25.2896652 32.0114369,25.2896652 C32.2443335,25.2896652 32.4543564,25.360366 32.5947182,25.5236016 L37.308796,30.2376794 L38.4992722,31.404242 C38.6625078,31.5674776 38.7321689,31.7546267 38.7321689,31.9875234 C38.7321689,32.2443335 38.6625078,32.4314826 38.4992722,32.5947182 L37.308796,33.7612809 L32.5947182,38.4753587 C32.4543564,38.6385943 32.2443335,38.7092951 32.0114369,38.7092951 C31.7775005,38.7092951 31.5913911,38.6385943 31.4281555,38.4753587 L30.2376794,37.2859222 C30.0744438,37.1216469 30.0047827,36.9355375 30.0047827,36.7016012 C30.0047827,36.4915783 30.0744438,36.2815554 30.2376794,36.1183198 L32.7111666,33.6677064 L26.176544,33.6677064 C25.9436473,33.6677064 25.7564982,33.5751716 25.5932626,33.411936 C25.430027,33.2487004 25.3364525,33.0615513 25.3364525,32.8276149 L25.3364525,31.1713454 L25.3364525,31.1713454 Z" id="fa-arrow-circle-up" transform="translate(32.000000, 32.000000) rotate(-90.000000) translate(-32.000000, -32.000000) "></path>
            </g>
        </g>
    </g>
</svg>