<?xml version="1.0" encoding="UTF-8"?>
<svg width="81px" height="62px" viewBox="0 0 71 64" version="1.1" xmlns="http://www.w3.org/2000/svg" xmlns:xlink="http://www.w3.org/1999/xlink">
    <!-- Generator: Sketch 44.1 (41455) - http://www.bohemiancoding.com/sketch -->
    <title>Send Request</title>
    <desc>Created with Sketch.</desc>
    <defs></defs>
    <g id="Page-1" stroke="none" stroke-width="1" fill="none" fill-rule="evenodd">
        <g id="home_d3" transform="translate(-539.000000, -3058.000000)">
            <g id="Send-Request" transform="translate(539.000000, 3059.000000)">
                <g id="noun_600988_cc" transform="translate(0.000000, 23.000000)" fill-rule="nonzero" fill="#1E7ED4">
                    <g id="Group" transform="translate(0.000000, 0.449373)">
                        <path d="M19.8604651,0.0960813636 C14.7762875,0.0960813636 10.6395349,4.205075 10.6395349,9.25517227 C10.6395349,14.3052132 14.7762875,18.4142632 19.8604651,18.4142632 C24.9446428,18.4142632 29.0813953,14.3052132 29.0813953,9.25517227 C29.0813953,4.205075 24.9446428,0.0960813636 19.8604651,0.0960813636 Z M19.8604651,1.50517227 C24.1779721,1.50517227 27.6627907,4.96660409 27.6627907,9.25517227 C27.6627907,13.5437405 24.1779721,17.0051723 19.8604651,17.0051723 C15.5429582,17.0051723 12.0581395,13.5437405 12.0581395,9.25517227 C12.0581395,4.96660409 15.5429582,1.50517227 19.8604651,1.50517227 Z M19.8604651,21.9369905 C8.97122319,21.9369905 0,29.1137723 0,38.1415359 C3.91661887e-05,38.5306295 0.317581692,38.8460425 0.709302326,38.8460814 L39.0116279,38.8460814 C39.4033485,38.8460425 39.7208911,38.5306295 39.7209302,38.1415359 C39.7209302,29.1137723 30.749707,21.9369905 19.8604651,21.9369905 Z M19.8604651,23.3460814 C29.8209147,23.3460814 37.7486789,29.6681086 38.2136628,37.4369905 L1.50726744,37.4369905 C1.97225157,29.6681086 9.90001557,23.3460814 19.8604651,23.3460814 Z" id="Shape"></path>
                    </g>
                </g>
                <g id="noun_971370_cc" transform="translate(33.000000, 0.000000)" stroke-width="1.2" stroke="#1E7ED4">
                    <g id="Group">
                        <g transform="translate(13.630435, 0.000000)" id="Shape" stroke-linejoin="round">
                            <polyline points="5.00782174 11.9625539 0.692425927 9.44099967 23.2519182 0 12.7678674 16.4969189 8.88054826 14.2254816"></polyline>
                            <polygon points="4.92002498 19.1428356 4.92002498 11.9609996 13.9179573 7.97105471"></polygon>
                        </g>
                        <path d="M18.5507014,12.5595001 C15.9536214,13.362955 13.9511506,15.5294183 13.3634385,18.2283549 C12.2384472,16.8470176 10.4684138,16.0176278 8.51517323,16.2079364 C6.39572064,16.4143639 4.56828055,17.906972 3.8447446,19.9238731 C3.4191544,21.1097457 3.44521242,22.232536 3.72455623,23.249536 C1.55306761,24.0471808 0,26.1368991 0,28.5969283 C0,31.8763629 2.46093507,34.0276919 5.71708518,34.0276919 L5.83470774,34.0276919 C6.48560109,35.5073724 8.34150513,36 9.18442733,36 C10.9117239,36 11.8357874,35.704964 13.5520998,34.0276919 C13.5520998,34.0276919 14.7508564,35.9932896 17.6615961,35.9932896 C20.4297766,35.9932896 21.8117426,34.3080805 22.0013659,34.0584536 C29.05207,37.4238812 32.8734015,31.7985535 32.8734015,28.5969283 C32.8734015,25.6356822 30.6268661,23.2036369 27.7545317,22.9267627 C28.2186876,21.8585451 28.4513666,20.6656359 28.3768013,19.4086642 C28.2918918,17.9765994 27.7983093,16.6442731 27.0164854,15.5255731" id="Shape"></path>
                    </g>
                </g>
            </g>
        </g>
    </g>
</svg>