<?xml version="1.0" encoding="UTF-8"?>
<svg width="26px" height="26px" viewBox="0 0 26 26" version="1.1" xmlns="http://www.w3.org/2000/svg" xmlns:xlink="http://www.w3.org/1999/xlink">
    <!-- Generator: Sketch 44.1 (41455) - http://www.bohemiancoding.com/sketch -->
    <title>Title Insurers </title>
    <desc>Created with Sketch.</desc>
    <defs></defs>
    <g id="Page-1" stroke="none" stroke-width="1" fill="none" fill-rule="evenodd">
        <g id="home_d3" transform="translate(-272.000000, -1018.000000)" fill-rule="nonzero" stroke="#FFFFFF" stroke-width="0.2" fill="#1E7ED4">
            <g id="Title-Insurers-" transform="translate(272.000000, 1018.000000)">
                <g id="Group">
                    <path d="M18.60625,22.8222222 C18.078125,21.6253968 16.9,21.1714286 15.721875,20.8412698 C14.909375,20.5936508 14.909375,20.3460317 14.95,20.0984127 L15.03125,19.9746032 C15.03125,19.9746032 15.071875,19.9333333 15.071875,19.9333333 C15.1125,19.8507937 15.19375,19.8095238 15.234375,19.7269841 C15.315625,19.5619048 15.396875,19.3968254 15.478125,19.1904762 C15.51875,19.1079365 15.51875,19.0253968 15.559375,18.9428571 C15.559375,18.9015873 15.559375,18.9015873 15.559375,18.8603175 C15.6,18.8190476 15.6,18.8190476 15.640625,18.7777778 L15.925,18.4888889 L15.965625,18.447619 C16.128125,18.2 16.16875,17.9111111 16.16875,17.8285714 L16.16875,17.7047619 C16.16875,17.6222222 16.209375,17.4984127 16.209375,17.415873 C16.209375,17.3333333 16.209375,17.2507937 16.209375,17.168254 C16.209375,16.9206349 16.128125,16.5904762 15.84375,16.384127 C15.84375,16.3428571 15.84375,16.3015873 15.84375,16.2603175 C15.925,16.0126984 15.965625,15.7238095 15.965625,15.4761905 C15.965625,15.0222222 15.884375,14.6095238 15.68125,14.2793651 C15.478125,13.9079365 15.1125,13.5777778 14.70625,13.4126984 C14.625,13.3714286 14.54375,13.3301587 14.4625,13.3301587 C14.015625,13.1650794 13.528125,13.0825397 13,13.0825397 C12.878125,13.0825397 12.796875,13.0825397 12.675,13.0825397 C12.35,13.0825397 11.94375,13.1238095 11.578125,13.3301587 C11.5375,13.3714286 11.45625,13.3714286 11.45625,13.4126984 C11.29375,13.4952381 11.171875,13.6190476 11.05,13.8253968 L10.96875,13.9079365 C10.96875,13.9079365 10.96875,13.9492063 10.928125,13.9492063 C10.846875,13.9904762 10.80625,14.031746 10.765625,14.031746 C10.5625,14.1142857 10.4,14.2793651 10.278125,14.4444444 C10.15625,14.6920635 10.075,14.9396825 10.075,15.2698413 C10.075,15.5174603 10.075,15.7650794 10.075,16.0952381 C10.075,16.2190476 10.115625,16.3015873 10.115625,16.384127 C9.871875,16.5492063 9.709375,16.9206349 9.75,17.2095238 C9.75,17.2920635 9.75,17.3746032 9.75,17.415873 C9.75,17.4984127 9.75,17.6222222 9.790625,17.7047619 L9.790625,17.8285714 C9.83125,18.0349206 9.871875,18.2412698 9.99375,18.447619 C10.034375,18.5301587 10.115625,18.6126984 10.15625,18.6952381 C10.196875,18.7777778 10.278125,18.8190476 10.359375,18.8603175 C10.440625,19.1904762 10.5625,19.4793651 10.725,19.7269841 L10.8875,19.9746032 L10.928125,19.9746032 C10.928125,19.9746032 10.96875,20.015873 10.96875,20.015873 L11.009375,20.0571429 C11.05,20.3047619 11.090625,20.5936508 10.2375,20.8412698 C9.18125,21.1301587 7.840625,21.7079365 7.353125,22.8222222 C7.190625,23.152381 7.190625,23.5238095 7.190625,23.8126984 C7.190625,23.8539683 7.190625,24.7619048 7.190625,24.8444444 C7.190625,25.1333333 7.434375,25.3809524 7.759375,25.3809524 C8.04375,25.3809524 8.2875,25.1333333 8.2875,24.8031746 C8.2875,24.7619048 8.2875,23.8952381 8.2875,23.8126984 C8.2875,23.5650794 8.328125,23.4 8.36875,23.2761905 C8.6125,22.6984127 9.384375,22.2444444 10.5625,21.9142857 C11.78125,21.584127 12.26875,20.8825397 12.10625,19.8507937 C12.065625,19.6857143 12.025,19.5619048 11.903125,19.3968254 C11.903125,19.3968254 11.8625,19.3555556 11.8625,19.3555556 L11.78125,19.1079365 C11.659375,18.9428571 11.578125,18.6952381 11.5375,18.447619 C11.496875,18.2412698 11.375,18.1174603 11.2125,17.952381 L11.13125,17.9111111 C11.13125,17.9111111 11.090625,17.9111111 11.090625,17.8698413 C11.090625,17.8698413 11.090625,17.8698413 11.05,17.8285714 C11.009375,17.7873016 10.96875,17.7460317 10.96875,17.6634921 L10.96875,17.5396825 C10.96875,17.4571429 10.96875,17.415873 10.928125,17.3333333 C10.928125,17.3333333 10.928125,17.3333333 10.928125,17.2920635 L11.05,17.2507937 C11.2125,17.1269841 11.334375,16.9619048 11.334375,16.7142857 C11.334375,16.5079365 11.29375,16.3428571 11.29375,16.1777778 C11.29375,16.0952381 11.253125,16.0539683 11.253125,15.9714286 C11.253125,15.7238095 11.2125,15.4761905 11.253125,15.2698413 C11.253125,15.1047619 11.29375,15.0222222 11.29375,14.9809524 C11.45625,14.8984127 11.5375,14.815873 11.659375,14.7333333 C11.821875,14.6095238 11.8625,14.5269841 11.903125,14.4444444 L11.94375,14.3619048 C11.984375,14.3206349 11.984375,14.2793651 12.065625,14.2380952 C12.26875,14.1555556 12.5125,14.1142857 12.75625,14.1142857 C12.8375,14.1142857 12.91875,14.1142857 13,14.1142857 C13.365625,14.1142857 13.73125,14.1968254 14.05625,14.3206349 C14.096875,14.3619048 14.178125,14.3619048 14.21875,14.4031746 C14.421875,14.4857143 14.584375,14.6507937 14.70625,14.815873 C14.7875,14.9809524 14.86875,15.1873016 14.828125,15.4349206 C14.828125,15.6 14.7875,15.8063492 14.746875,15.9714286 C14.70625,16.0952381 14.70625,16.2190476 14.70625,16.3428571 L14.70625,16.4666667 C14.665625,16.5904762 14.665625,16.7555556 14.746875,16.9619048 C14.828125,17.1269841 14.95,17.2507937 15.071875,17.2920635 C15.071875,17.2920635 15.071875,17.3333333 15.071875,17.3333333 C15.071875,17.415873 15.071875,17.4571429 15.03125,17.5396825 C15.03125,17.5809524 15.03125,17.6222222 14.990625,17.7047619 C14.990625,17.7873016 14.95,17.8285714 14.95,17.9111111 L14.86875,17.9936508 C14.7875,18.0349206 14.70625,18.1174603 14.625,18.2412698 C14.503125,18.4063492 14.421875,18.6126984 14.421875,18.7365079 C14.421875,18.7777778 14.421875,18.7777778 14.421875,18.8190476 C14.38125,18.9428571 14.340625,19.0666667 14.3,19.1492063 C14.1375,19.3968254 13.934375,19.6444444 13.89375,19.9333333 C13.73125,20.9650794 14.259375,21.6253968 15.4375,21.9968254 C16.371875,22.2444444 17.265625,22.615873 17.63125,23.3587302 C17.7125,23.5238095 17.7125,23.7301587 17.7125,23.8952381 C17.7125,23.9777778 17.7125,24.8031746 17.7125,24.8857143 C17.7125,25.1746032 17.95625,25.4634921 18.240625,25.4634921 C18.525,25.4634921 18.76875,25.215873 18.76875,24.9269841 C18.76875,24.8444444 18.76875,23.9365079 18.76875,23.8952381 C18.76875,23.5238095 18.76875,23.152381 18.60625,22.8222222 Z" id="Shape"></path>
                    <g transform="translate(0.000000, 12.793651)" id="Shape">
                        <path d="M25.553125,10.0698413 C25.025,8.91428571 23.8875,8.46031746 22.709375,8.13015873 C21.815625,7.88253968 21.85625,7.55238095 21.896875,7.3047619 L21.978125,7.18095238 L22.01875,7.13968254 C22.059375,7.05714286 22.1,7.01587302 22.18125,6.93333333 C22.2625,6.80952381 22.34375,6.64444444 22.425,6.43809524 C22.465625,6.35555556 22.465625,6.27301587 22.50625,6.23174603 C22.50625,6.23174603 22.50625,6.14920635 22.546875,6.14920635 C22.546875,6.14920635 22.5875,6.10793651 22.66875,6.06666667 L22.9125,5.77777778 L22.953125,5.73650794 C23.075,5.57142857 23.115625,5.32380952 23.15625,5.15873016 L23.196875,4.95238095 C23.196875,4.86984127 23.2375,4.82857143 23.2375,4.74603175 C23.2375,4.66349206 23.2375,4.58095238 23.2375,4.53968254 C23.2375,4.29206349 23.15625,3.96190476 22.871875,3.7968254 C22.871875,3.75555556 22.871875,3.67301587 22.9125,3.63174603 C22.99375,3.34285714 22.99375,3.0952381 23.034375,2.84761905 C23.034375,2.43492063 22.953125,2.02222222 22.75,1.69206349 C22.546875,1.32063492 22.221875,1.03174603 21.815625,0.866666667 C21.734375,0.825396825 21.653125,0.784126984 21.571875,0.784126984 C21.125,0.619047619 20.6375,0.536507937 20.15,0.536507937 C20.06875,0.536507937 19.946875,0.536507937 19.825,0.536507937 C19.5,0.577777778 19.134375,0.577777778 18.809375,0.742857143 C18.76875,0.784126984 18.728125,0.784126984 18.6875,0.825396825 C18.525,0.907936508 18.403125,1.03174603 18.321875,1.1968254 L18.240625,1.32063492 C18.2,1.36190476 18.2,1.36190476 18.2,1.36190476 C18.2,1.36190476 18.2,1.36190476 18.2,1.36190476 C17.915625,1.1968254 17.875,1.23809524 17.834375,1.23809524 C17.63125,1.32063492 17.509375,1.48571429 17.3875,1.65079365 C17.265625,1.85714286 17.184375,2.14603175 17.184375,2.47619048 C17.184375,2.72380952 17.184375,2.97142857 17.184375,3.26031746 C17.184375,3.34285714 17.225,3.46666667 17.225,3.54920635 L17.225,3.59047619 C16.98125,3.75555556 16.81875,4.08571429 16.859375,4.37460317 L16.859375,4.41587302 C16.859375,4.4984127 16.859375,4.58095238 16.859375,4.62222222 C16.859375,4.7047619 16.9,4.82857143 16.9,4.91111111 L16.9,4.99365079 C16.9,5.2 16.98125,5.40634921 17.103125,5.61269841 C17.184375,5.6952381 17.225,5.77777778 17.265625,5.81904762 C17.346875,5.9015873 17.3875,5.94285714 17.46875,5.98412698 C17.55,6.35555556 17.7125,6.64444444 17.875,6.93333333 L17.996875,7.05714286 C18.0375,7.0984127 18.0375,7.0984127 18.078125,7.13968254 L18.078125,7.13968254 C18.078125,7.13968254 18.078125,7.18095238 18.078125,7.18095238 L18.078125,7.18095238 C18.11875,7.38730159 18.159375,7.59365079 17.79375,7.84126984 L17.3875,8.08888889 L17.79375,8.37777778 C17.915625,8.46031746 17.996875,8.5015873 18.078125,8.58412698 L18.240625,8.70793651 L18.44375,8.58412698 C18.971875,8.21269841 19.175,7.67619048 19.053125,7.01587302 C19.0125,6.89206349 18.971875,6.72698413 18.890625,6.6031746 L18.890625,6.6031746 C18.890625,6.6031746 18.85,6.56190476 18.85,6.56190476 L18.85,6.47936508 L18.6875,6.35555556 C18.565625,6.14920635 18.484375,5.94285714 18.403125,5.6952381 C18.3625,5.44761905 18.2,5.32380952 18.11875,5.24126984 L18.0375,5.2 C18.0375,5.2 17.996875,5.2 17.95625,5.15873016 C17.95625,5.15873016 17.915625,5.11746032 17.915625,5.11746032 C17.875,5.03492063 17.875,4.99365079 17.834375,4.91111111 L17.875,4.7047619 C17.875,4.62222222 17.875,4.58095238 17.834375,4.53968254 C17.834375,4.4984127 17.834375,4.4984127 17.834375,4.45714286 L17.95625,4.41587302 C18.11875,4.33333333 18.240625,4.12698413 18.240625,3.92063492 C18.240625,3.71428571 18.2,3.54920635 18.2,3.38412698 C18.2,3.34285714 18.159375,3.26031746 18.159375,3.17777778 C18.11875,2.88888889 18.11875,2.68253968 18.159375,2.47619048 C18.159375,2.31111111 18.2,2.18730159 18.240625,2.14603175 C18.403125,2.06349206 18.525,1.98095238 18.60625,1.8984127 C18.728125,1.77460317 18.809375,1.69206349 18.85,1.60952381 L18.890625,1.56825397 C18.93125,1.52698413 18.971875,1.48571429 19.0125,1.44444444 L19.053125,1.44444444 C19.25625,1.36190476 19.5,1.32063492 19.784375,1.32063492 C19.865625,1.32063492 19.946875,1.32063492 20.028125,1.32063492 C20.028125,1.32063492 20.028125,1.32063492 20.028125,1.32063492 C20.39375,1.32063492 20.759375,1.4031746 21.125,1.52698413 C21.20625,1.56825397 21.246875,1.56825397 21.2875,1.60952381 C21.53125,1.73333333 21.69375,1.85714286 21.775,2.06349206 C21.896875,2.22857143 21.9375,2.43492063 21.9375,2.68253968 C21.9375,2.88888889 21.896875,3.05396825 21.85625,3.26031746 C21.815625,3.38412698 21.815625,3.50793651 21.815625,3.59047619 L21.815625,3.71428571 C21.815625,3.83809524 21.775,4.0031746 21.85625,4.16825397 C21.9375,4.33333333 22.059375,4.41587302 22.18125,4.4984127 C22.18125,4.53968254 22.18125,4.53968254 22.18125,4.58095238 C22.18125,4.62222222 22.18125,4.7047619 22.140625,4.78730159 C22.140625,4.86984127 22.140625,4.91111111 22.1,4.95238095 C22.1,5.07619048 22.059375,5.11746032 22.059375,5.15873016 L21.9375,5.2 C21.85625,5.28253968 21.775,5.32380952 21.734375,5.40634921 C21.6125,5.57142857 21.571875,5.73650794 21.53125,5.86031746 L21.53125,5.9015873 C21.53125,5.9015873 21.53125,5.94285714 21.53125,5.94285714 C21.490625,6.10793651 21.409375,6.19047619 21.36875,6.31428571 C21.36875,6.35555556 21.328125,6.35555556 21.328125,6.3968254 L21.2875,6.3968254 L21.084375,6.68571429 L21.084375,6.76825397 C21.04375,6.85079365 21.003125,6.97460317 21.003125,7.05714286 C20.840625,8.04761905 21.328125,8.70793651 22.50625,9.03809524 C23.440625,9.28571429 24.375,9.65714286 24.740625,10.4412698 C24.821875,10.6063492 24.821875,10.8126984 24.821875,11.0190476 L24.821875,12.0095238 C24.821875,12.1333333 24.8625,12.2571429 24.94375,12.3809524 C25.025,12.4634921 25.146875,12.5460317 25.26875,12.5460317 L25.26875,12.3396825 L25.26875,12.3396825 L25.26875,12.5460317 C25.5125,12.5460317 25.75625,12.3396825 25.75625,12.0920635 C25.75625,12.0095238 25.75625,11.431746 25.75625,11.0603175 C25.715625,10.7301587 25.675,10.4 25.553125,10.0698413 Z"></path>
                        <path d="M8.734375,3.63174603 C8.734375,3.59047619 8.734375,3.50793651 8.775,3.46666667 C8.85625,3.21904762 8.85625,2.97142857 8.896875,2.68253968 C8.896875,2.26984127 8.815625,1.85714286 8.6125,1.52698413 C8.409375,1.15555556 8.084375,0.866666667 7.678125,0.66031746 C7.596875,0.619047619 7.515625,0.577777778 7.434375,0.577777778 C6.9875,0.412698413 6.5,0.33015873 6.0125,0.33015873 C5.93125,0.33015873 5.809375,0.33015873 5.6875,0.33015873 C5.3625,0.371428571 4.996875,0.371428571 4.63125,0.536507937 C4.590625,0.577777778 4.509375,0.577777778 4.509375,0.619047619 C4.346875,0.701587302 4.225,0.825396825 4.103125,0.99047619 L4.021875,1.11428571 C3.98125,1.15555556 3.98125,1.15555556 3.98125,1.15555556 C3.9,1.1968254 3.859375,1.23809524 3.81875,1.23809524 C3.615625,1.32063492 3.453125,1.44444444 3.371875,1.65079365 C3.25,1.85714286 3.16875,2.14603175 3.16875,2.47619048 C3.16875,2.72380952 3.16875,2.97142857 3.209375,3.3015873 C3.209375,3.42539683 3.25,3.54920635 3.25,3.63174603 L3.25,3.63174603 C2.965625,3.7968254 2.84375,4.12698413 2.884375,4.41587302 C2.884375,4.4984127 2.884375,4.58095238 2.884375,4.66349206 C2.884375,4.74603175 2.884375,4.86984127 2.925,4.95238095 L2.925,5.07619048 C2.965625,5.28253968 3.00625,5.48888889 3.128125,5.65396825 C3.128125,5.6952381 3.209375,5.77777778 3.25,5.81904762 C3.33125,5.9015873 3.371875,5.94285714 3.453125,5.98412698 C3.534375,6.35555556 3.696875,6.64444444 3.9,6.93333333 L4.103125,7.22222222 C4.14375,7.46984127 4.225,7.8 3.290625,8.08888889 C2.275,8.37777778 0.934375,8.95555556 0.446875,10.0285714 C0.284375,10.3587302 0.284375,10.7301587 0.284375,10.9777778 C0.284375,11.3492063 0.284375,11.9269841 0.284375,12.0095238 C0.284375,12.2571429 0.528125,12.4634921 0.771875,12.4634921 L0.771875,12.4634921 L0.771875,12.4634921 C0.89375,12.4634921 1.015625,12.4222222 1.096875,12.2984127 C1.178125,12.215873 1.21875,12.0920635 1.21875,11.968254 L1.21875,10.9777778 C1.21875,10.7301587 1.259375,10.5650794 1.3,10.4412698 C1.625,9.6984127 2.68125,9.28571429 3.534375,9.03809524 C4.7125,8.70793651 5.2,8.04761905 5.0375,7.05714286 C4.996875,6.93333333 4.95625,6.76825397 4.875,6.64444444 L4.79375,6.56190476 L4.79375,6.43809524 L4.671875,6.35555556 C4.55,6.14920635 4.46875,5.94285714 4.3875,5.6952381 C4.346875,5.44761905 4.184375,5.32380952 4.103125,5.24126984 L4.021875,5.2 C4.021875,5.2 3.98125,5.2 3.940625,5.11746032 C3.940625,5.11746032 3.9,5.07619048 3.9,5.07619048 C3.859375,5.03492063 3.859375,4.95238095 3.81875,4.82857143 L3.81875,4.78730159 C3.81875,4.74603175 3.81875,4.74603175 3.81875,4.74603175 L3.81875,4.66349206 C3.81875,4.62222222 3.81875,4.53968254 3.81875,4.4984127 C3.81875,4.45714286 3.81875,4.45714286 3.81875,4.41587302 L3.940625,4.37460317 C4.103125,4.29206349 4.225,4.12698413 4.225,3.87936508 C4.225,3.67301587 4.184375,3.50793651 4.14375,3.38412698 C4.14375,3.3015873 4.103125,3.26031746 4.103125,3.17777778 C4.103125,2.93015873 4.0625,2.68253968 4.103125,2.47619048 C4.103125,2.31111111 4.14375,2.18730159 4.14375,2.14603175 C4.30625,2.06349206 4.428125,1.98095238 4.509375,1.8984127 C4.63125,1.81587302 4.7125,1.69206349 4.753125,1.60952381 L4.79375,1.52698413 C4.834375,1.48571429 4.875,1.44444444 4.915625,1.4031746 L4.95625,1.36190476 C5.159375,1.27936508 5.403125,1.23809524 5.646875,1.23809524 C5.728125,1.23809524 5.809375,1.23809524 5.890625,1.23809524 C5.890625,1.23809524 5.890625,1.23809524 5.890625,1.23809524 C6.296875,1.23809524 6.6625,1.32063492 6.9875,1.44444444 C7.06875,1.48571429 7.109375,1.48571429 7.15,1.52698413 C7.39375,1.65079365 7.55625,1.77460317 7.678125,1.98095238 C7.759375,2.14603175 7.840625,2.35238095 7.840625,2.6 C7.840625,2.76507937 7.8,2.97142857 7.759375,3.17777778 C7.71875,3.3015873 7.71875,3.42539683 7.71875,3.50793651 L7.71875,3.63174603 C7.71875,3.75555556 7.678125,3.92063492 7.759375,4.08571429 C7.840625,4.25079365 7.9625,4.33333333 8.084375,4.41587302 C8.084375,4.45714286 8.084375,4.45714286 8.084375,4.4984127 C8.084375,4.53968254 8.084375,4.58095238 8.084375,4.62222222 L8.084375,4.66349206 C8.084375,4.74603175 8.04375,4.78730159 8.04375,4.82857143 C8.04375,4.95238095 8.003125,4.99365079 7.9625,5.07619048 L7.88125,5.15873016 C7.8,5.24126984 7.71875,5.28253968 7.6375,5.40634921 C7.515625,5.57142857 7.475,5.73650794 7.434375,5.86031746 C7.434375,5.9015873 7.434375,5.9015873 7.39375,5.94285714 C7.353125,6.06666667 7.271875,6.19047619 7.23125,6.27301587 L7.190625,6.35555556 L7.15,6.35555556 L6.946875,6.68571429 L6.946875,6.76825397 C6.90625,6.85079365 6.865625,6.97460317 6.865625,7.05714286 C6.74375,7.75873016 6.9875,8.2952381 7.55625,8.66666667 L7.71875,8.79047619 L7.88125,8.66666667 C7.9625,8.58412698 8.084375,8.5015873 8.165625,8.46031746 L8.571875,8.17142857 L8.125,7.92380952 C7.71875,7.71746032 7.71875,7.51111111 7.8,7.26349206 L7.88125,7.13968254 L7.88125,7.13968254 C7.88125,7.0984127 7.921875,7.0984127 7.921875,7.0984127 C7.9625,7.01587302 8.003125,6.97460317 8.04375,6.89206349 C8.125,6.76825397 8.20625,6.6031746 8.2875,6.35555556 C8.328125,6.27301587 8.328125,6.19047619 8.36875,6.10793651 C8.36875,6.06666667 8.36875,6.02539683 8.36875,6.02539683 C8.36875,6.02539683 8.409375,5.98412698 8.490625,5.94285714 L8.775,5.65396825 L8.815625,5.61269841 C8.9375,5.40634921 9.01875,5.15873016 9.01875,4.99365079 L9.01875,4.95238095 C9.01875,4.91111111 9.01875,4.91111111 9.01875,4.91111111 C9.01875,4.82857143 9.059375,4.7047619 9.059375,4.58095238 C9.059375,4.4984127 9.059375,4.41587302 9.059375,4.37460317 C9.1,4.08571429 8.978125,3.7968254 8.734375,3.63174603 Z"></path>
                    </g>
                    <path d="M16.575,5.2 C16.453125,5.03492063 16.290625,4.91111111 16.046875,4.91111111 C15.884375,4.91111111 15.721875,4.99365079 15.6,5.07619048 C15.071875,5.61269841 14.421875,6.23174603 13.853125,6.80952381 L13.8125,6.85079365 C13.24375,7.38730159 12.59375,8.00634921 12.065625,8.54285714 L11.821875,8.79047619 L10.359375,7.26349206 C10.196875,7.0984127 10.034375,7.05714286 9.871875,7.05714286 C9.628125,7.0984127 9.425,7.22222222 9.34375,7.46984127 C9.2625,7.71746032 9.303125,7.92380952 9.50625,8.13015873 C10.2375,8.87301587 10.684375,9.32698413 11.415625,10.0698413 C11.496875,10.152381 11.578125,10.1936508 11.659375,10.2349206 C11.740625,10.2761905 11.821875,10.2761905 11.8625,10.2761905 C12.025,10.2761905 12.1875,10.1936508 12.309375,10.0698413 C12.91875,9.45079365 13.609375,8.79047619 14.38125,8.00634921 C15.03125,7.34603175 15.803125,6.6031746 16.4125,5.98412698 C16.4125,5.98412698 16.453125,5.94285714 16.453125,5.94285714 C16.696875,5.73650794 16.696875,5.40634921 16.575,5.2 Z" id="Shape"></path>
                    <path d="M19.6625,2.43492063 C19.134375,2.26984127 16.49375,1.27936508 14.21875,0.453968254 C13.446875,0.165079365 12.553125,0.165079365 11.78125,0.453968254 C9.50625,1.32063492 6.865625,2.26984127 6.3375,2.47619048 C5.728125,2.64126984 5.3625,3.21904762 5.403125,3.83809524 C5.403125,4.0031746 5.44375,4.16825397 5.44375,4.25079365 C5.85,8.08888889 7.3125,11.3904762 9.75,13.9492063 C9.9125,13.6603175 10.15625,13.4539683 10.440625,13.3301587 C10.440625,13.3301587 10.48125,13.2888889 10.48125,13.247619 C8.20625,10.8539683 6.825,7.75873016 6.459375,4.12698413 C6.459375,4.04444444 6.459375,3.92063492 6.41875,3.75555556 C6.41875,3.63174603 6.5,3.50793651 6.621875,3.46666667 C7.190625,3.3015873 9.871875,2.31111111 12.146875,1.44444444 C12.43125,1.32063492 12.715625,1.23809524 13,1.23809524 C13.284375,1.23809524 13.56875,1.27936508 13.853125,1.4031746 C16.128125,2.26984127 18.809375,3.26031746 19.378125,3.42539683 C19.5,3.46666667 19.58125,3.59047619 19.58125,3.75555556 C19.58125,3.87936508 19.58125,4.04444444 19.540625,4.12698413 C19.175,7.67619048 17.834375,10.6888889 15.68125,13.0825397 C15.965625,13.2888889 16.16875,13.5777778 16.371875,13.8666667 C18.76875,11.3079365 20.190625,8.04761905 20.596875,4.25079365 C20.596875,4.16825397 20.6375,4.0031746 20.6375,3.83809524 C20.6375,3.17777778 20.271875,2.64126984 19.6625,2.43492063 Z" id="Shape"></path>
                </g>
            </g>
        </g>
    </g>
</svg>