<?xml version="1.0" encoding="UTF-8"?>
<svg width="75px" height="75px" viewBox="0 0 77 72" version="1.1" xmlns="http://www.w3.org/2000/svg" xmlns:xlink="http://www.w3.org/1999/xlink">
    <!-- Generator: Sketch 44.1 (41455) - http://www.bohemiancoding.com/sketch -->
    <title>Top Notch Customer Service </title>
    <desc>Created with Sketch.</desc>
    <defs></defs>
    <g id="Page-1" stroke="none" stroke-width="1" fill="none" fill-rule="evenodd">
        <g id="home_d3-copy" transform="translate(-240.000000, -1354.000000)" fill-rule="nonzero" fill="#1E7ED4">
            <g id="Top-Notch-Customer-Service-" transform="translate(240.000000, 1354.000000)">
                <g id="Group">
                    <path d="M5.34,19.14 C5.58,19.14 5.82,18.96 5.82,18.66 L5.82,13.44 C5.82,13.2 5.64,12.96 5.34,12.96 C5.04,12.96 4.86,13.14 4.86,13.44 L4.86,18.66 C4.86,18.96 5.1,19.14 5.34,19.14 Z" id="Shape"></path>
                    <path d="M5.34,23.46 C5.58,23.46 5.82,23.28 5.82,22.98 L5.82,21.12 C5.82,20.88 5.64,20.64 5.34,20.64 C5.04,20.64 4.86,20.82 4.86,21.12 L4.86,22.98 C4.86,23.28 5.1,23.46 5.34,23.46 Z" id="Shape"></path>
                    <path d="M67.32,47.34 C67.56,47.34 67.8,47.16 67.8,46.86 L67.8,41.64 C67.8,41.4 67.62,41.16 67.32,41.16 C67.08,41.16 66.84,41.34 66.84,41.64 L66.84,46.86 C66.84,47.16 67.02,47.34 67.32,47.34 Z" id="Shape"></path>
                    <path d="M66.84,51.18 C66.84,51.42 67.02,51.66 67.32,51.66 C67.56,51.66 67.8,51.48 67.8,51.18 L67.8,49.32 C67.8,49.08 67.62,48.84 67.32,48.84 C67.08,48.84 66.84,49.02 66.84,49.32 L66.84,51.18 Z" id="Shape"></path>
                    <path d="M46.08,9.12 C47.22,9.12 48.12,8.22 48.12,7.08 C48.12,5.94 47.22,5.04 46.08,5.04 C44.94,5.04 44.04,5.94 44.04,7.08 C44.04,8.22 44.94,9.12 46.08,9.12 Z M46.08,5.94 C46.68,5.94 47.22,6.42 47.22,7.08 C47.22,7.68 46.74,8.22 46.08,8.22 C45.48,8.22 44.94,7.74 44.94,7.08 C44.94,6.42 45.48,5.94 46.08,5.94 Z" id="Shape"></path>
                    <path d="M55.32,49.62 C54.18,49.62 53.28,50.52 53.28,51.66 C53.28,52.8 54.18,53.7 55.32,53.7 C56.46,53.7 57.36,52.8 57.36,51.66 C57.36,50.52 56.4,49.62 55.32,49.62 Z M55.32,52.8 C54.72,52.8 54.18,52.32 54.18,51.66 C54.18,51.06 54.66,50.52 55.32,50.52 C55.92,50.52 56.46,51 56.46,51.66 C56.46,52.26 55.92,52.8 55.32,52.8 Z" id="Shape"></path>
                    <path d="M12.24,3.54 C12.24,3.78 12.42,4.02 12.72,4.02 L19.2,4.02 C19.44,4.02 19.68,3.84 19.68,3.54 C19.68,3.24 19.5,3.06 19.2,3.06 L12.66,3.06 C12.42,3.06 12.24,3.3 12.24,3.54 Z" id="Shape"></path>
                    <path d="M8.46,4.02 L10.56,4.02 C10.8,4.02 11.04,3.84 11.04,3.54 C11.04,3.24 10.8,3.06 10.56,3.06 L8.46,3.06 C8.22,3.06 7.98,3.24 7.98,3.54 C7.98,3.84 8.22,4.02 8.46,4.02 Z" id="Shape"></path>
                    <path d="M8.46,1.74 L12.96,1.74 C13.2,1.74 13.44,1.56 13.44,1.26 C13.44,0.96 13.2,0.84 12.96,0.84 L8.46,0.84 C8.22,0.84 7.98,1.02 7.98,1.32 C7.98,1.62 8.22,1.74 8.46,1.74 Z" id="Shape"></path>
                    <path d="M14.88,1.74 L16.32,1.74 C16.56,1.74 16.8,1.56 16.8,1.26 C16.8,0.96 16.62,0.78 16.32,0.78 L14.88,0.78 C14.64,0.78 14.4,0.96 14.4,1.26 C14.4,1.56 14.64,1.74 14.88,1.74 Z" id="Shape"></path>
                    <path d="M69.12,66 C69.12,65.76 68.94,65.52 68.64,65.52 L62.16,65.52 C61.92,65.52 61.68,65.7 61.68,66 C61.68,66.24 61.86,66.48 62.16,66.48 L68.64,66.48 C68.94,66.48 69.12,66.3 69.12,66 Z" id="Shape"></path>
                    <path d="M72.9,65.58 L70.8,65.58 C70.56,65.58 70.32,65.76 70.32,66.06 C70.32,66.3 70.5,66.54 70.8,66.54 L72.9,66.54 C73.14,66.54 73.38,66.36 73.38,66.06 C73.38,65.76 73.14,65.58 72.9,65.58 Z" id="Shape"></path>
                    <path d="M72.9,67.8 L68.4,67.8 C68.16,67.8 67.92,67.98 67.92,68.28 C67.92,68.52 68.1,68.76 68.4,68.76 L72.9,68.76 C73.14,68.76 73.38,68.58 73.38,68.28 C73.38,67.98 73.14,67.8 72.9,67.8 Z" id="Shape"></path>
                    <path d="M66.48,67.8 L65.04,67.8 C64.8,67.8 64.56,67.98 64.56,68.28 C64.56,68.52 64.74,68.76 65.04,68.76 L66.48,68.76 C66.72,68.76 66.96,68.58 66.96,68.28 C66.9,67.98 66.72,67.8 66.48,67.8 Z" id="Shape"></path>
                    <path d="M32.16,1.8 C32.22,1.86 32.34,1.92 32.46,1.92 C32.58,1.92 32.7,1.86 32.76,1.8 C32.94,1.62 32.94,1.32 32.76,1.14 L31.92,0.3 C31.74,0.12 31.44,0.12 31.26,0.3 C31.08,0.48 31.08,0.78 31.26,0.96 L32.16,1.8 Z" id="Shape"></path>
                    <path d="M34.92,4.56 C34.98,4.62 35.1,4.68 35.22,4.68 C35.34,4.68 35.46,4.62 35.52,4.56 C35.7,4.38 35.7,4.08 35.52,3.9 L34.68,3.06 C34.5,2.88 34.2,2.88 34.02,3.06 C33.84,3.24 33.84,3.54 34.02,3.72 L34.92,4.56 Z" id="Shape"></path>
                    <path d="M31.62,4.68 C31.74,4.68 31.86,4.62 31.92,4.56 L32.76,3.72 C32.94,3.54 32.94,3.24 32.76,3.06 C32.58,2.88 32.28,2.88 32.1,3.06 L31.26,3.9 C31.08,4.08 31.08,4.38 31.26,4.56 C31.44,4.62 31.56,4.68 31.62,4.68 Z" id="Shape"></path>
                    <path d="M34.44,1.92 C34.56,1.92 34.68,1.86 34.74,1.8 L35.58,0.96 C35.76,0.78 35.76,0.48 35.58,0.3 C35.4,0.12 35.1,0.12 34.92,0.3 L34.08,1.14 C33.9,1.32 33.9,1.62 34.08,1.8 C34.2,1.86 34.32,1.92 34.44,1.92 Z" id="Shape"></path>
                    <path d="M6.24,49.2 C6.3,49.26 6.42,49.32 6.54,49.32 C6.66,49.32 6.78,49.26 6.84,49.2 C7.02,49.02 7.02,48.72 6.84,48.54 L6,47.7 C5.82,47.52 5.52,47.52 5.34,47.7 C5.16,47.88 5.16,48.18 5.34,48.36 L6.24,49.2 Z" id="Shape"></path>
                    <path d="M8.1,51.12 L8.94,51.96 C9,52.02 9.12,52.08 9.24,52.08 C9.36,52.08 9.48,52.02 9.54,51.96 C9.72,51.78 9.72,51.48 9.54,51.3 L8.7,50.46 C8.52,50.28 8.22,50.28 8.04,50.46 C7.98,50.64 7.98,50.94 8.1,51.12 Z" id="Shape"></path>
                    <path d="M5.34,51.96 C5.4,52.02 5.52,52.08 5.64,52.08 C5.76,52.08 5.88,52.02 5.94,51.96 L6.78,51.12 C6.96,50.94 6.96,50.64 6.78,50.46 C6.6,50.28 6.3,50.28 6.12,50.46 L5.28,51.3 C5.16,51.54 5.16,51.78 5.34,51.96 Z" id="Shape"></path>
                    <path d="M8.46,49.32 C8.58,49.32 8.7,49.26 8.76,49.2 L9.6,48.36 C9.78,48.18 9.78,47.88 9.6,47.7 C9.42,47.52 9.12,47.52 8.94,47.7 L8.1,48.6 C7.92,48.78 7.92,49.08 8.1,49.26 C8.22,49.32 8.34,49.32 8.46,49.32 Z" id="Shape"></path>
                    <path d="M54.9,5.28 C58.02,2.1 63.12,2.1 66.3,5.22 C69.48,8.34 69.48,13.44 66.36,16.62 C66.18,16.8 66.18,17.1 66.36,17.28 C66.42,17.34 66.54,17.4 66.66,17.4 C66.78,17.4 66.9,17.34 66.96,17.28 C70.44,13.74 70.38,8.1 66.9,4.62 C63.36,1.14 57.72,1.2 54.24,4.68 C54.06,4.86 54.06,5.16 54.24,5.34 C54.42,5.46 54.72,5.46 54.9,5.28 Z" id="Shape"></path>
                    <path d="M64.5,15.42 C64.56,15.48 64.68,15.54 64.8,15.54 C64.92,15.54 65.04,15.48 65.1,15.42 C67.56,12.96 67.56,8.88 65.04,6.48 C62.58,4.02 58.5,4.02 56.1,6.54 C55.92,6.72 55.92,7.02 56.1,7.2 C56.28,7.38 56.58,7.38 56.76,7.2 C58.86,5.04 62.34,5.04 64.44,7.14 C66.6,9.24 66.6,12.72 64.5,14.82 C64.32,14.94 64.32,15.24 64.5,15.42 Z" id="Shape"></path>
                    <path d="M62.64,13.56 C62.7,13.62 62.82,13.68 62.94,13.68 C63.06,13.68 63.18,13.62 63.24,13.56 C63.96,12.84 64.32,11.94 64.32,10.92 C64.32,9.9 63.9,9 63.24,8.28 C62.52,7.56 61.62,7.2 60.6,7.2 C60.6,7.2 60.6,7.2 60.6,7.2 C59.58,7.2 58.68,7.62 57.96,8.28 C57.78,8.46 57.78,8.76 57.96,8.94 C58.14,9.12 58.44,9.12 58.62,8.94 C59.16,8.4 59.88,8.1 60.6,8.1 C60.6,8.1 60.6,8.1 60.6,8.1 C61.32,8.1 62.04,8.4 62.58,8.94 C63.12,9.48 63.42,10.2 63.42,10.92 C63.42,11.7 63.12,12.36 62.58,12.9 C62.46,13.08 62.46,13.38 62.64,13.56 Z" id="Shape"></path>
                    <path d="M76.5,31.44 C76.5,30.84 76.26,30.3 75.84,29.88 L72.18,26.22 C71.58,25.62 70.32,24.9 68.58,26.7 C68.52,26.76 68.46,26.76 68.4,26.82 L68.4,26.82 C68.28,26.88 68.1,26.94 67.98,26.94 C67.8,26.94 67.68,26.94 67.56,26.88 C67.5,26.88 67.44,26.82 67.26,26.7 C67.08,26.58 66.96,26.46 66.96,26.4 L60.72,20.16 C60.42,19.92 60.3,19.62 60.24,19.32 C60.18,19.08 60.24,18.84 60.3,18.66 L60.3,18.66 C60.36,18.6 60.36,18.54 60.42,18.54 L60.9,18.06 C61.32,17.64 61.56,17.1 61.56,16.5 C61.56,15.9 61.32,15.36 60.9,14.94 L57.24,11.28 C56.4,10.44 54.96,10.44 54.12,11.28 C54,11.4 53.88,11.52 53.76,11.7 L53.76,11.7 L53.34,12 L53.34,12 C53.34,12 53.34,12 53.34,12 L53.1,12.3 L53.1,12.3 C52.02,13.8 51.48,15.66 51.6,17.58 C51.72,19.62 52.56,21.54 54,22.98 L64.08,33 C65.52,34.44 67.44,35.28 69.48,35.4 C69.66,35.4 69.84,35.4 69.96,35.4 C71.7,35.4 73.32,34.86 74.7,33.9 L74.7,33.9 L75,33.66 C75,33.66 75,33.66 75,33.66 C75,33.66 75,33.66 75,33.66 L75.42,33.36 L75.42,33.36 C75.54,33.24 75.66,33.12 75.84,33 C76.26,32.58 76.5,31.98 76.5,31.44 Z M54.66,11.82 C55.14,11.34 56.04,11.34 56.52,11.82 L60.18,15.48 C60.42,15.72 60.54,16.08 60.54,16.38 C60.54,16.74 60.42,17.04 60.18,17.28 L59.82,17.64 L54.3,12.12 C54.42,12.06 54.54,11.94 54.66,11.82 Z M69.54,34.5 C67.74,34.38 66,33.6 64.74,32.34 L54.66,22.32 C53.4,21.06 52.62,19.32 52.5,17.52 C52.38,15.9 52.86,14.28 53.76,12.96 L59.34,18.54 C59.28,18.84 59.22,19.14 59.28,19.44 C59.4,19.92 59.64,20.4 60.06,20.76 L66.24,26.94 C66.36,27.06 66.6,27.24 66.66,27.36 C66.96,27.6 67.14,27.66 67.14,27.72 C67.44,27.84 67.74,27.9 68.04,27.9 C68.22,27.9 68.4,27.84 68.58,27.78 L72.42,31.62 L74.1,33.3 C72.78,34.14 71.16,34.62 69.54,34.5 Z M75.24,32.34 C75.12,32.46 75,32.58 74.82,32.7 L69.3,27.18 C70.62,25.92 71.28,26.52 71.52,26.82 L75.18,30.48 C75.42,30.72 75.54,31.08 75.54,31.38 C75.6,31.74 75.48,32.1 75.24,32.34 Z" id="Shape"></path>
                    <path d="M37.92,63.96 L48.6,63.96 C48.84,63.96 49.08,63.78 49.08,63.48 C49.08,63.24 48.9,63 48.6,63 L37.92,63 C37.68,63 37.44,63.18 37.44,63.48 C37.5,63.78 37.68,63.96 37.92,63.96 Z" id="Shape"></path>
                    <path d="M57.12,71.34 C57.12,71.34 57.12,71.28 57.12,71.28 C56.4,68.82 55.68,66.42 54.9,64.02 C53.16,58.44 48.06,55.32 41.58,55.8 L40.68,55.86 C39.78,55.92 39,55.98 37.98,56.04 C37.56,55.14 36,51.48 37.92,46.32 C38.04,46.14 38.22,46.02 38.34,45.84 L46.92,45.84 C46.98,45.84 47.04,45.84 47.1,45.78 C47.1,45.78 47.1,45.78 47.16,45.78 C47.22,45.78 47.22,45.72 47.28,45.72 C47.28,45.72 47.28,45.72 47.34,45.66 C47.34,45.66 47.4,45.6 47.4,45.54 C47.4,45.54 47.4,45.54 47.4,45.48 C47.4,45.48 47.4,45.48 47.4,45.48 L48.36,42.9 C51.18,42.42 53.58,40.26 54.12,37.26 C54.78,33.6 52.44,30.12 48.9,29.22 C49.02,28.5 49.02,27.72 49.02,26.94 C49.08,15.78 39.96,6.6 28.74,6.6 C17.52,6.6 8.4,15.78 8.4,27 C8.4,27.78 8.46,28.56 8.52,29.28 C4.98,30.12 2.64,33.66 3.3,37.32 C3.66,39.18 4.68,40.74 6.18,41.82 C7.38,42.66 8.76,43.08 10.14,43.08 C10.56,43.08 10.98,43.02 11.4,42.96 C11.64,42.9 11.82,42.66 11.76,42.42 L9.42,29.64 C9.42,29.64 9.42,29.58 9.42,29.58 C9.3,28.8 9.24,27.9 9.24,27 C9.24,16.26 17.94,7.56 28.68,7.56 C39.42,7.56 48.12,16.26 48.12,27 C48.12,27.9 48.06,28.74 47.94,29.52 C47.94,29.52 47.94,29.58 47.94,29.58 L45.6,42.42 C45.6,42.54 45.6,42.66 45.66,42.78 C45.72,42.9 45.84,42.96 45.96,42.96 C46.38,43.02 46.8,43.08 47.22,43.08 C47.28,43.08 47.28,43.08 47.34,43.08 L46.62,45 L39.12,45 C40.32,43.44 41.28,41.58 42,39.48 C42.06,39.48 42.12,39.48 42.18,39.48 C43.74,39.48 44.88,37.2 44.88,34.14 C44.88,31.56 44.04,29.46 42.84,28.92 L42.84,28.74 C43.08,27.06 43.26,25.26 43.38,23.52 C43.86,15.66 41.7,15 38.1,13.92 C37.8,13.8 37.5,13.74 37.2,13.62 C34.08,12.6 30.9,12.42 28.74,12.36 C26.58,12.36 23.4,12.6 20.28,13.62 C19.98,13.74 19.68,13.8 19.38,13.92 C15.78,15.06 13.56,15.72 14.1,23.52 C14.22,25.26 14.46,27.06 14.64,28.74 L14.64,28.92 C13.44,29.46 12.6,31.56 12.6,34.14 C12.6,37.2 13.74,39.48 15.3,39.48 C15.36,39.48 15.42,39.48 15.48,39.48 C16.38,42.18 17.76,44.46 19.44,46.32 C21.36,51.48 19.8,55.2 19.32,56.1 C18.36,56.04 17.58,55.98 16.68,55.92 L15.84,55.8 C9.36,55.32 4.26,58.44 2.52,63.96 C1.74,66.3 1.02,68.76 0.3,71.22 C0.3,71.22 0.3,71.28 0.3,71.28 C0.3,71.28 0.3,71.34 0.3,71.34 C0.3,71.34 0.3,71.34 0.3,71.34 C0.3,71.4 0.3,71.4 0.3,71.46 C0.3,71.46 0.3,71.52 0.3,71.52 C0.3,71.52 0.36,71.58 0.36,71.58 C0.36,71.58 0.42,71.64 0.42,71.64 C0.42,71.64 0.48,71.7 0.48,71.7 C0.48,71.7 0.54,71.76 0.54,71.76 C0.54,71.76 0.54,71.76 0.54,71.76 C0.6,71.76 0.6,71.76 0.66,71.76 C0.66,71.76 0.66,71.76 0.66,71.76 L56.58,71.76 L56.58,71.76 C56.64,71.76 56.64,71.76 56.7,71.76 C56.7,71.76 56.7,71.76 56.7,71.76 C56.7,71.76 56.76,71.76 56.76,71.7 C56.76,71.7 56.82,71.7 56.82,71.64 C56.82,71.64 56.88,71.58 56.88,71.58 C56.88,71.58 56.94,71.52 56.94,71.52 C56.94,71.52 56.94,71.46 56.94,71.46 C56.94,71.4 56.94,71.4 56.94,71.34 C56.94,71.34 56.94,71.34 56.94,71.34 C57.12,71.34 57.12,71.34 57.12,71.34 Z M6.72,41.04 C5.4,40.14 4.5,38.7 4.2,37.14 C3.6,33.96 5.58,30.96 8.64,30.18 L10.8,42.12 C9.36,42.24 7.92,41.88 6.72,41.04 Z M46.62,42.12 L48.78,30.18 C51.84,30.96 53.82,34.02 53.22,37.14 C52.68,40.26 49.74,42.42 46.62,42.12 Z M19.62,14.64 C19.92,14.52 20.22,14.46 20.58,14.34 C22.98,13.56 25.8,13.14 28.74,13.14 C31.74,13.14 34.56,13.56 36.9,14.34 C37.2,14.46 37.56,14.52 37.86,14.64 C41.28,15.72 42.96,16.2 42.54,23.34 C42.48,24.3 42.36,25.26 42.3,26.28 C41.76,24.48 40.8,22.44 39.18,22.26 C36.6,21.96 29.76,22.02 29.46,22.02 C29.46,22.02 26.52,22.2 23.34,19.14 C23.22,19.02 23.1,19.02 22.98,19.02 C22.86,19.02 22.74,19.08 22.68,19.2 C22.2,19.86 21.72,21.18 22.38,22.5 C20.76,22.2 18.06,21.96 17.1,23.1 C16.44,23.88 15.84,25.38 15.42,26.7 C15.3,25.56 15.18,24.48 15.12,23.34 C14.52,16.26 16.2,15.72 19.62,14.64 Z M15.9,38.46 C15.84,38.46 15.78,38.4 15.72,38.4 C15.66,38.4 15.6,38.4 15.54,38.46 C15.42,38.52 15.36,38.52 15.24,38.52 C14.4,38.52 13.44,36.66 13.44,34.08 C13.44,31.74 14.22,30.06 14.94,29.7 C14.94,29.7 15,29.7 15,29.7 C15.18,29.7 15.42,29.58 15.42,29.34 C15.42,29.28 16.38,25.14 17.58,23.76 C18.36,22.86 21.54,23.22 23.34,23.7 C23.52,23.76 23.76,23.64 23.88,23.46 C24,23.28 23.94,23.04 23.76,22.92 C22.5,21.96 22.74,20.88 22.98,20.28 C26.28,23.22 29.28,23.04 29.34,23.04 C29.4,23.04 36.42,22.98 38.94,23.28 C40.74,23.46 41.7,27.84 41.88,29.4 C41.94,29.64 42.12,29.82 42.36,29.82 C42.36,29.82 42.36,29.82 42.36,29.82 C43.14,30.18 43.86,31.86 43.86,34.2 C43.86,36.84 42.9,38.64 42.06,38.64 C41.94,38.64 41.88,38.64 41.76,38.58 C41.64,38.52 41.52,38.52 41.4,38.58 C41.28,38.64 41.22,38.76 41.16,38.88 C40.44,41.28 39.3,43.38 37.86,45.06 L32.04,45.06 C31.86,44.46 31.32,43.98 30.66,43.98 L26.58,43.98 C25.8,43.98 25.14,44.64 25.14,45.42 L25.14,45.54 C25.14,46.32 25.8,46.98 26.58,46.98 L30.66,46.98 C31.32,46.98 31.86,46.5 32.04,45.9 L37.2,45.9 C34.86,48.3 31.92,49.62 28.74,49.62 C25.56,49.62 22.56,48.24 20.22,45.78 C20.22,45.78 20.22,45.78 20.22,45.78 C20.16,45.66 20.1,45.6 19.98,45.54 C18.36,43.74 17.04,41.46 16.2,38.82 C16.14,38.64 16.02,38.52 15.9,38.46 Z M31.32,45.42 C31.32,45.72 31.08,45.96 30.78,45.96 L26.7,45.96 C26.4,45.96 26.16,45.72 26.16,45.42 L26.16,45.3 C26.16,45 26.4,44.76 26.7,44.76 L30.78,44.76 C31.08,44.76 31.32,45 31.32,45.3 L31.32,45.42 Z M20.76,47.52 C23.04,49.44 25.8,50.52 28.74,50.52 C31.62,50.52 34.32,49.44 36.66,47.58 C35.22,52.8 37.08,56.22 37.38,56.7 C37.44,56.76 37.44,56.88 37.56,56.88 C36.24,58.98 34.8,60.9 33.24,62.64 L32.04,57.72 L33.6,55.08 C33.66,54.96 33.66,54.78 33.6,54.6 C33.54,54.48 33.36,54.36 33.18,54.36 L24.36,54.36 C24.18,54.36 24.06,54.42 23.94,54.6 C23.88,54.72 23.88,54.9 23.94,55.08 L25.5,57.78 L24.3,62.7 C22.92,61.2 21.36,59.28 19.86,56.82 C19.92,56.76 19.92,56.76 19.92,56.7 C20.22,56.28 22.14,52.8 20.76,47.52 Z M28.74,66.42 C28.2,66.06 26.82,65.1 25.08,63.36 C25.14,63.3 25.2,63.24 25.2,63.12 L26.46,58.02 L31.14,58.02 L32.4,63.12 C32.4,63.18 32.46,63.24 32.52,63.3 C30.66,65.1 29.22,66.06 28.74,66.42 Z M31.2,57.12 L26.22,57.12 L25.14,55.26 L32.34,55.26 L31.2,57.12 Z M3.42,64.26 C5.04,59.16 9.78,56.22 15.78,56.7 L16.62,56.76 C17.4,56.82 18.12,56.88 18.96,56.88 C23.4,64.32 28.32,67.2 28.56,67.32 C28.62,67.38 28.68,67.38 28.8,67.38 C28.8,67.38 28.8,67.38 28.8,67.38 C28.8,67.38 28.8,67.38 28.8,67.38 C28.86,67.38 28.98,67.38 29.04,67.32 C29.1,67.26 30.84,66.3 33.18,63.96 C35.22,61.92 37.02,59.58 38.58,56.94 C39.36,56.88 40.02,56.88 40.8,56.82 L41.7,56.76 C47.76,56.28 52.5,59.22 54.06,64.32 C54.78,66.48 55.44,68.7 56.1,70.98 L1.38,70.98 C2.04,68.7 2.7,66.42 3.42,64.26 Z" id="Shape"></path>
                </g>
            </g>
        </g>
    </g>
</svg>