<?xml version="1.0" encoding="UTF-8"?>
<svg width="81px" height="62px" viewBox="0 0 83 83" version="1.1" xmlns="http://www.w3.org/2000/svg" xmlns:xlink="http://www.w3.org/1999/xlink">
    <!-- Generator: Sketch 44.1 (41455) - http://www.bohemiancoding.com/sketch -->
    <title>Track Orders</title>
    <desc>Created with Sketch.</desc>
    <defs></defs>
    <g id="Page-1" stroke="none" stroke-width="1" fill="none" fill-rule="evenodd">
        <g id="home_d3" transform="translate(-821.000000, -3050.000000)" stroke="#FFFFFF" stroke-width="1.2" fill="#1E7ED4">
            <g id="Track-Orders" transform="translate(822.000000, 3049.000000)">
                <g id="Group" transform="translate(0.000000, 0.653818)">
                    <polygon id="Shape" points="39.15 0.975589183 39.15 81.7808776 41.85 81.7808776 41.85 0.975589183"></polygon>
                    <polygon id="Shape" points="54 40.0314786 54 42.7249882 81 42.7249882 81 40.0314786"></polygon>
                    <path d="M41.728716,29.3258553 C39.148002,29.0645849 36.483669,29.6191785 34.156053,31.0408129 C29.500794,33.8838123 27.316737,39.4960089 28.824606,44.7292287 C30.332448,49.9627179 35.168553,53.5558597 40.626576,53.4990267 C46.084572,53.442463 50.845968,49.745621 52.243947,44.4819645 L49.633587,43.7929648 C48.543381,47.8976041 44.856585,50.7610742 40.600197,50.8055171 C36.343809,50.8486132 32.595021,48.0635243 31.419144,43.9823185 C30.24324,39.9011127 31.93371,35.5570204 35.564076,33.3397233 C39.194388,31.1226956 43.846002,31.5910969 46.954674,34.4917374 L48.800394,32.5295156 C46.807254,30.6699166 44.309403,29.5876644 41.728716,29.3258553 L41.728716,29.3258553 Z" id="Shape" fill-rule="nonzero"></path>
                    <path d="M62.1,41.3782334 C62.1,49.6077133 57.406536,57.1137166 49.997466,60.7324468 C42.588396,64.3514463 33.769116,63.4491206 27.253125,58.4020222 L25.597269,60.5274707 C32.922774,66.2013487 42.854427,67.2208421 51.183981,63.1525651 C59.513535,59.0840189 64.8,50.6301696 64.8,41.3782334 L62.1,41.3782334 Z" id="Shape" fill-rule="nonzero"></path>
                    <path d="M40.5,5.01585361 C31.439934,5.01585361 23.15385,8.34099123 16.780068,13.8012739 L18.541413,15.8424155 C24.449661,10.7810416 32.101002,7.70936322 40.5,7.70936322 C49.332321,7.70936322 57.214485,11.2680281 63.228519,16.7999582 C54.660258,25.3478109 39.545496,40.4260778 39.545496,40.4260778 L41.454504,42.3303891 C41.454504,42.3303891 58.003452,25.8215993 66.276576,17.5678778 L67.231053,16.6157221 L66.276576,15.6635665 C59.681664,9.08466923 50.557149,5.01585361 40.5,5.01585361 Z M12.856644,17.7152127 C7.38315,24.0737809 4.05,32.3398925 4.05,41.3782334 C4.05,61.4446107 20.385189,77.7406132 40.5,77.7406132 C60.614784,77.7406132 76.95,61.4446107 76.95,41.3782334 L74.25,41.3782334 C74.25,59.9890381 59.155596,75.0471036 40.5,75.0471036 C21.844377,75.0471036 6.75,59.9890381 6.75,41.3782334 C6.75,32.9992637 9.828945,25.3666655 14.902731,19.4724584 L12.856644,17.7152127 Z" id="Shape" fill-rule="nonzero"></path>
                    <path d="M24.3,53.4990267 C22.07925,53.4990267 20.25,55.3238794 20.25,57.5392911 C20.25,59.7547028 22.07925,61.5795555 24.3,61.5795555 C26.52075,61.5795555 28.35,59.7547028 28.35,57.5392911 C28.35,55.3238794 26.52075,53.4990267 24.3,53.4990267 Z M24.3,56.1925363 C25.061562,56.1925363 25.65,56.779452 25.65,57.5392911 C25.65,58.2991302 25.061562,58.8860459 24.3,58.8860459 C23.538438,58.8860459 22.95,58.2991302 22.95,57.5392911 C22.95,56.779452 23.538438,56.1925363 24.3,56.1925363 Z" id="Shape" fill-rule="nonzero"></path>
                    <path d="M15.525,12.423005 C13.30425,12.423005 11.475,14.2478578 11.475,16.4632695 C11.475,18.6786811 13.30425,20.5035339 15.525,20.5035339 C17.74575,20.5035339 19.575,18.6786811 19.575,16.4632695 C19.575,14.2478578 17.74575,12.423005 15.525,12.423005 Z M15.525,15.1165147 C16.286562,15.1165147 16.875,15.7034304 16.875,16.4632695 C16.875,17.2231085 16.286562,17.8100243 15.525,17.8100243 C14.763438,17.8100243 14.175,17.2231085 14.175,16.4632695 C14.175,15.7034304 14.763438,15.1165147 15.525,15.1165147 Z" id="Shape" fill-rule="nonzero"></path>
                    <path d="M51.3,37.337969 C49.07925,37.337969 47.25,39.1628218 47.25,41.3782334 C47.25,43.5936451 49.07925,45.4184978 51.3,45.4184978 C53.52075,45.4184978 55.35,43.5936451 55.35,41.3782334 C55.35,39.1628218 53.52075,37.337969 51.3,37.337969 Z M51.3,40.0314786 C52.061562,40.0314786 52.65,40.6183944 52.65,41.3782334 C52.65,42.1380725 52.061562,42.7249882 51.3,42.7249882 C50.538438,42.7249882 49.95,42.1380725 49.95,41.3782334 C49.95,40.6183944 50.538438,40.0314786 51.3,40.0314786 Z" id="Shape" fill-rule="nonzero"></path>
                    <path d="M40.8375,17.1471516 C34.916535,17.0663463 28.962738,19.1301133 24.252534,23.3548832 C14.832126,31.8044228 13.505589,46.0918752 21.209769,56.1241212 L23.356053,54.4826964 C16.493598,45.5467089 17.664912,32.8802106 26.056053,25.354006 C34.447194,17.8275321 47.201589,18.004765 55.381644,25.7591099 L57.237894,23.8073928 C52.646193,19.4546812 46.758465,17.2284956 40.8375,17.1471516 L40.8375,17.1471516 Z" id="Shape" fill-rule="nonzero"></path>
                    <polygon id="Shape" points="0 40.0314786 0 42.7249882 48.6 42.7249882 48.6 40.0314786"></polygon>
                </g>
            </g>
        </g>
    </g>
</svg>