<?xml version="1.0" encoding="UTF-8"?>
<svg width="25px" height="24px" viewBox="0 0 25 24" version="1.1" xmlns="http://www.w3.org/2000/svg" xmlns:xlink="http://www.w3.org/1999/xlink">
    <!-- Generator: Sketch 44.1 (41455) - http://www.bohemiancoding.com/sketch -->
    <title>Underwriters</title>
    <desc>Created with Sketch.</desc>
    <defs></defs>
    <g id="Page-1" stroke="none" stroke-width="1" fill="none" fill-rule="evenodd">
        <g id="home_d3" transform="translate(-701.000000, -1021.000000)" fill-rule="nonzero" fill="#1E7ED4">
            <g id="Underwriters" transform="translate(701.000000, 1020.000000)">
                <path d="M24.3716829,9.86654282 L22.4872888,8.77462184 C22.4496009,8.73822447 22.3742251,8.73822447 22.2988494,8.73822447 L16.1934124,8.73822447 C16.0426609,8.30145607 15.6280942,8.01027715 15.1381517,8.01027715 C14.9497123,8.01027715 14.7612729,8.04667451 14.5728335,8.15586661 C14.3843941,7.86468768 14.0452032,7.64630348 13.6306365,7.64630348 C13.4798849,7.64630348 13.3291334,7.68270085 13.2160698,7.71909822 C13.0653182,7.24593245 12.6507515,6.91835616 12.1231212,6.91835616 C11.5954908,6.91835616 11.1809241,7.24593245 11.0301726,7.71909822 C10.917109,7.68270085 10.7663574,7.64630348 10.6156059,7.64630348 C9.9749119,7.64630348 9.48496943,8.11946924 9.48496943,8.73822447 L1.947393,8.73822447 C1.1182596,8.73822447 0.439877717,9.39337706 0.439877717,10.1941191 C0.439877717,10.9948612 1.1182596,11.6500138 1.947393,11.6500138 L7.97745414,11.6500138 L7.97745414,12.8147295 L8.76889967,14.3434189 L9.86184825,15.7629162 L9.86184825,16.8184398 C9.63572096,16.9276319 9.48496943,17.1824134 9.48496943,17.437195 L9.48496943,24.3526946 L10.2387271,24.3526946 L10.2387271,17.4735924 L14.7612729,17.4735924 L14.7612729,24.3890919 L15.5150306,24.3890919 L15.5150306,17.4735924 C15.5150306,17.2188108 15.364279,16.9640292 15.1381517,16.8548371 L15.1381517,16.4544661 L16.2687882,12.8511269 L16.2687882,11.6500138 L22.2988494,11.6500138 C22.3742251,11.6500138 22.4496009,11.6500138 22.4872888,11.6136164 L24.3716829,10.5216954 C24.4847465,10.4489007 24.5601223,10.3397086 24.5601223,10.1941191 C24.5601223,10.0485297 24.4847465,9.93933755 24.3716829,9.86654282 Z M9.48496943,10.9220664 L4.96242357,10.9220664 L4.96242357,9.46617179 L9.48496943,9.46617179 L9.48496943,10.9220664 Z M4.20866593,10.9220664 L3.45490829,10.9220664 L3.45490829,9.46617179 L4.20866593,9.46617179 L4.20866593,10.9220664 Z M1.19363536,10.1941191 C1.19363536,9.79374809 1.5328263,9.46617179 1.947393,9.46617179 L2.70115065,9.46617179 L2.70115065,10.9220664 L1.947393,10.9220664 C1.5328263,10.9220664 1.19363536,10.5944901 1.19363536,10.1941191 Z M15.5150306,12.7055374 L14.3843941,16.3088766 L14.3843941,16.7820424 L10.6156059,16.7820424 L10.6156059,15.5809293 L9.44728155,14.0522399 L8.73121179,12.66914 L8.73121179,11.6500138 L9.48496943,11.6500138 L9.48496943,12.0139874 L10.2387271,12.0139874 L10.2387271,8.73822447 C10.2387271,8.51984027 10.3894786,8.37425081 10.6156059,8.37425081 C10.8417332,8.37425081 10.9924847,8.51984027 10.9924847,8.73822447 L10.9924847,9.46617179 L11.7462424,9.46617179 L11.7462424,8.73822447 L11.7462424,8.01027715 C11.7462424,7.79189295 11.8969939,7.64630348 12.1231212,7.64630348 C12.3492485,7.64630348 12.5,7.79189295 12.5,8.01027715 L12.5,8.73822447 L12.5,9.46617179 L13.2537576,9.46617179 L13.2537576,8.73822447 C13.2537576,8.51984027 13.4045092,8.37425081 13.6306365,8.37425081 C13.8567638,8.37425081 14.0075153,8.51984027 14.0075153,8.73822447 L14.0075153,9.10219813 L14.0075153,9.46617179 L14.7612729,9.46617179 L14.7612729,9.10219813 C14.7612729,8.88381393 14.9120245,8.73822447 15.1381517,8.73822447 C15.364279,8.73822447 15.5150306,8.88381393 15.5150306,9.10219813 L15.5150306,12.7055374 Z M16.2687882,9.46617179 L20.0375764,9.46617179 L20.0375764,10.9220664 L16.2687882,10.9220664 L16.2687882,9.46617179 Z M22.1857857,10.9220664 L20.7913341,10.9220664 L20.7913341,9.46617179 L22.1857857,9.46617179 L23.4294858,10.1941191 L22.1857857,10.9220664 Z" id="Shape"></path>
                <rect id="Rectangle-path" x="10.9924847" y="18.2015397" width="1" height="1"></rect>
                <rect id="Rectangle-path" x="16.2687882" y="23.6611446" width="1" height="1"></rect>
                <rect id="Rectangle-path" x="16.2687882" y="22.20525" width="1" height="1"></rect>
                <rect id="Rectangle-path" x="16.2687882" y="20.7493553" width="1" height="1"></rect>
                <rect id="Rectangle-path" x="7.97745414" y="23.6611446" width="1" height="1"></rect>
                <rect id="Rectangle-path" x="7.97745414" y="22.20525" width="1" height="1"></rect>
                <rect id="Rectangle-path" x="7.97745414" y="20.7493553" width="1" height="1"></rect>
                <path d="M2.77652641,12.3051664 L2.02276877,12.3779611 C2.36195971,15.5081346 4.24635381,18.3471292 7.03525709,19.9850106 L7.41213591,19.3662554 C4.81167204,17.837566 3.07802947,15.2169557 2.77652641,12.3051664 Z" id="Shape"></path>
                <path d="M17.6632399,19.329858 L18.0778066,19.9486133 C20.8667098,18.2743344 22.6380403,15.544532 23.0149191,12.4143585 L22.2611615,12.3415637 C21.9219705,15.253353 20.2260158,17.8011687 17.6632399,19.329858 Z" id="Shape"></path>
                <path d="M15.8165336,2.36868538 C18.567749,3.3150169 20.7159583,5.38966678 21.6958432,8.04667451 L22.411913,7.79189295 C21.3566523,4.95289838 19.0200036,2.69626168 16.0803488,1.67713542 C10.6156059,-0.215527621 4.54785687,2.55067221 2.588087,7.82829031 L3.30415676,8.08307188 C5.1131751,3.16942744 10.7663574,0.621611802 15.8165336,2.36868538 Z" id="Shape"></path>
            </g>
        </g>
    </g>
</svg>