<?xml version="1.0" encoding="UTF-8"?>
<svg width="9px" height="14px" viewBox="0 0 9 14" version="1.1" xmlns="http://www.w3.org/2000/svg" xmlns:xlink="http://www.w3.org/1999/xlink">
    <!-- Generator: Sketch 44.1 (41455) - http://www.bohemiancoding.com/sketch -->
    <title>Arrow-down - simple-line-icons Copy</title>
    <desc>Created with Sketch.</desc>
    <defs></defs>
    <g id="Page-1" stroke="none" stroke-width="1" fill="none" fill-rule="evenodd">
        <g id="Group-32" transform="translate(-164.000000, -320.000000)" stroke-width="0.5" stroke="#5791FB" fill="#5791FB">
            <g id="Group-24">
                <g id="slider" transform="translate(148.000000, 307.000000)">
                    <g id="arrow">
                        <path d="M14.2801608,16.9415015 C14.2801608,16.8914525 14.2905341,16.8393189 14.3112809,16.7850991 C14.3320278,16.7308794 14.3631475,16.6829165 14.4046412,16.641209 C14.4876285,16.5661355 14.5872118,16.5285993 14.7033941,16.5285993 C14.8195763,16.5285993 14.9191596,16.5661355 15.0021469,16.641209 L20.6286593,22.2967176 L26.1680354,16.7287943 C26.2510228,16.6453793 26.3506061,16.6036724 26.4667883,16.6036724 C26.5829706,16.6036724 26.6825539,16.6453793 26.7655412,16.7287943 C26.8485285,16.8122093 26.8900215,16.9123058 26.8900215,17.0290868 C26.8900215,17.1458678 26.8485285,17.2459643 26.7655412,17.3293793 L20.9274122,23.1975951 C20.8444249,23.2810101 20.7448416,23.3227169 20.6286593,23.3227169 C20.5124771,23.3227169 20.4128938,23.2810101 20.3299064,23.1975951 L14.4046412,17.2543061 C14.3631475,17.2125986 14.3320278,17.1646357 14.3112809,17.110416 C14.2905341,17.0561962 14.2801608,16.999892 14.2801608,16.9415015 Z" id="Arrow-down---simple-line-icons-Copy" transform="translate(20.585091, 19.925658) rotate(90.000000) translate(-20.585091, -19.925658) "></path>
                    </g>
                </g>
            </g>
        </g>
    </g>
</svg>