<?xml version="1.0" encoding="UTF-8"?>
<svg width="76px" height="89px" viewBox="0 0 76 89" version="1.1" xmlns="http://www.w3.org/2000/svg" xmlns:xlink="http://www.w3.org/1999/xlink">
    <!-- Generator: Sketch 44.1 (41455) - http://www.bohemiancoding.com/sketch -->
    <title>car</title>
    <desc>Created with Sketch.</desc>
    <defs></defs>
    <g id="Page-1" stroke="none" stroke-width="1" fill="none" fill-rule="evenodd">
        <g id="my-safe-place" transform="translate(-416.000000, -2016.000000)">
            <g id="car" transform="translate(416.000000, 2017.000000)">
                <g id="Group-4">
                    <path d="M69.103,45.863619 L62.87328,29.736381 C61.7082,26.6491429 59.1622,24.0220952 54.3438,24 L45.5582,24 L30.54288,24 L21.60452,24 C16.80816,24.0220952 14.26216,26.6491429 13.0758,29.736381 L6.84456,45.863619 C4.37076,46.183619 -0.0076,49.0979048 2.70005474e-15,54.6186667 L2.70005474e-15,75.1527619 L6.07924,75.1527619 L6.07924,81.7074286 C6.06404,89.7881905 17.47088,89.6921905 17.46784,81.7074286 L17.46784,75.1527619 L38,75.1527619 L58.48048,75.1527619 L58.48048,81.7074286 C58.50556,89.6921905 69.9124,89.7881905 69.92,81.7074286 L69.92,75.1527619 L76,75.1527619 L76,54.6186667 C75.981,49.0979048 71.5996,46.183619 69.103,45.863619 Z M11.95252,62.7611429 C9.03868,62.7695238 6.67964,60.3329524 6.6918,57.336381 C6.67964,54.3192381 9.03868,51.880381 11.95252,51.9055238 C14.85724,51.880381 17.21628,54.3192381 17.21248,57.336381 C17.21628,60.3329524 14.85648,62.7687619 11.95252,62.7611429 Z M38,45.712 L37.94908,45.712 L13.33116,45.712 L18.02948,33.0125714 C18.59644,31.2099048 19.47652,29.92 21.55512,29.8887619 L37.94908,29.8887619 L38,29.8887619 L54.4464,29.8887619 C56.49308,29.92 57.37544,31.2091429 57.96976,33.0125714 L62.66884,45.712 L38,45.712 Z M64.04824,62.7611429 C61.11388,62.7695238 58.75332,60.3329524 58.73736,57.336381 C58.75332,54.3192381 61.11388,51.880381 64.04824,51.9055238 C66.93244,51.880381 69.29072,54.3192381 69.30896,57.336381 C69.29072,60.3329524 66.93244,62.7687619 64.04824,62.7611429 Z" id="Shape" fill="#000000" fill-rule="nonzero"></path>
                    <path d="M56.9074074,18.3057185 C56.9074074,8.17219575 48.6898148,0 38.5,0 C28.3101852,0 20.0925926,8.17219575 20.0925926,18.3057185 C20.0925926,26.9355572 26.1407407,34.192467 34.2268519,36.0884164 L38.5,42.4954179 L42.7731481,36.0884164 C50.8592593,34.192467 56.9074074,26.9355572 56.9074074,18.3057185 Z" id="Shape" stroke="#5791FB" stroke-width="2" fill="#000000" stroke-linejoin="round"></path>
                    <polygon id="Shape" stroke="#5791FB" stroke-width="2" stroke-linejoin="round" points="50.3333333 24.8434751 26.6666667 24.8434751 38.5 5.88398094"></polygon>
                    <path d="M38.5,22.2283724 L38.5,19.6132698" id="Shape" stroke="#5791FB" stroke-width="2" stroke-linejoin="round"></path>
                    <path d="M38.5,18.3057185 L38.5,13.7292889" id="Shape" stroke="#5791FB" stroke-width="2" stroke-linejoin="round"></path>
                </g>
            </g>
        </g>
    </g>
</svg>