<?xml version="1.0" encoding="UTF-8"?>
<svg width="20px" height="20px" viewBox="0 0 20 20" version="1.1" xmlns="http://www.w3.org/2000/svg" xmlns:xlink="http://www.w3.org/1999/xlink">
    <!-- Generator: Sketch 44.1 (41455) - http://www.bohemiancoding.com/sketch -->
    <title>noun_158716_cc</title>
    <desc>Created with Sketch.</desc>
    <defs></defs>
    <g id="Page-1" stroke="none" stroke-width="1" fill="none" fill-rule="evenodd">
        <g id="my-safe-place" transform="translate(-1069.000000, -43.000000)" fill-rule="nonzero" fill="#000000">
            <g id="noun_158716_cc" transform="translate(1069.000000, 43.000000)">
                <ellipse id="Oval" cx="16.0016461" cy="18.2439207" rx="1.10452675" ry="1.1145679"></ellipse>
                <ellipse id="Oval" cx="4.3824417" cy="18.2439207" rx="1.10452675" ry="1.1145679"></ellipse>
                <path d="M19.7530864,4.70632248 L18.4636488,11.3228582 C18.3539095,11.959596 17.914952,12.402544 17.3388203,12.402544 L6.17283951,12.9285447 L4.77366255,15.1709689 L16.872428,15.1709689 C17.5034294,15.1709689 18.0246914,15.7246539 18.0246914,16.3613917 C18.0246914,16.5828657 17.8326475,16.8320239 17.6131687,16.8320239 C17.39369,16.8320239 17.2016461,16.6105499 17.2016461,16.3890759 C17.2016461,16.2229704 17.0644719,16.0014964 16.872428,16.0014964 L4.88340192,16.0014964 C4.4170096,16.0014964 4.0877915,15.9184437 3.92318244,15.6139169 C3.7037037,15.1986532 3.97805213,14.8110737 4.03292181,14.728021 L5.45953361,12.4579125 L2.16735254,1.41189675 C2.11248285,1.30115975 1.67352538,0.996632997 0.466392318,0.996632997 C0.466392318,0.996632997 0.026611797,1.01379723 0.167901235,0.512158623 C0.167901235,0.512158623 0.202194787,0.179117097 0.877914952,0.221473999 C2.60631001,0.304526749 2.93552812,1.02431725 2.99039781,1.24579125 L3.40192044,2.63000374 L18.6282579,3.57126824 C19.2318244,3.57126824 19.7530864,4.06958474 19.7530864,4.70632248 Z M18.9300412,4.59558548 C18.9026063,4.45716423 18.7654321,4.31874299 18.600823,4.31874299 L3.64883402,3.43284699 L6.22770919,12.1257015 L17.3113855,11.5720165 C17.5857339,11.5720165 17.6406036,11.2674897 17.6680384,11.184437 L18.9300412,4.59558548 Z" id="Shape"></path>
            </g>
        </g>
    </g>
</svg>