<?xml version="1.0" encoding="UTF-8"?>
<svg width="18px" height="15px" viewBox="0 0 18 15" version="1.1" xmlns="http://www.w3.org/2000/svg" xmlns:xlink="http://www.w3.org/1999/xlink">
    <!-- Generator: Sketch 44.1 (41455) - http://www.bohemiancoding.com/sketch -->
    <title>cart</title>
    <desc>Created with Sketch.</desc>
    <defs></defs>
    <g id="Page-1" stroke="none" stroke-width="1" fill="none" fill-rule="evenodd">
        <g id="home" transform="translate(-1220.000000, -47.000000)">
            <g id="cart" transform="translate(1215.000000, 44.000000)">
                <rect id="Rectangle-11-Copy" x="0" y="0" width="28" height="22"></rect>
                <path d="M5.41860463,3.199996 C5.18743021,3.199996 4.99999998,3.379076 4.99999998,3.599996 C4.99999998,3.820916 5.18743021,3.999996 5.41860463,3.999996 L7.64897209,3.999996 L8.38153023,5.743738 L10.8277721,11.593744 L9.84664651,13.843744 C9.73912791,14.085984 9.9572,14.400324 10.2325581,14.400004 L20.6976744,14.400004 C20.9288698,14.400004 21.1162791,14.220924 21.1162791,14.000004 C21.1162791,13.779084 20.9288698,13.600004 20.6976744,13.600004 L10.8604651,13.600004 L11.6649814,11.750004 C11.7052093,11.654984 11.7052093,11.545024 11.6649814,11.450004 L9.15335349,5.449996 L8.31614419,3.449996 C8.25431628,3.303996 8.09505814,3.200816 7.93023256,3.199996 L5.41860463,3.199996 Z M9.81395349,5.599996 L12.3255814,11.400004 L21.744186,10.800004 L23,5.599996 L9.81395349,5.599996 Z M12.3255814,15.200004 C11.5164395,15.200004 10.8604651,15.826804 10.8604651,16.600004 C10.8604651,17.373204 11.5164395,18.000004 12.3255814,18.000004 C13.1347442,18.000004 13.7906977,17.373204 13.7906977,16.600004 C13.7906977,15.826804 13.1347442,15.200004 12.3255814,15.200004 Z M18.6046512,15.200004 C17.7954884,15.200004 17.1395349,15.826804 17.1395349,16.600004 C17.1395349,17.373204 17.7954884,18.000004 18.6046512,18.000004 C19.413793,18.000004 20.0697674,17.373204 20.0697674,16.600004 C20.0697674,15.826804 19.413793,15.200004 18.6046512,15.200004 Z" id="Shape" fill="#000000" fill-rule="nonzero"></path>
            </g>
        </g>
    </g>
</svg>