<?xml version="1.0" encoding="UTF-8"?>
<svg width="77px" height="72px" viewBox="0 0 77 72" version="1.1" xmlns="http://www.w3.org/2000/svg" xmlns:xlink="http://www.w3.org/1999/xlink">
    <!-- Generator: Sketch 44.1 (41455) - http://www.bohemiancoding.com/sketch -->
    <title>college_or_office</title>
    <desc>Created with Sketch.</desc>
    <defs></defs>
    <g id="Page-1" stroke="none" stroke-width="1" fill="none" fill-rule="evenodd">
        <g id="my-panic-button" transform="translate(-1125.000000, -1985.000000)" stroke="#FFFFFF" stroke-width="1.5" fill-rule="nonzero">
            <g id="college_or_office" transform="translate(1126.000000, 1986.000000)">
                <path d="M54.1071429,22.0769231 L53.3418367,20.3076923 C53.3418367,20.2307692 53.2653061,20.2307692 53.1887755,20.2307692 L50.8928571,20.2307692 C50.8163265,20.2307692 50.8163265,20.2307692 50.7397959,20.3076923 L49.9744898,22.0769231 C49.9744898,22.1538462 49.9744898,22.2307692 49.9744898,22.2307692 L51.1989796,23.6153846 L50.2806122,27.3076923 L53.1122449,25.2307692 L52.8061224,23.6153846 L54.0306122,22.2307692 C54.1071429,22.1538462 54.1071429,22.0769231 54.1071429,22.0769231 Z" id="Shape"></path>
                <path d="M52.0408163,17.2307692 C56.5561224,17.2307692 60.3061224,13.5384615 60.3061224,8.92307692 C60.3061224,4.38461538 56.6326531,0.615384615 52.0408163,0.615384615 C47.5255102,0.615384615 43.7755102,4.30769231 43.7755102,8.92307692 C43.7755102,13.5384615 47.5255102,17.2307692 52.0408163,17.2307692 Z M45.8418367,7.38461538 C46.6071429,7.76923077 47.9846939,8.30769231 49.5153061,8.30769231 C50.6632653,8.30769231 51.8112245,8 52.9591837,7.23076923 C53.1122449,7.15384615 55.8673469,5.15384615 58.1632653,7.15384615 C58.3163265,7.76923077 58.4693878,8.38461538 58.4693878,9 C58.4693878,12.5384615 55.6377551,15.3846154 52.1173469,15.3846154 C48.5969388,15.3846154 45.7653061,12.5384615 45.7653061,9 C45.6887755,8.38461538 45.7653061,7.92307692 45.8418367,7.38461538 Z" id="Shape"></path>
                <path d="M66.8112245,30.6923077 L66.8112245,27.3846154 C66.8112245,23.3846154 63.5969388,20.2307692 59.6938776,20.2307692 L59.4642857,20.2307692 L56.25,30.7692308 L54.4897959,30.7692308 L54.1836735,29.4615385 L52.2704082,30.7692308 L50.5102041,30.7692308 L53.877551,28.3846154 L53.4183673,26.3846154 L49.9744898,28.8461538 L49.5153061,30.7692308 L47.755102,30.7692308 L44.6938776,20.2307692 L44.3877551,20.2307692 C40.4081633,20.2307692 37.2704082,23.4615385 37.2704082,27.3846154 L37.2704082,30.6923077 L25.8673469,30.6923077 L24.872449,28.4615385 L30.7653061,28.4615385 C32.6020408,28.4615385 34.1326531,26.9230769 34.1326531,25.0769231 L34.1326531,12.4615385 C34.1326531,10.5384615 32.6020408,9.07692308 30.7653061,9.07692308 L11.4030612,9.07692308 C9.48979592,9.07692308 8.03571429,10.6153846 8.03571429,12.4615385 L8.03571429,25 C8.03571429,26.9230769 9.56632653,28.3846154 11.4030612,28.3846154 L17.1428571,28.3846154 L16.1479592,30.6153846 L0.0765306122,30.6153846 L0.0765306122,40.0769231 L2.5255102,40.0769231 L2.5255102,69.3076923 L72.3214286,69.3076923 L72.3214286,40.0769231 L74.7704082,40.0769231 L74.7704082,30.6923077 L66.8112245,30.6923077 Z" id="Shape"></path>
            </g>
        </g>
    </g>
</svg>