<?xml version="1.0" encoding="UTF-8"?>
<svg width="71px" height="79px" viewBox="0 0 71 79" version="1.1" xmlns="http://www.w3.org/2000/svg" xmlns:xlink="http://www.w3.org/1999/xlink">
    <!-- Generator: Sketch 44.1 (41455) - http://www.bohemiancoding.com/sketch -->
    <title>configaration share</title>
    <desc>Created with Sketch.</desc>
    <defs></defs>
    <g id="Page-1" stroke="none" stroke-width="1" fill="none" fill-rule="evenodd">
        <g id="my-safe-place" transform="translate(-952.000000, -2019.000000)" fill-rule="nonzero">
            <g id="configaration-share" transform="translate(952.000000, 2019.000000)">
                <g id="Group">
                    <path d="M12.0491803,6.88235294 C9.20327869,6.88235294 6.8852459,9.19941176 6.8852459,12.0441176 C6.8852459,14.8888235 9.20327869,17.2058824 12.0491803,17.2058824 C14.895082,17.2058824 17.2131148,14.8888235 17.2131148,12.0441176 C17.2131148,9.19941176 14.895082,6.88235294 12.0491803,6.88235294 Z M12.0491803,14.9117647 C10.4655738,14.9117647 9.18032787,13.6270588 9.18032787,12.0441176 C9.18032787,10.4611765 10.4655738,9.17647059 12.0491803,9.17647059 C13.6327869,9.17647059 14.9180328,10.4611765 14.9180328,12.0441176 C14.9180328,13.6270588 13.6327869,14.9117647 12.0491803,14.9117647 Z" id="Shape" fill="#FFFFFF"></path>
                    <ellipse id="Oval" fill="#FFFFFF" cx="57.3770492" cy="10.3235294" rx="1.14754098" ry="1.14705882"></ellipse>
                    <ellipse id="Oval" fill="#FFFFFF" cx="52.7868852" cy="10.3235294" rx="1.14754098" ry="1.14705882"></ellipse>
                    <ellipse id="Oval" fill="#FFFFFF" cx="59.6721311" cy="13.7647059" rx="1.14754098" ry="1.14705882"></ellipse>
                    <ellipse id="Oval" fill="#FFFFFF" cx="55.0819672" cy="13.7647059" rx="1.14754098" ry="1.14705882"></ellipse>
                    <ellipse id="Oval" fill="#FFFFFF" cx="48.1967213" cy="10.3235294" rx="1.14754098" ry="1.14705882"></ellipse>
                    <ellipse id="Oval" fill="#FFFFFF" cx="50.4918033" cy="13.7647059" rx="1.14754098" ry="1.14705882"></ellipse>
                    <ellipse id="Oval" fill="#FFFFFF" cx="43.6065574" cy="10.3235294" rx="1.14754098" ry="1.14705882"></ellipse>
                    <ellipse id="Oval" fill="#FFFFFF" cx="45.9016393" cy="13.7647059" rx="1.14754098" ry="1.14705882"></ellipse>
                    <ellipse id="Oval" fill="#FFFFFF" cx="39.0163934" cy="10.3235294" rx="1.14754098" ry="1.14705882"></ellipse>
                    <ellipse id="Oval" fill="#FFFFFF" cx="41.3114754" cy="13.7647059" rx="1.14754098" ry="1.14705882"></ellipse>
                    <path d="M68.852459,18.8002941 L68.852459,5.28794118 C68.852459,2.37441176 66.4770492,0 63.5622951,0 L5.29016393,0 C2.37540984,0 0,2.37441176 0,5.28794118 L0,18.8002941 C0,20.4864706 0.803278689,21.9661765 2.04262295,22.9411765 C0.803278689,23.9047059 0,25.3958824 0,27.0820588 L0,40.5944118 C0,42.2805882 0.803278689,43.7602941 2.04262295,44.7352941 C0.803278689,45.6988235 0,47.19 0,48.8761765 L0,62.3885294 C0,65.3020588 2.37540984,67.6764706 5.29016393,67.6764706 L37.8688525,67.6764706 L37.8688525,65.3823529 L5.29016393,65.3823529 C3.63770492,65.3823529 2.29508197,64.0402941 2.29508197,62.3885294 L2.29508197,48.8761765 C2.29508197,47.2244118 3.63770492,45.8823529 5.29016393,45.8823529 L32.1311475,45.8823529 L32.1311475,43.5882353 L5.29016393,43.5882353 C3.63770492,43.5882353 2.29508197,42.2461765 2.29508197,40.5944118 L2.29508197,27.0820588 C2.29508197,25.4302941 3.63770492,24.0882353 5.29016393,24.0882353 L63.5622951,24.0882353 C65.2147541,24.0882353 66.557377,25.4302941 66.557377,27.0820588 L66.557377,40.1470588 L68.852459,40.1470588 L68.852459,27.0820588 C68.852459,25.3958824 68.0491803,23.9161765 66.8098361,22.9411765 C68.0491803,21.9776471 68.852459,20.4864706 68.852459,18.8002941 Z M5.29016393,21.7941176 C3.63770492,21.7941176 2.29508197,20.4520588 2.29508197,18.8002941 L2.29508197,5.28794118 C2.29508197,3.63617647 3.63770492,2.29411765 5.29016393,2.29411765 L63.5622951,2.29411765 C65.2147541,2.29411765 66.557377,3.63617647 66.557377,5.28794118 L66.557377,18.8002941 C66.557377,20.4520588 65.2147541,21.7941176 63.5622951,21.7941176 L5.29016393,21.7941176 Z" id="Shape" fill="#FFFFFF"></path>
                    <g id="Group-9" transform="translate(6.885246, 28.676471)">
                        <g id="noun_1146715_cc" transform="translate(32.131148, 13.764706)" stroke="#FFFFFF" stroke-width="1.5">
                            <path d="M24.4392198,22.246704 C22.8123267,22.246704 21.3566855,22.8367612 20.2007351,23.8482878 L13.6503497,20.3079447 C13.8644146,19.6757406 13.9928535,19.0013895 13.9928535,18.2848915 C13.9928535,17.5683935 13.8644146,16.8940424 13.6503497,16.2196914 L20.7573038,12.3000258 C21.7848152,13.0165238 23.0692045,13.4379932 24.3964068,13.4379932 C27.9498839,13.4379932 30.8183533,10.5720012 30.8183533,7.07380505 C30.8183533,3.5756089 27.9498839,0.709616873 24.3964068,0.709616873 C20.8429298,0.709616873 17.9744603,3.5756089 17.9744603,7.07380505 C17.9744603,8.00103776 18.1885252,8.88612353 18.531029,9.68691542 L11.7237657,13.3958463 C10.5678154,12.3843197 9.0265482,11.7521156 7.35684211,11.7521156 C3.71773909,11.7521156 0.720830729,14.6602545 0.720830729,18.2427446 C0.720830729,21.8252346 3.67492612,24.7333736 7.35684211,24.7333736 C9.0265482,24.7333736 10.5678154,24.1011694 11.7237657,23.0896428 L18.2741512,26.6299859 C18.0172733,27.304337 17.8888344,28.0629819 17.8888344,28.8637738 C17.8888344,32.5305577 20.8001168,35.4808437 24.3964068,35.4808437 C27.9926969,35.4808437 30.9039793,32.4884108 30.9039793,28.8637738 C30.9039793,25.2391369 27.9926969,22.246704 24.4392198,22.246704 Z" id="Shape"></path>
                        </g>
                        <path d="M0,5.16176471 C0,8.00647059 2.31803279,10.3235294 5.16393443,10.3235294 C8.00983607,10.3235294 10.3278689,8.00647059 10.3278689,5.16176471 C10.3278689,2.31705882 8.00983607,0 5.16393443,0 C2.31803279,0 0,2.31705882 0,5.16176471 Z M8.03278689,5.16176471 C8.03278689,6.74470588 6.74754098,8.02941176 5.16393443,8.02941176 C3.58032787,8.02941176 2.29508197,6.74470588 2.29508197,5.16176471 C2.29508197,3.57882353 3.58032787,2.29411765 5.16393443,2.29411765 C6.74754098,2.29411765 8.03278689,3.57882353 8.03278689,5.16176471 Z" id="Shape" fill="#FFFFFF"></path>
                        <ellipse id="Oval" fill="#FFFFFF" cx="50.4918033" cy="3.44117647" rx="1.14754098" ry="1.14705882"></ellipse>
                        <ellipse id="Oval" fill="#FFFFFF" cx="45.9016393" cy="3.44117647" rx="1.14754098" ry="1.14705882"></ellipse>
                        <ellipse id="Oval" fill="#FFFFFF" cx="52.7868852" cy="6.88235294" rx="1.14754098" ry="1.14705882"></ellipse>
                        <ellipse id="Oval" fill="#FFFFFF" cx="48.1967213" cy="6.88235294" rx="1.14754098" ry="1.14705882"></ellipse>
                        <ellipse id="Oval" fill="#FFFFFF" cx="41.3114754" cy="3.44117647" rx="1.14754098" ry="1.14705882"></ellipse>
                        <ellipse id="Oval" fill="#FFFFFF" cx="43.6065574" cy="6.88235294" rx="1.14754098" ry="1.14705882"></ellipse>
                        <ellipse id="Oval" fill="#FFFFFF" cx="36.7213115" cy="3.44117647" rx="1.14754098" ry="1.14705882"></ellipse>
                        <ellipse id="Oval" fill="#FFFFFF" cx="39.0163934" cy="6.88235294" rx="1.14754098" ry="1.14705882"></ellipse>
                        <ellipse id="Oval" fill="#FFFFFF" cx="32.1311475" cy="3.44117647" rx="1.14754098" ry="1.14705882"></ellipse>
                        <ellipse id="Oval" fill="#FFFFFF" cx="34.4262295" cy="6.88235294" rx="1.14754098" ry="1.14705882"></ellipse>
                        <path d="M0,26.9558824 C0,29.8005882 2.31803279,32.1176471 5.16393443,32.1176471 C8.00983607,32.1176471 10.3278689,29.8005882 10.3278689,26.9558824 C10.3278689,24.1111765 8.00983607,21.7941176 5.16393443,21.7941176 C2.31803279,21.7941176 0,24.1111765 0,26.9558824 Z M8.03278689,26.9558824 C8.03278689,28.5388235 6.74754098,29.8235294 5.16393443,29.8235294 C3.58032787,29.8235294 2.29508197,28.5388235 2.29508197,26.9558824 C2.29508197,25.3729412 3.58032787,24.0882353 5.16393443,24.0882353 C6.74754098,24.0882353 8.03278689,25.3729412 8.03278689,26.9558824 Z" id="Shape" fill="#FFFFFF"></path>
                    </g>
                </g>
            </g>
        </g>
    </g>
</svg>