<?xml version="1.0" encoding="UTF-8"?>
<svg width="82px" height="82px" viewBox="0 0 82 82" version="1.1" xmlns="http://www.w3.org/2000/svg" xmlns:xlink="http://www.w3.org/1999/xlink">
    <!-- Generator: Sketch 44.1 (41455) - http://www.bohemiancoding.com/sketch -->
    <title>Daily Use</title>
    <desc>Created with Sketch.</desc>
    <defs></defs>
    <g id="Page-1" stroke="none" stroke-width="1" fill="none" fill-rule="evenodd">
        <g id="home" transform="translate(-684.000000, -2738.000000)" stroke="#5791FB">
            <g id="Daily-Use" transform="translate(683.000000, 2739.000000)">
                <circle id="Oval-3-Copy-2" stroke-width="2" cx="42" cy="40" r="40"></circle>
                <g id="Group-11-Copy-4" fill-rule="nonzero" stroke-width="0.5" fill="#5791FB">
                    <g id="Group-14">
                        <g id="noun_995522_cc" transform="translate(17.000000, 16.000000)">
                            <g id="Group">
                                <path d="M43.8646154,24.4029851 L43.3476923,24.3283582 L43.2738462,24.8507463 C42.7569231,27.3880597 40.5415385,29.2537313 37.9569231,29.2537313 C36.9230769,29.2537313 35.9630769,28.9552239 35.0769231,28.358209 L37.44,25.9701493 L27.7661538,24.0298507 L29.6861538,33.8059701 L31.7538462,31.7164179 C33.5261538,33.1343284 35.7415385,33.880597 37.9569231,33.880597 C38.9907692,33.880597 39.9507692,33.7313433 40.9107692,33.4328358 L40.9107692,40.8955224 L10.8553846,40.8955224 L10.8553846,31.3432836 C11.8892308,31.3432836 12.7753846,31.2686567 12.9230769,31.2686567 L16.2461538,31.2686567 C17.3538462,31.2686567 18.24,30.3731343 18.24,29.2537313 C18.24,28.880597 18.1661538,28.5820896 18.0184615,28.2835821 C18.9046154,28.0597015 19.5692308,27.3134328 19.5692308,26.3432836 C19.5692308,25.8955224 19.4215385,25.5223881 19.2,25.1492537 C19.7907692,24.7761194 20.2338462,24.1791045 20.2338462,23.4328358 C20.2338462,23.1343284 20.16,22.8358209 20.0123077,22.5373134 L21.7846154,22.5373134 C22.8923077,22.5373134 23.7784615,21.641791 23.7784615,20.5223881 C23.7784615,19.4029851 22.8923077,18.5074627 21.7846154,18.5074627 L15.1384615,18.5074627 C15.2861538,18.2089552 15.36,17.9104478 15.36,17.6119403 C15.36,16.4925373 14.4738462,15.5970149 13.3661538,15.5970149 L13.2923077,15.5970149 L10.9292308,15.5970149 L10.9292308,7.53731343 L40.9107692,7.53731343 L40.9107692,14.2537313 C39.9507692,13.9552239 38.9169231,13.7313433 37.8830769,13.7313433 C33.0092308,13.7313433 28.8738462,17.238806 27.9876923,22.0149254 L27.9138462,22.5373134 L32.4923077,23.358209 L32.5661538,22.8358209 C33.0830769,20.2985075 35.2984615,18.4328358 37.8830769,18.4328358 C38.9169231,18.4328358 39.8769231,18.7313433 40.7630769,19.3283582 L38.4,21.7164179 L48,23.6567164 L46.08,13.880597 L44.0123077,15.9701493 C43.3476923,15.4477612 42.6830769,15 41.9446154,14.7014925 L41.9446154,4.17910448 C41.9446154,2.23880597 40.3938462,0.671641791 38.4738462,0.671641791 L13.2184615,0.671641791 C11.2984615,0.671641791 9.74769231,2.23880597 9.74769231,4.17910448 L9.74769231,15.6716418 L9.45230769,15.6716418 L9.23076923,15.6716418 L9.23076923,15.6716418 C7.82769231,15.7462687 6.57230769,16.4179104 5.83384615,17.5373134 C5.39076923,18.1343284 4.72615385,18.5074627 3.91384615,18.5074627 L3.17538462,18.5074627 C3.17538462,18.4328358 3.10153846,18.4328358 3.10153846,18.358209 C2.80615385,18.0597015 2.28923077,17.9104478 1.84615385,17.9104478 C1.32923077,17.9104478 1.18153846,17.9850746 0.96,17.9850746 C0.738461538,17.9850746 0.590769231,18.0597015 -8.8817842e-16,18.0597015 L-8.8817842e-16,19.1791045 C0.664615385,19.1791045 0.812307692,19.1791045 1.10769231,19.1044776 C1.25538462,19.1044776 1.47692308,19.0298507 1.92,19.0298507 C2.06769231,19.0298507 2.28923077,19.1044776 2.36307692,19.1791045 C2.43692308,19.2537313 2.43692308,19.3283582 2.43692308,19.4029851 L2.43692308,28.2089552 C2.43692308,28.2835821 2.43692308,28.358209 2.36307692,28.4328358 C2.28923077,28.5074627 2.06769231,28.5820896 1.92,28.5820896 C1.32923077,28.5074627 1.18153846,28.5074627 1.18153846,28.5074627 C1.03384615,28.4328358 0.886153846,28.4328358 0.0738461538,28.4328358 L0.0738461538,29.5522388 C0.147692308,29.5522388 0.221538462,29.5522388 0.221538462,29.5522388 C0.590769231,29.5522388 0.738461538,29.5522388 0.812307692,29.5522388 C0.96,29.6268657 1.10769231,29.6268657 1.92,29.7014925 C1.99384615,29.7014925 1.99384615,29.7014925 2.06769231,29.7014925 C2.43692308,29.7014925 2.80615385,29.5522388 3.10153846,29.3283582 L3.10153846,29.3283582 C3.39692308,29.3283582 4.20923077,29.4029851 4.65230769,29.7014925 C4.8,29.7761194 4.94769231,29.8507463 5.02153846,29.9253731 C5.68615385,30.2985075 6.35076923,30.7462687 7.82769231,31.119403 C8.34461538,31.2686567 9.08307692,31.2686567 9.74769231,31.3432836 L9.74769231,45.8208955 C9.74769231,47.761194 11.2984615,49.3283582 13.2184615,49.3283582 L38.4738462,49.3283582 C40.3938462,49.3283582 41.9446154,47.761194 41.9446154,45.8208955 L41.9446154,33.1343284 C44.8984615,31.7910448 47.1876923,29.1044776 47.7784615,25.6716418 L47.8523077,25.1492537 L47.3353846,25 C47.4092308,25 47.4092308,25 43.8646154,24.4029851 Z M46.5969231,22.238806 L40.6153846,21.0447761 L45.4153846,16.1940299 L46.5969231,22.238806 Z M41.5015385,18.5074627 C40.3938462,17.761194 39.1384615,17.3134328 37.8092308,17.3134328 C34.8553846,17.3134328 32.3446154,19.3283582 31.5323077,22.0895522 C30.8676923,21.9402985 29.76,21.7910448 29.0953846,21.641791 C30.1292308,17.6865672 33.6738462,14.8507463 37.8092308,14.8507463 C39.8030769,14.8507463 41.7230769,15.5223881 43.2738462,16.7164179 L41.5015385,18.5074627 Z M13.2184615,1.71641791 L38.4738462,1.71641791 C39.8030769,1.71641791 40.8369231,2.8358209 40.8369231,4.10447761 L40.8369231,6.34328358 L10.8553846,6.34328358 L10.8553846,4.10447761 C10.8553846,2.8358209 11.8892308,1.71641791 13.2184615,1.71641791 Z M5.53846154,29.0298507 C5.39076923,28.9552239 5.24307692,28.880597 5.09538462,28.8059701 C4.57846154,28.5074627 3.98769231,28.4328358 3.54461538,28.358209 C3.54461538,28.358209 3.54461538,28.2835821 3.54461538,28.2835821 L3.54461538,19.7014925 L3.91384615,19.7014925 C5.02153846,19.7014925 6.05538462,19.1791045 6.72,18.2089552 C7.31076923,17.3134328 8.34461538,16.7910448 9.45230769,16.7910448 L13.2184615,16.7910448 L13.2923077,16.7910448 C13.8092308,16.7910448 14.1784615,17.1641791 14.1784615,17.6865672 C14.1784615,18.2089552 13.8092308,18.5820896 13.2923077,18.5820896 L11.0769231,18.5820896 L11.0769231,19.7014925 L21.7846154,19.7014925 C22.3015385,19.7014925 22.6707692,20.0746269 22.6707692,20.5970149 C22.6707692,21.119403 22.3015385,21.4925373 21.7846154,21.4925373 L13.6615385,21.4925373 L13.6615385,22.6119403 L18.24,22.6119403 C18.7569231,22.6119403 19.1261538,22.9850746 19.1261538,23.5074627 C19.1261538,24.0298507 18.7569231,24.4029851 18.24,24.4029851 L13.8092308,24.4029851 L13.8092308,25.5223881 L17.5753846,25.5223881 C18.0923077,25.5223881 18.4615385,25.8955224 18.4615385,26.4179104 C18.4615385,26.9402985 18.0923077,27.3134328 17.5753846,27.3134328 L12.8492308,27.3134328 L12.8492308,28.358209 L16.2461538,28.358209 C16.7630769,28.358209 17.1323077,28.7313433 17.1323077,29.2537313 C17.1323077,29.7761194 16.7630769,30.1492537 16.2461538,30.1492537 L12.8492308,30.1492537 L12.8492308,30.2238806 L12.8492308,30.1492537 C12.8492308,30.1492537 9.45230769,30.3731343 7.97538462,30.0746269 C6.72,29.7761194 6.12923077,29.4029851 5.53846154,29.0298507 Z M38.4738462,48.2835821 L13.2184615,48.2835821 C11.8892308,48.2835821 10.8553846,47.1641791 10.8553846,45.8955224 L10.8553846,42.1641791 L40.8369231,42.1641791 L40.8369231,45.8955224 C40.8369231,47.1641791 39.8030769,48.2835821 38.4738462,48.2835821 Z M29.1692308,25.5223881 L35.1507692,26.7164179 L30.3507692,31.5671642 L29.1692308,25.5223881 Z M37.9569231,32.8358209 C35.9630769,32.8358209 34.0430769,32.1641791 32.4923077,30.9701493 L34.2646154,29.1791045 C35.3723077,29.9253731 36.6276923,30.3731343 37.9569231,30.3731343 C40.9107692,30.3731343 43.4215385,28.358209 44.2338462,25.5970149 C44.8984615,25.7462687 46.0061538,25.8955224 46.6707692,26.0447761 C45.6369231,30 42.0184615,32.8358209 37.9569231,32.8358209 Z" id="Shape"></path>
                                <rect id="Rectangle-path" x="20.7507692" y="3.43283582" width="7.68" height="1.11940299"></rect>
                                <rect id="Rectangle-path" x="29.6861538" y="3.43283582" width="1.10769231" height="1.11940299"></rect>
                                <path d="M25.8461538,43.1343284 C24.6646154,43.1343284 23.7784615,44.1044776 23.7784615,45.2238806 C23.7784615,46.4179104 24.7384615,47.3134328 25.8461538,47.3134328 C27.0276923,47.3134328 27.9138462,46.3432836 27.9138462,45.2238806 C27.9876923,44.1044776 27.0276923,43.1343284 25.8461538,43.1343284 Z M25.8461538,46.2686567 C25.3292308,46.2686567 24.8861538,45.8208955 24.8861538,45.2985075 C24.8861538,44.7761194 25.3292308,44.3283582 25.8461538,44.3283582 C26.3630769,44.3283582 26.8061538,44.7761194 26.8061538,45.2985075 C26.88,45.8208955 26.4369231,46.2686567 25.8461538,46.2686567 Z" id="Shape"></path>
                            </g>
                        </g>
                    </g>
                </g>
            </g>
        </g>
    </g>
</svg>