<?xml version="1.0" encoding="UTF-8"?>
<svg width="87px" height="63px" viewBox="0 0 87 63" version="1.1" xmlns="http://www.w3.org/2000/svg" xmlns:xlink="http://www.w3.org/1999/xlink">
    <!-- Generator: Sketch 44.1 (41455) - http://www.bohemiancoding.com/sketch -->
    <title>employee_transportation</title>
    <desc>Created with Sketch.</desc>
    <defs></defs>
    <g id="Page-1" stroke="none" stroke-width="1" fill="none" fill-rule="evenodd">
        <g id="my-panic-button" transform="translate(-766.000000, -1990.000000)" fill-rule="nonzero" stroke="#FFFFFF" stroke-width="1.2">
            <g id="employee_transportation" transform="translate(767.000000, 1991.000000)">
                <g id="noun_856517_cc">
                    <ellipse id="Oval" cx="11.8785772" cy="5.24045455" rx="4.59621951" ry="4.61035227"></ellipse>
                    <path d="M15.069878,12.3490341 C12.6850407,10.9183068 9.95191057,10.9169205 7.57329268,12.3441818 C2.72069106,15.257625 0.117479675,23.2860568 0.611585366,33.8196477 C0.658577236,34.8254545 1.50926829,35.6025114 2.51199187,35.555375 C3.51471545,35.509625 4.28939024,34.6549318 4.24239837,33.649125 C4.01365854,28.7511023 4.49117886,24.4090114 5.6245122,21.0935227 C5.76134146,20.6914773 5.90853659,20.305375 6.0654065,19.9359091 L6.0654065,35.4243636 L6.08130081,35.4243636 L6.08130081,58.39225 C6.08130081,59.6129432 7.06813008,60.6021136 8.28439024,60.6021136 C9.50203252,60.6021136 10.4881707,59.61225 10.4881707,58.39225 L10.4881707,35.4243636 L12.1086992,35.4243636 L12.1086992,58.4075 C12.1086992,59.6275 13.0955285,60.6173636 14.3124797,60.6173636 C15.5287398,60.6173636 16.5155691,59.6268068 16.5155691,58.4075 L16.5155691,35.4243636 L16.5300813,35.4243636 L16.5300813,19.77925 C16.7173577,20.2048636 16.8915041,20.6533523 17.0545935,21.1226364 C18.1989837,24.4422841 18.6827236,28.7746705 18.456748,33.6512045 C18.4097561,34.6570114 19.1844309,35.5117045 20.1871545,35.5574545 C20.2168699,35.5588409 20.2445122,35.5602273 20.2735366,35.5602273 C21.2389431,35.5602273 22.0426423,34.7977273 22.088252,33.8217273 C22.5782114,23.3082386 19.9542683,15.2811932 15.069878,12.3490341 Z" id="Shape"></path>
                    <path d="M81.357439,23.9646818 C84.9834146,38.5104091 76.1316667,53.3015227 61.6326016,56.9393409 C47.1300813,60.5771591 32.3843089,51.7037386 28.7590244,37.1607841 C27.3693089,31.5841364 27.759065,25.8189432 29.8882114,20.4842159 C30.1114228,19.9220455 30.1459756,19.314125 30.005,18.7450227 C29.9110163,18.3637727 29.7354878,18.0012386 29.4867073,17.6830682 L25.1309756,12.1202841 L32.7222358,13.0276591 C33.6226829,13.1351023 34.5203659,12.8030682 35.1333333,12.1327614 C38.7199187,8.22598864 43.3368699,5.47682955 48.4838618,4.186125 C62.985,0.546227273 77.7328455,9.41895455 81.357439,23.9646818 L81.357439,23.9646818 Z M84.0967886,23.2777386 C80.0886585,7.190375 63.835,-2.58764773 47.7983333,1.43488636 C41.9119106,2.91205682 36.878252,6.046625 33.0553252,10.2140341 L18.7020732,8.49702273 L27.2656504,19.4326591 C25.0052033,25.0911023 24.4323171,31.4843182 26.0182927,37.8477273 C30.0264228,53.9330114 46.2786992,63.7124205 62.317439,59.6891932 C78.3554878,55.6666591 88.1069919,39.3630227 84.0967886,23.2777386 L84.0967886,23.2777386 Z" id="Shape"></path>
                    <path d="M67.186626,25.5985114 L66.3013821,20.6374091 C65.559187,16.4429659 62.6843902,14.037625 58.4150407,14.037625 L50.6758943,14.037625 C46.847439,14.037625 43.9132114,16.447125 42.8247967,20.4828295 L41.8863415,25.6997159 C39.1158943,26.5675795 37.1166667,28.9542045 37.1166667,31.7615909 L37.1166667,34.5156023 C37.1166667,37.0013523 38.6846748,39.1571477 40.9665447,40.221875 L40.9665447,44.0246705 C40.9665447,45.4616364 42.1282114,46.2712727 43.5614634,46.2712727 C44.9947154,46.2712727 46.1556911,45.4609432 46.1556911,44.0239773 L46.1556911,40.9303068 L62.9207317,40.9303068 L62.9207317,44.0239773 C62.9207317,45.4609432 64.0817073,46.2712727 65.5142683,46.2712727 C66.9482114,46.2712727 68.1112602,45.4609432 68.1112602,44.0239773 L68.1112602,40.3702159 C70.5776423,39.3692614 72.3018293,37.1233523 72.3018293,34.5149091 L72.3018293,31.7608977 C72.3025203,28.8370568 70.1360569,26.3700227 67.186626,25.5985114 Z M46.2939024,21.3465341 C46.6926423,19.9220455 47.7852033,17.6206818 50.6758943,17.6206818 L58.4164228,17.6206818 C60.9899187,17.6206818 62.3367886,18.7429432 62.7825203,21.2654318 L63.5122764,25.3448068 L45.5793496,25.3448068 L46.2939024,21.3465341 Z M44.71,36.1535909 C43.0645935,36.1535909 41.7315447,34.81575 41.7315447,33.1652841 C41.7315447,31.5155114 43.0645935,30.1783636 44.71,30.1783636 C46.3540244,30.1783636 47.6877642,31.5155114 47.6877642,33.1652841 C47.6884553,34.8164432 46.3547154,36.1535909 44.71,36.1535909 Z M64.1943496,36.1535909 C62.5503252,36.1535909 61.2165854,34.81575 61.2165854,33.1652841 C61.2165854,31.5155114 62.5503252,30.1783636 64.1943496,30.1776705 C65.8397561,30.1776705 67.1734959,31.5155114 67.1734959,33.1652841 C67.1728049,34.8150568 65.839065,36.1535909 64.1943496,36.1535909 Z" id="Shape"></path>
                </g>
            </g>
        </g>
    </g>
</svg>