<?xml version="1.0" encoding="UTF-8"?>
<svg width="94px" height="69px" viewBox="0 0 94 69" version="1.1" xmlns="http://www.w3.org/2000/svg" xmlns:xlink="http://www.w3.org/1999/xlink">
    <!-- Generator: Sketch 44.1 (41455) - http://www.bohemiancoding.com/sketch -->
    <title>family</title>
    <desc>Created with Sketch.</desc>
    <defs></defs>
    <g id="Page-1" stroke="none" stroke-width="1" fill="none" fill-rule="evenodd">
        <g id="my-safe-place" transform="translate(-584.000000, -2023.000000)" fill-rule="nonzero" stroke="#FFFFFF" stroke-width="1.5">
            <g id="family" transform="translate(585.000000, 2024.000000)">
                <g id="Group">
                    <ellipse id="Oval" cx="83.95" cy="30.2457143" rx="5.84583333" ry="5.83857143"></ellipse>
                    <path d="M91.1375,40.2957143 C90.3708333,38.6685714 88.6458333,37.7114286 86.825,37.7114286 L80.9791667,37.7114286 C79.1583333,37.7114286 77.5291667,38.6685714 76.6666667,40.2957143 C76.475,40.7742857 76.2833333,41.2528571 76.2833333,41.7314286 L76.6666667,51.1114286 C76.7625,52.26 77.625,53.1214286 78.775,53.1214286 L79.0625,53.1214286 L80.7875,64.7028571 C80.8833333,65.7557143 81.7458333,66.5214286 82.8,66.5214286 L85.0041667,66.5214286 C86.0583333,66.5214286 86.9208333,65.7557143 87.0166667,64.7028571 L88.7416667,53.1214286 L88.9333333,53.1214286 C90.0833333,53.1214286 90.9458333,52.26 91.0416667,51.1114286 L91.425,41.7314286 C91.5208333,41.2528571 91.425,40.7742857 91.1375,40.2957143 Z" id="Shape"></path>
                    <path d="M38.6208333,15.5057143 L36.9916667,15.41 L27.3125,15.41 L25.6833333,15.5057143 C23.0958333,15.6971429 21.0833333,17.8985714 21.275,20.4828571 L22.2333333,35.7971429 C22.3291667,37.8071429 23.9583333,39.3385714 25.9708333,39.3385714 L26.2583333,39.3385714 L27.8875,63.0757143 C27.9833333,65.2771429 29.325,66.5214286 30.8583333,66.5214286 L33.925,66.5214286 C35.4583333,66.5214286 36.8,65.2771429 36.8958333,63.0757143 L38.525,39.3385714 L38.8125,39.3385714 C40.825,39.3385714 42.4541667,37.8071429 42.55,35.7971429 L43.5083333,20.4828571 C43.2208333,17.8985714 41.2083333,15.6014286 38.6208333,15.5057143 Z" id="Shape"></path>
                    <ellipse id="Oval" cx="32.1041667" cy="7.08285714" rx="6.6125" ry="6.60428571"></ellipse>
                    <ellipse id="Oval" cx="9.39166667" cy="30.2457143" rx="5.84583333" ry="5.83857143"></ellipse>
                    <path d="M18.2083333,49.58 C17.9208333,48.4314286 16.1,41.3485714 16.1,41.3485714 C16.1,41.3485714 15.9083333,40.5828571 15.7166667,40.2957143 C14.8541667,38.7642857 13.1291667,37.9028571 11.4041667,37.9028571 L7.37916667,37.9028571 C5.65416667,37.9028571 3.92916667,38.7642857 3.06666667,40.2957143 C2.875,40.6785714 2.68333333,41.3485714 2.68333333,41.3485714 C2.68333333,41.3485714 0.8625,48.4314286 0.575,49.58 C0.2875,50.7285714 1.34166667,51.7814286 2.5875,51.7814286 L2.77916667,51.7814286 C2.77916667,51.7814286 1.15,56.28 0.958333333,56.95 C0.766666667,57.62 1.34166667,58.0985714 1.91666667,58.0985714 L5.75,58.1942857 L6.325,64.0328571 C6.42083333,65.4685714 7.66666667,66.5214286 9.00833333,66.5214286 L9.87083333,66.5214286 C11.3083333,66.5214286 12.4583333,65.4685714 12.5541667,64.0328571 L13.1291667,58.1942857 L16.9625,58.0985714 C17.5375,58.0985714 18.2083333,57.7157143 17.9208333,56.95 C17.6333333,56.1842857 16.1,51.7814286 16.1,51.7814286 L16.2916667,51.7814286 C17.4416667,51.7814286 18.4958333,50.7285714 18.2083333,49.58 Z" id="Shape"></path>
                    <ellipse id="Oval" cx="59.0333333" cy="7.08285714" rx="6.6125" ry="6.60428571"></ellipse>
                    <path d="M68.0416667,38.5728571 L68.2333333,38.5728571 C69.6708333,38.5728571 70.725,37.3285714 70.5333333,35.9885714 L66.6041667,18.1857143 C66.4125,16.75 65.1666667,15.5057143 63.825,15.5057143 L54.4333333,15.5057143 C53.0916667,15.5057143 51.8458333,16.75 51.6541667,18.1857143 L47.725,35.9885714 C47.5333333,37.3285714 48.5875,38.5728571 49.9291667,38.5728571 L50.1208333,38.5728571 L46.1916667,47.3785714 C45.5208333,48.91 46.3833333,49.7714286 47.6291667,49.7714286 L54.1458333,49.9628571 L55.2,63.7457143 C55.2958333,65.2771429 56.6375,66.5214286 58.1708333,66.5214286 L59.8958333,66.5214286 C61.4291667,66.5214286 62.7708333,65.2771429 62.8666667,63.7457143 L63.9208333,49.9628571 L70.4375,49.7714286 C71.6833333,49.7714286 72.6416667,48.8142857 71.875,47.3785714 L68.0416667,38.5728571 Z" id="Shape"></path>
                </g>
            </g>
        </g>
    </g>
</svg>