<?xml version="1.0" encoding="UTF-8"?>
<svg width="27px" height="27px" viewBox="0 0 27 27" version="1.1" xmlns="http://www.w3.org/2000/svg" xmlns:xlink="http://www.w3.org/1999/xlink">
    <!-- Generator: Sketch 44.1 (41455) - http://www.bohemiancoding.com/sketch -->
    <title>FAQ</title>
    <desc>Created with Sketch.</desc>
    <defs></defs>
    <g id="Page-1" stroke="none" stroke-width="1" fill="none" fill-rule="evenodd">
        <g id="home" transform="translate(-369.000000, -2102.000000)" fill-rule="nonzero" fill="#363636">
            <g id="Group-4-Copy" transform="translate(325.000000, 2090.000000)">
                <g id="FAQ" transform="translate(44.000000, 12.000000)">
                    <g id="Group">
                        <g transform="translate(8.709677, 4.790323)" id="Shape">
                            <path d="M4.401,0.077516129 C4.05087097,0.117145161 3.64325806,0.138048387 3.24609677,0.213822581 C2.31503226,0.3915 1.48282258,0.786919355 0.798241935,1.45190323 C0.141967742,2.08945161 0.110177419,3.11327419 0.70766129,3.79219355 C1.19279032,4.34351613 1.91308065,4.34177419 2.68040323,3.78696774 C2.73309677,3.74864516 2.78666129,3.71162903 2.83891935,3.67243548 C3.41158065,3.23825806 4.06785484,3.06798387 4.76941935,3.13809677 C5.34774194,3.19558065 5.84375806,3.44424194 6.0506129,4.04172581 C6.2505,4.61830645 5.97135484,5.05379032 5.56504839,5.42220968 C5.36124194,5.60729032 5.12651613,5.75883871 4.90485484,5.92345161 C3.57140323,6.91330645 2.99220968,8.47059677 3.40243548,9.96474194 C3.59753226,10.6754516 3.92893548,11.0486613 4.36485484,11.0482258 C4.79119355,11.0477903 5.11562903,10.7133387 5.30593548,10.0065484 C5.50320968,9.27275806 5.88033871,8.65829032 6.46040323,8.18012903 C6.92419355,7.79777419 7.43196774,7.46898387 7.89924194,7.09098387 C9.36072581,5.90908065 9.71608065,4.08004839 8.78806452,2.45177419 C7.83391935,0.780387097 6.28359677,0.181596774 4.401,0.077516129 Z"></path>
                            <path d="M4.64574194,12.2279516 C3.56879032,12.2296935 2.88508065,12.8911935 2.88769355,13.9298226 C2.88987097,14.9562581 3.62148387,15.7074677 4.61612903,15.7039839 C5.65998387,15.7005 6.4098871,14.958 6.40466129,13.9341774 C6.39943548,12.8911935 5.71354839,12.2262097 4.64574194,12.2279516 Z"></path>
                        </g>
                        <path d="M13.5,0.404129032 C6.27880645,0.404129032 0.404129032,5.95175806 0.404129032,12.771 C0.404129032,15.9073548 1.6496129,18.8943387 3.91369355,21.195871 L3.39459677,22.2340645 C2.84675806,23.328 3.0105,24.6318387 3.81179032,25.5555 L3.8501129,25.5994839 C4.42103226,26.2322419 5.23712903,26.5954355 6.08937097,26.5954355 C6.453,26.5954355 6.80922581,26.5309839 7.14846774,26.4033871 L11.0848065,24.9266613 C11.8769516,25.0664516 12.689129,25.1374355 13.4995645,25.1374355 C20.7207581,25.1374355 26.5954355,19.5898065 26.5954355,12.7705645 C26.595871,5.95175806 20.7211935,0.404129032 13.5,0.404129032 Z M5.06293548,23.0684516 L6.21348387,20.7664839 L6.02187097,20.6062258 C3.63716129,18.6082258 2.26930645,15.7527581 2.26930645,12.771 C2.26930645,6.98037097 7.30741935,2.26930645 13.5,2.26930645 C19.6925806,2.26930645 24.7306935,6.98037097 24.7306935,12.771 C24.7306935,18.561629 19.6925806,23.2726935 13.5,23.2726935 C12.662129,23.2726935 11.8264355,23.1855968 11.0164355,23.0140161 L10.9258548,22.9948548 L6.49306452,24.6570968 C6.36329032,24.705871 6.22785484,24.7306935 6.08980645,24.7306935 C5.76537097,24.7306935 5.45443548,24.5922097 5.23625806,24.3509516 C4.91791935,23.9969032 4.84954839,23.4939194 5.06293548,23.0684516 Z" id="Shape"></path>
                    </g>
                </g>
            </g>
        </g>
    </g>
</svg>