<?xml version="1.0" encoding="UTF-8"?>
<svg width="26px" height="22px" viewBox="0 0 26 22" version="1.1" xmlns="http://www.w3.org/2000/svg" xmlns:xlink="http://www.w3.org/1999/xlink">
    <!-- Generator: Sketch 44.1 (41455) - http://www.bohemiancoding.com/sketch -->
    <title>features_blue</title>
    <desc>Created with Sketch.</desc>
    <defs></defs>
    <g id="Page-1" stroke="none" stroke-width="1" fill="none" fill-rule="evenodd">
        <g id="home" transform="translate(-154.000000, -1354.000000)" fill-rule="nonzero" fill="#5791FB">
            <g id="features_blue" transform="translate(154.000000, 1354.000000)">
                <g id="Group">
                    <path d="M23.00025,0.0501470588 L6.99985,0.0501470588 C5.346575,0.0501470588 4.0001,1.38988235 4.0001,3.03632353 L6.00015,3.03632353 C6.00015,2.48923529 6.45125,2.04114706 6.99985,2.04114706 L23.00025,2.04114706 C23.5508,2.04114706 23.99995,2.48923529 23.99995,3.03632353 L23.99995,14.9810294 C23.99995,15.5287647 23.5508,15.9768529 23.00025,15.9768529 L23.00025,17.9678529 C24.6545,17.9678529 26,16.6281176 26,14.9810294 L26,3.03632353 C26,1.38988235 24.656125,0.0501470588 23.00025,0.0501470588 Z" id="Shape"></path>
                    <g transform="translate(0.000000, 3.882353)" id="Shape">
                        <path d="M2.199275,15.6695 C2.191475,15.6591471 2.1814,15.6497647 2.173925,15.6390882 L0.0546,15.6390882 C0.268125,16.7575294 1.1102,17.6546765 2.199275,17.9562059 L2.199275,15.6695 Z"></path>
                        <path d="M19.00015,0.149794118 L2.99975,0.149794118 C1.346475,0.149794118 0,1.48952941 0,3.13597059 L0,10.9466176 L2.00005,10.9466176 L2.00005,3.13597059 C2.00005,2.58888235 2.45115,2.14079412 2.99975,2.14079412 L18.999825,2.14079412 C19.550375,2.14079412 19.999525,2.58888235 19.999525,3.13597059 L19.999525,15.081 C19.999525,15.6280882 19.550375,16.0761765 18.999825,16.0761765 L7.048925,16.0761765 L7.048925,18.0671765 L18.999825,18.0671765 C20.654075,18.0671765 21.999575,16.7274412 21.999575,15.081 L21.999575,3.13597059 C21.9999,1.48952941 20.65635,0.149794118 19.00015,0.149794118 Z"></path>
                    </g>
                    <polygon id="Shape" points="5.423925 13.1812353 5.423925 16.4466176 8.5358 16.4466176 8.5358 17.9037941 5.423925 17.9037941 5.423925 21.1847059 3.82395 21.1847059 3.82395 17.9037941 0.728 17.9037941 0.728 16.4466176 3.82395 16.4466176 3.82395 13.1812353"></polygon>
                </g>
            </g>
        </g>
    </g>
</svg>