<?xml version="1.0" encoding="UTF-8"?>
<svg width="44px" height="43px" viewBox="0 0 44 43" version="1.1" xmlns="http://www.w3.org/2000/svg" xmlns:xlink="http://www.w3.org/1999/xlink">
    <!-- Generator: Sketch 44.1 (41455) - http://www.bohemiancoding.com/sketch -->
    <title>noun_234719</title>
    <desc>Created with Sketch.</desc>
    <defs></defs>
    <g id="Page-1" stroke="none" stroke-width="1" fill="none" fill-rule="evenodd">
        <g id="my-panic-button" transform="translate(-150.000000, -880.000000)" fill-rule="nonzero" fill="#000000">
            <g id="noun_234719" transform="translate(150.000000, 880.000000)">
                <path d="M22.345098,0 C10.4392157,0 0.776470588,9.632 0.776470588,21.5 C0.776470588,33.368 10.4392157,43 22.345098,43 C27.1764706,43 31.8352941,41.366 35.6313725,38.442 L35.6313725,40.592 L37.5294118,40.592 L37.5294118,34.916 L31.8352941,34.916 L31.8352941,36.808 L34.7686275,36.808 C31.2313725,39.646 26.9176471,41.194 22.4313725,41.194 C11.4745098,41.194 2.58823529,32.336 2.58823529,21.5 C2.58823529,10.664 11.4745098,1.892 22.345098,1.892 C33.2156863,1.892 42.1019608,10.664 42.1019608,21.5 C42.1019608,25.8 40.7215686,29.842 38.1333333,33.282 L39.6,34.4 C42.4470588,30.616 43.9137255,26.144 43.9137255,21.5 C44,9.632 34.2509804,0 22.345098,0 Z" id="Shape"></path>
                <path d="M19.4980392,11.352 C17.6862745,11.352 16.2196078,12.814 16.2196078,14.62 L16.2196078,28.466 C16.2196078,30.272 17.6862745,31.734 19.4980392,31.734 L25.2784314,31.734 C27.0901961,31.734 28.5568627,30.272 28.5568627,28.466 L28.5568627,14.62 C28.5568627,12.814 27.0901961,11.352 25.2784314,11.352 L19.4980392,11.352 Z M26.6588235,14.62 L26.6588235,28.466 C26.6588235,29.24 26.054902,29.842 25.2784314,29.842 L19.4980392,29.842 C18.7215686,29.842 18.1176471,29.24 18.1176471,28.466 L18.1176471,14.62 C18.1176471,13.846 18.7215686,13.244 19.4980392,13.244 L25.2784314,13.244 C25.9686275,13.244 26.6588235,13.846 26.6588235,14.62 Z" id="Shape"></path>
                <ellipse id="Oval" cx="22.345098" cy="27.434" rx="1.20784314" ry="1.204"></ellipse>
            </g>
        </g>
    </g>
</svg>