<?xml version="1.0" encoding="UTF-8"?>
<svg width="60px" height="71px" viewBox="0 0 60 71" version="1.1" xmlns="http://www.w3.org/2000/svg" xmlns:xlink="http://www.w3.org/1999/xlink">
    <!-- Generator: Sketch 44.1 (41455) - http://www.bohemiancoding.com/sketch -->
    <title>girl</title>
    <desc>Created with Sketch.</desc>
    <defs></defs>
    <g id="Page-1" stroke="none" stroke-width="1" fill="none" fill-rule="evenodd">
        <g id="my-panic-button" transform="translate(-424.000000, -1986.000000)" fill-rule="nonzero" stroke="#FFFFFF">
            <g id="girl" transform="translate(425.000000, 1987.000000)">
                <g id="Group-20" transform="translate(20.605263, 26.833333)">
                    <g id="noun_1009656_cc-copy">
                        <g id="Group">
                            <g id="Group-9">
                                <ellipse id="Oval" cx="12.8782895" cy="4.82322267" rx="1" ry="1"></ellipse>
                                <ellipse id="Oval" cx="3.95239474" cy="4.82322267" rx="1" ry="1"></ellipse>
                                <path d="M11.6755383,12.6550298 L12.239095,12.6550298 L12.239095,12.1550298 L11.7415196,12.1058485 L11.7158377,12.365677 C11.7063086,12.4635497 11.6928185,12.5600526 11.6755383,12.6550298 Z M5.15509455,12.6550298 C5.13787139,12.5602869 5.12442263,12.4640274 5.11491804,12.3664063 L5.11484649,12.365677 L5.08916457,12.1058485 L4.59158924,12.1550298 L4.59158924,12.6550298 L5.15509455,12.6550298 Z M5.15509455,12.6550298 L11.6755383,12.6550298 C11.3858187,14.2474154 10.0307029,15.4109298 8.41534211,15.4109298 C6.79977396,15.4109298 5.44451759,14.2471167 5.15509455,12.6550298 Z M12.2080891,12.714552 C11.8842498,14.5784496 10.2955941,15.9369969 8.41534211,15.9369969 C6.53509014,15.9369969 4.9464344,14.5784496 4.6225951,12.714552 L4.52085301,12.1289627 L12.3098312,12.1289627 L12.2080891,12.714552 Z" id="Shape"></path>
                                <path d="M9.28361785,9.15248711 C9.28361785,9.60614543 8.98436693,9.95017778 8.65504005,9.95017778 L7.69838844,9.95017778 L7.69838844,10.4501778 L8.19838844,10.4501778 L8.19838844,9.97697067 L7.69838844,9.97697067 L7.69838844,10.4769707 L8.65504005,10.4769707 C9.32390272,10.4769707 9.8184897,9.8621003 9.8184897,9.15248711 L9.8184897,7.40045956 L9.3184897,7.40045956 L9.3184897,7.90045956 L9.78361785,7.90045956 L9.78361785,7.40045956 L9.28361785,7.40045956 L9.28361785,9.15248711 Z" id="Shape"></path>
                                <rect id="Rectangle-path" transform="translate(2.067280, 1.654645) rotate(-21.765235) translate(-2.067280, -1.654645) " x="1.15576268" y="1.65463619" width="1.82426463" height="1"></rect>
                                <rect id="Rectangle-path" transform="translate(14.614297, 1.169814) rotate(-158.252854) translate(-14.614297, -1.169814) " x="13.7023938" y="1.16981321" width="1.82421289" height="1"></rect>
                            </g>
                        </g>
                    </g>
                </g>
                <g id="noun_1050448_cc" stroke-width="1.1">
                    <path d="M57.6420789,67.5571333 C57.2467632,64.9113667 55.8188947,56.1422333 54.0621053,54.3766 C52.7586316,53.0671333 38.0006842,49.1939333 37.1184737,46.2921 C40.9357895,44.2796 43.7526053,40.7184333 45.4742895,35.7949 C45.4781053,36.5784333 45.8222895,37.2561667 46.4022895,37.7491333 C43.9403421,41.4582667 43.3244737,44.2727 44.5295,46.3266 C45.8802895,48.6289 53.3050526,48.6864 53.4905,48.3927667 C53.6751842,48.0976 53.7186842,47.7349667 53.6080263,47.4060667 C53.5858947,47.3409 51.5299474,41.1600333 51.3124474,37.9032333 C52.0153158,37.4003 52.4396316,36.6574 52.4396316,35.7834 C52.4396316,34.7614333 52.0290526,33.9779 51.4124211,33.4374 C53.2348421,21.6223 51.7619474,12.7818667 47.0143421,7.17216667 C43.0512632,2.4886 36.9391316,0.113466667 28.8488947,0.113466667 C20.5594737,0.113466667 14.6991842,2.28773333 10.9314737,6.76123333 C6.32886842,12.2275667 5.03302632,20.8318667 6.95847368,33.0310667 C6.03047368,33.5432 5.35355263,34.4678 5.35355263,35.7834 C5.35355263,36.9403 6.09457895,37.8687333 7.24542105,38.3111 C7.134,40.6417667 5.52373684,44.9964333 4.05160526,47.0081667 C3.80892105,47.3401333 3.75931579,47.7756 3.92186842,48.1535667 C4.08365789,48.5315333 11.4595789,48.3107333 12.9828421,46.2537667 C14.3290526,44.4344667 14.0802632,41.4306667 11.5305526,37.6241667 C11.9167105,37.2500333 12.1738947,36.7839 12.2715789,36.2572 C13.8955789,40.8763667 16.8512895,44.3946 20.9173947,46.3963667 C19.7757105,49.1341333 5.38865789,53.1660333 4.18210526,54.3781333 C2.49476316,56.074 0.831842105,64.8707333 0.361736842,67.5264667 C0.302210526,67.8645667 0.394552632,68.2103333 0.613578947,68.4733 C0.832605263,68.7355 1.15618421,68.8873 1.49731579,68.8873 L27.4507895,68.8873 L27.4507895,57.6456667 L13.5117105,61.8347333 L15.2021053,52.6983667 C17.0191842,52.1088 18.7652895,51.4333667 20.1336316,50.5946333 C20.9242632,52.3840333 23.4022368,54.7522667 28.9046053,54.7522667 C34.6618684,54.7522667 36.8055789,52.2460333 37.6206316,50.4735 C38.7997105,51.244 40.2962632,51.8604 41.9263684,52.4009 L43.8846316,61.8270667 L30.0096579,57.6579333 L30.0096579,68.8873 L56.5011579,68.8873 C56.8369474,68.8873 57.1559474,68.7401 57.3749737,68.4848 C57.5947632,68.2287333 57.6916842,67.8898667 57.6420789,67.5571333 Z M13.1415789,27.1982667 C13.1415789,27.0740667 17.893,24.9159 18.7561316,18.7419333 C20.2076579,20.0928 23.6342368,22.7293667 29.6761579,24.4344333 C37.2230263,26.5642333 42.6216053,26.8939 44.9492368,26.9207333 C44.1212105,36.0931333 38.4700263,45.8313333 28.8740789,45.8313333 C19.2041053,45.8321 13.1415789,35.8416667 13.1415789,27.1982667 Z M28.7107632,53.4405 C23.4922895,53.4405 21.6981053,51.1366667 21.2272368,49.8157 C21.2623421,49.7858 22.9069474,48.5215667 23.2892895,46.8042333 C25.0170789,47.3186667 26.9753421,47.6046333 28.8748421,47.6046333 C30.9086579,47.6046333 32.8905789,47.3225 34.6137895,46.8011667 C34.8839474,47.4505333 35.7371579,48.9984333 36.5705263,49.6585333 C36.1286579,50.9879333 34.2925,53.4405 28.7107632,53.4405 Z" id="Shape"></path>
                </g>
            </g>
        </g>
    </g>
</svg>