<?xml version="1.0" encoding="UTF-8"?>
<svg width="53px" height="50px" viewBox="0 0 53 50" version="1.1" xmlns="http://www.w3.org/2000/svg" xmlns:xlink="http://www.w3.org/1999/xlink">
    <!-- Generator: Sketch 44.1 (41455) - http://www.bohemiancoding.com/sketch -->
    <title>go to top btn</title>
    <desc>Created with Sketch.</desc>
    <defs>
        <path d="M18.5505874,34.075882 L27.5179098,25.1495324 L0.871205906,25.1495324 C0.38942904,25.1495324 0,24.7618828 0,24.2823072 C0,23.8027316 0.38942904,23.4150819 0.871205906,23.4150819 L27.5179098,23.4150819 L18.5505874,14.4887324 C18.2099459,14.1496473 18.2099459,13.6015609 18.5505874,13.2624759 C18.8912289,12.9233908 19.441831,12.9233908 19.7824725,13.2624759 L30.2360722,23.6683117 C30.3170943,23.7480964 30.3806924,23.8443584 30.4251239,23.9510271 C30.5131157,24.1626301 30.5131157,24.4019843 30.4251239,24.6135872 C30.3806924,24.7202559 30.3170943,24.8165179 30.2360722,24.8963027 L19.7824725,35.3021385 C19.6125874,35.4712474 19.3895587,35.5562355 19.1665299,35.5562355 C18.9435012,35.5562355 18.7204725,35.4712474 18.5505874,35.3021385 C18.2099459,34.9630534 18.2099459,34.4149671 18.5505874,34.075882 Z M40.9466776,1.77635684e-15 C41.4284545,1.77635684e-15 41.8178835,0.38764969 41.8178835,0.867225257 L41.8178835,47.6973891 C41.8178835,48.1769647 41.4284545,48.5646144 40.9466776,48.5646144 L8.71205906,48.5646144 C8.2302822,48.5646144 7.84085316,48.1769647 7.84085316,47.6973891 L7.84085316,28.6184335 L19.1055455,28.6184335 L16.0868171,31.623369 C15.2643987,32.4411624 14.8105004,33.5303973 14.8105004,34.6890103 C14.8105004,35.8476232 15.2643987,36.9368581 16.0859459,37.7546515 C16.9083642,38.5733122 18.0025989,39.0251365 19.1665299,39.0251365 C20.330461,39.0251365 21.4246957,38.5733122 22.2462428,37.7546515 L32.6963577,27.3522846 C32.896735,27.1545572 33.0814307,26.9308131 33.2443462,26.6862556 C33.3009746,26.6038692 33.3462773,26.5171467 33.3907088,26.4295569 L33.4665037,26.2899337 C33.5301017,26.1780616 33.5928285,26.0635879 33.6442297,25.9404419 C33.6930172,25.8242337 33.7287367,25.7045566 33.7618425,25.5840123 L33.8088876,25.428779 C33.8411222,25.3316497 33.8707432,25.2336533 33.890781,25.1304535 C34.0031665,24.5676243 34.0031665,23.9969901 33.890781,23.4341609 C33.8707432,23.3309611 33.8411222,23.2329646 33.8088876,23.1358354 L33.7618425,22.9806021 C33.7287367,22.8600578 33.6930172,22.7403807 33.6433585,22.622438 C33.5936998,22.5044954 33.5344578,22.3943578 33.4726021,22.2850874 L33.3907088,22.1350575 C33.3462773,22.0474677 33.3009746,21.9607452 33.243475,21.8774915 C33.0805595,21.6338013 32.896735,21.4100571 32.6981001,21.2140642 L22.247114,10.8099628 C21.4246957,9.99130218 20.330461,9.53947782 19.1665299,9.53947782 C18.0025989,9.53947782 16.9083642,9.99130218 16.0868171,10.8099628 C15.2643987,11.6277562 14.8105004,12.7169912 14.8105004,13.8756041 C14.8105004,15.034217 15.2643987,16.123452 16.0868171,16.9412454 L19.1055455,19.9461809 L7.84085316,19.9461809 L7.84085316,0.867225257 C7.84085316,0.38764969 8.2302822,1.77635684e-15 8.71205906,1.77635684e-15 L40.9466776,1.77635684e-15 Z" id="path-1"></path>
        <filter x="-21.5%" y="-14.4%" width="133.5%" height="128.8%" filterUnits="objectBoundingBox" id="filter-2">
            <feOffset dx="-2" dy="0" in="SourceAlpha" result="shadowOffsetOuter1"></feOffset>
            <feGaussianBlur stdDeviation="2" in="shadowOffsetOuter1" result="shadowBlurOuter1"></feGaussianBlur>
            <feColorMatrix values="0 0 0 0 0   0 0 0 0 0   0 0 0 0 0  0 0 0 0.293563179 0" type="matrix" in="shadowBlurOuter1"></feColorMatrix>
        </filter>
    </defs>
    <g id="Page-1" stroke="none" stroke-width="1" fill="none" fill-rule="evenodd">
        <g id="home" transform="translate(-1387.000000, -1626.000000)" fill-rule="nonzero">
            <g id="go-to-top-btn" transform="translate(1390.000000, 1628.000000)">
                <g id="noun_289303_cc" transform="translate(25.088235, 21.000000) scale(1, -1) rotate(90.000000) translate(-25.088235, -21.000000) translate(4.088235, -3.500000)">
                    <g id="Group">
                        <g id="Combined-Shape">
                            <g>
                                <use fill="black" fill-opacity="1" filter="url(#filter-2)" xlink:href="#path-1"></use>
                                <use fill="#5791FB" fill-rule="evenodd" xlink:href="#path-1"></use>
                            </g>
                        </g>
                    </g>
                </g>
            </g>
        </g>
    </g>
</svg>