<?xml version="1.0" encoding="UTF-8"?>
<svg width="30px" height="30px" viewBox="0 0 30 30" version="1.1" xmlns="http://www.w3.org/2000/svg" xmlns:xlink="http://www.w3.org/1999/xlink">
    <!-- Generator: Sketch 44.1 (41455) - http://www.bohemiancoding.com/sketch -->
    <title>how_it_works_blue</title>
    <desc>Created with Sketch.</desc>
    <defs></defs>
    <g id="Page-1" stroke="none" stroke-width="1" fill="none" fill-rule="evenodd">
        <g id="home" transform="translate(-551.000000, -1349.000000)" fill-rule="nonzero" fill="#5791FB">
            <g id="how_it_works_blue" transform="translate(551.000000, 1348.000000)">
                <g id="Group" transform="translate(0.000000, 0.325639)">
                    <path d="M14.9455916,0.775293697 L13.6146763,0.837667742 L13.7234934,2.96254179 L15,2.90432595 L15.7533482,2.9417503 L15.8621653,0.816876465 L15.0544084,0.775293697 L15,0.775293697 L14.9455916,0.775293697 Z M20.3487729,1.76496114 L19.6121657,3.7650871 L19.9553571,3.88567676 L19.9804693,3.90646804 L21.1272321,4.45535938 L21.3574221,4.59258211 L22.4707029,2.77126144 L22.1944757,2.60493079 L22.1526236,2.5799813 L22.1023993,2.55087339 L20.8886721,1.96871613 L20.8384479,1.94792485 L20.7882257,1.92713357 L20.3487729,1.76496114 Z M9.06529029,1.98950741 L7.8976005,2.54671517 L7.84737729,2.57166466 L7.8055245,2.59661437 L7.08147321,3.03323226 L8.19475457,4.85455293 L8.87276786,4.44704274 L9.99441964,3.90646804 L9.06529029,1.98950741 Z M15,5.0292 C9.09535414,5.0292 4.28571429,9.8078129 4.28571429,15.6743613 C4.28571429,21.5409097 9.09535414,26.3195226 15,26.3195226 C20.904645,26.3195226 25.7142857,21.5409097 25.7142857,15.6743613 C25.7142857,9.8078129 20.904645,5.0292 15,5.0292 Z M26.0365521,5.59472419 L24.4503343,7.03764259 L24.9148993,7.54495095 L25.6598764,8.53045997 L25.6640614,8.53045997 L25.6933586,8.5637261 L26.0951443,8.26433094 L27.4930243,7.42020308 L27.4637271,7.37862031 L27.4386171,7.32872112 L27.40932,7.28713856 L26.6057486,6.22262243 L26.5764514,6.18103966 L26.5387843,6.14361532 L26.0365521,5.59472419 Z M3.61188621,5.99391774 L3.46121657,6.15609017 L3.423549,6.19351452 L3.39425229,6.23093886 L2.59068086,7.29545499 L2.56138393,7.34119597 L2.53627243,7.38693695 L2.23493314,7.87761225 L4.06389514,8.98371114 L4.34849336,8.52214355 L5.08091529,7.54910938 L5.19810257,7.42436129 L3.61188621,5.99391774 Z M15,7.15823226 C19.7465593,7.15823226 23.5714286,10.9585548 23.5714286,15.6743613 C23.5714286,20.3903806 19.7465593,24.1904903 15,24.1904903 C10.2534401,24.1904903 6.42857143,20.3903806 6.42857143,15.6743613 C6.42857143,10.9585548 10.2534401,7.15823226 15,7.15823226 Z M29.4098764,11.5618361 L27.3339836,12.0982524 L27.5934707,13.1045529 L27.7441414,14.0775871 L29.8618864,13.7532422 L29.7028457,12.7261507 L29.6986607,12.6720933 L29.6819186,12.6180356 L29.4098764,11.5618361 Z M0.460379571,12.0691445 L0.318080357,12.6221938 L0.301339286,12.6720933 L0.297154071,12.7261507 L0.0837053571,14.1025368 L0.0753347143,14.1524358 L0.0753347143,14.2064934 L0.0627790714,14.3769823 L2.20563621,14.4850971 L2.21400664,14.356191 L2.40652907,13.1045529 L2.53627243,12.6014026 L0.460379571,12.0691445 Z M27.8571429,15.6203039 L27.7859936,16.99669 L27.6897321,17.6329047 L29.8074771,17.9572493 L29.9162957,17.2503442 L29.9246657,17.1962868 L29.9246657,17.1422292 L30,15.7242605 L27.8571429,15.6203039 Z M2.44419643,18.3980257 L0.368303571,18.9302837 L0.661272429,20.0571743 L0.673828071,20.1070725 L0.690569143,20.1569727 L1.02539057,21.0634742 L3.03850457,20.3316194 L2.72879464,19.4958079 L2.44419643,18.3980257 Z M26.492745,21.3670274 L26.3044093,21.7703789 L25.6556914,22.826579 L25.5050229,23.0220178 L27.2209821,24.2986047 L27.40932,24.0491098 L27.4386171,24.0075255 L27.4637271,23.9659434 L28.1626671,22.826579 L28.1919643,22.7766809 L28.2128914,22.7309386 L28.4263393,22.294321 L26.492745,21.3670274 Z M5.02650664,23.7206065 L3.31054693,25.0055094 L3.39425229,25.1177839 L3.423549,25.1552081 L3.46121657,25.1967902 L4.35686379,26.1781421 L4.39453114,26.2155662 L4.43219871,26.2529903 L4.92606021,26.697924 L6.36579236,25.1219419 L5.88867193,24.6894823 L5.87193086,24.6645321 L5.0851005,23.8037708 L5.02650664,23.7206065 Z M22.7511171,25.8454808 L22.1819186,26.2696223 L21.081195,26.9349449 L21.4118314,27.4755211 L22.0647321,28.8227983 L22.1023993,28.7978481 L22.1526236,28.7770581 L22.1944757,28.752108 L23.3454236,28.0576773 L23.3872757,28.0285692 L23.42913,27.999461 L24.0318086,27.5503694 L22.7511171,25.8454808 Z M9.66796886,27.2925563 L8.73883929,29.2053598 L9.11132807,29.3883225 L9.16155129,29.4091146 L9.2117745,29.4299067 L10.4882811,29.8956325 L10.5385046,29.9164225 L10.592913,29.9372146 L10.9402903,30.0245369 L11.4760046,27.9620369 L11.1872209,27.8913466 L10.0446429,27.4796791 L10.0195311,27.458887 L9.66796886,27.2925563 Z M17.4107143,28.2156919 L16.2974331,28.3861806 L15.3892299,28.4277627 L15.4980469,30.556795 L16.4773995,30.5027388 L16.5318081,30.5027388 L16.5862166,30.5027388 L17.7329799,30.3322502 L17.4107143,28.2156919 Z" id="Shape"></path>
                </g>
            </g>
        </g>
    </g>
</svg>