<?xml version="1.0" encoding="UTF-8"?>
<svg width="18px" height="15px" viewBox="0 0 18 15" version="1.1" xmlns="http://www.w3.org/2000/svg" xmlns:xlink="http://www.w3.org/1999/xlink">
    <!-- Generator: Sketch 44.1 (41455) - http://www.bohemiancoding.com/sketch -->
    <title>menu_icon</title>
    <desc>Created with Sketch.</desc>
    <defs></defs>
    <g id="Page-1" stroke="none" stroke-width="1" fill="none" fill-rule="evenodd">
        <g id="home" transform="translate(-1272.000000, -45.000000)" fill-rule="nonzero" fill="#363636">
            <g id="menu_icon" transform="translate(1272.000000, 45.000000)">
                <path d="M1.08459169,0.624228071 C0.889418485,0.633362202 0.713935696,0.746219769 0.624261404,0.920278505 C0.534587113,1.09433724 0.544348768,1.30314613 0.64986839,1.46803053 C0.755388013,1.63291494 0.940630202,1.72881803 1.13579975,1.71960562 L17.5223782,1.71960562 C17.7193626,1.72239617 17.9025865,1.61862189 18.0018909,1.44801934 C18.1011953,1.27741679 18.1011953,1.0664169 18.0018909,0.89581435 C17.9025865,0.725211797 17.7193626,0.62143752 17.5223782,0.624228071 L1.13579975,0.624228071 C1.11873978,0.623425431 1.10165166,0.623425431 1.08459169,0.624228071 Z M1.08459169,7.19649337 C0.889418485,7.2056275 0.713935696,7.31848507 0.624261404,7.4925438 C0.534587113,7.66660254 0.544348768,7.87541142 0.64986839,8.04029583 C0.755388013,8.20518024 0.940630202,8.30108333 1.13579975,8.29187092 L17.5223782,8.29187092 C17.7193626,8.29466147 17.9025865,8.19088719 18.0018909,8.02028464 C18.1011953,7.84968209 18.1011953,7.6386822 18.0018909,7.46807965 C17.9025865,7.2974771 17.7193626,7.19370282 17.5223782,7.19649337 L1.13579975,7.19649337 C1.11873978,7.19569073 1.10165166,7.19569073 1.08459169,7.19649337 Z M1.08459169,13.7687587 C0.889418485,13.7778928 0.713935696,13.8907504 0.624261404,14.0648091 C0.534587113,14.2388678 0.544348768,14.4476767 0.64986839,14.6125611 C0.755388013,14.7774455 0.940630202,14.8733486 1.13579975,14.8641362 L17.5223782,14.8641362 C17.7193626,14.8669268 17.9025865,14.7631525 18.0018909,14.5925499 C18.1011953,14.4219474 18.1011953,14.2109475 18.0018909,14.0403449 C17.9025865,13.8697424 17.7193626,13.7659681 17.5223782,13.7687587 L1.13579975,13.7687587 C1.11873978,13.767956 1.10165166,13.767956 1.08459169,13.7687587 Z" id="Shape"></path>
            </g>
        </g>
    </g>
</svg>