<?xml version="1.0" encoding="UTF-8"?>
<svg width="31px" height="18px" viewBox="0 0 31 18" version="1.1" xmlns="http://www.w3.org/2000/svg" xmlns:xlink="http://www.w3.org/1999/xlink">
    <!-- Generator: Sketch 44.1 (41455) - http://www.bohemiancoding.com/sketch -->
    <title>Shape</title>
    <desc>Created with Sketch.</desc>
    <defs></defs>
    <g id="Page-1" stroke="none" stroke-width="1" fill="none" fill-rule="evenodd">
        <g id="my-panic-button" transform="translate(-149.000000, -3371.000000)" fill-rule="nonzero" stroke="#F7F7F7" stroke-width="0.7" fill="#5791FB">
            <g id="noun_1075379_cc-copy-3" transform="translate(150.000000, 3371.000000)">
                <g id="Group">
                    <g id="Shape">
                        <path d="M6.14558441,10.8 L9.43675324,14.0911688 C10.139697,14.7941125 10.139697,15.9338095 9.43675324,16.6367533 C8.73380952,17.339697 7.59411256,17.339697 6.89116882,16.6367533 L0.527207794,10.2727922 C0.175735931,9.92132035 -2.8727028e-16,9.46066018 0,9 C-1.8735012e-16,8.53933982 0.175735931,8.07867965 0.527207794,7.7272078 L0.527207794,7.7272078 L6.89116882,1.36324676 C7.59411256,0.660303036 8.73380952,0.660303036 9.43675324,1.36324676 C10.139697,2.06619048 10.139697,3.20588744 9.43675324,3.90883118 L6.14558441,7.2 L27,7.2 C27.9941125,7.2 28.8,8.00588745 28.8,9 C28.8,9.99411255 27.9941125,10.8 27,10.8 L6.14558441,10.8 Z" transform="translate(14.400000, 9.000000) scale(-1, 1) translate(-14.400000, -9.000000) "></path>
                    </g>
                </g>
            </g>
        </g>
    </g>
</svg>