<?xml version="1.0" encoding="UTF-8"?>
<svg width="21px" height="22px" viewBox="0 0 21 22" version="1.1" xmlns="http://www.w3.org/2000/svg" xmlns:xlink="http://www.w3.org/1999/xlink">
    <!-- Generator: Sketch 44.1 (41455) - http://www.bohemiancoding.com/sketch -->
    <title>noun_884219_cc 2</title>
    <desc>Created with Sketch.</desc>
    <defs></defs>
    <g id="Page-1" stroke="none" stroke-width="1" fill="none" fill-rule="evenodd">
        <g id="Incidents" transform="translate(-370.000000, -809.000000)" fill-rule="nonzero" fill="#5791FB">
            <g id="noun_884219_cc-2" transform="translate(370.000000, 809.000000)">
                <g id="Group" transform="translate(0.000000, 0.181590)">
                    <g transform="translate(0.000000, 0.000028)" id="Shape">
                        <path d="M9.91823921,13.5509358 C10.5204695,14.201242 11.2471247,14.6027228 11.9331561,14.6833281 C12.6358216,14.7524457 13.3779229,14.5134368 14.1983791,13.5698174 C14.4526311,13.2774066 14.7311905,12.9388568 15.1997337,12.7771251 C15.6682741,12.6153991 16.2312924,12.7157743 16.8299775,13.0476478 C17.9721399,13.9413103 19.1500492,14.8463666 20.2736321,15.7654104 C20.8092564,16.3172945 20.947127,17.0441746 20.774308,17.6150029 C20.6014891,18.1858312 20.2312204,18.6182023 19.8889591,18.9801861 C17.9808576,21.0288235 15.7206801,22.0188298 13.5023728,21.6727353 C11.3595493,21.2905119 9.28595961,19.7441119 6.98751513,17.3758944 C5.99955632,16.3579473 5.22987592,15.5648992 4.25212697,14.557472 C1.9536825,12.1892545 0.452842895,10.0527176 0.0818834211,7.84484244 C-0.359182895,5.11427675 1.04867092,2.89166534 2.69509026,1.26438097 C3.04641197,0.911735455 3.46604447,0.53022382 4.02005487,0.352155827 C4.57406526,0.174090681 5.27952711,0.316143643 5.81515145,0.868030575 C6.70712092,2.02572164 7.58551224,3.23939402 8.45284539,4.41622288 C8.77493842,5.03307922 8.87235632,5.61318884 8.71539237,6.09595538 C8.55843118,6.57872762 8.22985303,6.86574037 7.94605737,7.12771057 C7.03023908,7.97307019 6.79827474,8.73770488 6.86535592,9.46170095 C6.94358092,10.168555 7.33313921,10.9173659 7.96438539,11.5377782 L9.91823921,13.5509358 Z"></path>
                    </g>
                </g>
            </g>
        </g>
    </g>
</svg>