<?xml version="1.0" encoding="UTF-8"?>
<svg width="82px" height="82px" viewBox="0 0 82 82" version="1.1" xmlns="http://www.w3.org/2000/svg" xmlns:xlink="http://www.w3.org/1999/xlink">
    <!-- Generator: Sketch 44.1 (41455) - http://www.bohemiancoding.com/sketch -->
    <title>Quality</title>
    <desc>Created with Sketch.</desc>
    <defs></defs>
    <g id="Page-1" stroke="none" stroke-width="1" fill="none" fill-rule="evenodd">
        <g id="home" transform="translate(-1068.000000, -2397.000000)">
            <g id="Quality" transform="translate(1069.000000, 2398.000000)">
                <circle id="Oval-3" stroke="#5791FB" stroke-width="2" cx="40" cy="40" r="40"></circle>
                <g id="noun_842988_cc" transform="translate(17.000000, 15.000000)" stroke="#FFFFFF" stroke-width="0.4" fill="#5791FB" fill-rule="nonzero">
                    <path d="M4.64608524,26.2480366 C5.14300816,27.8084152 6.37537772,29.0257809 7.94328349,29.5050919 C9.00967317,29.8318624 9.73063185,30.8240761 9.71090591,31.9377683 C9.69012714,33.2845676 10.2141906,34.582814 11.1645094,35.5387363 C12.5295323,36.898698 14.5439081,37.3776218 16.3762099,36.7778335 C17.4365607,36.4210624 18.6060635,36.7939458 19.2631577,37.6983056 C20.2035548,39.0413963 21.7447819,39.8373714 23.3859217,39.8275297 C25.0241492,39.825357 26.5601526,39.0320796 27.5086857,37.6983056 C28.1545027,36.794385 29.3152827,36.4169046 30.3703094,36.7677184 C32.2026112,37.3675067 34.216987,36.888583 35.5820099,35.5286213 C36.5323287,34.5726989 37.0563922,33.2744525 37.0356134,31.9276533 C37.0158875,30.813961 37.7368461,29.8217473 38.8032358,29.4949769 C40.3721433,29.0141077 41.6104688,27.8039522 42.1257582,26.2480366 C42.6359229,24.6996298 42.3560232,22.9999843 41.3761647,21.6962512 C40.7059153,20.8066886 40.7059153,19.5816355 41.3761647,18.6920729 L41.3761647,18.6920729 C42.3490591,17.380441 42.6282225,15.6805779 42.1258141,14.1273577 C41.6234057,12.5741374 40.4011932,11.3585177 38.8437544,10.863002 C37.7773647,10.5362316 37.056406,9.54401788 37.076132,8.43032559 C37.087582,7.07588852 36.5484552,5.77471977 35.5820099,4.82430006 C34.2170717,3.4606121 32.1999961,2.97955654 30.3652446,3.58014539 C29.3117194,3.91833082 28.1598026,3.54306842 27.5086857,2.64955815 C26.5590486,1.31769897 25.0232274,0.526399765 23.3859217,0.525391638 C21.7457174,0.514397653 20.2046791,1.30838484 19.2631577,2.64955815 C18.6113243,3.54525259 17.4565722,3.92077283 16.401534,3.58014539 C15.8781728,3.40105348 15.3289626,3.3087958 14.7757266,3.30703826 L14.7757266,3.30703826 C13.4239329,3.31399801 12.1310189,3.86028375 11.1847687,4.82430006 C10.2344499,5.78022239 9.71038642,7.07846884 9.73116519,8.42526805 C9.75089113,9.53896034 9.02993246,10.531174 7.96354278,10.8579445 C6.39024334,11.329562 5.14982245,12.5436159 4.64608524,14.1048847 C4.1481212,15.6542145 4.42708239,17.3481613 5.3956787,18.6566701 C6.0559117,19.5495502 6.0559117,20.7679683 5.3956787,21.6608484 C4.41532997,22.9779208 4.1358707,24.6880908 4.64608524,26.2480366 Z M7.43173661,17.1444658 C6.94980377,16.4883589 6.81347857,15.6407662 7.06542728,14.8669623 C7.31737598,14.0931584 7.92681536,13.4876872 8.70300659,13.2400455 C10.8385106,12.5852983 12.2836592,10.6000448 12.2483811,8.36963512 C12.2372492,7.69807921 12.4984605,7.05054984 12.9726504,6.57420866 C13.4509736,6.09775665 14.1001243,5.83191465 14.7757266,5.83580792 L14.7757266,5.83580792 C15.0514943,5.83696236 15.3252217,5.88308746 15.5860979,5.97236148 C17.7010309,6.68503637 20.0338555,5.93114238 21.3296045,4.11624455 C21.8053936,3.45526554 22.5707362,3.0634101 23.3859217,3.0634101 C24.2011072,3.0634101 24.9664498,3.45526554 25.4422389,4.11624455 C26.3918761,5.44810373 27.9276972,6.23940294 29.5650029,6.24041107 C30.1143241,6.24135314 30.6600967,6.15251496 31.1806807,5.97741902 C32.0962655,5.67244577 33.105848,5.91369117 33.7839985,6.59949636 C34.2487867,7.06925181 34.5075166,7.70422993 34.5032031,8.36457758 C34.4696246,10.59445 35.9141098,12.5787921 38.0485775,13.2349879 C38.8247688,13.4826296 39.4342082,14.0881009 39.6861569,14.8619048 C39.9381056,15.6357086 39.8017804,16.4833014 39.3198475,17.1394083 L39.3198475,17.1394083 C37.9768205,18.9233122 37.9768205,21.3790337 39.3198475,23.1629376 C39.8061557,23.8194442 39.9450556,24.6700424 39.6927961,25.4468081 C39.4405365,26.2235738 38.8281684,26.830894 38.0485775,27.0774731 C35.9130736,27.7322203 34.4679249,29.7174738 34.5032031,31.9478834 C34.5129631,32.6176944 34.2518557,33.2631428 33.7789337,33.7382523 C33.1007832,34.4240575 32.0912006,34.6653029 31.1756159,34.3603297 C29.0610658,33.6512098 26.7308596,34.406976 25.4371741,36.2215041 C24.961385,36.8824832 24.1960424,37.2743386 23.3808569,37.2743386 C22.5656714,37.2743386 21.8003288,36.8824832 21.3245397,36.2215041 C20.0308542,34.406976 17.7006479,33.6512098 15.5860979,34.3603297 C14.6705131,34.6653029 13.6609306,34.4240575 12.9827801,33.7382523 C12.509858,33.2631428 12.2487507,32.6176944 12.2585107,31.9478834 C12.2937889,29.7174738 10.8486402,27.7322203 8.71313623,27.0774731 C7.936945,26.8298314 7.32750562,26.2243601 7.07555692,25.4505562 C6.82360821,24.6767524 6.95993341,23.8291596 7.44186625,23.1730527 C8.77861754,21.3939225 8.78274066,18.9483105 7.45199589,17.164696 L7.43173661,17.1444658 Z M0.847469738,43.4993032 C0.299870769,42.6853612 0.287934946,41.6246001 0.817080814,40.7985772 L5.26905818,33.7180222 C5.50150969,33.3180681 5.93407459,33.0767349 6.39701497,33.0887215 C6.85995535,33.100708 7.27941411,33.3641019 7.49079619,33.7755478 C7.70217826,34.1869937 7.67175994,34.6808498 7.41147732,35.0633276 L3.0202778,42.0882498 L7.02655095,41.4408847 C8.21604722,41.2352738 9.37081586,41.953247 9.71090591,43.1098727 L10.8555554,46.9991204 L15.3379217,39.8882202 C15.551646,39.4518408 15.9968378,39.1763132 16.483299,39.1793504 C16.9697602,39.1823876 17.411467,39.4634524 17.6197102,39.9024663 C17.8279533,40.3414802 17.7659079,40.8608098 17.4600815,41.2385832 L12.9321319,48.420289 C12.4824699,49.1448737 11.6889526,49.5850829 10.8352961,49.583523 C10.7172581,49.5916794 10.5987967,49.5916794 10.4807586,49.583523 C9.5154479,49.4467024 8.72143418,48.7549214 8.45483038,47.8184418 L7.32537537,43.9797695 L3.36975043,44.622077 C2.38770365,44.7943473 1.39837725,44.3592703 0.8626642,43.5195334 L0.847469738,43.4993032 Z M41.4875908,33.753425 L45.9395681,40.83398 C46.4672042,41.665699 46.454116,42.7298643 45.9061835,43.5483929 C45.358251,44.3669214 44.3785267,44.7858685 43.4071578,44.6170194 L39.4515329,43.9747119 L38.3423371,47.8133843 C38.0757333,48.7498639 37.2817196,49.4416449 36.3164089,49.5784655 C36.1983703,49.5866057 36.07991,49.5866057 35.9618714,49.5784655 C35.1082149,49.5800254 34.3146977,49.1398162 33.8650357,48.4152314 L29.3117619,41.2385832 C28.9695249,40.6497331 29.1556738,39.8960115 29.7328518,39.5335798 C30.3100298,39.171148 31.0709684,39.3301577 31.454181,39.8932777 L35.9365473,47.004178 L37.0609375,43.1098727 C37.3999847,41.9643288 38.5392127,41.2492721 39.7199684,41.4408847 L43.7262415,42.0933073 L39.3198475,35.103788 C38.9776105,34.5149379 39.1637594,33.7612163 39.7409374,33.3987846 C40.3181154,33.0363528 41.0790541,33.1953625 41.4622667,33.7584825 L41.4875908,33.753425 Z M21.2283081,31.2246553 C21.9474085,31.3654741 22.6784483,31.4366099 23.4112458,31.437072 C29.4468358,31.4374819 34.4202208,26.7072691 34.7134625,20.6874736 C35.0067041,14.6676781 30.5165559,9.47779366 24.5094205,8.89325313 C18.5022852,8.30871259 13.093199,12.5353253 12.2170552,18.4983999 C11.3409115,24.4614745 15.3061893,30.0614881 21.2283081,31.2246553 L21.2283081,31.2246553 Z M14.8010507,18.4796562 C15.6133405,14.3877901 19.2084309,11.4396063 23.3859217,11.4395615 C23.9538687,11.440727 24.5203777,11.496619 25.0775718,11.6064603 C28.5484199,12.291454 31.2642252,14.9968768 31.9585043,18.4610869 C32.6527833,21.925297 31.1887952,25.4660055 28.2492534,27.432045 C25.3097117,29.3980845 21.4735698,29.4022363 18.5297671,27.4425643 C15.5859643,25.4828923 14.1142934,21.945361 14.8010507,18.4796562 Z M19.2277039,21.1146342 C18.7325954,20.6202375 18.7325954,19.818662 19.227704,19.3242653 C19.7228125,18.8298686 20.5255419,18.8298686 21.0206505,19.3242653 L22.2564667,20.5583049 L25.7562578,17.0686027 C26.2513663,16.5742061 27.0540958,16.5742061 27.5492043,17.0686028 C28.0443127,17.5629995 28.0443128,18.3645749 27.5492043,18.8589717 L23.1580048,23.2438583 C22.9204539,23.4816681 22.5979046,23.6153188 22.2615315,23.6153188 C21.9251584,23.6153188 21.6026091,23.4816681 21.3650583,23.2438583 L19.2277039,21.1146342 Z" id="Shape"></path>
                </g>
            </g>
        </g>
    </g>
</svg>