<?xml version="1.0" encoding="UTF-8"?>
<svg width="32px" height="32px" viewBox="0 0 32 32" version="1.1" xmlns="http://www.w3.org/2000/svg" xmlns:xlink="http://www.w3.org/1999/xlink">
    <!-- Generator: Sketch 44.1 (41455) - http://www.bohemiancoding.com/sketch -->
    <title>radius</title>
    <desc>Created with Sketch.</desc>
    <defs></defs>
    <g id="Page-1" stroke="none" stroke-width="1" fill="none" fill-rule="evenodd">
        <g id="Incidents" transform="translate(-1053.000000, -804.000000)">
            <g id="radius" transform="translate(1053.000000, 804.000000)">
                <g id="radus" fill-rule="nonzero" fill="#5791FB">
                    <path d="M31.8208,0.700444444 L31.1207111,0 L25.0652444,6.05582222 L23.6444444,4.63573333 C23.4702222,5.12604444 22.6592,7.01191111 21.8499556,8.51875556 C21.0840889,9.94844444 20.3164444,11.1918222 19.7091556,12.0277333 C17.616,10.0007111 14.7662222,8.75128889 11.6238222,8.75128889 C5.20355556,8.75128889 0,13.9562667 0,20.3758222 C0,26.7957333 5.20355556,32 11.6234667,32 C18.0430222,32 23.2483556,26.7957333 23.2483556,20.3758222 C23.2483556,17.1384889 21.9232,14.2104889 19.7873778,12.1027556 C20.6236444,11.4944 21.8659556,10.7278222 23.2928,9.96231111 C24.8003556,9.15342222 25.8755556,8.72355556 27.1768889,8.16782222 L25.7649778,6.75591111 L31.8208,0.700444444 Z" id="Shape"></path>
                </g>
                <path d="M19.9504,20.375856 C19.9504,24.9743547 16.223032,28.7022988 11.6239572,28.7022988 C7.02488234,28.7022988 3.29866667,24.9743547 3.29866667,20.375856 C3.29866667,15.7770692 7.02517041,12.0497012 11.6239572,12.0497012 C16.222744,12.0497012 19.9504,15.7770692 19.9504,20.375856 Z" id="Path" stroke="#FFFFFF"></path>
                <path d="M11.5,20.5 L16.5,14.5" id="Line" stroke="#FFFFFF" stroke-linecap="square"></path>
            </g>
        </g>
    </g>
</svg>