<?xml version="1.0" encoding="UTF-8"?>
<svg width="82px" height="82px" viewBox="0 0 82 82" version="1.1" xmlns="http://www.w3.org/2000/svg" xmlns:xlink="http://www.w3.org/1999/xlink">
    <!-- Generator: Sketch 44.1 (41455) - http://www.bohemiancoding.com/sketch -->
    <title>Redundancy</title>
    <desc>Created with Sketch.</desc>
    <defs></defs>
    <g id="Page-1" stroke="none" stroke-width="1" fill="none" fill-rule="evenodd">
        <g id="home" transform="translate(-678.000000, -2397.000000)" stroke="#5791FB" stroke-width="2">
            <g id="Redundancy" transform="translate(679.000000, 2398.000000)">
                <circle id="Oval-3" cx="40" cy="40" r="40"></circle>
                <g id="noun_808298_cc" transform="translate(18.000000, 18.000000)">
                    <g id="Group">
                        <path d="M44,24.6782609 C44,22 41.8956522,19.8 39.2173913,19.5130435 C39.6956522,18.5565217 39.8869565,17.4086957 39.7913043,16.2608696 C39.6,12.626087 36.4434783,9.75652174 32.8086957,9.66086957 C29.3652174,9.66086957 26.4956522,11.9565217 25.826087,15.1130435 C24.773913,13.8695652 23.1478261,13.1043478 21.3304348,13.2956522 C19.3217391,13.4869565 17.6956522,14.826087 17.026087,16.6434783 C16.6434783,17.6956522 16.6434783,18.7478261 16.9304348,19.7043478 C14.9217391,20.4695652 13.4869565,22.3826087 13.4869565,24.5826087 C13.4869565,27.5478261 15.7826087,29.5565217 18.8434783,29.5565217 L18.9391304,29.5565217 C19.5130435,30.8956522 21.2347826,31.373913 22.0956522,31.373913 C23.7217391,31.373913 24.5826087,31.0869565 26.2086957,29.5565217 C26.2086957,29.5565217 27.3565217,31.373913 30.0347826,31.373913 C32.6173913,31.373913 33.8608696,29.8434783 34.0521739,29.6521739 C40.4608696,32.7130435 44,27.6434783 44,24.6782609 Z" id="Shape"></path>
                        <g>
                            <g>
                                <ellipse id="Oval" cx="12.4347826" cy="5.35652174" rx="12.4347826" ry="5.35652174"></ellipse>
                                <path d="M16.6434783,18.0782609 C15.3043478,18.2695652 13.8695652,18.3652174 12.4347826,18.3652174 C5.54782609,18.3652174 -1.77635684e-15,15.973913 -1.77635684e-15,13.0086957" id="Shape"></path>
                                <path d="M13.4869565,25.9217391 C13.1043478,25.9217391 12.7217391,25.9217391 12.4347826,25.9217391 C5.54782609,25.9217391 1.77635684e-15,23.5304348 1.77635684e-15,20.5652174" id="Shape"></path>
                                <path d="M22.1913043,31.4695652 C19.8956522,32.6173913 16.2608696,33.4782609 12.4347826,33.4782609 C5.54782609,33.4782609 0,31.0869565 0,28.1217391" id="Shape"></path>
                                <path d="M24.8695652,14.3478261 L24.8695652,5.35652174" id="Shape"></path>
                                <path d="M0,28.1217391 L0,5.35652174" id="Shape"></path>
                            </g>
                            <path d="M12.4347826,33.4782609 L12.4347826,38.2608696" id="Shape"></path>
                            <circle id="Oval" cx="12.4347826" cy="41.1304348" r="2.86956522"></circle>
                            <path d="M15.3043478,41.1304348 L23.9130435,41.1304348" id="Shape"></path>
                            <path d="M0.956521739,41.1304348 L9.56521739,41.1304348" id="Shape"></path>
                        </g>
                    </g>
                </g>
            </g>
        </g>
    </g>
</svg>