<?xml version="1.0" encoding="UTF-8"?>
<svg width="82px" height="82px" viewBox="0 0 82 82" version="1.1" xmlns="http://www.w3.org/2000/svg" xmlns:xlink="http://www.w3.org/1999/xlink">
    <!-- Generator: Sketch 44.1 (41455) - http://www.bohemiancoding.com/sketch -->
    <title>Service</title>
    <desc>Created with Sketch.</desc>
    <defs></defs>
    <g id="Page-1" stroke="none" stroke-width="1" fill="none" fill-rule="evenodd">
        <g id="home" transform="translate(-291.000000, -2738.000000)" stroke="#5791FB" stroke-width="2">
            <g id="Service" transform="translate(292.000000, 2739.000000)">
                <circle id="Oval-3" cx="40" cy="40" r="40"></circle>
                <g id="noun_793130_cc" transform="translate(15.000000, 13.000000)" fill-rule="nonzero">
                    <path d="M49.8390602,34.8707106 L38.0306955,48.3976635 C36.4784222,50.2271285 34.2054506,51.2250184 31.766164,51.2250184 L27.8300425,51.2250184 L14.0258979,51.2250184 L10.9767897,54.329565 L0,43.629967 L7.8722431,35.8131622 C11.1431047,32.597739 15.9662395,31.4889724 20.2904294,32.9858073 L22.0090177,33.595629 L32.6531773,33.595629 C34.5380806,33.595629 36.0349156,35.1479023 35.9794772,37.0328055 C35.9240389,38.8622705 34.3163273,40.3036671 32.4868624,40.3036671 L26.1114542,40.3036671 C25.3907559,40.3036671 24.8363726,40.9134888 24.8363726,41.5787487 C24.8363726,42.2994471 25.4461942,42.8538304 26.1114542,42.8538304 L27.8854808,42.8538304 L32.5423007,42.8538304 C35.8131622,42.8538304 38.5296405,40.2482288 38.6405172,37.0882439 C38.6405172,37.0882439 38.6405172,37.0328055 38.6405172,37.0328055 L44.5724187,30.3802057 C45.8475003,28.9388091 48.0095952,28.7170558 49.5064302,29.8812608 C50.9478268,31.1563424 51.1141418,33.429314 49.8390602,34.8707106 Z M14.0258979,16.2988695 L14.0258979,14.3585279 C14.0258979,13.5269529 14.6357196,12.7508163 15.4672945,12.6399396 L17.7402661,12.2518713 C18.0174578,11.2539813 18.4055261,10.2560914 18.9044711,9.36907805 L17.5739511,7.48417477 C17.0750061,6.76347646 17.1858828,5.82102482 17.7957045,5.21120318 L19.1816628,3.82524488 C19.7914844,3.21542324 20.733936,3.10454657 21.4546344,3.60349156 L23.3395376,4.93401152 C24.2265509,4.43506653 25.2244409,4.04699821 26.2223309,3.76980655 L26.6103992,1.49683495 C26.7767142,0.609821648 27.4974125,0 28.3289875,0 L30.3247674,0 C31.1563424,0 31.932479,0.609821648 32.0433557,1.44139662 L32.431424,3.71436822 C33.429314,4.04699821 34.427204,4.43506653 35.3142173,4.93401152 L37.1991205,3.60349156 C37.9198189,3.10454657 38.8622705,3.21542324 39.4720921,3.82524488 L40.8580504,5.21120318 C41.4678721,5.82102482 41.5233104,6.76347646 41.0798038,7.48417477 L39.7492838,9.36907805 C40.2482288,10.2560914 40.6362971,11.198543 40.9134888,12.2518713 L43.1864604,12.6399396 C44.0180353,12.8062546 44.627857,13.5269529 44.627857,14.3585279 L44.627857,16.2988695 C44.627857,17.1304445 44.0180353,17.9065811 43.1864604,18.0174578 L40.8580504,18.4055261 C40.5808588,19.4034161 40.1927905,20.401306 39.6938455,21.2883194 L41.0243654,23.1732226 C41.5233104,23.8939209 41.4124337,24.8363726 40.8026121,25.4461942 L39.4166538,26.8321525 C38.8068322,27.4419742 37.8643805,27.4974125 37.1436822,27.0539058 L35.3142173,25.6679476 C34.427204,26.1668925 33.4847523,26.5549609 32.431424,26.8321525 L32.0433557,29.1051241 C31.8770407,29.9366991 31.1563424,30.5465207 30.3247674,30.5465207 L28.3844258,30.5465207 C27.5528508,30.5465207 26.7767142,29.9366991 26.6658375,29.1051241 L26.2777692,26.8321525 C25.2798792,26.5549609 24.2819893,26.1668925 23.394976,25.6679476 L21.4546344,26.9984675 C20.733936,27.4974125 19.7914844,27.3865358 19.1816628,26.7767142 L17.7957045,25.3907559 C17.1858828,24.7809343 17.1304445,23.8384826 17.5739511,23.1177843 L18.9044711,21.232881 C18.4055261,20.3458677 18.0174578,19.4034161 17.7402661,18.3500878 L15.4672945,17.9620195 C14.6357196,17.8511428 14.0258979,17.1304445 14.0258979,16.2988695 Z M24.0602359,15.3009795 C24.0602359,18.1837728 26.3886459,20.567621 29.3268774,20.567621 C32.265109,20.567621 34.593519,18.2392111 34.593519,15.3009795 C34.593519,12.4181863 32.265109,10.034338 29.3268774,10.034338 C26.3886459,10.034338 24.0602359,12.4181863 24.0602359,15.3009795 Z" id="Shape"></path>
                </g>
            </g>
        </g>
    </g>
</svg>