<?xml version="1.0" encoding="UTF-8"?>
<svg width="19px" height="23px" viewBox="0 0 19 23" version="1.1" xmlns="http://www.w3.org/2000/svg" xmlns:xlink="http://www.w3.org/1999/xlink">
    <!-- Generator: Sketch 44.1 (41455) - http://www.bohemiancoding.com/sketch -->
    <title>Shape</title>
    <desc>Created with Sketch.</desc>
    <defs></defs>
    <g id="Page-1" stroke="none" stroke-width="1" fill="none" fill-rule="evenodd">
        <g id="Incidents" transform="translate(-711.000000, -809.000000)" fill-rule="nonzero" fill="#5791FB">
            <path d="M727.696786,812.88125 C725.979478,810.401562 723.239094,809 720.169863,809 C717.100632,809 714.360247,810.401562 712.64294,812.88125 C710.925632,815.325 710.523709,818.415625 711.583324,821.146875 C711.875632,821.865625 712.314094,822.620312 712.898709,823.303125 L720.169863,831.676563 L727.404478,823.303125 C727.989094,822.620312 728.464094,821.901562 728.719863,821.146875 C729.816017,818.415625 729.414094,815.325 727.696786,812.88125 Z M720.169863,820.859375 C718.123709,820.859375 716.44294,819.242188 716.44294,817.265625 C716.44294,815.289062 718.123709,813.671875 720.169863,813.671875 C722.216017,813.671875 723.896786,815.289062 723.896786,817.265625 C723.896786,819.242188 722.216017,820.859375 720.169863,820.859375 Z" id="Shape"></path>
        </g>
    </g>
</svg>