<?xml version="1.0" encoding="UTF-8"?>
<svg width="69px" height="91px" viewBox="0 0 69 91" version="1.1" xmlns="http://www.w3.org/2000/svg" xmlns:xlink="http://www.w3.org/1999/xlink">
    <!-- Generator: Sketch 44.1 (41455) - http://www.bohemiancoding.com/sketch -->
    <title>staff</title>
    <desc>Created with Sketch.</desc>
    <defs></defs>
    <g id="Page-1" stroke="none" stroke-width="1" fill="none" fill-rule="evenodd">
        <g id="my-safe-place" transform="translate(-774.000000, -2012.000000)" fill-rule="nonzero" stroke="#FFFFFF" stroke-width="1.5">
            <g id="staff" transform="translate(774.000000, 2013.000000)">
                <g id="Group">
                    <circle id="Oval" cx="28.14" cy="13.003" r="12.373"></circle>
                    <path d="M53.509,59.249 L50.279,37.091 C49.851,33.665 46.94,31.093 43.487,31.089 L30.939,31.075 L30.939,33.428 C30.939,33.964 30.611,34.424 30.146,34.619 L33.893,62.087 L28.033,70.248 L22.388,62.087 L25.913,34.558 C25.511,34.34 25.234,33.918 25.234,33.428 L25.234,31.069 L11.607,31.054 C8.061,31.05 5.099,33.752 4.777,37.282 L0.966,69.967 C0.763,72.255 2.566,74.224 4.862,74.224 L36.961,74.224 C37.952,65.892 44.952,59.418 53.509,59.249 Z" id="Shape"></path>
                    <path d="M64.919,68.165 L51.123,82.605 C50.936,82.8 50.611,82.741 50.505,82.492 L47.049,74.334 C46.985,74.183 47.028,74.007 47.154,73.903 L49.739,71.764 C49.935,71.602 50.232,71.677 50.327,71.913 L52.18,76.512 C52.284,76.771 52.616,76.844 52.819,76.653 L63.571,66.549 C60.803,63.73 56.791,62.136 52.419,62.675 C46.486,63.406 41.686,68.184 40.936,74.115 C39.839,82.788 47.119,90.085 55.786,89.019 C61.545,88.311 66.267,83.78 67.197,78.053 C67.802,74.345 66.852,70.881 64.919,68.165 Z" id="Shape"></path>
                </g>
            </g>
        </g>
    </g>
</svg>