<?xml version="1.0" encoding="UTF-8"?>
<svg width="82px" height="82px" viewBox="0 0 82 82" version="1.1" xmlns="http://www.w3.org/2000/svg" xmlns:xlink="http://www.w3.org/1999/xlink">
    <!-- Generator: Sketch 44.1 (41455) - http://www.bohemiancoding.com/sketch -->
    <title>Technology</title>
    <desc>Created with Sketch.</desc>
    <defs></defs>
    <g id="Page-1" stroke="none" stroke-width="1" fill="none" fill-rule="evenodd">
        <g id="home" transform="translate(-303.000000, -2397.000000)">
            <g id="Technology" transform="translate(304.000000, 2398.000000)">
                <circle id="Oval-3" stroke="#5791FB" stroke-width="2" cx="40" cy="40" r="40"></circle>
                <g id="noun_1093782_cc" transform="translate(22.000000, 21.000000)" fill-rule="nonzero" fill="#5791FB">
                    <g id="Group">
                        <g id="Group-3">
                            <path d="M4.7,37.95 C6.95,37.95 8.8,36.35 9.25,34.25 L13.9,34.25 C14.35,36.35 16.25,37.95 18.45,37.95 C21.05,37.95 23.15,35.85 23.15,33.25 C23.15,32.7 23.05,32.2 22.9,31.75 L31.15,23.5 C31.5,23.6 31.9,23.65 32.3,23.65 C34.9,23.65 37,21.55 37,18.95 C37,16.35 34.9,14.25 32.3,14.25 C29.7,14.25 27.6,16.35 27.6,18.95 C27.6,20.4 28.25,21.65 29.25,22.5 L21.85,30 C21,29.15 19.8,28.6 18.5,28.6 C16.25,28.6 14.4,30.2 13.95,32.3 L9.3,32.3 C8.85,30.2 6.95,28.6 4.75,28.6 C2.15,28.6 0.05,30.7 0.05,33.3 C2.35922393e-16,35.85 2.1,37.95 4.7,37.95 Z M32.3,16.3 C33.8,16.3 35,17.5 35,19 C35,20.5 33.8,21.7 32.3,21.7 C30.8,21.7 29.6,20.5 29.6,19 C29.6,17.5 30.85,16.3 32.3,16.3 Z M18.5,30.6 C20,30.6 21.2,31.8 21.2,33.3 C21.2,34.8 20,36 18.5,36 C17,36 15.8,34.8 15.8,33.3 C15.8,31.8 17,30.6 18.5,30.6 Z M4.7,30.6 C6.2,30.6 7.4,31.8 7.4,33.3 C7.4,34.8 6.2,36 4.7,36 C3.2,36 2,34.8 2,33.3 C2,31.8 3.2,30.6 4.7,30.6 Z" id="Shape"></path>
                            <path d="M4.7,9.4 C7.3,9.4 9.4,7.3 9.4,4.7 C9.4,2.1 7.3,-1.77635684e-15 4.7,-1.77635684e-15 C2.1,-1.77635684e-15 0,2.15 0,4.7 C0,7.3 2.1,9.4 4.7,9.4 Z M4.7,2.05 C6.2,2.05 7.4,3.25 7.4,4.75 C7.4,6.25 6.2,7.45 4.7,7.45 C3.2,7.45 2,6.25 2,4.75 C2,3.25 3.2,2.05 4.7,2.05 Z" id="Shape"></path>
                            <path d="M4.7,23.7 C7.3,23.7 9.4,21.6 9.4,19 C9.4,18 9.1,17.05 8.55,16.3 L16.1,8.75 C16.8,9.2 17.65,9.45 18.5,9.45 C20.75,9.45 22.6,7.85 23.05,5.75 L27.7,5.75 C28.15,7.85 30.05,9.45 32.25,9.45 C34.85,9.45 36.95,7.35 36.95,4.75 C36.95,2.15 34.85,0.05 32.25,0.05 C30,0.05 28.15,1.65 27.7,3.75 L23.05,3.75 C22.6,1.65 20.7,0.05 18.5,0.05 C15.9,0.05 13.8,2.15 13.8,4.75 C13.8,5.7 14.1,6.65 14.6,7.4 L7.05,14.95 C6.35,14.55 5.55,14.3 4.7,14.3 C2.1,14.3 1.77635684e-15,16.4 1.77635684e-15,19 C1.77635684e-15,21.6 2.1,23.7 4.7,23.7 Z M32.3,2.05 C33.8,2.05 35,3.25 35,4.75 C35,6.25 33.8,7.45 32.3,7.45 C30.8,7.45 29.6,6.25 29.6,4.75 C29.65,3.25 30.85,2.05 32.3,2.05 Z M18.5,2.05 C20,2.05 21.2,3.25 21.2,4.75 C21.2,6.25 20,7.45 18.5,7.45 C17,7.45 15.8,6.25 15.8,4.75 C15.8,3.25 17,2.05 18.5,2.05 Z M4.7,16.3 C6.2,16.3 7.4,17.5 7.4,19 C7.4,20.5 6.2,21.7 4.7,21.7 C3.2,21.7 2,20.5 2,19 C2,17.5 3.2,16.3 4.7,16.3 Z" id="Shape"></path>
                            <path d="M18.5,14.3 C15.9,14.3 13.8,16.4 13.8,19 C13.8,21.6 15.9,23.7 18.5,23.7 C21.1,23.7 23.2,21.6 23.2,19 C23.2,16.4 21.1,14.3 18.5,14.3 Z M18.5,21.7 C17,21.7 15.8,20.5 15.8,19 C15.8,17.5 17,16.3 18.5,16.3 C20,16.3 21.2,17.5 21.2,19 C21.2,20.5 20,21.7 18.5,21.7 Z" id="Shape"></path>
                            <path d="M37,33.3 C37,30.7 34.9,28.6 32.3,28.6 C29.7,28.6 27.6,30.7 27.6,33.3 C27.6,35.9 29.7,38 32.3,38 C34.9,38 37,35.85 37,33.3 Z M32.3,35.95 C30.8,35.95 29.6,34.75 29.6,33.25 C29.6,31.75 30.8,30.55 32.3,30.55 C33.8,30.55 35,31.75 35,33.25 C35,34.75 33.8,35.95 32.3,35.95 Z" id="Shape"></path>
                        </g>
                    </g>
                </g>
            </g>
        </g>
    </g>
</svg>