<?xml version="1.0" encoding="UTF-8"?>
<svg width="19px" height="16px" viewBox="0 0 19 16" version="1.1" xmlns="http://www.w3.org/2000/svg" xmlns:xlink="http://www.w3.org/1999/xlink">
    <!-- Generator: Sketch 44.1 (41455) - http://www.bohemiancoding.com/sketch -->
    <title>Shape Copy 5</title>
    <desc>Created with Sketch.</desc>
    <defs></defs>
    <g id="Page-1" stroke="none" stroke-width="1" fill="none" fill-rule="evenodd">
        <g id="my-safe-place" transform="translate(-287.000000, -2403.000000)" fill-rule="nonzero" fill="#5791FB">
            <g id="noun_778687_cc" transform="translate(247.000000, 2291.000000)">
                <path d="M58.7523989,112.171457 C58.4117356,112.364954 58.0529036,112.53892 57.7288192,112.750358 L57.2353117,113.056728 L56.7517969,113.382175 C56.5887327,113.487099 56.4347529,113.605423 56.2787291,113.720794 C56.1245222,113.838437 55.9646375,113.947222 55.8156541,114.071223 C55.5142806,114.314684 55.2131343,114.556555 54.9278855,114.81773 C54.6342338,115.068231 54.3623844,115.344168 54.0828134,115.60875 C53.8145978,115.886731 53.5434299,116.159262 53.2865697,116.446782 C53.0224421,116.72658 52.7767103,117.023866 52.525755,117.314565 C52.2852467,117.615257 52.0404234,117.91118 51.812406,118.221184 C51.5780297,118.525282 51.3588696,118.841645 51.1347132,119.153238 C50.9155531,119.468693 50.7007081,119.786645 50.4944933,120.110502 C50.2885055,120.434587 50.0852431,120.760034 49.8933361,121.092294 C49.6968869,121.421829 49.5120203,121.758404 49.3326043,122.097251 C49.150463,122.434507 48.9853548,122.781303 48.8222907,123.127416 C48.660362,123.474439 48.5061551,123.824868 48.3587615,124.177114 C48.2131847,124.530268 48.0646555,124.880697 47.9270275,125.233397 C47.7844031,125.577694 47.6420059,125.947654 47.5223195,126.264926 L46.937287,127.818123 L45.9009893,126.554262 C45.700225,126.309212 45.4976439,126.066659 45.2932459,125.825697 C45.0858955,125.588141 44.8810433,125.34786 44.6650628,125.118934 C44.5562776,125.005153 44.4515804,124.887056 44.3402971,124.776 C44.2319662,124.660856 44.1179575,124.553433 44.0069013,124.441468 C43.7825177,124.220719 43.5513209,124.006555 43.313765,123.799659 C43.0764362,123.592081 42.8325213,123.39109 42.5804305,123.199637 C42.4555206,123.101299 42.3258414,123.01091 42.1970707,122.917795 C42.0678457,122.82468 41.9347599,122.737925 41.8012199,122.649579 C41.5320959,122.478112 41.2572942,122.307553 40.9679575,122.162204 C40.6818003,122.012766 40.3781557,121.873776 40.0713317,121.769078 L40.0624744,121.766126 C40.0143273,121.749547 39.9884369,121.697085 40.0050159,121.648711 C40.0163713,121.615553 40.044987,121.592842 40.0772365,121.587391 C40.2593778,121.556959 40.4322077,121.5506 40.610261,121.551054 C40.7864975,121.554688 40.9634153,121.56468 41.1394247,121.583985 C41.4889452,121.630315 41.8396013,121.695268 42.1802646,121.79406 C42.5218364,121.890809 42.8565948,122.011858 43.1827232,122.152438 C43.5093057,122.292337 43.8281666,122.451313 44.1352178,122.62914 C44.4452214,122.803105 44.7422798,122.997283 45.0320707,123.201454 C45.3209532,123.406533 45.6002971,123.624331 45.869194,123.853484 C46.0254449,123.986796 46.1787434,124.123289 46.3288624,124.263188 C46.3288624,124.263188 46.5800448,123.757871 46.7796735,123.406079 C47.1739345,122.69977 47.5970383,122.012993 48.0319518,121.336436 C48.2495221,120.998044 48.4707261,120.66215 48.6996519,120.331933 C48.9256252,119.999673 49.1624997,119.674907 49.4020996,119.352413 C49.6421537,119.030372 49.8903837,118.714691 50.1429287,118.402416 C50.3988804,118.092867 50.6561948,117.78468 50.9291796,117.489666 C51.194897,117.188974 51.4774205,116.903044 51.7547204,116.613707 C52.0429216,116.333682 52.3247637,116.049341 52.6250016,115.782716 C52.9154738,115.507005 53.2302467,115.256731 53.5350268,114.998054 C53.8529792,114.753458 54.1616202,114.499551 54.4913823,114.272215 C54.8125142,114.034432 55.1486354,113.817315 55.4827125,113.599972 C55.6482749,113.489143 55.8245114,113.393757 55.9943888,113.290196 C56.165856,113.188678 56.3352792,113.084662 56.5131054,112.9945 L57.0395438,112.714475 C57.2185056,112.626584 57.4020096,112.545506 57.582334,112.461475 C57.9416202,112.285239 58.3104451,112.159194 58.6745006,112.007031 C58.7208308,111.987726 58.7739743,112.009529 58.7935056,112.055859 C58.8112201,112.098783 58.7939598,112.147611 58.7544429,112.169868 L58.7523989,112.171457 Z" id="Shape-Copy-5"></path>
            </g>
        </g>
    </g>
</svg>