<?xml version="1.0" encoding="UTF-8"?>
<svg width="24px" height="24px" viewBox="0 0 24 24" version="1.1" xmlns="http://www.w3.org/2000/svg" xmlns:xlink="http://www.w3.org/1999/xlink">
    <!-- Generator: Sketch 44.1 (41455) - http://www.bohemiancoding.com/sketch -->
    <title>when_you_need_it</title>
    <desc>Created with Sketch.</desc>
    <defs></defs>
    <g id="Page-1" stroke="none" stroke-width="1" fill="none" fill-rule="evenodd">
        <g id="when_you_need_it" fill-rule="nonzero" fill="#5791FB">
            <g id="Group-8">
                <g id="Group-13">
                    <g id="noun_338658_cc">
                        <g id="Group">
                            <path d="M12.3789474,0.505263158 C12.3157895,0.505263158 12.2526316,0.505263158 12.1894737,0.505263158 C12.1263158,0.505263158 12.0631579,0.505263158 12,0.505263158 C11.6210526,0.505263158 11.3052632,0.821052632 11.3052632,1.2 L11.3052632,2.02105263 C11.3052632,2.4 11.6210526,2.71578947 12,2.71578947 C12.3789474,2.71578947 12.6947368,2.4 12.6947368,2.02105263 L12.6947368,1.95789474 C17.7473684,2.14736842 21.6631579,6.12631579 22.0421053,11.3052632 L21.9789474,11.3052632 C21.6,11.3052632 21.2842105,11.6210526 21.2842105,12 C21.2842105,12.3789474 21.6,12.6947368 21.9789474,12.6947368 L22.0421053,12.6947368 C21.6631579,17.6842105 17.6842105,21.6631579 12.6947368,22.0421053 L12.6947368,21.9789474 C12.6947368,21.6 12.3789474,21.2842105 12,21.2842105 C11.6210526,21.2842105 11.3052632,21.6 11.3052632,21.9789474 L11.3052632,22.0421053 C6.31578947,21.6631579 2.33684211,17.6842105 1.95789474,12.6947368 L2.08421053,12.6947368 C2.46315789,12.6947368 2.77894737,12.3789474 2.77894737,12 C2.77894737,11.6210526 2.46315789,11.3052632 2.08421053,11.3052632 L1.95789474,11.3052632 C2.14736842,8.77894737 3.22105263,6.44210526 5.11578947,4.67368421 L5.11578947,5.43157895 C5.11578947,5.81052632 5.43157895,6.12631579 5.81052632,6.12631579 C6.18947368,6.12631579 6.50526316,5.81052632 6.50526316,5.43157895 L6.50526316,2.84210526 C6.50526316,2.46315789 6.18947368,2.14736842 5.81052632,2.14736842 L3.09473684,2.14736842 C2.71578947,2.14736842 2.4,2.46315789 2.4,2.84210526 C2.4,3.22105263 2.71578947,3.53684211 3.09473684,3.53684211 L4.23157895,3.53684211 C1.89473684,5.68421053 0.505263158,8.71578947 0.505263158,12 C0.505263158,18.3157895 5.68421053,23.4947368 12,23.4947368 C18.3157895,23.4947368 23.4947368,18.3157895 23.4947368,12 C23.4947368,5.55789474 18.5684211,0.505263158 12.3789474,0.505263158 Z" id="Shape"></path>
                            <path d="M4.16842105,11.4947368 C3.85263158,11.4947368 3.66315789,11.7473684 3.66315789,12 C3.66315789,16.6105263 7.45263158,20.4 12.0631579,20.4 C12.3789474,20.4 12.5684211,20.1473684 12.5684211,19.8947368 C12.5684211,19.5789474 12.3157895,19.3894737 12.0631579,19.3894737 C8.02105263,19.3894737 4.73684211,16.1052632 4.73684211,12.0631579 C4.67368421,11.6842105 4.42105263,11.4947368 4.16842105,11.4947368 Z" id="Shape"></path>
                            <path d="M12,13.6421053 C12.6315789,13.6421053 13.2,13.2631579 13.4526316,12.7578947 L16.9263158,12.7578947 C17.3052632,12.7578947 17.6210526,12.4421053 17.6210526,12.0631579 C17.6210526,11.6842105 17.3052632,11.3684211 16.9263158,11.3684211 L13.4526316,11.3684211 C13.2631579,11.0526316 13.0105263,10.8 12.6947368,10.6105263 L12.6947368,4.29473684 C12.6947368,3.91578947 12.3789474,3.6 12,3.6 C11.6210526,3.6 11.3052632,3.91578947 11.3052632,4.29473684 L11.3052632,10.5473684 C10.7368421,10.8 10.3578947,11.3684211 10.3578947,12 C10.3578947,12.8842105 11.1157895,13.6421053 12,13.6421053 Z M12,12.1894737 C11.8736842,12.1894737 11.8105263,12.1263158 11.8105263,12 C11.8105263,11.8736842 11.8736842,11.8105263 12,11.8105263 C12.1263158,11.8105263 12.1894737,11.8736842 12.1894737,12 C12.1894737,12.1263158 12.1263158,12.1894737 12,12.1894737 Z" id="Shape"></path>
                        </g>
                    </g>
                </g>
            </g>
        </g>
    </g>
</svg>