<?xml version="1.0" encoding="UTF-8"?>
<svg width="39px" height="78px" viewBox="0 0 39 78" version="1.1" xmlns="http://www.w3.org/2000/svg" xmlns:xlink="http://www.w3.org/1999/xlink">
    <!-- Generator: Sketch 44.1 (41455) - http://www.bohemiancoding.com/sketch -->
    <title>Group 18</title>
    <desc>Created with Sketch.</desc>
    <defs></defs>
    <g id="Page-1" stroke="none" stroke-width="1" fill="none" fill-rule="evenodd">
        <g id="Group-18" transform="translate(1.000000, 1.000000)" stroke-width="1.5" stroke="#FFFFFF" fill-rule="nonzero">
            <g id="noun_750567_cc">
                <g id="Group">
                    <path d="M13.0793011,16.9459459 C8.78584229,15.6010296 6.20976703,10.5881596 7.55913978,6.18661519 C9.0311828,1.54054054 13.8153226,-0.904761905 18.5994624,0.562419562 C23.1382616,2.02960103 25.5916667,6.7979408 24.1196237,11.4440154 C22.7702509,16.0900901 17.8634409,18.5353925 13.0793011,16.9459459 Z" id="Shape"></path>
                    <path d="M2.40698925,37.7310167 C2.5296595,37.7310167 2.65232975,37.6087516 2.775,37.4864865 C2.775,37.2419562 2.89767025,36.997426 2.89767025,36.7528958 C3.38835125,35.2857143 4.49238351,34.5521236 6.08709677,34.4298584 C6.45510753,34.4298584 6.82311828,34.4298584 7.06845878,34.3075933 C8.29516129,34.1853282 9.39919355,34.0630631 10.5032258,33.6962677 C12.4659498,33.0849421 14.1833333,31.984556 15.5327061,30.5173745 C15.6553763,30.2728443 15.9007168,30.1505792 16.0233871,29.9060489 C16.3913978,29.5392535 16.7594086,29.0501931 17.0047491,28.6833977 C17.7407706,27.5830116 18.2314516,26.3603604 18.4767921,25.015444 C18.7221326,23.5482625 17.9861111,22.0810811 18.5994624,20.7361647 C18.9674731,19.6357786 20.0715054,18.7799228 21.1755376,18.4131274 C23.3836022,17.6795367 25.8370072,18.7799228 27.3090502,20.4916345 C30.2531362,24.1595882 32.4612007,28.4388674 34.055914,32.8404118 C35.4052867,36.3861004 36.3866487,40.1763192 36.6319892,43.966538 C36.8773297,47.6344916 36.8773297,51.7915058 35.1599462,55.0926641 C33.8105735,57.5379665 31.7251792,58.027027 29.1491039,58.2715573 C29.0264337,58.6383526 29.0264337,59.005148 29.0264337,59.4942085 C29.0264337,60.8391248 29.0264337,62.1840412 29.0264337,63.5289575 C29.0264337,65.2406692 29.0264337,66.952381 28.9037634,68.6640927 C28.9037634,70.2535393 28.5357527,72.2097812 27.6770609,73.6769627 C27.0637097,74.6550837 26.3276882,75.3886744 25.1009857,75.7554698 C18.5994624,77.2226512 19.3354839,65.2406692 19.3354839,61.9395109 C19.3354839,61.0836551 19.3354839,60.1055341 19.3354839,59.2496782 C19.3354839,58.8828829 19.3354839,58.5160875 19.2128136,58.2715573 C17.6181004,58.1492921 16.3913978,57.9047619 15.5327061,57.6602317 C14.9193548,57.5379665 14.4286738,57.5379665 13.9379928,57.4157014 C12.9566308,57.2934363 12.4659498,56.1930502 12.9566308,55.3371943 C14.7966846,51.6692407 16.0233871,47.5122265 16.7594086,43.966538 C17.2500896,41.8880309 17.4954301,40.0540541 17.7407706,38.7091377 C17.6181004,38.4646075 17.4954301,38.2200772 17.2500896,38.3423423 C15.4100358,39.8095238 13.0793011,40.4208494 10.7485663,40.6653797 C8.66317204,40.9099099 5.84175627,41.3989704 4.12437276,40.2985843 C3.75636201,40.0540541 3.51102151,39.8095238 3.265681,39.4427284 C3.0203405,39.4427284 2.775,39.6872587 2.5296595,40.0540541 C2.03897849,40.7876448 2.40698925,41.7657658 2.775,42.4993565 C3.14301075,43.1106821 4.00170251,43.7220077 4.00170251,44.4555985 L4.00170251,69.8867439 C4.00170251,70.6203346 3.51102151,71.2316602 2.775,71.2316602 C2.03897849,71.3539254 1.30295699,70.7425997 1.30295699,69.8867439 C1.30295699,69.8867439 1.30295699,57.4157014 1.30295699,51.5469755 C1.30295699,48.3680824 1.18028674,45.1891892 0.198924731,42.1325611 C-0.414426523,40.2985843 0.566935484,38.5868726 2.40698925,37.7310167 Z" id="Shape"></path>
                </g>
            </g>
        </g>
    </g>
</svg>