<?xml version="1.0" encoding="UTF-8"?>
<svg width="35px" height="24px" viewBox="0 0 35 24" version="1.1" xmlns="http://www.w3.org/2000/svg" xmlns:xlink="http://www.w3.org/1999/xlink">
    <!-- Generator: Sketch 44.1 (41455) - http://www.bohemiancoding.com/sketch -->
    <title>why_u_need_it</title>
    <desc>Created with Sketch.</desc>
    <defs></defs>
    <g id="Page-1" stroke="none" stroke-width="1" fill="none" fill-rule="evenodd">
        <g id="why_u_need_it" fill-rule="nonzero" fill="#5791FB">
            <g id="Group-21">
                <g id="Group-15">
                    <g id="noun_947667_cc">
                        <g id="Group">
                            <path d="M7.79195154,15.7491088 C4.79120238,15.7491088 1.96308468,13.8629408 0.842909578,10.8021378 L0.842909578,10.8021378 C0.141474405,8.88594105 0.206629711,6.80079719 1.025994,4.93074803 C1.84490144,3.06143287 3.31967549,1.63101797 5.17868363,0.90300063 C7.03723491,0.17419521 9.05786304,0.23546334 10.8683094,1.0749899 C12.6793143,1.91457053 14.0628495,3.43239797 14.7640819,5.34859574 C15.4955059,7.346325 15.3916849,9.45630053 14.4766684,11.3171102 L15.8505637,15.0710713 L12.0117752,14.3932961 C11.5216905,14.7408974 10.9899934,15.0277585 10.4287647,15.2479431 C9.56083779,15.5878802 8.66885932,15.7491088 7.79195154,15.7491088 Z M1.79187401,10.4304377 C3.04139564,13.8434103 6.75332207,15.5640458 10.0692432,14.2661396 C10.6141323,14.0523596 11.1262418,13.7660253 11.5913111,13.4150633 L11.764499,13.2846004 L14.2737417,13.7273329 L13.3633941,11.2404602 L13.4764002,11.0282023 C14.3475744,9.3891535 14.4679905,7.50419313 13.8151185,5.72029579 C13.2100455,4.06712276 12.016241,2.75766792 10.4533253,2.03322042 C8.89010383,1.30830032 7.14430506,1.25574803 5.53795159,1.88480313 C3.93190299,2.51417266 2.65761846,3.74976037 1.95019564,5.36450329 C1.24333071,6.97819579 1.18705561,8.77721355 1.79187401,10.4304377 L1.79187401,10.4304377 Z" id="Shape"></path>
                            <g id="noun_1122801_cc" transform="translate(13.000000, 3.000000)" stroke-width="0.5" stroke="#5791FB">
                                <g id="Group">
                                    <path d="M11,11.6875 C7.88333333,11.6875 5.34722222,9.09375 5.34722222,5.90625 C5.34722222,2.71875 7.88333333,0.15625 11,0.15625 C14.1166667,0.15625 16.6527778,2.75 16.6527778,5.9375 C16.6527778,9.125 14.1166667,11.6875 11,11.6875 Z M11,0.78125 C8.21944444,0.78125 5.95833333,3.09375 5.95833333,5.9375 C5.95833333,8.78125 8.21944444,11.0625 11,11.0625 C13.7805556,11.0625 16.0416667,8.75 16.0416667,5.9375 C16.0416667,3.125 13.7805556,0.78125 11,0.78125 Z" id="Shape"></path>
                                    <path d="M21.3888889,19.84375 L0.611111111,19.84375 C0.519444444,19.84375 0.427777778,19.8125 0.366666667,19.71875 C0.305555556,19.65625 0.275,19.5625 0.305555556,19.46875 C0.458333333,18.78125 0.641666667,18.125 0.855555556,17.46875 C1.13055556,16.65625 1.43611111,15.90625 1.80277778,15.21875 C3.51388889,11.9375 6.35555556,10.71875 9.075,12.125 C10.3277778,12.78125 11.7027778,12.78125 12.9555556,12.125 C15.675,10.71875 18.5166667,11.9375 20.1972222,15.21875 C20.5638889,15.90625 20.8694444,16.6875 21.1444444,17.46875 C21.3583333,18.09375 21.5416667,18.78125 21.6944444,19.46875 C21.725,19.5625 21.6944444,19.65625 21.6333333,19.71875 C21.5722222,19.8125 21.4805556,19.84375 21.3888889,19.84375 Z M1.00833333,19.21875 L20.9916667,19.21875 C20.8694444,18.6875 20.7166667,18.15625 20.5638889,17.6875 C20.5638889,17.6875 20.5638889,17.6875 20.5638889,17.6875 C20.3194444,16.90625 20.0138889,16.1875 19.6472222,15.53125 C18.1194444,12.5625 15.5833333,11.46875 13.2,12.71875 C11.7638889,13.46875 10.2055556,13.46875 8.76944444,12.71875 C6.38611111,11.46875 3.85,12.59375 2.32222222,15.5625 C1.98611111,16.21875 1.68055556,16.9375 1.40555556,17.71875 C1.28333333,18.1875 1.13055556,18.6875 1.00833333,19.21875 Z" id="Shape"></path>
                                </g>
                            </g>
                            <g transform="translate(5.074405, 4.200000)">
                                <path d="M3.04464286,6.35885381 L2.0297619,6.35885381 L2.0297619,6.11814137 C2.0297619,5.16736595 2.50127519,4.26961442 3.32363409,3.65541745 C3.77007966,3.32115011 3.96980849,2.76050376 3.84441949,2.19192866 C3.73516776,1.69611824 3.33946547,1.28703745 2.86028958,1.17395308 C2.4390637,1.07425484 2.02702188,1.16807308 1.69972257,1.43797516 C1.37734579,1.70409808 1.19253566,2.10089318 1.19253566,2.52672068 L0.177654708,2.52672068 C0.177654708,1.77943521 0.501706856,1.08349542 1.06689411,0.61719 C1.63233493,0.150623235 2.36893507,-0.0180595275 3.08625338,0.150097553 C3.95047536,0.354427658 4.63658487,1.06396495 4.8340295,1.95814563 C5.0481195,2.92971126 4.68859797,3.92993974 3.91804991,4.50649568 C3.36275714,4.92124616 3.04464286,5.50856266 3.04464286,6.11814137 L3.04464286,6.35885381 Z" id="Shape"></path>
                                <rect id="Rectangle-path" x="1.0297619" y="10.3870663" width="1.01488095" height="1.05"></rect>
                            </g>
                        </g>
                    </g>
                </g>
            </g>
        </g>
    </g>
</svg>