<?xml version="1.0" encoding="UTF-8"?>
<svg width="15px" height="14px" viewBox="0 0 15 14" version="1.1" xmlns="http://www.w3.org/2000/svg" xmlns:xlink="http://www.w3.org/1999/xlink">
    <!-- Generator: Sketch 48.2 (47327) - http://www.bohemiancoding.com/sketch -->
    <title>exclamation-triangle - FontAwesome</title>
    <desc>Created with Sketch.</desc>
    <defs></defs>
    <g id="Input-Screen-sidepanel" stroke="none" stroke-width="1" fill="none" fill-rule="evenodd" transform="translate(-940.000000, -83.000000)">
        <g id="Group-11" transform="translate(700.000000, 0.000000)" fill="#DC9407">
            <g id="Group-3" transform="translate(234.000000, 76.000000)">
                <path d="M14.5715556,18.5108517 L14.5715556,16.9202612 C14.5715556,16.7695737 14.4543542,16.6440008 14.3036667,16.6440008 L12.6963333,16.6440008 C12.5456458,16.6440008 12.4284444,16.7695737 12.4284444,16.9202612 L12.4284444,18.5108517 C12.4284444,18.6615392 12.5456458,18.7871121 12.6963333,18.7871121 L14.3036667,18.7871121 C14.4543542,18.7871121 14.5715556,18.6615392 14.5715556,18.5108517 Z M14.5548126,15.3799 L14.7055001,11.5373684 C14.7055001,11.4871393 14.6803855,11.420167 14.6217848,11.3783094 C14.5715556,11.3364518 14.4962119,11.2862226 14.4208681,11.2862226 L12.5791319,11.2862226 C12.5037881,11.2862226 12.4284444,11.3364518 12.3782152,11.3783094 C12.3196145,11.420167 12.2944999,11.5038823 12.2944999,11.5541115 L12.4368159,15.3799 C12.4368159,15.4887299 12.5623888,15.5724452 12.7214479,15.5724452 L14.2701806,15.5724452 C14.4208681,15.5724452 14.5464411,15.4887299 14.5548126,15.3799 Z M14.4376112,7.56089241 L20.8669451,19.3480045 C21.0511187,19.6744941 21.0427472,20.0763275 20.850202,20.4028171 C20.6576568,20.7293067 20.3060527,20.9302234 19.9293339,20.9302234 L7.07066613,20.9302234 C6.69394735,20.9302234 6.34234315,20.7293067 6.149798,20.4028171 C5.95725284,20.0763275 5.94888132,19.6744941 6.13305494,19.3480045 L12.5623888,7.56089241 C12.7465624,7.21765974 13.1065382,7 13.5,7 C13.8934618,7 14.2534376,7.21765974 14.4376112,7.56089241 Z" id="exclamation-triangle---FontAwesome"></path>
            </g>
        </g>
    </g>
</svg>