<?xml version="1.0" encoding="UTF-8"?>
<svg width="22px" height="12px" viewBox="0 0 22 12" version="1.1" xmlns="http://www.w3.org/2000/svg" xmlns:xlink="http://www.w3.org/1999/xlink">
    <!-- Generator: Sketch 48.2 (47327) - http://www.bohemiancoding.com/sketch -->
    <title>art_track - material</title>
    <desc>Created with Sketch.</desc>
    <defs></defs>
    <g id="Rectangle-153" stroke="none" stroke-width="1" fill="none" fill-rule="evenodd" transform="translate(-48.000000, -12.000000)">
        <g transform="translate(3.000000, 0.000000)" fill="#159BD5" id="art_track---material">
            <path d="M54.4616923,20.9350769 L51.996,17.6562308 L50.1073846,20.1219231 L48.7171538,18.4693846 L46.8285385,20.9350769 L54.4616923,20.9350769 Z M56.088,14.3773846 L56.088,20.9350769 C56.088,21.529644 55.8694124,22.0455106 55.4322308,22.4826923 C54.9950491,22.919874 54.4791825,23.1384615 53.8846154,23.1384615 L47.3269231,23.1384615 C46.732356,23.1384615 46.2252329,22.919874 45.8055385,22.4826923 C45.3858441,22.0455106 45.176,21.529644 45.176,20.9350769 L45.176,14.3773846 C45.176,13.7828175 45.3858441,13.2669509 45.8055385,12.8297692 C46.2252329,12.3925876 46.732356,12.174 47.3269231,12.174 L53.8846154,12.174 C54.4791825,12.174 54.9950491,12.3925876 55.4322308,12.8297692 C55.8694124,13.2669509 56.088,13.7828175 56.088,14.3773846 Z M58.2913846,23.1384615 L58.2913846,20.9350769 L67,20.9350769 L67,23.1384615 L58.2913846,23.1384615 Z M67,12.174 L67,14.3773846 L58.2913846,14.3773846 L58.2913846,12.174 L67,12.174 Z M67,18.7316923 L58.2913846,18.7316923 L58.2913846,16.5807692 L67,16.5807692 L67,18.7316923 Z"></path>
        </g>
    </g>
</svg>