<?xml version="1.0" encoding="UTF-8"?>
<svg width="20px" height="20px" viewBox="0 0 20 20" version="1.1" xmlns="http://www.w3.org/2000/svg" xmlns:xlink="http://www.w3.org/1999/xlink">
    <!-- Generator: Sketch 48.2 (47327) - http://www.bohemiancoding.com/sketch -->
    <title>calendar - simple-line-icons</title>
    <desc>Created with Sketch.</desc>
    <defs></defs>
    <g id="Dashboard" stroke="none" stroke-width="1" fill="none" fill-rule="evenodd" transform="translate(-251.000000, -162.000000)" opacity="0.300000012">
        <path d="M269.75,163.875 L264.75,163.875 L264.75,162.625 C264.75,162.455728 264.688152,162.309245 264.564453,162.185547 C264.440755,162.061848 264.294272,162 264.125,162 C263.955728,162 263.809245,162.061848 263.685547,162.185547 C263.561848,162.309245 263.5,162.455728 263.5,162.625 L263.5,163.875 L258.5,163.875 L258.5,162.625 C258.5,162.455728 258.438152,162.309245 258.314453,162.185547 C258.190755,162.061848 258.044272,162 257.875,162 C257.705728,162 257.559245,162.061848 257.435547,162.185547 C257.311848,162.309245 257.25,162.455728 257.25,162.625 L257.25,163.875 L252.25,163.875 C251.898436,163.875 251.602215,163.995442 251.361328,164.236328 C251.120442,164.477215 251,164.773436 251,165.125 L251,180.75 C251,181.088543 251.120442,181.381509 251.361328,181.628906 C251.602215,181.876303 251.898436,182 252.25,182 L269.75,182 C270.101564,182 270.397785,181.876303 270.638672,181.628906 C270.879558,181.381509 271,181.088543 271,180.75 L271,165.125 C271,164.773436 270.879558,164.477215 270.638672,164.236328 C270.397785,163.995442 270.101564,163.875 269.75,163.875 Z M270,181 L252,181 L252,165 L257.142857,165 L257.142857,165.64 C257.142857,165.813334 257.206473,165.963333 257.333705,166.09 C257.460938,166.216667 257.611606,166.28 257.785714,166.28 C257.959822,166.28 258.11049,166.216667 258.237723,166.09 C258.364956,165.963333 258.428571,165.813334 258.428571,165.64 L258.428571,165 L263.571429,165 L263.571429,165.64 C263.571429,165.813334 263.635044,165.963333 263.762277,166.09 C263.88951,166.216667 264.040178,166.28 264.214286,166.28 C264.388394,166.28 264.539062,166.216667 264.666295,166.09 C264.793527,165.963333 264.857143,165.813334 264.857143,165.64 L264.857143,165 L270,165 L270,181 Z M265.75,173 L267.25,173 C267.453126,173 267.628906,172.925782 267.777344,172.777344 C267.925782,172.628906 268,172.453126 268,172.25 L268,170.75 C268,170.546874 267.925782,170.371094 267.777344,170.222656 C267.628906,170.074218 267.453126,170 267.25,170 L265.75,170 C265.546874,170 265.371094,170.074218 265.222656,170.222656 C265.074218,170.371094 265,170.546874 265,170.75 L265,172.25 C265,172.453126 265.074218,172.628906 265.222656,172.777344 C265.371094,172.925782 265.546874,173 265.75,173 Z M265.75,178 L267.25,178 C267.453126,178 267.628906,177.925782 267.777344,177.777344 C267.925782,177.628906 268,177.453126 268,177.25 L268,175.75 C268,175.546874 267.925782,175.371094 267.777344,175.222656 C267.628906,175.074218 267.453126,175 267.25,175 L265.75,175 C265.546874,175 265.371094,175.074218 265.222656,175.222656 C265.074218,175.371094 265,175.546874 265,175.75 L265,177.25 C265,177.453126 265.074218,177.628906 265.222656,177.777344 C265.371094,177.925782 265.546874,178 265.75,178 Z M262.25,175 L260.75,175 C260.546874,175 260.371094,175.074218 260.222656,175.222656 C260.074218,175.371094 260,175.546874 260,175.75 L260,177.25 C260,177.453126 260.074218,177.628906 260.222656,177.777344 C260.371094,177.925782 260.546874,178 260.75,178 L262.25,178 C262.453126,178 262.628906,177.925782 262.777344,177.777344 C262.925782,177.628906 263,177.453126 263,177.25 L263,175.75 C263,175.546874 262.925782,175.371094 262.777344,175.222656 C262.628906,175.074218 262.453126,175 262.25,175 Z M262.25,170 L260.75,170 C260.546874,170 260.371094,170.074218 260.222656,170.222656 C260.074218,170.371094 260,170.546874 260,170.75 L260,172.25 C260,172.453126 260.074218,172.628906 260.222656,172.777344 C260.371094,172.925782 260.546874,173 260.75,173 L262.25,173 C262.453126,173 262.628906,172.925782 262.777344,172.777344 C262.925782,172.628906 263,172.453126 263,172.25 L263,170.75 C263,170.546874 262.925782,170.371094 262.777344,170.222656 C262.628906,170.074218 262.453126,170 262.25,170 Z M257.25,170 L255.75,170 C255.546874,170 255.371094,170.074218 255.222656,170.222656 C255.074218,170.371094 255,170.546874 255,170.75 L255,172.25 C255,172.453126 255.074218,172.628906 255.222656,172.777344 C255.371094,172.925782 255.546874,173 255.75,173 L257.25,173 C257.453126,173 257.628906,172.925782 257.777344,172.777344 C257.925782,172.628906 258,172.453126 258,172.25 L258,170.75 C258,170.546874 257.925782,170.371094 257.777344,170.222656 C257.628906,170.074218 257.453126,170 257.25,170 Z M257.25,175 L255.75,175 C255.546874,175 255.371094,175.074218 255.222656,175.222656 C255.074218,175.371094 255,175.546874 255,175.75 L255,177.25 C255,177.453126 255.074218,177.628906 255.222656,177.777344 C255.371094,177.925782 255.546874,178 255.75,178 L257.25,178 C257.453126,178 257.628906,177.925782 257.777344,177.777344 C257.925782,177.628906 258,177.453126 258,177.25 L258,175.75 C258,175.546874 257.925782,175.371094 257.777344,175.222656 C257.628906,175.074218 257.453126,175 257.25,175 Z" id="calendar---simple-line-icons" fill="#6B6B6B"></path>
    </g>
</svg>