<?xml version="1.0" encoding="UTF-8"?>
<svg width="35px" height="14px" viewBox="0 0 35 14" version="1.1" xmlns="http://www.w3.org/2000/svg" xmlns:xlink="http://www.w3.org/1999/xlink">
    <!-- Generator: Sketch 48.2 (47327) - http://www.bohemiancoding.com/sketch -->
    <title>Census</title>
    <desc>Created with Sketch.</desc>
    <defs></defs>
    <g id="Rectangle-2" stroke="none" stroke-width="1" fill="none" fill-rule="evenodd" transform="translate(-15.000000, -9.000000)">
        <g id="Census" transform="translate(15.000000, 9.000000)">
            <path d="M7,8.68 C7.8266708,8.68 8.7333284,8.7999988 9.72,9.04 C10.8400056,9.3200014 11.7466632,9.693331 12.44,10.16 C13.2666708,10.7066694 13.68,11.3199966 13.68,12 L13.68,13.68 L0.32,13.68 L0.32,12 C0.32,11.3199966 0.7333292,10.7066694 1.56,10.16 C2.2533368,9.693331 3.1599944,9.3200014 4.28,9.04 C5.2666716,8.7999988 6.1733292,8.68 7,8.68 Z M7,7 C6.399997,7 5.8466692,6.8500015 5.34,6.55 C4.8333308,6.2499985 4.4300015,5.8466692 4.13,5.34 C3.8299985,4.8333308 3.68,4.280003 3.68,3.68 C3.68,3.079997 3.8299985,2.5200026 4.13,2 C4.4300015,1.4799974 4.8333308,1.0700015 5.34,0.77 C5.8466692,0.4699985 6.399997,0.32 7,0.32 C7.600003,0.32 8.1533308,0.4699985 8.66,0.77 C9.1666692,1.0700015 9.5699985,1.4799974 9.87,2 C10.1700015,2.5200026 10.32,3.079997 10.32,3.68 C10.32,4.280003 10.1700015,4.8333308 9.87,5.34 C9.5699985,5.8466692 9.1666692,6.2499985 8.66,6.55 C8.1533308,6.8500015 7.600003,7 7,7 Z" id="person---material" fill="#FFFFFF"></path>
            <path d="M21.25,2.5 L26.75,2.5" id="Line" stroke="#FFFFFF" stroke-width="3" stroke-linecap="square"></path>
            <path d="M21.25,7.5 L29.75,7.5" id="Line" stroke="#FFFFFF" stroke-width="3" stroke-linecap="square"></path>
            <path d="M21.24,12.5 L32.76,12.5" id="Line" stroke="#FFFFFF" stroke-width="3" stroke-linecap="square"></path>
        </g>
    </g>
</svg>