<?xml version="1.0" encoding="UTF-8"?>
<svg width="14px" height="16px" viewBox="0 0 14 16" version="1.1" xmlns="http://www.w3.org/2000/svg" xmlns:xlink="http://www.w3.org/1999/xlink">
    <!-- Generator: Sketch 48.2 (47327) - http://www.bohemiancoding.com/sketch -->
    <title>Shape</title>
    <desc>Created with Sketch.</desc>
    <defs></defs>
    <g id="noun_insurance_2478451-(1)" stroke="none" stroke-width="1" fill="none" fill-rule="evenodd">
        <g fill="#71C7EC" id="Shape">
            <path d="M4.12611308,6.20175666 L6.10367432,6.20175666 L6.10367432,4.1606772 L7.60138613,4.1606772 L7.60138613,6.20175666 L9.57894737,6.20175666 L9.57894737,7.74757419 L7.60138613,7.74757419 L7.60138613,9.78865365 L6.10367432,9.78865365 L6.10367432,7.74757419 L4.12611308,7.74757419 L4.12611308,6.20175666 Z M7.09172519,15.3581841 C12.5415189,12.7942119 13.4466083,8.85881274 13.4466083,3.07496855 C13.4466083,2.99546554 13.4466083,2.91596252 13.4080938,2.83645951 C13.1962644,2.08118089 12.0408311,1.58428706 11.4053428,1.36565377 C8.97893289,0.570623639 5.24303193,0.550747886 2.7973648,1.36565377 C2.16187649,1.58428706 1.00644321,2.06130513 0.775356548,2.81658376 C0.756099327,2.89608677 0.736842105,2.99546554 0.736842105,3.07496855 C0.736842105,8.85881274 1.64193151,12.7942119 7.09172519,15.3581841 Z"></path>
        </g>
    </g>
</svg>