<?xml version="1.0" encoding="UTF-8" standalone="no"?>
<svg width="14px" height="16px" viewBox="0 0 14 16" version="1.1" xmlns="http://www.w3.org/2000/svg" xmlns:xlink="http://www.w3.org/1999/xlink">
    <!-- Generator: Sketch 41.2 (35397) - http://www.bohemiancoding.com/sketch -->
    <title>date_icon</title>
    <desc>Created with Sketch.</desc>
    <defs>
        <path d="M13.3076923,6.15384615 L0.692307692,6.15384615 C0.446153846,6.15384615 0.230769231,6.36923077 0.230769231,6.61538462 L0.230769231,14.1538462 C0.230769231,14.8307692 0.784615385,15.3846154 1.46153846,15.3846154 L12.5384615,15.3846154 C13.2153846,15.3846154 13.7692308,14.8307692 13.7692308,14.1538462 L13.7692308,6.61538462 C13.7692308,6.36923077 13.5538462,6.15384615 13.3076923,6.15384615 Z M4.84615385,12.9230769 C4.84615385,13.1076923 4.72307692,13.2307692 4.53846154,13.2307692 L3.30769231,13.2307692 C3.12307692,13.2307692 3,13.1076923 3,12.9230769 L3,11.6923077 C3,11.5076923 3.12307692,11.3846154 3.30769231,11.3846154 L4.53846154,11.3846154 C4.72307692,11.3846154 4.84615385,11.5076923 4.84615385,11.6923077 L4.84615385,12.9230769 Z M4.84615385,9.84615385 C4.84615385,10.0307692 4.72307692,10.1538462 4.53846154,10.1538462 L3.30769231,10.1538462 C3.12307692,10.1538462 3,10.0307692 3,9.84615385 L3,8.61538462 C3,8.43076923 3.12307692,8.30769231 3.30769231,8.30769231 L4.53846154,8.30769231 C4.72307692,8.30769231 4.84615385,8.43076923 4.84615385,8.61538462 L4.84615385,9.84615385 Z M7.92307692,12.9230769 C7.92307692,13.1076923 7.8,13.2307692 7.61538462,13.2307692 L6.38461538,13.2307692 C6.2,13.2307692 6.07692308,13.1076923 6.07692308,12.9230769 L6.07692308,11.6923077 C6.07692308,11.5076923 6.2,11.3846154 6.38461538,11.3846154 L7.61538462,11.3846154 C7.8,11.3846154 7.92307692,11.5076923 7.92307692,11.6923077 L7.92307692,12.9230769 Z M7.92307692,9.84615385 C7.92307692,10.0307692 7.8,10.1538462 7.61538462,10.1538462 L6.38461538,10.1538462 C6.2,10.1538462 6.07692308,10.0307692 6.07692308,9.84615385 L6.07692308,8.61538462 C6.07692308,8.43076923 6.2,8.30769231 6.38461538,8.30769231 L7.61538462,8.30769231 C7.8,8.30769231 7.92307692,8.43076923 7.92307692,8.61538462 L7.92307692,9.84615385 Z M11,12.9230769 C11,13.1076923 10.8769231,13.2307692 10.6923077,13.2307692 L9.46153846,13.2307692 C9.27692308,13.2307692 9.15384615,13.1076923 9.15384615,12.9230769 L9.15384615,11.6923077 C9.15384615,11.5076923 9.27692308,11.3846154 9.46153846,11.3846154 L10.6923077,11.3846154 C10.8769231,11.3846154 11,11.5076923 11,11.6923077 L11,12.9230769 Z M11,9.84615385 C11,10.0307692 10.8769231,10.1538462 10.6923077,10.1538462 L9.46153846,10.1538462 C9.27692308,10.1538462 9.15384615,10.0307692 9.15384615,9.84615385 L9.15384615,8.61538462 C9.15384615,8.43076923 9.27692308,8.30769231 9.46153846,8.30769231 L10.6923077,8.30769231 C10.8769231,8.30769231 11,8.43076923 11,8.61538462 L11,9.84615385 Z M12.5384615,2.15384615 L11,2.15384615 L11,1.53846154 C11,1.04615385 10.6,0.615384615 10.0769231,0.615384615 C9.58461538,0.615384615 9.15384615,1.01538462 9.15384615,1.53846154 L9.15384615,2.15384615 L4.84615385,2.15384615 L4.84615385,1.53846154 C4.84615385,1.04615385 4.44615385,0.615384615 3.92307692,0.615384615 C3.43076923,0.615384615 3,1.01538462 3,1.53846154 L3,2.15384615 L1.46153846,2.15384615 C0.784615385,2.15384615 0.230769231,2.70769231 0.230769231,3.38461538 L0.230769231,4.15384615 C0.230769231,4.4 0.446153846,4.61538462 0.692307692,4.61538462 L13.3076923,4.61538462 C13.5538462,4.61538462 13.7692308,4.4 13.7692308,4.15384615 L13.7692308,3.38461538 C13.7692308,2.70769231 13.2153846,2.15384615 12.5384615,2.15384615 Z" id="path-1"></path>
    </defs>
    <g id="Page-1" stroke="none" stroke-width="1" fill="none" fill-rule="evenodd">
        <g id="General-ERN-Entry" transform="translate(-491.000000, -337.000000)">
            <g id="Date-picker-Copy" transform="translate(353.000000, 313.000000)">
                <g id="Back-Copy" transform="translate(27.000000, 18.000000)">
                    <g id="date_icon" transform="translate(111.000000, 6.000000)">
                        <mask id="mask-2" fill="white">
                            <use xlink:href="#path-1"></use>
                        </mask>
                        <use id="Mask" fill="#649502" xlink:href="#path-1"></use>
                    </g>
                </g>
            </g>
        </g>
    </g>
</svg>