<?xml version="1.0" encoding="UTF-8"?>
<svg width="8px" height="13px" viewBox="0 0 8 13" version="1.1" xmlns="http://www.w3.org/2000/svg" xmlns:xlink="http://www.w3.org/1999/xlink">
    <!-- Generator: Sketch 46.2 (44496) - http://www.bohemiancoding.com/sketch -->
    <title>Arrow-left - simple-line-icons Copy</title>
    <desc>Created with Sketch.</desc>
    <defs></defs>
    <g id="Page-1" stroke="none" stroke-width="1" fill="none" fill-rule="evenodd" opacity="0.463778409">
        <g id="Date_Time_Picker" transform="translate(-299.000000, -116.000000)" fill="#222222">
            <g id="Date-picker" transform="translate(43.000000, 93.000000)">
                <path d="M262.8125,23.75 C262.867188,23.75 262.917969,23.7597655 262.964844,23.7792969 C263.011719,23.7988282 263.054687,23.8281248 263.09375,23.8671875 C263.171875,23.9453129 263.210938,24.0410151 263.210938,24.1542969 C263.210938,24.2675787 263.171875,24.3632809 263.09375,24.4414062 L257.75,29.7851562 L263.023438,35.0585938 C263.101563,35.1367191 263.140625,35.2304682 263.140625,35.3398438 C263.140625,35.4492193 263.101563,35.5429684 263.023438,35.6210938 C262.945312,35.6992191 262.84961,35.7382812 262.736328,35.7382812 C262.623046,35.7382812 262.527344,35.6992191 262.449219,35.6210938 L256.894531,30.0664062 C256.816406,29.9882809 256.777344,29.8945318 256.777344,29.7851562 C256.777344,29.6757807 256.816406,29.5820316 256.894531,29.5039062 L262.53125,23.8671875 C262.570313,23.8281248 262.615234,23.7988282 262.666016,23.7792969 C262.716797,23.7597655 262.765625,23.75 262.8125,23.75 Z" id="Arrow-left---simple-line-icons-Copy" transform="translate(259.994141, 29.744141) scale(-1, 1) translate(-259.994141, -29.744141) "></path>
            </g>
        </g>
    </g>
</svg>