<?xml version="1.0" encoding="UTF-8"?>
<svg width="8px" height="13px" viewBox="0 0 8 13" version="1.1" xmlns="http://www.w3.org/2000/svg" xmlns:xlink="http://www.w3.org/1999/xlink">
    <!-- Generator: Sketch 46.2 (44496) - http://www.bohemiancoding.com/sketch -->
    <title>Arrow-left - simple-line-icons</title>
    <desc>Created with Sketch.</desc>
    <defs></defs>
    <g id="Page-1" stroke="none" stroke-width="1" fill="none" fill-rule="evenodd" opacity="0.463778409">
        <g id="Date_Time_Picker" transform="translate(-70.000000, -116.000000)" fill="#222222">
            <g id="Date-picker" transform="translate(43.000000, 93.000000)">
                <path d="M33.8125,23.75 C33.8671878,23.75 33.9179685,23.7597655 33.9648438,23.7792969 C34.011719,23.7988282 34.0546873,23.8281248 34.09375,23.8671875 C34.1718754,23.9453129 34.2109375,24.0410151 34.2109375,24.1542969 C34.2109375,24.2675787 34.1718754,24.3632809 34.09375,24.4414062 L28.75,29.7851562 L34.0234375,35.0585938 C34.1015629,35.1367191 34.140625,35.2304682 34.140625,35.3398438 C34.140625,35.4492193 34.1015629,35.5429684 34.0234375,35.6210938 C33.9453121,35.6992191 33.8496099,35.7382812 33.7363281,35.7382812 C33.6230463,35.7382812 33.5273441,35.6992191 33.4492188,35.6210938 L27.8945312,30.0664062 C27.8164059,29.9882809 27.7773438,29.8945318 27.7773438,29.7851562 C27.7773438,29.6757807 27.8164059,29.5820316 27.8945312,29.5039062 L33.53125,23.8671875 C33.5703127,23.8281248 33.6152341,23.7988282 33.6660156,23.7792969 C33.7167971,23.7597655 33.7656248,23.75 33.8125,23.75 Z" id="Arrow-left---simple-line-icons"></path>
            </g>
        </g>
    </g>
</svg>