<?xml version="1.0" encoding="UTF-8"?>
<svg width="4px" height="15px" viewBox="0 0 4 15" version="1.1" xmlns="http://www.w3.org/2000/svg" xmlns:xlink="http://www.w3.org/1999/xlink">
    <!-- Generator: Sketch 46.2 (44496) - http://www.bohemiancoding.com/sketch -->
    <title>dotted_drop_down</title>
    <desc>Created with Sketch.</desc>
    <defs>
        <path d="M0,13.125 C0,12.09375 0.9,11.25 2,11.25 C3.1,11.25 4,12.09375 4,13.125 C4,14.15625 3.1,15 2,15 C0.9,15 0,14.15625 0,13.125 Z M0,7.5 C0,6.46875 0.9,5.625 2,5.625 C3.1,5.625 4,6.46875 4,7.5 C4,8.53125 3.1,9.375 2,9.375 C0.9,9.375 0,8.53125 0,7.5 Z M0,1.875 C0,0.84375 0.9,0 2,0 C3.1,0 4,0.84375 4,1.875 C4,2.90625 3.1,3.75 2,3.75 C0.9,3.75 0,2.90625 0,1.875 Z" id="path-1"></path>
    </defs>
    <g id="Page-1" stroke="none" stroke-width="1" fill="none" fill-rule="evenodd">
        <g id="Button-Dropdown_Measure" transform="translate(-83.000000, -162.000000)">
            <g id="dotted_drop_down" transform="translate(83.000000, 162.000000)">
                <mask id="mask-2" fill="white">
                    <use xlink:href="#path-1"></use>
                </mask>
                <use id="Mask" fill="#54698D" opacity="0.5" xlink:href="#path-1"></use>
            </g>
        </g>
    </g>
</svg>