<?xml version="1.0" encoding="UTF-8"?>
<svg width="14px" height="14px" viewBox="0 0 14 14" version="1.1" xmlns="http://www.w3.org/2000/svg" xmlns:xlink="http://www.w3.org/1999/xlink">
    <!-- Generator: Sketch 46.2 (44496) - http://www.bohemiancoding.com/sketch -->
    <title>Button Stateful  Copy 4</title>
    <desc>Created with Sketch.</desc>
    <defs>
        <rect id="path-1" x="8.8817842e-16" y="0" width="14" height="14" rx="2"></rect>
        <path d="M2.70300965,6.67211538 C2.59592764,6.77596154 2.41745761,6.77596154 2.3103756,6.67211538 L-1.34825992,3.08942308 C-1.45534193,2.98557692 -1.45534193,2.8125 -1.34825992,2.70865385 L-0.955625862,2.32788462 C-0.848543847,2.22403846 -0.670073822,2.22403846 -0.562991807,2.32788462 L2.3103756,5.14903846 C2.41745761,5.25288462 2.59592764,5.25288462 2.70300965,5.14903846 L5.57637706,2.34519231 C5.68345907,2.24134615 5.8619291,2.24134615 5.96901111,2.34519231 L6.36164517,2.72596154 C6.45088018,2.82980769 6.45088018,2.98557692 6.36164517,3.08942308 L2.70300965,6.67211538 Z" id="path-2"></path>
    </defs>
    <g id="Page-1" stroke="none" stroke-width="1" fill="none" fill-rule="evenodd">
        <g id="Date_Time_Picker" transform="translate(-417.000000, -247.000000)">
            <g id="Date-picker-Copy" transform="translate(353.000000, 93.000000)">
                <g id="Group-6" transform="translate(64.000000, 82.000000)">
                    <g id="Numbers" transform="translate(0.000000, 27.000000)">
                        <g id="tue">
                            <g id="Button-Stateful--Copy-4" transform="translate(7.000000, 52.000000) scale(1, -1) translate(-7.000000, -52.000000) translate(0.000000, 45.000000)">
                                <g id="button">
                                    <use fill="#FFFFFF" fill-rule="evenodd" xlink:href="#path-1"></use>
                                    <rect stroke="#AAB4C6" stroke-width="0.3" x="0.15" y="0.15" width="13.7" height="13.7" rx="2"></rect>
                                </g>
                                <g id="Group-2" transform="translate(7.500000, 6.500000) rotate(90.000000) translate(-7.500000, -6.500000) translate(5.000000, 2.000000)">
                                    <mask id="mask-3" fill="white">
                                        <use xlink:href="#path-2"></use>
                                    </mask>
                                    <use id="Mask-Copy" fill="#649502" transform="translate(2.500000, 4.500000) rotate(90.000000) translate(-2.500000, -4.500000) " xlink:href="#path-2"></use>
                                </g>
                            </g>
                        </g>
                    </g>
                </g>
            </g>
        </g>
    </g>
</svg>