<?xml version="1.0" encoding="UTF-8"?>
<svg width="12px" height="14px" viewBox="0 0 12 14" version="1.1" xmlns="http://www.w3.org/2000/svg" xmlns:xlink="http://www.w3.org/1999/xlink">
    <!-- Generator: Sketch 48.2 (47327) - http://www.bohemiancoding.com/sketch -->
    <title>excel white</title>
    <desc>Created with Sketch.</desc>
    <defs></defs>
    <g id="Input-Screen-sidepanel" stroke="none" stroke-width="1" fill="none" fill-rule="evenodd" transform="translate(-766.000000, -82.000000)">
        <g id="Group-11" transform="translate(700.000000, 0.000000)" fill="#FFFFFF">
            <g id="Group-4" transform="translate(58.000000, 72.000000)">
                <path d="M18.7665984,12.7869941 C19.0379636,13.0583593 19.2653236,13.6010898 19.2653236,13.9898021 L19.2653236,22.4387949 C19.2653236,22.8275072 18.9499533,23.1428776 18.5612409,23.1428776 L8.70408273,23.1428776 C8.31537039,23.1428776 8,22.8275072 8,22.4387949 L8,10.7040827 C8,10.3153704 8.31537039,10 8.70408273,10 L15.2755215,10 C15.6642339,10 16.2069643,10.22736 16.4783295,10.4987253 L18.7665984,12.7869941 Z M15.5102158,10.9974505 L15.5102158,13.7551079 L18.2678731,13.7551079 C18.2238679,13.6304266 18.1578602,13.5057452 18.1065208,13.4544059 L15.8109178,11.1588028 C15.7595784,11.1074635 15.6348971,11.0414557 15.5102158,10.9974505 Z M18.3265467,22.2041006 L18.3265467,14.6938848 L15.2755215,14.6938848 C14.8868092,14.6938848 14.5714388,14.3785145 14.5714388,13.9898021 L14.5714388,10.938777 L8.93877697,10.938777 L8.93877697,22.2041006 L18.3265467,22.2041006 Z M11.1463697,21.2653236 L11.1463697,20.487899 L11.645095,20.487899 L13.0679288,18.4123218 L11.6817659,16.4174207 L11.1830407,16.4174207 L11.1830407,15.6326618 L13.3099572,15.6326618 L13.3099572,16.4174207 L12.7525584,16.4174207 L13.5299831,17.5835577 C13.5886566,17.6495655 13.6253276,17.7009048 13.6546644,17.7522442 C13.6693328,17.7742468 13.6840012,17.7962494 13.6913354,17.8255861 L13.7060038,17.8255861 C13.7060038,17.8329203 13.7720115,17.7229074 13.8600219,17.5835577 L14.615444,16.4174207 L14.0727135,16.4174207 L14.0727135,15.6326618 L16.118954,15.6326618 L16.118954,16.4174207 L15.6275629,16.4174207 L14.1973948,18.4856637 L15.6055603,20.487899 L16.1042856,20.487899 L16.1042856,21.2653236 L13.9700348,21.2653236 L13.9700348,20.487899 L14.5274336,20.487899 L13.7426747,19.3070936 C13.6913354,19.2337516 13.6473302,19.1897464 13.6179934,19.1310729 C13.603325,19.1090703 13.5886566,19.0870677 13.5813225,19.0577309 L13.5666541,19.0577309 C13.5446515,19.0577309 13.5006463,19.1677438 13.412636,19.3070936 L12.6572139,20.487899 L13.2072785,20.487899 L13.2072785,21.2653236 L11.1463697,21.2653236 Z" id="excel-white"></path>
            </g>
        </g>
    </g>
</svg>