<?xml version="1.0" encoding="UTF-8"?>
<svg width="12px" height="14px" viewBox="0 0 12 14" version="1.1" xmlns="http://www.w3.org/2000/svg" xmlns:xlink="http://www.w3.org/1999/xlink">
    <!-- Generator: Sketch 48.2 (47327) - http://www.bohemiancoding.com/sketch -->
    <title>excel blue</title>
    <desc>Created with Sketch.</desc>
    <defs></defs>
    <g id="Input-Screen-sidepanel" stroke="none" stroke-width="1" fill="none" fill-rule="evenodd" transform="translate(-767.000000, -111.000000)">
        <g id="Group-11" transform="translate(700.000000, 0.000000)" fill="#159BD5">
            <g id="Group-5" transform="translate(67.000000, 110.000000)">
                <path d="M10.7665984,3.78699413 C11.0379636,4.05835935 11.2653236,4.60108978 11.2653236,4.98980212 L11.2653236,13.4387949 C11.2653236,13.8275072 10.9499533,14.1428776 10.5612409,14.1428776 L0.704082727,14.1428776 C0.315370388,14.1428776 0,13.8275072 0,13.4387949 L0,1.70408273 C0,1.31537039 0.315370388,1 0.704082727,1 L7.27552152,1 C7.66423386,1 8.20696429,1.22736005 8.47832951,1.49872527 L10.7665984,3.78699413 Z M7.51021576,1.99745053 L7.51021576,4.75510788 L10.2678731,4.75510788 C10.2238679,4.63042656 10.1578602,4.50574525 10.1065208,4.45440588 L7.81091776,2.15880282 C7.75957839,2.10746346 7.63489708,2.0414557 7.51021576,1.99745053 Z M10.3265467,13.2041006 L10.3265467,5.69388485 L7.27552152,5.69388485 C6.88680918,5.69388485 6.57143879,5.37851446 6.57143879,4.98980212 L6.57143879,1.93877697 L0.93877697,1.93877697 L0.93877697,13.2041006 L10.3265467,13.2041006 Z M3.14636969,12.2653236 L3.14636969,11.487899 L3.64509495,11.487899 L5.0679288,9.41232175 L3.68176593,7.41742069 L3.18304066,7.41742069 L3.18304066,6.63266182 L5.30995724,6.63266182 L5.30995724,7.41742069 L4.75255841,7.41742069 L5.52998309,8.58355771 C5.58865665,8.64956547 5.62532762,8.70090483 5.6546644,8.7522442 C5.66933279,8.77424678 5.68400118,8.79624937 5.69133538,8.82558615 L5.70600377,8.82558615 C5.70600377,8.83292034 5.77201153,8.72290742 5.86002187,8.58355771 L6.61544396,7.41742069 L6.07271352,7.41742069 L6.07271352,6.63266182 L8.11895395,6.63266182 L8.11895395,7.41742069 L7.62756288,7.41742069 L6.19739484,9.4856637 L7.6055603,11.487899 L8.10428556,11.487899 L8.10428556,12.2653236 L5.97003479,12.2653236 L5.97003479,11.487899 L6.52743362,11.487899 L5.74267475,10.3070936 C5.69133538,10.2337516 5.64733021,10.1897464 5.61799343,10.1310729 C5.60332504,10.1090703 5.58865665,10.0870677 5.58132245,10.0577309 L5.56665406,10.0577309 C5.54465148,10.0577309 5.50064631,10.1677438 5.41263597,10.3070936 L4.65721387,11.487899 L5.2072785,11.487899 L5.2072785,12.2653236 L3.14636969,12.2653236 Z" id="excel-blue"></path>
            </g>
        </g>
    </g>
</svg>