<?xml version="1.0" encoding="UTF-8"?>
<svg width="25px" height="25px" viewBox="0 0 25 25" version="1.1" xmlns="http://www.w3.org/2000/svg" xmlns:xlink="http://www.w3.org/1999/xlink">
    <!-- Generator: Sketch 46.2 (44496) - http://www.bohemiancoding.com/sketch -->
    <title>General Entry</title>
    <desc>Created with Sketch.</desc>
    <defs>
        <path d="M19.7692308,17.6153846 L19.7692308,18.2923077 C19.7692308,19.0923077 19.0923077,19.7692308 18.2923077,19.7692308 L6.47692308,19.7692308 C5.67692308,19.7692308 5,19.0923077 5,18.2923077 L5,17.6153846 C5,15.8307692 7.09230769,14.7230769 9.06153846,13.8615385 L9.24615385,13.7692308 C9.4,13.7076923 9.55384615,13.7076923 9.70769231,13.8 C10.5076923,14.3230769 11.4,14.6 12.3538462,14.6 C13.3076923,14.6 14.2307692,14.2923077 15,13.8 C15.1538462,13.7076923 15.3076923,13.7076923 15.4615385,13.7692308 L15.6461538,13.8615385 C17.6769231,14.7230769 19.7692308,15.8 19.7692308,17.6153846 L19.7692308,17.6153846 Z M12.3846154,5 C14.4153846,5 16.0461538,6.81538462 16.0461538,9.06153846 C16.0461538,11.3076923 14.4153846,13.1230769 12.3846154,13.1230769 C10.3538462,13.1230769 8.72307692,11.3076923 8.72307692,9.06153846 C8.72307692,6.81538462 10.3538462,5 12.3846154,5 Z" id="path-1"></path>
    </defs>
    <g id="Page-1" stroke="none" stroke-width="1" fill="none" fill-rule="evenodd">
        <g id="/-Side-Panels-Single-Colums/" transform="translate(-1034.000000, -264.000000)">
            <g id="Group-11" transform="translate(980.000000, 121.000000)">
                <g id="Group-12" transform="translate(54.000000, 83.000000)">
                    <g id="Event" transform="translate(0.000000, 60.000000)">
                        <g id="event-icon">
                            <g>
                                <g id="General-Entry">
                                    <rect id="Rectangle-48" fill="#EB7092" x="0" y="0" width="24.1152344" height="24.1152344" rx="4"></rect>
                                    <mask id="mask-2" fill="white">
                                        <use xlink:href="#path-1"></use>
                                    </mask>
                                    <use id="Mask" fill="#FFFFFF" xlink:href="#path-1"></use>
                                </g>
                            </g>
                        </g>
                    </g>
                </g>
            </g>
        </g>
    </g>
</svg>