<?xml version="1.0" encoding="UTF-8"?>
<svg width="18px" height="18px" viewBox="0 0 18 18" version="1.1" xmlns="http://www.w3.org/2000/svg" xmlns:xlink="http://www.w3.org/1999/xlink">
    <!-- Generator: Sketch 48.2 (47327) - http://www.bohemiancoding.com/sketch -->
    <title>info_outline - material</title>
    <desc>Created with Sketch.</desc>
    <defs></defs>
    <g id="Rectangle-153" stroke="none" stroke-width="1" fill="none" fill-rule="evenodd" transform="translate(-3.000000, -9.000000)">
        <g transform="translate(3.000000, 0.000000)" fill="#4A4A4A" id="info_outline---material">
            <path d="M7.95522819,15.1732571 L7.95522819,13.391286 L9.69477143,13.391286 L9.69477143,15.1732571 L7.95522819,15.1732571 Z M8.82499981,24.9104564 C10.0978427,24.9104564 11.2858115,24.5851792 12.388942,23.9346151 C13.4637871,23.3123363 14.3123363,22.4637871 14.9346151,21.388942 C15.5851792,20.2858115 15.9104564,19.0978427 15.9104564,17.8249998 C15.9104564,16.5521569 15.5851792,15.3641881 14.9346151,14.2610576 C14.3123363,13.1862125 13.4637871,12.3376633 12.388942,11.7153846 C11.2858115,11.0648204 10.0978427,10.7395432 8.82499981,10.7395432 C7.55215693,10.7395432 6.36418807,11.0648204 5.26105758,11.7153846 C4.18621248,12.3376633 3.3376633,13.1862125 2.71538456,14.2610576 C2.06482042,15.3641881 1.73954323,16.5521569 1.73954323,17.8249998 C1.73954323,19.0978427 2.06482042,20.2858115 2.71538456,21.388942 C3.3376633,22.4637871 4.18621248,23.3123363 5.26105758,23.9346151 C6.36418807,24.5851792 7.55215693,24.9104564 8.82499981,24.9104564 Z M8.82499981,9 C10.4372675,9 11.9292998,9.40306086 13.3011415,10.2091947 C14.6305552,10.9729004 15.6770992,12.0194444 16.4408049,13.3488581 C17.2469388,14.7206998 17.6499996,16.2127322 17.6499996,17.8249998 C17.6499996,19.4372675 17.2469388,20.9292998 16.4408049,22.3011415 C15.6770992,23.6305552 14.6305552,24.6770992 13.3011415,25.4408049 C11.9292998,26.2469388 10.4372675,26.6499996 8.82499981,26.6499996 C7.21273217,26.6499996 5.72069984,26.2469388 4.34885808,25.4408049 C3.01944441,24.6629565 1.97290041,23.6093413 1.20919469,22.2799276 C0.403060864,20.9080858 0,19.4231248 0,17.8249998 C0,16.2268749 0.403060864,14.7419138 1.20919469,13.370072 C1.98704311,12.0406584 3.04065835,10.9870431 4.37007202,10.2091947 C5.74191379,9.40306086 7.22687487,9 8.82499981,9 Z M7.95522819,22.2587137 L7.95522819,16.9552282 L9.69477143,16.9552282 L9.69477143,22.2587137 L7.95522819,22.2587137 Z"></path>
        </g>
    </g>
</svg>