<?xml version="1.0" encoding="UTF-8"?>
<svg width="15px" height="15px" viewBox="0 0 15 15" version="1.1" xmlns="http://www.w3.org/2000/svg" xmlns:xlink="http://www.w3.org/1999/xlink">
    <!-- Generator: Sketch 46.2 (44496) - http://www.bohemiancoding.com/sketch -->
    <title>6:20:8:20</title>
    <desc>Created with Sketch.</desc>
    <defs></defs>
    <g id="Page-1" stroke="none" stroke-width="1" fill="none" fill-rule="evenodd" opacity="0.5">
        <path d="M9.375,0 C10.9259337,0 12.2511519,0.549763021 13.3506944,1.64930556 C14.450237,2.74884809 15,4.07406632 15,5.625 C15,7.17593368 14.450237,8.50115191 13.3506944,9.60069444 C12.2511519,10.700237 10.9259337,11.25 9.375,11.25 C8.27545747,11.25 7.27431007,10.960651 6.37152778,10.3819444 L2.13541667,14.6354167 C1.8923599,14.8784734 1.59722396,15 1.25,15 C0.902776042,15 0.607640104,14.8784734 0.364583333,14.6354167 C0.121526562,14.3923599 0,14.097224 0,13.75 C0,13.402776 0.121526562,13.1076401 0.364583333,12.8645833 L4.61805556,8.62847222 C4.03934896,7.72568993 3.75,6.72454253 3.75,5.625 C3.75,4.07406632 4.29976302,2.74884809 5.39930556,1.64930556 C6.49884809,0.549763021 7.82406632,0 9.375,0 L9.375,0 Z M9.375,9.375 C10.4050977,9.375 11.2876121,9.00752682 12.0225694,8.27256944 C12.7575268,7.53761207 13.125,6.65509774 13.125,5.625 C13.125,4.59490226 12.7575268,3.71238793 12.0225694,2.97743056 C11.2876121,2.24247318 10.4050977,1.875 9.375,1.875 C8.34490226,1.875 7.46238793,2.24247318 6.72743056,2.97743056 C5.99247318,3.71238793 5.625,4.59490226 5.625,5.625 C5.625,6.65509774 5.99247318,7.53761207 6.72743056,8.27256944 C7.46238793,9.00752682 8.34490226,9.375 9.375,9.375 L9.375,9.375 Z" id="6:20:8:20" fill="#54698D" transform="translate(7.500000, 7.500000) scale(-1, 1) translate(-7.500000, -7.500000) "></path>
    </g>
</svg>