<?xml version="1.0" encoding="UTF-8"?>
<svg width="3px" height="14px" viewBox="0 0 3 14" version="1.1" xmlns="http://www.w3.org/2000/svg" xmlns:xlink="http://www.w3.org/1999/xlink">
    <!-- Generator: Sketch 46.2 (44496) - http://www.bohemiancoding.com/sketch -->
    <title>Shape</title>
    <desc>Created with Sketch.</desc>
    <defs></defs>
    <g id="Page-1" stroke="none" stroke-width="1" fill="none" fill-rule="evenodd" opacity="0.5">
        <g id="Dashboard-Multiple-selection" transform="translate(-1245.000000, -13.000000)" fill="#54698D">
            <g id="more_dropown" transform="translate(1245.000000, 13.000000)">
                <g id="Group">
                    <g id="Shape">
                        <path d="M2.72756551,1.36378081 C2.72756551,0.610603632 2.11697746,0 1.36378081,0 C0.610584149,0 0,0.610603632 0,1.36378081 C0,2.11697746 0.610584149,2.72756161 1.36378081,2.72756161 C2.11697746,2.72756161 2.72756551,2.11697746 2.72756551,1.36378081 Z M2.72756551,6.81890597 C2.72756551,6.06572685 2.11697746,5.45512322 1.36378081,5.45512322 C0.610584149,5.45512322 0,6.06572685 0,6.81890597 C0,7.57210263 0.610584149,8.18268678 1.36378081,8.18268678 C2.11697746,8.18268678 2.72756551,7.57210263 2.72756551,6.81890597 Z M2.72756551,12.2740292 C2.72756551,11.520852 2.11697746,10.9102484 1.36378081,10.9102484 C0.610584149,10.9102484 0,11.520852 0,12.2740292 C0,13.0272259 0.610584149,13.63781 1.36378081,13.63781 C2.11697746,13.63781 2.72756551,13.0272259 2.72756551,12.2740292 Z"></path>
                    </g>
                </g>
            </g>
        </g>
    </g>
</svg>