<?xml version="1.0" encoding="UTF-8"?>
<svg width="14px" height="9px" viewBox="0 0 14 9" version="1.1" xmlns="http://www.w3.org/2000/svg" xmlns:xlink="http://www.w3.org/1999/xlink">
    <!-- Generator: Sketch 48.2 (47327) - http://www.bohemiancoding.com/sketch -->
    <title>people - material</title>
    <desc>Created with Sketch.</desc>
    <defs></defs>
    <g id="Dashboard" stroke="none" stroke-width="1" fill="none" fill-rule="evenodd" transform="translate(-172.000000, -398.000000)">
        <path d="M181.324,402.674 C181.828003,402.674 182.387997,402.748666 183.004,402.898 C183.685337,403.075334 184.240665,403.303999 184.67,403.584 C185.174003,403.920002 185.426,404.297998 185.426,404.718 L185.426,406.174 L181.926,406.174 L181.926,404.718 C181.926,403.924663 181.543337,403.252669 180.778,402.702 C180.908667,402.683333 181.090666,402.674 181.324,402.674 Z M176.676,402.674 C177.180003,402.674 177.73533,402.748666 178.342,402.898 C179.023337,403.075334 179.573998,403.303999 179.994,403.584 C180.498003,403.920002 180.75,404.297998 180.75,404.718 L180.75,406.174 L172.574,406.174 L172.574,404.718 C172.574,404.297998 172.825997,403.920002 173.33,403.584 C173.759335,403.303999 174.314663,403.075334 174.996,402.898 C175.612003,402.748666 176.171997,402.674 176.676,402.674 Z M176.676,401.526 C176.367998,401.526 176.078668,401.446667 175.808,401.288 C175.537332,401.129333 175.322667,400.914668 175.164,400.644 C175.005333,400.373332 174.926,400.084002 174.926,399.776 C174.926,399.467998 175.005333,399.178668 175.164,398.908 C175.322667,398.637332 175.537332,398.422667 175.808,398.264 C176.078668,398.105333 176.367998,398.026 176.676,398.026 C176.984002,398.026 177.270999,398.105333 177.537,398.264 C177.803001,398.422667 178.012999,398.634999 178.167,398.901 C178.321001,399.167001 178.398,399.458665 178.398,399.776 C178.398,400.093335 178.321001,400.384999 178.167,400.651 C178.012999,400.917001 177.803001,401.129333 177.537,401.288 C177.270999,401.446667 176.984002,401.526 176.676,401.526 Z M181.324,401.526 C181.015998,401.526 180.726668,401.446667 180.456,401.288 C180.185332,401.129333 179.970667,400.914668 179.812,400.644 C179.653333,400.373332 179.574,400.084002 179.574,399.776 C179.574,399.467998 179.653333,399.178668 179.812,398.908 C179.970667,398.637332 180.185332,398.422667 180.456,398.264 C180.726668,398.105333 181.015998,398.026 181.324,398.026 C181.632002,398.026 181.921332,398.105333 182.192,398.264 C182.462668,398.422667 182.677333,398.637332 182.836,398.908 C182.994667,399.178668 183.074,399.467998 183.074,399.776 C183.074,400.084002 182.994667,400.373332 182.836,400.644 C182.677333,400.914668 182.462668,401.129333 182.192,401.288 C181.921332,401.446667 181.632002,401.526 181.324,401.526 Z" id="people---material" fill="#139ADA"></path>
    </g>
</svg>