<?xml version="1.0" encoding="UTF-8"?>
<svg width="16px" height="15px" viewBox="0 0 16 15" version="1.1" xmlns="http://www.w3.org/2000/svg" xmlns:xlink="http://www.w3.org/1999/xlink">
    <!-- Generator: Sketch 48.2 (47327) - http://www.bohemiancoding.com/sketch -->
    <title>local_printshop - material</title>
    <desc>Created with Sketch.</desc>
    <defs></defs>
    <g id="What-If-v2" stroke="none" stroke-width="1" fill="none" fill-rule="evenodd" transform="translate(-1223.000000, -105.000000)">
        <g id="Rectangle-153" transform="translate(1211.000000, 95.000000)" fill="#159BD5">
            <g id="Group">
                <path d="M24.3792734,10.85 L24.3792734,13.7729567 L15.5751871,13.7729567 L15.5751871,10.85 L24.3792734,10.85 Z M25.1012085,17.4530647 C25.3125076,17.4530647 25.4915222,17.3826327 25.6382577,17.2417667 C25.7849933,17.1009006 25.8583599,16.9306899 25.8583599,16.7311297 C25.8583599,16.5315694 25.7849933,16.3554894 25.6382577,16.2028845 C25.4915222,16.0502796 25.3125076,15.9739782 25.1012085,15.9739782 C24.8899094,15.9739782 24.7167641,16.0473449 24.5817674,16.1940804 C24.4467707,16.3408159 24.3792734,16.5198305 24.3792734,16.7311297 C24.3792734,16.9424288 24.4497054,17.1155741 24.5905715,17.2505707 C24.7314376,17.3855674 24.9016482,17.4530647 25.1012085,17.4530647 Z M22.9001869,22.577043 L22.9001869,18.9321512 L17.0542736,18.9321512 L17.0542736,22.577043 L22.9001869,22.577043 Z M25.1012085,14.5301081 C25.4885902,14.5301081 25.8524888,14.6298867 26.1929152,14.829447 C26.5333416,15.0290073 26.8033308,15.2989966 27.0028911,15.639423 C27.2024514,15.9798493 27.3022301,16.3437479 27.3022301,16.7311297 L27.3022301,21.1331728 L24.3792734,21.1331728 L24.3792734,24.0561295 L15.5751871,24.0561295 L15.5751871,21.1331728 L12.6522304,21.1331728 L12.6522304,16.7311297 C12.6522304,16.3437479 12.7520091,15.9798493 12.9515694,15.639423 C13.1511297,15.2989966 13.4211189,15.0290073 13.7615453,14.829447 C14.1019717,14.6298867 14.4658703,14.5301081 14.853252,14.5301081 L25.1012085,14.5301081 Z" id="local_printshop---material"></path>
            </g>
        </g>
    </g>
</svg>