<?xml version="1.0" encoding="UTF-8"?>
<svg width="11px" height="11px" viewBox="0 0 11 11" version="1.1" xmlns="http://www.w3.org/2000/svg" xmlns:xlink="http://www.w3.org/1999/xlink">
    <!-- Generator: Sketch 48.2 (47327) - http://www.bohemiancoding.com/sketch -->
    <title>refresh - material</title>
    <desc>Created with Sketch.</desc>
    <defs></defs>
    <g id="Dashboard" stroke="none" stroke-width="1" fill="none" fill-rule="evenodd" transform="translate(-179.000000, -272.000000)">
        <path d="M188.153441,273.942559 L189.672,272.424 L189.672,276.96418 L185.13182,276.96418 L187.223711,274.872288 C186.862148,274.510725 186.446356,274.229226 185.976324,274.027784 C185.506292,273.826341 185.013023,273.725622 184.496504,273.725622 C183.794038,273.725622 183.145817,273.898653 182.55182,274.244721 C181.957823,274.590788 181.487797,275.060814 181.14173,275.654811 C180.795662,276.248808 180.622631,276.897029 180.622631,277.599495 C180.622631,278.301961 180.795662,278.950183 181.14173,279.54418 C181.487797,280.138177 181.957823,280.608202 182.55182,280.95427 C183.145817,281.300338 183.794038,281.473369 184.496504,281.473369 C185.333265,281.473369 186.087372,281.235774 186.758847,280.760576 C187.430321,280.285379 187.895182,279.665565 188.153441,278.901117 L189.486054,278.901117 C189.300107,279.644904 188.964375,280.308621 188.478847,280.892288 C187.993319,281.475955 187.414826,281.933067 186.743351,282.263639 C186.040885,282.604542 185.291944,282.774991 184.496504,282.774991 C183.56677,282.774991 182.699031,282.537395 181.893261,282.062198 C181.118483,281.607661 180.503834,280.987848 180.049297,280.202739 C179.58443,279.407299 179.352,278.53956 179.352,277.599495 C179.352,276.659431 179.58443,275.791692 180.049297,274.996252 C180.503834,274.211143 181.118483,273.59133 181.893261,273.136793 C182.699031,272.661595 183.56677,272.424 184.496504,272.424 C185.19897,272.424 185.86527,272.558293 186.495423,272.826883 C187.125576,273.095473 187.678244,273.467361 188.153441,273.942559 Z" id="refresh---material" fill="#A9A9A9"></path>
    </g>
</svg>