<?xml version="1.0" encoding="UTF-8"?>
<svg width="25px" height="30px" viewBox="0 0 25 30" version="1.1" xmlns="http://www.w3.org/2000/svg" xmlns:xlink="http://www.w3.org/1999/xlink">
    <!-- Generator: Sketch 46.2 (44496) - http://www.bohemiancoding.com/sketch -->
    <title>send_sms</title>
    <desc>Created with Sketch.</desc>
    <defs></defs>
    <g id="Page-1" stroke="none" stroke-width="1" fill="none" fill-rule="evenodd" opacity="0.5">
        <g id="/-Side-Panels-Single-Colums/" transform="translate(-1290.000000, -261.000000)">
            <g id="send_sms" transform="translate(1290.000000, 261.000000)">
                <g id="Group-50" fill="#54698D">
                    <g id="noun_332942_cc" fill-rule="nonzero">
                        <g id="Group" transform="translate(0.000000, 0.212607)">
                            <path d="M3.04054054,0.120726667 C1.36776892,0.120726667 0,1.47026 0,3.12072667 L0,26.45406 C0,28.1045267 1.36776892,29.45406 3.04054054,29.45406 L15.2027027,29.45406 C16.8754743,29.45406 18.2432432,28.1045267 18.2432432,26.45406 L18.2432432,17.1207267 L22.972973,17.1207267 C24.0842588,17.1207267 25,16.2171933 25,15.1207267 L25,9.12072667 C25,8.02425667 24.0842588,7.12072667 22.972973,7.12072667 L18.2432432,7.12072667 L18.2432432,3.12072667 C18.2432432,1.47026 16.8754743,0.120726667 15.2027027,0.120726667 L3.04054054,0.120726667 Z M3.04054054,1.45406 L15.2027027,1.45406 C16.1502003,1.45406 16.8918919,2.18586333 16.8918919,3.12072667 L16.8918919,3.45406 L1.35135135,3.45406 L1.35135135,3.12072667 C1.35135135,2.18586333 2.09304291,1.45406 3.04054054,1.45406 Z M1.35135135,4.78739333 L16.8918919,4.78739333 L16.8918919,7.12072667 L10.1351351,7.12072667 C9.02384932,7.12072667 8.10810811,8.02425667 8.10810811,9.12072667 L8.10810811,15.1207267 C8.10810811,16.2171933 9.02384932,17.1207267 10.1351351,17.1207267 L10.472973,17.1207267 L10.472973,19.7873933 C10.4738514,20.0300163 10.6207645,20.2666897 10.8393932,20.37775 C11.0580216,20.4888103 11.338603,20.4692907 11.5392736,20.32906 L16.089527,17.1207267 L16.8918919,17.1207267 L16.8918919,22.7873933 L1.35135135,22.7873933 L1.35135135,4.78739333 Z M10.1351351,8.45406 L22.972973,8.45406 C23.3589845,8.45406 23.6486486,8.73986333 23.6486486,9.12072667 L23.6486486,15.1207267 C23.6486486,15.5015933 23.3589845,15.7873933 22.972973,15.7873933 L15.8783784,15.7873933 C15.7392959,15.78806 15.6007601,15.832395 15.4877534,15.9123933 L11.8243243,18.4957267 L11.8243243,16.45406 C11.8242889,16.1050037 11.502422,15.7874283 11.1486486,15.7873933 L10.1351351,15.7873933 C9.74912365,15.7873933 9.45945946,15.5015933 9.45945946,15.1207267 L9.45945946,9.12072667 C9.45945946,8.73986333 9.74912365,8.45406 10.1351351,8.45406 Z M1.35135135,24.1207267 L16.8918919,24.1207267 L16.8918919,26.45406 C16.8918919,27.3889267 16.1502003,28.1207267 15.2027027,28.1207267 L3.04054054,28.1207267 C2.09304291,28.1207267 1.35135135,27.3889267 1.35135135,26.45406 L1.35135135,24.1207267 Z M9.12162162,25.1207267 C8.56187365,25.1207267 8.10810811,25.568442 8.10810811,26.1207267 C8.10810811,26.6730113 8.56187365,27.1207267 9.12162162,27.1207267 C9.68136959,27.1207267 10.1351351,26.6730113 10.1351351,26.1207267 C10.1351351,25.568442 9.68136959,25.1207267 9.12162162,25.1207267 Z" id="Shape"></path>
                        </g>
                    </g>
                    <path d="M13.3482014,12.9251337 C13.3482014,12.8573972 13.33765,12.7963461 13.3165468,12.7419786 C13.2954435,12.6876111 13.2546766,12.6372551 13.1942446,12.5909091 C13.1338126,12.544563 13.0503602,12.499109 12.9438849,12.4545455 C12.8374095,12.409982 12.699761,12.3627453 12.5309353,12.3128342 C12.3390878,12.2557929 12.1582742,12.1916225 11.9884892,12.1203209 C11.8187042,12.0490193 11.6700246,11.9647955 11.542446,11.8676471 C11.4148675,11.7704986 11.3141491,11.6586459 11.2402878,11.5320856 C11.1664265,11.4055252 11.1294964,11.2575766 11.1294964,11.0882353 C11.1294964,10.9260241 11.1673857,10.7776299 11.2431655,10.6430481 C11.3189452,10.5084664 11.425419,10.3939399 11.5625899,10.2994652 C11.6997609,10.2049906 11.8628288,10.1314619 12.0517986,10.078877 C12.2407683,10.0262921 12.4484401,10 12.6748201,10 C12.9069556,10 13.1179847,10.0298571 13.3079137,10.0895722 C13.4978427,10.1492873 13.6599514,10.2326198 13.7942446,10.3395722 C13.9285378,10.4465246 14.0321339,10.5735287 14.105036,10.7205882 C14.177938,10.8676478 14.2143885,11.0285196 14.2143885,11.2032086 L13.3510791,11.2032086 C13.3510791,11.1212117 13.3371704,11.0454549 13.3093525,10.9759358 C13.2815346,10.9064168 13.2388492,10.8467026 13.181295,10.7967914 C13.1237407,10.7468803 13.051799,10.7081107 12.9654676,10.6804813 C12.8791363,10.6528519 12.7774586,10.6390374 12.6604317,10.6390374 C12.5472416,10.6390374 12.4489213,10.6506238 12.3654676,10.6737968 C12.282014,10.6969698 12.2129499,10.7290551 12.1582734,10.7700535 C12.1035968,10.8110519 12.0623503,10.8591798 12.0345324,10.9144385 C12.0067145,10.9696972 11.9928058,11.0285202 11.9928058,11.0909091 C11.9928058,11.219252 12.0633086,11.3266484 12.2043165,11.4131016 C12.3453244,11.4995548 12.552037,11.5802135 12.8244604,11.6550802 C13.0527589,11.7210342 13.2537162,11.7941172 13.4273381,11.8743316 C13.6009601,11.9545459 13.7458028,12.045454 13.8618705,12.1470588 C13.9779382,12.2486636 14.0657071,12.3627445 14.1251799,12.4893048 C14.1846526,12.6158652 14.2143885,12.7593575 14.2143885,12.9197861 C14.2143885,13.0909099 14.1784176,13.2433148 14.1064748,13.3770053 C14.034532,13.5106959 13.9323748,13.6234398 13.8,13.7152406 C13.6676252,13.8070415 13.5079146,13.8774507 13.3208633,13.9264706 C13.133812,13.9754904 12.925181,14 12.694964,14 C12.5568338,14 12.4187057,13.9888593 12.2805755,13.9665775 C12.1424454,13.9442958 12.0105522,13.9099824 11.8848921,13.8636364 C11.759232,13.8172903 11.6426864,13.7593586 11.5352518,13.6898396 C11.4278172,13.6203205 11.334293,13.5383249 11.2546763,13.4438503 C11.1750596,13.3493756 11.1127101,13.2419792 11.0676259,13.1216578 C11.0225417,13.0013363 11,12.8680934 11,12.7219251 L11.8661871,12.7219251 C11.8661871,12.8395728 11.8863307,12.9393935 11.9266187,13.0213904 C11.9669067,13.1033872 12.0230212,13.1697858 12.094964,13.2205882 C12.1669068,13.2713906 12.2537165,13.3083778 12.3553957,13.3315508 C12.4570748,13.3547238 12.5702632,13.3663102 12.694964,13.3663102 C12.8062356,13.3663102 12.9031171,13.3551695 12.9856115,13.3328877 C13.0681059,13.3106059 13.1362108,13.2798576 13.1899281,13.2406417 C13.2436454,13.2014258 13.2834531,13.1546349 13.3093525,13.1002674 C13.3352519,13.0458999 13.3482014,12.9875226 13.3482014,12.9251337 Z M15.9266187,10.0534759 L17.0028777,12.8770053 L18.0733813,10.0534759 L19.2071942,10.0534759 L19.2071942,13.9465241 L18.3410072,13.9465241 L18.3410072,12.8823529 L18.4273381,11.0454545 L17.2964029,13.9465241 L16.7035971,13.9465241 L15.5755396,11.0481283 L15.6618705,12.8823529 L15.6618705,13.9465241 L14.7985612,13.9465241 L14.7985612,10.0534759 L15.9266187,10.0534759 Z M22.1338129,12.9251337 C22.1338129,12.8573972 22.1232615,12.7963461 22.1021583,12.7419786 C22.0810551,12.6876111 22.0402881,12.6372551 21.9798561,12.5909091 C21.9194242,12.544563 21.8359718,12.499109 21.7294964,12.4545455 C21.6230211,12.409982 21.4853725,12.3627453 21.3165468,12.3128342 C21.1246993,12.2557929 20.9438857,12.1916225 20.7741007,12.1203209 C20.6043157,12.0490193 20.4556361,11.9647955 20.3280576,11.8676471 C20.200479,11.7704986 20.0997606,11.6586459 20.0258993,11.5320856 C19.952038,11.4055252 19.9151079,11.2575766 19.9151079,11.0882353 C19.9151079,10.9260241 19.9529972,10.7776299 20.028777,10.6430481 C20.1045567,10.5084664 20.2110305,10.3939399 20.3482014,10.2994652 C20.4853724,10.2049906 20.6484403,10.1314619 20.8374101,10.078877 C21.0263798,10.0262921 21.2340516,10 21.4604317,10 C21.6925671,10 21.9035962,10.0298571 22.0935252,10.0895722 C22.2834542,10.1492873 22.4455629,10.2326198 22.5798561,10.3395722 C22.7141494,10.4465246 22.8177454,10.5735287 22.8906475,10.7205882 C22.9635495,10.8676478 23,11.0285196 23,11.2032086 L22.1366906,11.2032086 C22.1366906,11.1212117 22.1227819,11.0454549 22.094964,10.9759358 C22.0671461,10.9064168 22.0244607,10.8467026 21.9669065,10.7967914 C21.9093522,10.7468803 21.8374105,10.7081107 21.7510791,10.6804813 C21.6647478,10.6528519 21.5630701,10.6390374 21.4460432,10.6390374 C21.3328532,10.6390374 21.2345328,10.6506238 21.1510791,10.6737968 C21.0676255,10.6969698 20.9985614,10.7290551 20.9438849,10.7700535 C20.8892084,10.8110519 20.8479618,10.8591798 20.8201439,10.9144385 C20.792326,10.9696972 20.7784173,11.0285202 20.7784173,11.0909091 C20.7784173,11.219252 20.8489202,11.3266484 20.9899281,11.4131016 C21.130936,11.4995548 21.3376485,11.5802135 21.6100719,11.6550802 C21.8383704,11.7210342 22.0393277,11.7941172 22.2129496,11.8743316 C22.3865716,11.9545459 22.5314143,12.045454 22.647482,12.1470588 C22.7635497,12.2486636 22.8513186,12.3627445 22.9107914,12.4893048 C22.9702641,12.6158652 23,12.7593575 23,12.9197861 C23,13.0909099 22.9640291,13.2433148 22.8920863,13.3770053 C22.8201435,13.5106959 22.7179863,13.6234398 22.5856115,13.7152406 C22.4532367,13.8070415 22.2935261,13.8774507 22.1064748,13.9264706 C21.9194235,13.9754904 21.7107925,14 21.4805755,14 C21.3424454,14 21.2043172,13.9888593 21.0661871,13.9665775 C20.9280569,13.9442958 20.7961637,13.9099824 20.6705036,13.8636364 C20.5448435,13.8172903 20.4282979,13.7593586 20.3208633,13.6898396 C20.2134287,13.6203205 20.1199045,13.5383249 20.0402878,13.4438503 C19.9606711,13.3493756 19.8983216,13.2419792 19.8532374,13.1216578 C19.8081533,13.0013363 19.7856115,12.8680934 19.7856115,12.7219251 L20.6517986,12.7219251 C20.6517986,12.8395728 20.6719422,12.9393935 20.7122302,13.0213904 C20.7525182,13.1033872 20.8086327,13.1697858 20.8805755,13.2205882 C20.9525183,13.2713906 21.039328,13.3083778 21.1410072,13.3315508 C21.2426864,13.3547238 21.3558747,13.3663102 21.4805755,13.3663102 C21.5918471,13.3663102 21.6887286,13.3551695 21.771223,13.3328877 C21.8537174,13.3106059 21.9218223,13.2798576 21.9755396,13.2406417 C22.0292569,13.2014258 22.0690646,13.1546349 22.094964,13.1002674 C22.1208634,13.0458999 22.1338129,12.9875226 22.1338129,12.9251337 Z" id="SMS"></path>
                </g>
                <path d="M2.5,8.25 L7.5,8.25" id="Path-3" stroke="#54698D" stroke-width="0.5"></path>
                <path d="M3.5,11.4 L7,11.4" id="Path-3-Copy" stroke="#54698D" stroke-width="0.8"></path>
                <path d="M4.5,14.25 L7,14.25" id="Path-3-Copy-2" stroke="#54698D" stroke-width="0.7"></path>
            </g>
        </g>
    </g>
</svg>