<?xml version="1.0" encoding="UTF-8"?>
<svg width="9px" height="6px" viewBox="0 0 9 6" version="1.1" xmlns="http://www.w3.org/2000/svg" xmlns:xlink="http://www.w3.org/1999/xlink">
    <!-- Generator: Sketch 46.2 (44496) - http://www.bohemiancoding.com/sketch -->
    <title>drop_down_arrow_inactive</title>
    <desc>Created with Sketch.</desc>
    <defs>
        <path d="M4.72607893,5.78846154 C4.60682851,5.90384615 4.4080778,5.90384615 4.28882737,5.78846154 L0.214437819,1.80769231 C0.0951873935,1.69230769 0.0951873935,1.5 0.214437819,1.38461538 L0.651689381,0.961538462 C0.770939807,0.846153846 0.969690517,0.846153846 1.08894094,0.961538462 L4.28882737,4.09615385 C4.4080778,4.21153846 4.60682851,4.21153846 4.72607893,4.09615385 L7.92596536,0.980769231 C8.04521579,0.865384615 8.2439665,0.865384615 8.36321692,0.980769231 L8.80046848,1.40384615 C8.89984384,1.51923077 8.89984384,1.69230769 8.80046848,1.80769231 L4.72607893,5.78846154 Z" id="path-1"></path>
    </defs>
    <g id="Page-1" stroke="none" stroke-width="1" fill="none" fill-rule="evenodd">
        <g id="Dashboard-menu_dropdown" transform="translate(-470.000000, -193.000000)">
            <g id="Group-52" transform="translate(257.000000, 65.000000)">
                <g id="Group-14" transform="translate(213.000000, 128.000000)">
                    <g id="drop_down_arrow_inactive">
                        <mask id="mask-2" fill="white">
                            <use xlink:href="#path-1"></use>
                        </mask>
                        <use id="Mask-Copy-11" fill="#535353" opacity="0.5"  transform="translate(4.500000, 3.375000) scale(-1, -1) translate(-4.500000, -3.375000) " xlink:href="#path-1"></use>
                    </g>
                </g>
            </g>
        </g>
    </g>
</svg>