<?xml version="1.0" encoding="UTF-8"?>
<svg width="15px" height="15px" viewBox="0 0 15 15" version="1.1" xmlns="http://www.w3.org/2000/svg" xmlns:xlink="http://www.w3.org/1999/xlink">
    <!-- Generator: Sketch 48.2 (47327) - http://www.bohemiancoding.com/sketch -->
    <title>info_outline - material</title>
    <desc>Created with Sketch.</desc>
    <defs></defs>
    <g id="Risk-Premium--fresh-policy-existing-clientcategory-1" stroke="none" stroke-width="1" fill="none" fill-rule="evenodd" transform="translate(-901.000000, -191.000000)">
        <path d="M907.603065,196.123978 L907.603065,194.644892 L909.046935,194.644892 L909.046935,196.123978 L907.603065,196.123978 Z M908.325,204.206129 C909.381495,204.206129 910.367543,203.93614 911.283173,203.396154 C912.175325,202.879645 912.879645,202.175325 913.396154,201.283173 C913.93614,200.367543 914.206129,199.381495 914.206129,198.325 C914.206129,197.268504 913.93614,196.282456 913.396154,195.366827 C912.879645,194.474675 912.175325,193.770355 911.283173,193.253846 C910.367543,192.713859 909.381495,192.44387 908.325,192.44387 C907.268504,192.44387 906.282456,192.713859 905.366827,193.253846 C904.474675,193.770355 903.770355,194.474675 903.253846,195.366827 C902.713859,196.282456 902.44387,197.268504 902.44387,198.325 C902.44387,199.381495 902.713859,200.367543 903.253846,201.283173 C903.770355,202.175325 904.474675,202.879645 905.366827,203.396154 C906.282456,203.93614 907.268504,204.206129 908.325,204.206129 Z M908.325,191 C909.663228,191 910.901657,191.334552 912.040324,192.003666 C913.143775,192.637563 914.012436,193.506224 914.646334,194.609675 C915.315448,195.748343 915.65,196.986772 915.65,198.325 C915.65,199.663228 915.315448,200.901657 914.646334,202.040324 C914.012436,203.143775 913.143775,204.012436 912.040324,204.646334 C910.901657,205.315448 909.663228,205.65 908.325,205.65 C906.986772,205.65 905.748343,205.315448 904.609675,204.646334 C903.506224,204.000698 902.637563,203.126167 902.003666,202.022716 C901.334552,200.884049 901,199.651489 901,198.325 C901,196.998511 901.334552,195.765951 902.003666,194.627284 C902.649302,193.523833 903.523833,192.649302 904.627284,192.003666 C905.765951,191.334552 906.998511,191 908.325,191 Z M907.603065,202.005108 L907.603065,197.603065 L909.046935,197.603065 L909.046935,202.005108 L907.603065,202.005108 Z" id="info_outline---material" fill="#ADADAD"></path>
    </g>
</svg>