<?xml version="1.0" encoding="UTF-8" standalone="no"?>
<svg width="15px" height="15px" viewBox="0 0 15 15" version="1.1" xmlns="http://www.w3.org/2000/svg" xmlns:xlink="http://www.w3.org/1999/xlink">
    <!-- Generator: Sketch 41.2 (35397) - http://www.bohemiancoding.com/sketch -->
    <title>time_icon</title>
    <desc>Created with Sketch.</desc>
    <defs>
        <path d="M7.5,0 C3.375,0 0,3.375 0,7.5 C0,11.625 3.375,15 7.5,15 C11.625,15 15,11.625 15,7.5 C15,3.375 11.625,0 7.5,0 Z M7.5,13.125 C4.40625,13.125 1.875,10.59375 1.875,7.5 C1.875,4.40625 4.40625,1.875 7.5,1.875 C10.59375,1.875 13.125,4.40625 13.125,7.5 C13.125,10.59375 10.59375,13.125 7.5,13.125 Z M8.5625,7.5625 C8.46875,7.46875 8.4375,7.34375 8.4375,7.21875 L8.4375,4.21875 C8.4375,3.96875 8.21875,3.75 7.96875,3.75 L7.03125,3.75 C6.78125,3.75 6.5625,3.96875 6.5625,4.21875 L6.5625,8 C6.5625,8.125 6.625,8.25 6.6875,8.34375 L9,10.65625 C9.1875,10.84375 9.46875,10.84375 9.65625,10.65625 L10.3125,10 C10.5,9.8125 10.5,9.53125 10.3125,9.34375 L8.5625,7.5625 Z" id="path-1"></path>
    </defs>
    <g id="Page-1" stroke="none" stroke-width="1" fill="none" fill-rule="evenodd">
        <g id="General-ERN-Entry" transform="translate(-180.000000, -549.000000)">
            <g id="Date-picker" transform="translate(43.000000, 313.000000)">
                <g id="Back-Copy" transform="translate(27.000000, 229.000000)">
                    <g id="time_icon" transform="translate(110.000000, 7.000000)">
                        <mask id="mask-2" fill="white">
                            <use xlink:href="#path-1"></use>
                        </mask>
                        <use id="Mask" fill="#159bd5" xlink:href="#path-1"></use>
                    </g>
                </g>
            </g>
        </g>
    </g>
</svg>