<?xml version="1.0" encoding="UTF-8"?>
<svg width="14px" height="14px" viewBox="0 0 14 14" version="1.1" xmlns="http://www.w3.org/2000/svg" xmlns:xlink="http://www.w3.org/1999/xlink">
    <!-- Generator: Sketch 46.2 (44496) - http://www.bohemiancoding.com/sketch -->
    <title>plus_btn</title>
    <desc>Created with Sketch.</desc>
    <defs>
        <path d="M8.23076923,7.92307692 L13.3076923,7.92307692 C13.5538462,7.92307692 13.7692308,7.70769231 13.7692308,7.46153846 L13.7692308,6.53846154 C13.7692308,6.29230769 13.5538462,6.07692308 13.3076923,6.07692308 L8.23076923,6.07692308 C8.04615385,6.07692308 7.92307692,5.95384615 7.92307692,5.76923077 L7.92307692,0.692307692 C7.92307692,0.446153846 7.70769231,0.230769231 7.46153846,0.230769231 L6.53846154,0.230769231 C6.29230769,0.230769231 6.07692308,0.446153846 6.07692308,0.692307692 L6.07692308,5.76923077 C6.07692308,5.95384615 5.95384615,6.07692308 5.76923077,6.07692308 L0.692307692,6.07692308 C0.446153846,6.07692308 0.230769231,6.29230769 0.230769231,6.53846154 L0.230769231,7.46153846 C0.230769231,7.70769231 0.446153846,7.92307692 0.692307692,7.92307692 L5.76923077,7.92307692 C5.95384615,7.92307692 6.07692308,8.04615385 6.07692308,8.23076923 L6.07692308,13.3076923 C6.07692308,13.5538462 6.29230769,13.7692308 6.53846154,13.7692308 L7.46153846,13.7692308 C7.70769231,13.7692308 7.92307692,13.5538462 7.92307692,13.3076923 L7.92307692,8.23076923 C7.92307692,8.04615385 8.04615385,7.92307692 8.23076923,7.92307692 Z" id="path-1"></path>
    </defs>
    <g id="Page-1" stroke="none" stroke-width="1" fill="none" fill-rule="evenodd">
        <g id="Button-Dropdown_Measure" transform="translate(-494.000000, -204.000000)">
            <g id="Group" transform="translate(365.000000, 152.000000)">
                <g id="Group-2" transform="translate(21.000000, 13.000000)">
                    <g id="Button-Neutral" transform="translate(99.000000, 30.000000)">
                        <g id="plus_btn" transform="translate(9.000000, 9.000000)">
                            <mask id="mask-2" fill="white">
                                <use xlink:href="#path-1"></use>
                            </mask>
                            <use id="Mask" fill="#54698D" opacity="0.5" xlink:href="#path-1"></use>
                        </g>
                    </g>
                </g>
            </g>
        </g>
    </g>
</svg>