<?xml version="1.0" encoding="UTF-8"?>
<svg width="125px" height="124px" viewBox="0 0 125 124" version="1.1" xmlns="http://www.w3.org/2000/svg" xmlns:xlink="http://www.w3.org/1999/xlink">
    <!-- Generator: Sketch 41.2 (35397) - http://www.bohemiancoding.com/sketch -->
    <title>Group 30</title>
    <desc>Created with Sketch.</desc>
    <defs>
        <rect id="path-1" x="0" y="0" width="125" height="123.820755"></rect>
    </defs>
    <g id="Page-1" stroke="none" stroke-width="1" fill="none" fill-rule="evenodd">
        <g id="FINANCIAL-SOLUTIONS" transform="translate(-448.000000, -3698.000000)">
            <g id="Group-30" transform="translate(448.000000, 3698.000000)">
                <g id="10256567-falling-dollar-note-and-graph-of-stock-market-with-stock-board-Stock-Photo-Copy-7">
                    <mask id="mask-2" fill="white">
                        <use xlink:href="#path-1"></use>
                    </mask>
                    <use id="Mask" fill="#000000" opacity="0.02" xlink:href="#path-1"></use>
                </g>
                <g id="Group-20-Copy-2" transform="translate(3.000000, 2.000000)">
                    <g id="noun_763916_cc-copy-4" transform="translate(13.500000, 19.500000)">
                        <g id="Group">
                            <g transform="translate(1.002013, 0.000000)"></g>
                        </g>
                    </g>
                    <circle id="Oval-3-Copy-4" cx="60" cy="60" r="60"></circle>
                    <g id="noun_1056231_cc" transform="translate(24.000000, 30.000000)" stroke="#F2F2F2" stroke-width="3.5" fill="#046567">
                        <g id="Group" transform="translate(0.000000, 0.000000)">
                            <g transform="translate(0.000000, 0.000000)" id="Shape">
                                <path d="M71.1873217,21.7569059 C69.9631933,21.7569059 68.985652,22.7464892 68.985652,23.9691744 L68.985652,54.9768519 L16.213096,54.9768519 C14.9897015,54.9768519 13.9982162,55.9532407 13.9982162,57.1759259 C13.9982162,58.3986111 14.9897015,59.375 16.213096,59.375 L71.5828884,59.375 C72.8070167,59.375 73.3889914,58.3744213 73.3889914,57.1524691 L73.3889914,23.9691744 C73.3889914,22.7464892 72.4114501,21.7569059 71.1873217,21.7569059 Z"></path>
                                <path d="M66.7839822,50.5156636 L66.7839822,17.3323688 C66.7839822,16.1096836 65.8064408,15.1201003 64.5823125,15.1201003 C63.3581841,15.1201003 62.3806427,16.1096836 62.3806427,17.3323688 L62.3806427,48.3796296 L15.9899935,48.3796296 L11.5572984,52.7777778 L64.938983,52.7777778 C66.1631113,52.7777778 66.7839822,51.7383488 66.7839822,50.5156636 Z"></path>
                                <path d="M40.5753056,27.2875772 C40.5753056,26.2334877 40.366147,25.235108 40.0615826,24.2807099 L36.0450031,28.2881559 C35.6318231,30.5370756 33.8580112,32.3058642 31.6064369,32.7185571 L27.5905913,36.7260031 C28.5490516,37.0331404 29.5508113,37.2427855 30.6090806,37.2427855 C36.1051821,37.2427855 40.5753056,32.7771991 40.5753056,27.2875772 Z"></path>
                                <path d="M53.7779851,3.95760031 C54.6432414,3.0933642 54.6410397,1.69402006 53.7757835,0.829783951 C52.9105273,-0.0344521605 51.5087975,0.119483025 50.6442752,0.98445216 L42.9729239,8.7962963 L2.92455131,8.7962963 C1.70115682,8.7962963 0.733889914,9.47287809 0.733889914,10.6955633 L0.733889914,43.878125 C0.733889914,45.1008102 1.70115682,46.1805556 2.92455131,46.1805556 L5.29134628,46.1805556 L0.785262208,50.6329475 C-0.0799940007,51.4979167 -0.0799940007,52.8752701 0.785262208,53.7387731 C1.65051842,54.6059414 3.05298204,54.594213 3.91970603,53.7292438 L53.7779851,3.95760031 Z M25.1782952,26.24375 C25.6046852,24.0292824 27.3513432,22.2854167 29.5691585,21.8624614 L25.1782952,26.24375 Z M5.1372294,13.1944444 L11.7833365,13.1944444 C11.7833365,16.8595679 8.80667897,19.5446373 5.1372294,19.5446373 L5.1372294,13.1944444 L5.1372294,13.1944444 Z M5.1372294,23.9691744 C11.0083487,23.9691744 16.213096,19.058642 16.213096,13.1944444 L38.5387611,13.1944444 L33.5945447,17.9876929 C32.6470928,17.6856867 31.6578092,17.4034722 30.6098144,17.4034722 C25.1137129,17.4034722 20.6428555,21.8331404 20.6428555,27.3227623 C20.6428555,28.3658565 20.8520141,29.3356481 21.1521751,30.279784 L14.8810858,36.5295525 C13.0184732,33.0308256 9.54056889,30.6052469 5.1372294,30.6052469 L5.1372294,23.9691744 Z M5.1372294,41.7824074 L5.1372294,35.029784 C8.07278906,35.029784 10.7235994,37.1533565 11.5095955,39.9439815 L9.72404137,41.7824074 L5.1372294,41.7824074 Z"></path>
                                <path d="M55.7756335,13.1944444 L55.7756335,19.5446373 C52.8400738,19.5446373 50.3213637,17.4657793 49.5478437,14.6575617 L46.0948916,18.0272762 C47.9538348,21.5428627 52.1061839,23.9691744 55.7756335,23.9691744 L55.7756335,30.6052469 C49.9045142,30.6052469 45.0050651,35.1851852 45.0050651,41.7824074 L22.6390361,41.7824074 L18.2056071,46.1805556 L58.2936098,46.1805556 C59.5184721,46.1805556 60.178973,45.1008102 60.178973,43.878125 L60.178973,10.6955633 C60.178973,9.47287809 59.5184721,8.7962963 58.2943437,8.7962963 L55.8879187,8.7962963 L51.4559575,13.1944444 L55.7756335,13.1944444 Z M55.7756335,41.7824074 L49.4348246,41.7824074 C49.4348246,38.117284 52.1061839,35.029784 55.7756335,35.029784 L55.7756335,41.7824074 Z"></path>
                            </g>
                        </g>
                    </g>
                </g>
            </g>
        </g>
    </g>
</svg>