<?xml version="1.0" encoding="UTF-8"?>
<svg width="125px" height="124px" viewBox="0 0 125 124" version="1.1" xmlns="http://www.w3.org/2000/svg" xmlns:xlink="http://www.w3.org/1999/xlink">
    <!-- Generator: Sketch 41.2 (35397) - http://www.bohemiancoding.com/sketch -->
    <title>Group 31</title>
    <desc>Created with Sketch.</desc>
    <defs>
        <rect id="path-1" x="0" y="0" width="125" height="123.820755"></rect>
    </defs>
    <g id="Page-1" stroke="none" stroke-width="1" fill="none" fill-rule="evenodd">
        <g id="FINANCIAL-SOLUTIONS" transform="translate(-847.000000, -3698.000000)">
            <g id="Group-31" transform="translate(847.000000, 3698.000000)">
                <g id="Bitmap-Copy-9">
                    <mask id="mask-2" fill="white">
                        <use xlink:href="#path-1"></use>
                    </mask>
                    <use id="Mask" fill="#000000" opacity="0.02" xlink:href="#path-1"></use>
                </g>
                <g id="Group-19-Copy-2" transform="translate(3.000000, 2.000000)">
                    <g id="Group-18">
                        <g id="Group-21-Copy">
                            <g id="Group-9-Copy-5">
                                <circle id="Oval-3" cx="60" cy="60" r="60"></circle>
                            </g>
                            <g id="Group-15" transform="translate(27.000000, 28.500000)" fill="#F2F2F2" stroke="#046567">
                                <g id="noun_228832_cc">
                                    <g id="Group" transform="translate(-0.000000, -0.000000)">
                                        <path d="M3.3944969,25.1353935 L7.04901371,25.1353935 C7.76558563,25.1353935 8.19552879,25.9167709 7.83724283,26.4850455 L7.1206709,27.7636631 L6.33244179,27.7636631 L3.96775444,27.7636631 C3.75278286,27.7636631 3.53781128,27.7636631 3.3228397,27.8346974 L2.53461059,26.5560798 C2.24798182,25.9167709 2.67792497,25.1353935 3.3944969,25.1353935 Z M4.25438321,47.7953398 L6.26078459,47.7953398 C8.91210071,47.7953398 10.9185021,45.3801731 10.4169018,42.7519035 L9.41370106,38.0636387 C9.19872948,37.0691583 8.26718598,36.4298495 7.1206709,36.4298495 L6.26078459,36.4298495 L4.25438321,36.4298495 L3.3944969,36.4298495 C2.24798182,36.4298495 1.31643832,37.1401926 1.10146674,38.0636387 L0.0982660447,42.7519035 C-0.474991495,45.3091388 1.53140989,47.7953398 4.25438321,47.7953398 Z M13.5698182,14.409212 C17.5109638,14.409212 20.6638803,11.2837022 20.5922231,7.44784917 C20.5922231,3.46992756 17.4393066,0.415452032 13.4265038,0.415452032 C9.55701544,0.415452032 6.40409898,3.61199619 6.47575617,7.51888348 C6.47575617,11.3547365 9.70032983,14.4802463 13.5698182,14.409212 Z M0.814837969,32.1677906 C0.814837969,33.9436485 2.10466743,35.2222661 3.96775444,35.2222661 L16.5794203,35.2222661 C17.8692498,35.2222661 18.5858217,34.5829573 18.5858217,33.162271 L18.5858217,27.3374572 C18.5858217,27.2664229 18.5858217,27.2664229 18.6574789,26.9822857 C20.6638803,30.0367612 22.6702817,32.9491681 24.6050259,35.9326093 C24.3900543,36.1457122 24.1750827,36.2877809 23.8884539,36.4298495 C21.3804522,37.9926044 18.8724505,39.5553593 16.3644487,40.9760456 C15.1462765,41.6863888 14.6446761,42.7519035 14.6446761,44.1015555 C14.6446761,50.0684379 14.7163333,56.1063546 14.6446761,62.073237 C14.6446761,64.2753008 16.07782,65.6959871 18.3708501,65.7670214 C20.5922231,65.8380557 22.0253669,64.8435753 22.3836529,63.0677174 C22.4553101,62.7125459 22.4553101,62.3573743 22.4553101,62.0022027 C22.4553101,56.9587664 22.3836529,51.8442957 22.3836529,46.8008594 C22.3836529,46.4456878 22.3836529,46.0905163 22.813596,45.806379 C25.1782834,44.456727 27.6146279,43.0360407 30.0509725,41.6863888 L33.0605746,39.2712221 C33.4905177,38.9160505 38.2198924,34.9381289 35.1386331,29.9657269 C32.7022886,26.0588396 30.2659441,22.2229866 27.8295995,18.3160993 C27.6862851,18.031962 27.4713135,17.8188591 27.3279992,17.4636875 C27.6146279,17.3926532 27.8295995,17.3926532 27.9729139,17.3926532 C30.8392016,17.3926532 33.7771465,17.3926532 36.6434342,17.3216189 C37.2166917,17.3216189 37.4316633,17.4636875 37.7182921,17.8898934 C38.7214928,19.5236826 39.7963506,21.1574719 40.7995513,22.7912611 C41.802752,24.4250503 43.665839,24.9222905 45.0989829,23.9988445 C46.8187555,23.1464327 47.1770415,21.2995405 46.1738408,19.6657513 C44.7406969,17.3216189 43.3075531,14.9774865 41.8744092,12.6333541 C41.3011517,11.709908 40.5845798,11.3547365 39.5813791,11.2837022 C34.8520044,11.2837022 30.0509725,11.2837022 25.3215978,11.3547365 C24.4617115,11.4257708 23.4585108,11.709908 22.7419388,12.1361139 C20.0906227,13.7699032 17.582621,15.545761 14.9313049,17.2505846 C13.498161,18.1740307 12.7815891,19.4526483 12.7815891,21.1574719 L12.7815891,28.0478004 C12.7099319,28.3319376 12.7815891,28.6160749 12.7815891,28.9712465 L11.9217028,28.9712465 L4.11106882,28.9712465 C2.03301024,29.1843494 0.814837969,30.3919328 0.814837969,32.1677906 Z M54.9876754,40.2657025 C53.9128176,39.6263936 52.8379597,39.697428 51.6914446,40.1946682 C48.7534997,41.4022515 45.8155548,42.6098349 42.8776099,43.8174182 C42.5909812,43.9594868 42.3043524,44.0305211 41.9460664,44.1725898 C41.802752,43.8884525 41.7310948,43.6043153 41.5877805,43.320178 C40.3696082,40.4077711 40.5129226,40.7629427 39.2230931,37.8505358 C39.1514359,37.7795015 38.7214928,36.7139868 38.2915496,35.861575 C37.5749777,38.2767417 35.9268623,40.1236338 34.5653756,41.2601829 L32.7022886,42.7519035 C33.9921181,45.806379 35.2819475,48.9318888 36.571777,51.9153301 C37.2883489,53.6911879 38.2915496,54.1173938 40.1546366,53.3360163 C44.9556685,51.3470555 49.7567004,49.3580947 54.5577323,47.3691339 C55.9908761,46.942928 56.9940768,45.9484476 56.9940768,44.3856927 C57.065734,42.6808692 56.4924765,41.2601829 54.9876754,40.2657025 Z" id="Shape" transform="translate(28.500000, 33.093018) scale(-1, 1) translate(-28.500000, -33.093018) "></path>
                                    </g>
                                </g>
                            </g>
                        </g>
                    </g>
                </g>
            </g>
        </g>
    </g>
</svg>