<?xml version="1.0" encoding="UTF-8"?>
<svg width="125px" height="124px" viewBox="0 0 125 124" version="1.1" xmlns="http://www.w3.org/2000/svg" xmlns:xlink="http://www.w3.org/1999/xlink">
    <!-- Generator: Sketch 41.2 (35397) - http://www.bohemiancoding.com/sketch -->
    <title>Group 25</title>
    <desc>Created with Sketch.</desc>
    <defs>
        <rect id="path-1" x="0" y="0" width="125" height="123.820755"></rect>
    </defs>
    <g id="Page-1" stroke="none" stroke-width="1" fill="none" fill-rule="evenodd">
        <g id="FINANCIAL-SOLUTIONS" transform="translate(-847.000000, -2539.000000)">
            <g id="Group-25" transform="translate(847.000000, 2539.000000)">
                <g id="Bitmap-Copy-6">
                    <mask id="mask-2" fill="white">
                        <use xlink:href="#path-1"></use>
                    </mask>
                    <use id="Mask" fill="#000000" opacity="0.02" xlink:href="#path-1"></use>
                </g>
                <g id="Group-15-Copy" transform="translate(3.000000, 2.000000)">
                    <g id="Group-13">
                        <g id="Group-9-Copy-6">
                            <circle id="Oval-3" cx="60" cy="60" r="60"></circle>
                        </g>
                        <g id="noun_897862_cc-copy" transform="translate(33.000000, 33.000000)" stroke-width="0.8" stroke="#FFFFFF" fill="#046567">
                            <g id="Group">
                                <g transform="translate(0.224208, 0.000000)">
                                    <path d="M32.5441868,5.84007728e-15 L38.1722722,5.61287427 L32.5441868,11.2257485 L28.5733562,11.2257485 L28.5733562,13.9501514 C27.4174341,13.7929909 26.2658412,13.7929909 25.1099191,13.9501514 L25.1099191,7.77167207 L18.1830449,7.77167207 L18.1830449,17.1425815 C16.6244982,18.5380284 15.4486613,20.2598856 14.7196077,22.1648087 L14.7196077,18.1339015 L7.79273351,18.1339015 L7.79273351,27.6326118 L13.8979073,27.6326118 C13.9412002,28.2880228 14.0269203,28.930481 14.1645919,29.5556689 L0.253696769,43.428967 L1.47802179,44.6499831 L14.7369249,31.4277783 C16.0556286,34.8248625 18.7649023,37.5268139 22.1711927,38.8419535 L8.91228956,52.0641582 L10.1366146,53.2851742 L21.1390884,42.3124368 L22.5123412,42.3124368 L22.5123412,49.2205898 C22.5123412,51.601312 24.4544636,53.5381853 26.8416376,53.5381853 C29.2288117,53.5381853 31.170934,51.601312 31.170934,49.2205898 L31.170934,42.3124368 L32.9026526,42.3124368 L32.9026526,40.5853986 L31.170934,40.5853986 L31.170934,38.9663002 C35.946148,37.2746663 39.4364267,32.881081 39.785368,27.6326118 L45.8905418,27.6326118 L45.8905418,17.6278793 L48.05519,15.4690815 L53.6832753,21.0819558 L53.6832753,5.84007728e-15 L32.5441868,5.84007728e-15 Z M38.9636675,7.26564986 L38.9636675,13.458809 L36.6197865,15.7963552 L37.8441115,17.0173713 L38.9636675,15.900841 L38.9636675,22.1648087 C38.234614,20.259022 37.0587771,18.5380284 35.5002304,17.1425815 L35.5002304,11.2257485 L34.9928369,11.2257485 L38.9636675,7.26564986 Z M25.1099191,27.6326118 L25.1099191,19.2141639 C26.2502558,18.9559717 27.4330195,18.9559717 28.5733562,19.2141639 L28.5733562,27.6326118 L34.5832854,27.6326118 C34.1503558,31.5124032 30.8453709,34.5407647 26.8416376,34.5407647 C22.8379043,34.5407647 19.5320536,31.5124032 19.0999898,27.6326118 L25.1099191,27.6326118 Z M30.3050748,12.9527868 L33.7685119,12.9527868 L33.7685119,25.9055736 L30.3050748,25.9055736 L30.3050748,12.9527868 Z M28.5733562,15.6970505 L28.5733562,17.436178 C27.4295561,17.2272064 26.2537192,17.2272064 25.1099191,17.436178 L25.1099191,15.6970505 C26.2675729,15.5157115 27.4157023,15.5157115 28.5733562,15.6970505 Z M19.9147634,9.4987103 L23.3782005,9.4987103 L23.3782005,25.9055736 L19.9147634,25.9055736 L19.9147634,9.4987103 Z M12.9878892,25.9055736 L9.52445207,25.9055736 L9.52445207,19.8609397 L12.9878892,19.8609397 L12.9878892,25.9055736 Z M29.4392155,49.2205898 C29.4392155,50.6488504 28.2737689,51.8111471 26.8416376,51.8111471 C25.4095064,51.8111471 24.2440598,50.6488504 24.2440598,49.2205898 L24.2440598,42.3124368 L29.4392155,42.3124368 L29.4392155,49.2205898 Z M29.4392155,40.5853986 L24.2440598,40.5853986 L24.2440598,39.4610967 C25.0839433,39.6312099 25.9524002,39.7218794 26.8416376,39.7218794 C27.7308751,39.7218794 28.599332,39.6312099 29.4392155,39.4610967 L29.4392155,40.5853986 Z M26.8416376,37.9948412 C20.6351583,37.9948412 15.585467,32.9587977 15.585467,26.7690927 C15.585467,24.1336323 16.5223268,21.6242458 18.1830449,19.6260625 L18.1830449,22.8547605 C17.6150412,24.0990916 17.3171856,25.4133677 17.3171856,26.7690927 C17.3171856,32.0063361 21.5902011,36.267803 26.8416376,36.267803 C32.0930742,36.267803 36.3660897,32.0063361 36.3660897,26.7690927 C36.3660897,25.4142312 36.0682341,24.0999551 35.5002304,22.8547605 L35.5002304,19.6260625 C37.1609485,21.6242458 38.0978083,24.1336323 38.0978083,26.7690927 C38.0978083,32.9587977 33.0481169,37.9948412 26.8416376,37.9948412 Z M44.1588232,25.9055736 L40.6953861,25.9055736 L40.6953861,5.18111471 L44.1588232,5.18111471 L44.1588232,25.9055736 Z M51.9515567,16.9128855 L48.05519,13.0270494 L45.8905418,15.1858472 L45.8905418,3.45407647 L38.9636675,3.45407647 L38.9636675,3.96009868 L36.7245554,1.72703824 L51.9515567,1.72703824 L51.9515567,16.9128855 Z" id="Shape"></path>
                                    <rect id="Rectangle-path" transform="translate(9.956729, 43.607762) rotate(-45.000000) translate(-9.956729, -43.607762) " x="0.77308087" y="42.7442509" width="18.3672967" height="1.72702167"></rect>
                                    <rect id="Rectangle-path" transform="translate(1.731372, 51.810802) rotate(-45.000000) translate(-1.731372, -51.810802) " x="0.507058935" y="50.9472909" width="2.44862656" height="1.72702167"></rect>
                                </g>
                            </g>
                        </g>
                    </g>
                </g>
            </g>
        </g>
    </g>
</svg>