<?xml version="1.0" encoding="UTF-8"?>
<svg width="125px" height="124px" viewBox="0 0 125 124" version="1.1" xmlns="http://www.w3.org/2000/svg" xmlns:xlink="http://www.w3.org/1999/xlink">
    <!-- Generator: Sketch 41.2 (35397) - http://www.bohemiancoding.com/sketch -->
    <title>Group 32</title>
    <desc>Created with Sketch.</desc>
    <defs>
        <rect id="path-1" x="0" y="0" width="125" height="123.820755"></rect>
    </defs>
    <g id="Page-1" stroke="none" stroke-width="1" fill="none" fill-rule="evenodd">
        <g id="FINANCIAL-SOLUTIONS" transform="translate(-448.000000, -3852.000000)">
            <g id="Group-32" transform="translate(448.000000, 3852.000000)">
                <g id="10256567-falling-dollar-note-and-graph-of-stock-market-with-stock-board-Stock-Photo-Copy-6">
                    <mask id="mask-2" fill="white">
                        <use xlink:href="#path-1"></use>
                    </mask>
                    <use id="Mask" fill="#000000" opacity="0.02" xlink:href="#path-1"></use>
                </g>
                <g id="Group-21-Copy-2" transform="translate(3.000000, 2.000000)">
                    <g id="Group-20">
                        <g id="Group-22-Copy">
                            <g id="noun_763916_cc-copy-3" transform="translate(14.321918, 19.500000)">
                                <g id="Group">
                                    <g transform="translate(0.180095, 0.000000)"></g>
                                </g>
                            </g>
                            <circle id="Oval-3-Copy-3" cx="60" cy="60" r="60"></circle>
                            <g id="noun_995405_cc" transform="translate(28.500000, 30.000000)" stroke-width="0.5" fill="#046567">
                                <g id="Group">
                                    <g transform="translate(0.000000, 0.000000)" id="Shape">
                                        <path d="M11.0628998,35.4773467 C12.3102345,35.4773467 13.2697228,34.5236546 13.2697228,33.2838548 C13.2697228,32.0440551 12.3102345,31.090363 11.0628998,31.090363 C9.81556503,31.090363 8.85607676,32.0440551 8.85607676,33.2838548 C8.85607676,34.5236546 9.81556503,35.4773467 11.0628998,35.4773467 Z M11.0628998,32.6162703 C11.4466951,32.6162703 11.8304904,32.9977472 11.8304904,33.379224 C11.8304904,33.7607009 11.4466951,34.1421777 11.0628998,34.1421777 C10.6791045,34.1421777 10.2953092,33.7607009 10.2953092,33.379224 C10.2953092,32.902378 10.5831557,32.6162703 11.0628998,32.6162703 Z" stroke="#F2F2F2"></path>
                                        <path d="M60.2846482,8.20175219 L57.5021322,8.20175219 L57.5021322,6.38973717 C57.5021322,4.86382979 56.2547974,3.62403004 54.815565,3.43329161 C54.5277186,1.71664581 53.0884861,0.381476846 51.2654584,0.381476846 L26.7025586,0.381476846 C24.6876333,0.381476846 23.152452,2.00275344 23.152452,3.91013767 L23.152452,8.10638298 L2.71535181,8.10638298 C1.2761194,8.10638298 0.124733475,9.25081352 0.124733475,10.6813517 L0.124733475,50.1642053 C0.124733475,51.5947434 1.2761194,52.739174 2.71535181,52.739174 L23.5362473,52.739174 L19.8901919,58.175219 L16.0522388,58.175219 L16.0522388,59.6057572 L46.9477612,59.6057572 L46.9477612,58.175219 L43.1098081,58.175219 L39.4637527,52.739174 L60.2846482,52.739174 C61.7238806,52.739174 62.8752665,51.5947434 62.8752665,50.1642053 L62.8752665,10.7767209 C62.8752665,9.34618273 61.7238806,8.20175219 60.2846482,8.20175219 Z M54.815565,16.212766 L54.815565,4.959199 C55.4872068,5.05456821 56.0628998,5.72215269 56.0628998,6.48510638 L56.0628998,19.6460576 C56.0628998,20.5043805 55.391258,21.171965 54.5277186,21.171965 L29.1972281,21.171965 C28.4296375,21.171965 27.8539446,20.5997497 27.6620469,19.9321652 L51.2654584,19.9321652 C53.184435,19.836796 54.815565,18.2155194 54.815565,16.212766 Z M24.5916844,4.00550688 C24.5916844,2.86107635 25.5511727,1.90738423 26.7025586,1.90738423 L51.2654584,1.90738423 C52.4168443,1.90738423 53.3763326,2.86107635 53.3763326,4.00550688 L53.3763326,16.212766 C53.3763326,17.3571965 52.4168443,18.3108886 51.2654584,18.3108886 L26.7025586,18.3108886 C25.5511727,18.3108886 24.5916844,17.3571965 24.5916844,16.212766 L24.5916844,4.00550688 Z M2.71535181,9.63229036 L23.0565032,9.63229036 L23.0565032,16.3081352 C23.0565032,18.1201502 24.3997868,19.5506884 26.1268657,19.836796 C26.2228145,21.3627034 27.4701493,22.5071339 29.1012793,22.5071339 L40.9029851,22.5071339 L40.9029851,28.2292866 C40.9029851,33.6653317 36.489339,37.9569462 31.1162047,37.9569462 C25.6471215,37.9569462 21.3294243,33.5699625 21.3294243,28.2292866 L21.3294243,24.0330413 C21.3294243,20.9812265 18.8347548,18.5969962 15.8603412,18.5969962 C12.7899787,18.5969962 10.391258,21.0765957 10.391258,24.0330413 L10.391258,28.7061327 L8.56823028,28.7061327 C6.84115139,28.7061327 5.4978678,30.1366708 5.4978678,31.7579474 L5.4978678,40.8180225 C5.4978678,42.5346683 6.93710021,43.8698373 8.56823028,43.8698373 L13.4616205,43.8698373 C15.1886994,43.8698373 16.5319829,42.4392991 16.5319829,40.8180225 L16.5319829,31.7579474 C16.5319829,30.0413016 15.0927505,28.7061327 13.4616205,28.7061327 L11.7345416,28.7061327 L11.7345416,24.0330413 C11.7345416,21.8395494 13.5575693,20.0275344 15.7643923,20.0275344 C17.9712154,20.0275344 19.7942431,21.8395494 19.7942431,24.0330413 L19.7942431,28.2292866 C19.7942431,34.4282854 24.8795309,39.3874844 31.0202559,39.3874844 C37.2569296,39.3874844 42.2462687,34.3329161 42.2462687,28.2292866 L42.2462687,22.5071339 L54.3358209,22.5071339 C55.966951,22.5071339 57.3102345,21.171965 57.3102345,19.5506884 L57.3102345,9.63229036 L60.0927505,9.63229036 C60.7643923,9.63229036 61.2441365,10.2045056 61.2441365,10.7767209 L61.2441365,46.0633292 L1.56396588,46.0633292 L1.56396588,10.7767209 C1.56396588,10.1091364 2.04371002,9.63229036 2.71535181,9.63229036 Z M13.4616205,30.1366708 C14.4211087,30.1366708 15.0927505,30.8996245 15.0927505,31.7579474 L15.0927505,40.8180225 C15.0927505,41.7717146 14.3251599,42.4392991 13.4616205,42.4392991 L8.56823028,42.4392991 C7.608742,42.4392991 6.93710021,41.6763454 6.93710021,40.8180225 L6.93710021,31.7579474 C6.93710021,30.8042553 7.70469083,30.1366708 8.56823028,30.1366708 L13.4616205,30.1366708 Z M41.3827292,58.2705882 L21.6172708,58.2705882 L25.2633262,52.8345432 L37.7366738,52.8345432 L41.3827292,58.2705882 Z M60.2846482,51.404005 L2.71535181,51.404005 C2.04371002,51.404005 1.56396588,50.8317897 1.56396588,50.2595745 L1.56396588,47.4938673 L61.4360341,47.4938673 L61.4360341,50.2595745 C61.4360341,50.9271589 60.95629,51.404005 60.2846482,51.404005 Z" stroke="#F2F2F2"></path>
                                        <path d="M29.5810235,15.5451815 L29.5810235,16.212766 L48.3869936,16.212766 L48.3869936,15.5451815 C48.3869936,14.4007509 49.3464819,13.4470588 50.4978678,13.4470588 L51.1695096,13.4470588 L51.1695096,6.77121402 L50.4978678,6.77121402 C49.3464819,6.77121402 48.3869936,5.8175219 48.3869936,4.67309136 L48.3869936,3.91013767 L29.5810235,3.91013767 L29.5810235,4.57772215 C29.5810235,5.72215269 28.6215352,6.67584481 27.4701493,6.67584481 L26.7985075,6.67584481 L26.7985075,13.2563204 L27.4701493,13.2563204 C28.6215352,13.4470588 29.5810235,14.4007509 29.5810235,15.5451815 Z M28.141791,8.20175219 C29.5810235,7.91564456 30.6364606,6.77121402 30.924307,5.43604506 L47.04371,5.43604506 C47.3315565,6.86658323 48.4829424,7.91564456 49.826226,8.20175219 L49.826226,12.1118899 C48.3869936,12.3979975 47.3315565,13.542428 47.04371,14.877597 L30.924307,14.877597 C30.6364606,13.4470588 29.4850746,12.3979975 28.141791,12.1118899 L28.141791,8.20175219 Z" stroke="#FFFFFF"></path>
                                    </g>
                                </g>
                            </g>
                            <path d="M65.3385062,37.8788761 L64.8347451,37.0812216 L66.2479121,37.0812216 C66.3943444,37.0876103 67.4139981,37.1546247 67.7782328,37.8530617 L65.3297197,37.8530617 L64.8244942,38.5554081 L67.9027086,38.5554081 C67.9020066,38.5690733 67.9010123,38.5805374 67.8997802,38.5938526 C67.8997802,38.5938526 67.8854129,40.1320603 65.1100568,39.8654646 L65.1100568,40.1981621 L65.1129852,40.5589396 L68.1062633,43.8488762 L69.2455834,43.8488762 L69.2455834,43.7024953 L66.3738523,40.4391766 L66.3738523,40.3933396 C66.3738523,40.3933396 68.6340925,40.426479 69.0083471,38.5672373 L69.9587546,38.5554081 L70.4625157,37.8530617 L68.9688054,37.8530617 C68.9125528,37.5956955 68.7976601,37.3117857 68.571947,37.0812216 L69.97047,37.0812216 L70.4742311,36.3788761 L65.3385039,36.3788761 L65.3385062,37.8788761 Z" id="Shape" fill="#046567"></path>
                        </g>
                    </g>
                </g>
            </g>
        </g>
    </g>
</svg>