<?xml version="1.0" encoding="UTF-8"?>
<svg width="125px" height="124px" viewBox="0 0 125 124" version="1.1" xmlns="http://www.w3.org/2000/svg" xmlns:xlink="http://www.w3.org/1999/xlink">
    <!-- Generator: Sketch 41.2 (35397) - http://www.bohemiancoding.com/sketch -->
    <title>Group 27</title>
    <desc>Created with Sketch.</desc>
    <defs>
        <rect id="path-1" x="0" y="0" width="125" height="123.820755"></rect>
    </defs>
    <g id="Page-1" stroke="none" stroke-width="1" fill="none" fill-rule="evenodd">
        <g id="FINANCIAL-SOLUTIONS" transform="translate(-448.000000, -2693.000000)">
            <g id="Group-27" transform="translate(448.000000, 2693.000000)">
                <g id="10256567-falling-dollar-note-and-graph-of-stock-market-with-stock-board-Stock-Photo-Copy-5">
                    <mask id="mask-2" fill="white">
                        <use xlink:href="#path-1"></use>
                    </mask>
                    <use id="Mask" fill="#000000" opacity="0.02" xlink:href="#path-1"></use>
                </g>
                <g id="Group-16-Copy" transform="translate(3.000000, 2.000000)">
                    <g id="Group-18-Copy">
                        <g id="noun_763916_cc-copy-2" transform="translate(13.500000, 19.500000)">
                            <g id="Group">
                                <g transform="translate(1.002013, 0.000000)"></g>
                            </g>
                        </g>
                        <circle id="Oval-3-Copy-2" cx="60" cy="60" r="60"></circle>
                        <g id="Group-13" transform="translate(25.500000, 19.500000)" fill="#046567">
                            <g id="Group-5">
                                <g id="noun_715589_cc" stroke="#FAFAFA" stroke-width="1.5">
                                    <g id="Group" transform="translate(-0.000000, 0.000000)">
                                        <g transform="translate(-0.000000, 0.089031)" id="Shape">
                                            <path d="M52.2744824,63.6480822 C51.819138,63.6825722 51.4153335,63.9548134 51.2111227,64.3649894 C51.006912,64.7751653 51.0323374,65.2629333 51.2780767,65.6494543 L53.8840582,69.8059986 L49.5343693,72.865744 L48.3080251,70.8067339 C48.0684378,70.4079818 47.6352232,70.167884 47.1715691,70.1768831 C46.707915,70.1858821 46.2842614,70.4426109 46.0601946,70.850362 C45.8361278,71.2581132 45.8456889,71.7549397 46.0852762,72.1536918 L48.0206004,75.4058599 C48.204728,75.7174327 48.509671,75.93799 48.8622803,76.014625 C49.2148897,76.0912601 49.5833508,76.0170583 49.8792781,75.8098192 L56.3750703,71.2298073 C56.9390067,70.835012 57.0986553,70.0671239 56.7391376,69.478693 L53.4816603,64.2636768 C53.226184,63.8472075 52.760046,63.6094274 52.2744785,63.6478852 L52.2744824,63.6480822 Z"></path>
                                            <path d="M39.2254128,68.2087829 C38.7951626,68.2646907 38.4211701,68.5327717 38.2286975,68.9232369 C38.0362249,69.3137022 38.0507222,69.7749217 38.2673339,70.1524183 L41.1990628,75.3674345 C41.3768626,75.6796969 41.6752438,75.9042961 42.0235754,75.9880662 C42.371907,76.0718364 42.7392246,76.0073309 43.0385791,75.8098192 L44.8780954,74.5974486 C45.476008,74.193589 45.6347118,73.3794214 45.2325702,72.7789543 C44.8304285,72.1784873 44.0197243,72.0191056 43.4218116,72.4229652 L42.7703187,72.8653499 L40.5284075,68.881917 C40.273992,68.4089503 39.7565659,68.1413313 39.2254168,68.2079946 L39.2254128,68.2087829 Z"></path>
                                            <path d="M51.5655014,16.0974407 C49.3009195,16.3880944 47.2549143,17.3987808 45.4912655,18.5606072 C44.7199833,19.0690048 43.9935294,19.801452 43.3834869,20.446506 C42.7734444,21.0918557 42.3104357,21.6395654 42.3104357,21.6395654 C41.8450041,22.1922346 41.9137127,23.0191571 42.4639147,23.4867151 C43.0141167,23.9542731 43.8375386,23.8854774 44.3032451,23.3330416 C44.3032451,23.3330416 44.724666,22.8433641 45.2804844,22.255357 C45.8363028,21.6681381 46.5530108,20.9698797 46.9092235,20.7350906 C48.4765591,19.7026298 50.2039895,18.8923465 51.8912459,18.6760805 C52.8306452,18.5558779 54.4065446,18.6268171 55.5511171,18.9066329 C56.1234078,19.0494965 56.5860447,19.2573878 56.7966227,19.4071483 C57.0072007,19.5569088 56.9080631,19.4859696 56.9115949,19.4071483 C56.8722538,20.2682713 56.3607898,21.142794 55.4169874,22.2743727 C54.4731831,23.4060499 53.1568694,24.7140898 51.9678954,26.4118027 C51.7009159,26.7933671 51.6569131,27.2889875 51.8524622,27.7119683 C52.0480113,28.1349492 52.4534039,28.4210297 52.9159324,28.462446 C53.3784609,28.5038624 53.8278562,28.2943224 54.0948353,27.9127579 C55.1252382,26.4415578 56.3531629,25.215492 57.4097968,23.9486362 C58.4664316,22.6816819 59.4177323,21.2917663 59.498415,19.5226215 C59.5425634,18.5541045 58.9273408,17.7238203 58.2912322,17.2710903 C57.6551225,16.8178676 56.9324418,16.5774626 56.1642912,16.3863209 C54.62799,16.0040374 52.920704,15.9242308 51.5655004,16.0976378 L51.5655014,16.0974407 Z"></path>
                                            <path d="M33.7116869,19.8786969 C17.7029779,19.8097282 4.54275542,31.1880797 4.54286629,45.3667559 C4.5429487,59.5453336 17.717333,70.8640764 33.7260263,70.864372 L33.7451573,70.864372 C45.6199532,70.834814 56.0779752,64.4112698 60.533113,54.7384148 C60.7760665,54.7088568 61.0636393,54.8073835 61.2804177,54.7384148 C61.8085208,54.5807722 62.2920575,54.3383966 62.7750242,54.0457724 C63.7409616,53.4595388 64.6595346,52.6835428 65.3235215,51.9098129 C67.3212205,49.5821205 68.0718511,46.6632682 68.4660285,43.6735752 C68.5608004,42.9543306 68.3045435,42.285039 67.9678287,41.7876764 C67.6311138,41.2901168 67.2051014,40.9265534 66.7414845,40.5946171 C65.8142505,39.9305474 64.7213218,39.4676691 63.7139477,39.2090366 L63.6948167,39.1893313 C63.6948167,39.1893313 62.9411154,39.0169096 62.1618865,38.6700958 C61.3826575,38.3232819 60.7943959,37.7380336 60.7630878,37.6309351 C58.6714725,30.4440063 53.8970947,25.9594668 48.710424,23.3522543 C43.6567017,21.6359199 38.7516506,19.901161 33.7116869,19.8786969 Z M33.7068953,22.4670908 L33.7260263,22.4670908 C37.5835901,22.5459121 42.8637789,23.3193464 47.5607214,25.6807349 C52.2638387,28.0448821 56.3927944,31.9048611 58.2720718,38.3622 C58.7285367,39.9301533 60.0653775,40.5918583 61.1079927,41.0562145 C62.1416027,41.516334 63.0653745,41.7261958 63.0816397,41.7301368 C63.7703644,41.9074848 64.6475184,42.2966651 65.2277421,42.7114624 C65.5178559,42.9193536 65.7323778,43.1380828 65.8217538,43.2691233 C65.9111297,43.401149 65.8729659,43.3932669 65.8792448,43.3479446 C65.5130682,46.1252141 64.8518166,48.4678825 63.3499099,50.2178146 C62.9224848,50.7163595 62.136147,51.3889025 61.433747,51.8150303 C61.0825515,52.0278479 60.7491134,52.1736673 60.5331493,52.2386949 C60.3171852,52.3076636 60.2704271,52.2383008 60.4565273,52.3175162 C59.7897296,52.0367152 59.0227573,52.3569269 58.7511426,53.029864 C55.0152263,62.0744144 45.0212254,68.2230692 33.7260567,68.2514449 C18.9292318,68.2511493 7.14895073,57.9186584 7.14887813,45.370894 C7.14878003,32.8287456 18.9193239,22.4804904 33.7068943,22.4712289 L33.7068953,22.4670908 Z"></path>
                                            <path d="M48.4996409,31.0688624 C46.3646325,31.0688624 44.5906962,32.8312088 44.5906687,34.975346 C44.5906962,37.1194832 46.3646325,38.8817311 48.4996409,38.8817311 C50.6346493,38.8817311 52.3894242,37.1194832 52.3894517,34.975346 C52.3894242,32.8312088 50.6346493,31.0688624 48.4996409,31.0688624 L48.4996409,31.0688624 Z M48.4996409,33.6667149 C49.2318076,33.6667149 49.7834614,34.2401401 49.7834702,34.975346 C49.7834614,35.7103549 49.2318116,36.2838786 48.4996409,36.2838786 C47.7674742,36.2838786 47.19666,35.7104534 47.1966502,34.975346 C47.19666,34.2403371 47.7674791,33.6667149 48.4996409,33.6667149 Z"></path>
                                            <path d="M24.7200605,26.4697364 C24.2819298,26.6244252 23.9592547,27.0021022 23.873584,27.4605 C23.7879134,27.9188978 23.9522625,28.3883749 24.3047226,28.6920836 C24.6571828,28.9957923 25.1442068,29.0875922 25.5823375,28.9329029 C29.8938468,27.4114542 34.6533005,27.4430813 38.9379931,29.0314296 C39.3764842,29.2095759 39.8767563,29.1340693 40.2437354,28.8343525 C40.6107145,28.5346357 40.7862941,28.0581651 40.7020094,27.5907336 C40.6177246,27.1233021 40.2869211,26.7389216 39.8385908,26.5874758 C34.9811866,24.7894627 29.6067175,24.7476874 24.7200664,26.4721996 L24.7200605,26.4697364 Z"></path>
                                            <path d="M15.1967316,63.6480822 C14.8211298,63.7107587 14.491871,63.9358923 14.2961338,64.2638739 L11.0578189,69.47889 C10.6943869,70.0624968 10.8454203,70.8293028 11.4027257,71.2300044 L17.898518,75.8100162 C18.1944453,76.0172554 18.5629064,76.0914571 18.9155157,76.0148221 C19.2681251,75.938187 19.5730681,75.7176297 19.7571956,75.4060569 L21.6925198,72.1538889 C21.9321503,71.755135 21.9417376,71.2582805 21.7176699,70.8505025 C21.4936021,70.4427246 21.0699243,70.185981 20.6062462,70.1769934 C20.142568,70.1680058 19.7093409,70.4081397 19.469772,70.8069309 L18.2434278,72.8659411 L13.9128993,69.8061956 L16.4997193,65.6496514 C16.7839385,65.2159661 16.7847976,64.6542479 16.5019063,64.2196879 C16.2190151,63.7851279 15.7063164,63.5605898 15.1967316,63.6480822 L15.1967316,63.6480822 Z"></path>
                                            <path d="M28.2458001,68.2087829 C27.8239115,68.2562678 27.4518073,68.507942 27.2493955,68.8827052 L25.0074852,72.8661381 L24.3559923,72.4237534 C23.7580796,72.0198938 22.9473754,72.1792755 22.5452338,72.7797426 C22.1430921,73.3802096 22.3017959,74.1943772 22.8997086,74.5982368 L24.7392249,75.8106074 C25.0385793,76.0081191 25.4058969,76.0726246 25.7542285,75.9888545 C26.1025602,75.9050843 26.4009414,75.6804851 26.5787412,75.3682227 L29.51047,70.1532065 C29.7531308,69.7281091 29.7379218,69.2022579 29.471101,68.7920223 C29.2042802,68.3817866 28.7309233,68.1564702 28.2458001,68.2087829 L28.2458001,68.2087829 Z"></path>
                                            <path d="M26.0996978,2.72323468 C23.0661725,5.76958052 23.0661725,10.7419255 26.0996978,13.7882713 C29.1331161,16.8345187 34.1033773,16.8345187 37.1367956,13.7882713 C40.1703209,10.7419255 40.1703209,5.76958052 37.1367956,2.72323468 C34.1033773,-0.323111147 29.1331161,-0.323111147 26.0996978,2.72323468 Z M27.9392141,4.57060958 C29.980622,2.52056534 33.2558714,2.52056534 35.2972793,4.57060958 C37.3387598,6.62065381 37.3387598,9.91006492 35.2972793,11.9601092 C33.2558714,14.0101534 29.980622,14.0101534 27.9392141,11.9601092 C25.8977336,9.91006492 25.8977336,6.62065381 27.9392141,4.57060958 Z"></path>
                                            <path d="M55.5894438,13.1531685 C53.2252739,11.981785 50.0591112,12.2378558 47.5798827,13.3265754 C45.4877847,14.2448439 43.8114604,15.8123045 42.4445664,17.4254816 C41.8466304,18.1309325 41.3738227,19.0394468 40.9691213,19.8309115 C40.5644179,20.6220806 40.2601373,21.27413 40.2601373,21.27413 C39.9691188,21.9330589 40.2650969,22.7041512 40.9212227,22.996413 C41.5773486,23.2886747 42.3451607,22.9914323 42.6361792,22.3325034 C42.6361792,22.3325034 42.8997942,21.7452845 43.2685117,21.0239708 C43.6372293,20.3027556 44.1422378,19.4445884 44.4182094,19.1188593 C45.6330613,17.6851978 47.0753412,16.3966662 48.6337676,15.7127926 C50.3940935,14.9393583 53.2086231,14.8910803 54.4397412,15.5009603 C55.0852603,15.8196667 55.8658223,15.5525616 56.1832691,14.9043323 C56.5007159,14.256103 56.2348634,13.4721666 55.5894389,13.153267 L55.5894438,13.1531685 Z"></path>
                                            <path d="M1.57281367,23.9103093 C0.982232265,24.0000373 0.528861867,24.4829352 0.474375476,25.0802876 C0.419889084,25.6776399 0.778354025,26.2352219 1.34287413,26.4312125 C1.34287413,26.4312125 1.92525813,26.6519122 2.56921833,26.9701533 C3.21317658,27.2883944 3.88977325,27.8135415 3.92969418,27.8746281 C4.01750043,28.0076391 4.05419265,28.5268746 3.9871852,29.3756817 C3.92017775,30.2239963 3.76423582,31.4715409 4.65783851,32.5508019 C5.42929731,33.4838494 6.47341559,33.8075095 7.3787902,34.0325444 C8.28416579,34.2581704 9.05615241,34.3212275 9.54405394,34.3212275 C10.0322123,34.3626557 10.5020105,34.1245387 10.7587839,33.7055421 C11.0155573,33.2865455 11.0155573,32.7580571 10.7587839,32.3390605 C10.5020105,31.9200639 10.0322123,31.6819468 9.54405394,31.723375 C9.3860027,31.723375 8.64480027,31.6741117 7.99196231,31.5115427 C7.33911551,31.3489737 6.75173294,31.0179241 6.65064784,30.8957511 C6.56872805,30.7972244 6.50955939,30.4031178 6.57402585,29.5872185 C6.63848251,28.7714177 6.84936466,27.5958961 6.09498638,26.4505237 C5.44043251,25.4568823 4.51622813,25.0168623 3.71894448,24.62246 C2.92166377,24.2283534 2.22433748,23.9869631 2.22433748,23.9869631 C2.01727988,23.9058127 1.79294133,23.8794186 1.57281367,23.9103093 L1.57281367,23.9103093 Z"></path>
                                        </g>
                                    </g>
                                </g>
                                <path d="M26.3671334,37.2648421 L24.9019086,39.3076636 L29.0122047,39.3076636 C29.4381133,39.3262455 32.4038481,39.5211617 33.4632506,41.5526151 L26.3415771,41.5526151 L24.872093,43.5954392 L33.8252973,43.5954392 C33.8232553,43.6351853 33.8203633,43.6685296 33.8167796,43.7072577 C33.8167796,43.7072577 33.7749914,48.1812436 25.7026719,47.4058311 L25.7026719,48.3735052 L25.7111896,49.4228519 L34.4173503,58.991865 L37.7311435,58.991865 L37.7311435,58.5661059 L29.3785107,49.074513 L29.3785107,48.9411926 C29.3785107,48.9411926 35.9525788,49.0375812 37.0411248,43.6298453 C37.0411248,43.6298453 37.0407164,43.6192529 37.0453772,43.5954392 L39.8054523,43.5954392 L41.270677,41.5526151 L36.9261149,41.5526151 C36.7625004,40.8040471 36.4283269,39.9782755 35.7718243,39.3076636 L39.8395272,39.3076636 L41.3047519,37.2648421 L26.3671265,37.2648421 L26.3671334,37.2648421 Z" id="Shape" stroke="#F5F5F5" stroke-width="1.4"></path>
                            </g>
                        </g>
                    </g>
                </g>
            </g>
        </g>
    </g>
</svg>