<?xml version="1.0" encoding="UTF-8"?>
<svg width="125px" height="124px" viewBox="0 0 125 124" version="1.1" xmlns="http://www.w3.org/2000/svg" xmlns:xlink="http://www.w3.org/1999/xlink">
    <!-- Generator: Sketch 41.2 (35397) - http://www.bohemiancoding.com/sketch -->
    <title>Group 34</title>
    <desc>Created with Sketch.</desc>
    <defs>
        <rect id="path-1" x="0" y="0" width="125" height="123.820755"></rect>
    </defs>
    <g id="Page-1" stroke="none" stroke-width="1" fill="none" fill-rule="evenodd">
        <g id="FINANCIAL-SOLUTIONS" transform="translate(-847.000000, -3852.000000)">
            <g id="Group-34" transform="translate(847.000000, 3852.000000)">
                <g id="Bitmap-Copy-8">
                    <mask id="mask-2" fill="white">
                        <use xlink:href="#path-1"></use>
                    </mask>
                    <use id="Mask" fill="#000000" opacity="0.02" xlink:href="#path-1"></use>
                </g>
                <g id="Group-22-Copy-2" transform="translate(3.000000, 2.000000)">
                    <g id="Group-23-Copy">
                        <g id="Group-9-Copy-4">
                            <circle id="Oval-3" cx="60" cy="60" r="60"></circle>
                        </g>
                        <g id="Group-16" transform="translate(27.000000, 27.000000)" stroke="#F2F2F2" fill="#046567">
                            <path d="M21.7793688,52.4 L21.7793688,32.0441412 C28.3951113,29.8813569 33.1876096,23.7084314 33.1876096,16.4392157 C33.1876096,7.37504314 25.7432139,0 16.5938048,0 C7.44439568,0 0,7.37504314 0,16.4392157 C0,23.7084314 4.79249825,29.8813569 11.4082408,32.0441412 L11.4082408,52.4 C11.4082408,55.2326824 13.7344848,57.5372549 16.5938048,57.5372549 C19.4531248,57.5372549 21.7793688,55.2326824 21.7793688,52.4 Z M2.0742256,16.4392157 C2.0742256,8.50729412 8.58729398,2.05490196 16.5938048,2.05490196 C24.6003156,2.05490196 31.113384,8.50729412 31.113384,16.4392157 C31.113384,24.3711373 24.6003156,30.8235294 16.5938048,30.8235294 C8.58729398,30.8235294 2.0742256,24.3711373 2.0742256,16.4392157 Z M13.4824664,52.4 L13.4824664,32.5784157 C14.4915771,32.7695216 15.5297271,32.8784314 16.5938048,32.8784314 C17.6578825,32.8784314 18.6960324,32.7695216 19.7051432,32.5784157 L19.7051432,52.4 C19.7051432,54.0994039 18.3091894,55.4823529 16.5938048,55.4823529 C14.8784202,55.4823529 13.4824664,54.0994039 13.4824664,52.4 Z" id="Shape"></path>
                            <rect id="Rectangle-path" stroke-width="0.75" x="15.7752809" y="41.1683168" width="2.0742256" height="2.05490196"></rect>
                            <rect id="Rectangle-path" stroke-width="0.75" x="15.7752809" y="45.0891089" width="2.0742256" height="2.05490196"></rect>
                            <rect id="Rectangle-path" stroke-width="0.75" x="15.7752809" y="49.009901" width="2.0742256" height="2.05490196"></rect>
                            <path d="M33.4061985,5.88118812 L33.4061985,7.93609008 L56.2226801,7.93609008 L56.2226801,54.1713842 L46.8886649,54.1713842 L46.8886649,63.418443 L17.8495065,63.418443 L17.8495065,59.3086391 L15.7752809,59.3086391 L15.7752809,65.473345 L48.3551424,65.473345 L58.2969057,55.6241999 L58.2969057,5.88118812 L33.4061985,5.88118812 Z M54.7562026,56.2262862 L48.9628905,61.9656273 L48.9628905,56.2262862 L54.7562026,56.2262862 Z" id="Shape"></path>
                            <path d="M30.5429015,33.980198 L24.3202247,33.980198 L24.3202247,40.1449039 L30.5429015,40.1449039 L30.5429015,33.980198 Z M28.4686759,38.0900019 L26.3944503,38.0900019 L26.3944503,36.0351 L28.4686759,36.0351 L28.4686759,38.0900019 Z" id="Shape"></path>
                            <path d="M30.5429015,41.8217822 L24.3202247,41.8217822 L24.3202247,47.9864881 L30.5429015,47.9864881 L30.5429015,41.8217822 Z M28.4686759,45.9315861 L26.3944503,45.9315861 L26.3944503,43.8766841 L28.4686759,43.8766841 L28.4686759,45.9315861 Z" id="Shape"></path>
                            <path d="M24.3202247,56.4815376 L30.5429015,56.4815376 L30.5429015,50.3168317 L24.3202247,50.3168317 L24.3202247,56.4815376 Z M26.3944503,52.3717336 L28.4686759,52.3717336 L28.4686759,54.4266356 L26.3944503,54.4266356 L26.3944503,52.3717336 Z" id="Shape"></path>
                            <rect id="Rectangle-path" x="32.2078652" y="33.980198" width="19.7051432" height="2.05490196"></rect>
                            <rect id="Rectangle-path" x="32.2078652" y="37.9009901" width="19.7051432" height="2.05490196"></rect>
                            <rect id="Rectangle-path" x="32.2078652" y="41.8217822" width="19.7051432" height="2.05490196"></rect>
                            <rect id="Rectangle-path" x="32.2078652" y="46.3960396" width="19.7051432" height="2.05490196"></rect>
                            <rect id="Rectangle-path" x="32.2078652" y="54.2376238" width="10.371128" height="2.05490196"></rect>
                            <rect id="Rectangle-path" x="32.2078652" y="50.3168317" width="19.7051432" height="2.05490196"></rect>
                            <polygon id="Shape" points="32.2078652 27.9180742 32.2078652 29.9729761 51.9130084 29.9729761 51.9130084 17.6435644 35.3192036 17.6435644 35.3192036 19.6984663 49.8387828 19.6984663 49.8387828 27.9180742"></polygon>
                            <rect id="Rectangle-path" stroke-width="0.75" x="49.9550562" y="13.0693069" width="2.0742256" height="2.05490196"></rect>
                            <rect id="Rectangle-path" stroke-width="0.75" x="46.011236" y="13.0693069" width="2.0742256" height="2.05490196"></rect>
                            <rect id="Rectangle-path" stroke-width="0.75" x="41.4101124" y="13.0693069" width="2.0742256" height="2.05490196"></rect>
                            <g id="noun_712459_cc" transform="translate(5.915730, 5.227723)" stroke-width="0.3">
                                <g id="Group">
                                    <g transform="translate(0.000000, 0.000000)">
                                        <polygon id="Shape" points="14.3930705 4.41946897 15.7869891 1.22110584 15.1370722 0.946724027 14.4874264 0.67260912 13.0937789 3.87070534 13.7434247 4.14508716"></polygon>
                                        <rect id="Rectangle-path" transform="translate(10.864082, 1.799682) rotate(0.716232) translate(-10.864082, -1.799682) " x="10.1570957" y="0.0590734435" width="1.41395187" height="3.48014227"></rect>
                                        <polygon id="Shape" points="8.58286201 3.8151884 7.27082697 0.583461721 6.61440274 0.841829034 5.95770737 1.10019635 7.26974242 4.33165611"></polygon>
                                        <polygon id="Shape" points="5.94604846 5.17909022 3.47788251 2.68750049 2.9713974 3.17354065 2.46518343 3.6593139 4.93362051 6.15090364"></polygon>
                                        <polygon id="Shape" points="16.6822856 6.29556798 19.2130843 3.86563408 18.7196138 3.36758304 18.2258722 2.8692651 15.6948023 5.299199"></polygon>
                                        <path d="M16.2904917,12.6095526 L14.4391639,6.73009483 L7.25184733,6.73009483 L5.40051952,12.6095526 L2.04193757,12.6095526 L0.106014817,18.7572534 L10.5255632,18.7572534 L11.1651769,18.7572534 L21.5847253,18.7572534 L19.6488025,12.6095526 L16.2904917,12.6095526 L16.2904917,12.6095526 Z M8.2507184,8.06463673 L13.4402928,8.06463673 L14.5356889,11.5432537 L7.15532233,11.5432537 L8.2507184,8.06463673 Z M1.94541257,17.4227115 L3.04080864,13.9440945 L8.23038308,13.9440945 L9.32577914,17.4227115 L1.94541257,17.4227115 Z M10.8455056,17.7414001 L9.31412022,12.8777956 L12.3771621,12.8777956 L10.8455056,17.7414001 Z M12.364961,17.4227115 L13.460357,13.9440945 L18.6499315,13.9440945 L19.7453275,17.4227115 L12.364961,17.4227115 Z" id="Shape"></path>
                                    </g>
                                </g>
                            </g>
                        </g>
                    </g>
                </g>
            </g>
        </g>
    </g>
</svg>