<?xml version="1.0" encoding="UTF-8"?>
<svg width="125px" height="124px" viewBox="0 0 125 124" version="1.1" xmlns="http://www.w3.org/2000/svg" xmlns:xlink="http://www.w3.org/1999/xlink">
    <!-- Generator: Sketch 41.2 (35397) - http://www.bohemiancoding.com/sketch -->
    <title>Group 29</title>
    <desc>Created with Sketch.</desc>
    <defs>
        <rect id="path-1" x="0" y="0" width="125" height="123.820755"></rect>
    </defs>
    <g id="Page-1" stroke="none" stroke-width="1" fill="none" fill-rule="evenodd">
        <g id="FINANCIAL-SOLUTIONS" transform="translate(-847.000000, -2693.000000)">
            <g id="Group-29" transform="translate(847.000000, 2693.000000)">
                <g id="Bitmap-Copy-7">
                    <mask id="mask-2" fill="white">
                        <use xlink:href="#path-1"></use>
                    </mask>
                    <use id="Mask" fill="#000000" opacity="0.02" xlink:href="#path-1"></use>
                </g>
                <g id="Group-17-Copy-2" transform="translate(3.000000, 2.000000)">
                    <g id="Group-19-Copy">
                        <g id="Group-9-Copy-3">
                            <circle id="Oval-3" cx="60" cy="60" r="60"></circle>
                        </g>
                        <g id="noun_981271_cc" transform="translate(34.500000, 31.500000)" stroke-width="0.4" stroke="#FFFFFF" fill="#046567">
                            <g id="Group">
                                <g>
                                    <path d="M45,42.12 C44.01,42.48 43.02,42.66 42.03,42.66 C37.44,42.66 33.66,38.88 33.66,34.29 C33.66,31.68 34.92,29.16 37.08,27.54 L37.53,27.18 L33.66,20.07 L33.03,20.43 C28.35,23.49 25.56,28.62 25.56,34.2 C25.56,43.29 32.94,50.67 42.03,50.67 C43.02,50.67 44.1,50.58 45.09,50.4 L45.09,56.7 L1.35,56.7 L1.35,1.8 L37.62,1.8 L37.62,9.18 L45,9.18 L45,18.09 C44.01,17.91 43.02,17.82 41.94,17.82 C39.6,17.82 37.35,18.27 35.19,19.26 L34.56,19.53 L38.43,26.64 L38.97,26.46 C41.94,25.29 45.27,26.01 47.52,28.08 L47.97,28.44 L54.18,23.22 L53.64,22.68 C51.57,20.61 49.05,19.17 46.35,18.45 L46.35,8.28 L38.52,0.45 L0,0.45 L0,57.96 L46.44,57.96 L46.44,50.13 C47.25,49.86 48.06,49.68 48.87,49.32 L49.5,49.05 L45.63,41.94 L45,42.12 Z M48.06,26.73 C46.35,25.38 44.19,24.57 42.03,24.57 C41.04,24.57 40.05,24.75 39.15,25.02 L36.54,20.16 C38.34,19.44 40.14,19.08 42.12,19.08 C45.9,19.08 49.59,20.52 52.38,23.04 L48.06,26.73 Z M38.97,2.79 L44.1,7.92 L38.97,7.92 L38.97,2.79 Z M42.03,49.5 C33.66,49.5 26.91,42.75 26.91,34.38 C26.91,29.52 29.25,24.93 33.21,22.14 L35.82,27 C33.66,28.8 32.31,31.59 32.31,34.47 C32.31,39.87 36.63,44.19 42.03,44.19 C43.02,44.19 44.01,44.01 44.91,43.74 L47.52,48.6 C45.81,49.14 43.92,49.5 42.03,49.5 Z" id="Shape"></path>
                                    <path d="M55.35,24.66 L54.9,24.03 L48.69,29.25 L49.05,29.7 C49.95,31.05 50.4,32.58 50.4,34.2 C50.4,36.81 49.14,39.33 46.98,40.95 L46.53,41.4 L50.4,48.51 L51.03,48.15 C55.71,45.09 58.5,39.96 58.5,34.38 C58.5,30.87 57.42,27.45 55.35,24.66 Z M50.85,46.62 L48.24,41.76 C50.4,39.96 51.75,37.17 51.75,34.29 C51.75,32.67 51.3,30.96 50.49,29.52 L54.63,25.92 C56.25,28.35 57.15,31.23 57.15,34.2 C57.15,39.24 54.81,43.74 50.85,46.62 Z" id="Shape"></path>
                                    <rect id="Rectangle-path" x="4.23" y="45.63" width="20.88" height="1.35"></rect>
                                    <rect id="Rectangle-path" x="4.23" y="40.59" width="15.3" height="1.35"></rect>
                                    <rect id="Rectangle-path" x="4.23" y="50.58" width="26.73" height="1.35"></rect>
                                    <polygon id="Shape" points="23.04 12.78 21.69 12.78 21.69 20.43 17.91 20.43 17.91 5.22 16.56 5.22 16.56 20.43 12.87 20.43 12.87 9.99 11.52 9.99 11.52 20.43 7.74 20.43 7.74 14.76 6.39 14.76 6.39 20.43 4.23 20.43 4.23 21.78 25.2 21.78 25.2 20.43 23.04 20.43"></polygon>
                                </g>
                            </g>
                        </g>
                    </g>
                </g>
            </g>
        </g>
    </g>
</svg>