<?xml version="1.0" encoding="UTF-8"?>
<svg width="125px" height="124px" viewBox="0 0 125 124" version="1.1" xmlns="http://www.w3.org/2000/svg" xmlns:xlink="http://www.w3.org/1999/xlink">
    <!-- Generator: Sketch 41.2 (35397) - http://www.bohemiancoding.com/sketch -->
    <title>Group 21</title>
    <desc>Created with Sketch.</desc>
    <defs>
        <rect id="path-1" x="0" y="0" width="125" height="123.820755"></rect>
    </defs>
    <g id="Page-1" stroke="none" stroke-width="1" fill="none" fill-rule="evenodd">
        <g id="Selfie_demo_video" transform="translate(-536.000000, -2691.000000)">
            <g id="Group-21" transform="translate(536.000000, 2691.000000)">
                <g id="Bitmap">
                    <mask id="mask-2" fill="white">
                        <use xlink:href="#path-1"></use>
                    </mask>
                    <use id="Mask" fill="#000000" opacity="0.02" xlink:href="#path-1"></use>
                    <g id="noun_168747_cc" mask="url(#mask-2)">
                        <g transform="translate(37.000000, 29.000000)" id="Group">
                            <g>
                                <g id="Shape" stroke="#FAFAFA" stroke-width="0.5" fill="#046567">
                                    <path d="M7.04746883,0.21128662 L7.04746883,3.73672579 L3.59021997,3.73672579 L3.59021997,7.35030094 L0.0443237033,7.35030094 L0.0443237033,65.1675315 L44.0134374,65.1675315 L44.0134374,61.5539564 L47.5593336,61.5539564 L47.5593336,58.0285172 L51.0165825,58.0285172 L51.0165825,11.2007362 L39.9633856,0.21128662 L7.04746883,0.21128662 L7.04746883,0.21128662 Z M8.46582733,1.62146229 L38.9605352,1.62146229 L38.9605352,6.17698543 L36.5061367,3.73672579 L8.46582733,3.73672579 L8.46582733,1.62146229 L8.46582733,1.62146229 Z M40.3788937,2.61849879 L48.5940262,10.7876041 L43.5979293,10.7876041 L40.3788937,7.5871611 L40.3788937,2.61849879 Z M5.00857847,5.14690146 L35.5032863,5.14690146 L35.5032863,9.87869656 L32.9602405,7.35030094 L5.00857847,7.35030094 L5.00857847,5.14690146 Z M36.9216449,6.14393796 L45.1367773,14.3130433 L39.9633856,14.3130433 L36.9216449,11.2888722 L36.9216449,6.14393796 Z M1.46268221,8.76047661 L31.9573901,8.76047661 L31.9573901,19.3367941 L42.5950789,19.3367941 L42.5950789,63.7573559 L1.46268221,63.7573559 L1.46268221,8.76047661 Z M33.3757486,9.75751311 L41.5908811,17.9266185 L33.3757486,17.9266185 L33.3757486,9.75751311 Z M45.0162878,12.1977798 L49.598224,12.1977798 L49.598224,56.6183416 L47.5593336,56.6183416 L47.5593336,14.7261754 L45.0162878,12.1977798 Z M41.3817441,15.723219 L46.1409751,15.723219 L46.1409751,60.1437807 L44.0134374,60.1437807 L44.0134374,18.3397506 L41.3817441,15.723219 Z"></path>
                                    <path d="M22.0312208,24.2973832 L13.9920357,28.2951607 L13.9920357,38.2793595 L22.0312208,42.277137 L30.0690585,38.2793595 L30.0690585,28.2951607 L22.0312208,24.2973832 L22.0312208,24.2973832 Z M22.0312208,25.8741711 L28.6507,29.1669313 L28.6507,37.4089991 L22.0312208,40.7003491 L15.4103942,37.4089991 L15.4103942,29.1669313 L22.0312208,25.8741711 L22.0312208,25.8741711 Z M22.0312208,27.9426168 L19.4895224,29.2068393 L19.4895224,31.9005004 L22.0312208,33.1647229 C22.878761,32.7448431 23.7248827,32.3221429 24.5715009,31.9005004 L24.5715009,29.2068393 L22.0312208,27.9426168 Z M22.0312208,29.5194752 L23.1531424,30.0785393 L23.1531424,31.03014 L22.0312208,31.587935 L20.9078809,31.03014 L20.9078809,30.0785393 L22.0312208,29.5194752 Z M17.6570032,33.2872672 L17.6570032,36.4574126 L22.0312208,38.6319034 L26.4040201,36.4574126 L26.4040201,33.2872672 L24.9856616,33.2872672 L24.9856616,35.5857125 L22.0312208,37.0551155 L19.0753617,35.5857125 L19.0753617,33.2872672 L17.6570032,33.2872672 L17.6570032,33.2872672 Z M10.7979633,46.3507115 L10.7979633,46.5049142 L10.7979633,47.759477 L33.2631309,47.759477 L33.2631309,46.3507115 L10.7979633,46.3507115 Z M10.7979633,51.8592102 L10.7979633,52.0134129 L10.7979633,53.2679757 L33.2631309,53.2679757 L33.2631309,51.8592102 L10.7979633,51.8592102 L10.7979633,51.8592102 Z M10.7979633,57.3662987 L10.7979633,57.5205719 L10.7979633,58.7750642 L33.2631309,58.7750642 L33.2631309,57.3662987 L10.7979633,57.3662987 Z"></path>
                                </g>
                            </g>
                        </g>
                    </g>
                </g>
            </g>
        </g>
    </g>
</svg>