<?xml version="1.0" encoding="UTF-8"?>
<svg width="15px" height="10px" viewBox="0 0 15 10" version="1.1" xmlns="http://www.w3.org/2000/svg" xmlns:xlink="http://www.w3.org/1999/xlink">
    <!-- Generator: Sketch 41.2 (35397) - http://www.bohemiancoding.com/sketch -->
    <title>Shape</title>
    <desc>Created with Sketch.</desc>
    <defs></defs>
    <g id="Symbols" stroke="none" stroke-width="1" fill="none" fill-rule="evenodd">
        <g id="primary_btn_2" transform="translate(-132.000000, -19.000000)" fill="#FFFFFF">
            <g id="Group-13">
                <g id="Group-11" transform="translate(43.000000, 13.000000)">
                    <g id="Group-3">
                        <g id="Group-32">
                            <path d="M103.463407,11.2905284 C103.501535,11.2526285 103.531673,11.2069658 103.552449,11.1571936 C103.573454,11.1065081 103.584185,11.0537677 103.584185,10.9998858 C103.584185,10.9462323 103.573454,10.8932636 103.552449,10.8428064 C103.531673,10.7930342 103.501535,10.7471432 103.463407,10.7094716 L98.8754552,6.12037809 C98.7149511,5.95987397 98.4549025,5.95987397 98.2943983,6.12037809 C98.1338942,6.2808822 98.1338942,6.54093083 98.2943983,6.70143495 L102.181201,10.5886939 L89.4109636,10.5886939 C89.1842487,10.5886939 89,10.7727143 89,10.9996575 C89,11.2268291 89.1842487,11.4108494 89.4109636,11.4108494 L102.181201,11.4108494 L98.2943983,15.2983367 C98.1338942,15.4588409 98.1338942,15.7191178 98.2943983,15.8796219 C98.4549025,16.040126 98.7149511,16.040126 98.8754552,15.8796219 L103.463407,11.2905284 Z" id="Shape"></path>
                        </g>
                    </g>
                </g>
            </g>
        </g>
    </g>
</svg>