<?xml version="1.0" encoding="UTF-8"?>
<svg width="8px" height="13px" viewBox="0 0 8 13" version="1.1" xmlns="http://www.w3.org/2000/svg" xmlns:xlink="http://www.w3.org/1999/xlink">
    <!-- Generator: Sketch 41.2 (35397) - http://www.bohemiancoding.com/sketch -->
    <title>Arrow-down - simple-line-icons Copy</title>
    <desc>Created with Sketch.</desc>
    <defs></defs>
    <g id="Page-1" stroke="none" stroke-width="1" fill="none" fill-rule="evenodd">
        <g id="About_page" transform="translate(-465.000000, -2088.000000)" stroke-width="0.5" stroke="#046567" fill="#046567">
            <g id="Group-17" transform="translate(451.000000, 2077.000000)">
                <g id="Group-16">
                    <path d="M12.5801417,14.9246561 C12.5801417,14.8805653 12.58928,14.8346381 12.607557,14.786873 C12.625834,14.739108 12.653249,14.696855 12.689803,14.6601127 C12.7629108,14.5939765 12.850639,14.5609089 12.95299,14.5609089 C13.055341,14.5609089 13.1430692,14.5939765 13.2161771,14.6601127 L18.1728665,19.6423464 L23.0527931,14.7372712 C23.125901,14.6637865 23.2136291,14.6270447 23.3159802,14.6270447 C23.4183312,14.6270447 23.5060593,14.6637865 23.5791672,14.7372712 C23.6522751,14.8107558 23.6888285,14.898936 23.6888285,15.0018145 C23.6888285,15.104693 23.6522751,15.1928733 23.5791672,15.2663579 L18.4360536,20.4359766 C18.3629457,20.5094612 18.2752176,20.546203 18.1728665,20.546203 C18.0705155,20.546203 17.9827874,20.5094612 17.9096795,20.4359766 L12.689803,15.2002221 C12.653249,15.1634798 12.625834,15.1212267 12.607557,15.0734617 C12.58928,15.0256967 12.5801417,14.9760953 12.5801417,14.9246561 Z" id="Arrow-down---simple-line-icons-Copy" transform="translate(18.134485, 17.553556) rotate(90.000000) translate(-18.134485, -17.553556) "></path>
                </g>
            </g>
        </g>
    </g>
</svg>