<?xml version="1.0" encoding="UTF-8"?>
<svg width="6px" height="9px" viewBox="0 0 6 9" version="1.1" xmlns="http://www.w3.org/2000/svg" xmlns:xlink="http://www.w3.org/1999/xlink">
    <!-- Generator: Sketch 41.2 (35397) - http://www.bohemiancoding.com/sketch -->
    <title>Arrow-right - simple-line-icons Copy 3</title>
    <desc>Created with Sketch.</desc>
    <defs></defs>
    <g id="Page-1" stroke="none" stroke-width="1" fill="none" fill-rule="evenodd">
        <g id="Equity" transform="translate(-690.000000, -866.000000)" stroke="#3DC1CC" fill="#3DC1CC">
            <path d="M691.239492,874 C691.207559,874 691.176768,873.994298 691.147116,873.982893 C691.117465,873.971489 691.091235,873.954383 691.068426,873.931574 C691.022809,873.885956 691,873.831216 691,873.767351 C691,873.703486 691.022809,873.648746 691.068426,873.603128 L694.195503,870.476051 L691.116325,867.403715 C691.070707,867.358097 691.047898,867.302216 691.047898,867.23607 C691.047898,867.169925 691.070707,867.114044 691.116325,867.068426 C691.161942,867.022809 691.217823,867 691.283969,867 C691.350114,867 691.405995,867.022809 691.451613,867.068426 L694.688172,870.311828 C694.73379,870.357446 694.756598,870.412186 694.756598,870.476051 C694.756598,870.539916 694.73379,870.594656 694.688172,870.640274 L691.403715,873.931574 C691.380906,873.954383 691.354676,873.971489 691.325024,873.982893 C691.295373,873.994298 691.266862,874 691.239492,874 Z" id="Arrow-right---simple-line-icons-Copy-3"></path>
        </g>
    </g>
</svg>