<?xml version="1.0" encoding="UTF-8"?>
<svg width="125px" height="124px" viewBox="0 0 125 124" version="1.1" xmlns="http://www.w3.org/2000/svg" xmlns:xlink="http://www.w3.org/1999/xlink">
    <!-- Generator: Sketch 41.2 (35397) - http://www.bohemiancoding.com/sketch -->
    <title>Group 15</title>
    <desc>Created with Sketch.</desc>
    <defs>
        <rect id="path-1" x="0" y="0" width="125" height="123.820755"></rect>
    </defs>
    <g id="Page-1" stroke="none" stroke-width="1" fill="none" fill-rule="evenodd">
        <g id="Selfie_demo_video" transform="translate(-536.000000, -2515.000000)">
            <g id="Group-15" transform="translate(536.000000, 2515.000000)">
                <g id="10256567-falling-dollar-note-and-graph-of-stock-market-with-stock-board-Stock-Photo">
                    <mask id="mask-2" fill="white">
                        <use xlink:href="#path-1"></use>
                    </mask>
                    <use id="Mask" fill="#000000" opacity="0.02" xlink:href="#path-1"></use>
                    <g id="noun_878087_cc" mask="url(#mask-2)">
                        <g transform="translate(25.000000, 34.000000)" id="Group">
                            <g>
                                <path d="M72.5599324,0.6875 L2.44048616,0.6875 C1.52588468,0.6875 0.6875,1.44966789 0.6875,2.44048616 L0.6875,47.1035247 C0.6875,48.0181262 1.44966789,48.8565109 2.44048616,48.8565109 L6.32754241,48.8565109 L6.32754241,45.4267554 L4.19347231,45.4267554 L4.19347231,4.19347231 L70.883163,4.19347231 L70.883163,45.4267554 L45.8078393,45.4267554 L45.8078393,48.8565109 L72.5599324,48.8565109 C73.4745338,48.8565109 74.3129185,48.094343 74.3129185,47.1035247 L74.3129185,2.44048616 C74.2367017,1.52588468 73.4745338,0.6875 72.5599324,0.6875 Z" id="Shape" stroke="#046567"></path>
                                <path d="M25.0006558,45.2743218 L23.9336208,49.7711124 L27.4395931,47.2559583 L26.9822923,45.2743218 L28.4304113,43.5975524 C28.5066281,43.5213356 28.5066281,43.4451188 28.4304113,43.368902 L27.5158099,41.1586152 C27.5158099,41.0823984 27.4395931,41.0823984 27.3633763,41.0823984 L24.5433551,41.0823984 C24.4671383,41.0823984 24.3909215,41.1586152 24.3909215,41.1586152 L23.47632,43.368902 L23.47632,43.5975524 L25.0006558,45.2743218 Z" id="Shape" fill="#046567"></path>
                                <path d="M25.9914741,17.4551937 C20.4276484,17.4551937 15.9308579,21.9519842 15.9308579,27.5158099 C15.9308579,33.0796355 20.4276484,37.5764261 25.9914741,37.5764261 C31.5552997,37.5764261 36.0520903,33.0796355 36.0520903,27.5158099 C36.0520903,21.9519842 31.4790829,17.4551937 25.9914741,17.4551937 Z M25.9914741,35.2899224 C21.6471171,35.2899224 18.1411448,31.7839501 18.1411448,27.4395931 C18.1411448,26.753642 18.2173616,26.1439076 18.3697951,25.5341733 C19.2843966,25.9914741 20.961166,26.6012084 22.8665857,26.6012084 C24.2384879,26.6012084 25.6866069,26.2963412 27.1347259,25.305523 C27.2871595,25.2293062 30.716915,22.7141521 33.4607194,25.2293062 C33.6893698,25.9152573 33.7655866,26.6774252 33.7655866,27.4395931 C33.7655866,31.7839501 30.2596143,35.2899224 25.9914741,35.2899224 Z" id="Shape" stroke="#046567"></path>
                                <polygon id="Shape" fill="#046567" points="29.1163624 54.4203365 28.5828449 52.2862664 25.6103901 54.4203365"></polygon>
                                <polygon id="Shape" fill="#046567" points="23.47632 54.4203365 28.2779778 50.990581 27.7444602 48.5516437 23.47632 51.6003153 22.7903689 54.4203365"></polygon>
                                <path d="M44.0548531,54.4203365 L44.0548531,49.8473291 C44.0548531,45.0456714 40.1677969,41.0823984 35.2899224,41.0823984 L35.061272,41.0823984 L31.0217822,54.4203365 L44.0548531,54.4203365 Z" id="Shape" stroke="#046567"></path>
                                <path d="M20.8849492,54.4203365 L16.9978929,41.0823984 L16.616809,41.0823984 C11.8151512,41.0823984 7.8518782,44.9694546 7.8518782,49.8473291 L7.8518782,54.4203365 L20.8849492,54.4203365 Z" id="Shape" stroke="#046567"></path>
                            </g>
                        </g>
                    </g>
                </g>
                <g id="noun_1010459_cc" transform="translate(63.000000, 43.000000)" stroke-width="0.3" stroke="#FAFAFA" fill="#046567">
                    <g id="Group">
                        <g id="Shape">
                            <path d="M29.9516129,7.03928571 C29.7580645,3.42321429 26.8548387,0.530357143 23.1774194,0.3375 L22.4032258,0.3375 C18.6290323,0.530357143 15.6774194,3.66428571 15.6774194,7.425 C15.6774194,11.3303571 18.8709677,14.5607143 22.8387097,14.5607143 C26.6129032,14.5607143 29.7580645,11.6196429 29.9516129,7.81071429 L29.9516129,7.03928571 L29.9516129,7.03928571 Z M22.8387097,13.3553571 C19.5483871,13.3553571 16.8870968,10.7035714 16.8870968,7.425 C16.8870968,4.29107143 19.3548387,1.6875 22.4516129,1.54285714 L23.1290323,1.54285714 C26.1290323,1.6875 28.5483871,4.09821429 28.6935484,7.0875 L28.6935484,7.7625 C28.5967742,10.8964286 25.983871,13.3553571 22.8387097,13.3553571 Z"></path>
                            <path d="M8.9516129,11.1375 C9.58064516,10.3178571 10.5,9.69107143 11.516129,9.45 L11.9516129,9.35357143 L11.9516129,1.44642857 L11.2741935,1.54285714 C7.25806452,1.92857143 3.62903226,4.33928571 1.64516129,7.90714286 L1.30645161,8.48571429 L8.66129032,11.5232143 L8.9516129,11.1375 Z M3.0483871,7.90714286 C4.79032258,5.20714286 7.59677419,3.32678571 10.7903226,2.79642857 L10.7903226,8.4375 C9.82258065,8.775 9,9.30535714 8.32258065,10.0767857 L3.0483871,7.90714286 Z"></path>
                            <path d="M8.75806452,16.6339286 C8.22580645,15.8625 7.98387097,14.9464286 7.98387097,14.0303571 C7.98387097,13.7892857 7.98387097,13.5482143 8.03225806,13.2589286 L8.12903226,12.7767857 L0.774193548,9.7875 L0.580645161,10.4142857 C0.241935484,11.5714286 0.0483870968,12.7767857 0.0483870968,14.0303571 C0.0483870968,17.2607143 1.30645161,20.3946429 3.53225806,22.7571429 L4.01612903,23.2392857 L9,17.0196429 L8.75806452,16.6339286 Z M3.96774194,21.4071429 C2.22580645,19.3821429 1.25806452,16.7303571 1.25806452,14.0303571 C1.25806452,13.1625 1.35483871,12.2946429 1.5483871,11.4267857 L6.77419355,13.5482143 L6.77419355,14.0303571 C6.77419355,15.0428571 7.06451613,16.0553571 7.5483871,16.9232143 L3.96774194,21.4071429 Z"></path>
                            <path d="M24.7258065,14.9946429 C24.3870968,14.9464286 24.0967742,15.1875 24.0483871,15.525 C23.3225806,21.2142857 18.4354839,25.4571429 12.6774194,25.4571429 C10.5967742,25.4571429 8.61290323,24.9267857 6.87096774,23.8660714 L10.3548387,19.4785714 C11.0806452,19.7678571 11.8548387,19.9607143 12.6774194,19.9607143 C15.8709677,19.9607143 18.483871,17.4535714 18.6290323,14.2714286 C18.6290323,13.9339286 18.3870968,13.6446429 18.0483871,13.6446429 C17.7096774,13.6446429 17.4193548,13.8857143 17.4193548,14.2232143 C17.3225806,16.7785714 15.2419355,18.7553571 12.6774194,18.7553571 C11.9032258,18.7553571 11.1290323,18.5625 10.4516129,18.225 L10.016129,17.9839286 L5.12903226,24.1553571 L5.66129032,24.5410714 C7.74193548,25.9392857 10.1612903,26.6625 12.7258065,26.6625 C19.0645161,26.6625 24.483871,21.9375 25.2580645,15.6696429 C25.3064516,15.3321429 25.0645161,14.9946429 24.7258065,14.9946429 Z"></path>
                            <path d="M14.4193548,9.64285714 C14.4677419,9.69107143 14.5645161,9.69107143 14.6612903,9.69107143 C14.9032258,9.69107143 15.1451613,9.54642857 15.2419355,9.30535714 C15.3870968,9.01607143 15.1935484,8.63035714 14.9032258,8.53392857 C14.8064516,8.48571429 14.7096774,8.48571429 14.6612903,8.4375 L14.6612903,2.79642857 C15.0967742,2.89285714 15.5322581,2.98928571 16.016129,3.08571429 C16.3548387,3.18214286 16.6935484,2.98928571 16.7903226,2.7 C16.8870968,2.3625 16.6935484,2.025 16.4032258,1.92857143 C15.6774194,1.6875 14.9032258,1.54285714 14.1774194,1.49464286 L13.4032258,1.44642857 L13.4032258,9.35357143 L13.8387097,9.45 C14.0322581,9.49821429 14.2258065,9.59464286 14.4193548,9.64285714 Z"></path>
                            <path d="M2.70967742,14.0785714 L3.38709677,13.8375 C3.67741935,13.7410714 3.87096774,13.3553571 3.72580645,13.0660714 C3.62903226,12.7767857 3.24193548,12.5839286 2.9516129,12.7285714 L2.27419355,12.9696429 C1.98387097,13.0660714 1.79032258,13.4517857 1.93548387,13.7410714 C2.03225806,13.9821429 2.27419355,14.1267857 2.51612903,14.1267857 C2.56451613,14.0785714 2.66129032,14.0785714 2.70967742,14.0785714 Z"></path>
                            <path d="M5.32258065,13.6928571 L2.41935484,14.7053571 C2.12903226,14.8017857 1.93548387,15.1875 2.08064516,15.4767857 C2.17741935,15.7660714 2.41935484,15.9107143 2.66129032,15.9107143 C2.70967742,15.9107143 2.80645161,15.9107143 2.85483871,15.8625 L5.70967742,14.8017857 C6,14.7053571 6.19354839,14.3196429 6.0483871,14.0303571 C5.90322581,13.7410714 5.61290323,13.5482143 5.32258065,13.6928571 Z"></path>
                            <path d="M5.32258065,15.525 L3,16.3928571 C2.70967742,16.4892857 2.51612903,16.875 2.66129032,17.1642857 C2.75806452,17.4053571 3,17.55 3.24193548,17.55 C3.29032258,17.55 3.38709677,17.55 3.43548387,17.5017857 L5.75806452,16.6339286 C6.0483871,16.5375 6.24193548,16.1517857 6.09677419,15.8625 C5.9516129,15.5732143 5.61290323,15.4285714 5.32258065,15.525 Z"></path>
                            <path d="M4.93548387,17.5017857 L3.58064516,17.9839286 C3.29032258,18.0803571 3.09677419,18.4660714 3.24193548,18.7553571 C3.33870968,18.9964286 3.58064516,19.1410714 3.82258065,19.1410714 C3.87096774,19.1410714 3.96774194,19.1410714 4.01612903,19.0928571 L5.37096774,18.6107143 C5.66129032,18.5142857 5.85483871,18.1285714 5.70967742,17.8392857 C5.56451613,17.55 5.22580645,17.4053571 4.93548387,17.5017857 Z"></path>
                        </g>
                    </g>
                </g>
                <path d="M83.524171,46 L83.0104535,47.7136282 L84.4515504,47.7136282 C84.6008768,47.7201195 85.6406829,47.7882104 86.0121164,48.4978673 L83.5152108,48.4978673 L83,49.2114964 L86.1390524,49.2114964 C86.1383364,49.2253811 86.1373225,49.2370294 86.136066,49.2505585 C86.136066,49.2505585 86.1214148,50.8134764 83.2912064,50.542598 L83.2912064,50.88064 L83.2941928,51.2472131 L86.3466301,54.5900002 L87.5084678,54.5900002 L87.5084678,54.4412678 L84.5799797,51.1255263 L84.5799797,51.0789529 C84.5799797,51.0789529 86.8848913,51.1126247 87.2665427,49.2235156 L88.2357341,49.2114964 L88.7494516,48.4978673 L87.2262195,48.4978673 C87.1688552,48.2363666 87.0516917,47.9478961 86.8215176,47.7136282 L88.247681,47.7136282 L88.7613985,47 L83.5241686,47 L83.524171,46 Z" id="Shape" fill="#046567"></path>
            </g>
        </g>
    </g>
</svg>