<?xml version="1.0" encoding="UTF-8"?>
<svg width="125px" height="124px" viewBox="0 0 125 124" version="1.1" xmlns="http://www.w3.org/2000/svg" xmlns:xlink="http://www.w3.org/1999/xlink">
    <!-- Generator: Sketch 41.2 (35397) - http://www.bohemiancoding.com/sketch -->
    <title>Group 29</title>
    <desc>Created with Sketch.</desc>
    <defs>
        <rect id="path-1" x="0" y="0" width="125" height="123.820755"></rect>
    </defs>
    <g id="Page-1" stroke="none" stroke-width="1" fill="none" fill-rule="evenodd">
        <g id="Brokerage-Fees_DETAILS_SECTION" transform="translate(-974.000000, -2845.000000)">
            <g id="Group-29" transform="translate(974.000000, 2845.000000)">
                <g id="Bitmap-Copy">
                    <mask id="mask-2" fill="white">
                        <use xlink:href="#path-1"></use>
                    </mask>
                    <use id="Mask" fill="#000000" opacity="0.02" xlink:href="#path-1"></use>
                </g>
                <g id="Group-25" transform="translate(34.000000, 31.000000)">
                    <path d="M40.5526016,7.55198409 L43.2088725,7.55198409 C43.4841151,7.56388604 45.4007155,7.68873271 46.0853523,8.98990799 L41.4829846,8.98990799 L40.5333333,10.2983664 L46.3193242,10.2983664 C46.3180046,10.3238244 46.3161357,10.3451818 46.3138197,10.3699877 C46.3138197,10.3699877 46.2868141,13.2356405 41.0700933,12.7389776 L41.0700933,13.3587869 L41.0755979,14.0309086 L46.7019374,20.16 L48.8434698,20.16 L48.8434698,19.8872951 L43.445597,13.8077925 L43.445597,13.7223989 C43.445597,13.7223989 47.6940758,13.7841371 48.3975465,10.320404 L50.1839878,10.2983664 L51.1308865,8.98990799 L48.3232216,8.98990799 C48.2174861,8.51043935 48.0015271,7.98152067 47.5772636,7.55198409 L50.2060087,7.55198409 L51.1529073,6.24352732 L41.4994958,6.24352732 L40.5526016,7.55198409 Z" id="Shape-Copy" stroke="#FAFAFA" stroke-width="0.4" fill="#046567"></path>
                    <path d="M6.98593492,37.1619841 L9.64220582,37.1619841 C9.9174484,37.173886 11.8340488,37.2987327 12.5186856,38.599908 L7.91631792,38.599908 L6.96666667,39.9083664 L12.7526576,39.9083664 C12.7513379,39.9338244 12.749469,39.9551818 12.7471531,39.9799877 C12.7471531,39.9799877 12.7201475,42.8456405 7.50342668,42.3489776 L7.50342668,42.9687869 L7.50893118,43.6409086 L13.1352707,49.77 L15.2768031,49.77 L15.2768031,49.4972951 L9.87893037,43.4177925 L9.87893037,43.3323989 C9.87893037,43.3323989 14.1274091,43.3941371 14.8308799,39.930404 L16.6173211,39.9083664 L17.5642198,38.599908 L14.756555,38.599908 C14.6508194,38.1204393 14.4348604,37.5915207 14.0105969,37.1619841 L16.639342,37.1619841 L17.5862407,35.8535273 L7.93282914,35.8535273 L6.98593492,37.1619841 Z" id="Shape-Copy-3" stroke="#FAFAFA" stroke-width="0.4" fill="#046567"></path>
                    <g id="noun_97461_cc">
                        <g id="Group">
                            <g id="Shape">
                                <path d="M12.4051,30.05667 C5.71013333,30.05667 0.264733333,35.47278 0.264733333,42.13125 C0.264733333,48.78972 5.71076667,54.20898 12.4051,54.20898 C19.0988,54.20898 24.5442,48.78972 24.5442,42.13125 C24.5442,35.47278 19.0988,30.05667 12.4051,30.05667 Z M12.4044667,52.34418 C6.74373333,52.34418 2.1394,47.76282 2.1394,42.12999 C2.1394,36.50094 6.74436667,31.92084 12.4044667,31.92084 C18.0645667,31.92084 22.6695333,36.50094 22.6695333,42.12999 C22.6701667,47.76219 18.0658333,52.34418 12.4044667,52.34418 Z" stroke="#FAFAFA" stroke-width="0.8" fill="#046567"></path>
                                <path d="M44.8362,0.43785 C38.1412333,0.43785 32.6958333,5.85459 32.6958333,12.51306 C32.6958333,19.1709 38.1412333,24.59016 44.8362,24.59016 C51.5286333,24.59016 56.9746667,19.1709 56.9746667,12.51306 C56.9746667,5.85396 51.528,0.43785 44.8362,0.43785 Z M44.8362,22.72536 C39.1748333,22.72536 34.5705,18.144 34.5705,12.51117 C34.5705,6.88212 39.1748333,2.30202 44.8362,2.30202 C50.4956667,2.30202 55.1,6.88212 55.1,12.51117 C55.1,18.144 50.4956667,22.72536 44.8362,22.72536 Z" stroke="#FAFAFA" stroke-width="0.8" fill="#046567"></path>
                                <path d="M36.0271667,26.22186 C36.1177333,26.6616 36.1082333,27.12528 35.9809333,27.56691 C35.8688333,27.98208 35.6421,28.37331 35.3368333,28.69713 C34.2969,29.74608 32.5932333,29.77065 31.5279667,28.74942 L26.2561,23.63067 L25.4169333,24.57252 L30.6976667,29.69505 C32.1340667,31.08609 34.7459333,31.22847 36.1639667,29.80089 C36.6516333,29.30067 37.0740667,28.24857 37.2203667,27.59274 L48.6552,27.59274 C50.1543,27.59274 51.6375667,28.98315 51.6375667,30.46617 C51.6375667,31.96305 50.7179667,33.38433 48.6552,33.38433 L29.4645667,33.38433 C28.4981,33.35787 27.4094,32.98113 26.5708667,32.27238 L14.7364,23.38938 L0.158966667,23.35158 L0.158966667,13.68423 L21.5384,13.71951 C21.5384,13.71951 22.9526333,13.74975 23.9279667,14.31297 C24.8285667,14.83587 25.6265667,15.5988 25.6265667,15.5988 L35.2747667,24.92406 C35.6414667,25.27623 35.9011333,25.72164 36.0271667,26.22186 Z" stroke="#046567" stroke-width="1.1"></path>
                                <path d="M21.7816,55.53702 C21.6897667,55.9755 21.6999,56.43918 21.8291,56.88144 C21.9412,57.29661 22.1673,57.68721 22.4719333,58.0104 C23.5131333,59.05872 25.2155333,59.08329 26.2808,58.06332 L31.5495,52.94394 L32.3899333,53.88579 L27.1123667,59.00769 C25.6740667,60.39873 23.0596667,60.543 21.6416333,59.11227 C21.1546,58.61457 20.7328,57.56058 20.5871333,56.90538 L9.15103333,56.90538 C7.6513,56.90538 6.16993333,58.29642 6.16993333,59.77944 C6.16993333,61.27758 7.09016667,62.69823 9.15103333,62.69823 L28.3505333,62.69823 C29.3144667,62.67177 30.4038,62.29503 31.236,61.58628 L43.0711,52.70391 L56.2976333,52.6491 L56.2976333,43.03845 L36.2665667,43.03845 C36.2665667,43.03845 34.8536,43.0668 33.8795333,43.63254 C32.9789333,44.15418 32.1828333,44.91522 32.1828333,44.91522 L22.5333667,54.24174 C22.1660333,54.59076 21.9082667,55.03554 21.7816,55.53702 Z" stroke="#046567" stroke-width="1.1"></path>
                            </g>
                        </g>
                    </g>
                </g>
            </g>
        </g>
    </g>
</svg>