<?xml version="1.0" encoding="UTF-8"?>
<svg width="48px" height="42px" viewBox="0 0 48 42" version="1.1" xmlns="http://www.w3.org/2000/svg" xmlns:xlink="http://www.w3.org/1999/xlink">
    <!-- Generator: Sketch 41.2 (35397) - http://www.bohemiancoding.com/sketch -->
    <title>Group 5</title>
    <desc>Created with Sketch.</desc>
    <defs></defs>
    <g id="Page-1" stroke="none" stroke-width="1" fill="none" fill-rule="evenodd">
        <g id="Group-5">
            <g id="Group-2">
                <rect id="Rectangle-Copy" fill="#FFFFFF" x="0" y="0" width="48" height="42"></rect>
                <g id="cheaper-copy" transform="translate(0.000000, 3.000000)">
                    <g id="cheaper">
                        <g id="Page-1">
                            <g id="Selfie_detail_page_with_Account_opening_form">
                                <g id="Group-5-Copy-4">
                                    <g id="noun_53609_cc">
                                        <g id="cheaper">
                                            <g id="Group" transform="translate(8.727273, 0.000000)" stroke="#046567" fill="#FFFFFF">
                                                <path d="M25.7383636,4.46945455 C19.9581818,-1.30963636 10.5872727,-1.30909091 4.80818182,4.46945455 C-0.971454545,10.2490909 -0.972,19.62 4.80818182,25.4001818 L15.2727273,35.8647273 L25.7383636,25.3996364 C31.5169091,19.6205455 31.5169091,10.2496364 25.7383636,4.46945455 Z M15.2727273,26.466 C8.99290909,26.466 3.90272727,21.3752727 3.90272727,15.096 C3.90272727,8.81618182 8.99345455,3.72545455 15.2727273,3.72545455 C21.5530909,3.72545455 26.6438182,8.81618182 26.6438182,15.096 C26.6438182,21.3752727 21.5530909,26.466 15.2727273,26.466 Z" id="Shape"></path>
                                            </g>
                                            <g id="Group" transform="translate(0.000000, 8.727273)" stroke="#046567" fill="#FFFFFF">
                                                <path d="M9.72054545,18.5454545 C9.72054545,18.5454545 3.46581818,16.776 1.70345455,9.82909091 C1.13781818,7.23272727 1.72309091,4.28618182 2.34436364,3.18054545 C2.31163636,3.16527273 0.109090909,2.16545455 0.109090909,2.16545455 L6.168,0 L8.54563636,6.11563636 L6.40909091,5.14527273 C6.40909091,5.14527273 2.55927273,13.7072727 9.72054545,18.5454545 Z" id="Shape"></path>
                                                <path d="M38.28,0 C38.28,0 44.5347273,1.76945455 46.2965455,8.71690909 C46.8621818,11.3127273 46.2774545,14.2592727 45.6561818,15.3649091 C45.6894545,15.3796364 47.8914545,16.38 47.8914545,16.38 L41.8314545,18.5454545 L39.4549091,12.4298182 L41.5909091,13.4001818 C41.5909091,13.4001818 45.4412727,4.83818182 38.28,0 Z" id="Shape"></path>
                                            </g>
                                            <path d="M25.8603904,21.3900003 C25.9730268,21.3900003 26.0997427,21.3477617 26.1982995,21.277364 C26.4517313,21.0943299 26.49397,20.7282617 26.3109359,20.4889094 L22.7065721,15.758182 L23.0444812,15.758182 C24.7199472,15.758182 26.0997427,14.5332615 26.3813336,12.9422728 L28.1835155,12.9422728 C28.4932655,12.9422728 28.7466973,12.688841 28.7466973,12.379091 C28.7466973,12.069341 28.4932655,11.8159092 28.1835155,11.8159092 L26.3813336,11.8159092 C26.2686972,11.1682501 25.9871063,10.5909887 25.56472,10.1263637 L28.1835155,10.1263637 C28.4932655,10.1263637 28.7466973,9.87293184 28.7466973,9.56318183 C28.7466973,9.25343183 28.4932655,9 28.1835155,9 L23.0444812,9 L21.5661289,9 C21.2563789,9 21.0029471,9.25343183 21.0029471,9.56318183 C21.0029471,9.87293184 21.2563789,10.1263637 21.5661289,10.1263637 L23.0444812,10.1263637 C24.0863676,10.1263637 24.973379,10.8444205 25.2268109,11.8159092 L21.5661289,11.8159092 C21.2563789,11.8159092 21.0029471,12.069341 21.0029471,12.379091 C21.0029471,12.688841 21.2563789,12.9422728 21.5661289,12.9422728 L25.2268109,12.9422728 C24.973379,13.9137615 24.1004472,14.6318183 23.0444812,14.6318183 L21.5661289,14.6318183 C21.3549357,14.6318183 21.1578221,14.7585343 21.0592653,14.9415683 C20.9607085,15.138682 20.9888676,15.3639547 21.1155835,15.5329093 L25.4098449,21.1647276 C25.5224813,21.3055231 25.6914359,21.3900003 25.8603904,21.3900003 Z" id="Shape" fill="#046567"></path>
                                        </g>
                                    </g>
                                </g>
                            </g>
                        </g>
                    </g>
                </g>
            </g>
        </g>
    </g>
</svg>