<?xml version="1.0" encoding="UTF-8"?>
<svg width="47px" height="44px" viewBox="0 0 47 44" version="1.1" xmlns="http://www.w3.org/2000/svg" xmlns:xlink="http://www.w3.org/1999/xlink">
    <!-- Generator: Sketch 41.2 (35397) - http://www.bohemiancoding.com/sketch -->
    <title>child</title>
    <desc>Created with Sketch.</desc>
    <defs></defs>
    <g id="Page-1" stroke="none" stroke-width="1" fill="none" fill-rule="evenodd">
        <g id="mutual-fund" transform="translate(-458.000000, -520.000000)" stroke="#28BBC4" fill="#FFFFFF">
            <g id="Group-4" transform="translate(434.000000, 495.000000)">
                <g id="child" transform="translate(24.565361, 26.494354)">
                    <g id="Group">
                        <g>
                            <path d="M29.7376593,28.3998066 C29.2265432,28.3998066 28.8083574,28.8213077 28.8083574,29.3364757 C28.8083574,32.4368504 26.3085354,34.9564902 23.2325463,34.9564902 C20.1565572,34.9564902 17.6567352,32.4368504 17.6567352,29.3364757 C17.6567352,28.8213077 17.2385494,28.3998066 16.7274333,28.3998066 C16.2163173,28.3998066 15.7981315,28.8213077 15.7981315,29.3364757 C15.7981315,33.4671864 19.1343251,36.8298284 23.2325463,36.8298284 C27.3307675,36.8298284 30.6669611,33.4671864 30.6669611,29.3364757 C30.6669611,28.8213077 30.2487753,28.3998066 29.7376593,28.3998066 Z" id="Shape"></path>
                            <ellipse id="Oval" cx="16.7274333" cy="22.7797921" rx="1.8586037" ry="1.87333817"></ellipse>
                            <ellipse id="Oval" cx="29.7376593" cy="22.7797921" rx="1.8586037" ry="1.87333817"></ellipse>
                            <path d="M42.645662,16.5228426 C42.5991969,16.269942 42.5248527,16.026408 42.4598016,15.7735074 C42.3947505,15.5206067 42.3482854,15.2583394 42.2739412,15.0148054 C42.162425,14.6307711 42.0416158,14.2467368 41.9115135,13.8720691 C41.8464624,13.694102 41.7999973,13.5067682 41.7349462,13.3381678 C41.5676718,12.8979333 41.3818115,12.4670655 41.1959511,12.0361977 C41.149486,11.9331641 41.1030209,11.8207638 41.0565558,11.7177302 C40.8428164,11.2681291 40.6104909,10.8278946 40.3688724,10.3970268 L40.2294772,10.1441262 C40.0157377,9.77882524 39.7834123,9.42289098 39.5417938,9.07632342 C39.4395706,8.92645637 39.3466404,8.76722263 39.2351242,8.61735557 C39.1050219,8.43938845 38.9656266,8.27078801 38.8355244,8.09282088 C35.0811449,3.13784143 29.1800781,0 22.6192071,0 C14.9060017,0 8.10351215,4.47727822 4.73014643,11.2119289 C4.67438831,11.3243292 4.60933718,11.4367295 4.55357907,11.5491298 C4.40489078,11.8675973 4.2654955,12.1954315 4.12610022,12.5232657 C4.02387702,12.7574329 3.92165381,13.0009669 3.82872363,13.2445008 C3.72650043,13.5161349 3.64286326,13.7971356 3.54993307,14.0781363 C3.45700289,14.3778704 3.35477968,14.6682379 3.27114252,14.9773387 C3.19679837,15.2489727 3.13174724,15.5393401 3.06669611,15.8203408 C3.010938,16.0545081 2.94588687,16.2793087 2.89942178,16.5228426 C1.21738543,17.4407783 0,19.4358835 0,21.3747885 C0,23.388627 1.18021335,25.205765 2.98305894,26.0394005 C5.30631357,35.1719241 13.3726536,41.5131738 22.7678954,41.5131738 C32.1724301,41.5131738 40.2387702,35.1719241 42.5527318,26.0394005 C44.3555774,25.205765 45.5357907,23.388627 45.5357907,21.3747885 C45.5357907,19.4358835 44.3184053,17.4407783 42.645662,16.5228426 Z M4.90671378,16.0638748 C4.97176491,15.8016074 5.03681604,15.5487068 5.11116018,15.2958061 C5.19479735,15.0148054 5.27843452,14.7338047 5.3713647,14.452804 C5.44570885,14.2373701 5.520053,14.0219362 5.60369017,13.8065023 C5.72449941,13.4786681 5.86389468,13.1602006 6.00328996,12.8417331 C6.05904807,12.7105995 6.1240992,12.5700991 6.18915033,12.4389654 C9.17220928,6.21948272 15.4264107,2.17307227 22.7678954,2.17307227 C28.4552227,2.17307227 33.5013318,4.5990452 36.8746975,8.59862219 C36.8839905,8.60798888 36.8932835,8.62672226 36.9025765,8.63608895 C37.1906601,8.97328982 37.4508646,9.32922408 37.7110691,9.69452502 C37.8318784,9.86312545 37.9526876,10.0410926 38.0642038,10.2190597 C38.2128921,10.4438603 38.3615804,10.6780276 38.5102687,10.9121948 C38.6682501,11.1744622 38.8076453,11.4367295 38.9563336,11.6989969 C39.0585568,11.8863307 39.151487,12.0642978 39.2444172,12.2516316 C39.3931055,12.541999 39.5232078,12.8417331 39.65331,13.1508339 C39.7369472,13.3381678 39.8112913,13.5348683 39.8949285,13.7315688 C40.0064447,14.0219362 40.1086679,14.3216703 40.2108911,14.6214044 C40.2852353,14.846205 40.3595794,15.0710056 40.4246306,15.3051728 C40.5082677,15.5861736 40.5733188,15.8671743 40.647663,16.148175 C40.6848351,16.2886754 40.7127141,16.4385424 40.7405932,16.5790428 C40.1086679,16.78511 39.4860357,16.8881436 38.8819895,16.8881436 C35.9453956,16.8881436 33.7150712,14.4715373 32.3675835,12.4483321 C31.7263652,11.4929297 30.2859473,11.2774958 29.3845246,12.0080977 C24.0596249,16.2980421 17.2850144,17.1972444 12.545575,17.1972444 C9.06998607,17.1972444 6.20773637,16.7289098 4.83236963,16.4479091 C4.85095567,16.3167754 4.87883472,16.1950085 4.90671378,16.0638748 Z M41.4654486,24.4657965 C41.158779,24.5688301 40.9357466,24.8217307 40.8614024,25.1401982 C38.9005755,33.6826203 31.4661607,39.6398356 22.7678954,39.6398356 C14.0789231,39.6398356 6.63521522,33.6732536 4.67438831,25.1401982 C4.60004417,24.8217307 4.3677187,24.5688301 4.07034211,24.4657965 C2.75073348,24.0161953 1.8586037,22.7704254 1.8586037,21.3747885 C1.8586037,20.1102852 2.72285443,18.724015 3.82872363,18.1526468 C4.8695417,18.3868141 8.21502837,19.0705825 12.536282,19.0705825 C17.573098,19.0705825 24.7937734,18.0964467 30.5368588,13.4693014 C30.6855471,13.3475344 30.7691843,13.4131013 30.8156494,13.4974015 C32.4140486,15.904641 35.118317,18.7708484 38.8726965,18.7708484 C39.8205843,18.7708484 40.7963513,18.5647812 41.7628252,18.1901136 C42.8408154,18.7802151 43.677187,20.1383853 43.677187,21.3747885 C43.677187,22.7704254 42.7850573,24.0161953 41.4654486,24.4657965 Z" id="Shape"></path>
                        </g>
                    </g>
                </g>
            </g>
        </g>
    </g>
</svg>