<?xml version="1.0" encoding="UTF-8"?>
<svg width="19px" height="19px" viewBox="0 0 19 19" version="1.1" xmlns="http://www.w3.org/2000/svg" xmlns:xlink="http://www.w3.org/1999/xlink">
    <!-- Generator: Sketch 41.2 (35397) - http://www.bohemiancoding.com/sketch -->
    <title>noun_826121_cc</title>
    <desc>Created with Sketch.</desc>
    <defs></defs>
    <g id="Page-1" stroke="none" stroke-width="1" fill="none" fill-rule="evenodd">
        <g id="Mobile-Menu" transform="translate(-21.000000, -22.000000)" fill="#FFFFFF">
            <g id="noun_826121_cc" transform="translate(21.000000, 22.000000)">
                <g id="icon-base">
                    <path d="M18.703125,18.8041237 C18.6244154,18.8040551 18.5489548,18.7730548 18.4933333,18.7179381 L0.0870833333,0.501443299 C-0.0219128823,0.385676591 -0.0186967426,0.205274542 0.0943580379,0.0933852746 C0.207412818,-0.0185039926 0.389694056,-0.0216869763 0.506666667,0.086185567 L18.9129167,18.3026804 C18.9977122,18.3867062 19.0230605,18.5129897 18.9771553,18.6227123 C18.93125,18.7324349 18.8231186,18.8040193 18.703125,18.8041237 Z" id="Shape"></path>
                    <path d="M0.296875,18.8041237 C0.176881428,18.8040193 0.0687500128,18.7324349 0.0228447386,18.6227123 C-0.0230605357,18.5129897 0.00228779687,18.3867062 0.0870833333,18.3026804 L18.4933333,0.086185567 C18.6103059,-0.0216869763 18.7925872,-0.0185039926 18.905642,0.0933852746 C19.0186967,0.205274542 19.0219129,0.385676591 18.9129167,0.501443299 L0.506666667,18.7179381 C0.451045212,18.7730548 0.375584618,18.8040551 0.296875,18.8041237 L0.296875,18.8041237 Z" id="Shape"></path>
                </g>
            </g>
        </g>
    </g>
</svg>