<?xml version="1.0" encoding="UTF-8"?>
<svg width="48px" height="42px" viewBox="0 0 48 42" version="1.1" xmlns="http://www.w3.org/2000/svg" xmlns:xlink="http://www.w3.org/1999/xlink">
    <!-- Generator: Sketch 41.2 (35397) - http://www.bohemiancoding.com/sketch -->
    <title>Group 3</title>
    <desc>Created with Sketch.</desc>
    <defs></defs>
    <g id="Page-1" stroke="none" stroke-width="1" fill="none" fill-rule="evenodd">
        <g id="Group-3" fill="#FFFFFF">
            <rect id="Rectangle-Copy-2" x="0" y="0" width="48" height="42"></rect>
            <g id="competitive-copy" transform="translate(4.000000, 2.000000)" stroke="#046567">
                <g id="competitive">
                    <g id="Page-1">
                        <g id="Selfie_detail_page_with_Account_opening_form">
                            <g id="Group-5-Copy-6">
                                <g id="noun_676607_cc">
                                    <g id="competitive">
                                        <path d="M20.3942683,0 C22.0231846,-3.66378419e-16 23.3436822,1.32049754 23.3436822,2.94941381 C23.3436822,4.57833008 22.0231846,5.89882762 20.3942683,5.89882762 C18.7653521,5.89882762 17.4448545,4.57833008 17.4448545,2.94941381 C17.4471267,1.32143961 18.7662942,0.00227212362 20.3942683,1.09913526e-15 L20.3942683,0 Z M30.096396,8.97611811 C30.096396,10.6050344 31.4168935,11.9255319 33.0458098,11.9255319 C34.6747261,11.9255319 35.9952236,10.6050344 35.9952236,8.97611811 C35.9952236,7.34720184 34.6747261,6.0267043 33.0458098,6.0267043 C31.4178356,6.02897642 30.0986681,7.34814391 30.096396,8.97611811 L30.096396,8.97611811 Z M38.6600087,31.4081633 L35.1784629,31.4081633 L36.1396005,22.4609205 C36.8769771,22.1639407 37.3939901,21.4888197 37.4884933,20.6995224 L38.1650022,15.5267043 L38.1650022,15.5267043 C38.2487026,14.8112995 38.0223219,14.0942661 37.5430085,13.5566153 C37.0636951,13.0189644 36.3772525,12.7120741 35.6569692,12.7134173 L34.7618324,12.7134173 C34.6684902,12.7127548 34.5801181,12.7554172 34.5225792,12.8289188 L33.0953105,14.6150673 C33.0458098,14.6769431 32.9963092,14.6769431 32.9468085,14.6150673 L31.5319149,12.8124186 C31.4743761,12.7389169 31.3860039,12.6962545 31.2926617,12.6969171 L30.4264003,12.6969171 C29.7076431,12.6968899 29.0230663,13.0037331 28.5448169,13.5402865 C28.0665674,14.0768398 27.840147,14.7920543 27.9224924,15.506079 L28.5990013,20.6788971 C28.6866755,21.4554166 29.1866483,22.12415 29.9066435,22.4279201 L30.8677812,31.387538 L28.1411203,31.387538 L28.1411203,27.509987 C28.1388505,26.3353749 27.1872044,25.3837288 26.0125923,25.381459 L22.5310465,25.381459 L23.4921841,16.4342162 C24.2295607,16.1372364 24.7465737,15.4621154 24.8410769,14.6728181 L25.5217108,9.51237516 L25.5217108,9.51237516 C25.6015148,8.79858665 25.3735068,8.08459658 24.894775,7.54917284 C24.4160431,7.01374911 23.7319136,6.70758528 23.0136778,6.70733825 L22.114416,6.70733825 C22.0212142,6.70729482 21.9330991,6.74983313 21.8751628,6.82283977 L20.4478941,8.60898828 C20.3983934,8.67086409 20.3488927,8.67086409 20.2993921,8.60898828 L18.8721233,6.82696483 C18.8145845,6.75346319 18.7262124,6.71080078 18.6328702,6.71146331 L17.7789839,6.71146331 C17.0618371,6.71170304 16.3787502,7.01743185 15.9007906,7.5520852 C15.4228309,8.08673855 15.1952625,8.79968348 15.275076,9.51237516 L15.9515849,14.668693 C16.038416,15.4455463 16.5386733,16.1146601 17.2592271,16.417716 L18.2203647,25.3773339 L14.7841945,25.3773339 C13.6095824,25.3796037 12.6579363,26.3312498 12.6556665,27.5058619 L12.6556665,31.4040382 L9.87950499,31.4040382 L10.8406426,22.4567955 C11.5780192,22.1598156 12.0950322,21.4846947 12.1895354,20.6953973 L12.8660443,15.5225792 L12.8660443,15.5225792 C12.9458483,14.8087907 12.7178402,14.0948007 12.2391084,13.5593769 C11.7603766,13.0239532 11.0762471,12.7177894 10.3580113,12.7175423 L9.46287451,12.7175423 C9.36953231,12.7168798 9.28116018,12.7595422 9.22362136,12.8330439 L7.79635258,14.6191924 C7.74685193,14.6810682 7.69735128,14.6810682 7.64785063,14.6191924 L6.22058185,12.8124186 C6.16304304,12.7389169 6.0746709,12.6962545 5.9813287,12.6969171 L5.13156752,12.6969171 C4.41281024,12.6968899 3.72823352,13.0037331 3.24998407,13.5402865 C2.77173462,14.0768398 2.54531422,14.7920543 2.62765957,15.506079 L3.29591837,20.6953973 C3.38359253,21.4719169 3.88356536,22.1406502 4.60356057,22.4444203 L5.56469822,31.4040382 L2.12852801,31.4040382 C0.9523075,31.4063133 -2.20028472e-06,32.3604686 0,33.5366913 L0,38 L2.8421624,38 L2.8421624,34.2627008 L13.8271819,34.2627008 C14.7384638,34.2627008 15.4772036,33.5239609 15.4772036,32.6126791 L15.4772036,28.2194963 L25.3030829,28.2194963 L25.3030829,32.5796787 C25.3030829,33.4909605 26.0418228,34.2297004 26.9531046,34.2297004 L37.9463743,34.2297004 L37.9463743,37.9834998 L40.7844116,37.9834998 L40.7844116,33.5366913 C40.7821515,32.3636838 39.8330095,31.4126988 38.6600087,31.4081633 Z M7.74272688,6.0267043 C6.11381061,6.0267043 4.79331307,7.34720184 4.79331307,8.97611811 C4.79331307,10.6050344 6.11381061,11.9255319 7.74272688,11.9255319 C9.37164315,11.9255319 10.6921407,10.6050344 10.6921407,8.97611811 C10.6898686,7.34814391 9.37070107,6.02897642 7.74272688,6.0267043 L7.74272688,6.0267043 Z" id="Shape"></path>
                                    </g>
                                </g>
                            </g>
                        </g>
                    </g>
                </g>
            </g>
        </g>
    </g>
</svg>