<?xml version="1.0" encoding="UTF-8"?>
<svg width="50px" height="36px" viewBox="0 0 50 36" version="1.1" xmlns="http://www.w3.org/2000/svg" xmlns:xlink="http://www.w3.org/1999/xlink">
    <!-- Generator: Sketch 41.2 (35397) - http://www.bohemiancoding.com/sketch -->
    <title>Corporate Announcements</title>
    <desc>Created with Sketch.</desc>
    <defs></defs>
    <g id="Page-1" stroke="none" stroke-width="1" fill="none" fill-rule="evenodd">
        <g id="Equity-Copy-2" transform="translate(-1062.000000, -154.000000)" fill="#000000">
            <g id="Corporate-Announcements" transform="translate(1062.000000, 154.000000)">
                <g id="Group">
                    <g transform="translate(0.000000, 0.521869)" id="Shape">
                        <path d="M46.8025452,0.318681818 C46.6381057,0.317433257 46.4893905,0.41760895 46.4267075,0.57184883 C46.3640246,0.72608871 46.3999314,0.903493255 46.5174524,1.02019091 L47.4058089,1.93262727 L41.1353323,1.93262727 C40.912646,1.93264986 40.7321287,2.11579287 40.7321065,2.34171818 L40.7321065,9.29626364 L34.6837194,9.29626364 C34.4610331,9.29628623 34.2805158,9.47942923 34.2804935,9.70535455 L34.2804935,15.8417182 L28.2321065,15.8417182 C28.0094202,15.8417408 27.8289029,16.0248838 27.8288806,16.2508091 L27.8288806,21.5689909 L24.6030742,21.5689909 C24.4576565,21.5669044 24.3223962,21.6444172 24.2490872,21.771848 C24.1757782,21.8992788 24.1757782,22.0568848 24.2490872,22.1843157 C24.3223962,22.3117465 24.4576565,22.3892592 24.6030742,22.3871727 L28.2321065,22.3871727 C28.4547927,22.3871501 28.63531,22.2040071 28.6353323,21.9780818 L28.6353323,16.6599 L34.6837194,16.6599 C34.9064056,16.6598774 35.0869229,16.4767344 35.0869452,16.2508091 L35.0869452,10.1144455 L41.1353323,10.1144455 C41.3580185,10.1144229 41.5385358,9.93127986 41.5385581,9.70535455 L41.5385581,2.75080909 L47.4499121,2.75080909 L46.5174524,3.708 C46.413295,3.81132902 46.3721639,3.96361777 46.4098551,4.10638081 C46.4475464,4.24914386 46.5582,4.36018526 46.6993203,4.39686034 C46.8404406,4.43353543 46.9900869,4.39014217 47.0907887,4.28334545 L48.6800653,2.65172727 C48.8353709,2.4923404 48.8353709,2.23585051 48.6800653,2.07646364 L47.0907887,0.444927273 C47.0154614,0.365070053 46.9114907,0.319532758 46.8025452,0.318681818 L46.8025452,0.318681818 Z M43.9405871,5.20535455 C43.7179009,5.20537713 43.5373836,5.38852014 43.5373613,5.61444545 L43.5373613,33.8417182 L41.9244581,33.8417182 L41.9244581,12.1599 C41.9244358,11.9339747 41.7439185,11.7508317 41.5212323,11.7508091 L37.4889742,11.7508091 C37.266288,11.7508317 37.0857707,11.9339747 37.0857484,12.1599 L37.0857484,33.8417182 L35.4728452,33.8417182 L35.4728452,18.7053545 C35.4728229,18.4794292 35.2923056,18.2962862 35.0696194,18.2962636 L31.0373613,18.2962636 C30.814675,18.2962862 30.6341577,18.4794292 30.6341355,18.7053545 L30.6341355,33.8417182 L29.0212323,33.8417182 L29.0212323,24.4326273 C29.02121,24.206702 28.8406927,24.023559 28.6180065,24.0235364 L24.5857484,24.0235364 C24.3630621,24.023559 24.1825448,24.206702 24.1825226,24.4326273 L24.1825226,33.8417182 L14.1066032,33.8417182 C13.9611855,33.8396317 13.8259253,33.9171444 13.7526162,34.0445753 C13.6793072,34.1720061 13.6793072,34.3296121 13.7526162,34.4570429 C13.8259253,34.5844737 13.9611855,34.6619865 14.1066032,34.6599 L49.5904742,34.6599 C49.7358919,34.6619865 49.8711522,34.5844737 49.9444612,34.4570429 C50.0177702,34.3296121 50.0177702,34.1720061 49.9444612,34.0445753 C49.8711522,33.9171444 49.7358919,33.8396317 49.5904742,33.8417182 L48.376071,33.8417182 L48.376071,5.61444545 C48.3760487,5.38852014 48.1955314,5.20537713 47.9728452,5.20535455 L43.9405871,5.20535455 L43.9405871,5.20535455 Z M44.3438129,6.02353636 L47.5696194,6.02353636 L47.5696194,33.8417182 L44.3438129,33.8417182 L44.3438129,6.02353636 Z M15.560421,12.3788455 C15.4804774,12.3870273 15.399504,12.3952091 15.3194306,12.4173 C14.7781242,12.5644091 14.4213129,13.0729909 14.4263484,13.6189636 L6.94934476,18.9275727 L2.34059984,20.1803727 C2.23714645,20.2084615 2.14895443,20.2771458 2.09547249,20.371279 C2.04199056,20.4654122 2.02761159,20.5772624 2.05550653,20.6821636 L2.26026968,21.4587818 L1.09312,21.7768091 C0.989666601,21.8048978 0.901474573,21.8735821 0.847992635,21.9677154 C0.794510698,22.0618486 0.780131734,22.1736988 0.808026694,22.2786 L1.23172887,23.8829727 C1.25940037,23.9879402 1.32709157,24.0774288 1.4198734,24.1317022 C1.51265523,24.1859757 1.62290607,24.2005755 1.72631048,24.1722818 L2.89346016,23.8542545 L3.09979839,24.6325091 C3.12715558,24.7377485 3.19471644,24.8275915 3.28753465,24.8821626 C3.38035287,24.9367337 3.49077764,24.9515346 3.59438,24.9232909 L4.76310484,24.6052636 L7.26751532,34.0879091 C7.32520274,34.3056869 7.54570376,34.4350461 7.76052177,34.3771364 L9.31987177,33.9536455 C9.53452099,33.8951241 9.66202879,33.6714298 9.60496452,33.4534909 L7.09897935,23.9692909 L8.19367419,23.6720455 L9.73254758,23.8078636 L9.97826371,24.7571182 C10.1334444,25.3557 10.6410387,25.7906455 11.2462194,25.8677182 L13.28755,26.1265909 C13.6192339,26.1855 13.986421,26.0979545 14.2357613,25.8182182 C14.4851016,25.5388909 14.5507613,25.0972364 14.4058718,24.6468273 C14.3787831,24.5626364 14.3196726,24.4044 14.2483621,24.2105727 L14.2467492,24.2105727 L17.2945685,24.4790182 C17.5593944,24.9541364 18.1174806,25.2126 18.6586065,25.0654909 C19.2992097,24.8913 19.6855379,24.2117182 19.5138863,23.5618364 L16.7999871,13.2881727 C16.6497984,12.7195364 16.1199847,12.3493091 15.5603831,12.3821182 L15.560421,12.3788455 Z M37.8922,12.5689909 L41.1180065,12.5689909 L41.1180065,33.8417182 L37.8922,33.8417182 L37.8922,12.5689909 Z M15.691154,13.1953909 C15.8473661,13.2150273 15.9772089,13.3284273 16.0219258,13.4974636 L18.7358242,23.7710455 C18.7954452,23.9967818 18.6732355,24.2106545 18.4507306,24.2712 C18.2287137,24.3317455 18.0162992,24.2082 17.9561492,23.9836091 L17.9561492,23.9836091 L17.4410911,22.0340455 L15.7069048,15.4678091 C15.7145902,15.3739328 15.6901103,15.2802415 15.6375984,15.2025545 L15.2438234,13.7115818 C15.2433132,13.7088491 15.2427755,13.7061216 15.2422105,13.7034 C15.1856379,13.4794636 15.306404,13.2680455 15.5273032,13.2080727 C15.5829323,13.1925273 15.6390435,13.1884364 15.6911137,13.1949818 L15.691154,13.1953909 Z M21.5237524,13.7179636 C21.4052505,13.7170406 21.2923466,13.7690456 21.2150331,13.8601636 L19.2965597,16.0766182 C19.1939636,16.1851154 19.1582905,16.3419623 19.2036556,16.4850977 C19.2490207,16.6282331 19.3681136,16.7345915 19.5138116,16.7620889 C19.6595095,16.7895863 19.8083341,16.7337916 19.9013984,16.6167818 L21.8214468,14.4003273 C21.9274348,14.2804897 21.9542897,14.1087265 21.8900573,13.9614954 C21.8258248,13.8142643 21.6824495,13.7189436 21.5237524,13.7179636 L21.5237524,13.7179636 Z M14.6137855,14.4850091 L14.8216984,15.2760273 L11.6935484,17.4972273 C11.5667493,17.5771731 11.4938581,17.7216478 11.504086,17.872753 C11.5143139,18.0238582 11.6059873,18.1568677 11.7423679,18.2184775 C11.8787484,18.2800874 12.0375195,18.2602162 12.1550532,18.1668273 L15.0437879,16.1165455 L17.0268395,23.6304 L8.48034274,22.8745636 L7.58253548,19.4772273 L14.6137855,14.4850091 L14.6137855,14.4850091 Z M23.0263984,16.6982727 L23.0263984,16.6982727 C22.9902795,16.6977499 22.954255,16.7021529 22.9192919,16.7113636 L20.0085056,17.5023818 C19.7932264,17.5610909 19.6656089,17.78573 19.723453,18.0041469 C19.7812971,18.2225639 20.0027018,18.3520618 20.2179935,18.2934 L23.1287806,17.5023818 C23.3259864,17.4510408 23.4545411,17.2586189 23.4284999,17.053759 C23.4024587,16.8488991 23.2299907,16.6958636 23.0263984,16.6969636 L23.0263984,16.6982727 Z M10.8067669,18.2020091 C10.7295721,18.2062835 10.6552153,18.2329798 10.5925532,18.2789182 L10.0617435,18.6561 C9.93470904,18.7359381 9.86160508,18.8805001 9.87177723,19.0317557 C9.88194938,19.1830113 9.97372977,19.3161597 10.1102757,19.3777522 C10.2468216,19.4393446 10.4057442,19.4192821 10.5232484,19.3256182 L11.0556323,18.9485182 C11.204821,18.8449937 11.2678916,18.6534028 11.2099646,18.4796993 C11.1520376,18.3059957 10.987264,18.1926131 10.8067669,18.2022545 L10.8067669,18.2020091 Z M20.4038556,19.0936636 C20.2086848,19.1034079 20.0484827,19.2537128 20.0236739,19.4503578 C19.9988652,19.6470029 20.1165892,19.8333984 20.3030492,19.8927 L23.0579008,20.8403182 C23.2688602,20.9131289 23.4980551,20.7986499 23.569822,20.584622 C23.641589,20.3705941 23.5287513,20.1380654 23.3177919,20.0652545 L20.5629411,19.1176364 C20.5120203,19.0989728 20.4579164,19.0909034 20.4038556,19.0939091 L20.4038556,19.0936636 Z M31.4405871,19.1141182 L34.6663935,19.1141182 L34.6663935,33.8413909 L31.4405871,33.8413909 L31.4405871,19.1141182 Z M9.20331371,19.3394455 C9.12611891,19.3437198 9.05176203,19.3704162 8.9891,19.4163545 L8.34803387,19.8717545 C8.16653966,20.0014804 8.12251773,20.2556307 8.24954417,20.440362 C8.3765706,20.6250932 8.62687125,20.6709287 8.80953871,20.5429091 L9.45217984,20.0858727 C9.60136876,19.9823482 9.66443933,19.7907571 9.60651213,19.6170534 C9.54858493,19.4433497 9.38381091,19.3299673 9.20331371,19.3396091 L9.20331371,19.3394455 Z M6.83436242,19.8060545 L7.66916613,22.9669364 L6.50201613,23.2849636 L4.94424145,23.7083727 L3.77394153,24.0264 L3.57547887,23.2753091 C3.57498208,23.2725765 3.57445786,23.2698491 3.57390629,23.2671273 L3.56918048,23.2466727 L3.14547839,21.6407455 C3.14399485,21.6358066 3.1424193,21.6308966 3.14075258,21.6260182 L2.93913968,20.8621636 L6.83436403,19.8042545 L6.83436242,19.8060545 Z M2.46975806,22.2493909 L2.68554685,23.0643818 L1.90587194,23.2769455 L1.69165823,22.4619545 L2.46975806,22.2493909 Z M10.5862524,23.8825636 L13.3552798,24.1271182 C13.3568927,24.1353 13.3712315,24.1688455 13.3946589,24.2309455 C13.4232073,24.3062182 13.4589008,24.4010455 13.4938903,24.4962 C13.5638661,24.6863455 13.6423742,24.9116727 13.6387992,24.9005455 C13.7228718,25.1618727 13.6701702,25.2327273 13.6371863,25.2696273 C13.6042831,25.3064455 13.5244,25.3367182 13.4276984,25.3195364 C13.4213982,25.3193865 13.4150954,25.3193865 13.4087952,25.3195364 L11.3469879,25.0574727 C11.1298226,25.0296545 10.8098371,24.7450909 10.7594758,24.5508545 L10.5862145,23.8828909 L10.5862524,23.8825636 Z M6.32087952,24.1814455 L8.72133306,33.2708727 L7.94165806,33.4818818 L5.54120468,24.3939273 L6.32087952,24.1814455 Z M24.9889742,24.8413909 L28.2147806,24.8413909 L28.2147806,33.8413909 L24.9889742,33.8413909 L24.9889742,24.8413909 Z"></path>
                    </g>
                </g>
            </g>
        </g>
    </g>
</svg>