<?xml version="1.0" encoding="UTF-8"?>
<svg width="40px" height="36px" viewBox="0 0 40 36" version="1.1" xmlns="http://www.w3.org/2000/svg" xmlns:xlink="http://www.w3.org/1999/xlink">
    <!-- Generator: Sketch 41.2 (35397) - http://www.bohemiancoding.com/sketch -->
    <title>Group 5</title>
    <desc>Created with Sketch.</desc>
    <defs></defs>
    <g id="Page-1" stroke="none" stroke-width="1" fill="none" fill-rule="evenodd">
        <g id="Group-5">
            <g id="Group-4-Copy" fill="#FFFFFF">
                <g id="Group-3-Copy-2">
                    <rect id="Rectangle" x="0" y="0" width="40" height="36"></rect>
                </g>
            </g>
            <g id="presentation-board-with-graph" opacity="0.7" transform="translate(6.000000, 2.000000)" fill="#000000">
                <g id="Layer_1_163_">
                    <g id="Group">
                        <path d="M28.0942558,1.45497872 C28.0942558,0.651574468 27.4488372,0 26.6536977,0 L1.44055814,0 C0.644744186,0 0,0.651574468 0,1.45497872 C0,1.99217021 0.291348837,2.45582979 0.72027907,2.70774468 L0.72027907,19.4621277 C1.11009302,19.1026383 1.5842093,18.6648511 2.16083721,18.1324255 L2.16083721,2.9092766 L25.9327442,2.9092766 L25.9327442,18.9085957 L7.36667442,18.9085957 C6.88446512,19.4403404 6.44406977,19.9271489 6.04886047,20.3642553 L7.32013953,20.3642553 L4.73037209,30.1698723 C4.52534884,30.9460426 4.98260465,31.7433191 5.75144186,31.949617 C6.51623256,32.155234 7.30934884,31.6949787 7.51437209,30.9188085 L10.1108837,21.0893617 L17.9820233,21.0893617 L20.5792093,30.9188085 C20.751186,31.5690213 21.3332093,31.9986383 21.9698605,31.9986383 C22.0939535,31.9986383 22.2180465,31.9836596 22.3421395,31.949617 C23.1116512,31.7419574 23.5682326,30.9446809 23.3638837,30.1698723 L20.7734419,20.3635745 L26.6543721,20.3635745 C27.0522791,20.3635745 27.3739767,20.0381277 27.3739767,19.6364255 L27.3739767,2.70774468 C27.8035814,2.45514894 28.0942558,1.99217021 28.0942558,1.45497872 L28.0942558,1.45497872 Z" id="Shape"></path>
                        <path d="M14.8811163,15.9092766 L14.8811163,10.4549787 C14.8811163,9.65157447 14.2356977,9 13.4405581,9 C12.6454186,9 12,9.65157447 12,10.4549787 L12,15.9092766 C12,16.7140426 12.6454186,17.3649362 13.4405581,17.3649362 C14.2356977,17.3642553 14.8811163,16.7126809 14.8811163,15.9092766 L14.8811163,15.9092766 Z" id="Shape"></path>
                        <path d="M19.8811163,16.0006809 L19.8811163,5.45429787 C19.8811163,4.65089362 19.2356977,4 18.4398837,4 C17.6440698,4 17,4.65089362 17,5.45429787 L17,16.0006809 C17,16.804766 17.6454186,17.4556596 18.4405581,17.4556596 C19.2356977,17.4549787 19.8811163,16.8040851 19.8811163,16.0006809 L19.8811163,16.0006809 Z" id="Shape"></path>
                        <path d="M24.8817907,16.0920851 L24.8817907,8.45497872 C24.8817907,7.65089362 24.2363721,7 23.4412326,7 C22.6454186,7 22,7.65089362 22,8.45497872 L22,16.0920851 C22,16.8968511 22.6454186,17.5477447 23.4412326,17.5477447 C24.2363721,17.5470638 24.8817907,16.8954894 24.8817907,16.0920851 L24.8817907,16.0920851 Z" id="Shape"></path>
                        <path d="M10.4619186,13.1034044 C10.3250116,12.9658725 10.1017791,12.9651916 9.96487209,13.1034044 C9.96487209,13.1034044 0.320686047,22.0041704 0.274151163,22.0511491 C-0.0913837209,22.4201704 -0.0913837209,23.0193193 0.274151163,23.3890214 C0.640360465,23.7587236 1.23384884,23.7587236 1.59938372,23.3890214 C1.6459186,23.3434044 10.4619186,13.6065533 10.4619186,13.6065533 C10.5995,13.4669789 10.5988256,13.242298 10.4619186,13.1034044 L10.4619186,13.1034044 Z" id="Shape"></path>
                    </g>
                </g>
            </g>
        </g>
    </g>
</svg>