<?xml version="1.0" encoding="UTF-8"?>
<svg width="40px" height="36px" viewBox="0 0 40 36" version="1.1" xmlns="http://www.w3.org/2000/svg" xmlns:xlink="http://www.w3.org/1999/xlink">
    <!-- Generator: Sketch 41.2 (35397) - http://www.bohemiancoding.com/sketch -->
    <title>Group 3</title>
    <desc>Created with Sketch.</desc>
    <defs></defs>
    <g id="Page-1" stroke="none" stroke-width="1" fill="none" fill-rule="evenodd">
        <g id="Group-3">
            <rect id="Rectangle" fill="#FFFFFF" x="0" y="0" width="40" height="36"></rect>
            <g id="Group-2" transform="translate(1.000000, 0.000000)" opacity="0.7" fill="#000000">
                <g id="share">
                    <path d="M25.1356956,5.85931478 C25.1356956,6.38315489 25.2066606,6.89079229 25.3378952,7.37437545 L10.8103082,13.849536 C9.73846238,12.3221271 7.95219717,11.3192006 5.93236901,11.3192006 C2.66118684,11.3192006 0,13.9476802 0,17.1785153 C0,20.4093505 2.66118684,23.0378301 5.93222448,23.0378301 C7.95248624,23.0378301 9.73918504,22.034404 10.8109586,20.506424 L20.7565347,24.9354747 C20.8548884,24.9793005 20.9577226,25 21.0590392,25 C21.3400085,25 28.0795138,28.2693076 28.2025102,28 C28.3698054,27.6334761 30.0367598,27.1652391 29.6656751,27 L11.4948096,19.21399 C11.7335757,18.579586 11.8645212,17.8940043 11.8645212,17.1785867 C11.8645212,16.4627409 11.7333589,15.7767309 11.494376,15.1421128 L25.8953533,8.72341185 C26.9129276,10.5092077 28.8495056,11.7188437 31.0677755,11.7188437 C34.3388132,11.7188437 37,9.09036403 37,5.85952891 C37,2.62855103 34.3388854,0 31.0678478,0 C27.7968102,0 25.1356956,2.62847966 25.1356956,5.85931478 Z M8.69487245,17.9670949 C8.76829447,17.7165596 8.80847424,17.452177 8.80847424,17.1785153 C8.80847424,15.6119914 7.51816898,14.3376874 5.93222448,14.3376874 C4.34620771,14.3376874 3.05604698,15.6121342 3.05604698,17.1785153 C3.05604698,18.7448965 4.34635224,20.0193433 5.93222448,20.0193433 C6.70633536,20.0193433 7.40948127,19.7152034 7.92704869,19.2221984 L9.4371864,19.8947181 C8.62029418,20.9209136 7.35340303,21.5818701 5.93229674,21.5818701 C3.47410444,21.5818701 1.47414936,19.6064954 1.47414936,17.1785153 C1.47414936,14.7505353 3.47403218,12.7751606 5.93229674,12.7751606 C8.39048904,12.7751606 10.3904441,14.750464 10.3904441,17.1785153 C10.3903719,17.6807994 10.3036529,18.1631692 10.1460413,18.6133476 L8.69487245,17.9670949 Z M5.93222448,18.5633833 C5.15905305,18.5633833 4.53012408,17.9421128 4.53012408,17.1785153 C4.53012408,16.4149179 5.15912531,15.7936474 5.93222448,15.7936474 C6.70532364,15.7936474 7.33439714,16.4148465 7.33439714,17.1785153 C7.33439714,17.9421842 6.70539591,18.5633833 5.93222448,18.5633833 Z M27.2449165,8.12177016 L28.7020111,7.4723055 C29.2215297,8.21349036 30.0880685,8.70028551 31.0678478,8.70028551 C32.6539368,8.70028551 33.9440975,7.42583869 33.9440975,5.85945753 C33.9440975,4.29307637 32.6537923,3.01862955 31.0678478,3.01862955 C29.4819033,3.01862955 28.1916703,4.29307637 28.1916703,5.85945753 C28.1916703,5.93975732 28.1958617,6.01905782 28.2025102,6.09764454 L26.705019,6.76509636 C26.6428704,6.47266238 26.6097004,6.16980728 26.6097004,5.85938615 C26.6097004,3.43140614 28.6095832,1.45603141 31.0677755,1.45603141 C33.5260401,1.45603141 35.5259952,3.43140614 35.5259952,5.85938615 C35.5259952,8.28736617 33.5260401,10.2627409 31.0678478,10.2627409 C29.4467099,10.2627409 28.0252422,9.40335475 27.2449165,8.12177016 Z M31.0677755,4.4745182 C31.840947,4.4745182 32.4699482,5.09578872 32.4699482,5.85938615 C32.4699482,6.62298358 31.840947,7.2442541 31.0677755,7.2442541 C30.2946764,7.24432548 29.6656751,6.62305496 29.6656751,5.85938615 C29.6656751,5.09571734 30.2946764,4.4745182 31.0677755,4.4745182 Z" id="Shape"></path>
                    <path d="M24.5324066,25.2887548 L24.1207723,25.0793578 C23.7207366,24.8761919 23.2508756,25.0765495 23.0704353,25.5271127 C22.8901507,25.977676 23.0678665,26.5078382 23.4675908,26.7111796 L23.8792251,26.9205766 C23.9853253,26.9744616 24.096096,27 24.2053099,27 C24.507886,27 24.7969175,26.8039427 24.9294843,26.4728217 C25.1099246,26.0221706 24.932131,25.4920085 24.5324066,25.2887548 L24.5324066,25.2887548 Z" id="Shape"></path>
                    <path d="M31.4999665,24 C28.4672396,24 26,26.4672916 26,29.5 C26,32.5327084 28.4672396,35 31.4999665,35 C34.5326934,35 37,32.5327084 37,29.5 C37,26.4672916 34.5326934,24 31.4999665,24 L31.4999665,24 Z M31.4999665,33.6333248 C29.2208653,33.6333248 27.3666835,31.7790873 27.3666835,29.5 C27.3666835,27.2209127 29.2208653,25.3666752 31.4999665,25.3666752 C33.7791347,25.3666752 35.6333165,27.2208457 35.6333165,29.5 C35.6333165,31.7791543 33.7790677,33.6333248 31.4999665,33.6333248 L31.4999665,33.6333248 Z" id="Shape"></path>
                    <path d="M30.4999686,26 C29.1214055,26 28,27.1215452 28,28.5 C28,29.8784548 29.1215311,31 30.4999686,31 C31.8785945,31 33,29.8784548 33,28.5 C33,27.1215452 31.8784689,26 30.4999686,26 L30.4999686,26 Z M30.4999686,29.7187814 C29.8279921,29.7187814 29.2812653,29.1720477 29.2812653,28.5000628 C29.2812653,27.8280779 29.8279921,27.2813442 30.4999686,27.2813442 C31.1720079,27.2813442 31.7187347,27.8280779 31.7187347,28.5000628 C31.7187347,29.1720477 31.1720079,29.7187814 30.4999686,29.7187814 L30.4999686,29.7187814 Z" id="Shape"></path>
                </g>
            </g>
        </g>
    </g>
</svg>