<?xml version="1.0" encoding="UTF-8"?>
<svg width="40px" height="37px" viewBox="0 0 40 37" version="1.1" xmlns="http://www.w3.org/2000/svg" xmlns:xlink="http://www.w3.org/1999/xlink">
    <!-- Generator: Sketch 41.2 (35397) - http://www.bohemiancoding.com/sketch -->
    <title>Group 4</title>
    <desc>Created with Sketch.</desc>
    <defs></defs>
    <g id="Page-1" stroke="none" stroke-width="1" fill="none" fill-rule="evenodd">
        <g id="Group-4">
            <g id="Group-3-Copy" transform="translate(0.000000, 1.000000)" fill="#FFFFFF">
                <rect id="Rectangle" x="0" y="0" width="40" height="36"></rect>
            </g>
            <g id="product-realise" opacity="0.7" fill="#000000">
                <path d="M28.6867124,4.71634877 C28.650987,4.39712523 28.4489313,4.11320044 28.1547144,3.96599439 L20.4388013,0.103594178 C20.1629649,-0.0345313927 19.8371646,-0.0345313927 19.5613281,0.103594178 L11.8451562,3.96573861 C11.5188382,4.1290593 11.3131581,4.45979331 11.3131581,4.82134978 L11.3131581,4.82147767 L11.3131581,4.82160557 L11.3131581,11.2562109 L0.554112742,16.4273509 C0.231030724,16.5791611 0.01849039,16.8941641 0.00114544188,17.2472796 C-0.0161995062,17.6005229 0.16449861,17.9343264 0.471271199,18.1161917 L7.25534637,22.1383316 L7.25534637,29.1645748 C7.25534637,29.5265149 7.46154415,29.8576326 7.78837993,30.0206975 L19.5622342,35.8969174 C19.6998289,35.9655965 19.8499791,36 20,36 C20.1500209,36 20.3000417,35.9655965 20.4377658,35.8969174 L32.2114906,30.0206975 C32.5383264,29.8576326 32.7445242,29.5265149 32.7445242,29.1645748 L32.7445242,22.1383316 L39.5285994,18.1161917 C39.8355014,17.9343264 40.0161995,17.6005229 39.9988546,17.2472796 C39.9815096,16.8941641 39.7690987,16.5791611 39.4460167,16.4274787 L28.6867124,11.2556993 L28.6867124,4.71634877 L28.6867124,4.71634877 Z M29.6230807,13.8803409 L28.6868419,14.3448521 L28.6868419,13.4090513 L29.6230807,13.8803409 L29.6230807,13.8803409 Z M20.0001294,2.0345385 L25.5678578,4.82160557 L20.0001294,7.60854474 L14.4321422,4.82134978 L20.0001294,2.0345385 L20.0001294,2.0345385 Z M11.3130287,13.4091792 L11.3130287,14.3445963 L10.3771781,13.8803409 L11.3130287,13.4091792 L11.3130287,13.4091792 Z M3.02330848,17.3920556 L8.21436667,14.9542672 L18.058013,19.8372619 L12.8413257,23.2130253 L3.02330848,17.3920556 L3.02330848,17.3920556 Z M19.0293301,33.4817662 L9.19707448,28.5744716 L9.19707448,23.2895059 L12.3645985,25.1675021 C12.5185026,25.2588185 12.6914343,25.3042209 12.8641072,25.3042209 C13.0495945,25.3042209 13.2346936,25.2517843 13.3959757,25.1474228 L19.0293301,21.5020587 L19.0293301,33.4817662 L19.0293301,33.4817662 Z M20.0001294,18.6538583 L13.2547568,15.3077664 L13.2547568,6.38255241 L19.5614576,9.53948906 C19.6993111,9.60855185 19.8497203,9.64308324 20.0002589,9.64308324 C20.1506681,9.64308324 20.3010772,9.60855185 20.4390602,9.53948906 L26.7453726,6.3828082 L26.7453726,15.3078943 L20.0001294,18.6538583 L20.0001294,18.6538583 Z M30.803055,28.5744716 L20.9709288,33.4817662 L20.9709288,21.5021866 L26.6040243,25.1475507 C26.7653064,25.2519122 26.9505349,25.3043488 27.1358929,25.3043488 C27.3085657,25.3043488 27.4814974,25.2589464 27.6354015,25.16763 L30.803055,23.2895059 L30.803055,28.5744716 L30.803055,28.5744716 Z M27.1584154,23.2130253 L21.9418575,19.8372619 L31.7855039,14.9541393 L36.9766915,17.3919278 L27.1584154,23.2130253 L27.1584154,23.2130253 Z" id="Shape"></path>
            </g>
        </g>
    </g>
</svg>