<?xml version="1.0" encoding="UTF-8"?>
<svg width="32px" height="38px" viewBox="0 0 32 38" version="1.1" xmlns="http://www.w3.org/2000/svg" xmlns:xlink="http://www.w3.org/1999/xlink">
    <!-- Generator: Sketch 41.2 (35397) - http://www.bohemiancoding.com/sketch -->
    <title>daily_market_tracker</title>
    <desc>Created with Sketch.</desc>
    <defs></defs>
    <g id="Page-1" stroke="none" stroke-width="1" fill="none" fill-rule="evenodd" opacity="0.699999988">
        <g id="Equity-Copy-2" transform="translate(-152.000000, -152.000000)">
            <g id="daily_market_tracker" transform="translate(153.000000, 153.000000)">
                <g id="noun_55634_cc-copy" stroke="#000000">
                    <g id="Group">
                        <g id="Shape">
                            <path d="M15.2727273,0.392043956 C6.98276923,0.392043956 0.259244755,7.18417582 0.259244755,15.5587253 C0.259244755,19.7473846 1.94081119,23.540044 4.65779021,26.2847473 C7.37476923,29.0294505 15.2727273,35.9964396 15.2727273,35.9964396 C15.2727273,35.9964396 23.1734266,29.0294505 25.8904056,26.2847473 C28.6073846,23.540044 30.2862098,19.7473846 30.2862098,15.5587253 C30.2862098,7.18457143 23.565035,0.392043956 15.2727273,0.392043956 Z M15.3134545,28.0858901 C8.5138268,28.0858901 2.99936724,22.5155661 2.99936724,15.6461489 C2.99936724,8.77673157 8.5138268,3.20681319 15.3134545,3.20681319 C22.1130823,3.20681319 27.6275418,8.77713715 27.6275418,15.6461489 C27.6275418,22.5151606 22.1134838,28.0858901 15.3134545,28.0858901 Z"></path>
                        </g>
                    </g>
                </g>
                <g id="noun_1077613_cc-copy" transform="translate(8.000000, 8.000000)" fill="#000000">
                    <g id="Group">
                        <path d="M10.8673778,7.64963636 L6.7984,7.64963636 L6.7984,9.91890909 L4.27271111,9.91890909 L4.27271111,6.27709091 L0.203911111,6.27709091 L0.203911111,15.8876364 L14.1646222,15.8876364 L14.1646222,11.6503636 L10.8673778,11.6503636 L10.8673778,7.64963636 Z M3.50115556,15.0985455 L0.975466667,15.0985455 L0.975466667,7.06636364 L3.50097778,7.06636364 L3.50097778,15.0985455 L3.50115556,15.0985455 Z M6.7984,15.0985455 L4.27271111,15.0985455 L4.27271111,10.708 L6.7984,10.708 L6.7984,15.0985455 Z M10.0958222,15.0985455 L7.56995556,15.0985455 L7.56995556,8.43872727 L10.0958222,8.43872727 L10.0958222,15.0985455 Z M13.3930667,12.4394545 L13.3930667,15.0985455 L10.8673778,15.0985455 L10.8673778,12.4394545 L13.3930667,12.4394545 Z M15.2284444,5.16909091 L15.2284444,7.98672727 L9.92426667,2.87890909 L6.65155556,5.83854545 L0.520355556,0.112363636 L0,0.694909091 L6.64337778,6.89945455 L9.90826667,3.94709091 L14.6417778,8.50563636 L11.9658667,8.50563636 L11.9658667,9.29472727 L16,9.29472727 L16,5.16909091 L15.2284444,5.16909091 Z" id="Shape"></path>
                    </g>
                </g>
            </g>
        </g>
    </g>
</svg>