<?xml version="1.0" encoding="UTF-8"?>
<svg width="27px" height="18px" viewBox="0 0 27 18" version="1.1" xmlns="http://www.w3.org/2000/svg" xmlns:xlink="http://www.w3.org/1999/xlink">
    <!-- Generator: Sketch 41.2 (35397) - http://www.bohemiancoding.com/sketch -->
    <title>Group 5 Copy 2</title>
    <desc>Created with Sketch.</desc>
    <defs></defs>
    <g id="Page-1" stroke="none" stroke-width="1" fill="none" fill-rule="evenodd">
        <g id="Support" transform="translate(-1215.000000, -4542.000000)" fill="#8A8888">
            <g id="Group-5-Copy-2" transform="translate(1215.000000, 4542.000000)">
                <path d="M0.686537167,17.9149355 L20.5486662,17.9149355 C20.7890533,17.9149355 20.9841501,17.7198387 20.9841501,17.4794516 L20.9841501,11.9488065 L20.1401823,12.8107742 L20.1401823,17.0703871 L1.09531136,17.0703871 L1.09531136,3.77070968 L20.1401823,3.77070968 L20.1401823,7.82854839 L20.9841501,6.97209677 L20.9841501,3.36193548 C20.9841501,3.12154839 20.7890533,2.92645161 20.5486662,2.92645161 L16.7222146,2.92645161 L16.7222146,0.507193548 C16.7222146,0.274064516 16.5332146,0.0850645161 16.3000856,0.0850645161 L16.3000856,0.0850645161 C16.0669565,0.0850645161 15.8779565,0.274064516 15.8779565,0.507193548 L15.8779565,2.92645161 L11.0397307,2.92645161 L11.0397307,0.507193548 C11.0397307,0.274064516 10.8507307,0.0850645161 10.6176017,0.0850645161 L10.6176017,0.0850645161 C10.3844727,0.0850645161 10.1954727,0.274064516 10.1954727,0.507193548 L10.1954727,2.92645161 L5.35724684,2.92645161 L5.35724684,0.507193548 C5.35724684,0.274064516 5.16824684,0.0850645161 4.93511781,0.0850645161 L4.93511781,0.0850645161 C4.70198878,0.0850645161 4.51298878,0.274064516 4.51298878,0.507193548 L4.51298878,2.92645161 L0.686537167,2.92645161 C0.44615007,2.92645161 0.251053296,3.12154839 0.251053296,3.36193548 L0.251053296,17.4794516 C0.251053296,17.7198387 0.44615007,17.9149355 0.686537167,17.9149355 Z" id="Shape"></path>
                <path d="M4.93511781,8.17635484 L4.93511781,8.17635484 C5.24808555,8.17635484 5.50153717,7.92290323 5.50153717,7.61022581 L5.50153717,7.61022581 C5.50153717,7.29754839 5.24808555,7.04409677 4.93540813,7.04409677 L4.93511781,7.04409677 C4.62244039,7.04409677 4.36898878,7.29754839 4.36898878,7.61022581 L4.36898878,7.61022581 C4.36898878,7.92290323 4.62244039,8.17635484 4.93511781,8.17635484 Z" id="Shape"></path>
                <path d="M7.77621459,8.17635484 L7.77621459,8.17635484 C8.08889201,8.17635484 8.34234362,7.92290323 8.34234362,7.61022581 L8.34234362,7.61022581 C8.34234362,7.29754839 8.08889201,7.04409677 7.77621459,7.04409677 L7.77621459,7.04409677 C7.46353717,7.04409677 7.21008555,7.29754839 7.21008555,7.61022581 L7.21008555,7.61022581 C7.21008555,7.92290323 7.46353717,8.17635484 7.77621459,8.17635484 Z" id="Shape"></path>
                <path d="M10.6176017,8.17635484 L10.6176017,8.17635484 C10.9305694,8.17635484 11.184021,7.92290323 11.184021,7.61022581 L11.184021,7.61022581 C11.184021,7.29754839 10.9305694,7.04409677 10.617892,7.04409677 L10.6176017,7.04409677 C10.3049243,7.04409677 10.0514727,7.29754839 10.0514727,7.61022581 L10.0514727,7.61022581 C10.0514727,7.92290323 10.3049243,8.17635484 10.6176017,8.17635484 Z" id="Shape"></path>
                <path d="M13.4589888,13.8617419 L13.4589888,13.8617419 C13.7719565,13.8617419 14.0254081,13.6082903 14.0254081,13.2956129 L14.0254081,13.2956129 C14.0254081,12.9829355 13.7719565,12.7294839 13.4592791,12.7294839 L13.4589888,12.7294839 C13.1463114,12.7294839 12.8928597,12.9829355 12.8928597,13.2956129 L12.8928597,13.2956129 C12.8928597,13.6082903 13.1463114,13.8617419 13.4589888,13.8617419 Z" id="Shape"></path>
                <path d="M4.93511781,11.0180323 L4.93511781,11.0180323 C5.24808555,11.0180323 5.50153717,10.7645806 5.50153717,10.4519032 L5.50153717,10.4516129 C5.50153717,10.1389355 5.24808555,9.88548387 4.93540813,9.88548387 L4.93511781,9.88548387 C4.62244039,9.88548387 4.36898878,10.1389355 4.36898878,10.4516129 L4.36898878,10.4519032 C4.36898878,10.7645806 4.62244039,11.0180323 4.93511781,11.0180323 Z" id="Shape"></path>
                <path d="M7.77621459,11.0180323 L7.77621459,11.0180323 C8.08889201,11.0180323 8.34234362,10.7645806 8.34234362,10.4519032 L8.34234362,10.4516129 C8.34234362,10.1389355 8.08889201,9.88548387 7.77621459,9.88548387 L7.77621459,9.88548387 C7.46353717,9.88548387 7.21008555,10.1389355 7.21008555,10.4516129 L7.21008555,10.4519032 C7.21008555,10.7645806 7.46353717,11.0180323 7.77621459,11.0180323 Z" id="Shape"></path>
                <path d="M10.6176017,11.0180323 L10.6176017,11.0180323 C10.9305694,11.0180323 11.184021,10.7645806 11.184021,10.4519032 L11.184021,10.4516129 C11.184021,10.1389355 10.9305694,9.88548387 10.617892,9.88548387 L10.6176017,9.88548387 C10.3049243,9.88548387 10.0514727,10.1389355 10.0514727,10.4516129 L10.0514727,10.4519032 C10.0514727,10.7645806 10.3049243,11.0180323 10.6176017,11.0180323 Z" id="Shape"></path>
                <path d="M4.93511781,13.8594194 L4.93511781,13.8594194 C5.24808555,13.8594194 5.50153717,13.6059677 5.50153717,13.2932903 L5.50153717,13.293 C5.50153717,12.9803226 5.24808555,12.726871 4.93540813,12.726871 L4.93511781,12.726871 C4.62244039,12.726871 4.36898878,12.9803226 4.36898878,13.293 L4.36898878,13.2932903 C4.36898878,13.6059677 4.62244039,13.8594194 4.93511781,13.8594194 Z" id="Shape"></path>
                <path d="M7.77621459,13.8594194 L7.77621459,13.8594194 C8.08889201,13.8594194 8.34234362,13.6059677 8.34234362,13.2932903 L8.34234362,13.293 C8.34234362,12.9803226 8.08889201,12.726871 7.77621459,12.726871 L7.77621459,12.726871 C7.46353717,12.726871 7.21008555,12.9803226 7.21008555,13.293 L7.21008555,13.2932903 C7.21008555,13.6059677 7.46353717,13.8594194 7.77621459,13.8594194 Z" id="Shape"></path>
                <path d="M10.6176017,13.8594194 L10.6176017,13.8594194 C10.9305694,13.8594194 11.184021,13.6059677 11.184021,13.2932903 L11.184021,13.293 C11.184021,12.9803226 10.9305694,12.726871 10.617892,12.726871 L10.6176017,12.726871 C10.3049243,12.726871 10.0514727,12.9803226 10.0514727,13.293 L10.0514727,13.2932903 C10.0514727,13.6059677 10.3049243,13.8594194 10.6176017,13.8594194 Z" id="Shape"></path>
                <path d="M15.5063436,8.40396774 L18.7086017,11.6062258 C18.8775694,11.7751935 19.1513436,11.7751935 19.320021,11.6062258 L26.0540533,4.87219355 C26.223021,4.70322581 26.223021,4.42945161 26.0540533,4.26077419 L26.0540533,4.26077419 C25.8850856,4.09180645 25.6113114,4.09180645 25.4426339,4.26077419 L19.0146017,10.6890968 L16.1180533,7.79254839 C15.9490856,7.62358065 15.6753114,7.62358065 15.5066339,7.79254839 L15.5066339,7.79254839 C15.3376662,7.96122581 15.3376662,8.235 15.5063436,8.40396774 Z" id="Shape"></path>
            </g>
        </g>
    </g>
</svg>