<?xml version="1.0" encoding="UTF-8"?>
<svg width="21px" height="18px" viewBox="0 0 21 18" version="1.1" xmlns="http://www.w3.org/2000/svg" xmlns:xlink="http://www.w3.org/1999/xlink">
    <!-- Generator: Sketch 41.2 (35397) - http://www.bohemiancoding.com/sketch -->
    <title>date_icon</title>
    <desc>Created with Sketch.</desc>
    <defs></defs>
    <g id="Page-1" stroke="none" stroke-width="1" fill="none" fill-rule="evenodd">
        <g id="Support" transform="translate(-1215.000000, -4542.000000)">
            <g id="date_icon" transform="translate(1215.000000, 4542.000000)">
                <g id="Group-5-Copy-2" fill="#8A8888">
                    <path d="M0.686537167,17.9149355 L20.5486662,17.9149355 C20.7890533,17.9149355 20.9841501,17.7198387 20.9841501,17.4794516 L20.9841501,5.94880645 L20.1401823,6.81077419 L20.1401823,17.0703871 L1.09531136,17.0703871 L1.09531136,3.77070968 L20.1401823,3.77070968 L20.1401823,6.82854839 L20.9841501,5.97209677 L20.9841501,3.36193548 C20.9841501,3.12154839 20.7890533,2.92645161 20.5486662,2.92645161 L16.7222146,2.92645161 L16.7222146,0.507193548 C16.7222146,0.274064516 16.5332146,0.0850645161 16.3000856,0.0850645161 C16.0669565,0.0850645161 15.8779565,0.274064516 15.8779565,0.507193548 L15.8779565,2.92645161 L11.0397307,2.92645161 L11.0397307,0.507193548 C11.0397307,0.274064516 10.8507307,0.0850645161 10.6176017,0.0850645161 C10.3844727,0.0850645161 10.1954727,0.274064516 10.1954727,0.507193548 L10.1954727,2.92645161 L5.35724684,2.92645161 L5.35724684,0.507193548 C5.35724684,0.274064516 5.16824684,0.0850645161 4.93511781,0.0850645161 C4.70198878,0.0850645161 4.51298878,0.274064516 4.51298878,0.507193548 L4.51298878,2.92645161 L0.686537167,2.92645161 C0.44615007,2.92645161 0.251053296,3.12154839 0.251053296,3.36193548 L0.251053296,17.4794516 C0.251053296,17.7198387 0.44615007,17.9149355 0.686537167,17.9149355 Z" id="Shape"></path>
                </g>
                <g id="noun_1056458_cc" opacity="0.5" transform="translate(2.000000, 6.000000)" fill="#000000">
                    <g id="Group">
                        <g id="Rectangle-path">
                            <g transform="translate(3.080766, 0.841590)">
                                <rect x="0.814580506" y="0" width="1.95354035" height="1.76781588" rx="0.883907939"></rect>
                                <rect x="4.25576754" y="0" width="1.95354035" height="1.76781588" rx="0.883907939"></rect>
                                <rect x="7.69534805" y="0" width="1.95354035" height="1.76781588" rx="0.883907939"></rect>
                                <rect x="11.1365351" y="0" width="1.95354035" height="1.76781588" rx="0.883907939"></rect>
                            </g>
                            <g transform="translate(0.455766, 4.007958)">
                                <rect x="0" y="0" width="1.95354035" height="1.76781588" rx="0.883907939"></rect>
                                <rect x="3.43958051" y="0" width="1.95354035" height="1.76781588" rx="0.883907939"></rect>
                                <rect x="6.88076754" y="0" width="1.95354035" height="1.76781588" rx="0.883907939"></rect>
                                <rect x="10.320348" y="0" width="1.95354035" height="1.76781588" rx="0.883907939"></rect>
                                <rect x="13.7615351" y="0" width="1.95354035" height="1.76781588" rx="0.883907939"></rect>
                            </g>
                            <g transform="translate(0.455766, 7.172872)">
                                <rect x="0" y="0" width="1.95354035" height="1.76781588" rx="0.883907939"></rect>
                                <rect x="3.43958051" y="0" width="1.95354035" height="1.76781588" rx="0.883907939"></rect>
                                <rect x="6.88076754" y="0" width="1.95354035" height="1.76781588" rx="0.883907939"></rect>
                                <rect x="10.320348" y="0" width="1.95354035" height="1.76781588" rx="0.883907939"></rect>
                            </g>
                        </g>
                    </g>
                </g>
            </g>
        </g>
    </g>
</svg>