<?xml version="1.0" encoding="UTF-8"?>
<svg width="12px" height="14px" viewBox="0 0 12 14" version="1.1" xmlns="http://www.w3.org/2000/svg" xmlns:xlink="http://www.w3.org/1999/xlink">
    <!-- Generator: Sketch 41.2 (35397) - http://www.bohemiancoding.com/sketch -->
    <title>Group</title>
    <desc>Created with Sketch.</desc>
    <defs></defs>
    <g id="Page-1" stroke="none" stroke-width="1" fill="none" fill-rule="evenodd">
        <g id="Insurance" transform="translate(-448.000000, -1758.000000)">
            <g id="Group-5" transform="translate(448.000000, 1754.000000)">
                <g id="noun_612349_cc" transform="translate(0.000000, 4.000000)">
                    <g id="Group">
                        <g>
                            <path d="M0.378947368,12.9166667 L2.96842105,12.9166667 L2.96842105,13.8833333 L5.38421053,13.8833333 L6.3,12.9166667 L10.5631579,12.9166667 C10.7368421,12.9166667 10.8789474,12.7666667 10.8789474,12.5833333 L10.8789474,8.08333333 L11.9210526,6.98333333 L10.8947368,5.88333333 L10.8947368,0.433333333 C10.8947368,0.25 10.7526316,0.1 10.5789474,0.1 L0.378947368,0.1 C0.205263158,0.1 0.0631578947,0.25 0.0631578947,0.433333333 L0.0631578947,12.5833333 C0.0631578947,12.7666667 0.205263158,12.9166667 0.378947368,12.9166667 Z M10.2473684,12.25 L6.94736842,12.25 L10.2473684,8.76666667 L10.2473684,12.25 Z M11.0210526,6.98333333 L5.11578947,13.2166667 L3.61578947,13.2166667 L3.61578947,11.6333333 L9.52105263,5.4 L11.0210526,6.98333333 Z M0.710526316,0.783333333 L10.2631579,0.783333333 L10.2631579,5.2 L9.53684211,4.43333333 L7.87894737,6.16666667 L2.22631579,6.16666667 L2.22631579,6.85 L7.23157895,6.85 L5.24210526,8.95 L2.22631579,8.95 L2.22631579,9.63333333 L4.61052632,9.63333333 L2.96842105,11.35 L2.96842105,12.25 L0.710526316,12.25 L0.710526316,0.783333333 Z" id="Shape" fill="#046567"></path>
                            <rect id="Rectangle-path" fill="#000000" x="2.22631579" y="3.4" width="6.52105263" height="0.683333333"></rect>
                        </g>
                    </g>
                </g>
            </g>
        </g>
    </g>
</svg>