<?xml version="1.0" encoding="UTF-8"?>
<svg width="125px" height="124px" viewBox="0 0 125 124" version="1.1" xmlns="http://www.w3.org/2000/svg" xmlns:xlink="http://www.w3.org/1999/xlink">
    <!-- Generator: Sketch 41.2 (35397) - http://www.bohemiancoding.com/sketch -->
    <title>Group 20</title>
    <desc>Created with Sketch.</desc>
    <defs>
        <rect id="path-1" x="0" y="0" width="125" height="123.820755"></rect>
    </defs>
    <g id="Page-1" stroke="none" stroke-width="1" fill="none" fill-rule="evenodd">
        <g id="Selfie_demo_video" transform="translate(-148.000000, -2691.000000)">
            <g id="Group-20" transform="translate(148.000000, 2691.000000)">
                <g id="Bitmap">
                    <mask id="mask-2" fill="white">
                        <use xlink:href="#path-1"></use>
                    </mask>
                    <use id="Mask" fill="#000000" opacity="0.02" xlink:href="#path-1"></use>
                </g>
                <g id="noun_1057100_cc" transform="translate(31.000000, 32.000000)" fill="#046567">
                    <g id="Group">
                        <g id="Group-9">
                            <g>
                                <path d="M52,58 C45.3856,58 40.004,52.6184 40.004,46.0042667 C40.004,39.3896 45.3856,34.008 52,34.008 C58.6144,34.008 63.9957333,39.3896 63.9957333,46.004 C63.996,52.6184 58.6146667,58 52,58 Z M52,35.1261333 C46.0018667,35.1261333 41.1221333,40.0061333 41.1221333,46.0042667 C41.1221333,52.0021333 46.0018667,56.8821333 52,56.8821333 C57.9981333,56.8821333 62.8778667,52.0021333 62.8778667,46.0042667 C62.8778667,40.0058667 57.9984,35.1261333 52,35.1261333 Z" id="Shape"></path>
                                <path d="M53.708,50.9112 L52.8346667,50.9112 L52.8346667,43.2709333 L50.1869333,43.2709333 C49.7752,43.2709333 49.4416,43.6048 49.4416,44.0162667 C49.4416,44.428 49.7752,44.7616 50.1869333,44.7616 L51.344,44.7616 L51.344,50.9112 L50.284,50.9112 C49.8725333,50.9112 49.5386667,51.2448 49.5386667,51.6565333 C49.5386667,52.068 49.8722667,52.4018667 50.284,52.4018667 L53.708,52.4018667 C54.1197333,52.4018667 54.4533333,52.0682667 54.4533333,51.6565333 C54.4536,51.2448 54.1197333,50.9112 53.708,50.9112 Z" id="Shape"></path>
                                <circle id="Oval" cx="51.996" cy="40.6037333" r="1.33946667"></circle>
                                <g id="noun_986461_cc" stroke-width="0.3">
                                    <g id="Group">
                                        <g id="Shape">
                                            <path d="M45.4507463,19.8615311 C45.3820896,18.4864709 45.1761194,17.1114107 44.8328358,15.7363505 C44.2149254,13.3987482 43.2537313,11.2674049 41.9492537,9.27356765 C40.6447761,7.34848339 39.0656716,5.69841117 37.280597,4.32335099 C35.4955224,2.9482908 33.4358209,1.84824266 31.3074627,1.16071257 C28.6298507,0.266923447 25.9522388,-0.145594608 23.2059701,0.0606644198 C22.7940299,0.0606644198 22.3134328,0.129417429 21.9014925,0.198170438 C21.4895522,0.266923447 21.0089552,0.335676456 20.5970149,0.404429466 C20.1850746,0.473182475 19.7044776,0.610688493 19.2925373,0.679441502 C17.0955224,1.22946558 15.0358209,2.1920077 13.1134328,3.36080886 C11.2597015,4.52961001 9.6119403,6.04217622 8.23880597,7.69224844 C6.86567164,9.41107366 5.76716418,11.2674049 4.94328358,13.3299952 C4.1880597,15.2550794 3.7761194,17.2489167 3.57014925,19.311507 L1.02985075,19.311507 L1.02985075,19.311507 C0.823880597,19.311507 0.617910448,19.449013 0.549253731,19.655272 C0.480597015,19.8615311 0.480597015,20.0677901 0.686567164,20.2052961 L5.97313433,25.4992778 C6.04179104,25.5680308 6.17910448,25.6367838 6.31641791,25.6367838 L6.31641791,25.6367838 C6.45373134,25.6367838 6.59104478,25.5680308 6.65970149,25.4992778 L11.9462687,20.2052961 C12.0835821,20.0677901 12.1522388,19.8615311 12.0835821,19.655272 C12.0149254,19.449013 11.8089552,19.311507 11.6029851,19.311507 L8.85671642,19.311507 C8.99402985,17.8676938 9.33731343,16.4238806 9.88656716,15.1175734 C10.5044776,13.6050072 11.3283582,12.229947 12.358209,10.9923929 C13.3880597,9.75483871 14.6238806,8.65479056 15.9970149,7.76100144 C17.3701493,6.86721233 18.9492537,6.17968223 20.5970149,5.76716418 C20.9402985,5.69841117 21.2835821,5.62965816 21.558209,5.56090515 C21.9014925,5.49215214 22.2447761,5.42339913 22.519403,5.42339913 C22.8626866,5.35464612 23.2059701,5.35464612 23.480597,5.35464612 C25.5402985,5.21714011 27.6,5.49215214 29.5223881,6.17968223 C31.1014925,6.72970631 32.6119403,7.55474242 33.9850746,8.58603755 C35.358209,9.61733269 36.5253731,10.8548869 37.4865672,12.2987 C38.4477612,13.7425132 39.2029851,15.3925855 39.6835821,17.1114107 C39.958209,18.1427058 40.0955224,19.174001 40.1641791,20.2052961 C40.2328358,21.2365912 40.1641791,22.2678864 40.0268657,23.2304285 C39.8895522,24.2617236 39.6149254,25.2242658 39.3402985,26.1868079 C38.9970149,27.14935 38.5850746,28.1118922 38.0358209,29.0056813 C37.4865672,29.8994704 36.8686567,30.7245065 36.1820896,31.5495426 C35.4955224,32.3058257 34.7402985,32.9933558 33.9164179,33.6121329 C33.0925373,34.23091 32.2,34.780934 31.3074627,35.1934521 C30.3462687,35.6747232 29.3850746,36.0184882 28.4238806,36.2935002 C28.080597,36.3622532 27.8059701,36.4310063 27.4626866,36.4997593 C27.119403,36.5685123 26.8447761,36.6372653 26.5014925,36.6372653 C26.158209,36.7060183 25.8835821,36.7060183 25.5402985,36.7060183 C23.8925373,36.8435243 22.1761194,36.6372653 20.5970149,36.2247472 C19.2925373,35.8809822 18.0567164,35.3997111 16.8895522,34.712181 C15.7223881,34.0246509 14.6238806,33.2683678 13.6626866,32.3058257 L13.319403,31.9620607 L9.6119403,35.8122292 L9.95522388,36.1559942 C11.2597015,37.3935484 12.7014925,38.4935965 14.280597,39.3186326 C15.8597015,40.2124218 17.5074627,40.8311988 19.2238806,41.3124699 C20.9402985,41.793741 22.7253731,42 24.5791045,42 L24.5791045,42 C24.9910448,42 25.4716418,42 25.8835821,41.931247 C26.2955224,41.931247 26.7761194,41.862494 27.1880597,41.793741 C27.6,41.724988 28.080597,41.656235 28.4925373,41.5874819 C28.9044776,41.5187289 29.3850746,41.3812229 29.7970149,41.3124699 C31.1701493,40.9687049 32.4746269,40.4874338 33.7104478,39.8686567 C34.9462687,39.2498796 36.1134328,38.5623495 37.2119403,37.7373134 C38.3104478,36.9122773 39.3402985,36.0184882 40.2328358,34.9871931 C41.1253731,33.9558979 41.9492537,32.8558498 42.7044776,31.6182956 C43.3910448,30.4494945 44.0089552,29.1431873 44.4208955,27.8368801 C44.9014925,26.5305729 45.1761194,25.2242658 45.3820896,23.8492056 C45.4507463,22.6116514 45.519403,21.2365912 45.4507463,19.8615311 Z M6.31641791,24.4679827 L2.26567164,20.4115551 L3.50149254,20.4115551 L3.50149254,20.4115551 L8.3761194,20.4115551 L10.3671642,20.4115551 L6.31641791,24.4679827 Z M44.2835821,23.7804526 C44.0776119,25.0867597 43.8029851,26.3243139 43.3910448,27.5618681 C42.9791045,28.7994222 42.4298507,30.0369764 41.7432836,31.1370246 C41.0567164,32.3058257 40.3014925,33.3371208 39.4089552,34.299663 C38.5164179,35.2622051 37.5552239,36.1559942 36.5253731,36.9122773 C35.4955224,37.6685604 34.3970149,38.3560905 33.2298507,38.9061146 C32.0626866,39.4561387 30.8268657,39.9374097 29.5223881,40.2811748 C29.1104478,40.4186808 28.6985075,40.4874338 28.2865672,40.5561868 C27.8746269,40.6249398 27.4626866,40.6936928 27.0507463,40.7624458 C26.638806,40.8311988 26.2268657,40.8311988 25.8149254,40.8999519 C25.4029851,40.8999519 24.9910448,40.9687049 24.5791045,40.9687049 L24.5791045,41.5187289 L24.5791045,40.9687049 C22.8626866,40.9687049 21.1462687,40.7624458 19.4985075,40.3499278 C17.8507463,39.9374097 16.2716418,39.2498796 14.761194,38.4248435 C13.3880597,37.6685604 12.1522388,36.7747713 11.0537313,35.7434762 L13.2507463,33.4058739 C14.2119403,34.23091 15.241791,34.9871931 16.3402985,35.6059701 C17.5761194,36.2935002 18.880597,36.8435243 20.3223881,37.1872894 C22.038806,37.6685604 23.8238806,37.8060664 25.6089552,37.7373134 C25.9522388,37.7373134 26.2955224,37.6685604 26.638806,37.6685604 C26.9820896,37.5998074 27.3253731,37.5998074 27.6686567,37.5310544 C28.0119403,37.4623014 28.3552239,37.3935484 28.6985075,37.3247954 C29.7970149,37.0497833 30.8268657,36.6372653 31.7880597,36.1559942 C32.7492537,35.6747232 33.7104478,35.1246991 34.6029851,34.437169 C35.4955224,33.7496389 36.2507463,33.0621088 37.0059701,32.2370727 C37.761194,31.4120366 38.3791045,30.5182475 38.9283582,29.5557053 C39.4776119,28.5931632 39.958209,27.5618681 40.3014925,26.5305729 C40.6447761,25.4992778 40.919403,24.3992297 41.0567164,23.3679345 C41.1940299,22.2678864 41.2626866,21.1678382 41.1940299,20.1365431 C41.1253731,19.0364949 40.9880597,17.9364468 40.7134328,16.8363987 C40.2328358,14.9800674 39.4776119,13.2612422 38.3791045,11.679923 C37.3492537,10.1673568 36.1134328,8.86104959 34.6716418,7.69224844 C33.2298507,6.59220029 31.6507463,5.69841117 29.9343284,5.1483871 C27.8746269,4.46085701 25.6776119,4.11709196 23.480597,4.25459798 C23.1373134,4.25459798 22.7940299,4.32335099 22.4507463,4.32335099 C22.1074627,4.392104 21.7641791,4.392104 21.4208955,4.46085701 C21.0776119,4.52961001 20.7343284,4.59836302 20.3910448,4.66711603 C18.6746269,5.1483871 17.0268657,5.83591719 15.5164179,6.79845932 C14.0746269,7.76100144 12.7701493,8.86104959 11.6716418,10.2361098 C10.5731343,11.5424169 9.68059701,13.0549831 9.06268657,14.6363024 C8.44477612,16.0801156 8.10149254,17.6614348 7.9641791,19.242754 L4.73731343,19.242754 C4.87462687,17.3176697 5.35522388,15.4613385 6.04179104,13.6050072 C6.79701493,11.679923 7.82686567,9.89234473 9.13134328,8.24227251 C10.4358209,6.59220029 12.0149254,5.21714011 13.7313433,4.11709196 C15.5164179,2.9482908 17.5074627,2.05450169 19.5671642,1.57323062 C19.9104478,1.57323062 20.3223881,1.50447761 20.7343284,1.4357246 C21.1462687,1.36697159 21.558209,1.29821858 21.9701493,1.22946558 C22.3820896,1.16071257 22.7940299,1.16071257 23.2059701,1.09195956 C25.8835821,0.954453539 28.4238806,1.29821858 30.8955224,2.12325469 C32.9552239,2.81078479 34.8776119,3.84207992 36.5940299,5.1483871 C38.3104478,6.45469427 39.8208955,8.03601348 41.0567164,9.89234473 C42.2925373,11.748676 43.2537313,13.8112662 43.8029851,16.0113625 C44.1462687,17.3176697 44.3522388,18.6239769 44.4208955,19.9302841 C44.4895522,21.2365912 44.4208955,22.5428984 44.2835821,23.7804526 Z" stroke="#FFFFFF"></path>
                                            <path d="M18.6746269,15.4613385 C15.7223881,15.4613385 13.5253731,16.5613866 13.5253731,18.0051998 L13.5253731,27.9056331 C13.5253731,29.3494463 15.7223881,30.4494945 18.6746269,30.4494945 C19.9791045,30.4494945 21.2149254,30.2432354 22.1761194,29.8307174 C22.9313433,30.2432354 23.7552239,30.4494945 24.6477612,30.4494945 C25.4716418,30.4494945 26.2268657,30.2432354 26.9134328,29.8994704 C27.8746269,30.2432354 29.041791,30.4494945 30.3462687,30.4494945 C32.9552239,30.4494945 35.7701493,29.5557053 35.7701493,27.9056331 L35.7701493,14.8425614 C35.7701493,13.1924892 32.9552239,12.2987 30.3462687,12.2987 C27.7373134,12.2987 24.9223881,13.1924892 24.9223881,14.8425614 L24.9223881,20.3428021 L24.6477612,20.3428021 C24.3731343,20.3428021 24.0985075,20.3428021 23.8925373,20.4115551 L23.8925373,18.0051998 C23.8925373,16.5613866 21.6268657,15.4613385 18.6746269,15.4613385 Z M18.6746269,16.4926336 C21.2149254,16.4926336 22.7940299,17.3864227 22.7940299,18.0051998 C22.7940299,18.6239769 21.2149254,19.517766 18.6746269,19.517766 C16.1343284,19.517766 14.5552239,18.6239769 14.5552239,18.0051998 C14.5552239,17.3864227 16.2029851,16.4926336 18.6746269,16.4926336 Z M14.5552239,22.8866635 C15.4477612,23.5054405 16.958209,23.8492056 18.6746269,23.8492056 C19.0865672,23.8492056 19.4298507,23.8492056 19.841791,23.7804526 C19.6358209,24.3304766 19.5671642,24.8805007 19.5671642,25.4305248 C19.5671642,25.6367838 19.5671642,25.9117959 19.6358209,26.1180549 C19.361194,26.1180549 19.0179104,26.1868079 18.7432836,26.1868079 C16.2029851,26.1868079 14.6238806,25.2930188 14.6238806,24.6742417 L14.6238806,22.8866635 L14.5552239,22.8866635 Z M18.6746269,29.4869523 C16.1343284,29.4869523 14.5552239,28.5931632 14.5552239,27.9743861 L14.5552239,26.1868079 C15.4477612,26.805585 16.958209,27.14935 18.6746269,27.14935 C19.0865672,27.14935 19.4298507,27.14935 19.841791,27.080597 C20.1164179,27.8368801 20.5970149,28.5244102 21.1462687,29.1431873 C20.4597015,29.3494463 19.6358209,29.4869523 18.6746269,29.4869523 Z M30.3462687,29.4869523 C29.5223881,29.4869523 28.6985075,29.4181993 28.0119403,29.2119403 C28.561194,28.7306692 29.041791,28.1118922 29.3164179,27.4243621 C29.6597015,27.4243621 30.0029851,27.4931151 30.3462687,27.4931151 C31.9940299,27.4931151 33.7104478,27.14935 34.7402985,26.4618199 L34.7402985,27.9743861 C34.7402985,28.5931632 33.0238806,29.4869523 30.3462687,29.4869523 Z M30.3462687,26.4618199 C30.1402985,26.4618199 29.8656716,26.4618199 29.6597015,26.3930669 C29.7283582,26.1180549 29.7283582,25.7742898 29.7283582,25.4305248 C29.7283582,24.9492537 29.6597015,24.5367357 29.5223881,24.1242176 L30.2776119,24.1242176 C31.9253731,24.1242176 33.641791,23.7804526 34.6716418,23.0929225 L34.6716418,24.8805007 C34.7402985,25.5680308 33.0238806,26.4618199 30.3462687,26.4618199 Z M30.3462687,13.3987482 C33.0238806,13.3987482 34.7402985,14.2925373 34.7402985,14.9113144 C34.7402985,15.5300915 33.0238806,16.4238806 30.3462687,16.4238806 C27.6686567,16.4238806 25.9522388,15.5300915 25.9522388,14.9113144 C25.9522388,14.2925373 27.6686567,13.3987482 30.3462687,13.3987482 Z M25.9522388,16.4238806 C26.9820896,17.1114107 28.6985075,17.4551757 30.3462687,17.4551757 C31.9940299,17.4551757 33.7104478,17.1114107 34.7402985,16.4238806 L34.7402985,18.2114588 C34.7402985,18.8302359 33.0238806,19.724025 30.3462687,19.724025 C27.6686567,19.724025 25.9522388,18.8302359 25.9522388,18.2114588 L25.9522388,16.4238806 Z M25.9522388,19.792778 C26.9820896,20.4803081 28.6985075,20.8240732 30.3462687,20.8240732 C31.9940299,20.8240732 33.7104478,20.4803081 34.7402985,19.792778 L34.7402985,21.5803563 C34.7402985,22.1991334 33.0238806,23.0929225 30.3462687,23.0929225 C29.9343284,23.0929225 29.5223881,23.0929225 29.1104478,23.0241695 C28.4238806,21.7866153 27.3253731,20.8928262 25.9522388,20.5490611 L25.9522388,19.792778 Z M28.6985075,25.4305248 C28.6985075,27.6993741 26.9134328,29.4869523 24.6477612,29.4869523 C22.3820896,29.4869523 20.5970149,27.6993741 20.5970149,25.4305248 C20.5970149,23.1616755 22.3820896,21.3740973 24.6477612,21.3740973 C26.9134328,21.3740973 28.6985075,23.2304285 28.6985075,25.4305248 Z M20.3910448,22.6804044 C19.841791,22.7491574 19.2925373,22.8179104 18.6746269,22.8179104 C16.1343284,22.8179104 14.5552239,21.9241213 14.5552239,21.3053442 L14.5552239,19.586519 C15.4477612,20.2052961 16.958209,20.5490611 18.6746269,20.5490611 C20.3910448,20.5490611 21.9014925,20.1365431 22.7940299,19.586519 L22.7940299,20.6865672 C21.8328358,21.0990852 21.0089552,21.7866153 20.3910448,22.6804044 Z" stroke="#FAFAFA"></path>
                                        </g>
                                    </g>
                                </g>
                                <path d="M61.761916,28.841216 C61.813756,29.524856 61.839676,30.224696 61.839676,30.920216 C61.839676,31.516376 62.323516,32.000216 62.919676,32.000216 C63.516916,32.000216 63.999676,31.516376 63.999676,30.920216 C63.999676,30.169616 63.971596,29.415776 63.915436,28.678136 C63.871156,28.083056 63.350596,27.635936 62.756596,27.682376 C62.162596,27.727736 61.716556,28.246136 61.761916,28.841216" id="Shape" stroke="#FAFAFA"></path>
                                <path d="M60.620788,22.97606 C60.862708,23.7245 61.072228,24.50102 61.243948,25.28294 C61.354108,25.78838 61.801228,26.1329 62.298028,26.1329 C62.374708,26.1329 62.451388,26.12534 62.529148,26.10806 C63.112348,25.98062 63.480628,25.40498 63.354268,24.82178 C63.167428,23.97074 62.939548,23.12618 62.674948,22.31078 C62.492428,21.74378 61.885468,21.43166 61.315228,21.61634 C60.748228,21.79994 60.437188,22.40906 60.620788,22.97606" id="Shape" stroke="#FAFAFA"></path>
                                <path d="M59.264956,19.665428 C59.455036,20.043428 59.835196,20.260508 60.231556,20.260508 C60.393556,20.260508 60.559876,20.223788 60.714316,20.146028 C61.247836,19.878188 61.462756,19.229108 61.194916,18.695588 C60.806116,17.922308 60.370876,17.159828 59.902156,16.429748 C59.580316,15.927548 58.910716,15.781748 58.410676,16.104668 C57.908476,16.426508 57.762676,17.095028 58.085596,17.596148 C58.513276,18.263588 58.909636,18.959108 59.264956,19.665428" id="Shape" stroke="#FAFAFA"></path>
                                <path d="M49.337164,9.736556 C50.047804,10.094036 50.743324,10.491476 51.405364,10.915916 C51.586804,11.032556 51.788764,11.087636 51.988564,11.087636 C52.343884,11.087636 52.691644,10.912676 52.897924,10.591916 C53.219764,10.089716 53.075044,9.421196 52.572844,9.099356 C51.848164,8.633876 51.085684,8.198636 50.308084,7.807676 C49.773484,7.538756 49.126564,7.753676 48.858724,8.286116 C48.589804,8.819636 48.804724,9.468716 49.337164,9.736556" id="Shape" stroke="#FAFAFA"></path>
                                <path d="M55.92376,14.760608 C56.1376,14.998208 56.43244,15.119168 56.72836,15.119168 C56.9854,15.119168 57.24244,15.028448 57.4498,14.843768 C57.89368,14.445248 57.9304,13.761608 57.53188,13.317728 C56.94976,12.668648 56.32876,12.047648 55.68508,11.470928 C55.24012,11.071328 54.55648,11.111288 54.16012,11.554088 C53.7616,11.999048 53.7994,12.681608 54.24328,13.079048 C54.82864,13.603928 55.39456,14.169848 55.92376,14.760608" id="Shape" stroke="#FAFAFA"></path>
                                <path d="M43.723108,7.757996 C44.506108,7.928636 45.282628,8.139236 46.029988,8.381156 C46.141228,8.416796 46.252468,8.434076 46.362628,8.434076 C46.818388,8.434076 47.242828,8.142476 47.390788,7.686716 C47.574388,7.118636 47.263348,6.509516 46.695268,6.325916 C45.880948,6.062396 45.036388,5.833436 44.185348,5.647676 C43.599988,5.520236 43.026508,5.889596 42.899068,6.471716 C42.771628,7.054916 43.139908,7.630556 43.723108,7.757996" id="Shape" stroke="#FAFAFA"></path>
                                <path d="M40.24162,7.241216 C40.80106,7.241216 41.27518,6.810296 41.3173,6.243296 C41.36266,5.648216 40.91662,5.128736 40.32262,5.084456 C39.5839,5.028296 38.83006,5.000216 38.08054,5.000216 C37.4833,5.000216 37.00054,5.484056 37.00054,6.080216 C37.00054,6.676376 37.4833,7.160216 38.08054,7.160216 C38.77606,7.160216 39.47482,7.186136 40.15846,7.237976 C40.18654,7.240136 40.21462,7.241216 40.24162,7.241216" id="Shape" stroke="#FAFAFA"></path>
                                <path d="M11.242972,36.317408 C11.838052,36.272048 12.283012,35.753648 12.237652,35.158568 C12.186892,34.474928 12.159892,33.775088 12.159892,33.079568 C12.159892,32.483408 11.676052,31.999568 11.079892,31.999568 C10.483732,31.999568 9.999892,32.483408 9.999892,33.079568 C9.999892,33.830168 10.027972,34.584008 10.084132,35.322728 C10.127332,35.889728 10.600372,36.320648 11.159812,36.320648 C11.187892,36.320648 11.214892,36.319568 11.242972,36.317408" id="Shape" stroke="#FAFAFA"></path>
                                <path d="M14.735044,44.334572 C14.466124,43.802132 13.817044,43.587212 13.285684,43.853972 C12.752164,44.121812 12.537244,44.770892 12.805084,45.304412 C13.193884,46.077692 13.629124,46.840172 14.097844,47.570252 C14.304124,47.892092 14.651884,48.067052 15.007204,48.067052 C15.207004,48.067052 15.408964,48.011972 15.589324,47.895332 C16.091524,47.573492 16.237324,46.904972 15.914404,46.403852 C15.486724,45.736412 15.090364,45.040892 14.735044,44.334572" id="Shape" stroke="#FAFAFA"></path>
                                <path d="M13.379212,41.02394 C13.137292,40.2755 12.927772,39.49898 12.756052,38.71706 C12.628612,38.13386 12.052972,37.76666 11.470852,37.89194 C10.887652,38.01938 10.519372,38.59502 10.645732,39.17822 C10.832572,40.02926 11.060452,40.87382 11.325052,41.68922 C11.471932,42.14606 11.896372,42.43766 12.352132,42.43766 C12.462292,42.43766 12.573532,42.4193 12.684772,42.38366 C13.251772,42.20006 13.562812,41.59094 13.379212,41.02394" id="Shape" stroke="#FAFAFA"></path>
                                <path d="M30.276892,56.242004 C29.493892,56.071364 28.717372,55.860764 27.970012,55.618844 C27.401932,55.436324 26.792812,55.747364 26.609212,56.313284 C26.425612,56.881364 26.736652,57.490484 27.304732,57.674084 C28.119052,57.937604 28.963612,58.166564 29.814652,58.352324 C29.893492,58.369604 29.970172,58.377164 30.046852,58.377164 C30.543652,58.377164 30.990772,58.032644 31.100932,57.528284 C31.228372,56.945084 30.860092,56.369444 30.276892,56.242004" id="Shape" stroke="#FAFAFA"></path>
                                <path d="M24.662836,54.263444 C23.952196,53.905964 23.256676,53.508524 22.594636,53.084084 C22.092436,52.761164 21.424996,52.906964 21.102076,53.408084 C20.780236,53.910284 20.924956,54.578804 21.427156,54.900644 C22.151836,55.366124 22.914316,55.801364 23.691916,56.192324 C23.847436,56.271164 24.012676,56.307884 24.175756,56.307884 C24.572116,56.307884 24.952276,56.090804 25.141276,55.713884 C25.410196,55.180364 25.195276,54.531284 24.662836,54.263444" id="Shape" stroke="#FAFAFA"></path>
                                <path d="M18.07624,49.239392 C17.67664,48.796592 16.99516,48.757712 16.5502,49.156232 C16.10632,49.554752 16.0696,50.238392 16.46812,50.682272 C17.05024,51.331352 17.67124,51.952352 18.31492,52.529072 C18.5212,52.713752 18.77932,52.804472 19.03528,52.804472 C19.33228,52.804472 19.62712,52.683512 19.83988,52.445912 C20.2384,52.000952 20.2006,51.318392 19.75672,50.920952 C19.17136,50.396072 18.60544,49.830152 18.07624,49.239392" id="Shape" stroke="#FAFAFA"></path>
                                <path d="M35.92,56.84 C35.22448,56.84 34.52464,56.81408 33.841,56.76224 C33.2362,56.7104 32.72752,57.16184 32.68216,57.75692 C32.6368,58.352 33.08284,58.8704 33.67792,58.91576 C34.41556,58.97192 35.17048,59 35.92,59 C36.51616,59 37,58.51616 37,57.92 C37,57.32384 36.51616,56.84 35.92,56.84" id="Shape" stroke="#FAFAFA"></path>
                            </g>
                        </g>
                    </g>
                </g>
                <g id="noun_736383_cc" transform="translate(33.000000, 41.000000)">
                    <g id="22--Share-Information--(development,-coding,-code,-programming,-solid)">
                        <g id="Group">
                            <g>
                                <g></g>
                            </g>
                        </g>
                    </g>
                </g>
            </g>
        </g>
    </g>
</svg>