<?xml version="1.0" encoding="UTF-8"?>
<svg width="19px" height="4px" viewBox="0 0 19 4" version="1.1" xmlns="http://www.w3.org/2000/svg" xmlns:xlink="http://www.w3.org/1999/xlink">
    <!-- Generator: Sketch 41.2 (35397) - http://www.bohemiancoding.com/sketch -->
    <title>...</title>
    <desc>Created with Sketch.</desc>
    <defs></defs>
    <g id="Page-1" stroke="none" stroke-width="1" fill="none" fill-rule="evenodd">
        <g id="Search-Quotes" transform="translate(-676.000000, -1094.000000)" fill="#21CAD3">
            <path d="M676,1095.99273 C676,1097.09818 676.887273,1098 677.992727,1098 C679.083636,1098 679.985455,1097.09818 679.985455,1095.99273 C679.985455,1094.90182 679.083636,1094 677.992727,1094 C676.887273,1094 676,1094.90182 676,1095.99273 Z M683.42414,1095.99273 C683.42414,1097.09818 684.311412,1098 685.416867,1098 C686.507776,1098 687.409594,1097.09818 687.409594,1095.99273 C687.409594,1094.90182 686.507776,1094 685.416867,1094 C684.311412,1094 683.42414,1094.90182 683.42414,1095.99273 Z M690.848279,1095.99273 C690.848279,1097.09818 691.735552,1098 692.841007,1098 C693.931916,1098 694.833734,1097.09818 694.833734,1095.99273 C694.833734,1094.90182 693.931916,1094 692.841007,1094 C691.735552,1094 690.848279,1094.90182 690.848279,1095.99273 Z" id="..."></path>
        </g>
    </g>
</svg>