<?xml version="1.0" encoding="UTF-8"?>
<svg width="18px" height="24px" viewBox="0 0 18 24" version="1.1" xmlns="http://www.w3.org/2000/svg" xmlns:xlink="http://www.w3.org/1999/xlink">
    <!-- Generator: Sketch 41.2 (35397) - http://www.bohemiancoding.com/sketch -->
    <title>noun_207469_cc</title>
    <desc>Created with Sketch.</desc>
    <defs></defs>
    <g id="Page-1" stroke="none" stroke-width="1" fill="none" fill-rule="evenodd">
        <g id="Investors" transform="translate(-604.000000, -3911.000000)" fill="#046567">
            <g id="noun_207469_cc" transform="translate(604.000000, 3911.000000)">
                <g id="Group">
                    <g id="Shape">
                        <g>
                            <path d="M17.5,24 L0.5,24 C0.224,24 0,23.776 0,23.5 L0,6.5 C0,6.367 0.053,6.24 0.146,6.146 L6.146,0.146 C6.24,0.053 6.367,0 6.5,0 L17.5,0 C17.776,0 18,0.224 18,0.5 L18,23.5 C18,23.776 17.776,24 17.5,24 Z M1,23 L17,23 L17,1 L6.707,1 L1,6.707 L1,23 Z"></path>
                            <path d="M6.5,7 L0.5,7 C0.224,7 0,6.776 0,6.5 C0,6.224 0.224,6 0.5,6 L6,6 L6,0.5 C6,0.224 6.224,0 6.5,0 C6.776,0 7,0.224 7,0.5 L7,6.5 C7,6.776 6.776,7 6.5,7 Z"></path>
                        </g>
                        <path d="M3.453,22.066 C3.261,22.066 3.063,22.039 2.862,21.981 C2.158,21.778 2.027,21.354 2.011,21.12 C1.955,20.286 3.466,19.107 6.508,17.607 C6.858,16.895 7.15,16.213 7.362,15.72 L7.542,15.301 C7.748,14.828 7.957,14.249 8.144,13.634 C6.991,11.906 6.765,10.056 7.218,8.963 C7.47,8.351 7.938,8 8.5,8 L8.509,8 C8.922,8.008 9.273,8.205 9.499,8.556 C10.114,9.514 9.741,11.674 9.238,13.445 C9.42,13.682 9.624,13.917 9.853,14.146 C10.465,14.757 11.083,15.268 11.671,15.683 C13.183,15.416 14.636,15.44 15.396,15.935 C15.786,16.189 16,16.567 16,17 C16,17.465 15.769,17.828 15.365,17.995 C14.52,18.345 12.978,17.741 11.466,16.742 C10.717,16.898 9.934,17.135 9.201,17.458 C8.501,17.766 7.849,18.069 7.252,18.362 C6.315,20.208 5.039,22.066 3.453,22.066 Z M3.049,20.99 C3.073,20.999 3.102,21.01 3.138,21.02 C4.007,21.272 4.878,20.376 5.624,19.203 C4.173,19.999 3.263,20.646 3.049,20.99 Z M13.052,16.528 C14.058,17.046 14.809,17.207 14.998,17.063 C15,16.938 14.988,16.863 14.85,16.773 C14.535,16.567 13.873,16.482 13.052,16.528 Z M8.884,14.579 C8.728,15.036 8.578,15.424 8.458,15.7 L8.28,16.114 C8.172,16.367 8.053,16.644 7.924,16.935 C8.205,16.806 8.497,16.676 8.798,16.543 C9.294,16.325 9.841,16.131 10.406,15.974 C9.96,15.62 9.533,15.242 9.146,14.854 C9.056,14.763 8.969,14.671 8.884,14.579 Z M8.496,9 C8.354,9.002 8.235,9.118 8.141,9.345 C7.901,9.924 7.945,11.046 8.512,12.254 C8.828,10.871 8.96,9.566 8.658,9.097 C8.607,9.018 8.564,9.002 8.496,9 Z"></path>
                    </g>
                </g>
            </g>
        </g>
    </g>
</svg>