<?xml version="1.0" encoding="UTF-8"?>
<svg width="125px" height="124px" viewBox="0 0 125 124" version="1.1" xmlns="http://www.w3.org/2000/svg" xmlns:xlink="http://www.w3.org/1999/xlink">
    <!-- Generator: Sketch 41.2 (35397) - http://www.bohemiancoding.com/sketch -->
    <title>Group 27</title>
    <desc>Created with Sketch.</desc>
    <defs>
        <rect id="path-1" x="0" y="0" width="125" height="123.820755"></rect>
    </defs>
    <g id="Page-1" stroke="none" stroke-width="1" fill="none" fill-rule="evenodd">
        <g id="Brokerage-Fees_DETAILS_SECTION" transform="translate(-599.000000, -2845.000000)">
            <g id="Group-27" transform="translate(599.000000, 2845.000000)">
                <g id="10256567-falling-dollar-note-and-graph-of-stock-market-with-stock-board-Stock-Photo-Copy">
                    <mask id="mask-2" fill="white">
                        <use xlink:href="#path-1"></use>
                    </mask>
                    <use id="Mask" fill="#000000" opacity="0.02" xlink:href="#path-1"></use>
                </g>
                <g id="Group-24" transform="translate(27.000000, 29.000000)">
                    <g id="Group-22" transform="translate(35.500000, 33.000000) rotate(-360.000000) translate(-35.500000, -33.000000) ">
                        <g id="noun_891799_cc" transform="translate(-0.000000, 0.000000)" stroke-width="1.8" stroke="#FAFAFA" fill="#046567">
                            <g id="Group">
                                <g transform="translate(0.000000, 0.972445)" id="noun_1010459_cc">
                                    <g transform="translate(0.000000, 0.000000)">
                                        <g transform="translate(0.000000, 0.552146)">
                                            <g id="Group" transform="translate(0.000000, 0.000000)">
                                                <g transform="translate(0.000000, 0.000000)" id="Group-21">
                                                    <g transform="translate(0.000000, 0.000000)">
                                                        <path d="M70.8854839,16.6942623 C70.4274194,8.11844262 63.5564516,1.25778689 54.8532258,0.800409836 L53.0209677,0.800409836 C44.0887097,1.25778689 37.1032258,8.69016393 37.1032258,17.6090164 C37.1032258,26.8709016 44.6612903,34.5319672 54.0516129,34.5319672 C62.983871,34.5319672 70.4274194,27.5569672 70.8854839,18.5237705 L70.8854839,16.6942623 L70.8854839,16.6942623 Z M54.0516129,31.6733607 C46.2645161,31.6733607 39.966129,25.3844262 39.966129,17.6090164 C39.966129,10.1766393 45.8064516,4.00204918 53.1354839,3.65901639 L54.7387097,3.65901639 C61.8387097,4.00204918 67.5645161,9.7192623 67.9080645,16.8086066 L67.9080645,18.4094262 C67.6790323,25.8418033 61.4951613,31.6733607 54.0516129,31.6733607 Z" id="Shape"></path>
                                                        <path d="M21.1854839,26.4135246 C22.6741935,24.4696721 24.85,22.9831967 27.2548387,22.4114754 L28.2854839,22.1827869 L28.2854839,3.43032787 L26.6822581,3.65901639 C17.1774194,4.57377049 8.58870968,10.2909836 3.89354839,18.752459 L3.09193548,20.1245902 L20.4983871,27.3282787 L21.1854839,26.4135246 Z M7.21451613,18.752459 C11.3370968,12.3491803 17.9790323,7.8897541 25.5370968,6.63196721 L25.5370968,20.0102459 C23.2467742,20.8106557 21.3,22.0684426 19.6967742,23.8979508 L7.21451613,18.752459 Z" id="Shape"></path>
                                                        <path d="M20.7274194,39.4487705 C19.4677419,37.6192623 18.8951613,35.4467213 18.8951613,33.2741803 C18.8951613,32.702459 18.8951613,32.1307377 19.0096774,31.4446721 L19.2387097,30.3012295 L1.83225806,23.2118852 L1.37419355,24.6983607 C0.572580645,27.442623 0.114516129,30.3012295 0.114516129,33.2741803 C0.114516129,40.9352459 3.09193548,48.367623 8.35967742,53.9704918 L9.50483871,55.1139344 L21.3,40.3635246 L20.7274194,39.4487705 Z M9.39032258,50.7688525 C5.26774194,45.9663934 2.97741935,39.677459 2.97741935,33.2741803 C2.97741935,31.2159836 3.20645161,29.1577869 3.66451613,27.0995902 L16.0322581,32.1307377 L16.0322581,33.2741803 C16.0322581,35.6754098 16.7193548,38.0766393 17.8645161,40.1348361 L9.39032258,50.7688525 Z" id="Shape"></path>
                                                        <path d="M58.5177419,35.5610656 C57.716129,35.4467213 57.0290323,36.0184426 56.9145161,36.8188525 C55.1967742,50.3114754 43.6306452,60.3737705 30.0032258,60.3737705 C25.0790323,60.3737705 20.383871,59.1159836 16.2612903,56.6004098 L24.5064516,46.195082 C26.2241935,46.8811475 28.0564516,47.3385246 30.0032258,47.3385246 C37.5612903,47.3385246 43.7451613,41.392623 44.0887097,33.8459016 C44.0887097,33.0454918 43.516129,32.3594262 42.7145161,32.3594262 C41.9129032,32.3594262 41.2258065,32.9311475 41.2258065,33.7315574 C40.9967742,39.7918033 36.0725806,44.479918 30.0032258,44.479918 C28.1709677,44.479918 26.3387097,44.022541 24.7354839,43.2221311 L23.7048387,42.6504098 L12.1387097,57.2864754 L13.3983871,58.2012295 C18.3225806,61.5172131 24.0483871,63.232377 30.1177419,63.232377 C45.1193548,63.232377 57.9451613,52.0266393 59.7774194,37.1618852 C59.8919355,36.3614754 59.3193548,35.5610656 58.5177419,35.5610656 Z" id="Shape"></path>
                                                        <path d="M34.1258065,22.8688525 C34.2403226,22.9831967 34.4693548,22.9831967 34.6983871,22.9831967 C35.2709677,22.9831967 35.8435484,22.6401639 36.0725806,22.0684426 C36.416129,21.382377 35.9580645,20.467623 35.2709677,20.2389344 C35.0419355,20.1245902 34.8129032,20.1245902 34.6983871,20.0102459 L34.6983871,6.63196721 C35.7290323,6.86065574 36.7596774,7.08934426 37.9048387,7.31803279 C38.7064516,7.54672131 39.5080645,7.08934426 39.7370968,6.40327869 C39.966129,5.60286885 39.5080645,4.80245902 38.8209677,4.57377049 C37.1032258,4.00204918 35.2709677,3.65901639 33.5532258,3.54467213 L31.7209677,3.43032787 L31.7209677,22.1827869 L32.7516129,22.4114754 C33.2096774,22.5258197 33.6677419,22.7545082 34.1258065,22.8688525 Z" id="Shape"></path>
                                                        <path d="M6.41290323,33.3885246 L8.01612903,32.8168033 C8.70322581,32.5881148 9.16129032,31.6733607 8.81774194,30.9872951 C8.58870968,30.3012295 7.67258065,29.8438525 6.98548387,30.1868852 L5.38225806,30.7586066 C4.69516129,30.9872951 4.23709677,31.9020492 4.58064516,32.5881148 C4.80967742,33.1598361 5.38225806,33.5028689 5.95483871,33.5028689 C6.06935484,33.3885246 6.2983871,33.3885246 6.41290323,33.3885246 Z" id="Shape"></path>
                                                        <path d="M12.5967742,32.4737705 L5.72580645,34.875 C5.03870968,35.1036885 4.58064516,36.0184426 4.92419355,36.7045082 C5.15322581,37.3905738 5.72580645,37.7336066 6.2983871,37.7336066 C6.41290323,37.7336066 6.64193548,37.7336066 6.75645161,37.6192623 L13.5129032,35.1036885 C14.2,34.875 14.6580645,33.9602459 14.3145161,33.2741803 C13.9709677,32.5881148 13.283871,32.1307377 12.5967742,32.4737705 Z" id="Shape"></path>
                                                        <path d="M12.5967742,36.8188525 L7.1,38.8770492 C6.41290323,39.1057377 5.95483871,40.0204918 6.2983871,40.7065574 C6.52741935,41.2782787 7.1,41.6213115 7.67258065,41.6213115 C7.78709677,41.6213115 8.01612903,41.6213115 8.13064516,41.5069672 L13.6274194,39.4487705 C14.3145161,39.220082 14.7725806,38.3053279 14.4290323,37.6192623 C14.0854839,36.9331967 13.283871,36.5901639 12.5967742,36.8188525 Z" id="Shape"></path>
                                                        <path d="M11.6806452,41.5069672 L8.47419355,42.6504098 C7.78709677,42.8790984 7.32903226,43.7938525 7.67258065,44.479918 C7.9016129,45.0516393 8.47419355,45.3946721 9.04677419,45.3946721 C9.16129032,45.3946721 9.39032258,45.3946721 9.50483871,45.2803279 L12.7112903,44.1368852 C13.3983871,43.9081967 13.8564516,42.9934426 13.5129032,42.307377 C13.1693548,41.6213115 12.3677419,41.2782787 11.6806452,41.5069672 Z" id="Shape"></path>
                                                    </g>
                                                </g>
                                            </g>
                                        </g>
                                    </g>
                                </g>
                            </g>
                        </g>
                        <polyline id="Shape" stroke="#046567" stroke-width="1.3" points="23.1191376 33.8473003 28.0269595 40.0544267 38.3400823 30.8360656"></polyline>
                    </g>
                    <path d="M49.6563246,8.6557377 L48.4339645,12.7567505 L51.8629687,12.7567505 C52.2182819,12.7722853 54.6924388,12.9352389 55.5762426,14.6335723 L49.6350044,14.6335723 L48.4090909,16.3414119 L55.8782792,16.3414119 C55.8765756,16.3746404 55.874163,16.4025168 55.8711733,16.4348942 C55.8711733,16.4348942 55.8363116,20.175231 49.1019993,19.5269715 L49.1019993,20.3359654 L49.1091051,21.213239 L56.372198,29.2131148 L59.1367216,29.2131148 L59.1367216,28.8571721 L52.1685586,20.9220211 L52.1685586,20.8105627 C52.1685586,20.8105627 57.6529584,20.8911454 58.5610752,16.370176 L60.8672085,16.3414119 L62.0895686,14.6335723 L58.4651285,14.6335723 C58.3286336,14.0077553 58.0498501,13.3173947 57.5021645,12.7567505 L60.8956354,12.7567505 L62.1179955,11.0489131 L49.6563188,11.0489131 L49.6563246,8.6557377 Z" id="Shape" stroke="#FAFAFA" stroke-width="0.8" fill="#046567"></path>
                </g>
            </g>
        </g>
    </g>
</svg>