<?xml version="1.0" encoding="UTF-8"?>
<svg width="16px" height="16px" viewBox="0 0 16 16" version="1.1" xmlns="http://www.w3.org/2000/svg" xmlns:xlink="http://www.w3.org/1999/xlink">
    <!-- Generator: Sketch 41.2 (35397) - http://www.bohemiancoding.com/sketch -->
    <title>Group</title>
    <desc>Created with Sketch.</desc>
    <defs></defs>
    <g id="Page-1" stroke="none" stroke-width="1" fill="none" fill-rule="evenodd">
        <g id="Apply-now" transform="translate(-911.000000, -396.000000)" fill="#DA4932">
            <g id="Group-3" transform="translate(447.000000, 161.000000)">
                <g id="Group-2" transform="translate(53.000000, 52.000000)">
                    <g id="noun_778173_cc" transform="translate(411.000000, 183.000000)">
                        <g id="Group">
                            <path d="M8,0 C3.58175,0 0,3.58175 0,8 C0,12.4185 3.58175,16 8,16 C12.4185,16 16,12.4185 16,8 C16,3.58175 12.4185,0 8,0 Z M12.81925,11.34025 C13.06525,11.58775 13.0595,11.98375 12.8065,12.224 L12.1765,12.823 C11.9235,13.0635 11.51975,13.05775 11.27375,12.8105 L8,9.51325 L4.726,12.81075 C4.48025,13.058 4.076,13.06375 3.82325,12.82325 L3.1935,12.22425 C2.9405,11.984 2.93475,11.588 3.1805,11.3405 L6.4975,8 L3.18075,4.65925 C2.935,4.41175 2.94075,4.01625 3.19375,3.7755 L3.8235,3.1765 C4.07625,2.936 4.4805,2.94175 4.72625,3.189 L8,6.48675 L11.274,3.1895 C11.52,2.942 11.924,2.9365 12.17675,3.177 L12.80675,3.776 C13.05975,4.0165 13.0655,4.41225 12.8195,4.65975 L9.5025,8 L12.81925,11.34025 Z" id="Shape"></path>
                        </g>
                    </g>
                </g>
            </g>
        </g>
    </g>
</svg>