<?xml version="1.0" encoding="UTF-8"?>
<svg width="48px" height="42px" viewBox="0 0 48 42" version="1.1" xmlns="http://www.w3.org/2000/svg" xmlns:xlink="http://www.w3.org/1999/xlink">
    <!-- Generator: Sketch 41.2 (35397) - http://www.bohemiancoding.com/sketch -->
    <title>Group 6</title>
    <desc>Created with Sketch.</desc>
    <defs></defs>
    <g id="Page-1" stroke="none" stroke-width="1" fill="none" fill-rule="evenodd">
        <g id="Group-6">
            <g id="flexibility">
                <rect id="Rectangle-Copy-3" fill="#FFFFFF" x="0" y="0" width="48" height="42"></rect>
                <g id="flexibility-copy" transform="translate(4.000000, 1.000000)">
                    <g id="flexibility">
                        <g id="Page-1">
                            <g id="Selfie_detail_page_with_Account_opening_form">
                                <g id="Group-5-Copy-2">
                                    <g id="noun_776592_cc">
                                        <g id="flexibility">
                                            <path d="M33.2721376,18.2819967 L29.823874,18.2819967 C29.5745469,16.8588973 29.016744,15.5076198 28.1896259,14.3230306 L30.6409981,11.8716584 C32.2227522,12.3336931 33.9165433,11.6652074 34.7563991,10.2474399 C35.5962549,8.8296725 35.3686873,7.02301417 34.2034787,5.85780556 C33.0382701,4.69259695 31.2316118,4.46502945 29.8138444,5.30488522 C28.3960769,6.144741 27.7275912,7.83853206 28.1896259,9.4202862 L25.7382537,11.8716584 C24.5536645,11.0445403 23.202387,10.4867374 21.7792876,10.2374103 L21.7792876,6.76871862 C23.2222587,5.97516778 23.9447076,4.30519165 23.5350548,2.71017664 C23.1254021,1.11516163 21.6876374,9.07189948e-16 20.0408562,0 C18.394075,-8.16470953e-16 16.9563104,1.11516163 16.5466576,2.71017664 C16.1370048,4.30519165 16.8594538,5.97516778 18.3024248,6.76871862 L18.3024248,10.2128965 C16.8793254,10.4622237 15.5280479,11.0200266 14.3434587,11.8471447 L11.8920865,9.39577248 C12.3541212,7.81401834 11.6856355,6.12022728 10.267868,5.2803715 C8.8501006,4.44051573 7.04344228,4.66808323 5.87823367,5.83329184 C4.71302506,6.99850045 4.48545755,8.80515878 5.32531333,10.2229262 C6.1651691,11.6406936 7.85896016,12.3091793 9.4407143,11.8471447 L11.8920865,14.2985169 C11.0648518,15.4830423 10.5070378,16.8343465 10.2578384,18.2574829 L6.76871862,18.2574829 C5.97516778,16.8145119 4.30519165,16.092063 2.71017664,16.5017158 C1.11516163,16.9113685 2.72156984e-16,18.3491332 0,19.9959144 C-1.8143799e-16,21.6426956 1.11516163,23.0804602 2.71017664,23.490113 C4.30519165,23.8997657 5.97516778,23.1773168 6.76871862,21.7343458 L10.2128965,21.7343458 C10.462096,23.1574823 11.0199099,24.5087865 11.8471447,25.6933119 L9.39577248,28.1446841 C7.81401834,27.6826494 6.12022728,28.3511351 5.2803715,29.7689025 C4.44051573,31.18667 4.66808323,32.9933283 5.83329184,34.1585369 C6.99850045,35.3237455 8.80515878,35.551313 10.2229262,34.7114573 C11.6406936,33.8716015 12.3091793,32.1778104 11.8471447,30.5960563 L14.2985169,28.1446841 C15.4831061,28.9718022 16.8343835,29.529605 18.2574829,29.7789322 L18.2574829,33.2312814 C16.8145119,34.0248322 16.092063,35.6948084 16.5017158,37.2898234 C16.9113685,38.8848384 18.3491332,40 19.9959144,40 C21.6426956,40 23.0804602,38.8848384 23.490113,37.2898234 C23.8997657,35.6948084 23.1773168,34.0248322 21.7343458,33.2312814 L21.7343458,29.823874 C23.1574452,29.5745469 24.5087227,29.016744 25.6933119,28.1896259 L28.1446841,30.6409981 C27.6826494,32.2227522 28.3511351,33.9165433 29.7689025,34.7563991 C31.18667,35.5962549 32.9933283,35.3686873 34.1585369,34.2034787 C35.3237455,33.0382701 35.551313,31.2316118 34.7114573,29.8138444 C33.8716015,28.3960769 32.1778104,27.7275912 30.5960563,28.1896259 L28.1446841,25.7382537 C28.9718022,24.5536645 29.529605,23.202387 29.7789322,21.7792876 L33.2312814,21.7792876 C34.0804489,23.3210291 35.9182355,24.0249245 37.5800571,23.4449235 C39.2418787,22.8649225 40.2425659,21.1703566 39.9479947,19.4350526 C39.6534235,17.6997485 38.1495941,16.4303291 36.3894659,16.4312107 C36.3894659,16.4312107 33.9064203,17.1305119 33.2721376,18.2819967 Z" id="Shape" stroke="#046567" fill="#FFFFFF"></path>
                                            <path d="M20.8603904,26.3900003 C20.9730268,26.3900003 21.0997427,26.3477617 21.1982995,26.277364 C21.4517313,26.0943299 21.49397,25.7282617 21.3109359,25.4889094 L17.7065721,20.758182 L18.0444812,20.758182 C19.7199472,20.758182 21.0997427,19.5332615 21.3813336,17.9422728 L23.1835155,17.9422728 C23.4932655,17.9422728 23.7466973,17.688841 23.7466973,17.379091 C23.7466973,17.069341 23.4932655,16.8159092 23.1835155,16.8159092 L21.3813336,16.8159092 C21.2686972,16.1682501 20.9871063,15.5909887 20.56472,15.1263637 L23.1835155,15.1263637 C23.4932655,15.1263637 23.7466973,14.8729318 23.7466973,14.5631818 C23.7466973,14.2534318 23.4932655,14 23.1835155,14 L18.0444812,14 L16.5661289,14 C16.2563789,14 16.0029471,14.2534318 16.0029471,14.5631818 C16.0029471,14.8729318 16.2563789,15.1263637 16.5661289,15.1263637 L18.0444812,15.1263637 C19.0863676,15.1263637 19.973379,15.8444205 20.2268109,16.8159092 L16.5661289,16.8159092 C16.2563789,16.8159092 16.0029471,17.069341 16.0029471,17.379091 C16.0029471,17.688841 16.2563789,17.9422728 16.5661289,17.9422728 L20.2268109,17.9422728 C19.973379,18.9137615 19.1004472,19.6318183 18.0444812,19.6318183 L16.5661289,19.6318183 C16.3549357,19.6318183 16.1578221,19.7585343 16.0592653,19.9415683 C15.9607085,20.138682 15.9888676,20.3639547 16.1155835,20.5329093 L20.4098449,26.1647276 C20.5224813,26.3055231 20.6914359,26.3900003 20.8603904,26.3900003 Z" id="Shape" fill="#046567"></path>
                                        </g>
                                    </g>
                                </g>
                            </g>
                        </g>
                    </g>
                </g>
            </g>
        </g>
    </g>
</svg>