<?xml version="1.0" encoding="UTF-8"?>
<svg width="9px" height="8px" viewBox="0 0 9 8" version="1.1" xmlns="http://www.w3.org/2000/svg" xmlns:xlink="http://www.w3.org/1999/xlink">
    <!-- Generator: Sketch 41.2 (35397) - http://www.bohemiancoding.com/sketch -->
    <title>Group 6</title>
    <desc>Created with Sketch.</desc>
    <defs></defs>
    <g id="Symbols" stroke="none" stroke-width="1" fill="none" fill-rule="evenodd" opacity="0.300000012">
        <g id="footer-copy" transform="translate(-830.000000, -238.000000)" fill="#FFFFFF">
            <g id="Group-6" transform="translate(830.000000, 238.000000)">
                <path d="M5.625,3.85 C5.625,4.04800099 5.57400051,4.23399913 5.472,4.408 C5.36999949,4.58200087 5.23200087,4.71999949 5.058,4.822 C4.88399913,4.92400051 4.69800099,4.975 4.5,4.975 C4.30199901,4.975 4.11600087,4.92400051 3.942,4.822 C3.76799913,4.71999949 3.63000051,4.58200087 3.528,4.408 C3.42599949,4.23399913 3.375,4.04800099 3.375,3.85 C3.375,3.65199901 3.42599949,3.46600087 3.528,3.292 C3.63000051,3.11799913 3.76799913,2.98000051 3.942,2.878 C4.11600087,2.77599949 4.30199901,2.725 4.5,2.725 C4.69800099,2.725 4.88399913,2.77599949 5.058,2.878 C5.23200087,2.98000051 5.36999949,3.11799913 5.472,3.292 C5.57400051,3.46600087 5.625,3.65199901 5.625,3.85 Z M4.5,6.856 C5.0400027,6.856 5.54399766,6.71800138 6.012,6.442 C6.46800228,6.17799868 6.82799868,5.81800228 7.092,5.362 C7.36800138,4.89399766 7.506,4.3900027 7.506,3.85 C7.506,3.3099973 7.36800138,2.80600234 7.092,2.338 C6.82799868,1.88199772 6.46800228,1.52200132 6.012,1.258 C5.54399766,0.98199862 5.0400027,0.844 4.5,0.844 C3.9599973,0.844 3.45600234,0.98199862 2.988,1.258 C2.53199772,1.52200132 2.17200132,1.88199772 1.908,2.338 C1.63199862,2.80600234 1.494,3.3099973 1.494,3.85 C1.494,4.3900027 1.63199862,4.89399766 1.908,5.362 C2.17200132,5.81800228 2.53199772,6.17799868 2.988,6.442 C3.45600234,6.71800138 3.9599973,6.856 4.5,6.856 Z M4.5,0.106 C5.18400342,0.106 5.81699709,0.27699829 6.399,0.619 C6.96300282,0.94300162 7.40699838,1.38699718 7.731,1.951 C8.07300171,2.53300291 8.244,3.16599658 8.244,3.85 C8.244,4.53400342 8.07300171,5.16699709 7.731,5.749 C7.40699838,6.31300282 6.96300282,6.75699838 6.399,7.081 C5.81699709,7.42300171 5.18400342,7.594 4.5,7.594 C3.81599658,7.594 3.18300291,7.42300171 2.601,7.081 C2.03699718,6.75099835 1.59300162,6.30400282 1.269,5.74 C0.92699829,5.15799709 0.756,4.52800339 0.756,3.85 C0.756,3.17199661 0.92699829,2.54200291 1.269,1.96 C1.59900165,1.39599718 2.04599718,0.94900165 2.61,0.619 C3.19200291,0.27699829 3.82199661,0.106 4.5,0.106 Z" id="-"></path>
            </g>
        </g>
    </g>
</svg>