<?xml version="1.0" encoding="UTF-8"?>
<svg width="13px" height="12px" viewBox="0 0 13 12" version="1.1" xmlns="http://www.w3.org/2000/svg" xmlns:xlink="http://www.w3.org/1999/xlink">
    <!-- Generator: Sketch 41.2 (35397) - http://www.bohemiancoding.com/sketch -->
    <title>geojit_icon</title>
    <desc>Created with Sketch.</desc>
    <defs></defs>
    <g id="Page-1" stroke="none" stroke-width="1" fill="none" fill-rule="evenodd">
        <g id="symbol-search-dropdown" transform="translate(-569.000000, -222.000000)">
            <g id="geojit_icon" transform="translate(569.000000, 222.000000)">
                <polygon id="Fill-1" fill="#185C5C" points="0.236543322 11.9431911 11.7957126 11.9431911 11.7957126 0.384021825 0.236543322 0.384021825"></polygon>
                <path d="M6.68570712,9.40769391 C9.16575231,9.1933195 11.0926469,7.70325422 11.0926469,5.90112735 C11.0926469,5.86101611 11.0901474,5.82090488 11.0882247,5.7804098 L10.7804061,5.7804098 L9.68602538,5.7804098 L7.13580292,5.7804098 C7.13580292,6.58397798 7.78854759,6.79393823 8.59375957,6.79393823 L9.56220577,6.79393823 C9.53548074,7.77560798 7.91082906,9.18391543 6.68570712,9.40769391 L6.68570712,9.40769391 Z" id="Fill-2" fill="#FFFFFF"></path>
                <path d="M4.29289322,2.59630688 C2.39656902,3.10201554 1.04435894,4.39248423 1.04435894,5.90135765 C1.04435894,7.66011065 2.8801192,9.12196372 5.27441355,9.39084335 C3.75243217,9.07359993 2.56230272,7.80155553 2.3869557,6.23280314 C2.21218548,4.67038409 3.03162517,3.27551103 4.29289322,2.59630688" id="Fill-4" fill="#FFFFFF"></path>
                <path d="M10.8462766,4.81014009 C10.3556126,3.74978323 9.17048207,2.90898261 7.67003454,2.55277947 C8.57214881,3.00820514 9.26219317,3.82348043 9.54501715,4.81014009 L10.8462766,4.81014009 Z" id="Fill-6" fill="#FFFFFF"></path>
                <polygon id="Fill-19" fill="#006C67" points="1.2990572 11.7395002 12.8381217 11.7395002 12.8381217 0.221049933 1.2990572 0.221049933"></polygon>
                <path d="M6.68570712,9.40769391 C9.16575231,9.1933195 11.0926469,7.70325422 11.0926469,5.90112735 C11.0926469,5.86101611 11.0901474,5.82090488 11.0882247,5.7804098 L10.7804061,5.7804098 L9.68602538,5.7804098 L7.13580292,5.7804098 C7.13580292,6.58397798 7.78854759,6.79393823 8.59375957,6.79393823 L9.56220577,6.79393823 C9.53548074,7.77560798 7.91082906,9.18391543 6.68570712,9.40769391" id="Fill-20" fill="#FFFFFF"></path>
                <path d="M4.29289322,2.59630688 C2.39656902,3.10201554 1.04435894,4.39248423 1.04435894,5.90135765 C1.04435894,7.66011065 2.8801192,9.12196372 5.27441355,9.39084335 C3.75243217,9.07359993 2.56230272,7.80155553 2.3869557,6.23280314 C2.21218548,4.67038409 3.03162517,3.27551103 4.29289322,2.59630688" id="Fill-21" fill="#FFFFFF"></path>
                <path d="M10.8462766,4.81014009 C10.3556126,3.74978323 9.17048207,2.90898261 7.67003454,2.55277947 C8.57214881,3.00820514 9.26219317,3.82348043 9.54501715,4.81014009 L10.8462766,4.81014009 Z" id="Fill-22" fill="#FFFFFF"></path>
            </g>
        </g>
    </g>
</svg>