<?xml version="1.0" encoding="UTF-8"?>
<svg width="17px" height="17px" viewBox="0 0 17 17" version="1.1" xmlns="http://www.w3.org/2000/svg" xmlns:xlink="http://www.w3.org/1999/xlink">
    <!-- Generator: Sketch 41.2 (35397) - http://www.bohemiancoding.com/sketch -->
    <title>geojit_icon</title>
    <desc>Created with Sketch.</desc>
    <defs></defs>
    <g id="Page-1" stroke="none" stroke-width="1" fill="none" fill-rule="evenodd">
        <g id="snapshot_dropdown" transform="translate(-223.000000, -329.000000)">
            <g id="geojit_icon" transform="translate(223.000000, 329.000000)">
                <polygon id="Fill-1" fill="#185C5C" points="0.33510304 16.9195207 16.7105928 16.9195207 16.7105928 0.544030919 0.33510304 0.544030919"></polygon>
                <path d="M9.47141842,13.3275664 C12.9848158,13.0238693 15.7145831,10.9129435 15.7145831,8.35993041 C15.7145831,8.30310616 15.7110422,8.24628191 15.7083184,8.18891388 L15.272242,8.18891388 L13.7218693,8.18891388 L10.1090541,8.18891388 C10.1090541,9.32730213 11.0337758,9.62474583 12.1744927,9.62474583 L13.5464582,9.62474583 C13.5085977,11.0154446 11.2070078,13.0105469 9.47141842,13.3275664 L9.47141842,13.3275664 Z" id="Fill-2" fill="#FFFFFF"></path>
                <path d="M6.08159873,3.67810141 C3.39513945,4.39452201 1.4795085,6.222686 1.4795085,8.36025668 C1.4795085,10.8518234 4.08016886,12.9227819 7.47208586,13.3036947 C5.31594558,12.8542666 3.62992886,11.0522037 3.38152058,8.82980445 C3.13392943,6.61637747 4.29480233,4.64030729 6.08159873,3.67810141" id="Fill-4" fill="#FFFFFF"></path>
                <path d="M15.3655585,6.81436513 C14.6704512,5.3121929 12.9915163,4.1210587 10.8658823,3.61643758 C12.1438775,4.26162395 13.1214403,5.41659727 13.5221076,6.81436513 L15.3655585,6.81436513 Z" id="Fill-6" fill="#FFFFFF"></path>
                <polygon id="Fill-19" fill="#006C67" points="0.423664362 16.6309586 16.7706724 16.6309586 16.7706724 0.313154072 0.423664362 0.313154072"></polygon>
                <path d="M9.47141842,13.3275664 C12.9848158,13.0238693 15.7145831,10.9129435 15.7145831,8.35993041 C15.7145831,8.30310616 15.7110422,8.24628191 15.7083184,8.18891388 L15.272242,8.18891388 L13.7218693,8.18891388 L10.1090541,8.18891388 C10.1090541,9.32730213 11.0337758,9.62474583 12.1744927,9.62474583 L13.5464582,9.62474583 C13.5085977,11.0154446 11.2070078,13.0105469 9.47141842,13.3275664" id="Fill-20" fill="#FFFFFF"></path>
                <path d="M6.08159873,3.67810141 C3.39513945,4.39452201 1.4795085,6.222686 1.4795085,8.36025668 C1.4795085,10.8518234 4.08016886,12.9227819 7.47208586,13.3036947 C5.31594558,12.8542666 3.62992886,11.0522037 3.38152058,8.82980445 C3.13392943,6.61637747 4.29480233,4.64030729 6.08159873,3.67810141" id="Fill-21" fill="#FFFFFF"></path>
                <path d="M15.3655585,6.81436513 C14.6704512,5.3121929 12.9915163,4.1210587 10.8658823,3.61643758 C12.1438775,4.26162395 13.1214403,5.41659727 13.5221076,6.81436513 L15.3655585,6.81436513 Z" id="Fill-22" fill="#FFFFFF"></path>
            </g>
        </g>
    </g>
</svg>