<?xml version="1.0" encoding="UTF-8"?>
<svg width="30px" height="30px" viewBox="0 0 30 30" version="1.1" xmlns="http://www.w3.org/2000/svg" xmlns:xlink="http://www.w3.org/1999/xlink">
    <!-- Generator: Sketch 41.2 (35397) - http://www.bohemiancoding.com/sketch -->
    <title>Shape</title>
    <desc>Created with Sketch.</desc>
    <defs></defs>
    <g id="Page-1" stroke="none" stroke-width="1" fill="none" fill-rule="evenodd">
        <g id="symbol-search-dropdown" transform="translate(-1055.000000, -209.000000)" fill="#046567">
            <g id="Group-4" transform="translate(311.000000, 120.000000)">
                <g id="Group-3" transform="translate(276.000000, 14.000000)">
                    <g id="Group-2">
                        <g id="noun_740215_cc" transform="translate(468.000000, 75.000000)">
                            <g id="Group">
                                <g id="Shape">
                                    <path d="M0.681818182,0.122083146 C0.30525,0.122083146 0,0.423903371 0,0.796240449 L0,29.1108539 C0,29.483191 0.30525,29.7850112 0.681818182,29.7850112 L29.3181818,29.7850112 C29.69475,29.7850112 30,29.483191 30,29.1108539 C30,28.7385169 29.69475,28.4366966 29.3181818,28.4366966 L1.36363636,28.4366966 L1.36363636,0.796240449 C1.36363636,0.423903371 1.05838636,0.122083146 0.681818182,0.122083146 L0.681818182,0.122083146 Z M25.2272727,6.52657753 C24.1056818,6.52657753 23.1818182,7.44005393 23.1818182,8.54904944 C23.1818182,9.0038427 23.3365909,9.42091348 23.5973182,9.76042584 L19.5170455,16.1122584 C19.27875,16.0151124 19.0219091,15.9647865 18.75,15.9647865 C18.1813295,15.9647865 17.6735114,16.1996629 17.3011364,16.5757416 L13.9133523,14.4163483 C13.9521477,14.2618315 13.9772727,14.1079449 13.9772727,13.9423045 C13.9772727,12.8333124 13.0534091,11.919836 11.9318182,11.919836 C10.8102273,11.919836 9.88636364,12.8333124 9.88636364,13.9423045 C9.88636364,14.4025955 10.0461477,14.8226629 10.3125,15.1642247 L6.42402273,21.3791124 C6.33017045,21.3659663 6.233625,21.3582135 6.13636364,21.3582135 C5.01477273,21.3582135 4.09090909,22.2716966 4.09090909,23.3806854 C4.09090909,24.4896742 5.01477273,25.4031573 6.13636364,25.4031573 C7.25795455,25.4031573 8.18181818,24.4896742 8.18181818,23.3806854 C8.18181818,22.851809 7.96929545,22.3628427 7.62784091,22.0007528 L11.4524318,15.9017528 C11.6075114,15.9395393 11.7656591,15.9649551 11.9318182,15.9649551 C12.3953523,15.9649551 12.8228864,15.8049775 13.1676136,15.5436067 L16.7151818,17.7978202 C16.7093864,17.8588315 16.7046136,17.9250337 16.7046136,17.987427 C16.7046136,19.0964157 17.6284773,20.0098989 18.7500682,20.0098989 C19.8716591,20.0098989 20.7955227,19.0964157 20.7955227,17.987427 C20.7955227,17.6408764 20.7087955,17.3047753 20.5504773,17.0183258 L24.7372841,10.5084876 C24.8953636,10.5477876 25.0577386,10.5716899 25.2273409,10.5716899 C26.3489318,10.5716899 27.2727955,9.65821348 27.2727955,8.54921798 C27.2727955,7.2477809 26.1588409,6.52743708 25.2272727,6.52674607 L25.2272727,6.52657753 Z"></path>
                                </g>
                            </g>
                        </g>
                    </g>
                </g>
            </g>
        </g>
    </g>
</svg>