<?xml version="1.0" encoding="UTF-8"?>
<svg width="24px" height="17px" viewBox="0 0 24 17" version="1.1" xmlns="http://www.w3.org/2000/svg" xmlns:xlink="http://www.w3.org/1999/xlink">
    <!-- Generator: Sketch 41.2 (35397) - http://www.bohemiancoding.com/sketch -->
    <title>hambergur</title>
    <desc>Created with Sketch.</desc>
    <defs></defs>
    <g id="Page-1" stroke="none" stroke-width="1" fill="none" fill-rule="evenodd" opacity="0.800000012">
        <g id="snapshot_dropdown" transform="translate(-162.000000, -343.000000)" stroke="#323232" fill="#323232">
            <g id="dropdown" transform="translate(150.000000, 302.000000)">
                <g id="noun_727799_cc" transform="translate(13.000000, 41.000000)">
                    <g id="hambergur" transform="translate(0.000000, 0.270612)">
                        <path d="M0.732678669,0.987749604 C0.497063733,0.987749604 0.306055646,1.17769824 0.306055646,1.4120262 C0.306055646,1.64631174 0.497063733,1.8363028 0.732678669,1.8363028 L21.2105837,1.8363028 C21.4461987,1.8363028 21.6372068,1.64631174 21.6372068,1.4120262 C21.6372068,1.17769824 21.4461987,0.987749604 21.2105837,0.987749604 L0.732678669,0.987749604 Z M0.732678669,7.77618362 C0.497063733,7.77618362 0.306055646,7.96613225 0.306055646,8.20046022 C0.306055646,8.43474575 0.497063733,8.62473681 0.732678669,8.62473681 L21.2105837,8.62473681 C21.4461987,8.62473681 21.6372068,8.43474575 21.6372068,8.20046022 C21.6372068,7.96613225 21.4461987,7.77618362 21.2105837,7.77618362 L0.732678669,7.77618362 Z M0.732678669,14.5646092 C0.497063733,14.5646092 0.306055646,14.7545578 0.306055646,14.9888857 C0.306055646,15.2231713 0.497063733,15.4131623 0.732678669,15.4131623 L21.2105837,15.4131623 C21.4461987,15.4131623 21.6372068,15.2231713 21.6372068,14.9888857 C21.6372068,14.7545578 21.4461987,14.5646092 21.2105837,14.5646092 L0.732678669,14.5646092 Z" id="Shape"></path>
                    </g>
                </g>
            </g>
        </g>
    </g>
</svg>