<?xml version="1.0" encoding="UTF-8"?>
<svg width="19px" height="19px" viewBox="0 0 19 19" version="1.1" xmlns="http://www.w3.org/2000/svg" xmlns:xlink="http://www.w3.org/1999/xlink">
    <!-- Generator: Sketch 41.2 (35397) - http://www.bohemiancoding.com/sketch -->
    <title>help-outline - MaterialIcons-Regular</title>
    <desc>Created with Sketch.</desc>
    <defs></defs>
    <g id="Page-1" stroke="none" stroke-width="1" fill="none" fill-rule="evenodd">
        <g id="Support" transform="translate(-1234.000000, -4400.000000)" fill="#046567">
            <path d="M1243.32,4403.71925 C1244.34098,4403.71925 1245.21608,4404.08388 1245.94535,4404.81315 C1246.67462,4405.54241 1247.03925,4406.41752 1247.03925,4407.4385 C1247.03925,4408.22611 1246.57252,4409.03558 1245.63906,4409.86695 C1244.7056,4410.69831 1244.23887,4411.44945 1244.23887,4412.12038 L1242.40113,4412.12038 C1242.40113,4411.44945 1242.54698,4410.87334 1242.83869,4410.39202 C1243.13039,4409.9107 1243.45127,4409.56066 1243.80131,4409.34188 C1244.15136,4409.1231 1244.47224,4408.85327 1244.76394,4408.53239 C1245.05565,4408.21152 1245.2015,4407.84689 1245.2015,4407.4385 C1245.2015,4406.9426 1245.0119,4406.51233 1244.63268,4406.1477 C1244.25346,4405.78307 1243.8159,4405.60075 1243.32,4405.60075 C1242.8241,4405.60075 1242.38654,4405.78307 1242.00732,4406.1477 C1241.6281,4406.51233 1241.4385,4406.9426 1241.4385,4407.4385 L1239.60075,4407.4385 C1239.60075,4406.41752 1239.96538,4405.54241 1240.69465,4404.81315 C1241.42392,4404.08388 1242.29902,4403.71925 1243.32,4403.71925 L1243.32,4403.71925 Z M1243.32,4416.80225 C1245.36195,4416.80225 1247.11946,4416.0657 1248.59258,4414.59258 C1250.0657,4413.11946 1250.80225,4411.36195 1250.80225,4409.32 C1250.80225,4407.27805 1250.0657,4405.52054 1248.59258,4404.04742 C1247.11946,4402.5743 1245.36195,4401.83775 1243.32,4401.83775 C1241.27805,4401.83775 1239.52054,4402.5743 1238.04742,4404.04742 C1236.5743,4405.52054 1235.83775,4407.27805 1235.83775,4409.32 C1235.83775,4411.36195 1236.5743,4413.11946 1238.04742,4414.59258 C1239.52054,4416.0657 1241.27805,4416.80225 1243.32,4416.80225 L1243.32,4416.80225 Z M1243.32,4400 C1245.88702,4400 1248.08209,4400.91157 1249.90526,4402.73474 C1251.72843,4404.55791 1252.64,4406.75298 1252.64,4409.32 C1252.64,4411.88702 1251.72843,4414.08209 1249.90526,4415.90526 C1248.08209,4417.72843 1245.88702,4418.64 1243.32,4418.64 C1240.75298,4418.64 1238.55791,4417.72843 1236.73474,4415.90526 C1234.91157,4414.08209 1234,4411.88702 1234,4409.32 C1234,4406.75298 1234.91157,4404.55791 1236.73474,4402.73474 C1238.55791,4400.91157 1240.75298,4400 1243.32,4400 L1243.32,4400 Z M1242.40113,4414.92075 L1242.40113,4413.03925 L1244.23887,4413.03925 L1244.23887,4414.92075 L1242.40113,4414.92075 Z" id="help-outline---MaterialIcons-Regular"></path>
        </g>
    </g>
</svg>