<?xml version="1.0" encoding="UTF-8"?>
<svg width="11px" height="15px" viewBox="0 0 11 15" version="1.1" xmlns="http://www.w3.org/2000/svg" xmlns:xlink="http://www.w3.org/1999/xlink">
    <!-- Generator: Sketch 41.2 (35397) - http://www.bohemiancoding.com/sketch -->
    <title>noun_40198_cc</title>
    <desc>Created with Sketch.</desc>
    <defs></defs>
    <g id="Page-1" stroke="none" stroke-width="1" fill="none" fill-rule="evenodd" opacity="0.5">
        <g id="Home-page_member" transform="translate(-164.000000, -19.000000)" fill="#FFFFFF">
            <g id="header">
                <g id="noun_40198_cc" transform="translate(164.000000, 19.000000)">
                    <g id="Group">
                        <ellipse id="Oval" cx="2.97916667" cy="14.3181818" rx="0.6875" ry="0.681818182"></ellipse>
                        <ellipse id="Oval" cx="0.6875" cy="12.0454545" rx="0.6875" ry="0.681818182"></ellipse>
                        <ellipse id="Oval" cx="0.6875" cy="9.77272727" rx="0.6875" ry="0.681818182"></ellipse>
                        <ellipse id="Oval" cx="0.6875" cy="7.5" rx="0.6875" ry="0.681818182"></ellipse>
                        <ellipse id="Oval" cx="5.27083333" cy="14.3181818" rx="0.6875" ry="0.681818182"></ellipse>
                        <ellipse id="Oval" cx="2.97916667" cy="12.0454545" rx="0.6875" ry="0.681818182"></ellipse>
                        <ellipse id="Oval" cx="2.97916667" cy="9.77272727" rx="0.6875" ry="0.681818182"></ellipse>
                        <ellipse id="Oval" cx="2.97916667" cy="7.5" rx="0.6875" ry="0.681818182"></ellipse>
                        <ellipse id="Oval" cx="0.6875" cy="14.3181818" rx="0.6875" ry="0.681818182"></ellipse>
                        <ellipse id="Oval" cx="7.5625" cy="14.3181818" rx="0.6875" ry="0.681818182"></ellipse>
                        <ellipse id="Oval" cx="5.27083333" cy="12.0454545" rx="0.6875" ry="0.681818182"></ellipse>
                        <ellipse id="Oval" cx="5.27083333" cy="9.77272727" rx="0.6875" ry="0.681818182"></ellipse>
                        <ellipse id="Oval" cx="5.27083333" cy="7.5" rx="0.6875" ry="0.681818182"></ellipse>
                        <ellipse id="Oval" cx="9.85416667" cy="14.3181818" rx="0.6875" ry="0.681818182"></ellipse>
                        <ellipse id="Oval" cx="2.97916667" cy="5.22727273" rx="0.6875" ry="0.681818182"></ellipse>
                        <ellipse id="Oval" cx="2.97916667" cy="2.95454545" rx="0.6875" ry="0.681818182"></ellipse>
                        <ellipse id="Oval" cx="5.27083333" cy="5.22727273" rx="0.6875" ry="0.681818182"></ellipse>
                        <ellipse id="Oval" cx="5.27083333" cy="2.95454545" rx="0.6875" ry="0.681818182"></ellipse>
                        <ellipse id="Oval" cx="5.27083333" cy="0.681818182" rx="0.6875" ry="0.681818182"></ellipse>
                        <ellipse id="Oval" cx="0.6875" cy="5.22727273" rx="0.6875" ry="0.681818182"></ellipse>
                        <ellipse id="Oval" cx="7.5625" cy="5.22727273" rx="0.6875" ry="0.681818182"></ellipse>
                        <ellipse id="Oval" cx="7.5625" cy="2.95454545" rx="0.6875" ry="0.681818182"></ellipse>
                        <ellipse id="Oval" cx="9.85416667" cy="5.22727273" rx="0.6875" ry="0.681818182"></ellipse>
                        <ellipse id="Oval" cx="9.85416667" cy="12.0454545" rx="0.6875" ry="0.681818182"></ellipse>
                        <ellipse id="Oval" cx="9.85416667" cy="9.77272727" rx="0.6875" ry="0.681818182"></ellipse>
                        <ellipse id="Oval" cx="9.85416667" cy="7.5" rx="0.6875" ry="0.681818182"></ellipse>
                        <ellipse id="Oval" cx="7.5625" cy="12.0454545" rx="0.6875" ry="0.681818182"></ellipse>
                        <ellipse id="Oval" cx="7.5625" cy="9.77272727" rx="0.6875" ry="0.681818182"></ellipse>
                        <ellipse id="Oval" cx="7.5625" cy="7.5" rx="0.6875" ry="0.681818182"></ellipse>
                    </g>
                </g>
            </g>
        </g>
    </g>
</svg>