<?xml version="1.0" encoding="UTF-8"?>
<svg width="19px" height="4px" viewBox="0 0 19 4" version="1.1" xmlns="http://www.w3.org/2000/svg" xmlns:xlink="http://www.w3.org/1999/xlink">
    <!-- Generator: Sketch 41.2 (35397) - http://www.bohemiancoding.com/sketch -->
    <title>...</title>
    <desc>Created with Sketch.</desc>
    <defs></defs>
    <g id="Page-1" stroke="none" stroke-width="1" fill="none" fill-rule="evenodd">
        <g id="FINANCIAL-SOLUTIONS" transform="translate(-1234.000000, -4407.000000)" fill="#046567">
            <g id="Group-11" transform="translate(1234.000000, 4407.000000)">
                <path d="M0,1.99272727 C0,3.09818182 0.887272727,4 1.99272727,4 C3.08363636,4 3.98545455,3.09818182 3.98545455,1.99272727 C3.98545455,0.901818182 3.08363636,0 1.99272727,0 C0.887272727,0 0,0.901818182 0,1.99272727 Z M7.42413964,1.99272727 C7.42413964,3.09818182 8.31141236,4 9.41686691,4 C10.507776,4 11.4095942,3.09818182 11.4095942,1.99272727 C11.4095942,0.901818182 10.507776,0 9.41686691,0 C8.31141236,0 7.42413964,0.901818182 7.42413964,1.99272727 Z M14.8482793,1.99272727 C14.8482793,3.09818182 15.735552,4 16.8410065,4 C17.9319156,4 18.8337338,3.09818182 18.8337338,1.99272727 C18.8337338,0.901818182 17.9319156,0 16.8410065,0 C15.735552,0 14.8482793,0.901818182 14.8482793,1.99272727 Z" id="..."></path>
            </g>
        </g>
    </g>
</svg>