<?xml version="1.0" encoding="UTF-8"?>
<svg width="10px" height="14px" viewBox="0 0 10 14" version="1.1" xmlns="http://www.w3.org/2000/svg" xmlns:xlink="http://www.w3.org/1999/xlink">
    <!-- Generator: Sketch 41.2 (35397) - http://www.bohemiancoding.com/sketch -->
    <title>inr - FontAwesome</title>
    <desc>Created with Sketch.</desc>
    <defs></defs>
    <g id="Page-1" stroke="none" stroke-width="1" fill="none" fill-rule="evenodd">
        <g id="Equity" transform="translate(-392.000000, -948.000000)" stroke="#D5D8D8" fill="#000000">
            <path d="M400.653409,951.914773 C400.653409,951.761364 400.534091,951.642045 400.380682,951.642045 L398.923295,951.642045 C398.829545,951.173295 398.650568,950.764205 398.377841,950.414773 L400.363636,950.414773 C400.517045,950.414773 400.636364,950.295455 400.636364,950.142045 L400.636364,949.272727 C400.636364,949.119318 400.517045,949 400.363636,949 L393.272727,949 C393.119318,949 393,949.119318 393,949.272727 L393,950.40625 C393,950.551136 393.119318,950.678977 393.272727,950.678977 L394.508523,950.678977 C395.701705,950.678977 396.46875,951.002841 396.792614,951.642045 L393.272727,951.642045 C393.119318,951.642045 393,951.761364 393,951.914773 L393,952.784091 C393,952.9375 393.119318,953.056818 393.272727,953.056818 L396.911932,953.056818 C396.664773,953.985795 395.727273,954.488636 394.227273,954.488636 L393.272727,954.488636 C393.119318,954.488636 393,954.616477 393,954.761364 L393,955.84375 C393,955.911932 393.025568,955.980114 393.076705,956.03125 C394.6875,957.744318 395.948864,959.252841 397.321023,960.897727 C397.372159,960.965909 397.448864,961 397.534091,961 L399.196023,961 C399.306818,961 399.400568,960.940341 399.443182,960.846591 C399.494318,960.752841 399.477273,960.633523 399.409091,960.556818 C398.122159,958.980114 396.767045,957.34375 395.497159,955.988636 C397.431818,955.758523 398.684659,954.693182 398.948864,953.056818 L400.380682,953.056818 C400.534091,953.056818 400.653409,952.9375 400.653409,952.784091 L400.653409,951.914773 Z" id="inr---FontAwesome"></path>
        </g>
    </g>
</svg>