<?xml version="1.0" encoding="UTF-8"?>
<svg width="22px" height="30px" viewBox="0 0 22 30" version="1.1" xmlns="http://www.w3.org/2000/svg" xmlns:xlink="http://www.w3.org/1999/xlink">
    <!-- Generator: Sketch 41.2 (35397) - http://www.bohemiancoding.com/sketch -->
    <title>noun_751969_cc</title>
    <desc>Created with Sketch.</desc>
    <defs></defs>
    <g id="Page-1" stroke="none" stroke-width="1" fill="none" fill-rule="evenodd">
        <g id="ContactUs_search_drop_down" transform="translate(-1074.000000, -376.000000)" fill="#046567">
            <g id="noun_751969_cc" transform="translate(1074.000000, 376.000000)">
                <g id="Group">
                    <g id="Shape">
                        <path d="M18.1836735,11.0204082 C18.1836735,6.91836735 14.8163265,3.55102041 10.7142857,3.55102041 C6.6122449,3.55102041 3.24489796,6.91836735 3.24489796,11.0204082 C3.24489796,15.122449 6.6122449,18.4897959 10.7142857,18.4897959 C14.8163265,18.4897959 18.1836735,15.122449 18.1836735,11.0204082 Z M4.46938776,11.0204082 C4.46938776,7.59183673 7.28571429,4.7755102 10.7142857,4.7755102 C14.1428571,4.7755102 16.9591837,7.59183673 16.9591837,11.0204082 C16.9591837,14.4489796 14.1428571,17.2653061 10.7142857,17.2653061 C7.28571429,17.2653061 4.46938776,14.4489796 4.46938776,11.0204082 Z"></path>
                        <path d="M19.5306122,28.4693878 L12,28.4693878 C14.3877551,25.3469388 21.4285714,15.8571429 21.4285714,11.0204082 C21.4285714,5.14285714 16.6530612,0.306122449 10.7142857,0.306122449 C4.83673469,0.306122449 0,5.08163265 0,11.0204082 C0,15.8571429 7.04081633,25.3469388 9.42857143,28.4693878 L1.89795918,28.4693878 C1.53061224,28.4693878 1.28571429,28.7142857 1.28571429,29.0816327 C1.28571429,29.4489796 1.53061224,29.6938776 1.89795918,29.6938776 L19.5306122,29.6938776 C19.8979592,29.6938776 20.1428571,29.4489796 20.1428571,29.0816327 C20.1428571,28.7142857 19.8367347,28.4693878 19.5306122,28.4693878 Z M10.7142857,1.53061224 C15.9183673,1.53061224 20.2040816,5.75510204 20.2040816,11.0204082 C20.2040816,15.6122449 12.7346939,25.5306122 10.7142857,28.1020408 C8.75510204,25.5306122 1.2244898,15.6122449 1.2244898,11.0204082 C1.2244898,5.75510204 5.51020408,1.53061224 10.7142857,1.53061224 Z"></path>
                    </g>
                </g>
            </g>
        </g>
    </g>
</svg>