<?xml version="1.0" encoding="UTF-8"?>
<svg width="12px" height="16px" viewBox="0 0 12 16" version="1.1" xmlns="http://www.w3.org/2000/svg" xmlns:xlink="http://www.w3.org/1999/xlink">
    <!-- Generator: Sketch 41.2 (35397) - http://www.bohemiancoding.com/sketch -->
    <title>lock_open - material</title>
    <desc>Created with Sketch.</desc>
    <defs></defs>
    <g id="Page-1" stroke="none" stroke-width="1" fill="none" fill-rule="evenodd">
        <g id="Home-page_member" transform="translate(-1233.000000, -15.000000)" fill="#FFFFFF">
            <g id="Group-13" transform="translate(1099.000000, 0.000000)">
                <g id="Group" transform="translate(46.000000, 13.000000)">
                    <path d="M97.9977143,15.9611429 L97.9977143,9.03428571 L89.712,9.03428571 L89.712,15.9611429 L97.9977143,15.9611429 Z M97.9977143,7.67542857 C98.3733352,7.67542857 98.6992367,7.80799867 98.9754286,8.07314286 C99.2516204,8.33828704 99.3897143,8.65866479 99.3897143,9.03428571 L99.3897143,15.9611429 C99.3897143,16.3367638 99.2516204,16.6571415 98.9754286,16.9222857 C98.6992367,17.1874299 98.3733352,17.32 97.9977143,17.32 L89.712,17.32 C89.3363791,17.32 89.0104776,17.1874299 88.7342857,16.9222857 C88.4580939,16.6571415 88.32,16.3367638 88.32,15.9611429 L88.32,9.03428571 C88.32,8.65866479 88.4580939,8.33828704 88.7342857,8.07314286 C89.0104776,7.80799867 89.3363791,7.67542857 89.712,7.67542857 L95.9925714,7.67542857 L95.9925714,6.28342857 C95.9925714,5.90780765 95.8959057,5.55428737 95.7025714,5.22285714 C95.5092371,4.89142691 95.2468588,4.62904859 94.9154286,4.43571429 C94.5839983,4.24237999 94.2304781,4.14571429 93.8548571,4.14571429 C93.4792362,4.14571429 93.1257159,4.24237999 92.7942857,4.43571429 C92.4628555,4.62904859 92.2004772,4.89142691 92.0071429,5.22285714 C91.8138086,5.55428737 91.7171429,5.90780765 91.7171429,6.28342857 L90.3914286,6.28342857 C90.3914286,5.65371114 90.5460937,5.07371694 90.8554286,4.54342857 C91.1647635,4.01314021 91.5845688,3.59333488 92.1148571,3.284 C92.6451455,2.97466512 93.2251397,2.82 93.8548571,2.82 C94.4845746,2.82 95.0645688,2.97466512 95.5948571,3.284 C96.1251455,3.59333488 96.5449508,4.01314021 96.8542857,4.54342857 C97.1636206,5.07371694 97.3182857,5.65371114 97.3182857,6.28342857 L97.3182857,7.67542857 L97.9977143,7.67542857 Z M93.8548571,13.8897143 C93.4792362,13.8897143 93.1533347,13.7516204 92.8771429,13.4754286 C92.600951,13.1992367 92.4628571,12.8733352 92.4628571,12.4977143 C92.4628571,12.1220934 92.600951,11.7961919 92.8771429,11.52 C93.1533347,11.2438081 93.4792362,11.1057143 93.8548571,11.1057143 C94.2304781,11.1057143 94.5563796,11.2438081 94.8325714,11.52 C95.1087633,11.7961919 95.2468571,12.1220934 95.2468571,12.4977143 C95.2468571,12.8733352 95.1087633,13.1992367 94.8325714,13.4754286 C94.5563796,13.7516204 94.2304781,13.8897143 93.8548571,13.8897143 Z" id="lock_open---material"></path>
                </g>
            </g>
        </g>
    </g>
</svg>