<?xml version="1.0" encoding="UTF-8"?>
<svg width="172px" height="37px" viewBox="0 0 172 37" version="1.1" xmlns="http://www.w3.org/2000/svg" xmlns:xlink="http://www.w3.org/1999/xlink">
    <!-- Generator: Sketch 41.2 (35397) - http://www.bohemiancoding.com/sketch -->
    <title>Group 5</title>
    <desc>Created with Sketch.</desc>
    <defs></defs>
    <g id="Page-1" stroke="none" stroke-width="1" fill="none" fill-rule="evenodd">
        <g id="Home-page_member" transform="translate(-153.000000, -64.000000)">
            <g id="Group-5" transform="translate(153.000000, 64.000000)">
                <g id="Geojit-Horizontal-White">
                    <polygon id="Fill-1" fill="#185C5C" points="0.72934191 36.8248392 36.3701138 36.8248392 36.3701138 1.18406729 0.72934191 1.18406729"></polygon>
                    <g id="Group-29" transform="translate(0.000000, -0.000000)">
                        <path d="M20.6142636,29.0070562 C28.2610696,28.3460685 34.2023279,23.7517005 34.2023279,18.1951427 C34.2023279,18.0714663 34.1946212,17.94779 34.188693,17.8229302 L33.2395856,17.8229302 L29.8652449,17.8229302 L22.002059,17.8229302 C22.002059,20.3005988 24.0146884,20.9479762 26.4974253,20.9479762 L29.4834678,20.9479762 C29.4010656,23.9747913 24.3917229,28.3170726 20.6142636,29.0070562 L20.6142636,29.0070562 Z" id="Fill-2" fill="#FFFFFF"></path>
                        <path d="M13.2364208,8.00527955 C7.38942116,9.56454791 3.22010673,13.5434931 3.22010673,18.1958528 C3.22010673,23.6186745 8.88036752,28.1260548 16.2627751,28.9551003 C11.5699992,27.9769331 7.90043339,24.0547962 7.35978008,19.2178097 C6.82090523,14.400351 9.34751096,10.0994923 13.2364208,8.00527955" id="Fill-4" fill="#FFFFFF"></path>
                        <path d="M33.4426862,14.8312653 C31.9298055,11.5618316 28.275653,8.96936304 23.6492732,7.87107004 C26.4307922,9.27529919 28.558429,11.7890647 29.4304696,14.8312653 L33.4426862,14.8312653 Z" id="Fill-6" fill="#FFFFFF"></path>
                        <path d="M68.4684251,10.3469042 L66.6348278,14.048909 C65.1290609,11.4564405 62.5757782,10.1599103 58.9749797,10.1599103 C56.4863146,10.1599103 54.5228894,10.9581847 53.08174,12.5553252 C51.7289211,14.0696204 51.0525116,16.0401569 51.0525116,18.4663429 C51.0525116,20.9966775 51.7828679,22.9879253 53.2453588,24.4383112 C54.7078497,25.891064 56.7590125,26.6171446 59.4000328,26.6171446 C60.9716029,26.6171446 62.3244218,26.3490806 63.4596752,25.8076269 L63.4596752,18.7148791 L68.3706095,18.7148791 L68.3706095,27.3633447 C65.4894964,28.5669697 62.2153427,29.1675987 58.5493338,29.1675987 C55.0564288,29.1675987 52.0555658,28.2349965 49.5461519,26.3686085 C46.8179868,24.357241 45.4544971,21.7221663 45.4544971,18.4663429 C45.4544971,15.1685051 46.774118,12.4825396 49.4157311,10.4084464 C51.9032106,8.4598048 54.9153373,7.4851881 58.4515182,7.4851881 C62.3795542,7.4851881 65.7183256,8.4385017 68.4684251,10.3469042" id="Fill-8" fill="#185C5C"></path>
                        <path d="M90.0374689,25.8391081 L88.7279259,28.7943211 L73.5386505,28.7943211 L73.5386505,7.85811065 L87.0259351,7.85811065 L88.4664916,10.7819607 C86.5896184,10.5346081 84.3523096,10.4091565 81.7551581,10.4091565 L78.8088347,10.4091565 L78.8088347,16.9107434 L79.7911401,16.9107434 C82.4967779,16.9107434 84.7020743,16.8273063 86.4040652,16.6622073 L86.3062496,19.6487832 C84.1228876,19.5446347 82.1481988,19.4925605 80.3798119,19.4925605 L78.7756366,19.4925605 L78.7756366,26.2125041 L82.5406467,26.243867 C85.2907462,26.2645783 87.7894893,26.1302505 90.0374689,25.8391081" id="Fill-10" fill="#185C5C"></path>
                        <path d="M115.085368,18.3101202 C115.085368,15.8839341 114.419629,13.9447606 113.088745,12.4931912 C111.691464,10.9374733 109.737524,10.1599103 107.228703,10.1599103 C104.718696,10.1599103 102.754678,10.9593682 101.336056,12.5553252 C99.9826443,14.0696204 99.3062348,16.0401569 99.3062348,18.4663429 C99.3062348,20.7688527 100.037184,22.6873149 101.500268,24.2223214 C102.962166,25.7567362 104.892986,26.5230559 107.293913,26.5230559 C109.650972,26.5230559 111.561043,25.7052537 113.022941,24.0660987 C114.397695,22.5310922 115.085368,20.61263 115.085368,18.3101202 M120.715987,18.3101202 C120.715987,21.7121065 119.341827,24.4187833 116.591728,26.429559 C114.081721,28.2557078 110.982449,29.1675987 107.293913,29.1675987 C103.584036,29.1675987 100.451566,28.2870707 97.8988763,26.5230559 C95.0616321,24.5744143 93.6430099,21.8884488 93.6430099,18.4663429 C93.6430099,15.1477938 95.0616321,12.4411169 97.8988763,10.3469042 C100.518555,8.4385017 103.627312,7.4851881 107.228703,7.4851881 C110.829501,7.4851881 113.917509,8.41779035 116.493319,10.2841784 C119.308629,12.3174406 120.715987,14.9933463 120.715987,18.3101202" id="Fill-12" fill="#185C5C"></path>
                        <path d="M132.141735,19.2049686 C132.141735,21.5062949 131.541207,23.4868912 130.341928,25.1467575 C129.621057,26.1213742 128.497068,26.9598878 126.968773,27.6664405 C125.682351,28.2883726 124.305819,28.722719 122.843921,28.9724387 L122.843921,27.0433249 C125.550744,25.9858628 126.904156,23.7253675 126.904156,20.2612472 L126.904156,7.86284467 L132.141735,7.86284467 L132.141735,19.2049686 Z" id="Fill-14" fill="#185C5C"></path>
                        <polygon id="Fill-16" fill="#185C5C" points="139.343569 28.7945578 144.679556 28.7945578 144.679556 7.85834735 139.343569 7.85834735"></polygon>
                        <polygon id="Fill-18" fill="#185C5C" points="171.654659 7.85852488 171.621461 10.4095708 163.241335 10.4095708 163.241335 28.7941436 157.937953 28.7941436 157.937953 10.4095708 149.589839 10.4095708 150.407932 7.85852488"></polygon>
                        <polygon id="Fill-19" fill="#046567" points="0.922093023 36.1967923 36.5008751 36.1967923 36.5008751 0.681570627 0.922093023 0.681570627"></polygon>
                        <path d="M20.6142636,29.0070562 C28.2610696,28.3460685 34.2023279,23.7517005 34.2023279,18.1951427 C34.2023279,18.0714663 34.1946212,17.94779 34.188693,17.8229302 L33.2395856,17.8229302 L29.8652449,17.8229302 L22.002059,17.8229302 C22.002059,20.3005988 24.0146884,20.9479762 26.4974253,20.9479762 L29.4834678,20.9479762 C29.4010656,23.9747913 24.3917229,28.3170726 20.6142636,29.0070562" id="Fill-20" fill="#FFFFFF"></path>
                        <path d="M13.2364208,8.00527955 C7.38942116,9.56454791 3.22010673,13.5434931 3.22010673,18.1958528 C3.22010673,23.6186745 8.88036752,28.1260548 16.2627751,28.9551003 C11.5699992,27.9769331 7.90043339,24.0547962 7.35978008,19.2178097 C6.82090523,14.400351 9.34751096,10.0994923 13.2364208,8.00527955" id="Fill-21" fill="#FFFFFF"></path>
                        <path d="M33.4426862,14.8312653 C31.9298055,11.5618316 28.275653,8.96936304 23.6492732,7.87107004 C26.4307922,9.27529919 28.558429,11.7890647 29.4304696,14.8312653 L33.4426862,14.8312653 Z" id="Fill-22" fill="#FFFFFF"></path>
                        <path d="M68.4684251,10.3469042 L66.6348278,14.048909 C65.1290609,11.4564405 62.5757782,10.1599103 58.9749797,10.1599103 C56.4863146,10.1599103 54.5228894,10.9581847 53.08174,12.5553252 C51.7289211,14.0696204 51.0525116,16.0401569 51.0525116,18.4663429 C51.0525116,20.9966775 51.7828679,22.9879253 53.2453588,24.4383112 C54.7078497,25.891064 56.7590125,26.6171446 59.4000328,26.6171446 C60.9716029,26.6171446 62.3244218,26.3490806 63.4596752,25.8076269 L63.4596752,18.7148791 L68.3706095,18.7148791 L68.3706095,27.3633447 C65.4894964,28.5669697 62.2153427,29.1675987 58.5493338,29.1675987 C55.0564288,29.1675987 52.0555658,28.2349965 49.5461519,26.3686085 C46.8179868,24.357241 45.4544971,21.7221663 45.4544971,18.4663429 C45.4544971,15.1685051 46.774118,12.4825396 49.4157311,10.4084464 C51.9032106,8.4598048 54.9153373,7.4851881 58.4515182,7.4851881 C62.3795542,7.4851881 65.7183256,8.4385017 68.4684251,10.3469042" id="Fill-23" fill="#046567"></path>
                        <path d="M90.0374689,25.8391081 L88.7279259,28.7943211 L73.5386505,28.7943211 L73.5386505,7.85811065 L87.0259351,7.85811065 L88.4664916,10.7819607 C86.5896184,10.5346081 84.3523096,10.4091565 81.7551581,10.4091565 L78.8088347,10.4091565 L78.8088347,16.9107434 L79.7911401,16.9107434 C82.4967779,16.9107434 84.7020743,16.8273063 86.4040652,16.6622073 L86.3062496,19.6487832 C84.1228876,19.5446347 82.1481988,19.4925605 80.3798119,19.4925605 L78.7756366,19.4925605 L78.7756366,26.2125041 L82.5406467,26.243867 C85.2907462,26.2645783 87.7894893,26.1302505 90.0374689,25.8391081" id="Fill-24" fill="#046567"></path>
                        <path d="M115.085368,18.3101202 C115.085368,15.8839341 114.419629,13.9447606 113.088745,12.4931912 C111.691464,10.9374733 109.737524,10.1599103 107.228703,10.1599103 C104.718696,10.1599103 102.754678,10.9593682 101.336056,12.5553252 C99.9826443,14.0696204 99.3062348,16.0401569 99.3062348,18.4663429 C99.3062348,20.7688527 100.037184,22.6873149 101.500268,24.2223214 C102.962166,25.7567362 104.892986,26.5230559 107.293913,26.5230559 C109.650972,26.5230559 111.561043,25.7052537 113.022941,24.0660987 C114.397695,22.5310922 115.085368,20.61263 115.085368,18.3101202 M120.715987,18.3101202 C120.715987,21.7121065 119.341827,24.4187833 116.591728,26.429559 C114.081721,28.2557078 110.982449,29.1675987 107.293913,29.1675987 C103.584036,29.1675987 100.451566,28.2870707 97.8988763,26.5230559 C95.0616321,24.5744143 93.6430099,21.8884488 93.6430099,18.4663429 C93.6430099,15.1477938 95.0616321,12.4411169 97.8988763,10.3469042 C100.518555,8.4385017 103.627312,7.4851881 107.228703,7.4851881 C110.829501,7.4851881 113.917509,8.41779035 116.493319,10.2841784 C119.308629,12.3174406 120.715987,14.9933463 120.715987,18.3101202" id="Fill-25" fill="#046567"></path>
                        <path d="M132.141735,19.2049686 C132.141735,21.5062949 131.541207,23.4868912 130.341928,25.1467575 C129.621057,26.1213742 128.497068,26.9598878 126.968773,27.6664405 C125.682351,28.2883726 124.305819,28.722719 122.843921,28.9724387 L122.843921,27.0433249 C125.550744,25.9858628 126.904156,23.7253675 126.904156,20.2612472 L126.904156,7.86284467 L132.141735,7.86284467 L132.141735,19.2049686 Z" id="Fill-26" fill="#046567"></path>
                        <polygon id="Fill-27" fill="#046567" points="139.343569 28.7945578 144.679556 28.7945578 144.679556 7.85834735 139.343569 7.85834735"></polygon>
                        <polygon id="Fill-28" fill="#046567" points="171.654659 7.85852488 171.621461 10.4095708 163.241335 10.4095708 163.241335 28.7941436 157.937953 28.7941436 157.937953 10.4095708 149.589839 10.4095708 150.407932 7.85852488"></polygon>
                    </g>
                </g>
            </g>
        </g>
    </g>
</svg>