<?xml version="1.0" encoding="UTF-8"?>
<svg width="36px" height="36px" viewBox="0 0 36 36" version="1.1" xmlns="http://www.w3.org/2000/svg" xmlns:xlink="http://www.w3.org/1999/xlink">
    <!-- Generator: Sketch 41.2 (35397) - http://www.bohemiancoding.com/sketch -->
    <title>Market Analysis</title>
    <desc>Created with Sketch.</desc>
    <defs></defs>
    <g id="Page-1" stroke="none" stroke-width="1" fill="none" fill-rule="evenodd">
        <g id="Equity-Copy-2" transform="translate(-911.000000, -153.000000)" fill="#000000">
            <g id="Market-Analysis" transform="translate(911.000000, 153.000000)">
                <g id="Group">
                    <g id="Shape">
                        <path d="M34.5492537,29.6059701 L28.5313433,23.5343284 C27.8865672,22.8895522 26.9731343,22.5134328 26.0597015,22.5134328 C25.7910448,22.5134328 25.5761194,22.5671642 25.3074627,22.6208955 L23.319403,20.6328358 C24.9850746,18.3761194 25.8447761,15.6358209 25.7910448,12.7343284 L24.9850746,12.7343284 C25.0925373,16.0656716 23.8567164,19.1283582 21.4925373,21.4925373 C19.2358209,23.7492537 16.280597,24.9850746 13.1104478,24.9850746 C9.94029851,24.9850746 6.93134328,23.7492537 4.72835821,21.4925373 C2.74029851,19.558209 1.6119403,17.0865672 1.28955224,14.5074627 L5.91044776,9.88656716 L12.680597,16.6567164 L16.8716418,12.4656716 L20.5253731,16.119403 L30.8955224,5.74925373 L30.8955224,8.8119403 L31.7014925,8.8119403 L31.7014925,4.40597015 L27.2955224,4.40597015 L27.2955224,5.2119403 L30.358209,5.2119403 L20.5253731,14.9910448 L16.8716418,11.3373134 L12.680597,15.5283582 L5.91044776,8.75820896 L1.2358209,13.4328358 C1.12835821,10.3164179 2.25671642,7.09253731 4.67462687,4.67462687 C6.93134328,2.41791045 9.88656716,1.18208955 13.0567164,1.18208955 C16.2268657,1.18208955 19.2358209,2.41791045 21.438806,4.67462687 C22.7283582,5.9641791 23.6955224,7.52238806 24.2865672,9.29552239 L25.038806,9.02686567 C24.3940299,7.14626866 23.3731343,5.48059701 21.9761194,4.08358209 C17.0328358,-0.859701493 8.97313433,-0.859701493 4.02985075,4.08358209 C-0.913432836,9.02686567 -0.913432836,17.0865672 4.02985075,22.0298507 C6.44776119,24.4477612 9.61791045,25.7373134 13.0029851,25.7373134 C15.7432836,25.7373134 18.3761194,24.8776119 20.5253731,23.2656716 L22.5134328,25.2537313 C22.4597015,25.5223881 22.4059701,25.7373134 22.4059701,26.0059701 C22.4059701,26.9731343 22.7820896,27.8328358 23.4268657,28.4776119 L29.4447761,34.4955224 C30.0895522,35.1402985 31.0029851,35.5164179 31.9164179,35.5164179 C32.8835821,35.5164179 33.7432836,35.1402985 34.3880597,34.4955224 C35.9462687,33.2059701 35.9462687,30.9492537 34.5492537,29.6059701 Z M32.0238806,28.2089552 L33.2597015,29.4447761 L29.3910448,33.3134328 L28.1552239,32.0776119 L32.0238806,28.2089552 Z M27.6179104,31.4865672 L26.3820896,30.2507463 L30.2507463,26.3820896 L31.4865672,27.6179104 L27.6179104,31.4865672 Z M21.2238806,22.7820896 C21.4925373,22.5671642 21.761194,22.2985075 22.0298507,22.0298507 C22.2985075,21.761194 22.5134328,21.4925373 22.7820896,21.2238806 L24.4477612,22.8895522 C24.1253731,23.0507463 23.8029851,23.2656716 23.5343284,23.5343284 C23.2656716,23.8029851 23.0507463,24.1253731 22.8895522,24.4477612 L21.2238806,22.7820896 Z M23.319403,26.0597015 C23.319403,25.3074627 23.5880597,24.6626866 24.1253731,24.1253731 C24.6626866,23.5880597 25.3074627,23.319403 26.0597015,23.319403 C26.8119403,23.319403 27.4567164,23.5880597 27.9940299,24.1253731 L29.6597015,25.7910448 L25.7910448,29.6597015 L24.1253731,27.9402985 C23.5880597,27.4567164 23.319403,26.758209 23.319403,26.0597015 Z M34.0119403,34.0119403 C33.4746269,34.5492537 32.8298507,34.8179104 32.0776119,34.8179104 C31.3253731,34.8179104 30.680597,34.5492537 30.1432836,34.0119403 L29.9820896,33.8507463 L33.8507463,29.9820896 L34.0119403,30.1432836 C35.0328358,31.2179104 35.0328358,32.9373134 34.0119403,34.0119403 Z"></path>
                        <path d="M13.1104478,3.17014925 C11.8746269,3.17014925 10.6925373,3.38507463 9.61791045,3.81492537 L9.88656716,4.56716418 C10.9074627,4.19104478 11.9820896,3.9761194 13.1104478,3.9761194 C15.5283582,3.9761194 17.838806,4.94328358 19.558209,6.66268657 C20.2029851,7.30746269 20.7402985,8.00597015 21.1701493,8.8119403 L21.8686567,8.4358209 C21.3850746,7.5761194 20.8477612,6.8238806 20.1492537,6.12537313 C18.2149254,4.19104478 15.7432836,3.17014925 13.1104478,3.17014925 Z"></path>
                    </g>
                </g>
            </g>
        </g>
    </g>
</svg>