<?xml version="1.0" encoding="UTF-8"?>
<svg width="48px" height="42px" viewBox="0 0 48 42" version="1.1" xmlns="http://www.w3.org/2000/svg" xmlns:xlink="http://www.w3.org/1999/xlink">
    <!-- Generator: Sketch 41.2 (35397) - http://www.bohemiancoding.com/sketch -->
    <title>Group 4</title>
    <desc>Created with Sketch.</desc>
    <defs></defs>
    <g id="Page-1" stroke="none" stroke-width="1" fill="none" fill-rule="evenodd">
        <g id="Group-4">
            <rect id="Rectangle-Copy-5" fill="#FFFFFF" x="0" y="0" width="48" height="42"></rect>
            <g id="monitor-copy" transform="translate(3.000000, 4.000000)" fill="#046567">
                <g id="monitor">
                    <g id="Page-1">
                        <g id="Selfie_detail_page_with_Account_opening_form">
                            <path d="M2.397259,0.17364 C1.077467,0.17364 -9.99999997e-07,1.25112 -9.99999997e-07,2.5709 L-9.99999997e-07,26.54352 C-9.99999997e-07,27.86331 1.077467,28.94078 2.397259,28.94078 L16.780821,28.94078 L16.780821,33.7353 L14.863013,33.7353 C14.598211,33.7353 14.383561,33.94995 14.383561,34.21475 C14.383561,34.47955 14.598211,34.69421 14.863013,34.69421 L26.369862,34.69421 C26.634663,34.69421 26.849314,34.47955 26.849314,34.21475 C26.849314,33.94995 26.634663,33.7353 26.369862,33.7353 L24.452054,33.7353 L24.452054,28.94078 L38.835615,28.94078 C40.155403,28.94078 41.232878,27.86331 41.232878,26.54352 L41.232878,2.5709 C41.232878,1.25112 40.155403,0.17364 38.835615,0.17364 L2.397259,0.17364 L2.397259,0.17364 Z M2.397259,1.13255 L38.835615,1.13255 C39.640759,1.13255 40.273972,1.76576 40.273972,2.5709 L40.273972,22.22845 L0.958903,22.22845 L0.958903,2.5709 C0.958903,1.76576 1.592115,1.13255 2.397259,1.13255 L2.397259,1.13255 Z M20.616437,4.48871 C19.298136,4.48871 18.219177,5.56767 18.219177,6.88597 C18.219177,8.03949 19.047287,9.01378 20.136985,9.23826 L20.136985,11.20104 L13.424657,11.20104 C13.130609,11.20104 12.9418,11.48051 12.945205,11.68049 L12.945205,14.12273 C11.855506,14.3473 11.027396,15.3215 11.027396,16.47503 C11.027396,17.79333 12.106355,18.87229 13.424657,18.87229 C14.742958,18.87229 15.821917,17.79333 15.821917,16.47503 C15.821917,15.3215 14.993807,14.3473 13.904109,14.12273 L13.904109,12.15994 L20.136985,12.15994 L20.136985,14.12273 C19.047287,14.3473 18.219177,15.3215 18.219177,16.47503 C18.219177,17.79333 19.298136,18.87229 20.616437,18.87229 C21.934739,18.87229 23.013698,17.79333 23.013698,16.47503 C23.013698,15.3215 22.185588,14.3473 21.095889,14.12273 L21.095889,12.15994 L27.328766,12.15994 L27.328766,14.12273 C26.239068,14.3473 25.410958,15.3215 25.410958,16.47503 C25.410958,17.79333 26.489917,18.87229 27.808218,18.87229 C29.12652,18.87229 30.205478,17.79333 30.205478,16.47503 C30.205478,15.3215 29.377369,14.3473 28.28767,14.12273 L28.28767,11.68049 C28.287622,11.42945 28.059259,11.20109 27.808218,11.20104 L21.095889,11.20104 L21.095889,9.23826 C22.185588,9.01378 23.013698,8.03949 23.013698,6.88597 C23.013698,5.56767 21.934739,4.48871 20.616437,4.48871 L20.616437,4.48871 Z M20.616437,5.44762 C21.416451,5.44762 22.054794,6.08596 22.054794,6.88597 C22.054794,7.68599 21.416451,8.32433 20.616437,8.32433 C19.816424,8.32433 19.178081,7.68599 19.178081,6.88597 C19.178081,6.08596 19.816424,5.44762 20.616437,5.44762 Z M13.424657,15.03666 C14.22467,15.03666 14.863013,15.675 14.863013,16.47503 C14.863013,17.27504 14.22467,17.91338 13.424657,17.91338 C12.624643,17.91338 11.9863,17.27504 11.9863,16.47503 C11.9863,15.675 12.624643,15.03666 13.424657,15.03666 Z M20.616437,15.03666 C21.416451,15.03666 22.054794,15.675 22.054794,16.47503 C22.054794,17.27504 21.416451,17.91338 20.616437,17.91338 C19.816424,17.91338 19.178081,17.27504 19.178081,16.47503 C19.178081,15.675 19.816424,15.03666 20.616437,15.03666 Z M27.808218,15.03666 C28.608232,15.03666 29.246574,15.675 29.246574,16.47503 C29.246574,17.27504 28.608232,17.91338 27.808218,17.91338 C27.008205,17.91338 26.369862,17.27504 26.369862,16.47503 C26.369862,15.675 27.008205,15.03666 27.808218,15.03666 Z M0.958903,23.18736 L40.273972,23.18736 L40.273972,26.54352 C40.273972,27.34866 39.640759,27.98188 38.835615,27.98188 L2.397259,27.98188 C1.592115,27.98188 0.958903,27.34866 0.958903,26.54352 L0.958903,23.18736 Z M20.616437,24.62571 C20.086835,24.62571 19.657533,25.05501 19.657533,25.58462 C19.657533,26.11422 20.086835,26.54352 20.616437,26.54352 C21.14604,26.54352 21.575342,26.11422 21.575342,25.58462 C21.575342,25.05501 21.14604,24.62571 20.616437,24.62571 Z M17.739725,28.94078 L23.49315,28.94078 L23.49315,33.7353 L17.739725,33.7353 L17.739725,28.94078 Z" id="monitor"></path>
                        </g>
                    </g>
                </g>
            </g>
        </g>
    </g>
</svg>