<?xml version="1.0" encoding="UTF-8"?>
<svg width="5px" height="20px" viewBox="0 0 5 20" version="1.1" xmlns="http://www.w3.org/2000/svg" xmlns:xlink="http://www.w3.org/1999/xlink">
    <!-- Generator: Sketch 41.2 (35397) - http://www.bohemiancoding.com/sketch -->
    <title>...</title>
    <desc>Created with Sketch.</desc>
    <defs></defs>
    <g id="Page-1" stroke="none" stroke-width="1" fill="none" fill-rule="evenodd">
        <g id="Home-page_member" transform="translate(-1266.000000, -77.000000)" fill="#FFFFFF">
            <g id="Group-13" transform="translate(1098.000000, 64.000000)">
                <g id="Group-11" transform="translate(17.000000, 13.000000)">
                    <path d="M144.003177,9.98959601 C144.003177,11.0950506 144.89045,11.9968687 145.995904,11.9968687 C147.086813,11.9968687 147.988632,11.0950506 147.988632,9.98959601 C147.988632,8.89868692 147.086813,7.99686874 145.995904,7.99686874 C144.89045,7.99686874 144.003177,8.89868692 144.003177,9.98959601 Z M151.427317,9.98959601 C151.427317,11.0950506 152.314589,11.9968687 153.420044,11.9968687 C154.510953,11.9968687 155.412771,11.0950506 155.412771,9.98959601 C155.412771,8.89868692 154.510953,7.99686874 153.420044,7.99686874 C152.314589,7.99686874 151.427317,8.89868692 151.427317,9.98959601 Z M158.851456,9.98959601 C158.851456,11.0950506 159.738729,11.9968687 160.844184,11.9968687 C161.935093,11.9968687 162.836911,11.0950506 162.836911,9.98959601 C162.836911,8.89868692 161.935093,7.99686874 160.844184,7.99686874 C159.738729,7.99686874 158.851456,8.89868692 158.851456,9.98959601 Z" id="..." transform="translate(153.420044, 9.996869) rotate(90.000000) translate(-153.420044, -9.996869) "></path>
                </g>
            </g>
        </g>
    </g>
</svg>