<?xml version="1.0" encoding="UTF-8"?>
<svg width="44px" height="34px" viewBox="0 0 44 34" version="1.1" xmlns="http://www.w3.org/2000/svg" xmlns:xlink="http://www.w3.org/1999/xlink">
    <!-- Generator: Sketch 41.2 (35397) - http://www.bohemiancoding.com/sketch -->
    <title>Group 6</title>
    <desc>Created with Sketch.</desc>
    <defs></defs>
    <g id="Page-1" stroke="none" stroke-width="1" fill="none" fill-rule="evenodd">
        <g id="Equity-Copy-2" transform="translate(-1217.000000, -155.000000)">
            <g id="Group-6" transform="translate(1217.000000, 155.000000)">
                <g id="noun_1061004_cc" fill="#000000">
                    <g id="Group">
                        <path d="M41.8485686,0.790471537 L4.1836457,0.790471537 C3.38713091,0.790471537 2.7392384,1.43836404 2.7392384,2.23487884 L2.7392384,2.72835529 L2.12459702,2.72835529 C1.32808223,2.72835529 0.68018972,3.3762478 0.68018972,4.1727626 L0.68018972,32.5555927 C0.68018972,33.3521075 1.32808223,34 2.12459702,34 L39.7895199,34 C40.5860347,34 41.2339272,33.3521075 41.2339272,32.5555927 L41.2339272,32.0618643 L41.8485686,32.0618643 C42.6450834,32.0618643 43.2929759,31.4139718 43.2929759,30.617457 L43.2929759,2.23487884 C43.2929759,1.43836404 42.6450834,0.790471537 41.8485686,0.790471537 Z M42.4677442,30.617457 C42.4677442,30.9587845 42.1898961,31.2366327 41.8485686,31.2366327 L41.2339272,31.2366327 L41.2339272,4.17276254 C41.2339272,3.37624775 40.5860347,2.72835524 39.7895199,2.72835524 L3.56447007,2.72835524 L3.56447007,2.23487879 C3.56447007,1.89355128 3.8423182,1.61570315 4.1836457,1.61570315 L41.8485686,1.61570315 C42.1898961,1.61570315 42.4677442,1.89355128 42.4677442,2.23487879 L42.4677442,30.617457 Z M40.4086955,32.0618643 L40.4086955,32.5555927 C40.4086955,32.8969202 40.1308474,33.1747683 39.7895199,33.1747683 L2.12459702,33.1747683 C1.78326952,33.1747683 1.50542139,32.8969202 1.50542139,32.5555927 L1.50542139,4.17276254 C1.50542139,3.83143504 1.78326952,3.55358691 2.12459702,3.55358691 L2.73923845,3.55358691 L3.15185428,3.55358691 L3.56447012,3.55358691 L39.7895199,3.55358691 C40.1308474,3.55358691 40.4086955,3.83143504 40.4086955,4.17276254 L40.4086955,31.2366327 L40.4086955,31.649343 L40.4086955,32.0618643 Z M7.22057882,22.2318842 C7.22057882,22.0039127 7.40522317,21.8192684 7.63319466,21.8192684 L15.8787099,21.8192684 C16.1066813,21.8192684 16.2913257,22.0039127 16.2913257,22.2318842 C16.2913257,22.4598557 16.1066813,22.6445 15.8787099,22.6445 L7.63319466,22.6445 C7.40522312,22.6445 7.22057882,22.4598557 7.22057882,22.2318842 Z M17.3321856,22.6445 C17.1042141,22.6445 16.9195697,22.4598557 16.9195697,22.2318842 C16.9195697,22.0039127 17.1042141,21.8192684 17.3321856,21.8192684 L19.2700693,21.8192684 C19.4980408,21.8192684 19.6826852,22.0039127 19.6826852,22.2318842 C19.6826852,22.4598557 19.4980408,22.6445 19.2700693,22.6445 L17.3321856,22.6445 Z M21.2384332,22.6445 C21.0104617,22.6445 20.8258174,22.4598557 20.8258174,22.2318842 C20.8258174,22.0039127 21.0104617,21.8192684 21.2384332,21.8192684 L24.1151565,21.8192684 C24.343128,21.8192684 24.5277724,22.0039127 24.5277724,22.2318842 C24.5277724,22.4598557 24.343128,22.6445 24.1151565,22.6445 L21.2384332,22.6445 Z M25.5686323,22.6445 C25.3406608,22.6445 25.1560165,22.4598557 25.1560165,22.2318842 C25.1560165,22.0039127 25.3406608,21.8192684 25.5686323,21.8192684 L34.531565,21.8192684 C34.7595365,21.8192684 34.9441808,22.0039127 34.9441808,22.2318842 C34.9441808,22.4598557 34.7595365,22.6445 34.531565,22.6445 L25.5686323,22.6445 Z M5.83637614,21.516167 C6.23173665,21.8506302 6.28098354,22.442191 5.94658333,22.8374886 C5.61205719,23.2327547 5.02046485,23.2820646 4.62523027,22.9476014 C4.22999568,22.6131067 4.18062286,22.0215459 4.515149,21.6262798 C4.84954921,21.2309822 5.44114156,21.1816724 5.83637614,21.516167 Z M7.22057882,25.5648024 C7.22057882,25.3368309 7.40522317,25.1521866 7.63319466,25.1521866 L23.6304967,25.1521866 C23.8584682,25.1521866 24.0431125,25.3368309 24.0431125,25.5648024 C24.0431125,25.7927739 23.8584682,25.9774183 23.6304967,25.9774183 L7.63319466,25.9774183 C7.40522312,25.9774182 7.22057882,25.7927739 7.22057882,25.5648024 Z M24.9628075,25.1521866 L28.3544189,25.1521866 C28.5823904,25.1521866 28.7670348,25.3368309 28.7670348,25.5648024 C28.7670348,25.7927739 28.5823904,25.9774183 28.3544189,25.9774183 L24.9628075,25.9774183 C24.734836,25.9774183 24.5501917,25.7927739 24.5501917,25.5648024 C24.5501917,25.3368309 24.7348359,25.1521866 24.9628075,25.1521866 Z M5.83637614,24.8490223 C6.23173665,25.1834854 6.28098354,25.7750778 5.94658333,26.1703439 C5.61205719,26.5656414 5.02046485,26.6149198 4.62523027,26.2804566 C4.22999568,25.9459934 4.18062286,25.3544326 4.515149,24.959135 C4.84954921,24.5638689 5.44114156,24.5145591 5.83637614,24.8490223 Z M35.7923356,28.8977206 C35.7923356,29.1256921 35.6076912,29.3103364 35.3797197,29.3103364 L12.8417767,29.3103364 C12.6138052,29.3103364 12.4291609,29.1256921 12.4291609,28.8977206 C12.4291609,28.6697491 12.6138052,28.4851048 12.8417767,28.4851048 L35.3797197,28.4851048 C35.6076912,28.4851048 35.7923356,28.6697491 35.7923356,28.8977206 Z M11.4374219,28.8977206 C11.4374219,29.1256921 11.2527775,29.3103364 11.024806,29.3103364 L7.6331946,29.3103364 C7.40522312,29.3103364 7.22057877,29.1256921 7.22057877,28.8977206 C7.22057877,28.6697491 7.40522312,28.4851048 7.6331946,28.4851048 L11.024806,28.4851048 C11.2527776,28.4851048 11.4374219,28.6697491 11.4374219,28.8977206 Z M5.83637614,28.181909 C6.23173665,28.5163721 6.28098354,29.1079645 5.94658333,29.5032306 C5.61205719,29.8985282 5.02046485,29.9478065 4.62523027,29.6133433 C4.22999568,29.2788801 4.18062286,28.6872878 4.515149,28.2920217 C4.84954921,27.8967242 5.44114156,27.8474458 5.83637614,28.181909 Z" id="Shape"></path>
                    </g>
                </g>
                <g id="noun_1061004_cc-copy" transform="translate(3.885714, 4.857143)" stroke-width="0.5" stroke="#000000">
                    <g id="Group">
                        <path d="M33.844505,12.5937956 C33.844505,12.8217671 33.6598606,13.0064114 33.4318892,13.0064114 L1.21284026,13.0064114 C0.984959259,13.0064114 0.800224425,12.8216766 0.800224425,12.5937956 L0.800224425,1.20806742 C0.800224425,0.980095937 0.984868771,0.795451591 1.21284026,0.795451591 C1.44081175,0.795451591 1.62545609,0.980095937 1.62545609,1.20806742 L1.62545609,12.1811798 L4.17823314,12.1811798 L4.17823314,1.96629306 C4.17823314,1.68137199 4.40920781,1.45039732 4.69412887,1.45039732 L5.72592034,1.45039732 C6.0108414,1.45039732 6.24181608,1.68137199 6.24181608,1.96629306 L6.24181608,12.1811798 L9.02306843,12.1811798 L9.02306843,7.78019619 C9.02306843,7.49527512 9.2540431,7.26430045 9.53896417,7.26430045 L10.5707556,7.26430045 C10.8556767,7.26430045 11.0866514,7.49527512 11.0866514,7.78019619 L11.0866514,12.1811798 L13.8681556,12.1811798 L13.8681556,1.96629306 C13.8681556,1.68137199 14.0991303,1.45039732 14.3840514,1.45039732 L15.4158428,1.45039732 C15.7007639,1.45039732 15.9317386,1.68137199 15.9317386,1.96629306 L15.9317386,12.1811798 L18.7129909,12.1811798 L18.7129909,4.75207967 C18.7129909,4.46715861 18.9439656,4.23618394 19.2288867,4.23618394 L20.2606781,4.23618394 C20.5455992,4.23618394 20.7765739,4.46715861 20.7765739,4.75207967 L20.7765739,12.1811798 L23.5580781,12.1811798 L23.5580781,1.96629306 C23.5580781,1.68137199 23.7890528,1.45039732 24.0739739,1.45039732 L25.1057653,1.45039732 C25.3906864,1.45039732 25.6216611,1.68137199 25.6216611,1.96629306 L25.6216611,12.1811798 L28.4029134,12.1811798 L28.4029134,8.50693407 C28.4029134,8.22201301 28.6338881,7.99103834 28.9188092,7.99103834 L29.9506006,7.99103834 C30.2355217,7.99103834 30.4664964,8.22201301 30.4664964,8.50693407 L30.4664964,12.1811798 L33.4318893,12.1811798 C33.6598607,12.1811798 33.844505,12.3658241 33.844505,12.5937956 Z" id="Shape"></path>
                    </g>
                </g>
            </g>
        </g>
    </g>
</svg>