<?xml version="1.0" encoding="UTF-8"?>
<svg width="125px" height="124px" viewBox="0 0 125 124" version="1.1" xmlns="http://www.w3.org/2000/svg" xmlns:xlink="http://www.w3.org/1999/xlink">
    <!-- Generator: Sketch 41.2 (35397) - http://www.bohemiancoding.com/sketch -->
    <title>Group 26</title>
    <desc>Created with Sketch.</desc>
    <defs>
        <rect id="path-1" x="0" y="0" width="125" height="123.820755"></rect>
    </defs>
    <g id="Page-1" stroke="none" stroke-width="1" fill="none" fill-rule="evenodd">
        <g id="Brokerage-Fees_DETAILS_SECTION" transform="translate(-211.000000, -2845.000000)">
            <g id="Group-26" transform="translate(211.000000, 2845.000000)">
                <g id="10256563-Business-man-point-to-falling-graph-of-stock-market-Stock-Photo-Copy">
                    <mask id="mask-2" fill="white">
                        <use xlink:href="#path-1"></use>
                    </mask>
                    <use id="Mask" fill="#000000" opacity="0.02" xlink:href="#path-1"></use>
                </g>
                <g id="noun_979243_cc" transform="translate(21.000000, 30.000000)" stroke-width="1.2" stroke="#046567">
                    <g id="Group">
                        <path d="M73.658,10.366 L73.658,39.374 C73.658,40.884 72.433,42.109 70.923,42.109 L12.023,42.109 C10.511,42.109 9.288,40.884 9.288,39.374 L9.288,2.816 C9.288,1.306 10.512,0.081 12.023,0.081 L70.923,0.081 C72.434,0.081 73.658,1.306 73.658,2.816 L73.658,10.366 M75.429,49.777 L73.658,46.098 L9.287,46.098 L0.192,63.919 L82.237,63.919 L77.467,54.012 M43.698,57.979 L35.61,57.979 M47.569,57.979 L48.372,57.979 M74.799,59.866 L74.507,59.3 M72.632,55.601 L71.071,52.631" id="Shape"></path>
                    </g>
                </g>
                <g id="noun_551980_cc" transform="translate(45.000000, 35.000000)" fill="#046567">
                    <g id="Group">
                        <g transform="translate(0.000000, 0.637800)" id="Shape">
                            <path d="M15.627907,0.269544186 C7.00125782,0.269544186 1.76258664e-15,7.27077209 0,15.8974512 C0,24.5241302 7.00125782,31.5253581 15.627907,31.5253581 C24.2545563,31.5253581 31.255814,24.5241302 31.255814,15.8974512 C31.255814,7.27077209 24.2545563,0.269544186 15.627907,0.269544186 Z M15.627907,1.01373023 C23.8523684,1.01373023 30.5116279,7.67300465 30.5116279,15.8974512 C30.5116279,24.1218977 23.8523684,30.7811721 15.627907,30.7811721 C7.40344573,30.7811721 0.744186047,24.1218977 0.744186047,15.8974512 C0.744186047,7.67300465 7.40344573,1.01373023 15.627907,1.01373023 Z M10.100291,8.4555907 C9.45888,8.4555907 8.93023256,8.98416074 8.93023256,9.62564912 L8.93023256,11.4323349 L4.8372093,11.4323349 C4.22522344,11.4323349 3.72093023,11.9366698 3.72093023,12.548614 L3.72093023,21.4788465 C3.72093023,22.0908651 4.22522344,22.5951256 4.8372093,22.5951256 L19.7209302,22.5951256 C20.3329161,22.5951256 20.8372093,22.0908651 20.8372093,21.4788465 L20.8372093,20.3625674 L26.3648253,20.3625674 C27.006278,20.3625674 27.5348837,19.8353771 27.5348837,19.1939632 L27.5348837,9.62564912 C27.5348837,8.98416074 27.0062363,8.4555907 26.3648253,8.4555907 L10.100291,8.4555907 Z M10.100291,9.19977674 L26.3648253,9.19977674 C26.606883,9.19977674 26.7906977,9.3835654 26.7906977,9.62564912 L26.7906977,9.94396279 L9.6744186,9.94396279 L9.6744186,9.62564912 C9.6744186,9.3835654 9.8582333,9.19977674 10.100291,9.19977674 Z M9.6744186,10.6881488 L26.7906977,10.6881488 L26.7906977,12.1765209 L20.7674419,12.1765209 C20.6122672,11.7456372 20.2022125,11.4323349 19.7209302,11.4323349 L9.6744186,11.4323349 L9.6744186,10.6881488 Z M4.8372093,12.1765209 L19.7209302,12.1765209 C19.9335159,12.1765209 20.0930233,12.3360744 20.0930233,12.548614 L20.0930233,21.4788465 C20.0930233,21.6915349 19.9335159,21.8509395 19.7209302,21.8509395 L4.8372093,21.8509395 C4.62462378,21.8509395 4.46511628,21.6915349 4.46511628,21.4788465 L4.46511628,12.548614 C4.46511628,12.3360744 4.62462378,12.1765209 4.8372093,12.1765209 Z M20.8372093,12.920707 L26.7906977,12.920707 L26.7906977,19.1939632 C26.7906977,19.435898 26.6068413,19.6183814 26.3648253,19.6183814 L20.8372093,19.6183814 L20.8372093,18.0776841 C21.3597537,18.1969027 21.9079181,18.0851185 22.3415695,17.7709976 C22.64128,17.9931371 23.0056387,18.1300093 23.40407,18.1300093 C24.411773,18.1300093 25.2281935,17.2876651 25.228198,16.2695442 C25.2281935,15.2514977 24.411773,14.4090791 23.40407,14.4090791 C23.0059721,14.4090791 22.6411438,14.5433421 22.3415695,14.765184 C22.0216953,14.5341142 21.6338009,14.4080417 21.2325581,14.4119859 C21.0978262,14.4122091 20.9658642,14.4294742 20.8372093,14.4584975 L20.8372093,12.920707 Z M12.2790698,14.4105325 C10.6395044,14.4105325 9.30234791,15.747686 9.30232558,17.3872767 C9.30230102,19.0268673 10.6394709,20.3640208 12.2790698,20.3640208 C13.9186687,20.3640208 15.2558385,19.0268673 15.255814,17.3872767 C15.2557916,15.747686 13.9186359,14.4105325 12.2790698,14.4105325 Z M7.06976744,15.1532651 L7.06976744,15.8974512 L8.55813953,15.8974512 L8.55813953,15.1532651 L7.06976744,15.1532651 Z M12.2790698,15.1532651 C13.5164517,15.1532651 14.5116115,16.1483907 14.5116279,17.3858233 C14.5116465,18.6231814 13.516477,19.6183814 12.2790698,19.6183814 C11.0416633,19.6183814 10.046493,18.6231814 10.0465116,17.3858233 C10.0465287,16.1484651 11.0416886,15.1532651 12.2790698,15.1532651 Z M16,15.1532651 L16,15.8974512 L17.4883721,15.8974512 L17.4883721,15.1532651 L16,15.1532651 Z M21.2354649,15.1532651 L21.2383717,15.1532651 L21.2398259,15.1532651 C21.4550832,15.1532651 21.639491,15.2570352 21.8110467,15.3814631 C21.668768,15.6464677 21.5813968,15.9459676 21.5813953,16.2666374 C21.5813968,16.593856 21.6720908,16.8975464 21.8197671,17.1663464 C21.5254876,17.359686 21.1718683,17.4259743 20.8372093,17.2942534 L20.8372093,15.2346605 C20.9668912,15.1825674 21.1014073,15.1532651 21.2354649,15.1532651 Z M23.40407,15.1532651 C23.9992722,15.1532651 24.4840089,15.6436093 24.4840119,16.2695442 C24.4840089,16.8954791 23.9992722,17.3858233 23.40407,17.3858233 C23.1931021,17.3858233 22.9977049,17.3203185 22.8313957,17.212858 L22.648256,17.0064625 C22.4687241,16.8029276 22.3695375,16.5410977 22.3691862,16.2695442 C22.3700793,15.999107 22.46921,15.7385466 22.648256,15.5355327 L22.8386627,15.320416 C23.0034582,15.2158579 23.1961101,15.1532651 23.40407,15.1532651 Z M5.58139535,17.0137302 L5.58139535,17.7579163 L7.81395349,17.7579163 L7.81395349,17.0137302 L5.58139535,17.0137302 Z M16.744186,17.0137302 L16.744186,17.7579163 L18.9767442,17.7579163 L18.9767442,17.0137302 L16.744186,17.0137302 Z M7.06976744,18.8741953 L7.06976744,19.6183814 L8.55813953,19.6183814 L8.55813953,18.8741953 L7.06976744,18.8741953 Z M16,18.8741953 L16,19.6183814 L17.4883721,19.6183814 L17.4883721,18.8741953 L16,18.8741953 Z"></path>
                        </g>
                    </g>
                </g>
            </g>
        </g>
    </g>
</svg>