<?xml version="1.0" encoding="UTF-8"?>
<svg width="24px" height="24px" id="pdfIcon" viewBox="0 0 24 24" version="1.1" xmlns="http://www.w3.org/2000/svg" xmlns:xlink="http://www.w3.org/1999/xlink" style="display: none;">
    <!-- Generator: Sketch 41.2 (35397) - http://www.bohemiancoding.com/sketch -->
    <title>pdf_icon</title>
    <desc>Created with Sketch.</desc>
    <defs></defs>
    <g id="Page-1" stroke="none" stroke-width="1" fill="none" fill-rule="evenodd">
        <g id="pdfFill"  transform="translate(-761.000000, -2539.000000)" >
            <g id="noun_781722_cc-copy" transform="translate(761.000000, 2539.000000)">
                <g id="Group">
                    <path d="M7.22046285,12.9792935 C7.13276492,13.2423873 7.13276492,13.2423873 6.95736906,13.680877 L6.92813642,13.7393423 C6.72350792,14.2947625 6.3727162,14.9671133 6.13885505,15.4056029 C5.78806334,15.5809988 5.43727162,15.7563946 4.94031669,16.0487211 C3.88794153,16.6626066 3.15712546,17.1010962 2.89403167,17.8026797 C2.74786845,18.182704 2.39707674,19.1181486 3.15712546,19.7320341 C3.42021924,19.9658952 3.77101096,20.0828258 4.09257004,20.0828258 C4.44336175,20.0828258 4.76492083,19.9658952 5.02801462,19.7320341 C5.37880633,19.410475 5.52496955,19.1181486 5.81729598,18.5627284 C5.90499391,18.4165652 5.99269184,18.2411693 6.10962241,18.0073082 C6.5773447,17.1010962 6.86967113,16.4872107 6.92813642,16.3995128 C6.92813642,16.3702801 6.95736906,16.3410475 6.98660171,16.3118149 C7.19123021,16.2241169 7.42509135,16.136419 7.68818514,16.0194884 C8.65286236,15.6102314 9.06211937,15.4933009 9.93909866,15.2009744 L10.3483557,15.0548112 C10.6699147,14.9378806 10.9037759,14.8794153 11.137637,14.7917174 C11.4299635,14.6747868 11.6638246,14.6163216 11.8976857,14.5286236 C12.1023143,14.7040195 12.3069428,14.908648 12.5700365,15.1132765 C13.1254568,15.5809988 13.5054811,15.8148599 13.9147381,15.9317905 C14.2655298,16.0194884 14.7624848,15.9902558 15.0840438,15.9025579 C16.1071864,15.6394641 16.136419,14.8794153 16.1656516,14.5578563 C16.1948843,14.1193666 15.9317905,13.3593179 14.7917174,13.1546894 C14.2655298,13.0669915 13.9147381,13.0669915 13.593179,13.0669915 C13.27162,13.0669915 13.0085262,13.0962241 12.5992692,13.1546894 C12.4823386,13.183922 12.3361754,13.2131547 12.2484775,13.2131547 C11.956151,12.9208283 11.7515225,12.6285018 11.4299635,12.1900122 C10.816078,11.3130329 10.4360536,10.6991474 9.82216809,9.61753959 C9.73447016,9.47137637 9.64677223,9.29598051 9.5590743,9.1498173 C9.61753959,8.88672351 9.67600487,8.59439708 9.73447016,8.24360536 L9.82216809,7.83434836 C10.0560292,6.72350792 10.1144945,6.34348356 9.93909866,5.43727162 C9.73447016,4.44336175 9.06211937,4.20950061 8.71132765,4.23873325 L8.71132765,4.23873325 C8.53593179,4.23873325 7.83434836,4.35566382 7.54202192,5.37880633 C7.33739342,6.08038977 7.36662607,6.60657734 7.54202192,7.33739342 C7.6589525,7.863581 7.92204629,8.50669915 8.36053593,9.29598051 C8.21437272,9.90986602 8.03897686,10.4652862 7.71741778,11.4007308 C7.42509135,12.365408 7.27892814,12.7454324 7.22046285,12.9792935 Z M5.0864799,17.4226553 C4.96954933,17.6272838 4.8818514,17.8319123 4.79415347,17.9780755 C4.50182704,18.5334957 4.44336175,18.6504263 4.2679659,18.8258222 C4.15103532,18.9135201 4.00487211,18.8550548 3.91717418,18.7965895 C3.88794153,18.7673569 3.80024361,18.7088916 4.00487211,18.182704 C4.12180268,17.8903776 4.6772229,17.5395859 5.17417783,17.2180268 C5.17417783,17.3057247 5.11571255,17.36419 5.0864799,17.4226553 Z M13.6516443,14.2070646 C13.9439708,14.2070646 14.2362972,14.2070646 14.6455542,14.2947625 C14.9378806,14.3532278 15.0255786,14.4701583 15.0255786,14.499391 L15.0255786,14.7040195 C15.0255786,14.7040195 14.9963459,14.7332521 14.8501827,14.7624848 C14.6455542,14.8209501 14.3532278,14.8209501 14.2655298,14.7917174 C14.1193666,14.7332521 13.8855055,14.6455542 13.3885505,14.2362972 C13.4762485,14.2070646 13.5639464,14.2070646 13.6516443,14.2070646 Z M8.71132765,5.67113276 C8.74056029,5.58343484 8.76979294,5.49573691 8.79902558,5.46650426 C8.82825822,5.49573691 8.82825822,5.55420219 8.85749086,5.64190012 C8.97442144,6.28501827 8.97442144,6.48964677 8.79902558,7.33739342 C8.76979294,7.24969549 8.74056029,7.16199756 8.74056029,7.10353228 C8.59439708,6.46041413 8.56516443,6.13885505 8.71132765,5.67113276 Z M8.03897686,14.1485993 L8.0682095,14.090134 C8.24360536,13.6224117 8.24360536,13.6224117 8.36053593,13.3300853 C8.41900122,13.1254568 8.56516443,12.7161998 8.88672351,11.7807552 C9.03288672,11.4007308 9.12058465,11.0499391 9.20828258,10.7576127 C9.64677223,11.5176614 9.99756395,12.1023143 10.5237515,12.8331303 C10.72838,13.0962241 10.8745432,13.3300853 11.0499391,13.5347138 C10.9622412,13.5639464 10.8745432,13.593179 10.7868453,13.6224117 C10.5822168,13.7101096 10.3483557,13.7685749 10.0267966,13.8855055 L9.61753959,14.0316687 C8.88672351,14.2655298 8.4774665,14.4116931 7.80511571,14.6747868 C7.89281364,14.499391 7.95127893,14.3239951 8.03897686,14.1485993 Z M18.1242387,14.090134 L18.1242387,16.8964677 L14.3532278,16.8964677 C13.2423873,16.8964677 12.3069428,17.8319123 12.3069428,18.9427527 L12.3069428,22.8014616 L3.47868453,22.8014616 C2.19244823,22.8014616 1.16930572,21.7490865 1.16930572,20.4336175 L1.16930572,3.53714982 C1.16930572,2.25091352 2.22168088,1.16930572 3.47868453,1.16930572 L15.8148599,1.16930572 C16.9257004,1.16930572 17.8611449,1.98781973 18.0950061,3.06942753 C18.2996346,3.04019488 18.5334957,3.04019488 18.7381242,3.04019488 C18.9135201,3.04019488 19.088916,3.04019488 19.2643118,3.06942753 C19.0304507,1.34470158 17.5688185,0 15.7856273,0 L3.47868453,0 C1.54933009,0 0,1.57856273 0,3.53714982 L0,20.4628502 C0,22.4214373 1.54933009,24 3.47868453,24 L12.8915956,24 L13.0085262,24 C13.0377588,24 13.0377588,24 13.0669915,23.9707674 C13.0962241,23.9707674 13.0962241,23.9707674 13.1254568,23.9415347 C13.1546894,23.9415347 13.1546894,23.9123021 13.183922,23.9123021 C13.183922,23.9123021 13.2131547,23.9123021 13.2131547,23.8830694 C13.2423873,23.8538368 13.27162,23.8246041 13.3008526,23.7953715 L13.3008526,23.7953715 L19.088916,17.9196102 L19.088916,17.9196102 L19.088916,17.9196102 C19.088916,17.9196102 19.088916,17.8903776 19.1181486,17.8903776 C19.1473812,17.8611449 19.1473812,17.8611449 19.1766139,17.8319123 C19.1766139,17.8026797 19.2058465,17.8026797 19.2058465,17.773447 C19.2058465,17.7442144 19.2350792,17.7442144 19.2350792,17.7149817 C19.2350792,17.6857491 19.2350792,17.6857491 19.2643118,17.6565164 L19.2643118,17.5980512 L19.2643118,17.4811206 L19.2643118,17.4811206 L19.2643118,17.4811206 L19.2643118,14.090134 C19.088916,14.1193666 18.8842875,14.1193666 18.7088916,14.1193666 C18.5042631,14.1193666 18.2996346,14.1193666 18.1242387,14.090134 Z M13.4762485,21.953715 L13.4762485,18.9719854 C13.4762485,18.4750305 13.8562728,18.0950061 14.3532278,18.0950061 L17.3057247,18.0950061 L13.4762485,21.953715 Z M18.7088916,3.74177832 C16.0487211,3.74177832 13.8855055,5.90499391 13.8855055,8.56516443 C13.8855055,11.225335 16.0487211,13.3885505 18.7088916,13.3885505 C21.3690621,13.3885505 23.5322777,11.225335 23.5322777,8.56516443 C23.5322777,5.90499391 21.3690621,3.74177832 18.7088916,3.74177832 Z M18.7088916,12.5115713 C16.545676,12.5115713 14.7624848,10.72838 14.7624848,8.56516443 C14.7624848,6.40194884 16.545676,4.61875761 18.7088916,4.61875761 C20.8721072,4.61875761 22.6552984,6.40194884 22.6552984,8.56516443 C22.6552984,10.72838 20.9013398,12.5115713 18.7088916,12.5115713 Z M19.7612667,9.00365408 C20.1705238,8.30207065 20.0828258,7.39585871 19.498173,6.81120585 C18.7965895,6.10962241 17.6565164,6.10962241 16.954933,6.81120585 C16.2533496,7.51278928 16.2533496,8.65286236 16.954933,9.3544458 C17.3057247,9.70523752 17.773447,9.88063337 18.2411693,9.88063337 C18.5627284,9.88063337 18.8842875,9.79293544 19.1766139,9.61753959 L20.316687,10.7576127 C20.4043849,10.8453106 20.5213155,10.8745432 20.638246,10.8745432 C20.7551766,10.8745432 20.8721072,10.8453106 20.9598051,10.7576127 C21.047503,10.6699147 21.0767357,10.5529842 21.0767357,10.4360536 C21.0767357,10.319123 20.9890378,10.2314251 20.9013398,10.1437272 L19.7612667,9.00365408 Z M17.5688185,8.74056029 C17.2180268,8.38976857 17.2180268,7.80511571 17.5688185,7.42509135 C17.7442144,7.24969549 17.9780755,7.16199756 18.2119367,7.16199756 C18.4457978,7.16199756 18.679659,7.24969549 18.8550548,7.42509135 C19.2058465,7.77588307 19.2058465,8.36053593 18.8550548,8.74056029 C18.5042631,9.09135201 17.9196102,9.09135201 17.5688185,8.74056029 Z" id="pdf_icon"></path>
                </g>
            </g>
        </g>
    </g>
</svg>