<?xml version="1.0" encoding="UTF-8" standalone="no"?>
<svg width="40px" height="41px" viewBox="0 0 40 41" version="1.1" xmlns="http://www.w3.org/2000/svg" xmlns:xlink="http://www.w3.org/1999/xlink">
    <!-- Generator: Sketch 40.1 (33804) - http://www.bohemiancoding.com/sketch -->
    <title>play_icon</title>
    <desc>Created with Sketch.</desc>
    <defs></defs>
    <g id="Page-1" stroke="none" stroke-width="1" fill="none" fill-rule="evenodd">
        <g id="play_icon" fill="#FFFFFF">
            <path d="M19.94864,1.69907405 C30.0293528,1.69907405 38.2348934,10.0840045 38.2348934,20.3888886 C38.2348934,30.6937727 30.0293528,39.0787032 19.94864,39.0787032 C9.86792728,39.0787032 1.66238667,30.6937727 1.66238667,20.3888886 C1.66238667,10.0840045 9.86792728,1.69907405 19.94864,1.69907405 Z M19.94864,0 C8.93200358,0 0,9.12912487 0,20.3888886 C0,31.6486523 8.93200358,40.7777772 19.94864,40.7777772 C30.9652765,40.7777772 39.8972801,31.6486523 39.8972801,20.3888886 C39.8972801,9.12912487 30.9652765,0 19.94864,0 L19.94864,0 Z" id="Shape"></path>
            <path d="M17.3860074,26.5203739 C17.2904519,26.5203739 17.1937852,26.49539 17.1082296,26.4442866 C16.9371185,26.3432155 16.8304519,26.1558365 16.8304519,25.9525587 L16.8304519,14.1488162 C16.8304519,13.9455384 16.9371185,13.7581594 17.1082296,13.6570883 C17.2793408,13.5548815 17.4926741,13.5548815 17.6637852,13.6570883 L27.6637852,19.5578239 C27.8348963,19.658895 27.941563,19.846274 27.941563,20.0495518 C27.941563,20.2528297 27.8348963,20.4402087 27.6637852,20.5412798 L17.6637852,26.4420154 C17.5782296,26.49539 17.481563,26.5203739 17.3860074,26.5203739 Z M17.941563,15.1345434 L17.941563,24.9691027 L26.2748963,20.0518231 L17.941563,15.1345434 L17.941563,15.1345434 Z" id="Shape"></path>
        </g>
    </g>
</svg>