<?xml version="1.0" encoding="UTF-8"?>
<svg width="19px" height="13px" viewBox="0 0 19 13" version="1.1" xmlns="http://www.w3.org/2000/svg" xmlns:xlink="http://www.w3.org/1999/xlink">
    <!-- Generator: Sketch 41.2 (35397) - http://www.bohemiancoding.com/sketch -->
    <title>press</title>
    <desc>Created with Sketch.</desc>
    <defs></defs>
    <g id="Page-1" stroke="none" stroke-width="1" fill="none" fill-rule="evenodd">
        <g id="About_page" transform="translate(-799.000000, -4073.000000)" fill="#046567">
            <path d="M815.982786,4073 L801.65356,4073 C801.067389,4073 800.592136,4073.47537 800.592136,4074.06169 L800.592136,4083.88229 C800.592136,4084.02881 800.472991,4084.14771 800.32678,4084.14771 C800.180569,4084.14771 800.061424,4084.02881 800.061424,4083.88229 L800.061424,4074.59253 C800.061424,4074.29951 799.823665,4074.06169 799.530712,4074.06169 C799.237759,4074.06169 799,4074.29951 799,4074.59253 L799,4083.88229 C799,4084.52302 799.456678,4085.05944 800.061424,4085.18233 L800.061424,4085.2094 L815.982786,4085.2094 C816.568958,4085.2094 817.044211,4084.73403 817.044211,4084.14771 L817.044211,4074.06169 C817.044211,4073.47537 816.568958,4073 815.982786,4073 Z M815.982786,4084.14771 L801.65356,4084.14771 L801.65356,4074.06169 L815.982786,4074.06169 L815.982786,4084.14771 Z M805.103189,4079.63554 L802.714985,4079.63554 L802.714985,4076.18506 L805.103189,4076.18506 L805.103189,4079.63554 Z M811.206378,4076.7159 L806.164613,4076.7159 L806.164613,4076.18506 L811.206378,4076.18506 L811.206378,4076.7159 Z M811.206378,4078.30844 L806.164613,4078.30844 L806.164613,4077.77759 L811.206378,4077.77759 L811.206378,4078.30844 Z M811.206378,4079.90097 L806.164613,4079.90097 L806.164613,4079.37012 L811.206378,4079.37012 L811.206378,4079.90097 Z M811.206378,4081.4935 L802.714985,4081.4935 L802.714985,4080.96265 L811.206378,4080.96265 L811.206378,4081.4935 Z M811.206378,4083.08603 L802.714985,4083.08603 L802.714985,4082.55518 L811.206378,4082.55518 L811.206378,4083.08603 Z M814.921362,4076.7159 L812.267802,4076.7159 L812.267802,4076.18506 L814.921362,4076.18506 L814.921362,4076.7159 Z M814.921362,4078.30844 L812.267802,4078.30844 L812.267802,4077.77759 L814.921362,4077.77759 L814.921362,4078.30844 Z M814.921362,4079.90097 L812.267802,4079.90097 L812.267802,4079.37012 L814.921362,4079.37012 L814.921362,4079.90097 Z M814.921362,4081.4935 L812.267802,4081.4935 L812.267802,4080.96265 L814.921362,4080.96265 L814.921362,4081.4935 Z M814.921362,4083.08603 L812.267802,4083.08603 L812.267802,4082.55518 L814.921362,4082.55518 L814.921362,4083.08603 Z" id="press"></path>
        </g>
    </g>
</svg>