<?xml version="1.0" encoding="UTF-8"?>
<svg width="14px" height="9px" viewBox="0 0 14 9" version="1.1" xmlns="http://www.w3.org/2000/svg" xmlns:xlink="http://www.w3.org/1999/xlink">
    <!-- Generator: Sketch 41.2 (35397) - http://www.bohemiancoding.com/sketch -->
    <title>Shape</title>
    <desc>Created with Sketch.</desc>
    <defs></defs>
    <g id="Page-1" stroke="none" stroke-width="1" fill="none" fill-rule="evenodd">
        <g id="FINANCIAL-SOLUTIONS" transform="translate(-926.000000, -4812.000000)" fill="#757373">
            <path d="M939.017066,4816.76148 C939.051382,4816.72737 939.078505,4816.68627 939.097204,4816.64147 C939.116109,4816.59586 939.125766,4816.54839 939.125766,4816.4999 C939.125766,4816.45161 939.116109,4816.40394 939.097204,4816.35853 C939.078505,4816.31373 939.051382,4816.27243 939.017066,4816.23852 L934.88791,4812.10834 C934.743456,4811.96389 934.509412,4811.96389 934.364959,4812.10834 C934.220505,4812.25279 934.220505,4812.48684 934.364959,4812.63129 L937.863081,4816.12982 L926.369867,4816.12982 C926.165824,4816.12982 926,4816.29544 926,4816.49969 C926,4816.70415 926.165824,4816.86976 926.369867,4816.86976 L937.863081,4816.86976 L934.364959,4820.3685 C934.220505,4820.51296 934.220505,4820.74721 934.364959,4820.89166 C934.509412,4821.03611 934.743456,4821.03611 934.88791,4820.89166 L939.017066,4816.76148 Z" id="Shape" transform="translate(932.562883, 4816.500000) scale(-1, 1) translate(-932.562883, -4816.500000) "></path>
        </g>
    </g>
</svg>