<?xml version="1.0" encoding="UTF-8"?>
<svg width="54px" height="40px" viewBox="0 0 54 40" version="1.1" xmlns="http://www.w3.org/2000/svg" xmlns:xlink="http://www.w3.org/1999/xlink">
    <!-- Generator: Sketch 41.2 (35397) - http://www.bohemiancoding.com/sketch -->
    <title>property</title>
    <desc>Created with Sketch.</desc>
    <defs></defs>
    <g id="Page-1" stroke="none" stroke-width="1" fill="none" fill-rule="evenodd" opacity="0.75">
        <g id="mutual-fund" transform="translate(-929.000000, -523.000000)" stroke="#28BBC4" fill="#FFFFFF">
            <g id="Group-7" transform="translate(908.000000, 495.000000)">
                <g id="property" transform="translate(22.118220, 28.571429)">
                    <g id="Group">
                        <g>
                            <path d="M16.6494791,7.35250018 C14.6649752,7.35250018 13.0570182,8.96497953 13.0570182,10.9324072 C13.0570182,12.8998348 14.6751521,14.5123141 16.6494791,14.5123141 C18.6238061,14.5123141 20.2419401,12.8998348 20.2419401,10.9324072 C20.2419401,8.96497953 18.633983,7.35250018 16.6494791,7.35250018 Z M16.6494791,12.8694107 C15.5809001,12.8694107 14.7158599,12.0073934 14.7158599,10.9425485 C14.7158599,9.87770369 15.5809001,9.01568642 16.6494791,9.01568642 C17.7180581,9.01568642 18.5830983,9.87770369 18.5830983,10.9425485 C18.5932753,11.997252 17.7180581,12.8694107 16.6494791,12.8694107 Z" id="Shape"></path>
                            <rect id="Rectangle-path" stroke-width="0.75" x="27.59987" y="23.5989902" width="1.65884174" height="1.65304487"></rect>
                            <rect id="Rectangle-path" stroke-width="0.75" x="30.9175535" y="23.5989902" width="1.65884174" height="1.65304487"></rect>
                            <rect id="Rectangle-path" stroke-width="0.75" x="34.235237" y="23.5989902" width="1.65884174" height="1.65304487"></rect>
                            <rect id="Rectangle-path" stroke-width="0.75" x="27.59987" y="30.2111697" width="7.46987632" height="1.65304487"></rect>
                            <path d="M50.7015311,14.6441521 C50.0705606,14.0153865 48.035172,12.7882796 46.0099603,14.6441521 L40.3414029,20.2827591 L30.9175535,20.2827591 L30.9175535,18.6601384 L33.6856821,18.6601384 L16.842841,0.0507068978 L10.1667663,7.42348983 L10.1667663,2.92071731 L4.3557317,2.92071731 L4.3557317,13.8429831 L0,18.6601384 L2.68671301,18.6601384 L2.68671301,38.4865354 L30.9175535,38.4865354 L30.9175535,35.1804457 L48.3506572,35.1804457 L48.3506572,21.6619867 L50.7117081,19.3091867 C52.5944426,17.1896383 51.3325016,15.2627762 50.7015311,14.6441521 Z M49.5311826,15.8104107 C49.8466679,16.1247935 50.4776384,17.047659 49.5311826,18.1530694 L47.1803088,15.8104107 L47.1803088,15.8104107 C47.8112792,15.1816452 48.9002122,15.1816452 49.5311826,15.8104107 Z M38.2449526,25.6171248 L39.6900786,27.0572007 L37.7564593,27.5338455 L38.2449526,25.6171248 Z M41.3082125,26.3371627 L38.9573386,23.994504 L45.9997834,16.9766694 L48.3506572,19.3193281 L41.3082125,26.3371627 Z M6.01457344,4.57376218 L8.50792453,4.57376218 L8.50792453,9.25907953 L6.01457344,12.0073934 L6.01457344,4.57376218 L6.01457344,4.57376218 Z M16.842841,2.52520351 L29.9507439,17.0070935 L3.73493816,17.0070935 L16.842841,2.52520351 Z M13.4742728,36.8334905 L13.4742728,26.0836282 L20.1299937,26.0836282 L20.1299937,36.8334905 L13.4742728,36.8334905 Z M29.2587118,36.8334905 L21.7888354,36.8334905 L21.7888354,24.420442 L11.8154311,24.420442 L11.8154311,36.8233492 L4.34555475,36.8233492 L4.34555475,18.6601384 L29.2587118,18.6601384 L29.2587118,20.2827591 L24.2821865,20.2827591 L24.2821865,35.1703043 L29.2587118,35.1703043 L29.2587118,36.8334905 Z M46.6816385,33.5172594 L25.9410283,33.5172594 L25.9410283,21.9459454 L38.6825612,21.9459454 L37.0440733,23.5787075 L35.4768241,29.8156559 L41.7356441,28.2538834 L46.6816385,23.325173 L46.6816385,33.5172594 L46.6816385,33.5172594 Z" id="Shape" stroke-width="0.75"></path>
                            <rect id="Rectangle-path" stroke-width="0.75" transform="translate(44.549242, 20.779755) rotate(-44.995949) translate(-44.549242, -20.779755) " x="42.4730184" y="19.9531817" width="4.15244663" height="1.65314591"></rect>
                        </g>
                    </g>
                </g>
            </g>
        </g>
    </g>
</svg>