<?xml version="1.0" encoding="UTF-8"?>
<svg width="56px" height="44px" viewBox="0 0 56 44" version="1.1" xmlns="http://www.w3.org/2000/svg" xmlns:xlink="http://www.w3.org/1999/xlink">
    <!-- Generator: Sketch 41.2 (35397) - http://www.bohemiancoding.com/sketch -->
    <title>retire</title>
    <desc>Created with Sketch.</desc>
    <defs></defs>
    <g id="Page-1" stroke="none" stroke-width="1" fill="none" fill-rule="evenodd">
        <g id="mutual-fund" transform="translate(-612.000000, -521.000000)" stroke="#28BBC4" fill="#FFFFFF">
            <g id="Group-5" transform="translate(592.000000, 495.000000)">
                <g id="retire" transform="translate(21.064168, 27.096498)">
                    <g id="Group">
                        <g id="Shape">
                            <path d="M11.5211542,33.5328201 C12.9591266,33.5328201 14.1292765,32.3568321 14.1292765,30.9110833 C14.1292765,29.4659368 12.9591266,28.2899487 11.5211542,28.2899487 C10.0831819,28.2899487 8.91303188,29.4653346 8.91303188,30.9110833 C8.91303188,32.3568321 10.0825827,33.5328201 11.5211542,33.5328201 Z M11.5211542,30.0969841 C11.9681239,30.0969841 12.3318111,30.4618836 12.3318111,30.9116855 C12.3318111,31.3614874 11.9681239,31.726989 11.5211542,31.726989 C11.0741845,31.726989 10.7104973,31.3614874 10.7104973,30.9116855 C10.7104973,30.4618836 11.0741845,30.0969841 11.5211542,30.0969841 Z"></path>
                            <path d="M17.3653135,33.5328201 C18.8032858,33.5328201 19.9734358,32.3568321 19.9734358,30.9110833 C19.9734358,29.4659368 18.8032858,28.2899487 17.3653135,28.2899487 C15.9273411,28.2899487 14.7571911,29.4653346 14.7571911,30.9110833 C14.7577903,32.3568321 15.9273411,33.5328201 17.3653135,33.5328201 Z M17.3653135,30.0969841 C17.8122832,30.0969841 18.1759704,30.4618836 18.1759704,30.9116855 C18.1759704,31.3614874 17.8122832,31.726989 17.3653135,31.726989 C16.9183437,31.726989 16.5546566,31.3614874 16.5546566,30.9116855 C16.5546566,30.4618836 16.9189429,30.0969841 17.3653135,30.0969841 Z"></path>
                            <path d="M11.9237865,35.3994678 C11.9237865,34.9008922 11.5217534,34.4962512 11.0250538,34.4962512 C10.5283541,34.4962512 10.126321,34.9008922 10.126321,35.3994678 C10.126321,37.7923897 12.0627905,39.7385204 14.443833,39.7385204 C16.8248755,39.7385204 18.7613449,37.7923897 18.7613449,35.3994678 C18.7613449,34.9008922 18.3593118,34.4962512 17.8626122,34.4962512 C17.3659126,34.4962512 16.9638795,34.9008922 16.9638795,35.3994678 C16.9638795,36.7958407 15.8332738,37.9320872 14.443833,37.9320872 C13.0543922,37.9320872 11.9237865,36.7964428 11.9237865,35.3994678 Z"></path>
                            <path d="M43.9246626,34.4962512 C43.4285621,34.4962512 43.0259299,34.9008922 43.0259299,35.3994678 C43.0259299,36.7958407 41.8953241,37.9320872 40.5064825,37.9320872 C39.1170417,37.9320872 37.986436,36.7958407 37.986436,35.3994678 C37.986436,34.9008922 37.5838037,34.4962512 37.0877032,34.4962512 C36.5916028,34.4962512 36.1889705,34.9008922 36.1889705,35.3994678 C36.1889705,37.7923897 38.12544,39.7385204 40.5064825,39.7385204 C42.8869259,39.7385204 44.8233953,37.7923897 44.8233953,35.3994678 C44.8233953,34.9008922 44.420763,34.4962512 43.9246626,34.4962512 Z"></path>
                            <path d="M45.2493946,28.1990249 L41.8545815,28.1990249 C41.3584811,28.1990249 40.9558488,28.603666 40.9558488,29.1022415 L40.9558488,32.5922705 C40.9558488,33.0908461 41.3584811,33.4954872 41.8545815,33.4954872 L45.2493946,33.4954872 C45.745495,33.4954872 46.1481273,33.0908461 46.1481273,32.5922705 L46.1481273,29.1022415 C46.1481273,28.603666 45.745495,28.1990249 45.2493946,28.1990249 Z M44.3506619,31.6890539 L42.7533143,31.6890539 L42.7533143,30.0054581 L44.3506619,30.0054581 L44.3506619,31.6890539 Z"></path>
                            <path d="M40.0571161,32.5922705 L40.0571161,29.1022415 C40.0571161,28.603666 39.6544839,28.1990249 39.1583834,28.1990249 L35.7629712,28.1990249 C35.2668708,28.1990249 34.8642385,28.603666 34.8642385,29.1022415 L34.8642385,32.5922705 C34.8642385,33.0908461 35.2668708,33.4954872 35.7629712,33.4954872 L39.1583834,33.4954872 C39.6544839,33.4954872 40.0571161,33.0908461 40.0571161,32.5922705 Z M38.2596507,31.6890539 L36.6617039,31.6890539 L36.6617039,30.0054581 L38.2596507,30.0054581 L38.2596507,31.6890539 Z"></path>
                            <path d="M53.2347377,10.1887318 L26.9075283,0.0556663959 C26.7120348,-0.0192056982 26.4958156,-0.0186427501 26.3008822,0.0579181882 L0.533826182,10.1909836 C0.211737982,10.3176469 0,10.6295201 0,10.977422 L0,36.5915595 C0,37.0576805 0.375862926,37.4359816 0.840230087,37.4359816 L7.7049099,37.4359816 C7.90600497,40.0688897 10.0967649,42.1501088 12.7664559,42.1501088 L17.6000196,42.1501088 C20.4019068,42.1501088 22.6817311,39.8594731 22.6817311,37.0430438 L22.6817311,34.1410465 L22.8094461,34.1410465 C24.7078059,34.1410465 26.2521488,32.5889987 26.2521488,30.6282505 C26.2521488,30.2127948 26.1754078,29.8164794 26.040971,29.4471854 C26.7842946,28.0567037 27.2105713,26.5074706 27.2105713,24.865914 C27.2105713,20.5019405 24.2753675,16.7448251 20.0798186,15.0666768 C20.0977435,14.913555 20.1184692,14.760996 20.1184692,14.6033706 C20.1184692,12.1382209 17.9041828,10.132437 15.1829577,10.132437 C12.4611723,10.132437 10.246886,12.137658 10.246886,14.6033706 C10.246886,14.760996 10.2676117,14.913555 10.2855366,15.0666768 C6.08942752,16.745388 3.1547839,20.5025035 3.1547839,24.865914 C3.1547839,26.5108483 3.5838614,28.0634591 4.32998572,29.4567556 C4.19274813,29.8373085 4.11376651,30.2476976 4.11376651,30.6806047 C4.11376651,32.5889987 5.65810941,34.1404835 7.55646925,34.1404835 L7.68418422,34.1404835 L7.68418422,35.7465744 L1.68046017,35.7465744 L1.68046017,11.5538808 L26.610647,1.74957716 L52.0942654,11.5583844 L52.0942654,35.7471374 L47.0489638,35.7471374 L47.0489638,34.1410465 L47.1766788,34.1410465 C49.0755988,34.1410465 50.6193815,32.5889987 50.6193815,30.6282505 C50.6193815,29.5400719 50.1163638,28.5689864 49.332149,27.934544 C49.4845108,27.2359254 49.5713345,26.5131001 49.5713345,25.7694457 C49.5713345,22.4570592 48.0051456,19.5089001 45.3696239,17.6613045 C44.467777,16.8410892 43.2763307,16.3366877 41.9672522,16.3366877 L37.1336886,16.3366877 C35.82405,16.3366877 34.6320436,16.8416521 33.7301966,17.6618675 C31.0952351,19.5089001 29.5296063,22.4570592 29.5296063,25.7688827 C29.5296063,26.514226 29.6164301,27.2381772 29.769352,27.9379216 C28.9851372,28.5779936 28.4815593,29.5625898 28.4815593,30.6811676 C28.4815593,32.5895616 30.0259022,34.1410465 31.9242621,34.1410465 L32.0525372,34.1410465 L32.0525372,37.0424809 C32.0525372,39.8589101 34.3318014,42.1495458 37.1342488,42.1495458 L41.9678124,42.1495458 C44.6380636,42.1495458 46.8288235,40.0683268 47.0299186,37.4354186 L52.9344955,37.4354186 C53.3983025,37.4354186 53.7747256,37.0571175 53.7747256,36.5909965 L53.7747256,10.9768591 C53.7747256,10.6272683 53.5601868,10.3137062 53.2347377,10.1887318 Z M15.1835178,11.8218441 C16.9519221,11.8218441 18.3920765,13.0338713 18.4346481,14.5363798 C17.3989245,14.2762977 16.3111066,14.1265536 15.1835178,14.1265536 C14.0559291,14.1265536 12.9681112,14.2757348 11.9323875,14.5363798 C11.974399,13.0338713 13.4151136,11.8218441 15.1835178,11.8218441 Z M4.83580423,24.8664769 C4.83580423,19.8759423 9.47779538,15.8159607 15.1835178,15.8159607 C20.8892403,15.8159607 25.5312314,19.8759423 25.5312314,24.8664769 C25.5312314,25.9321377 25.3110911,26.9510737 24.9201041,27.9002041 C24.3364242,27.4430903 23.6054241,27.1683716 22.8100063,27.1683716 L22.6822913,27.1683716 L22.6822913,25.2757402 C22.6822913,23.8126381 21.498127,22.6231289 20.0428485,22.6231289 L10.3241872,22.6231289 C8.86890865,22.6231289 7.68474438,23.8126381 7.68474438,25.2757402 L7.68474438,27.1683716 L7.5570294,27.1683716 C6.76217174,27.1683716 6.03173172,27.4430903 5.44805188,27.9030189 C5.05650466,26.9533255 4.83580423,25.9332636 4.83580423,24.8664769 Z M7.5570294,32.4522023 C6.58516327,32.4522023 5.79478683,31.6578825 5.79478683,30.6282505 C5.79478683,29.6515356 6.58572342,28.8572159 7.5570294,28.8572159 L8.52497446,28.8572159 C8.98934163,28.8572159 9.36520455,28.4789148 9.36520455,28.0127937 L9.36520455,25.2757402 C9.36520455,24.7443172 9.79540236,24.3119731 10.3241872,24.3119731 L20.0422883,24.3119731 C20.5710731,24.3119731 21.001271,24.7443172 21.001271,25.2757402 L21.001271,28.0127937 C21.001271,28.4789148 21.3771339,28.8572159 21.841501,28.8572159 L22.8094461,28.8572159 C23.7813122,28.8572159 24.5716887,29.6515356 24.5716887,30.6811676 C24.5716887,31.6578825 23.7807521,32.4522023 22.8094461,32.4522023 L21.841501,32.4522023 C21.3771339,32.4522023 21.001271,32.8305034 21.001271,33.2966244 L21.001271,37.0424809 C21.001271,38.927794 19.4754131,40.4607016 17.6000196,40.4607016 L12.7664559,40.4607016 C10.8910624,40.4607016 9.36520455,38.927231 9.36520455,37.0424809 L9.36520455,33.2966244 C9.36520455,32.8305034 8.98934163,32.4522023 8.52497446,32.4522023 L7.5570294,32.4522023 Z M47.0489638,22.1328011 C47.5911923,23.2350534 47.8908744,24.4667838 47.8908744,25.7694457 C47.8908744,26.2659659 47.8410207,26.7495383 47.7569977,27.2218517 C47.5676658,27.1892007 47.3744129,27.1689346 47.1766788,27.1689346 L47.0489638,27.1689346 L47.0489638,22.1328011 Z M32.0514169,22.1322381 L32.0514169,27.1683716 L31.9231418,27.1683716 C31.7248475,27.1683716 31.5321547,27.1892007 31.3428229,27.2212887 C31.25936,26.7489753 31.2089462,26.2654029 31.2089462,25.7688827 C31.2100665,24.4662209 31.5091884,23.2344905 32.0514169,22.1322381 Z M45.3685036,37.0430438 C45.3685036,38.9283569 43.8426458,40.4612645 41.9672522,40.4612645 L37.1336886,40.4612645 C35.2577349,40.4612645 33.7324372,38.927794 33.7324372,37.0430438 L33.7324372,33.2966244 C33.7324372,32.8305034 33.3560142,32.4522023 32.8922071,32.4522023 L31.9237019,32.4522023 C30.9523959,32.4522023 30.1614594,31.6578825 30.1614594,30.6282505 C30.1614594,29.6515356 30.9518358,28.8572159 31.9237019,28.8572159 L32.8922071,28.8572159 C33.3560142,28.8572159 33.7324372,28.4789148 33.7324372,28.0127937 L33.7324372,21.4437526 C33.7324372,19.5590025 35.2582951,18.0255319 37.1336886,18.0255319 L41.9672522,18.0255319 C43.8432059,18.0255319 45.3685036,19.5590025 45.3685036,21.4437526 L45.3685036,28.0122308 C45.3685036,28.4783518 45.7449267,28.8566529 46.2087337,28.8566529 L47.1766788,28.8566529 C48.1485449,28.8566529 48.9389213,29.6509726 48.9389213,30.6806047 C48.9389213,31.6573196 48.1485449,32.4516393 47.1766788,32.4516393 L46.2087337,32.4516393 C45.7449267,32.4516393 45.3685036,32.8299404 45.3685036,33.2960614 L45.3685036,37.0430438 Z"></path>
                        </g>
                    </g>
                </g>
            </g>
        </g>
    </g>
</svg>