<?xml version="1.0" encoding="UTF-8"?>
<svg width="47px" height="47px" viewBox="0 0 47 47" version="1.1" xmlns="http://www.w3.org/2000/svg" xmlns:xlink="http://www.w3.org/1999/xlink">
    <!-- Generator: Sketch 41.2 (35397) - http://www.bohemiancoding.com/sketch -->
    <title>search_icon</title>
    <desc>Created with Sketch.</desc>
    <defs></defs>
    <g id="Page-1" stroke="none" stroke-width="1" fill="none" fill-rule="evenodd" opacity="0.200000003">
        <g id="symbol-search" transform="translate(-1069.000000, -135.000000)" fill="#000000">
            <g id="search_icon" transform="translate(1069.000000, 135.000000)">
                <g id="Search1">
                    <path d="M18.4261988,3.68044792 C26.5628156,3.6809518 33.1585312,10.249694 33.1583625,18.3523641 C33.1581939,26.4550341 26.5622048,33.023504 18.425588,33.023672 C10.2889712,33.02384 3.69270872,26.4556424 3.69220273,18.3529723 C3.69195972,14.4615027 5.24420895,10.7293481 8.0074219,7.97766357 C10.7706349,5.22597902 14.5184256,3.68020592 18.4261988,3.68044792 L18.4261988,3.68044792 Z M18.4261988,0.00364942778 C9.66228086,0.00832338889 2.11380895,6.15823634 0.373310118,14.7117513 C-1.36718871,23.2652663 3.18174364,31.8563036 11.2525146,35.2580342 C20.6149655,39.1430104 31.3700544,34.7643113 35.3178372,25.4603648 C39.2656199,16.1564182 34.9221371,5.42454898 25.5989669,1.44699812 C23.3301615,0.488993863 20.8905336,-0.00316437894 18.4261988,-1.99346455e-13 L18.4261988,-1.99346455e-13 L18.4261988,0.00364942778 Z" id="Shape"></path>
                    <rect id="Rectangle-path" transform="translate(39.358427, 38.825445) rotate(-45.000000) translate(-39.358427, -38.825445) " x="37.5123255" y="30.0307797" width="3.69220273" height="17.5893296"></rect>
                </g>
            </g>
        </g>
    </g>
</svg>