<?xml version="1.0" encoding="UTF-8"?>
<svg width="25px" height="25px" viewBox="0 0 25 25" version="1.1" xmlns="http://www.w3.org/2000/svg" xmlns:xlink="http://www.w3.org/1999/xlink">
    <!-- Generator: Sketch 41.2 (35397) - http://www.bohemiancoding.com/sketch -->
    <title>ion-ios-search - Ionicons</title>
    <desc>Created with Sketch.</desc>
    <defs></defs>
    <g id="Page-1" stroke="none" stroke-width="1" fill="none" fill-rule="evenodd" opacity="0.800000012">
        <g id="Home-page_member" transform="translate(-1029.000000, -70.000000)" fill="#FFFFFF">
            <g id="Group-15" transform="translate(387.000000, 68.000000)">
                <g id="Group-3">
                    <path d="M667,25.5026042 L665.502604,27 L658.145833,19.6432292 C656.366311,21.075528 654.282998,21.7916667 651.895833,21.7916667 C649.161445,21.7916667 646.828569,20.8259645 644.897135,18.8945312 C642.965702,16.963098 642,14.630222 642,11.8958333 C642,9.16144466 642.965702,6.82856868 644.897135,4.89713542 C646.828569,2.96570215 649.161445,2 651.895833,2 C654.630222,2 656.963098,2.96570215 658.894531,4.89713542 C660.825965,6.82856868 661.791667,9.16144466 661.791667,11.8958333 C661.791667,14.2395951 661.075528,16.3012064 659.643229,18.0807292 L667,25.5026042 Z M645.645833,18.2109375 C647.33855,19.9036543 649.421863,20.75 651.895833,20.75 C654.326401,20.75 656.409714,19.8819531 658.145833,18.1458333 C659.881953,16.4097135 660.75,14.326401 660.75,11.8958333 C660.75,9.46526562 659.881953,7.38195313 658.145833,5.64583333 C656.409714,3.90971354 654.326401,3.04166667 651.895833,3.04166667 C649.465266,3.04166667 647.381953,3.90971354 645.645833,5.64583333 C643.909714,7.38195313 643.041667,9.46526562 643.041667,11.8958333 C643.041667,14.369804 643.909714,16.4748177 645.645833,18.2109375 Z" id="ion-ios-search---Ionicons"></path>
                </g>
            </g>
        </g>
    </g>
</svg>