<?xml version="1.0" encoding="UTF-8"?>
<svg width="48px" height="42px" viewBox="0 0 48 42" version="1.1" xmlns="http://www.w3.org/2000/svg" xmlns:xlink="http://www.w3.org/1999/xlink">
    <!-- Generator: Sketch 41.2 (35397) - http://www.bohemiancoding.com/sketch -->
    <title>graph</title>
    <desc>Created with Sketch.</desc>
    <defs></defs>
    <g id="Page-1" stroke="none" stroke-width="1" fill="none" fill-rule="evenodd">
        <g id="graph">
            <rect id="Rectangle-Copy-4" fill="#FFFFFF" x="0" y="0" width="48" height="42"></rect>
            <g id="graph-copy" transform="translate(6.000000, 3.000000)" stroke-width="0.4" stroke="#FFFFFF" fill="#046567">
                <g id="graph">
                    <g id="Page-1">
                        <g id="Selfie_detail_page_with_Account_opening_form">
                            <g id="Group-5-Copy-3">
                                <g id="noun_143707_cc">
                                    <g id="Group">
                                        <g id="graph">
                                            <path d="M35,35.75 L1,35.75 C0.6,35.75 0.25,35.4 0.25,35 L0.25,1 C0.25,0.6 0.6,0.25 1,0.25 C1.4,0.25 1.75,0.6 1.75,1 L1.75,33.6 C1.75,33.95 2.05,34.25 2.4,34.25 L35,34.25 C35.4,34.25 35.75,34.6 35.75,35 C35.75,35.4 35.4,35.75 35,35.75 Z" id="Shape"></path>
                                            <path d="M32.05,0.85 C31.7,0.6 31.25,0.7 31,1 L29,3.75 C28.9,3.9 28.7,3.95 28.55,3.85 C28,3.6 27.35,3.5 26.65,3.55 C24.95,3.7 23.55,5.05 23.3,6.75 C23.15,8 23.6,9.15 24.4,9.95 C24.5,10.05 24.55,10.2 24.5,10.35 L21.25,17.55 C21.2,17.7 21.05,17.75 20.9,17.7 C20.65,17.65 20.4,17.6 20.1,17.6 C19.5,17.6 18.9,17.75 18.4,18 C18.3,18.05 18.15,18.05 18.05,17.95 L14.65,14.5 C14.55,14.4 14.55,14.2 14.6,14.1 C15.05,13.35 15.2,12.4 15,11.45 C14.7,10 13.55,8.85 12.1,8.55 C9.7,8.1 7.6,9.9 7.6,12.2 C7.6,13.6 8.4,14.85 9.5,15.45 C9.65,15.55 9.7,15.7 9.7,15.85 L8,23.4 C7.95,23.6 7.8,23.7 7.6,23.75 C7.4,23.75 7.1,23.8 6.95,23.85 C5.1,24.3 3.75,26.1 4.1,28.15 C4.35,29.65 5.55,30.85 7.05,31.15 C9.45,31.6 11.55,29.8 11.55,27.5 C11.55,26.1 10.8,24.9 9.65,24.25 C9.5,24.15 9.4,24 9.45,23.85 L11.25,16.35 C11.3,16.2 11.4,16.1 11.55,16.1 C11.75,16.1 12,16.1 12.15,16.05 C12.55,16 12.9,15.85 13.25,15.65 C13.4,15.55 13.55,15.6 13.65,15.7 L17,19.1 C17.1,19.2 17.1,19.35 17.05,19.5 C16.55,20.25 16.35,21.25 16.55,22.25 C16.85,23.7 18,24.9 19.5,25.2 C21.9,25.65 24,23.85 24,21.5 C24,20.4 23.55,19.45 22.8,18.75 C22.7,18.65 22.65,18.5 22.7,18.4 L25.9,11.25 C25.95,11.1 26.15,11 26.3,11.05 C26.8,11.15 27.3,11.2 27.85,11.05 C29.35,10.75 30.55,9.55 30.8,8.05 C31,7 30.75,6.05 30.2,5.25 C30.1,5.15 30.1,4.95 30.2,4.85 L32.25,1.95 C32.5,1.55 32.4,1.1 32.05,0.85 Z M10.05,27.45 C10.05,28.7 9.05,29.7 7.8,29.7 C6.55,29.7 5.55,28.7 5.55,27.45 C5.55,26.2 6.55,25.2 7.8,25.2 C9.05,25.2 10.05,26.2 10.05,27.45 Z M9.15,12.3 C9.15,11.05 10.15,10.05 11.4,10.05 C12.65,10.05 13.65,11.05 13.65,12.3 C13.65,13.55 12.65,14.55 11.4,14.55 C10.15,14.55 9.15,13.55 9.15,12.3 Z M20.15,23.7 C18.9,23.7 17.9,22.7 17.9,21.45 C17.9,20.2 18.9,19.2 20.15,19.2 C21.4,19.2 22.4,20.2 22.4,21.45 C22.4,22.7 21.4,23.7 20.15,23.7 Z M27.1,9.6 C25.85,9.6 24.85,8.6 24.85,7.35 C24.85,6.1 25.85,5.1 27.1,5.1 C28.35,5.1 29.35,6.1 29.35,7.35 C29.35,8.6 28.3,9.6 27.1,9.6 Z" id="Shape"></path>
                                        </g>
                                    </g>
                                </g>
                            </g>
                        </g>
                    </g>
                </g>
            </g>
        </g>
    </g>
</svg>