<?xml version="1.0" encoding="UTF-8"?>
<svg width="48px" height="42px" viewBox="0 0 48 42" version="1.1" xmlns="http://www.w3.org/2000/svg" xmlns:xlink="http://www.w3.org/1999/xlink">
    <!-- Generator: Sketch 41.2 (35397) - http://www.bohemiancoding.com/sketch -->
    <title>Group 7</title>
    <desc>Created with Sketch.</desc>
    <defs></defs>
    <g id="Page-1" stroke="none" stroke-width="1" fill="none" fill-rule="evenodd">
        <g id="Group-7">
            <g id="save">
                <rect id="Rectangle-Copy-6" fill="#FFFFFF" x="0" y="0" width="48" height="42"></rect>
                <g id="save-copy" transform="translate(4.000000, 3.000000)" stroke-width="0.5" stroke="#FFFFFF" fill="#046567">
                    <g id="save">
                        <g id="Page-1">
                            <g id="Selfie_detail_page_with_Account_opening_form">
                                <g id="Group-5-Copy-5">
                                    <g id="noun_738195_cc">
                                        <g id="Group">
                                            <g id="save">
                                                <path d="M40.3505619,20.8 L39.3505619,18.04 C39.0305619,17.12 38.1905619,16.52 37.2705619,16.48 L33.3905619,16.36 L32.7505619,14.64 C32.5505619,14.04 32.0705619,13.56 31.5105619,13.32 C30.9505619,13.08 30.3905619,13.08 29.8305619,13.32 C29.6305619,13.4 29.4305619,13.52 29.2705619,13.68 C29.0305619,13.28 28.6705619,12.96 28.2705619,12.8 C27.7105619,12.56 27.1505619,12.56 26.5905619,12.8 C25.8305619,13.12 25.3105619,13.88 25.2305619,14.68 C24.9105619,14.68 24.5905619,14.72 24.3105619,14.84 C23.1905619,15.32 22.6305619,16.64 23.0705619,17.84 L23.1505619,18.04 C22.9105619,18.04 22.7105619,18.12 22.5105619,18.2 C21.9505619,18.44 21.5505619,18.88 21.3105619,19.44 L21.1905619,19.44 L21.1905619,12.24 L25.8305619,12.24 C28.6705619,12.24 30.9905619,9.92 30.9905619,7.08 L30.9905619,5.16 C30.9905619,2.32 28.6705619,0 25.8305619,0 L14.9505619,0 C12.1105619,0 9.79056187,2.32 9.79056187,5.16 L9.79056187,7.08 C9.79056187,9.92 12.1105619,12.24 14.9505619,12.24 L19.5505619,12.24 L19.5505619,19.4 L19.4305619,19.4 C19.1905619,18.84 18.7905619,18.4 18.2305619,18.16 C18.0305619,18.08 17.7905619,18.04 17.5905619,18 L17.6705619,17.8 C18.1105619,16.64 17.5505619,15.28 16.4305619,14.8 C16.1505619,14.68 15.8305619,14.6 15.5105619,14.64 C15.4305619,13.84 14.9105619,13.08 14.1505619,12.76 C13.5905619,12.52 12.9905619,12.52 12.4705619,12.76 C12.0305619,12.96 11.7105619,13.24 11.4705619,13.64 C11.3105619,13.52 11.1105619,13.4 10.9105619,13.28 C10.3505619,13.04 9.75056187,13.04 9.23056187,13.28 C8.67056187,13.52 8.23056187,14 8.03056187,14.6 L7.39056187,16.32 L3.47056187,16.44 C2.55056187,16.48 1.71056187,17.08 1.39056187,18 L0.350561875,20.8 C0.0305618747,21.72 -0.0894381253,22.68 0.0705618747,23.68 C0.390561875,25.8 1.39056187,27.76 2.87056187,29.2 C3.19056187,29.48 3.27056187,29.96 3.11056187,30.4 L2.99056187,30.68 C2.83056187,31.08 3.03056187,31.56 3.47056187,31.72 C3.55056187,31.76 3.67056187,31.76 3.75056187,31.76 C4.07056187,31.76 4.39056187,31.56 4.51056187,31.24 L4.63056187,30.92 C4.99056187,29.92 4.75056187,28.76 3.99056187,28 C2.75056187,26.8 1.95056187,25.16 1.67056187,23.4 C1.55056187,22.72 1.63056187,22 1.87056187,21.32 L2.87056187,18.56 C2.99056187,18.28 3.23056187,18.08 3.51056187,18.08 L7.67056187,17.96 C7.75056187,17.96 7.83056187,18 7.87056187,18.04 C7.95056187,18.12 7.99056187,18.24 7.99056187,18.36 C7.99056187,18.8 7.75056187,19.16 7.43056187,19.36 C6.51056187,19.04 5.59056187,18.84 4.63056187,18.84 C4.19056187,18.8 3.83056187,19.16 3.79056187,19.6 C3.79056187,20.04 4.11056187,20.4 4.55056187,20.44 C5.51056187,20.48 6.43056187,20.68 7.31056187,21.04 C8.91056187,21.72 10.2305619,22.88 11.1505619,24.44 L11.7905619,25.52 C12.5905619,26.8 12.9905619,27.04 14.1105619,27.48 C14.2705619,27.52 14.4305619,27.6 14.6305619,27.68 L16.7505619,28.48 L16.3505619,29.56 C15.9905619,30.56 15.1905619,31.28 14.2305619,31.48 C13.7505619,31.6 13.3905619,31.92 13.2305619,32.4 L12.3905619,34.64 C12.2305619,35.04 12.4305619,35.52 12.8705619,35.68 C12.9505619,35.72 13.0705619,35.72 13.1505619,35.72 C13.4705619,35.72 13.7905619,35.52 13.9105619,35.2 L14.7105619,33.04 C15.6705619,32.8 16.5105619,32.24 17.1105619,31.48 L17.1105619,32.52 C17.1105619,32.96 17.4705619,33.32 17.9105619,33.32 C18.3505619,33.32 18.7105619,32.96 18.7105619,32.52 L18.7105619,28.08 C18.7105619,27.96 18.6705619,27.88 18.6705619,27.8 C18.5905619,27.6 18.4305619,27.4 18.1905619,27.32 L17.1105619,26.92 L15.2305619,26.24 C15.0305619,26.16 14.8705619,26.08 14.7105619,26.04 C13.8305619,25.68 13.7105619,25.64 13.1505619,24.72 L12.5105619,23.64 C12.4305619,23.48 12.3105619,23.32 12.1905619,23.16 C11.8305619,22.64 11.4305619,22.12 10.9905619,21.68 C11.7505619,21.56 12.5105619,21.48 13.2305619,21.4 C13.7105619,21.36 14.1505619,21.32 14.6305619,21.28 C15.2305619,21.24 15.7905619,21.2 16.3905619,21.16 C16.8305619,21.12 17.3105619,21.12 17.7505619,21.08 C18.3105619,21.04 18.9105619,21.04 19.4705619,21.04 L21.1105619,21.04 C21.6705619,21.04 22.2705619,21.04 22.8305619,21.08 C23.2705619,21.08 23.7505619,21.12 24.1905619,21.16 C24.7905619,21.2 25.3505619,21.24 25.9505619,21.28 C26.4305619,21.32 26.8705619,21.36 27.3505619,21.4 C28.1105619,21.48 28.8705619,21.56 29.5905619,21.68 C29.1505619,22.12 28.7505619,22.6 28.3905619,23.16 C28.2705619,23.32 28.1905619,23.48 28.0705619,23.64 L27.4305619,24.72 C26.8705619,25.64 26.7505619,25.68 25.9105619,26.04 C25.7505619,26.12 25.5905619,26.16 25.4305619,26.24 L23.5505619,26.92 L22.4705619,27.32 C22.2705619,27.4 22.0705619,27.56 21.9905619,27.8 C21.9905619,27.88 21.9505619,27.96 21.9505619,28.08 L21.9505619,32.56 C21.9505619,33 22.3105619,33.36 22.7505619,33.36 C23.1905619,33.36 23.5505619,33 23.5505619,32.56 L23.5505619,31.48 C24.1505619,32.24 24.9905619,32.8 25.9505619,33.04 L26.7505619,35.2 C26.8705619,35.52 27.1905619,35.72 27.5105619,35.72 C27.5905619,35.72 27.7105619,35.72 27.7905619,35.68 C28.1905619,35.52 28.4305619,35.08 28.2705619,34.64 L27.4305619,32.4 C27.2705619,31.96 26.8705619,31.6 26.4305619,31.48 C25.4705619,31.28 24.6705619,30.52 24.3105619,29.56 L23.9105619,28.48 L26.0705619,27.68 C26.2705619,27.6 26.4305619,27.52 26.5505619,27.48 C27.6705619,27.04 28.0705619,26.8 28.8705619,25.52 L29.5105619,24.44 C30.4305619,22.88 31.7905619,21.72 33.3505619,21.04 C34.2305619,20.68 35.1505619,20.48 36.1105619,20.44 C36.5505619,20.44 36.9105619,20.04 36.8705619,19.6 C36.8305619,19.16 36.5105619,18.8 36.0305619,18.84 C35.0705619,18.88 34.1105619,19.04 33.2305619,19.36 C32.9105619,19.16 32.7105619,18.76 32.6705619,18.36 C32.6705619,18.24 32.7105619,18.12 32.7905619,18.04 C32.8305619,18 32.9105619,17.96 32.9905619,17.96 L37.1505619,18.08 C37.4305619,18.08 37.6705619,18.28 37.7905619,18.56 L38.7905619,21.32 C39.0305619,21.96 39.1105619,22.68 38.9905619,23.4 C38.7105619,25.16 37.9105619,26.8 36.6705619,28 C35.9105619,28.76 35.6705619,29.88 36.0305619,30.88 L36.1505619,31.2 C36.2705619,31.52 36.5905619,31.72 36.9105619,31.72 C36.9905619,31.72 37.1105619,31.72 37.1905619,31.68 C37.5905619,31.52 37.8305619,31.08 37.6705619,30.64 L37.5505619,30.32 C37.3905619,29.92 37.5105619,29.4 37.8305619,29.12 C39.3105619,27.68 40.3105619,25.72 40.6305619,23.6 C40.7905619,22.68 40.6705619,21.68 40.3505619,20.8 Z M9.47056187,15.2 C9.55056187,15 9.67056187,14.88 9.83056187,14.8 C9.91056187,14.76 10.0705619,14.72 10.2705619,14.8 C10.5905619,14.96 10.7505619,15.36 10.6305619,15.76 L9.59056187,18.6 L9.59056187,18.44 C9.63056187,17.88 9.39056187,17.32 8.99056187,16.92 C8.95056187,16.88 8.91056187,16.84 8.87056187,16.8 L9.47056187,15.2 Z M10.7105619,20.12 L12.7105619,14.68 C12.7905619,14.48 12.9105619,14.36 13.0705619,14.28 C13.1505619,14.24 13.3105619,14.2 13.5105619,14.28 C13.8305619,14.44 13.9905619,14.84 13.8705619,15.24 L12.1505619,19.96 C11.6705619,19.96 11.1905619,20.04 10.7105619,20.12 Z M13.9105619,19.72 L15.0305619,16.68 C15.1105619,16.48 15.2305619,16.36 15.3905619,16.28 C15.4705619,16.24 15.6305619,16.2 15.8305619,16.28 C16.1505619,16.44 16.3105619,16.84 16.1905619,17.24 L15.3505619,19.48 L15.3505619,19.48 L15.3105619,19.6 C14.8305619,19.64 14.3905619,19.68 13.9105619,19.72 Z M20.3505619,4.24 C19.9105619,4.24 19.5505619,4.6 19.5505619,5.04 L19.5505619,5.08 L19.5505619,6.68 L19.5505619,8.32 L17.9905619,7.64 C17.5905619,7.48 17.1105619,7.64 16.9505619,8.04 C16.7905619,8.44 16.9505619,8.92 17.3505619,9.08 L19.5505619,10.04 L19.5505619,10.6 L14.9505619,10.6 C12.9905619,10.6 11.3905619,9 11.3905619,7.04 L11.3905619,5.12 C11.3905619,3.16 12.9905619,1.56 14.9505619,1.56 L25.7905619,1.56 C27.7505619,1.56 29.3505619,3.16 29.3505619,5.12 L29.3505619,7.08 C29.3505619,9.04 27.7505619,10.64 25.7905619,10.64 L21.1505619,10.64 L21.1505619,9.56 L21.1505619,9.56 L21.1505619,7.32 L23.6305619,6.72 C24.0705619,6.6 24.3105619,6.2 24.2305619,5.76 C24.1105619,5.32 23.7105619,5.08 23.2705619,5.16 L21.1505619,5.64 L21.1505619,5.08 L21.1505619,5.04 C21.1505619,4.6 20.7905619,4.24 20.3505619,4.24 Z M30.4305619,14.8 C30.5905619,14.72 30.7505619,14.76 30.8705619,14.8 C31.0305619,14.88 31.1505619,15 31.2305619,15.2 L31.8305619,16.8 C31.7905619,16.84 31.7505619,16.88 31.7105619,16.92 C31.3105619,17.32 31.1105619,17.88 31.1105619,18.44 L31.1105619,18.6 L30.0705619,15.76 C29.9505619,15.4 30.1105619,14.96 30.4305619,14.8 Z M25.3905619,19.6 L25.3505619,19.48 L25.3505619,19.48 L24.5105619,17.24 C24.3905619,16.88 24.5505619,16.44 24.8705619,16.28 C25.0305619,16.2 25.1905619,16.24 25.3105619,16.28 C25.4705619,16.36 25.5905619,16.48 25.6705619,16.68 L26.7905619,19.72 C26.3105619,19.68 25.8705619,19.64 25.3905619,19.6 Z M28.5505619,19.92 L26.8305619,15.2 C26.7105619,14.84 26.8705619,14.4 27.1905619,14.24 C27.3505619,14.16 27.5105619,14.2 27.6305619,14.24 C27.7905619,14.32 27.9105619,14.44 27.9905619,14.64 L29.9905619,20.12 C29.5105619,20.04 29.0305619,19.96 28.5505619,19.92 Z" id="Shape"></path>
                                            </g>
                                        </g>
                                    </g>
                                </g>
                            </g>
                        </g>
                    </g>
                </g>
            </g>
        </g>
    </g>
</svg>