<?xml version="1.0" encoding="UTF-8"?>
<svg width="28px" height="27px" viewBox="0 0 28 27" version="1.1" xmlns="http://www.w3.org/2000/svg" xmlns:xlink="http://www.w3.org/1999/xlink">
    <!-- Generator: Sketch 41.2 (35397) - http://www.bohemiancoding.com/sketch -->
    <title>call</title>
    <desc>Created with Sketch.</desc>
    <defs></defs>
    <g id="Page-1" stroke="none" stroke-width="1" fill="none" fill-rule="evenodd">
        <g id="Selfie_detail_page_with_Account_opening_form" transform="translate(-906.000000, -659.000000)" stroke-width="0.3" stroke="#046567" fill="#046567">
            <g id="call" transform="translate(907.000000, 659.000000)">
                <g id="Group">
                    <g transform="translate(0.000000, 0.637820)" id="Shape">
                        <path d="M4.80692637,0.00104458193 C4.79414465,0.00337729251 4.78152666,0.00653179181 4.76915092,0.0104884451 C4.6563959,0.0309446233 4.56490836,0.113410986 4.53289843,0.223445131 C4.5008885,0.333479277 4.53386265,0.452152678 4.61804911,0.529900922 L10.4543566,6.36620839 L7.32843785,9.775443 C7.23798164,9.87359913 7.22262678,10.0194703 7.2906624,10.1343098 C8.32300569,11.9476585 9.52549294,13.5931663 10.9643252,15.0356748 C12.3851101,16.4601116 14.0316929,17.6820266 15.8656902,18.7093376 C15.9805297,18.7773732 16.1264009,18.7620184 16.224557,18.6715621 L19.8510005,15.3473223 C19.931996,15.2731 19.9672363,15.1613019 19.9434444,15.0540491 C19.9196524,14.9467963 19.8404435,14.8603866 19.7356604,14.8273757 C19.6308773,14.7943648 19.5164425,14.8197689 19.4354705,14.8940169 L15.9790166,18.057711 C14.2693754,17.0789037 12.725671,15.9316179 11.3987429,14.6012571 C10.0550199,13.2540938 8.92637063,11.7162732 7.94228896,10.0209834 L11.1059831,6.56452951 C11.2198134,6.44421437 11.2156019,6.25469542 11.0965393,6.13955567 L5.05246682,0.095483214 C4.9893321,0.0281651733 4.89889928,-0.00661667946 4.80692637,0.00104458193 Z M3.2864644,1.52150656 C3.21756289,1.53138469 3.1541828,1.56474263 3.107031,1.61594519 L0.887723142,3.92969168 C0.303076659,4.52918207 0,5.38078886 0,6.35676452 C0,9.57494299 2.57300969,14.5016508 7.03567809,18.9643219 C11.498361,23.426993 16.4250588,26 19.6432355,26 C20.6192423,26 21.4708243,25.6968595 22.0703083,25.1122769 L25.8950729,21.3819509 C25.9551793,21.3263011 25.9901235,21.2486377 25.9919038,21.1667444 C25.9936841,21.0848511 25.962148,21.0057425 25.9045168,20.9475332 L21.3714624,16.4144788 C21.2938628,16.3368694 21.1807525,16.3065564 21.0747421,16.3349594 C20.9687318,16.3633624 20.8859283,16.4461659 20.8575253,16.5521762 C20.8291223,16.6581866 20.8594353,16.7712969 20.9370447,16.8488965 L25.2528902,21.164742 L21.6547783,24.6778592 C21.1853911,25.1355768 20.4950994,25.3955928 19.6432355,25.3955928 C16.7586856,25.3955928 11.8558769,22.9156645 7.4700958,18.5299042 C3.08432976,14.1441439 0.604407245,9.24131623 0.604407245,6.35676452 C0.604407245,5.50491597 0.864392206,4.81459224 1.32214085,4.34522166 L3.5414487,2.03147517 C3.630586,1.93929684 3.65185455,1.80090461 3.59450945,1.68621442 C3.53716435,1.57152422 3.41368944,1.50550372 3.2864644,1.52150656 Z M13.5613876,3.02308081 C13.4437535,3.03452912 13.343586,3.11349609 13.3049946,3.22520797 C13.2664032,3.33691986 13.2964698,3.46087677 13.3819542,3.54249329 L17.9150085,8.07554763 C17.9719481,8.13439803 18.0503303,8.16762531 18.1322174,8.16762531 C18.2141044,8.16762531 18.2924867,8.13439803 18.3494262,8.07554763 L22.3630681,4.0524619 L22.3630681,6.35676452 C22.3615268,6.46575 22.418787,6.56712283 22.5129227,6.62206537 C22.6070583,6.67700791 22.7234851,6.67700791 22.8176208,6.62206537 C22.9117564,6.56712283 22.9690167,6.46575 22.9674753,6.35676452 L22.9674753,3.3347283 C22.9674586,3.16783276 22.8321672,3.03254136 22.6652717,3.03252467 L19.6432355,3.03252467 C19.6243894,3.03075022 19.6054183,3.03075022 19.5865723,3.03252467 C19.4196698,3.04817178 19.2970532,3.19615743 19.3127003,3.36305988 C19.3283474,3.52996233 19.476333,3.65257902 19.6432355,3.63693192 L21.9286504,3.63693192 L18.1322174,7.43336493 L13.8163719,3.11751944 C13.7511362,3.04742487 13.6565435,3.01239054 13.5613876,3.02308081 Z"></path>
                    </g>
                </g>
            </g>
        </g>
    </g>
</svg>