<?xml version="1.0" encoding="UTF-8"?>
<svg width="107px" height="23px" viewBox="0 0 107 23" version="1.1" xmlns="http://www.w3.org/2000/svg" xmlns:xlink="http://www.w3.org/1999/xlink">
    <!-- Generator: Sketch 41.2 (35397) - http://www.bohemiancoding.com/sketch -->
    <title>Group 5 Copy 2</title>
    <desc>Created with Sketch.</desc>
    <defs></defs>
    <g id="Page-1" stroke="none" stroke-width="1" fill="none" fill-rule="evenodd">
        <g id="Mobile-Menu" transform="translate(-61.000000, -20.000000)">
            <g id="Group-5-Copy-2" transform="translate(61.000000, 20.000000)">
                <g id="Geojit-Horizontal-White">
                    <polygon id="Fill-1" fill="#185C5C" points="0.4519211 22.8070607 22.5359624 22.8070607 22.5359624 0.733339107 0.4519211 0.733339107"></polygon>
                    <g id="Group-29">
                        <path d="M12.7731871,17.9652025 C17.5113668,17.555827 21.1927402,14.7103555 21.1927402,11.2689623 C21.1927402,11.1923647 21.187965,11.1157671 21.1842917,11.0384366 L20.5961976,11.0384366 L18.5053596,11.0384366 L13.6331048,11.0384366 C13.6331048,12.5729535 14.8801875,12.9738996 16.4185623,12.9738996 L18.2687996,12.9738996 C18.2177409,14.8485243 15.1138089,17.5378687 12.7731871,17.9652025 L12.7731871,17.9652025 Z" id="Fill-2" fill="#FFFFFF"></path>
                        <path d="M8.20166475,4.95798219 C4.57869662,5.92369797 1.9952702,8.38801406 1.9952702,11.2694021 C1.9952702,14.6279673 5.50252962,17.4195639 10.0768804,17.9330242 C7.1691023,17.327207 4.89533441,14.8980745 4.56033016,11.9023399 C4.2264279,8.91869961 5.79198505,6.25500995 8.20166475,4.95798219" id="Fill-4" fill="#FFFFFF"></path>
                        <path d="M20.7220446,9.18558168 C19.7846204,7.16069375 17.5204031,5.55507674 14.6537658,4.874861 C16.3772745,5.74455494 17.6956191,7.30142805 18.2359604,9.18558168 L20.7220446,9.18558168 Z" id="Fill-6" fill="#FFFFFF"></path>
                        <path d="M42.4249938,6.40824174 L41.2888445,8.70103791 C40.3558283,7.0954209 38.7737413,6.29242914 36.5425836,6.29242914 C35.0005355,6.29242914 33.7839411,6.78683164 32.8909638,7.77600314 C32.0527185,8.71386525 31.6335959,9.93429544 31.6335959,11.4369272 C31.6335959,13.0040622 32.0861455,14.2373197 32.9923467,15.1356003 C33.8985479,16.0353469 35.169507,16.4850369 36.8059587,16.4850369 C37.7797484,16.4850369 38.6179937,16.3190144 39.3214292,15.983671 L39.3214292,11.5908553 L42.3643844,11.5908553 L42.3643844,16.9471878 C40.5791644,17.6926398 38.5504051,18.0646327 36.2788412,18.0646327 C34.1145374,18.0646327 32.2551169,17.4870358 30.7002123,16.3311088 C29.0097632,15.0853904 28.164906,13.4533857 28.164906,11.4369272 C28.164906,9.39444749 28.9825809,7.73092418 30.6193999,6.44635728 C32.1607133,5.23948743 34.0271131,4.63586925 36.2182319,4.63586925 C38.6521553,4.63586925 40.7209535,5.22629359 42.4249938,6.40824174" id="Fill-8" fill="#185C5C"></path>
                        <path d="M55.78979,16.0031686 L54.9783598,17.8334474 L45.5666504,17.8334474 L45.5666504,4.86683475 L53.9237576,4.86683475 L54.8163676,6.67768927 C53.6534033,6.52449413 52.2671028,6.44679707 50.6578334,6.44679707 L48.8322072,6.44679707 L48.8322072,10.4734837 L49.4408717,10.4734837 C51.1173623,10.4734837 52.483827,10.4218078 53.5384292,10.3195556 L53.4778199,12.1692586 C52.1249464,12.1047554 50.9013727,12.0725038 49.8056296,12.0725038 L48.8116368,12.0725038 L48.8116368,16.2344273 L51.1445447,16.2538515 C52.8485849,16.2666789 54.3968776,16.1834844 55.78979,16.0031686" id="Fill-10" fill="#185C5C"></path>
                        <path d="M71.3101843,11.3401724 C71.3101843,9.83754061 70.8976736,8.63653469 70.0730195,7.7375211 C69.2072245,6.7740043 67.9965074,6.29242914 66.4419701,6.29242914 C64.8866982,6.29242914 63.6697365,6.78756463 62.7907177,7.77600314 C61.9521051,8.71386525 61.5329824,9.93429544 61.5329824,11.4369272 C61.5329824,12.8629614 61.9858993,14.05114 62.8924679,15.0018294 C63.7983017,15.9521524 64.994693,16.4267641 66.4823764,16.4267641 C67.9428773,16.4267641 69.1264121,15.9202673 70.032246,14.9050746 C70.8840824,13.9543851 71.3101843,12.7662066 71.3101843,11.3401724 M74.7990773,11.3401724 C74.7990773,13.4471553 73.9476081,15.1235059 72.2435679,16.3688578 C70.688296,17.4998631 68.7678988,18.0646327 66.4823764,18.0646327 C64.1836301,18.0646327 62.2426625,17.5192874 60.6609428,16.4267641 C58.9029052,15.2198943 58.0238863,13.556371 58.0238863,11.4369272 C58.0238863,9.38162015 58.9029052,7.70526949 60.6609428,6.40824174 C62.2841707,5.22629359 64.2104451,4.63586925 66.4419701,4.63586925 C68.6731278,4.63586925 70.5865458,5.21346624 72.1825912,6.36939321 C73.9270377,7.62867192 74.7990773,9.28596481 74.7990773,11.3401724" id="Fill-12" fill="#185C5C"></path>
                        <path d="M81.8787971,11.8943869 C81.8787971,13.3196881 81.5066926,14.5463488 80.7635855,15.5743688 C80.3169132,16.1779869 79.620457,16.6973111 78.6734823,17.1349068 C77.8763779,17.5200937 77.0234394,17.7891014 76.1176055,17.9437625 L76.1176055,16.748987 C77.7948308,16.0940595 78.6334434,14.6940465 78.6334434,12.5485815 L78.6334434,4.86976671 L81.8787971,4.86976671 L81.8787971,11.8943869 Z" id="Fill-14" fill="#185C5C"></path>
                        <polygon id="Fill-16" fill="#185C5C" points="86.3412594 17.833594 89.6475897 17.833594 89.6475897 4.86698135 86.3412594 4.86698135"></polygon>
                        <polygon id="Fill-18" fill="#185C5C" points="106.362135 4.8670913 106.341564 6.44705362 101.148998 6.44705362 101.148998 17.8333374 97.8628711 17.8333374 97.8628711 6.44705362 92.6901409 6.44705362 93.1970553 4.8670913"></polygon>
                        <polygon id="Fill-19" fill="#FFFFFF" points="0.571355201 22.4180868 22.6169858 22.4180868 22.6169858 0.422123301 0.571355201 0.422123301"></polygon>
                        <path d="M12.7731871,17.9652025 C17.5113668,17.555827 21.1927402,14.7103555 21.1927402,11.2689623 C21.1927402,11.1923647 21.187965,11.1157671 21.1842917,11.0384366 L20.5961976,11.0384366 L18.5053596,11.0384366 L13.6331048,11.0384366 C13.6331048,12.5729535 14.8801875,12.9738996 16.4185623,12.9738996 L18.2687996,12.9738996 C18.2177409,14.8485243 15.1138089,17.5378687 12.7731871,17.9652025" id="Fill-20" fill="#046567"></path>
                        <path d="M8.20166475,4.95798219 C4.57869662,5.92369797 1.9952702,8.38801406 1.9952702,11.2694021 C1.9952702,14.6279673 5.50252962,17.4195639 10.0768804,17.9330242 C7.1691023,17.327207 4.89533441,14.8980745 4.56033016,11.9023399 C4.2264279,8.91869961 5.79198505,6.25500995 8.20166475,4.95798219" id="Fill-21" fill="#046567"></path>
                        <path d="M20.7220446,9.18558168 C19.7846204,7.16069375 17.5204031,5.55507674 14.6537658,4.874861 C16.3772745,5.74455494 17.6956191,7.30142805 18.2359604,9.18558168 L20.7220446,9.18558168 Z" id="Fill-22" fill="#046567"></path>
                        <path d="M42.4249938,6.40824174 L41.2888445,8.70103791 C40.3558283,7.0954209 38.7737413,6.29242914 36.5425836,6.29242914 C35.0005355,6.29242914 33.7839411,6.78683164 32.8909638,7.77600314 C32.0527185,8.71386525 31.6335959,9.93429544 31.6335959,11.4369272 C31.6335959,13.0040622 32.0861455,14.2373197 32.9923467,15.1356003 C33.8985479,16.0353469 35.169507,16.4850369 36.8059587,16.4850369 C37.7797484,16.4850369 38.6179937,16.3190144 39.3214292,15.983671 L39.3214292,11.5908553 L42.3643844,11.5908553 L42.3643844,16.9471878 C40.5791644,17.6926398 38.5504051,18.0646327 36.2788412,18.0646327 C34.1145374,18.0646327 32.2551169,17.4870358 30.7002123,16.3311088 C29.0097632,15.0853904 28.164906,13.4533857 28.164906,11.4369272 C28.164906,9.39444749 28.9825809,7.73092418 30.6193999,6.44635728 C32.1607133,5.23948743 34.0271131,4.63586925 36.2182319,4.63586925 C38.6521553,4.63586925 40.7209535,5.22629359 42.4249938,6.40824174" id="Fill-23" fill="#FFFFFF"></path>
                        <path d="M55.78979,16.0031686 L54.9783598,17.8334474 L45.5666504,17.8334474 L45.5666504,4.86683475 L53.9237576,4.86683475 L54.8163676,6.67768927 C53.6534033,6.52449413 52.2671028,6.44679707 50.6578334,6.44679707 L48.8322072,6.44679707 L48.8322072,10.4734837 L49.4408717,10.4734837 C51.1173623,10.4734837 52.483827,10.4218078 53.5384292,10.3195556 L53.4778199,12.1692586 C52.1249464,12.1047554 50.9013727,12.0725038 49.8056296,12.0725038 L48.8116368,12.0725038 L48.8116368,16.2344273 L51.1445447,16.2538515 C52.8485849,16.2666789 54.3968776,16.1834844 55.78979,16.0031686" id="Fill-24" fill="#FFFFFF"></path>
                        <path d="M71.3101843,11.3401724 C71.3101843,9.83754061 70.8976736,8.63653469 70.0730195,7.7375211 C69.2072245,6.7740043 67.9965074,6.29242914 66.4419701,6.29242914 C64.8866982,6.29242914 63.6697365,6.78756463 62.7907177,7.77600314 C61.9521051,8.71386525 61.5329824,9.93429544 61.5329824,11.4369272 C61.5329824,12.8629614 61.9858993,14.05114 62.8924679,15.0018294 C63.7983017,15.9521524 64.994693,16.4267641 66.4823764,16.4267641 C67.9428773,16.4267641 69.1264121,15.9202673 70.032246,14.9050746 C70.8840824,13.9543851 71.3101843,12.7662066 71.3101843,11.3401724 M74.7990773,11.3401724 C74.7990773,13.4471553 73.9476081,15.1235059 72.2435679,16.3688578 C70.688296,17.4998631 68.7678988,18.0646327 66.4823764,18.0646327 C64.1836301,18.0646327 62.2426625,17.5192874 60.6609428,16.4267641 C58.9029052,15.2198943 58.0238863,13.556371 58.0238863,11.4369272 C58.0238863,9.38162015 58.9029052,7.70526949 60.6609428,6.40824174 C62.2841707,5.22629359 64.2104451,4.63586925 66.4419701,4.63586925 C68.6731278,4.63586925 70.5865458,5.21346624 72.1825912,6.36939321 C73.9270377,7.62867192 74.7990773,9.28596481 74.7990773,11.3401724" id="Fill-25" fill="#FFFFFF"></path>
                        <path d="M81.8787971,11.8943869 C81.8787971,13.3196881 81.5066926,14.5463488 80.7635855,15.5743688 C80.3169132,16.1779869 79.620457,16.6973111 78.6734823,17.1349068 C77.8763779,17.5200937 77.0234394,17.7891014 76.1176055,17.9437625 L76.1176055,16.748987 C77.7948308,16.0940595 78.6334434,14.6940465 78.6334434,12.5485815 L78.6334434,4.86976671 L81.8787971,4.86976671 L81.8787971,11.8943869 Z" id="Fill-26" fill="#FFFFFF"></path>
                        <polygon id="Fill-27" fill="#FFFFFF" points="86.3412594 17.833594 89.6475897 17.833594 89.6475897 4.86698135 86.3412594 4.86698135"></polygon>
                        <polygon id="Fill-28" fill="#FFFFFF" points="106.362135 4.8670913 106.341564 6.44705362 101.148998 6.44705362 101.148998 17.8333374 97.8628711 17.8333374 97.8628711 6.44705362 92.6901409 6.44705362 93.1970553 4.8670913"></polygon>
                    </g>
                </g>
            </g>
        </g>
    </g>
</svg>