<?xml version="1.0" encoding="UTF-8"?>
<svg width="21px" height="21px" viewBox="0 0 21 21" version="1.1" xmlns="http://www.w3.org/2000/svg" xmlns:xlink="http://www.w3.org/1999/xlink">
    <!-- Generator: Sketch 41.2 (35397) - http://www.bohemiancoding.com/sketch -->
    <title>noun_856439_cc</title>
    <desc>Created with Sketch.</desc>
    <defs></defs>
    <g id="Page-1" stroke="none" stroke-width="1" fill="none" fill-rule="evenodd">
        <g id="Mobile-Menu" transform="translate(-213.000000, -21.000000)" fill="#FFFFFF">
            <g id="noun_856439_cc" transform="translate(213.000000, 21.000000)">
                <g id="Search1">
                    <path d="M8.23298246,1.64445545 C11.8684921,1.64468059 14.8155139,4.57965052 14.8154386,8.19999246 C14.8153632,11.8203344 11.8682192,14.7551827 8.23270954,14.7552577 C4.5971999,14.7553327 1.64993368,11.8206062 1.6497076,8.20026423 C1.64959902,6.46152249 2.34315719,4.79396406 3.57778425,3.56448798 C4.81241132,2.3350119 6.48695612,1.64434733 8.23298246,1.64445545 L8.23298246,1.64445545 Z M8.23298246,0.00163059539 C4.31718932,0.00371896099 0.944467828,2.75155241 0.166798138,6.5733357 C-0.610871553,10.395119 1.42163014,14.2336675 5.0277193,15.7535897 C9.21094201,17.4894302 14.0164073,15.5329902 15.7803102,11.3759077 C17.5442132,7.21882517 15.6035081,2.42373465 11.4378363,0.646531073 C10.4241147,0.21848662 9.33406823,-0.00141387144 8.23298246,-1.1325838e-13 L8.23298246,-1.1325838e-13 L8.23298246,0.00163059539 Z" id="Shape"></path>
                    <rect id="Rectangle-path" transform="translate(17.585680, 17.347539) rotate(-45.000000) translate(-17.585680, -17.347539) " x="16.7608263" y="13.418008" width="1.6497076" height="7.85906215"></rect>
                </g>
            </g>
        </g>
    </g>
</svg>