<?xml version="1.0" encoding="UTF-8"?>
<svg width="4px" height="15px" viewBox="0 0 4 15" version="1.1" xmlns="http://www.w3.org/2000/svg" xmlns:xlink="http://www.w3.org/1999/xlink">
    <!-- Generator: Sketch 41.2 (35397) - http://www.bohemiancoding.com/sketch -->
    <title>...</title>
    <desc>Created with Sketch.</desc>
    <defs></defs>
    <g id="Page-1" stroke="none" stroke-width="1" fill="none" fill-rule="evenodd">
        <g id="Mobile-Menu" transform="translate(-257.000000, -201.000000)" fill="#FFFFFF">
            <g id="Group-9" transform="translate(249.000000, 189.000000)">
                <path d="M3,19.4945455 C3,20.3236364 3.66545455,21 4.49454545,21 C5.31272727,21 5.98909091,20.3236364 5.98909091,19.4945455 C5.98909091,18.6763636 5.31272727,18 4.49454545,18 C3.66545455,18 3,18.6763636 3,19.4945455 Z M8.56810473,19.4945455 C8.56810473,20.3236364 9.23355927,21 10.0626502,21 C10.880832,21 11.5571956,20.3236364 11.5571956,19.4945455 C11.5571956,18.6763636 10.880832,18 10.0626502,18 C9.23355927,18 8.56810473,18.6763636 8.56810473,19.4945455 Z M14.1362095,19.4945455 C14.1362095,20.3236364 14.801664,21 15.6307549,21 C16.4489367,21 17.1253004,20.3236364 17.1253004,19.4945455 C17.1253004,18.6763636 16.4489367,18 15.6307549,18 C14.801664,18 14.1362095,18.6763636 14.1362095,19.4945455 Z" id="..." transform="translate(10.062650, 19.500000) rotate(90.000000) translate(-10.062650, -19.500000) "></path>
            </g>
        </g>
    </g>
</svg>