<?xml version="1.0" encoding="UTF-8"?>
<svg width="15px" height="20px" viewBox="0 0 15 20" version="1.1" xmlns="http://www.w3.org/2000/svg" xmlns:xlink="http://www.w3.org/1999/xlink">
    <!-- Generator: Sketch 41.2 (35397) - http://www.bohemiancoding.com/sketch -->
    <title>noun_40198_cc</title>
    <desc>Created with Sketch.</desc>
    <defs></defs>
    <g id="Page-1" stroke="none" stroke-width="1" fill="none" fill-rule="evenodd">
        <g id="Mobile-Menu" transform="translate(-255.000000, -21.000000)" fill="#FFFFFF">
            <g id="noun_40198_cc" transform="translate(255.000000, 21.000000)">
                <g id="Group">
                    <ellipse id="Oval" cx="4.0625" cy="19.0909091" rx="0.9375" ry="0.909090909"></ellipse>
                    <ellipse id="Oval" cx="0.9375" cy="16.0606061" rx="0.9375" ry="0.909090909"></ellipse>
                    <ellipse id="Oval" cx="0.9375" cy="13.030303" rx="0.9375" ry="0.909090909"></ellipse>
                    <ellipse id="Oval" cx="0.9375" cy="10" rx="0.9375" ry="0.909090909"></ellipse>
                    <ellipse id="Oval" cx="7.1875" cy="19.0909091" rx="0.9375" ry="0.909090909"></ellipse>
                    <ellipse id="Oval" cx="4.0625" cy="16.0606061" rx="0.9375" ry="0.909090909"></ellipse>
                    <ellipse id="Oval" cx="4.0625" cy="13.030303" rx="0.9375" ry="0.909090909"></ellipse>
                    <ellipse id="Oval" cx="4.0625" cy="10" rx="0.9375" ry="0.909090909"></ellipse>
                    <ellipse id="Oval" cx="0.9375" cy="19.0909091" rx="0.9375" ry="0.909090909"></ellipse>
                    <ellipse id="Oval" cx="10.3125" cy="19.0909091" rx="0.9375" ry="0.909090909"></ellipse>
                    <ellipse id="Oval" cx="7.1875" cy="16.0606061" rx="0.9375" ry="0.909090909"></ellipse>
                    <ellipse id="Oval" cx="7.1875" cy="13.030303" rx="0.9375" ry="0.909090909"></ellipse>
                    <ellipse id="Oval" cx="7.1875" cy="10" rx="0.9375" ry="0.909090909"></ellipse>
                    <ellipse id="Oval" cx="13.4375" cy="19.0909091" rx="0.9375" ry="0.909090909"></ellipse>
                    <ellipse id="Oval" cx="4.0625" cy="6.96969697" rx="0.9375" ry="0.909090909"></ellipse>
                    <ellipse id="Oval" cx="4.0625" cy="3.93939394" rx="0.9375" ry="0.909090909"></ellipse>
                    <ellipse id="Oval" cx="7.1875" cy="6.96969697" rx="0.9375" ry="0.909090909"></ellipse>
                    <ellipse id="Oval" cx="7.1875" cy="3.93939394" rx="0.9375" ry="0.909090909"></ellipse>
                    <ellipse id="Oval" cx="7.1875" cy="0.909090909" rx="0.9375" ry="0.909090909"></ellipse>
                    <ellipse id="Oval" cx="0.9375" cy="6.96969697" rx="0.9375" ry="0.909090909"></ellipse>
                    <ellipse id="Oval" cx="10.3125" cy="6.96969697" rx="0.9375" ry="0.909090909"></ellipse>
                    <ellipse id="Oval" cx="10.3125" cy="3.93939394" rx="0.9375" ry="0.909090909"></ellipse>
                    <ellipse id="Oval" cx="13.4375" cy="6.96969697" rx="0.9375" ry="0.909090909"></ellipse>
                    <ellipse id="Oval" cx="13.4375" cy="16.0606061" rx="0.9375" ry="0.909090909"></ellipse>
                    <ellipse id="Oval" cx="13.4375" cy="13.030303" rx="0.9375" ry="0.909090909"></ellipse>
                    <ellipse id="Oval" cx="13.4375" cy="10" rx="0.9375" ry="0.909090909"></ellipse>
                    <ellipse id="Oval" cx="10.3125" cy="16.0606061" rx="0.9375" ry="0.909090909"></ellipse>
                    <ellipse id="Oval" cx="10.3125" cy="13.030303" rx="0.9375" ry="0.909090909"></ellipse>
                    <ellipse id="Oval" cx="10.3125" cy="10" rx="0.9375" ry="0.909090909"></ellipse>
                </g>
            </g>
        </g>
    </g>
</svg>