<?xml version="1.0" encoding="UTF-8"?>
<svg width="11px" height="15px" viewBox="0 0 11 15" version="1.1" xmlns="http://www.w3.org/2000/svg" xmlns:xlink="http://www.w3.org/1999/xlink">
    <!-- Generator: Sketch 41.2 (35397) - http://www.bohemiancoding.com/sketch -->
    <title>lock_open - material</title>
    <desc>Created with Sketch.</desc>
    <defs></defs>
    <g id="Page-1" stroke="none" stroke-width="1" fill="none" fill-rule="evenodd">
        <g id="Mobile-Menu" transform="translate(-178.000000, -142.000000)" fill="#000000">
            <path d="M186.864814,154.822367 L186.864814,148.06354 L179.275076,148.06354 L179.275076,154.822367 L186.864814,154.822367 Z M186.864814,146.737646 C187.208883,146.737646 187.50741,146.867 187.760403,147.125713 C188.013395,147.384425 188.139889,147.697031 188.139889,148.06354 L188.139889,154.822367 C188.139889,155.188876 188.013395,155.501482 187.760403,155.760194 C187.50741,156.018907 187.208883,156.148261 186.864814,156.148261 L179.275076,156.148261 C178.931006,156.148261 178.632479,156.018907 178.379487,155.760194 C178.126494,155.501482 178,155.188876 178,154.822367 L178,148.06354 C178,147.697031 178.126494,147.384425 178.379487,147.125713 C178.632479,146.867 178.931006,146.737646 179.275076,146.737646 L185.028097,146.737646 L185.028097,145.379413 C185.028097,145.012904 184.939551,144.667959 184.762456,144.344569 C184.585361,144.021179 184.345022,143.765165 184.041431,143.57652 C183.73784,143.387876 183.414015,143.293555 183.069945,143.293555 C182.725875,143.293555 182.402049,143.387876 182.098458,143.57652 C181.794867,143.765165 181.554528,144.021179 181.377433,144.344569 C181.200338,144.667959 181.111792,145.012904 181.111792,145.379413 L179.897434,145.379413 C179.897434,144.764971 180.039108,144.199047 180.32246,143.681622 C180.605811,143.164197 180.990354,142.754575 181.4761,142.452744 C181.961845,142.150913 182.493122,142 183.069945,142 C183.646768,142 184.178044,142.150913 184.66379,142.452744 C185.149535,142.754575 185.534078,143.164197 185.81743,143.681622 C186.100781,144.199047 186.242455,144.764971 186.242455,145.379413 L186.242455,146.737646 L186.864814,146.737646 Z M183.069945,152.801187 C182.725875,152.801187 182.427348,152.666443 182.174356,152.396951 C181.921363,152.127459 181.794869,151.809463 181.794869,151.442954 C181.794869,151.076444 181.921363,150.758449 182.174356,150.488957 C182.427348,150.219464 182.725875,150.08472 183.069945,150.08472 C183.414015,150.08472 183.712541,150.219464 183.965534,150.488957 C184.218526,150.758449 184.345021,151.076444 184.345021,151.442954 C184.345021,151.809463 184.218526,152.127459 183.965534,152.396951 C183.712541,152.666443 183.414015,152.801187 183.069945,152.801187 Z" id="lock_open---material"></path>
        </g>
    </g>
</svg>