<?xml version="1.0" encoding="UTF-8"?>
<svg width="125px" height="124px" viewBox="0 0 125 124" version="1.1" xmlns="http://www.w3.org/2000/svg" xmlns:xlink="http://www.w3.org/1999/xlink">
    <!-- Generator: Sketch 41.2 (35397) - http://www.bohemiancoding.com/sketch -->
    <title>Group 12</title>
    <desc>Created with Sketch.</desc>
    <defs>
        <rect id="path-1" x="0" y="0" width="125" height="123.820755"></rect>
    </defs>
    <g id="Page-1" stroke="none" stroke-width="1" fill="none" fill-rule="evenodd">
        <g id="mutual-fund" transform="translate(-847.000000, -1390.000000)">
            <g id="Group-12" transform="translate(847.000000, 1390.000000)">
                <g id="small_thm_2-copy-2">
                    <mask id="mask-2" fill="white">
                        <use xlink:href="#path-1"></use>
                    </mask>
                    <use id="Mask" fill="#000000" opacity="0.02" xlink:href="#path-1"></use>
                </g>
                <g id="noun_734039_cc" transform="translate(30.000000, 30.000000)" stroke-width="1.5" stroke="#F5F5F5" fill="#046567">
                    <g id="Group">
                        <path d="M62.2831502,5.66723326 C61.2359582,5.02064932 59.4952055,4.61612656 57.1463637,6.3614465 C56.7170476,6.68245488 56.3581968,7.05044009 56.0417556,7.37536321 L55.8460188,7.57501476 C55.5080466,7.91951155 55.1765989,8.27053291 54.8451512,8.62155426 C54.2448917,9.25704646 53.6785598,9.85730602 53.0743855,10.4190707 C50.8123204,12.5245464 48.2442534,14.1485095 45.4406497,15.2472455 C41.4815464,16.7994384 37.1505431,17.5171401 32.9630802,18.2107009 C31.2758288,18.489952 29.5311613,18.7789901 27.8197691,19.1202246 C25.3704491,19.6076093 22.1290474,20.7161321 19.8695921,22.4092555 C17.933755,21.7163472 16.0285834,20.7950793 14.2982699,19.5077835 C11.5090203,17.4329732 9.99205997,14.4264558 8.76739996,11.4871412 L8.35961493,10.4986703 C7.7038966,8.90145791 7.02534231,7.25009164 6.14452664,5.67636765 C5.48815585,4.50194675 4.31830215,3.91995596 2.93052813,4.0811126 C2.08037789,4.17898101 0.938579803,4.63896253 0.329838307,6.27010265 C-0.0283600649,7.22725568 -0.0277076088,8.16418257 0.0257937874,9.0293393 C0.122357283,10.6728761 0.346802165,12.3131506 0.692603872,13.9044909 C1.28568642,16.6337146 2.25262629,19.3244433 3.56471541,21.8996874 C3.9568415,22.6708904 4.41095091,23.3905494 4.85005383,24.08672 C5.52860812,25.1613152 6.16866751,26.1765368 6.52229869,27.271358 C8.83003574,34.4053125 9.49358355,43.8032895 8.39028037,53.7336706 C8.20628776,55.3791647 9.67431388,56.815873 18.8569803,60.9752803 L19.3326208,61.1912432 C19.5081315,61.2714953 19.9863818,61.4580978 20.5553234,61.6766705 C21.155583,61.90764 22.3534923,62.3689264 22.7508381,62.5587911 C22.8239131,62.6168597 22.9035128,62.6677513 22.9883321,62.7114658 C23.2016852,62.8210785 23.434612,62.8758848 23.6668864,62.8758848 C23.9389605,62.8758848 24.2103822,62.8008523 24.4491812,62.6520923 C26.2382157,61.5383499 29.2962772,58.1273096 31.0676953,55.7119173 C31.0709576,55.9944308 31.057256,56.2971704 31.0474692,56.4942121 C31.0344201,56.7427979 31.0239808,56.9692001 31.0252857,57.1551501 C31.0376824,58.9618009 31.0761773,60.8943757 31.1459901,63.2373454 C31.1681736,63.9883223 31.7495119,64.6035884 32.4985315,64.6681815 C32.7373304,64.6884077 33.1314138,64.698847 33.7029653,64.698847 C35.9402371,64.698847 41.2342655,64.5292084 43.3377838,64.1364299 C44.0346069,64.0065911 44.5422177,63.399807 44.5467849,62.6905872 C44.5533095,61.691677 44.5800602,60.5231282 44.6081158,59.3147796 C44.6544402,57.3293559 44.7027219,55.2767291 44.6687942,53.631235 C44.6674893,53.549678 44.6681417,53.4837799 44.6694466,53.4322359 C44.6903252,53.4204917 44.7112038,53.4087475 44.7340398,53.3956983 C44.8762752,53.3128364 45.0354745,53.2188827 45.2162048,53.1020931 C46.3677898,52.3491588 47.3927982,51.656903 48.2847056,50.8106675 C48.4178067,50.6847434 48.5593896,50.5535998 48.7061922,50.4172365 C50.1076678,49.1227637 52.027846,47.3493881 51.8477681,45.0253397 C51.7733881,44.0440457 51.2905707,43.3100327 50.5532953,42.9368278 C50.796009,40.499252 50.765996,36.3953035 50.698793,31.7530787 C50.6779144,30.2935345 50.6596457,29.0329894 50.6779144,28.5390801 C50.7183667,27.508852 51.1254993,25.9781901 51.2442463,25.706116 C51.774693,24.6915468 52.495657,24.0717136 53.2590306,23.4146903 L53.7823003,22.9586235 C54.8340595,22.0314835 55.8858186,21.1043434 56.9304008,20.1706788 C59.0371814,18.289648 60.8209962,16.2468081 62.4084218,13.8855697 C63.1346054,12.8037976 64.0395619,11.4577807 64.178535,9.86187322 C64.2966296,8.4799713 63.6056786,6.48215087 62.2831502,5.66723326 Z M23.5220411,59.6651485 C23.0418335,59.4609298 22.4213478,59.2214784 21.6188268,58.9135192 C21.1288323,58.7249594 20.7151752,58.5677175 20.5651103,58.4992096 L20.0790305,58.278027 C13.7417249,55.4072203 11.9057136,54.1499375 11.3791815,53.6449365 C12.025113,47.5490397 12.5496877,36.2817761 9.34090883,26.3605294 C8.87309784,24.9114245 8.10124234,23.6887219 7.35548507,22.505819 C6.933346,21.8370516 6.53534781,21.2054741 6.20455259,20.5556279 C5.00729574,18.2054812 4.12648007,15.7561612 3.58689892,13.2748708 C3.27372001,11.8329429 3.07015372,10.3459956 2.98207216,8.85056634 C2.94357725,8.22355607 2.94944935,7.72051246 3.10473389,7.30555041 C3.18955318,7.07719079 3.2561037,7.01781729 3.27176264,7.02107957 C3.43487666,7.00411571 3.49425016,7.02825659 3.4935977,7.02825659 C3.50012226,7.03282378 3.5262205,7.05826956 3.56014822,7.11960043 C4.35418723,8.53869234 4.96945329,10.036079 5.62060443,11.6221996 L6.03426156,12.6243721 C7.42073067,15.9538554 9.16735552,19.3799021 12.5307665,21.8820711 C16.6627706,24.9570964 21.4948602,26.1700122 25.6751461,26.9510021 C27.4798395,27.2889743 28.8858823,27.4853636 30.2332041,27.5891041 L30.3349872,27.5969336 C31.0807445,27.6536973 31.4298085,27.7071987 31.5191949,27.8644406 C31.5518177,27.9349058 31.5681291,28.0386464 31.5726963,28.155436 C31.5713914,28.1678327 31.5733488,28.1808818 31.5733488,28.192626 C31.5792209,28.5677882 31.4630837,29.0714843 31.3084516,29.2078476 C30.062913,30.0416864 27.3108534,30.1454269 25.4898486,30.2132824 C23.6466602,30.2824427 22.7306119,30.3346392 22.0553199,30.7541684 C21.6194793,31.0242852 21.3323986,31.4607783 21.2012549,32.0532084 C20.7236571,34.2141429 22.2490994,41.1216951 24.2005954,45.4553082 C23.0633645,46.2141146 23.2401801,47.5392528 23.3054257,47.9907524 L23.3269568,48.1466894 C23.4443988,49.147557 23.9011181,50.0701298 24.6494852,50.8184969 C25.8943713,52.0555536 27.2423455,53.1086177 28.6725292,53.9750793 C27.2932371,55.8535003 24.9861525,58.4496229 23.5220411,59.6651485 Z M46.6959751,48.2439054 C46.5393857,48.3887506 46.3880159,48.5283762 46.2457805,48.6634346 C45.5978916,49.2787007 44.8142919,49.8274162 43.5968089,50.6227601 C43.4656652,50.7082319 43.3475707,50.7760873 43.2425253,50.8374182 C42.222084,51.4311532 41.6746734,52.0620782 41.7066437,53.6912609 C41.7392665,55.2728144 41.6922897,57.2934708 41.6459653,59.2469242 C41.6296539,59.9835471 41.6120376,60.7058159 41.6002934,61.3850227 C39.5574535,61.5925037 36.2149211,61.7236474 34.0657309,61.737349 C34.0213639,60.0311764 33.9959181,58.5429241 33.9861313,57.1323141 C33.9848264,56.9952984 33.9946132,56.830227 34.0037476,56.6494967 C34.0650784,55.48682 34.1786058,53.3219708 32.3510764,52.5462006 C30.3101939,51.6797389 28.4213336,50.3911382 26.7386494,48.7208507 C26.6062009,48.5884021 26.5018079,48.4507339 26.4248181,48.3058887 C29.469178,49.6760464 33.0211488,51.0050994 36.6749027,51.0050994 C38.101824,51.0050994 39.4758965,50.7976183 40.7586251,50.3885284 C42.0811535,49.9670418 43.4728423,49.2382484 44.6779286,48.3359017 L44.7888461,48.2523873 C46.9412986,46.6271193 48.1659586,46.0059811 48.8027557,45.7691395 C48.486967,46.5899293 47.4365128,47.5601314 46.6959751,48.2439054 Z M59.9225642,12.2746557 C58.5008625,14.3879608 56.8768994,16.2487655 54.9567212,17.9627676 C53.9154014,18.8925174 52.8695143,19.8157427 51.8223223,20.738968 L51.3251508,21.1721989 C50.4730432,21.9055595 49.4121497,22.8183455 48.6194156,24.3333484 C48.2657844,25.007988 47.7699178,27.0704016 47.7170689,28.4294675 C47.6961903,29.0016715 47.7131541,30.1747875 47.7366425,31.7974457 C47.7797046,34.8463728 47.8658288,40.8143883 47.5650466,43.0797157 C46.3534357,43.5664479 44.8599638,44.4870634 43.0037263,45.8891915 L42.9019432,45.9661813 C41.9558819,46.6747485 40.8754147,47.2430378 39.8595406,47.566656 C38.867155,47.8830972 37.7958221,48.0429489 36.6749027,48.0429489 C33.5483333,48.0436013 30.3506461,46.8254659 27.5829276,45.5773175 C25.6157726,42.2739325 24.1125138,35.4936092 24.0577075,33.2504653 C24.5052924,33.2126228 25.1101191,33.1904393 25.6001136,33.1721706 C27.6560027,33.0951808 30.1359881,32.995355 32.0294156,32.1621686 C32.2107983,33.8089677 32.3680403,35.3833441 32.4619939,36.3398447 C31.2223274,37.2376242 30.4785275,38.6528014 30.3584756,40.4796783 C30.2482105,42.1525757 30.8504275,43.8652728 31.9700421,45.0612247 C33.0035324,46.1651804 34.4180572,46.7732694 35.9532863,46.7732694 C36.105961,46.7732694 36.2612455,46.7673973 36.4171825,46.7556531 C39.5861616,46.5181591 41.9767605,44.0427408 41.9767605,40.9990334 C41.9767605,37.8228773 39.4328344,35.2384989 36.306265,35.2384989 C35.9689452,35.2384989 35.6472844,35.2619873 35.3354104,35.2978724 C35.147503,33.4155367 34.8297569,30.3587801 34.5257124,28.1051969 C34.5061387,27.4755768 34.3639033,26.8792319 34.0983537,26.4107685 C33.210361,24.8474838 31.6157584,24.7254745 30.560737,24.6452224 L30.4622161,24.637393 C29.224507,24.5421344 27.9163326,24.3581418 26.2199469,24.0410481 C25.4265603,23.8929406 24.607728,23.7272168 23.7771514,23.5353947 C25.2751905,22.8379192 26.9715763,22.3081249 28.3984976,22.0243065 C30.062913,21.6928588 31.7834396,21.4077355 33.447855,21.1317466 C37.7860353,20.4133925 42.2723231,19.670245 46.5217694,18.0038723 C49.6731321,16.768773 52.5569879,14.9458108 55.0924321,12.5865297 C55.7657667,11.9595194 56.392777,11.2959716 56.9989087,10.6539549 C57.3173072,10.3166351 57.6363582,9.97866285 57.9567141,9.65243482 L58.1635427,9.44103906 C58.4264825,9.1702698 58.6750682,8.91515949 58.9158245,8.73573407 C60.141137,7.82425297 60.5678433,8.08784521 60.7224753,8.18179888 C60.9469202,8.35013255 61.2659712,9.17483699 61.2281288,9.60806781 C61.1544012,10.4412542 60.5143419,11.3944925 59.9225642,12.2746557 Z M33.3127966,40.6741102 C33.3878291,39.5218729 33.796919,38.1999969 36.3056125,38.1999969 C37.7997369,38.1999969 39.0146101,39.4553223 39.0146101,40.9990334 C39.0146101,42.7006387 37.5961706,43.698244 36.1933901,43.8032895 C36.1118331,43.809814 36.031581,43.8130763 35.9532863,43.8130763 L35.9526338,43.8130763 C35.2251453,43.8130763 34.6124891,43.5520939 34.1309765,43.0379585 C33.5698643,42.4383514 33.2560329,41.53209 33.3127966,40.6741102 Z M19.3619813,18.6824266 C23.2910717,18.6824266 26.4874539,15.4853919 26.4874539,11.5563016 C26.4874539,7.62721124 23.2910717,4.42952413 19.3619813,4.42952413 C15.4322385,4.42952413 12.2352039,7.62655878 12.2352039,11.5556491 C12.2352039,15.4847395 15.4322385,18.6824266 19.3619813,18.6824266 Z M19.3619813,7.39036969 C21.6586266,7.39036969 23.5266083,9.25900383 23.5266083,11.5556491 C23.5266083,13.8522944 21.6579742,15.7209286 19.3619813,15.7209286 C17.0646836,15.7209286 15.1960494,13.8522944 15.1960494,11.5556491 C15.1960494,9.25900383 17.0646836,7.39036969 19.3619813,7.39036969 Z M38.2695052,15.5193196 C42.4491387,15.5193196 45.8503921,12.1187187 45.8503921,7.93843278 C45.8503921,3.78359264 42.0067735,0 37.7879927,0 C35.7829952,0 33.8582499,0.867114092 32.5076659,2.37885476 C31.1211967,3.93104771 30.4615637,6.01825462 30.6984052,8.10415661 C31.1825276,12.4012322 34.3658607,15.5193196 38.2695052,15.5193196 Z M34.7162296,4.35188186 C35.5174456,3.45540725 36.6076997,2.96149802 37.7879927,2.96149802 C40.3625843,2.96149802 42.8888941,5.42712944 42.8888941,7.93843278 C42.8888941,10.4856212 40.8166937,12.5584741 38.2695052,12.5584741 C35.459377,12.5584741 33.9006595,10.0778362 33.6403296,7.77205648 C33.4987466,6.52260315 33.8908727,5.27575963 34.7162296,4.35188186 Z" id="Shape"></path>
                    </g>
                </g>
            </g>
        </g>
    </g>
</svg>