<?xml version="1.0" encoding="UTF-8"?>
<svg width="125px" height="124px" viewBox="0 0 125 124" version="1.1" xmlns="http://www.w3.org/2000/svg" xmlns:xlink="http://www.w3.org/1999/xlink">
    <!-- Generator: Sketch 41.2 (35397) - http://www.bohemiancoding.com/sketch -->
    <title>small_thm_1 copy</title>
    <desc>Created with Sketch.</desc>
    <defs>
        <rect id="path-1" x="0" y="0" width="125" height="123.820755"></rect>
    </defs>
    <g id="Page-1" stroke="none" stroke-width="1" fill="none" fill-rule="evenodd">
        <g id="mutual-fund" transform="translate(-448.000000, -1236.000000)">
            <g id="small_thm_1-copy" transform="translate(448.000000, 1236.000000)">
                <mask id="mask-2" fill="white">
                    <use xlink:href="#path-1"></use>
                </mask>
                <use id="Mask" fill="#000000" opacity="0.02" xlink:href="#path-1"></use>
                <g id="noun_892646_cc" mask="url(#mask-2)">
                    <g transform="translate(25.000000, 25.000000)" id="Group">
                        <g>
                            <path d="M74.1179672,38.5265569 C73.3596564,37.7795723 72.3552055,37.3654026 71.2811391,37.3654026 L70.7714549,37.3654026 C68.4443111,24.1021108 54.8344982,14.2310661 38.5693546,14.2310661 C34.7678559,14.2310661 31.058349,14.788223 27.5253669,15.8507655 C26.0186905,14.80548 24.2310661,14.2310661 22.35145,14.2310661 L21.0884276,14.2310661 L21.0884276,17.0193157 C21.0411885,16.9700098 21.0063808,16.9157733 20.9591418,16.8689327 C19.2436192,15.1678785 16.9612282,14.2286008 14.5346339,14.2286008 L13.2666389,14.2286008 L13.2666389,24.2746815 C10.9370088,26.6660185 9.09965924,29.3803092 7.85901316,32.3263378 L0.706029647,32.3263378 L0.706029647,50.3525812 L7.86398569,50.3525812 C9.92758538,55.2363324 13.5848807,59.4815719 18.5051986,62.6889218 L18.5051986,65.6867216 C18.5051986,67.1338502 19.0745532,68.5020895 20.1138118,69.539979 C21.1480979,70.5606115 22.5279748,71.1300949 23.9923847,71.1300949 C25.4592809,71.1300949 26.8366715,70.5655421 27.8734439,69.5375137 C28.5124139,68.906398 28.9748592,68.1446215 29.235917,67.3113515 C35.2626226,68.815182 41.8387927,68.8201126 47.8878747,67.3162821 C48.1464462,68.1446215 48.6113777,68.9088633 49.2478615,69.5424443 C50.2821476,70.5630768 51.6620245,71.1325601 53.1338932,71.1325601 C54.5958168,71.1325601 55.9756937,70.5680074 57.0099798,69.5424443 C58.0492385,68.50702 58.6210793,67.1363155 58.6210793,65.6891869 L58.6210793,62.7037136 C65.1997357,58.4190293 69.5656165,52.1621084 70.7764274,45.3135165 L71.2910842,45.3135165 C72.360178,45.3135165 73.364629,44.8993468 74.1229397,44.1449662 C74.8762779,43.393051 75.2939704,42.3946062 75.2939704,41.3369942 C75.2939704,40.2793823 74.8762779,39.2834028 74.1179672,38.5265569 Z M19.166545,18.6513416 C19.3555011,18.8387041 19.4773281,19.0852337 19.6463941,19.2972491 C18.2739759,20.1107968 16.9960359,21.0180256 15.8026288,21.9918175 L15.8026288,16.8664674 C17.0706238,17.1105317 18.2341957,17.7243904 19.166545,18.6513416 Z M72.3278566,42.3724185 C72.0518812,42.6485316 71.6764552,42.80138 71.2885979,42.80138 L68.5636518,42.80138 L68.4219347,43.9033672 C67.5766048,50.6286944 63.2927707,56.84124 56.6793066,60.9508882 L56.0826031,61.315752 L56.0826031,65.681791 C56.0826031,66.4608245 55.7767925,67.2004132 55.2074379,67.7575701 C54.6530009,68.3122617 53.9145803,68.6154931 53.1239481,68.6154931 C52.3333159,68.6154931 51.5899228,68.3122617 51.0354858,67.7625007 C50.4860213,67.2127397 50.1752382,66.4879427 50.1702657,65.7212357 L50.1503755,64.0645569 L48.5442486,64.5280325 C45.3344808,65.457449 41.9780235,65.9258553 38.5643821,65.9258553 C35.1358231,65.9258553 31.771907,65.4549838 28.5646255,64.5206366 L26.9584985,64.0546957 L26.9386084,65.7163051 C26.9311496,66.4879427 26.6228528,67.2127397 26.070902,67.7575701 C25.5139787,68.3122617 24.7730718,68.6154931 23.9824397,68.6154931 C23.1918075,68.6154931 22.4509006,68.3122617 21.8964636,67.7625007 C21.3345678,67.2004132 21.026271,66.4632898 21.026271,65.681791 L21.026271,61.3058908 L20.43454,60.941027 C15.409799,57.8101012 11.7674213,53.5648618 9.89526394,48.6539924 L9.58448086,47.8453753 L3.22958831,47.8453753 L3.22958831,34.8458702 L9.58945339,34.8458702 L9.90023647,34.0323226 C11.8395229,28.9168336 15.7827387,24.4891622 21.0809688,21.3779588 L21.0809688,24.7973242 L23.6169588,24.7973242 L23.6169588,16.8689327 C24.8849538,17.112997 26.0510119,17.7243904 26.9833612,18.6488763 C28.221521,19.8765937 28.9002712,21.5086195 28.9002712,23.2417225 L28.9002712,24.7923936 L31.4362612,24.7923936 L31.4362612,24.7923936 L31.4362612,23.2417225 C31.4362612,21.2744164 30.7749148,19.4254445 29.6138292,17.879704 C32.5003825,17.1376499 35.4988177,16.7432026 38.5718409,16.7432026 C54.0065721,16.7432026 66.8406704,26.2173346 68.4219347,38.7780171 L68.5586793,39.8775391 L71.2836254,39.8775391 C71.6764552,39.8775391 72.0518812,40.0303874 72.3278566,40.30157 C72.603832,40.5801484 72.7604666,40.9474775 72.7604666,41.3345289 C72.7604666,41.7215804 72.603832,42.0963054 72.3278566,42.3724185 Z" id="Shape" stroke="#FFFFFF" fill="#046567"></path>
                            <path d="M21.2276584,29.5405535 C18.9775889,29.5405535 17.1452118,31.3550112 17.1452118,33.5885693 L19.6812018,33.5885693 C19.6812018,32.7405075 20.3748696,32.05269 21.2301447,32.05269 C22.0854197,32.05269 22.7790876,32.7405075 22.7790876,33.5885693 L25.3150776,33.5885693 C25.310105,31.3550112 23.4802142,29.5405535 21.2276584,29.5405535 Z" id="Shape" stroke="#FFFFFF" fill="#046567"></path>
                            <path d="M38.5718409,12.6729991 C41.9084081,12.6729991 44.6234091,9.97843072 44.6234091,6.67000366 C44.6234091,3.3615766 41.9084081,0.66700821 38.5718409,0.66700821 C35.2352737,0.66700821 32.5177864,3.3591113 32.5177864,6.67246896 C32.5177864,9.97843072 35.2352737,12.6729991 38.5718409,12.6729991 Z M38.5718409,3.18161 C40.5111273,3.18161 42.0899054,4.74953818 42.0899054,6.67246896 C42.0899054,8.59786503 40.5111273,10.1633279 38.5718409,10.1633279 C36.6325544,10.1633279 35.0512901,8.59786503 35.0512901,6.67246896 C35.0512901,4.74707288 36.6325544,3.18161 38.5718409,3.18161 Z" id="Shape" stroke="#FFFFFF" fill="#046567"></path>
                            <path d="M38.5718409,29.4764558 C31.9782669,29.4764558 26.6079352,34.794099 26.6079352,41.3369942 C26.6079352,47.8749589 31.9732944,53.1975327 38.5718409,53.1975327 C45.1679011,53.1975327 50.5332603,47.8774242 50.5332603,41.3369942 C50.5332603,34.794099 45.1679011,29.4764558 38.5718409,29.4764558 Z M38.5718409,50.6829309 C33.3755477,50.6829309 29.1414389,46.4894626 29.1414389,41.3345289 C29.1414389,36.1795953 33.3705751,31.986127 38.5718409,31.986127 C43.7731066,31.986127 48.0022428,36.1795953 48.0022428,41.3345289 C48.0022428,46.4894626 43.7681341,50.6829309 38.5718409,50.6829309 Z" id="Shape" stroke="#FFFFFF" fill="#046567"></path>
                            <polygon id="Shape" stroke="#FFFFFF" fill="#046567" points="37.5126921 42.5868992 34.4197788 39.5200712 32.627182 41.2950842 37.5126921 46.1393906 44.5164998 39.1946521 42.7239029 37.4171738"></polygon>
                        </g>
                    </g>
                </g>
            </g>
        </g>
    </g>
</svg>