<?xml version="1.0" encoding="UTF-8"?>
<svg width="125px" height="124px" viewBox="0 0 125 124" version="1.1" xmlns="http://www.w3.org/2000/svg" xmlns:xlink="http://www.w3.org/1999/xlink">
    <!-- Generator: Sketch 41.2 (35397) - http://www.bohemiancoding.com/sketch -->
    <title>Group 11</title>
    <desc>Created with Sketch.</desc>
    <defs>
        <rect id="path-1" x="0" y="0" width="125" height="123.820755"></rect>
    </defs>
    <g id="Page-1" stroke="none" stroke-width="1" fill="none" fill-rule="evenodd">
        <g id="mutual-fund" transform="translate(-448.000000, -1390.000000)">
            <g id="Group-11" transform="translate(448.000000, 1390.000000)">
                <g id="small_thm_1-copy-2">
                    <mask id="mask-2" fill="white">
                        <use xlink:href="#path-1"></use>
                    </mask>
                    <use id="Mask" fill="#000000" opacity="0.02" xlink:href="#path-1"></use>
                </g>
                <g id="noun_755497_cc" transform="translate(27.000000, 26.000000)" stroke-width="0.6" stroke="#F5F5F5" fill="#046567">
                    <g id="Group">
                        <g id="Shape">
                            <path d="M59.9363396,0.499972223 L11.0628826,0.499972223 C5.22883635,0.500749992 0.500777769,5.22880857 0.5,11.0628549 L0.5,48.0784436 C0.500777769,53.9124899 5.22883635,58.6405484 11.0628826,58.6413262 L34.3702903,58.6413262 L34.3702903,68.2421084 L24.2095143,68.2421084 C23.5857435,68.2421084 23.0801936,68.7476584 23.0801936,69.3714292 C23.0801936,69.9952001 23.5857435,70.50075 24.2095143,70.50075 L46.7897079,70.50075 C47.4134787,70.50075 47.9190287,69.9952001 47.9190287,69.3714292 C47.9190287,68.7476584 47.4134787,68.2421084 46.7897079,68.2421084 L36.6289319,68.2421084 L36.6289319,58.6405484 L59.9371174,58.6405484 C65.7711637,58.6397707 70.4992222,53.9117121 70.5,48.0776658 L70.5,11.0628549 C70.4984445,5.22880857 65.7703859,0.500749992 59.9363396,0.499972223 Z M65.8084966,53.9498228 C64.3019578,55.4548061 62.2330919,56.3811291 59.9363396,56.3819069 L11.0628826,56.3819069 C8.76613038,56.3811291 6.69726447,55.4540283 5.19072566,53.9498228 C3.68574238,52.443284 2.75864157,50.3744181 2.75864157,48.0776658 L2.75864157,45.0918101 L68.2421362,45.0918101 L68.2421362,48.0776658 C68.2405807,50.3744181 67.3134799,52.4440617 65.8084966,53.9498228 Z M68.2413584,42.8347241 L2.7578638,42.8347241 L2.7578638,11.0628549 C2.75864157,8.7661026 3.68574238,6.6972367 5.18994789,5.19069788 C6.69648671,3.6857146 8.76535261,2.75939156 11.0621049,2.75861379 L59.9355618,2.75861379 C62.2323141,2.75939156 64.30118,3.68649237 65.8077188,5.19069788 C67.3127021,6.6972367 68.2398029,8.7661026 68.2398029,11.0628549 L68.2398029,42.8347241 L68.2413584,42.8347241 Z"></path>
                        </g>
                    </g>
                </g>
                <g id="noun_771176_cc" transform="translate(41.000000, 40.000000)" fill="#046567">
                    <g id="Group">
                        <g id="lock" transform="translate(7.000000, -5.000000)">
                            <path d="M6.78028169,10.4794521 C6.41267606,10.4794521 6.08591549,10.5616438 5.75915493,10.7260274 C5.43239437,10.5616438 5.06478873,10.4794521 4.73802817,10.4794521 C3.39014085,10.4794521 2.28732394,11.5890411 2.28732394,12.9452055 C2.28732394,14.3013699 3.39014085,15.4109589 4.73802817,15.4109589 C5.1056338,15.4109589 5.43239437,15.3287671 5.75915493,15.1643836 C6.08591549,15.3287671 6.41267606,15.4109589 6.78028169,15.4109589 C8.12816901,15.4109589 9.23098592,14.3013699 9.23098592,12.9452055 C9.23098592,11.5890411 8.12816901,10.4794521 6.78028169,10.4794521 Z M3.06338028,12.9452055 C3.06338028,12.0410959 3.79859155,11.3013699 4.6971831,11.3013699 C4.98309859,11.3013699 5.26901408,11.3835616 5.51408451,11.5479452 L5.51408451,11.5479452 C6.04507042,11.8356164 6.33098592,12.369863 6.33098592,12.9863014 C6.33098592,13.5616438 6.00422535,14.0958904 5.51408451,14.4246575 C5.26901408,14.5890411 4.98309859,14.6712329 4.6971831,14.6712329 C3.79859155,14.5890411 3.06338028,13.8493151 3.06338028,12.9452055 Z M6.78028169,14.5890411 L6.53521127,14.5890411 C6.94366197,14.1369863 7.18873239,13.5616438 7.18873239,12.9452055 C7.18873239,12.3287671 6.94366197,11.7534247 6.53521127,11.3013699 L6.78028169,11.3013699 C7.67887324,11.3013699 8.41408451,12.0410959 8.41408451,12.9452055 C8.41408451,13.8493151 7.67887324,14.5890411 6.78028169,14.5890411 Z" id="Shape"></path>
                            <rect id="Rectangle-path" x="10.7422535" y="10.4794521" width="8.2915493" height="0.821917808"></rect>
                            <rect id="Rectangle-path" x="10.7422535" y="12.5342466" width="8.2915493" height="0.821917808"></rect>
                            <rect id="Rectangle-path" x="10.7422535" y="14.5890411" width="8.2915493" height="0.821917808"></rect>
                            <path d="M27.243662,19.6438356 L27.243662,15.2465753 L27.243662,15.0410959 L27.243662,15.0410959 L27.243662,2.5890411 C27.243662,1.23287671 26.1408451,0.123287671 24.7929577,0.123287671 L2.57323944,0.123287671 C1.22535211,0.123287671 0.122535211,1.23287671 0.122535211,2.5890411 L0.122535211,14.9178082 C0.122535211,16.2739726 1.22535211,17.3835616 2.57323944,17.3835616 L16.4605634,17.3835616 L16.4605634,19.6438356 L14.7859155,19.6438356 L14.7859155,29.9178082 L28.8774648,29.9178082 L28.8774648,19.6438356 L27.243662,19.6438356 Z M26.4267606,6.53424658 L0.93943662,6.53424658 L0.93943662,3.28767123 L26.3859155,3.28767123 L26.3859155,6.53424658 L26.4267606,6.53424658 Z M2.57323944,0.945205479 L24.7521127,0.945205479 C25.6098592,0.945205479 26.3042254,1.60273973 26.3859155,2.46575342 L0.98028169,2.46575342 C1.02112676,1.64383562 1.71549296,0.945205479 2.57323944,0.945205479 Z M2.57323944,16.5616438 C1.67464789,16.5616438 0.93943662,15.8219178 0.93943662,14.9178082 L0.93943662,7.35616438 L26.3859155,7.35616438 L26.3859155,12.5342466 C26.2633803,12.4109589 26.1816901,12.2876712 26.0591549,12.1643836 C25.7732394,11.8767123 25.4464789,11.6712329 25.1197183,11.5068493 L25.1605634,11.4657534 C24.6295775,10.5205479 23.6901408,9.94520548 22.5873239,9.94520548 C20.9943662,9.94520548 19.6873239,11.260274 19.6873239,12.8630137 C19.6873239,14.4657534 20.9943662,15.7808219 22.5873239,15.7808219 C22.9957746,15.7808219 23.4042254,15.6986301 23.771831,15.5342466 L23.771831,16.5616438 L20.0140845,16.5616438 L16.4197183,16.5616438 L2.57323944,16.5616438 Z M24.6295775,15.369863 C24.5478873,14.8356164 24.1802817,13.8493151 23.0774648,13.8493151 L20.7492958,13.8493151 C20.5859155,13.5616438 20.5042254,13.2328767 20.5042254,12.9041096 C20.5042254,12.5342466 20.5859155,12.2054795 20.7492958,11.9178082 L23.0774648,11.9178082 C23.0774648,11.9178082 24.5478873,11.8767123 25.4873239,12.7808219 C26.1,13.3561644 26.3859155,14.1780822 26.3859155,15.2876712 L26.3859155,19.6849315 L24.6295775,19.6849315 L24.6295775,15.4109589 L24.6295775,15.369863 Z M23.4859155,14.7945205 C23.2,14.9178082 22.9140845,15 22.628169,15 C22.2197183,15 21.8521127,14.8767123 21.5253521,14.6712329 L23.1183099,14.6712329 C23.2408451,14.6712329 23.4042254,14.7123288 23.4859155,14.7945205 Z M21.5661972,11.0958904 C21.8929577,10.9315068 22.2197183,10.8082192 22.628169,10.8082192 C23.0366197,10.8082192 23.4042254,10.9315068 23.771831,11.1369863 C23.4042254,11.0958904 23.1183099,11.0958904 23.1183099,11.0958904 L21.5661972,11.0958904 L21.5661972,11.0958904 Z M23.8126761,17.3835616 L23.8126761,19.6438356 L20.0549296,19.6438356 L20.0549296,17.3835616 L23.8126761,17.3835616 Z M19.2380282,17.3835616 L19.2380282,19.6438356 L17.2774648,19.6438356 L17.2774648,17.3835616 L19.2380282,17.3835616 Z M28.1014085,29.0958904 L15.643662,29.0958904 L15.643662,20.4657534 L16.5014085,20.4657534 L20.0957746,20.4657534 L23.8535211,20.4657534 L27.243662,20.4657534 L28.1014085,20.4657534 L28.1014085,29.0958904 Z" id="Shape"></path>
                            <path d="M23.5267606,27.9863014 L20.6267606,27.9863014 L21.0352113,24.1232877 C20.7901408,23.8767123 20.6676056,23.5068493 20.6676056,23.1780822 C20.6676056,22.3972603 21.3211268,21.739726 22.0971831,21.739726 C22.8732394,21.739726 23.5267606,22.3972603 23.5267606,23.1780822 C23.5267606,23.5479452 23.4042254,23.8767123 23.1591549,24.1232877 L23.5267606,27.9863014 Z M21.5253521,27.1643836 L22.5873239,27.1643836 L22.2197183,23.7945205 L22.3830986,23.6712329 C22.5464789,23.5479452 22.628169,23.3835616 22.628169,23.1780822 C22.628169,22.8493151 22.3422535,22.5616438 22.015493,22.5616438 C21.6887324,22.5616438 21.4028169,22.8493151 21.4028169,23.1780822 C21.4028169,23.3424658 21.484507,23.5479452 21.6478873,23.6712329 L21.8112676,23.7945205 L21.5253521,27.1643836 Z" id="Shape"></path>
                        </g>
                    </g>
                </g>
            </g>
        </g>
    </g>
</svg>