<?xml version="1.0" encoding="UTF-8"?>
<svg width="125px" height="124px" viewBox="0 0 125 124" version="1.1" xmlns="http://www.w3.org/2000/svg" xmlns:xlink="http://www.w3.org/1999/xlink">
    <!-- Generator: Sketch 41.2 (35397) - http://www.bohemiancoding.com/sketch -->
    <title>Group 10</title>
    <desc>Created with Sketch.</desc>
    <defs>
        <rect id="path-1" x="0" y="0" width="125" height="123.820755"></rect>
    </defs>
    <g id="Page-1" stroke="none" stroke-width="1" fill="none" fill-rule="evenodd">
        <g id="mutual-fund" transform="translate(-847.000000, -1236.000000)">
            <g id="Group-10" transform="translate(847.000000, 1236.000000)">
                <g id="small_thm_2-copy">
                    <mask id="mask-2" fill="white">
                        <use xlink:href="#path-1"></use>
                    </mask>
                    <use id="Mask" fill="#000000" opacity="0.02" xlink:href="#path-1"></use>
                </g>
                <g id="noun_878087_cc" transform="translate(25.000000, 34.000000)">
                    <g id="Group">
                        <path d="M72.5599324,0.6875 L2.44048616,0.6875 C1.52588468,0.6875 0.6875,1.44966789 0.6875,2.44048616 L0.6875,47.1035247 C0.6875,48.0181262 1.44966789,48.8565109 2.44048616,48.8565109 L6.32754241,48.8565109 L6.32754241,45.4267554 L4.19347231,45.4267554 L4.19347231,4.19347231 L70.883163,4.19347231 L70.883163,45.4267554 L45.8078393,45.4267554 L45.8078393,48.8565109 L72.5599324,48.8565109 C73.4745338,48.8565109 74.3129185,48.094343 74.3129185,47.1035247 L74.3129185,2.44048616 C74.2367017,1.52588468 73.4745338,0.6875 72.5599324,0.6875 Z" id="Shape" stroke="#046567"></path>
                        <path d="M40.1677969,31.3266493 C39.8629297,31.3266493 39.6342794,31.5552997 39.6342794,31.8601669 L39.6342794,35.8234399 C39.6342794,36.1283071 39.8629297,36.3569574 40.1677969,36.3569574 L44.0548531,36.3569574 C44.3597203,36.3569574 44.5883707,36.1283071 44.5883707,35.8234399 L44.5883707,31.8601669 C44.5883707,31.5552997 44.3597203,31.3266493 44.0548531,31.3266493 L40.1677969,31.3266493 Z" id="Shape" stroke="#046567"></path>
                        <path d="M47.1035247,28.7352785 C46.7986576,28.7352785 46.5700072,28.9639289 46.5700072,29.268796 L46.5700072,35.8996567 C46.5700072,36.2045238 46.7986576,36.4331742 47.1035247,36.4331742 L50.990581,36.4331742 C51.2954481,36.4331742 51.5240985,36.2045238 51.5240985,35.8996567 L51.5240985,29.268796 C51.5240985,28.9639289 51.2954481,28.7352785 50.990581,28.7352785 L47.1035247,28.7352785 Z" id="Shape" stroke="#046567"></path>
                        <path d="M54.1916861,25.3817398 C53.886819,25.3817398 53.6581686,25.6103901 53.6581686,25.9152573 L53.6581686,35.8234399 C53.6581686,36.1283071 53.886819,36.3569574 54.1916861,36.3569574 L58.0787424,36.3569574 C58.3836095,36.3569574 58.6122599,36.1283071 58.6122599,35.8234399 L58.6122599,25.9152573 C58.6122599,25.6103901 58.3836095,25.3817398 58.0787424,25.3817398 L54.1916861,25.3817398 Z" id="Shape" stroke="#046567"></path>
                        <path d="M65.471771,20.961166 L61.5847147,20.961166 C61.2798475,20.961166 61.0511972,21.1898163 61.0511972,21.4946835 L61.0511972,35.8996567 C61.0511972,36.2045238 61.2798475,36.4331742 61.5847147,36.4331742 L65.471771,36.4331742 C65.7766381,36.4331742 66.0052885,36.2045238 66.0052885,35.8996567 L66.0052885,21.4946835 C66.0052885,21.1898163 65.7766381,20.961166 65.471771,20.961166 Z" id="Shape" stroke="#046567"></path>
                        <path d="M65.7004213,17.4551937 L63.8712184,9.9859483 C63.8712184,9.90973151 63.7950016,9.83351472 63.7187848,9.75729793 C63.642568,9.68108115 63.4901344,9.68108115 63.4139176,9.75729793 L55.7922387,12.4248856 C55.6398051,12.5011024 55.5635883,12.5773191 55.5635883,12.7297527 C55.5635883,12.8821863 55.6398051,13.0346199 55.7922387,13.1108367 L57.9263088,14.1778717 C56.1733227,16.8454593 50.5332802,24.0098375 40.1677969,27.5158099 C40.0153633,27.5920266 39.8629297,27.7444602 39.9391465,27.9731106 C40.0153633,28.1255442 40.1677969,28.2779778 40.3202305,28.2779778 L40.3964473,28.2779778 C40.5488808,28.2779778 55.8684555,25.305523 62.7279665,16.616809 L65.3193374,17.9124944 C65.471771,17.9887112 65.6242045,17.9887112 65.7004213,17.8362776 C65.7004213,17.683844 65.7004213,17.5314104 65.7004213,17.4551937 Z" id="Shape" stroke="#046567"></path>
                        <path d="M25.0006558,45.2743218 L23.9336208,49.7711124 L27.4395931,47.2559583 L26.9822923,45.2743218 L28.4304113,43.5975524 C28.5066281,43.5213356 28.5066281,43.4451188 28.4304113,43.368902 L27.5158099,41.1586152 C27.5158099,41.0823984 27.4395931,41.0823984 27.3633763,41.0823984 L24.5433551,41.0823984 C24.4671383,41.0823984 24.3909215,41.1586152 24.3909215,41.1586152 L23.47632,43.368902 L23.47632,43.5975524 L25.0006558,45.2743218 Z" id="Shape" fill="#046567"></path>
                        <path d="M25.9914741,17.4551937 C20.4276484,17.4551937 15.9308579,21.9519842 15.9308579,27.5158099 C15.9308579,33.0796355 20.4276484,37.5764261 25.9914741,37.5764261 C31.5552997,37.5764261 36.0520903,33.0796355 36.0520903,27.5158099 C36.0520903,21.9519842 31.4790829,17.4551937 25.9914741,17.4551937 Z M25.9914741,35.2899224 C21.6471171,35.2899224 18.1411448,31.7839501 18.1411448,27.4395931 C18.1411448,26.753642 18.2173616,26.1439076 18.3697951,25.5341733 C19.2843966,25.9914741 20.961166,26.6012084 22.8665857,26.6012084 C24.2384879,26.6012084 25.6866069,26.2963412 27.1347259,25.305523 C27.2871595,25.2293062 30.716915,22.7141521 33.4607194,25.2293062 C33.6893698,25.9152573 33.7655866,26.6774252 33.7655866,27.4395931 C33.7655866,31.7839501 30.2596143,35.2899224 25.9914741,35.2899224 Z" id="Shape" stroke="#046567"></path>
                        <polygon id="Shape" fill="#046567" points="29.1163624 54.4203365 28.5828449 52.2862664 25.6103901 54.4203365"></polygon>
                        <polygon id="Shape" fill="#046567" points="23.47632 54.4203365 28.2779778 50.990581 27.7444602 48.5516437 23.47632 51.6003153 22.7903689 54.4203365"></polygon>
                        <path d="M44.0548531,54.4203365 L44.0548531,49.8473291 C44.0548531,45.0456714 40.1677969,41.0823984 35.2899224,41.0823984 L35.061272,41.0823984 L31.0217822,54.4203365 L44.0548531,54.4203365 Z" id="Shape" stroke="#046567"></path>
                        <path d="M20.8849492,54.4203365 L16.9978929,41.0823984 L16.616809,41.0823984 C11.8151512,41.0823984 7.8518782,44.9694546 7.8518782,49.8473291 L7.8518782,54.4203365 L20.8849492,54.4203365 Z" id="Shape" stroke="#046567"></path>
                    </g>
                </g>
            </g>
        </g>
    </g>
</svg>