<?xml version="1.0" encoding="UTF-8"?>
<svg width="125px" height="124px" viewBox="0 0 125 124" version="1.1" xmlns="http://www.w3.org/2000/svg" xmlns:xlink="http://www.w3.org/1999/xlink">
    <!-- Generator: Sketch 41.2 (35397) - http://www.bohemiancoding.com/sketch -->
    <title>Group 10</title>
    <desc>Created with Sketch.</desc>
    <defs>
        <rect id="path-1" x="0" y="0" width="125" height="123.820755"></rect>
    </defs>
    <g id="Page-1" stroke="none" stroke-width="1" fill="none" fill-rule="evenodd">
        <g id="Selfie_demo_video" transform="translate(-148.000000, -2515.000000)">
            <g id="Group-10" transform="translate(148.000000, 2515.000000)">
                <g id="10256563-Business-man-point-to-falling-graph-of-stock-market-Stock-Photo">
                    <mask id="mask-2" fill="white">
                        <use xlink:href="#path-1"></use>
                    </mask>
                    <use id="Mask" fill="#000000" opacity="0.02" xlink:href="#path-1"></use>
                </g>
                <g id="noun_551949_cc" transform="translate(30.000000, 34.000000)" fill="#046567">
                    <g id="Group">
                        <g transform="translate(0.109589, 0.350635)" id="Group-8">
                            <g transform="translate(-0.000063, -0.000025)">
                                <g transform="translate(0.000063, 0.000025)">
                                    <g>
                                        <path d="M10.1404644,0.791828047 C7.35144383,0.923012259 5.10958904,3.23025268 5.10958904,6.06112941 L5.10958904,7.11995294 L5.10958904,9.2376 L13.5479452,9.2376 L13.5479452,13.4728941 L15.6575342,13.4728941 L15.6575342,6.06112941 C15.6575342,4.86636734 15.2440141,3.77256219 14.5738976,2.88465882 L50.4657534,2.88465882 C52.2370678,2.88465882 53.630137,4.28315294 53.630137,6.06112941 L53.630137,15.6112221 L55.739726,15.6112221 L55.739726,6.13144186 C55.7405014,6.10801084 55.7405014,6.08456043 55.739726,6.06112941 C55.739726,3.14661176 53.3692884,0.767011765 50.4657534,0.767011765 L10.3835616,0.767011765 C10.2306193,0.772291598 10.1851986,0.780581477 10.1404644,0.791828047 Z M10.3835616,2.88465882 C12.1548751,2.88465882 13.5479452,4.28315294 13.5479452,6.06112941 L13.5479452,7.11995294 L7.21917808,7.11995294 L7.21917808,6.06112941 C7.21917808,4.28315294 8.61224816,2.88465882 10.3835616,2.88465882 Z M19.8767123,11.1199529 L19.8767123,13.2376 L28.3150685,13.2376 L28.3150685,11.1199529 L19.8767123,11.1199529 Z M61.0136986,11.3552471 C59.2785511,11.3552471 57.8493151,12.7899529 57.8493151,14.5317176 C57.8493151,15.0985836 58.0137765,15.6239195 58.2778253,16.0868647 L53.3375961,22.0468828 C53.0919534,21.9845584 52.8390622,21.9434824 52.5753425,21.9434824 C51.9514547,21.9434824 51.3703558,22.1336682 50.8777815,22.4522132 L45.1670585,18.9944936 C45.1727333,18.9175341 45.1917808,18.8453139 45.1917808,18.7670118 C45.1917808,17.0252471 43.7625448,15.5905412 42.0273973,15.5905412 C40.2922497,15.5905412 38.8630137,17.0252471 38.8630137,18.7670118 C38.8630137,19.4136416 39.0621568,20.0163981 39.398651,20.5206882 L34.779805,26.4145299 C34.4114749,26.2622986 34.0091911,26.1787765 33.5890411,26.1787765 C31.8538936,26.1787765 30.4246575,27.6134824 30.4246575,29.3552471 C30.4246575,31.0970118 31.8538936,32.5317176 33.5890411,32.5317176 C35.3241886,32.5317176 36.7534247,31.0970118 36.7534247,29.3552471 C36.7534247,28.8054042 36.5991567,28.290492 36.3496367,27.837324 L41.092092,21.7821769 C41.3897845,21.8764991 41.70047,21.9434824 42.0273973,21.9434824 C42.9200994,21.9434824 43.7281332,21.5567831 44.305918,20.9508353 L49.5840106,24.1438489 C49.4823875,24.4535273 49.4109589,24.7780906 49.4109589,25.1199529 C49.4109589,26.8617176 50.8401949,28.2964235 52.5753425,28.2964235 C54.31049,28.2964235 55.739726,26.8617176 55.739726,25.1199529 C55.739726,24.4131184 55.4967562,23.7601228 55.1010817,23.2297878 L59.8682572,17.4807064 C60.224744,17.6218751 60.6099296,17.7081882 61.0136986,17.7081882 C62.7488462,17.7081882 64.1780822,16.2734824 64.1780822,14.5317176 C64.1780822,12.7899529 62.7488462,11.3552471 61.0136986,11.3552471 Z M61.0136986,13.4728941 C61.6087399,13.4728941 62.0684932,13.9345412 62.0684932,14.5317176 C62.0684932,15.1291059 61.6087399,15.5905412 61.0136986,15.5905412 C60.4186574,15.5905412 59.9589041,15.1291059 59.9589041,14.5317176 C59.9589041,13.9345412 60.4186574,13.4728941 61.0136986,13.4728941 Z M42.0273973,17.7081882 C42.6224385,17.7081882 43.0821918,18.1698353 43.0821918,18.7670118 C43.0821918,19.3644 42.6224385,19.8258353 42.0273973,19.8258353 C41.432356,19.8258353 40.9726027,19.3644 40.9726027,18.7670118 C40.9726027,18.1698353 41.432356,17.7081882 42.0273973,17.7081882 Z M59.9589041,19.8258353 L59.9589041,36.7670118 L62.0684932,36.7670118 L62.0684932,19.8258353 L59.9589041,19.8258353 Z M40.9726027,24.0611294 L40.9726027,36.7670118 L43.0821918,36.7670118 L43.0821918,24.0611294 L40.9726027,24.0611294 Z M52.5753425,24.0611294 C53.1703837,24.0611294 53.630137,24.5227765 53.630137,25.1199529 C53.630137,25.7173412 53.1703837,26.1787765 52.5753425,26.1787765 C51.9803012,26.1787765 51.5205479,25.7173412 51.5205479,25.1199529 C51.5205479,24.5227765 51.9803012,24.0611294 52.5753425,24.0611294 Z M33.5890411,28.2964235 C34.1840823,28.2964235 34.6438356,28.7580706 34.6438356,29.3552471 C34.6438356,29.9526353 34.1840823,30.4140706 33.5890411,30.4140706 C32.9939999,30.4140706 32.5342466,29.9526353 32.5342466,29.3552471 C32.5342466,28.7580706 32.9939999,28.2964235 33.5890411,28.2964235 Z M51.5205479,30.4140706 L51.5205479,36.7670118 L53.630137,36.7670118 L53.630137,30.4140706 L51.5205479,30.4140706 Z M32.5342466,34.6493647 L32.5342466,36.7670118 L34.6438356,36.7670118 L34.6438356,34.6493647 L32.5342466,34.6493647 Z M30.4246575,38.8846588 L30.4246575,41.0023059 L64.1780822,41.0023059 L64.1780822,38.8846588 L30.4246575,38.8846588 Z M13.5479452,43.1199529 L13.5479452,50.5234461 C13.5479452,53.4464471 15.918382,55.8258353 18.8219178,55.8258353 L58.9041096,55.8258353 C61.8076446,55.8258353 64.1780822,53.4464471 64.1780822,50.5317176 L64.1780822,49.4728941 L64.1780822,47.3552471 L55.739726,47.3552471 L55.739726,43.1199529 L53.630137,43.1199529 L53.630137,47.3552471 L21.9863014,47.3552471 L21.9863014,49.4728941 L21.9863014,50.5317176 C21.9863014,52.3099059 20.5932313,53.7081882 18.8219178,53.7081882 C17.0506043,53.7081882 15.6575342,52.3099059 15.6575342,50.5317176 L15.6575342,49.4728941 L15.6575342,43.1199529 L13.5479452,43.1199529 Z M24.0958904,49.4728941 L62.0684932,49.4728941 L62.0684932,50.5317176 C62.0684932,52.3099059 60.6754239,53.7081882 58.9041096,53.7081882 L23.0081336,53.7081882 C23.6803647,52.8195071 24.0958904,51.7286478 24.0958904,50.5317176 L24.0958904,49.4728941 Z" id="Shape" stroke="#FAFAFA"></path>
                                        <g id="noun_887964_cc" transform="translate(0.890411, 17.649365)">
                                            <g id="Group">
                                                <g>
                                                    <path d="M26.325,5.15 L0.975,5.15 C0.43875,5.15 0,5.6 0,6.15 L0,19.65 C0,20.2 0.43875,20.65 0.975,20.65 L26.325,20.65 C26.86125,20.65 27.3,20.2 27.3,19.65 L27.3,6.15 C27.3,5.55 26.86125,5.15 26.325,5.15 Z M26.325,7.9 L26.08125,7.9 C25.2525,7.9 24.61875,7.25 24.61875,6.4 L24.61875,6.15 L26.325,6.15 L26.325,7.9 Z M0.975,6.15 L2.925,6.15 L2.925,6.4 C2.925,7.25 2.29125,7.9 1.4625,7.9 L0.975,7.9 L0.975,6.15 Z M0.975,17.9 L1.4625,17.9 C2.29125,17.9 2.925,18.55 2.925,19.4 L2.925,19.65 L0.975,19.65 L0.975,17.9 Z M24.375,19.65 L24.375,19.4 C24.375,18.55 25.00875,17.9 25.8375,17.9 L26.325,17.9 L26.325,16.9 L25.8375,16.9 C24.4725,16.9 23.4,18 23.4,19.4 L23.4,19.65 L3.9,19.65 L3.9,19.4 C3.9,18 2.8275,16.9 1.4625,16.9 L0.975,16.9 L0.975,8.9 L1.4625,8.9 C2.8275,8.9 3.9,7.8 3.9,6.4 L3.9,6.15 L23.64375,6.15 L23.64375,6.4 C23.64375,7.8 24.71625,8.9 26.08125,8.9 L26.325,8.9 L26.325,19.65 L24.375,19.65 Z" id="Shape"></path>
                                                    <rect id="Rectangle-path" x="2.4375" y="2.9" width="22.425" height="1"></rect>
                                                    <rect id="Rectangle-path" x="5.3625" y="0.4" width="16.575" height="1"></rect>
                                                    <ellipse id="Oval" cx="4.875" cy="9.5" rx="0.975" ry="1"></ellipse>
                                                    <ellipse id="Oval" cx="22.425" cy="16.5" rx="0.975" ry="1"></ellipse>
                                                    <path d="M9.8475,9.1 C7.75125,11.25 7.75125,14.75 9.8475,16.9 C11.94375,19.05 15.35625,19.05 17.4525,16.9 C19.54875,14.75 19.54875,11.25 17.4525,9.1 C15.35625,6.95 11.94375,6.95 9.8475,9.1 Z M16.0875,10.85 L14.77125,10.85 C14.86875,11.05 14.96625,11.25 15.015,11.5 L16.0875,11.5 L16.0875,12.35 L15.015,12.35 C14.86875,13.2 14.18625,13.85 13.40625,13.85 L12.9675,13.85 L15.16125,16.4 L14.625,17 L11.2125,13 L13.40625,13 C13.79625,13 14.08875,12.75 14.235,12.35 L11.6025,12.35 L11.6025,11.5 L14.235,11.5 C14.08875,11.1 13.7475,10.85 13.40625,10.85 L11.6025,10.85 L11.6025,10 L16.0875,10 L16.0875,10.85 Z" id="Shape"></path>
                                                </g>
                                            </g>
                                        </g>
                                        <polygon id="Shape" stroke="#FAFAFA" points="32.3796467 9.78853452 30.9350926 11.2330886 34.7221944 15.0201904 42.5957293 7.14665556 41.1511752 5.70210148 34.7221944 12.1310823"></polygon>
                                    </g>
                                </g>
                            </g>
                        </g>
                    </g>
                </g>
            </g>
        </g>
    </g>
</svg>