<?xml version="1.0" encoding="UTF-8"?>
<svg width="125px" height="124px" viewBox="0 0 125 124" version="1.1" xmlns="http://www.w3.org/2000/svg" xmlns:xlink="http://www.w3.org/1999/xlink">
    <!-- Generator: Sketch 41.2 (35397) - http://www.bohemiancoding.com/sketch -->
    <title>Group 19</title>
    <desc>Created with Sketch.</desc>
    <defs>
        <rect id="path-1" x="0" y="0" width="125" height="123.820755"></rect>
    </defs>
    <g id="Page-1" stroke="none" stroke-width="1" fill="none" fill-rule="evenodd">
        <g id="FINANCIAL-SOLUTIONS" transform="translate(-448.000000, -1007.000000)">
            <g id="Group-19" transform="translate(448.000000, 1007.000000)">
                <g id="Group-17">
                    <g id="10256567-falling-dollar-note-and-graph-of-stock-market-with-stock-board-Stock-Photo-Copy-3">
                        <mask id="mask-2" fill="white">
                            <use xlink:href="#path-1"></use>
                        </mask>
                        <use id="Mask" fill="#000000" opacity="0.02" xlink:href="#path-1"></use>
                    </g>
                    <g id="Group-5" transform="translate(3.000000, 2.000000)">
                        <g id="noun_763916_cc-copy-5" transform="translate(14.321918, 19.500000)">
                            <g id="Group">
                                <g transform="translate(0.180095, 0.000000)"></g>
                            </g>
                        </g>
                        <g id="Fin_1-Copy" transform="translate(28.500000, 19.500000)">
                            <g id="Group-9" transform="translate(6.155251, 24.655251)" fill="#046567">
                                <path d="M2.06600971,10.8659925 C1.56868867,10.8659925 1.17083184,11.0647076 0.87243922,11.3627803 C0.574046598,11.660853 0.375118183,12.1576408 0.375118183,12.6544286 C0.375118183,13.6480042 1.17083184,14.3435071 2.06600971,14.3435071 L2.06600971,14.3435071 C2.56333074,14.3435071 2.96118757,14.144792 3.3590444,13.8467193 C3.65743702,13.5486466 3.85636544,13.0518588 3.85636544,12.555071 C3.85636544,11.660853 3.06065178,10.8659925 2.06600971,10.8659925 Z" id="Shape"></path>
                                <path d="M8.7092963,1.40705824 C8.31143947,1.20834312 7.81411843,1.20834312 7.3167974,1.30770068 C6.81947636,1.5064158 6.52108374,1.80448848 6.32215532,2.20191872 C5.92429849,3.09613677 6.22269111,4.08971238 7.11786898,4.48714262 L7.11786898,4.48714262 C7.51572581,4.68585774 8.01304685,4.68585774 8.51036788,4.58650018 C9.00768892,4.38778506 9.30608154,4.08971238 9.50500996,3.69228213 C9.90286679,2.89742165 9.60447416,1.80448848 8.7092963,1.40705824 Z" id="Shape"></path>
                                <path d="M41.3384988,2.66316568 C41.5374272,2.26573544 41.5374272,1.76894764 41.3384988,1.27215983 C41.1395704,0.874729591 40.8411777,0.477299348 40.3438567,0.377941788 C39.4486788,0.0798691054 38.4540368,0.477299348 38.0561799,1.3715174 L38.0561799,1.3715174 C37.8572515,1.76894764 37.8572515,2.26573544 38.0561799,2.76252325 C38.2551083,3.15995349 38.553501,3.55738373 39.050822,3.75609885 C39.9459999,3.95481397 40.9406419,3.55738373 41.3384988,2.66316568 Z" id="Shape"></path>
                                <path d="M47.6273985,12.9777314 C48.0252553,12.6796587 48.2241837,12.2822285 48.2241837,11.7854406 C48.2241837,11.2886528 48.1247195,10.8912226 47.7268627,10.4937924 C47.1300775,9.79828943 45.936507,9.69893187 45.2402575,10.2950772 L45.2402575,10.2950772 C44.8424007,10.5931499 44.6434723,10.9905802 44.6434723,11.487368 C44.6434723,11.9841558 44.7429365,12.381586 45.0413291,12.7790163 C45.7375786,13.4745192 46.8316848,13.5738767 47.6273985,12.9777314 Z" id="Shape"></path>
                                <path d="M29.599151,43.4189269 C29.8975437,43.8163572 30.2954005,44.0150723 30.6932573,44.1144299 C31.1905784,44.2137874 31.5884352,44.1144299 31.986292,43.8163572 C32.7820057,43.2202118 32.9809341,42.1272787 32.3841488,41.4317757 L32.3841488,41.4317757 C32.0857562,41.0343455 31.6878994,40.8356304 31.1905784,40.7362728 C30.6932573,40.6369152 30.2954005,40.7362728 29.8975437,41.0343455 C29.2012942,41.5311333 29.0023658,42.6240665 29.599151,43.4189269 Z" id="Shape"></path>
                                <path d="M17.7069935,43.6857795 C17.8064577,44.1825673 18.0053861,44.5799976 18.4032429,44.8780703 C18.8010997,45.176143 19.2984208,45.2755005 19.6962776,45.176143 C20.5914555,44.9774278 21.2877049,44.0832098 21.1882407,43.1889917 L21.1882407,43.1889917 C21.0887765,42.6922039 20.8898481,42.2947737 20.4919913,41.996701 C20.0941344,41.6986283 19.5968134,41.5992708 19.1989566,41.6986283 C18.3037787,41.7979859 17.6075293,42.6922039 17.7069935,43.6857795 Z" id="Shape"></path>
                            </g>
                            <g id="noun_60212_cc" transform="translate(22.890413, 34.445955)" stroke-width="0.9" stroke="#FAFAFA" fill="#046567">
                                <g id="Group">
                                    <g transform="translate(0.550872, 0.135412)" id="Shape">
                                        <path d="M1.36008656,0.152595759 L0.137819044,1.8354058 L3.56656357,1.8354058 C3.9218498,1.85071294 6.39581927,2.01127859 7.2795562,3.6847239 L1.33876795,3.6847239 L0.112947364,5.36753607 L7.58156986,5.36753607 C7.57986646,5.40027762 7.57745403,5.42774554 7.57446457,5.45964849 C7.57446457,5.45964849 7.53960547,9.14517278 0.805803255,8.50641317 L0.805803255,9.3035517 L0.812908537,10.1679694 L8.07545124,18.0506117 L10.8397655,18.0506117 L10.8397655,17.6998851 L3.87213029,9.8810191 L3.87213029,9.77119414 C3.87213029,9.77119414 9.35611472,9.85059591 10.2641627,5.39587868 C10.2641627,5.39587868 10.263822,5.38715298 10.26771,5.36753607 L12.5701213,5.36753607 L13.7923888,3.6847239 L10.1682233,3.6847239 C10.0317387,3.06807789 9.75297633,2.38783404 9.20533221,1.8354058 L12.5985461,1.8354058 L13.8208136,0.152595759 L1.36008081,0.152595759 L1.36008656,0.152595759 Z"></path>
                                    </g>
                                </g>
                            </g>
                            <g id="Group" transform="translate(0.756236, 45.144799)" stroke="#046567" fill="#F7F7F7">
                                <path d="M5.96785244,7.56656804 C6.26624506,8.16271341 6.66410189,8.65950121 7.26088713,9.15628901 C7.85767238,9.65307682 8.55392183,9.9511495 9.34963549,9.9511495 L9.34963549,9.9511495 L9.4490997,9.9511495 C10.2448134,9.9511495 10.9410628,9.65307682 11.537848,9.15628901 C12.1346333,8.65950121 12.5324901,8.06335585 12.8308827,7.56656804 C13.427668,6.37427731 13.7260606,5.08262902 13.7260606,3.89033829 L13.7260606,3.79098073 L13.7260606,3.39355049 C13.6265964,1.90318708 12.7314185,0.909611472 11.3389196,0.412823668 C10.7421344,0.214108546 10.1453491,0.114750986 9.4490997,0.114750986 C8.75285024,0.114750986 8.156065,0.214108546 7.55927976,0.412823668 C6.16678085,0.909611472 5.3710672,2.00254464 5.17213878,3.39355049 L5.17213878,3.79098073 L5.17213878,3.89033829 C5.07267457,5.08262902 5.3710672,6.27491975 5.96785244,7.56656804 Z" id="Shape"></path>
                                <path d="M17.3067721,13.0312339 C17.0083795,12.8325188 16.6105226,12.6338036 16.2126658,12.4350885 L13.3282038,11.3421553 C12.7314185,11.1434402 12.1346333,11.0440827 11.537848,11.4415129 L11.4383838,11.5408705 C11.2394554,11.7395856 11.1399912,11.8389432 11.040527,12.0376583 L10.9410628,12.1370158 L9.25017128,14.4222397 L9.05124287,14.1241671 C8.55392183,13.3293066 7.95713659,12.6338036 7.36035134,11.8389432 C7.36035134,11.7395856 7.26088713,11.7395856 7.26088713,11.640228 C7.06195872,11.4415129 6.8630303,11.2427978 6.56463768,11.1434402 L6.36570927,11.1434402 L5.3710672,11.3421553 L2.38714098,12.4350885 C1.98928415,12.5344461 1.59142732,12.7331612 1.2930347,13.0312339 C0.298392622,13.8260944 0.298392622,14.81967 0.298392622,14.81967 L0.298392622,17.1048939 C0.298392622,17.4029666 0.397856829,17.6016817 0.497321037,17.8003968 C0.895177866,18.6946148 1.69089152,18.9926875 2.18821256,18.9926875 L16.31213,18.9926875 C16.9089152,18.9926875 17.6051647,18.6946148 18.0030215,17.8003968 C18.1024857,17.6016817 18.2019499,17.303609 18.2019499,17.0055363 L18.2019499,14.81967 C18.3014141,14.7203124 18.3014141,13.8260944 17.3067721,13.0312339 Z" id="Shape"></path>
                            </g>
                            <g id="Group" transform="translate(20.965702, 0.000000)" stroke="#046567" fill="#F7F7F7">
                                <path d="M5.76892402,7.46721048 C6.06731665,8.06335585 6.46517348,8.56014365 7.06195872,9.05693145 C7.65874396,9.55371926 8.35499341,9.85179194 9.15070707,9.85179194 L9.15070707,9.85179194 L9.25017128,9.85179194 C10.0458849,9.85179194 10.7421344,9.55371926 11.3389196,9.05693145 C11.9357049,8.56014365 12.3335617,7.96399828 12.6319543,7.46721048 C13.2287396,6.27491975 13.5271322,4.98327146 13.5271322,3.79098073 L13.5271322,3.69162317 L13.5271322,3.29419293 C13.427668,1.80382952 12.5324901,0.810253911 11.1399912,0.313466107 C10.543206,0.114750986 9.94642073,0.0153934249 9.25017128,0.0153934249 C8.55392183,0.0153934249 7.95713659,0.114750986 7.36035134,0.313466107 C5.96785244,0.810253911 5.17213878,1.90318708 4.97321037,3.29419293 L4.97321037,3.69162317 L4.97321037,3.79098073 C4.87374616,4.98327146 5.17213878,6.17556219 5.76892402,7.46721048 Z" id="Shape"></path>
                                <path d="M17.1078437,12.9318763 C16.809451,12.7331612 16.4115942,12.5344461 16.0137374,12.335731 L13.1292754,11.2427978 C12.5324901,11.0440827 11.9357049,10.9447251 11.3389196,11.3421553 L11.2394554,11.4415129 C11.040527,11.640228 10.9410628,11.7395856 10.8415986,11.9383007 L10.7421344,12.0376583 L9.05124287,14.3228822 L8.95177866,14.0248095 C8.35499341,13.229949 7.85767238,12.4350885 7.26088713,11.640228 C7.26088713,11.5408705 7.16142293,11.5408705 7.16142293,11.4415129 C6.96249451,11.2427978 6.7635661,11.0440827 6.46517348,10.9447251 L6.26624506,10.9447251 L5.3710672,11.1434402 L2.38714098,12.2363734 C1.98928415,12.335731 1.59142732,12.5344461 1.2930347,12.8325188 C0.298392622,13.6273792 0.298392622,14.6209549 0.298392622,14.6209549 L0.298392622,16.9061788 C0.298392622,17.2042514 0.397856829,17.4029666 0.497321037,17.6016817 C0.895177866,18.4958997 1.69089152,18.7939724 2.18821256,18.7939724 L16.31213,18.7939724 C16.9089152,18.7939724 17.6051647,18.4958997 18.0030215,17.6016817 C18.1024857,17.4029666 18.2019499,17.1048939 18.2019499,16.8068212 L18.2019499,14.6209549 C18.1024857,14.6209549 18.2019499,13.7267368 17.1078437,12.9318763 Z" id="Shape"></path>
                            </g>
                            <g id="Group" transform="translate(44.062235, 44.182443)" stroke="#046567" fill="#F7F7F7">
                                <path d="M5.58433279,7.65053218 C5.88272541,8.24667754 6.28058224,8.74346535 6.87736749,9.24025315 C7.47415273,9.73704095 8.17040218,10.0351136 8.96611584,10.0351136 L8.96611584,10.0351136 L9.06558005,10.0351136 C9.86129371,10.0351136 10.5575432,9.73704095 11.1543284,9.24025315 C11.7511136,8.74346535 12.1489705,8.14731998 12.4473631,7.65053218 C13.0441483,6.45824145 13.342541,5.16659316 13.342541,3.97430243 L13.342541,3.87494487 L13.342541,3.47751463 C13.2430768,1.98715121 12.3478989,0.993575607 10.9554,0.496787804 C10.3586147,0.298072682 9.7618295,0.198715121 9.06558005,0.198715121 C8.3693306,0.198715121 7.77254535,0.298072682 7.17576011,0.496787804 C5.78326121,0.993575607 4.98754755,2.08650878 4.78861913,3.47751463 L4.78861913,3.87494487 L4.78861913,3.97430243 C4.68915493,5.26595072 4.98754755,6.45824145 5.58433279,7.65053218 Z" id="Shape"></path>
                                <path d="M17.0227166,13.115198 C16.724324,12.9164829 16.3264672,12.7177678 15.9286104,12.5190527 L13.0441483,11.4261195 C12.4473631,11.2274044 11.8505779,11.1280468 11.2537926,11.525477 L11.1543284,11.6248346 C10.9554,11.8235497 10.8559358,11.9229073 10.7564716,12.1216224 L10.6570074,12.22098 L8.96611584,14.5062039 L8.76718743,14.2081312 C8.17040218,13.4132707 7.67308115,12.6184102 7.0762959,11.8235497 C7.0762959,11.7241922 6.9768317,11.7241922 6.9768317,11.6248346 C6.77790328,11.4261195 6.57897487,11.2274044 6.28058224,11.1280468 L6.08165383,11.1280468 L5.18647596,11.3267619 L2.20254974,12.4196951 C1.80469291,12.5190527 1.40683609,12.7177678 1.10844346,13.0158405 C0.11380139,13.8107009 0.11380139,14.8042766 0.11380139,14.8042766 L0.11380139,17.0895004 C0.11380139,17.3875731 0.213265598,17.5862883 0.312729805,17.7850034 C0.710586634,18.6792214 1.50630029,18.9772941 2.00362133,18.9772941 L16.1275388,18.9772941 C16.724324,18.9772941 17.4205735,18.6792214 17.8184303,17.7850034 C17.9178945,17.5862883 18.0173587,17.2882156 18.0173587,16.9901429 L18.0173587,14.8042766 C18.0173587,14.9036341 18.0173587,13.9100585 17.0227166,13.115198 Z" id="Shape"></path>
                            </g>
                        </g>
                        <circle id="Oval-3-Copy-5" cx="60" cy="60" r="60"></circle>
                    </g>
                </g>
            </g>
        </g>
    </g>
</svg>