<?xml version="1.0" encoding="UTF-8"?>
<svg width="125px" height="124px" viewBox="0 0 125 124" version="1.1" xmlns="http://www.w3.org/2000/svg" xmlns:xlink="http://www.w3.org/1999/xlink">
    <!-- Generator: Sketch 41.2 (35397) - http://www.bohemiancoding.com/sketch -->
    <title>Group 23</title>
    <desc>Created with Sketch.</desc>
    <defs>
        <rect id="path-1" x="0" y="0" width="125" height="123.820755"></rect>
    </defs>
    <g id="Page-1" stroke="none" stroke-width="1" fill="none" fill-rule="evenodd">
        <g id="FINANCIAL-SOLUTIONS" transform="translate(-847.000000, -1007.000000)">
            <g id="Group-23" transform="translate(847.000000, 1007.000000)">
                <g id="Group-22">
                    <g id="Group-21">
                        <g id="Bitmap-Copy-5">
                            <mask id="mask-2" fill="white">
                                <use xlink:href="#path-1"></use>
                            </mask>
                            <use id="Mask" fill="#000000" opacity="0.02" xlink:href="#path-1"></use>
                        </g>
                        <g id="Group-12" transform="translate(3.000000, 2.000000)">
                            <g id="Group-9-Copy-6">
                                <circle id="Oval-3" cx="60" cy="60" r="60"></circle>
                            </g>
                            <g id="noun_1010459_cc-copy" transform="translate(24.000000, 27.000000)" fill="#046567">
                                <g id="Group">
                                    <g transform="translate(0.647676, 0.000000)" id="Shape">
                                        <path d="M75.6191815,17.351682 C75.1305276,8.12003058 67.8007201,0.73470948 58.5162971,0.24235474 L56.5616818,0.24235474 C47.0329319,0.73470948 39.5809609,8.73547401 39.5809609,18.3363914 C39.5809609,28.3065749 47.6437492,36.5535168 57.6611529,36.5535168 C67.1899028,36.5535168 75.1305276,29.045107 75.6191815,19.3211009 L75.6191815,17.351682 L75.6191815,17.351682 Z M57.6611529,33.4762997 C49.3540377,33.4762997 42.6350474,26.706422 42.6350474,18.3363914 C42.6350474,10.3356269 48.8653838,3.68883792 56.6838452,3.31957187 L58.3941337,3.31957187 C65.9682682,3.68883792 72.0764411,9.84327217 72.4429315,17.4747706 L72.4429315,19.1980122 C72.1986046,27.1987768 65.6017778,33.4762997 57.6611529,33.4762997 Z" stroke="#F7F7F7" stroke-width="2.3"></path>
                                        <path d="M53.2017385,9.92647059 L52.0004566,11.5952256 L55.3703314,11.5952256 C55.7195176,11.6104049 58.1510103,11.7696294 59.019574,13.4290979 L53.1807859,13.4290979 L51.976012,15.097855 L59.3164022,15.097855 C59.3147281,15.1303231 59.3123571,15.1575616 59.3094189,15.1891981 C59.3094189,15.1891981 59.2751583,18.8439404 52.6569719,18.2105158 L52.6569719,19.0009965 L52.6639552,19.8581945 L59.8018039,27.6749998 L62.5186563,27.6749998 L62.5186563,27.3272026 L55.6706517,19.5736408 L55.6706517,19.4647331 C55.6706517,19.4647331 61.0604791,19.5434717 61.9529364,15.1259609 C61.9529364,15.1259609 61.9526015,15.1173081 61.9564228,15.097855 L64.2193029,15.097855 L65.4205847,13.4290979 L61.8586442,13.4290979 C61.7245029,12.8176022 61.4505268,12.1430399 60.9122854,11.5952256 L64.2472396,11.5952256 L65.4485214,9.92647059 L53.2017328,9.92647059 L53.2017385,9.92647059 Z" stroke="#FAFAFA" stroke-width="1.1"></path>
                                        <path d="M22.60024,27.8142202 C24.188365,25.7217125 26.5094707,24.1215596 29.0749034,23.5061162 L30.1743745,23.2599388 L30.1743745,3.0733945 L28.4640861,3.31957187 C18.3245189,4.30428135 9.16225947,10.4587156 4.15355762,19.5672783 L3.29841341,21.0443425 L21.8672593,28.7989297 L22.60024,27.8142202 Z M7.69629795,19.5672783 C12.0941825,12.6743119 19.1796632,7.87385321 27.2424515,6.51987768 L27.2424515,20.9212538 C24.7991823,21.7828746 22.7224035,23.1368502 21.012115,25.1062691 L7.69629795,19.5672783 Z" stroke="#F7F7F7" stroke-width="2.3"></path>
                                        <path d="M22.1115862,41.8463303 C20.7677881,39.8769113 20.1569708,37.5382263 20.1569708,35.1995413 C20.1569708,34.5840979 20.1569708,33.9686544 20.2791343,33.2301223 L20.5234612,31.9992355 L1.95461535,24.367737 L1.46596151,25.9678899 C0.610817298,28.9220183 0.12216346,31.9992355 0.12216346,35.1995413 C0.12216346,43.4464832 3.29841341,51.4472477 8.91793255,57.4785933 L10.1395671,58.7094801 L22.7224035,42.8310398 L22.1115862,41.8463303 Z M10.0174037,54.0321101 C5.61951914,48.8623853 3.17624995,42.0925076 3.17624995,35.1995413 C3.17624995,32.983945 3.42057687,30.7683486 3.90923071,28.5527523 L17.1028843,33.9686544 L17.1028843,35.1995413 C17.1028843,37.7844037 17.8358651,40.3692661 19.0574997,42.5848624 L10.0174037,54.0321101 Z" stroke="#F7F7F7" stroke-width="2.3"></path>
                                        <path d="M62.4255278,37.661315 C61.5703836,37.5382263 60.8374029,38.1536697 60.7152394,39.0152905 C58.8827875,53.5397554 46.5442781,64.3715596 32.0068264,64.3715596 C26.7537976,64.3715596 21.7450958,63.0175841 17.3472113,60.309633 L26.1429803,49.1085627 C27.9754322,49.8470948 29.9300476,50.3394495 32.0068264,50.3394495 C40.0696147,50.3394495 46.6664415,43.9388379 47.0329319,35.8149847 C47.0329319,34.9533639 46.4221146,34.2148318 45.5669704,34.2148318 C44.7118262,34.2148318 43.9788454,34.8302752 43.9788454,35.691896 C43.7345185,42.2155963 38.4814898,47.2622324 32.0068264,47.2622324 C30.0522111,47.2622324 28.0975957,46.7698777 26.3873073,45.9082569 L25.2878361,45.2928135 L12.9493267,61.0481651 L14.2931248,62.0328746 C19.5461535,65.6024465 25.6543265,67.4487768 32.1289899,67.4487768 C48.1324031,67.4487768 61.8147105,55.3860856 63.7693259,39.3845566 C63.8914893,38.5229358 63.280672,37.661315 62.4255278,37.661315 Z" stroke="#F7F7F7" stroke-width="2.3"></path>
                                        <path d="M36.4047109,23.9984709 C36.5268744,24.1215596 36.7712013,24.1215596 37.0155282,24.1215596 C37.6263455,24.1215596 38.2371628,23.7522936 38.4814898,23.1368502 C38.8479801,22.398318 38.3593263,21.4136086 37.6263455,21.1674312 C37.3820186,21.0443425 37.1376917,21.0443425 37.0155282,20.9212538 L37.0155282,6.51987768 C38.1149994,6.76605505 39.2144705,7.01223242 40.4361051,7.25840979 C41.2912493,7.50458716 42.1463935,7.01223242 42.3907205,6.27370031 C42.6350474,5.41207951 42.1463935,4.55045872 41.4134128,4.30428135 C39.5809609,3.68883792 37.6263455,3.31957187 35.7938936,3.19648318 L33.8392783,3.0733945 L33.8392783,23.2599388 L34.9387494,23.5061162 C35.4274033,23.6292049 35.9160571,23.8753823 36.4047109,23.9984709 Z" stroke="#F7F7F7" stroke-width="2.3"></path>
                                        <path d="M6.84115374,35.32263 L8.55144217,34.7071865 C9.28442293,34.4610092 9.77307676,33.4762997 9.40658639,32.7377676 C9.16225947,31.9992355 8.18495179,31.5068807 7.45197103,31.8761468 L5.7416826,32.4915902 C5.00870184,32.7377676 4.520048,33.7224771 4.88653838,34.4610092 C5.1308653,35.0764526 5.7416826,35.4457187 6.3524999,35.4457187 C6.47466336,35.32263 6.71899028,35.32263 6.84115374,35.32263 Z" stroke="#F7F7F7" stroke-width="2.3"></path>
                                        <path d="M13.4379806,34.3379205 L6.10817298,36.9227829 C5.37519222,37.1689602 4.88653838,38.1536697 5.25302876,38.8922018 C5.49735568,39.6307339 6.10817298,40 6.71899028,40 C6.84115374,40 7.08548065,40 7.20764411,39.8769113 L14.4152882,37.1689602 C15.148269,36.9227829 15.6369228,35.9380734 15.2704324,35.1995413 C14.9039421,34.4610092 14.1709613,33.9686544 13.4379806,34.3379205 Z" stroke="#F7F7F7" stroke-width="2.3"></path>
                                        <path d="M13.4379806,39.0152905 L7.57413449,41.2308869 C6.84115374,41.4770642 6.3524999,42.4617737 6.71899028,43.2003058 C6.96331719,43.8157492 7.57413449,44.1850153 8.18495179,44.1850153 C8.30711525,44.1850153 8.55144217,44.1850153 8.67360563,44.0619266 L14.5374517,41.8463303 C15.2704324,41.6001529 15.7590863,40.6154434 15.3925959,39.8769113 C15.0261055,39.1383792 14.1709613,38.7691131 13.4379806,39.0152905 Z" stroke="#F7F7F7" stroke-width="2.3"></path>
                                        <path d="M12.4606729,44.0619266 L9.04009601,45.2928135 C8.30711525,45.5389908 7.81846141,46.5237003 8.18495179,47.2622324 C8.42927871,47.8776758 9.04009601,48.2469419 9.6509133,48.2469419 C9.77307676,48.2469419 10.0174037,48.2469419 10.1395671,48.1238532 L13.560144,46.8929664 C14.2931248,46.646789 14.7817786,45.6620795 14.4152882,44.9235474 C14.0487978,44.1850153 13.1936536,43.8157492 12.4606729,44.0619266 Z" stroke="#F7F7F7" stroke-width="2.3"></path>
                                    </g>
                                </g>
                            </g>
                        </g>
                    </g>
                </g>
            </g>
        </g>
    </g>
</svg>