<?xml version="1.0" encoding="UTF-8"?>
<svg width="5px" height="20px" viewBox="0 0 5 20" version="1.1" xmlns="http://www.w3.org/2000/svg" xmlns:xlink="http://www.w3.org/1999/xlink">
    <!-- Generator: Sketch 41.2 (35397) - http://www.bohemiancoding.com/sketch -->
    <title>...</title>
    <desc>Created with Sketch.</desc>
    <defs></defs>
    <g id="Page-1" stroke="none" stroke-width="1" fill="none" fill-rule="evenodd">
        <g id="symbol-search" transform="translate(-1214.000000, -495.000000)" fill="#21CAD3">
            <path d="M1207,504.992727 C1207,506.098182 1207.88727,507 1208.99273,507 C1210.08364,507 1210.98545,506.098182 1210.98545,504.992727 C1210.98545,503.901818 1210.08364,503 1208.99273,503 C1207.88727,503 1207,503.901818 1207,504.992727 Z M1214.42414,504.992727 C1214.42414,506.098182 1215.31141,507 1216.41687,507 C1217.50778,507 1218.40959,506.098182 1218.40959,504.992727 C1218.40959,503.901818 1217.50778,503 1216.41687,503 C1215.31141,503 1214.42414,503.901818 1214.42414,504.992727 Z M1221.84828,504.992727 C1221.84828,506.098182 1222.73555,507 1223.84101,507 C1224.93192,507 1225.83373,506.098182 1225.83373,504.992727 C1225.83373,503.901818 1224.93192,503 1223.84101,503 C1222.73555,503 1221.84828,503.901818 1221.84828,504.992727 Z" id="..." transform="translate(1216.416867, 505.000000) scale(1, -1) rotate(90.000000) translate(-1216.416867, -505.000000) "></path>
        </g>
    </g>
</svg>