<?xml version="1.0" encoding="UTF-8"?>
<svg width="54px" height="56px" viewBox="0 0 54 56" version="1.1" xmlns="http://www.w3.org/2000/svg" xmlns:xlink="http://www.w3.org/1999/xlink">
    <!-- Generator: Sketch 41.2 (35397) - http://www.bohemiancoding.com/sketch -->
    <title>Group 10</title>
    <desc>Created with Sketch.</desc>
    <defs></defs>
    <g id="Page-1" stroke="none" stroke-width="1" fill="none" fill-rule="evenodd">
        <g id="Brokerage-Fees_DETAILS_SECTION" transform="translate(-400.000000, -2156.000000)" fill="#FFFFFF">
            <g id="Group-15" transform="translate(380.000000, 2156.000000)">
                <g id="Group-9" transform="translate(20.000000, 0.000000)">
                    <g id="Group-10">
                        <path d="M26.9306641,2.29374997 C40.5396263,2.29374997 51.6171061,13.6134061 51.6171061,27.5249996 C51.6171061,41.4365932 40.5396263,52.7562493 26.9306641,52.7562493 C13.3217018,52.7562493 2.24422201,41.4365932 2.24422201,27.5249996 C2.24422201,13.6134061 13.3217018,2.29374997 26.9306641,2.29374997 Z M26.9306641,0 C12.0582048,0 0,12.3243186 0,27.5249996 C0,42.7256807 12.0582048,55.0499992 26.9306641,55.0499992 C41.8031233,55.0499992 53.8613281,42.7256807 53.8613281,27.5249996 C53.8613281,12.3243186 41.8031233,0 26.9306641,0 L26.9306641,0 Z" id="Shape"></path>
                        <path d="M23.47111,35.8025047 C23.34211,35.8025047 23.21161,35.7687765 23.09611,35.6997869 C22.86511,35.563341 22.72111,35.3103793 22.72111,35.0359542 L22.72111,19.1009019 C22.72111,18.8264768 22.86511,18.5735152 23.09611,18.4370692 C23.32711,18.2990901 23.61511,18.2990901 23.84611,18.4370692 L37.34611,26.4030622 C37.57711,26.5395082 37.72111,26.7924699 37.72111,27.066895 C37.72111,27.34132 37.57711,27.5942817 37.34611,27.7307277 L23.84611,35.6967207 C23.73061,35.7687765 23.60011,35.8025047 23.47111,35.8025047 Z M24.22111,20.4316336 L24.22111,33.7082887 L35.47111,27.0699612 L24.22111,20.4316336 L24.22111,20.4316336 Z" id="Shape"></path>
                    </g>
                </g>
            </g>
        </g>
    </g>
</svg>