<?xml version="1.0" encoding="UTF-8"?>
<svg width="43px" height="44px" viewBox="0 0 43 44" version="1.1" xmlns="http://www.w3.org/2000/svg" xmlns:xlink="http://www.w3.org/1999/xlink">
    <!-- Generator: Sketch 41.2 (35397) - http://www.bohemiancoding.com/sketch -->
    <title>wealth</title>
    <desc>Created with Sketch.</desc>
    <defs></defs>
    <g id="Page-1" stroke="none" stroke-width="1" fill="none" fill-rule="evenodd" opacity="0.75">
        <g id="mutual-fund" transform="translate(-776.000000, -521.000000)" stroke="#28BBC4" fill="#FFFFFF">
            <g id="Group-6" transform="translate(750.000000, 495.000000)">
                <g id="wealth" transform="translate(27.149457, 27.096498)">
                    <g id="Group">
                        <g id="Group-3">
                            <g>
                                <path d="M9.56344807,39.5616238 C9.73587161,41.0209542 10.8244699,42.1501088 12.1414129,42.1501088 L22.7608387,42.1501088 C23.4454067,42.1501088 24.0665974,41.8428813 24.532141,41.34551 C24.9366373,41.2953982 25.3313474,41.2359197 25.7199993,41.1708212 C26.1962611,41.7707578 26.8798971,42.1501088 27.6408907,42.1501088 L38.2603164,42.1501088 C39.6965579,42.1501088 40.8648438,40.8073936 40.8648438,39.1574511 C40.8648438,38.0676366 40.3536313,37.1145758 39.5935698,36.5914461 C40.3536313,36.0683164 40.8648438,35.1152556 40.8648438,34.0254411 C40.8648438,32.3750302 39.6965579,31.0327834 38.2603164,31.0327834 L38.094417,31.0327834 C38.2934031,30.0764443 38.3954592,29.0620317 38.3954592,27.9900139 C38.3954592,21.3420051 34.2134895,14.1202864 27.8897398,10.7627961 C27.9838737,10.5042754 28.043523,10.2293631 28.043523,9.93852731 L28.043523,9.29456732 C28.043523,8.07502417 27.1357363,7.07512993 25.9651203,6.91495951 C28.2802558,5.61392615 29.8236795,3.67267948 29.8236795,1.95201837 C29.8236795,1.17364636 29.4974728,0.551229756 28.8804761,0.151740392 L28.6474713,0 L12.0211825,0 L11.7877117,0.150803723 C11.170715,0.550293087 10.8445083,1.17270969 10.8445083,1.9510817 C10.8445083,3.67174281 12.387932,5.61298949 14.7030674,6.91402284 C13.5329175,7.07419326 12.6246648,8.07455584 12.6246648,9.29363065 L12.6246648,9.93759065 C12.6246648,10.2284264 12.6843141,10.5033388 12.778448,10.7618594 C6.45423233,14.1193498 2.2727286,21.3410684 2.2727286,27.9890772 C2.2727286,33.3875695 4.83997523,37.3482747 9.56344807,39.5616238 Z M22.7608387,40.2538222 L12.1414129,40.2538222 C11.802624,40.2538222 11.4237582,39.7850193 11.4237582,39.1574511 C11.4237582,38.5298828 11.802624,38.0610799 12.1414129,38.0610799 L22.7608387,38.0610799 C23.0996276,38.0610799 23.4784934,38.5298828 23.4784934,39.1574511 C23.4784934,39.7850193 23.0991616,40.2538222 22.7608387,40.2538222 Z M22.7608387,35.121344 L12.1414129,35.121344 C11.802624,35.121344 11.4237582,34.6525411 11.4237582,34.0249728 C11.4237582,33.3974045 11.802624,32.9286016 12.1414129,32.9286016 L22.7608387,32.9286016 C23.0996276,32.9286016 23.4784934,33.3974045 23.4784934,34.0249728 C23.4784934,34.6525411 23.0991616,35.121344 22.7608387,35.121344 Z M22.7608387,29.9888657 L12.1414129,29.9888657 C11.802624,29.9888657 11.4237582,29.5200628 11.4237582,28.8924946 C11.4237582,28.2649263 11.802624,27.7961234 12.1414129,27.7961234 L22.7608387,27.7961234 C23.0996276,27.7961234 23.4784934,28.2649263 23.4784934,28.8924946 C23.4784934,29.5200628 23.0991616,29.9888657 22.7608387,29.9888657 Z M23.4784934,23.9576535 C23.4784934,24.4536198 23.0772591,24.8568558 22.583755,24.8568558 L12.3184966,24.8568558 C11.8249924,24.8568558 11.4237582,24.4531514 11.4237582,23.9576535 L11.4237582,23.5637841 C11.4237582,23.0678179 11.8249924,22.6645818 12.3184966,22.6645818 L22.583755,22.6645818 C23.0772591,22.6645818 23.4784934,23.0682862 23.4784934,23.5637841 L23.4784934,23.9576535 Z M25.2008647,38.12009 C24.9930244,37.4770667 24.5997124,36.9389503 24.094092,36.5909778 C24.5997124,36.2430052 24.9930244,35.7048888 25.2008647,35.0618655 C25.4087049,35.7048888 25.802017,36.2430052 26.3076374,36.5909778 C25.802017,36.9389503 25.4087049,37.477535 25.2008647,38.12009 Z M38.2603164,40.2538222 L27.6408907,40.2538222 C27.3021018,40.2538222 26.923236,39.7850193 26.923236,39.1574511 C26.923236,38.5298828 27.3021018,38.0610799 27.6408907,38.0610799 L38.2603164,38.0610799 C38.5991054,38.0610799 38.9779711,38.5298828 38.9779711,39.1574511 C38.9779711,39.7850193 38.5991054,40.2538222 38.2603164,40.2538222 Z M38.2603164,32.9286016 C38.5991054,32.9286016 38.9779711,33.3974045 38.9779711,34.0249728 C38.9779711,34.6525411 38.5991054,35.121344 38.2603164,35.121344 L27.6408907,35.121344 C27.3021018,35.121344 26.923236,34.6525411 26.923236,34.0249728 C26.923236,33.3974045 27.3021018,32.9286016 27.6408907,32.9286016 L38.2603164,32.9286016 Z M12.731381,1.9510817 C12.731381,1.93094332 12.731847,1.91220993 12.7327791,1.89628656 L27.9354087,1.89628656 C27.9363408,1.91220993 27.9368068,1.93047498 27.9368068,1.9510817 C27.9368068,3.47082729 24.6500414,6.50750846 20.3338609,6.50750846 C16.0176804,6.50750846 12.731381,3.47082729 12.731381,1.9510817 Z M14.5120035,9.29363065 C14.5120035,9.01403493 14.7473384,8.77752599 15.0255461,8.77752599 L25.6431077,8.77752599 C25.9213155,8.77752599 26.1566503,9.01403493 26.1566503,9.29363065 L26.1566503,9.93759065 C26.1566503,10.2171864 25.9213155,10.4536953 25.6431077,10.4536953 L15.0255461,10.4536953 C14.7473384,10.4536953 14.5120035,10.2171864 14.5120035,9.93759065 L14.5120035,9.29363065 L14.5120035,9.29363065 Z M14.142924,12.1762298 C14.4169376,12.28582 14.7133197,12.3504502 15.0255461,12.3504502 L25.6431077,12.3504502 C25.9553341,12.3504502 26.2517162,12.28582 26.5257298,12.1762298 C32.5092925,15.0564872 36.5085865,21.7995679 36.5085865,27.9895456 C36.5085865,29.1083968 36.3753078,30.1153161 36.142769,31.0323151 L27.6408907,31.0323151 C26.5224678,31.0323151 25.5690122,31.8481539 25.2008647,32.9880801 C24.9930244,32.3450568 24.5997124,31.8069404 24.094092,31.4589679 C24.8541536,30.9358382 25.3653661,29.9827774 25.3653661,28.8929629 C25.3653661,27.7942501 24.8457654,26.8341642 24.0754516,26.3138446 C24.8494935,25.8169416 25.3653661,24.9477127 25.3653661,23.9576535 L25.3653661,23.5637841 C25.3653661,22.0220268 24.1173925,20.7678269 22.583755,20.7678269 L12.3184966,20.7678269 C10.7843931,20.7678269 9.53688553,22.0220268 9.53688553,23.5637841 L9.53688553,23.9576535 C9.53688553,24.9472444 10.0527581,25.8164733 10.8268,26.3138446 C10.0564862,26.8341642 9.53688553,27.7942501 9.53688553,28.8929629 C9.53688553,29.9827774 10.048098,30.9358382 10.8081596,31.4589679 C10.048098,31.9820975 9.53688553,32.9351583 9.53688553,34.0249728 C9.53688553,35.1147873 10.048098,36.0673797 10.8081596,36.5909778 C10.4567884,36.8331067 10.1590083,37.1665609 9.9404498,37.5641769 C6.72731393,35.9128293 4.1605333,33.0213319 4.1605333,27.9890772 C4.16006729,21.7995679 8.15936129,15.0564872 14.142924,12.1762298 Z" id="Shape"></path>
                                <rect id="Rectangle-path" x="3.91774232" y="0.861267223" width="2.35894036" height="2.37070945"></rect>
                                <rect id="Rectangle-path" x="7.6919537" y="4.65430868" width="2.35894036" height="2.37070945"></rect>
                                <rect id="Rectangle-path" x="3.91774232" y="8.4468818" width="2.35894036" height="2.37070945"></rect>
                                <rect id="Rectangle-path" x="0.143530943" y="4.65430868" width="2.35894036" height="2.37070945"></rect>
                                <rect id="Rectangle-path" x="3.91774232" y="4.65430868" width="2.35894036" height="2.37070945"></rect>
                            </g>
                        </g>
                    </g>
                </g>
            </g>
        </g>
    </g>
</svg>